<svg width="130" height="130" viewBox="0 0 130 130" fill="none" xmlns="http://www.w3.org/2000/svg">
<path d="M91.3921 128.702C89.5427 128.702 84.821 127.837 84.3378 119.127C83.6878 107.461 84.117 92.116 84.2814 87.2153L76.4348 85.6553C76.0385 85.5763 75.6793 85.3689 75.4128 85.0652C75.1463 84.7614 74.9874 84.3783 74.9606 83.9751C74.7619 81.0268 70.5014 11.7074 98.888 2.37925C99.1647 2.28836 99.4591 2.2645 99.7469 2.30962C100.035 2.35475 100.308 2.46758 100.543 2.63881C100.779 2.81005 100.971 3.03481 101.102 3.29458C101.234 3.55436 101.303 3.84172 101.302 4.13302C101.297 5.17057 100.916 107.753 101.302 116.595C101.579 123.022 96.2586 128.467 91.6669 128.695C91.5745 128.699 91.4821 128.7 91.3897 128.7L91.3921 128.702ZM78.5565 82.3268L86.5355 83.9138C86.9655 83.9989 87.3508 84.2352 87.6217 84.5798C87.8925 84.9245 88.031 85.3547 88.0121 85.7926C88.0048 85.984 87.2444 105.104 88.0121 118.923C88.1152 120.802 88.6425 125.143 91.4853 125.021C94.3429 124.881 97.8063 120.961 97.6248 116.76C97.2691 108.548 97.5512 23.7606 97.6125 6.89491C76.5157 17.756 78.1174 72.7926 78.5565 82.3268ZM45.404 129.451H45.2397C42.6397 129.377 38.2442 127.628 38.0701 116.73C37.8101 100.691 39.8484 63.7245 40.3217 55.4266C36.6302 54.7423 28.6904 52.5813 28.6904 46.6455C28.6904 40.7906 31.2242 3.83378 31.3321 2.26397C31.3429 2.0188 31.4027 1.77826 31.5078 1.55653C31.613 1.3348 31.7615 1.13635 31.9445 0.972876C32.1276 0.809399 32.3415 0.684197 32.5736 0.604641C32.8058 0.525086 33.0515 0.492786 33.2963 0.509642C33.5412 0.526499 33.7801 0.592172 33.9992 0.702794C34.2183 0.813416 34.413 0.966751 34.5719 1.15377C34.7308 1.34079 34.8507 1.55771 34.9245 1.79177C34.9983 2.02582 35.0245 2.27227 35.0016 2.51661C34.977 2.8968 32.3697 40.9132 32.3697 46.6479C32.3697 49.8243 39.1714 51.6517 42.468 52.0368C42.9347 52.0917 43.3629 52.3229 43.6648 52.6831C43.9666 53.0434 44.1194 53.5054 44.0918 53.9745C44.0672 54.4185 41.4599 98.7755 41.7493 116.669C41.8401 122.394 43.1499 125.71 45.3427 125.771H45.4163C47.7465 125.771 50.5868 122.803 50.6751 121.552C50.9106 118.278 48.4259 71.6545 47.4497 53.9672C47.423 53.4902 47.5829 53.0216 47.8955 52.6604C48.2082 52.2992 48.6491 52.0738 49.125 52.0319C50.3416 51.924 51.3987 51.2985 52.3627 50.1236C58.978 42.0366 57.4155 13.0711 56.2529 2.59019C56.2173 2.34586 56.2312 2.09685 56.2938 1.85801C56.3565 1.61916 56.4666 1.39538 56.6176 1.19999C56.7685 1.0046 56.9573 0.841607 57.1726 0.720718C57.3879 0.59983 57.6254 0.523523 57.8708 0.496345C58.1162 0.469168 58.3646 0.491676 58.6011 0.562528C58.8377 0.63338 59.0575 0.751126 59.2476 0.908749C59.4377 1.06637 59.594 1.26064 59.7074 1.47999C59.8208 1.69934 59.8889 1.93926 59.9076 2.18548C60.0842 3.78718 64.1559 41.5166 55.2104 52.4538C54.0478 53.8715 52.7085 54.8355 51.2123 55.3334C51.7618 65.39 54.6218 117.962 54.347 121.812C54.114 125.062 49.5984 129.451 45.404 129.451Z" fill="white"/>
<path d="M48.9162 57.0921C48.4283 57.0921 47.9604 56.8983 47.6154 56.5533C47.2704 56.2083 47.0766 55.7404 47.0766 55.2525V2.38906C47.0766 1.90116 47.2704 1.43325 47.6154 1.08825C47.9604 0.743255 48.4283 0.549438 48.9162 0.549438C49.4041 0.549438 49.872 0.743255 50.217 1.08825C50.562 1.43325 50.7558 1.90116 50.7558 2.38906V55.2525C50.7558 55.7404 50.562 56.2083 50.217 56.5533C49.872 56.8983 49.4041 57.0921 48.9162 57.0921ZM41.1726 54.9532C40.6847 54.9532 40.2168 54.7594 39.8718 54.4144C39.5268 54.0694 39.333 53.6015 39.333 53.1136V3.44378C39.333 2.95588 39.5268 2.48796 39.8718 2.14297C40.2168 1.79797 40.6847 1.60416 41.1726 1.60416C41.6605 1.60416 42.1284 1.79797 42.4734 2.14297C42.8184 2.48796 43.0123 2.95588 43.0123 3.44378V53.1136C43.0123 53.6015 42.8184 54.0694 42.4734 54.4144C42.1284 54.7594 41.6605 54.9532 41.1726 54.9532Z" fill="white"/>
<path d="M45.9461 56.1061C44.1629 56.1061 42.387 55.9172 40.6284 55.5345C40.1516 55.4317 39.7352 55.1436 39.4707 54.7338C39.2062 54.324 39.1153 53.8259 39.218 53.3491C39.3243 52.8744 39.6132 52.4606 40.0221 52.1972C40.4311 51.9337 40.9273 51.8417 41.4035 51.9411C43.9789 52.4979 46.6084 52.5764 49.2157 52.1766C49.4571 52.1335 49.7047 52.1391 49.9439 52.193C50.1831 52.247 50.4091 52.3482 50.6086 52.4908C50.8081 52.6333 50.9771 52.8143 51.1057 53.0231C51.2342 53.2319 51.3198 53.4643 51.3572 53.7067C51.3947 53.949 51.3833 54.1964 51.3237 54.4342C51.2642 54.6721 51.1577 54.8957 51.0105 55.0918C50.8633 55.2879 50.6784 55.4526 50.4667 55.5763C50.2549 55.6999 50.0206 55.78 49.7774 55.8117C48.5019 56.0079 47.2216 56.1061 45.9461 56.1061Z" fill="white"/>
</svg>
