<svg width="33" height="134" viewBox="0 0 33 134" fill="none" xmlns="http://www.w3.org/2000/svg">
<path fill-rule="evenodd" clip-rule="evenodd" d="M16.7136 133.965H16.5492C13.9492 133.892 9.55378 132.143 9.37962 121.245C9.11962 105.206 11.1579 68.2394 11.6313 59.9414C7.93981 59.2571 0 57.0962 0 51.1603C0 45.3054 2.53378 8.34862 2.6417 6.77881C2.71283 6.60927 2.78231 6.43455 2.85333 6.25595C3.92231 3.56778 5.34107 0 18 0C28.8 0 31.3114 4.46688 31.2172 6.70032C31.3938 8.30202 35.4655 46.0314 26.52 56.9686C25.3574 58.3864 24.0181 59.3503 22.5219 59.8482C23.0713 69.9048 25.9313 122.476 25.6566 126.327C25.4236 129.577 20.9079 133.965 16.7136 133.965ZM6.28453 7.42389C6.30063 7.18704 6.30979 7.05235 6.31113 7.03145C6.98333 5.8543 9.86219 3.5 16 3.5C23.6723 3.5 27.368 5.21007 27.5625 7.10503C28.7251 17.586 30.2875 46.5514 23.6723 54.6384C22.7083 55.8133 21.6511 56.4388 20.4345 56.5467C19.9587 56.5887 19.5178 56.8141 19.2051 57.1752C18.8925 57.5364 18.7326 58.0051 18.7592 58.482C19.7355 76.1694 22.2202 122.793 21.9847 126.067C21.8964 127.318 19.056 130.286 16.7259 130.286H16.6523C14.4594 130.225 13.1496 126.909 13.0589 121.184C12.7778 103.807 15.2285 61.4747 15.3929 58.6362C15.3977 58.5517 15.4006 58.5022 15.4013 58.4894C15.4289 58.0202 15.2762 57.5582 14.9743 57.198C14.6725 56.8377 14.2443 56.6065 13.7775 56.5516C10.4809 56.1665 3.67925 54.3392 3.67925 51.1628C3.67925 45.7434 6.00776 11.4946 6.28453 7.42389Z" fill="white"/>
</svg>
