<svg width="120" height="118" viewBox="0 0 120 118" fill="none" xmlns="http://www.w3.org/2000/svg">
<path d="M98.4969 57.5089C98.2705 56.0724 96.8924 55.107 95.4653 55.3744C90.1946 56.078 84.9121 56.349 79.6217 56.3569C90.3146 47.2379 94.4436 32.0968 94.1392 18.3146C94.085 13.104 93.5394 7.9257 92.597 2.82335C92.2302 0.62515 89.462 -0.462115 87.7093 0.953744C85.8139 2.33046 83.6715 3.25413 81.3657 3.73648C74.5916 5.11976 67.4853 2.94663 60.9329 0.982338C55.1802 -0.632037 52.2402 6.50023 45.5551 7.20476C38.9047 8.11296 32.5067 4.45624 26.0199 2.63632C22.6365 1.6039 19.9508 5.60281 22.2221 8.35109C23.5257 9.90546 24.7182 11.5616 25.7966 13.2985C29.1121 18.5696 31.3438 24.4149 32.7603 30.5239C34.5294 38.06 35.0188 45.9959 34.5617 53.7603C31.3475 53.6506 28.1347 53.6112 24.9242 53.6844C22.8559 53.686 21.2085 55.5085 21.4194 57.5675C21.6083 59.5142 23.3399 60.9392 25.2866 60.7501C31.0236 60.1932 36.8361 60.0109 42.6749 60.0144C57.4152 60.1027 72.1916 60.9453 86.9457 60.6369C89.9371 60.5865 92.9207 60.5094 95.9178 60.5016C97.4989 60.5307 98.7615 59.0708 98.4969 57.5089ZM59.004 6.55601L58.9478 6.5989C58.8496 6.62117 58.9562 6.55601 59.004 6.55601ZM38.8993 53.949C41.5719 40.0212 40.0466 25.1061 33.4403 12.4505C42.6449 15.823 52.3567 13.4719 59.0441 6.54757C68.5532 8.61945 79.3405 11.5803 88.3904 6.23117C91.6253 23.825 89.5925 46.0639 72.9533 56.2391C69.208 56.1071 65.4599 55.8779 61.7101 55.6072C67.0909 49.8938 71.9837 42.6008 69.8893 34.7464C67.1488 30.2227 63.9116 37.1729 63.2863 39.733C62.4882 42.1161 62.6572 44.7371 61.8266 47.12C60.898 49.5144 59.4831 51.7388 57.8818 53.739C57.4668 54.251 57.0289 54.7442 56.5696 55.2169C50.6795 54.7529 44.7875 54.2569 38.8993 53.949Z" fill="white"/>
<path d="M116.812 81.0601C117.298 81.048 117.77 80.8961 118.172 80.6225C119.332 80.0126 120.168 78.7695 119.971 76.9998C117.028 64.119 124.056 41.2294 106.964 36.8197C105.01 36.4255 104.221 39.1599 106.08 39.8691C106.867 40.1438 107.649 40.4431 108.332 40.8601C117.415 46.2378 111.88 65.4535 112.751 76.2694C77.807 79.314 42.1047 76.3325 7.06561 75.7498C7.31311 68.1441 7.95248 60.4986 7.65225 53.0902C6.78647 44.6384 8.49014 38.0511 18.1965 37.4555C20.6699 37.1237 20.5321 33.5703 17.9954 33.4698C-0.186895 32.9926 1.57467 48.3352 0.87342 61.5903C-0.848534 94.7553 -4.22424 119.503 38.1892 116.813C46.7915 116.669 55.4476 116.166 63.9972 116.427C81.4731 114.673 114.583 126.418 118.733 101.394C118.815 98.743 115.034 98.498 114.752 101.115C114.49 111.598 102.426 113.322 94.0621 113.266C72.6601 111.771 51.9742 111.653 29.8098 111.232C22.686 110.559 13.9452 109.411 10.2405 102.681C7.85264 96.2717 7.0942 89.5573 6.98709 82.741C10.813 82.6313 15.6843 82.5319 19.1322 82.4804C50.0901 82.2401 85.6363 82.2594 116.812 81.0601Z" fill="white"/>
</svg>
