<svg width="40" height="40" viewBox="0 0 40 40" fill="none" xmlns="http://www.w3.org/2000/svg">
<path d="M32.4587 19.0895C32.391 18.0317 32.2552 16.9783 32.0847 15.9341C31.9557 15.3564 31.9568 14.5406 31.5543 14.0145C29.8545 12.0925 27.4963 15.0481 26.0893 16.0494C22.2861 19.4298 25.3311 23.1055 28.3427 25.631C32.1213 28.6838 32.739 21.4614 32.4587 19.0895ZM29.8146 24.9603C28.7402 24.4593 27.8819 23.4318 27.0698 22.5862C24.0159 19.1137 26.8052 17.2633 29.8371 15.4802C30.0255 18.0249 30.2197 20.6218 30.2353 23.1683C30.1999 23.6853 30.2231 24.7014 29.8146 24.9603Z" fill="white"/>
<path d="M11.6402 18.4028C10.9534 18.2695 10.2522 18.7044 9.56459 18.68C8.84214 18.695 8.12559 18.7561 7.40401 18.8142C6.45066 18.9506 6.61165 20.2451 7.82589 20.0778C9.43997 20.048 11.0285 21.2577 12.5969 20.4368C13.6025 19.7746 12.5259 18.4881 11.6402 18.4028ZM9.52657 14.2893C10.1647 14.4002 10.8025 14.5133 11.4399 14.6288C12.2102 14.7819 12.9444 14.0989 12.8404 13.3173C12.7017 12.1256 11.423 12.1971 10.5268 12.3888C9.53948 12.5287 8.55307 12.6585 7.58066 12.8844C7.03849 12.9986 7.0392 13.8424 7.59358 13.9469C8.23707 14.0865 8.88127 14.1745 9.52657 14.2893ZM12.1204 7.0874C11.5355 7.03796 11.0326 6.98734 10.4795 6.88586C9.50886 6.66402 8.48143 6.4032 7.54579 6.93262C6.75996 7.38395 7.20027 8.4287 7.86108 8.75289C8.70886 9.30025 9.60128 8.62433 10.4653 8.53576C10.9538 8.48121 11.4586 8.42531 11.949 8.38981C12.4125 8.38398 13.0647 8.42398 13.1178 7.80607C13.1791 7.23201 12.5738 7.07685 12.1204 7.0874ZM10.6132 24.8239C9.70527 24.6624 8.58117 24.464 7.67537 24.3209C5.87597 24.089 5.83165 26.8551 7.63679 26.6823C8.54456 26.565 9.66796 26.3995 10.5786 26.265C11.0456 26.1279 11.8053 26.2645 11.9861 25.6873C12.1317 24.9109 11.1193 24.9595 10.6132 24.8239Z" fill="white"/>
<path d="M38.9625 26.0647C39.0414 21.5165 39.3133 16.1689 39.2182 11.656C39.0358 8.22858 39.1905 3.93938 36.2404 1.58521C32.7159 -1.01985 24.5004 0.369706 20.0886 0.374194C15.2001 0.603124 10.3132 0.713574 5.42156 0.647209C5.01463 0.638392 4.59503 0.648311 4.20432 0.775215C0.179154 2.12825 0.269766 10.407 0.0463463 13.9588C-0.113306 18.7522 0.188837 23.571 0.21269 28.3505C0.190805 30.6281 -0.110315 32.9402 0.703851 35.1874C3.36213 42.1166 13.8094 39.6071 19.547 39.3397C23.367 38.9538 27.1605 39.4956 30.9791 39.5039C34.813 39.6017 38.4804 38.0935 38.8408 33.812C38.9454 32.9778 37.6787 32.7874 37.5259 33.6042C36.9263 37.9056 32.562 37.8773 29.1076 37.5218C26.9447 37.3552 24.5118 37.1054 22.3098 37.0376C21.1208 37.0013 19.8096 37.0736 18.4382 37.1804C18.4653 35.2906 18.5211 33.4023 18.5646 31.5128C18.8643 22.065 18.6249 11.6757 18.902 2.22303C18.9035 2.14774 18.8989 2.07245 18.8884 1.99788C21.2297 1.88121 23.5697 1.74943 25.9078 1.6193C28.6853 1.55159 31.5816 1.23221 34.2489 2.13659C35.8574 2.67554 36.8085 4.17641 37.1912 5.76475C37.8895 8.63236 37.8492 11.6181 37.8684 14.5568C37.8512 18.2612 37.7237 22.326 37.6305 26.0449C37.584 26.9121 38.9793 26.9438 38.9625 26.0647ZM16.7856 37.3187C12.4868 37.6926 7.85405 38.1156 4.63967 36.4871C1.86204 34.8397 2.56316 31.1458 2.5012 28.3662C2.45153 25.4683 2.25424 22.598 2.15797 19.7176C2.13088 16.6461 1.19281 2.49431 5.22782 2.37347C9.00067 2.38953 12.7734 2.27656 16.5434 2.10872C16.5415 2.1447 16.5397 2.18068 16.5405 2.21847C16.7453 13.8422 17.748 25.7121 16.7856 37.3187Z" fill="white"/>
</svg>
