<svg width="41" height="40" viewBox="0 0 41 40" fill="none" xmlns="http://www.w3.org/2000/svg">
<mask id="path-1-outside-1_77_6394" maskUnits="userSpaceOnUse" x="3.78467" y="0.176758" width="33" height="39" fill="black">
<rect fill="white" x="3.78467" y="0.176758" width="33" height="39"/>
<path d="M19.544 1.24616C19.4705 1.25672 19.4013 1.28724 19.344 1.33439C16.0693 0.956157 12.4658 2.13086 9.87164 4.49733C7.60929 6.56086 6.0487 9.47792 5.39517 12.8091C4.37929 16.6432 4.61752 20.8197 6.21282 24.4562C5.29046 26.5609 5.36988 29.2079 6.62282 31.135C7.87576 33.0614 10.1322 34.2938 12.4305 34.305C13.4952 34.3097 14.6787 33.9832 15.2087 33.0603C15.9369 33.4091 16.8593 33.2173 17.4052 32.6232C17.9322 33.3197 18.9346 33.6191 19.7805 33.4014C20.6934 34.462 22.0699 34.5244 23.104 33.8932C19.8687 36.6756 15.6822 38.1167 11.0275 37.9814C11.2922 37.3873 11.5011 36.4932 11.0416 35.9191C10.6581 35.4397 10.0593 35.0897 9.31223 34.9097C6.41635 34.2138 5.33046 37.0456 7.31341 38.2038C7.85458 38.5197 8.46517 38.6114 8.99576 38.6726C14.5569 39.3162 20.0069 37.925 24.1516 34.0709C26.4352 34.2356 29.8634 31.1226 30.4546 27.4473C30.6105 26.4773 30.4793 25.6438 30.0928 25.0591C33.3611 18.9709 33.7428 10.6985 29.4111 5.42557C26.9687 2.45439 23.0993 0.810275 19.544 1.24616ZM10.1587 37.8538C10.1439 37.8809 10.1321 37.9095 10.1234 37.9391C9.28458 37.8803 8.27576 37.7985 7.73399 37.4826C7.42811 37.3038 7.12399 36.9544 7.13694 36.5767C7.14752 36.2432 7.41929 35.9032 7.79752 35.7497C8.53164 35.4497 9.85341 35.7726 10.3893 36.4409C10.5846 36.6844 10.4246 37.3809 10.1587 37.8538ZM26.6987 21.4497C24.0916 22.3179 22.2752 23.5714 21.3005 25.1762C20.2075 26.975 19.2534 30.2244 19.4711 32.4009C18.5728 32.2538 17.7328 31.5497 17.3105 30.5691C16.9358 29.6985 16.8505 28.6191 17.0575 27.3597C17.5022 24.6467 19.1228 22.1026 21.3934 20.5538C24.0711 18.7256 26.2887 19.3373 27.1193 20.7362C27.0369 20.9656 26.9511 21.1967 26.8605 21.4303C26.8058 21.4262 26.7508 21.4328 26.6987 21.4497ZM7.31929 24.6791C7.20105 24.0909 7.38399 23.4444 7.76694 22.9767C7.72694 24.205 8.07694 25.7585 8.84164 27.6914C9.76047 30.0156 11.4487 32.0303 13.8746 32.6726C11.7275 33.6732 9.10223 32.5762 7.76164 30.5873C6.99399 29.4497 6.60046 28.4932 6.5587 27.665C6.49223 26.3344 6.70517 25.4026 7.14341 25.1073C7.21179 25.0613 7.26504 24.9961 7.29644 24.9199C7.32785 24.8437 7.33541 24.7599 7.31929 24.6791ZM8.82105 21.8391C9.37752 20.5273 10.8128 19.682 12.2111 19.8356C14.4711 20.0767 15.9852 22.112 17.2405 23.8332C17.2699 23.8744 17.3075 23.9044 17.3475 23.9309C17.0983 24.4124 16.8842 24.9114 16.7069 25.4238C15.8428 23.1356 13.814 21.6532 12.7981 21.5179C11.3675 21.3314 10.6175 22.6144 10.7658 24.0356C11.1246 27.492 14.2075 29.9767 16.234 29.8779C16.3746 30.5838 16.6081 31.1662 17.0263 31.735C14.5499 32.7303 11.2116 31.415 9.61811 27.385C8.60929 24.8344 8.34164 22.9685 8.82105 21.8391ZM16.1287 29.0544C14.5528 29.0785 11.9052 26.9214 11.5963 23.9497C11.5475 23.4791 11.644 22.8603 11.9716 22.5432C12.1499 22.3703 12.3816 22.3056 12.6869 22.3456C12.9628 22.3826 13.2281 22.5338 13.4511 22.6773C14.954 23.642 15.9946 25.2197 16.2334 26.8985C16.2399 26.9432 16.2587 26.9832 16.2775 27.022C16.2652 27.0903 16.2446 27.1562 16.2334 27.2244C16.1303 27.8284 16.0952 28.4426 16.1287 29.0544ZM27.4422 19.7885C26.1634 18.4038 23.7375 17.9426 20.9234 19.8644C19.6663 20.7215 18.5981 21.8632 17.7852 23.1644C17.1381 22.2773 16.4616 21.3744 15.6169 20.6144C14.0363 19.1938 12.0052 18.4662 10.0616 19.4191C8.55047 13.0579 11.1469 7.49263 15.9081 4.64027C17.3005 3.80674 18.8352 3.2491 20.4158 2.86557C21.1711 2.79616 21.5805 2.85204 21.8063 2.85204C23.7928 3.69322 25.5293 5.19145 26.6963 7.13733C28.5011 10.1462 29.174 14.3803 27.4422 19.7885ZM10.4346 5.1138C12.8816 2.88086 16.2852 1.78439 19.3522 2.17674C17.5352 2.54145 15.9334 3.39733 14.644 4.18674C12.5922 5.44322 10.9005 7.28792 9.87929 9.38145C8.19399 12.8367 8.30105 16.7591 8.68517 20.4938C8.25046 21.015 8.07811 21.4144 7.94811 21.8326C7.87077 21.8319 7.79484 21.8533 7.72929 21.8944C7.34113 22.1564 7.02418 22.5107 6.80694 22.9256C6.45399 21.9062 6.36105 20.822 6.16282 19.6997C5.23694 14.4779 6.53458 8.67204 10.4346 5.1138ZM25.1387 33.0779C25.6648 32.5048 26.154 31.8989 26.6034 31.2638C27.6552 31.535 28.6487 29.9838 28.4834 28.972C28.364 28.2344 27.6034 27.7326 26.9234 28.0497C26.1893 28.3932 25.4528 29.8385 25.9528 30.7385C25.3383 31.6149 24.6441 32.4327 23.8793 33.1814C23.6552 33.1109 23.4575 32.9838 23.3393 32.7862C23.3305 32.7714 23.314 32.7662 23.3034 32.7526C23.4775 32.1991 22.9169 29.7856 24.6869 27.755C25.5293 26.7873 27.1681 25.2562 29.1193 25.2238C30.7858 26.5567 28.5287 31.8844 25.1387 33.0779ZM26.6534 30.2897C26.4887 29.8597 26.9381 28.965 27.2769 28.8067C27.3405 28.7773 27.3863 28.7785 27.4534 28.8156C27.8969 29.0656 27.5569 29.8609 27.2452 30.2038C27.0805 30.3838 26.7711 30.5985 26.6534 30.2897ZM29.4922 24.4009C27.0505 24.242 25.0493 26.0673 24.0569 27.2062C22.6081 28.8691 22.4928 30.5738 22.4928 32.6297C22.4928 32.712 22.5222 32.7832 22.5634 32.8473C22.3399 33.1273 21.8969 33.222 21.5399 33.1609C21.1152 33.0856 20.7163 32.852 20.3293 32.605C20.3281 32.5914 20.3328 32.5785 20.3311 32.565C20.0169 30.5779 20.9487 27.3644 22.0146 25.6097C22.8205 24.2838 24.3175 23.2173 26.4528 22.4285C26.4281 22.4862 26.4063 22.5426 26.3811 22.6009C26.3408 22.7018 26.3415 22.8145 26.383 22.915C26.4245 23.0155 26.5035 23.0958 26.6033 23.139C26.7031 23.1821 26.8158 23.1846 26.9174 23.146C27.019 23.1073 27.1016 23.0306 27.1475 22.932C29.4446 17.6303 30.4087 11.7038 27.4134 6.70792C26.1911 4.67145 24.3893 3.08616 22.3199 2.16263C31.2105 3.72851 34.3393 15.045 29.4922 24.4009ZM32.8852 4.21498L31.7722 5.88557C31.7152 5.97769 31.6962 6.08836 31.7193 6.19422C31.7423 6.30009 31.8056 6.39285 31.8958 6.45293C31.9859 6.51301 32.0959 6.5357 32.2025 6.51622C32.309 6.49673 32.4039 6.4366 32.4669 6.34851L33.5805 4.67792C33.6375 4.5858 33.6565 4.47513 33.6334 4.36926C33.6104 4.2634 33.5471 4.17064 33.4569 4.11056C33.3668 4.05048 33.2568 4.02779 33.1502 4.04727C33.0437 4.06676 32.9482 4.12689 32.8852 4.21498ZM32.8263 8.0791C32.8654 8.18265 32.9439 8.26652 33.0447 8.31238C33.1454 8.35823 33.2602 8.36234 33.364 8.3238L34.8493 7.7691C34.9487 7.72717 35.0281 7.64844 35.0708 7.54936C35.1136 7.45027 35.1163 7.33851 35.0786 7.23742C35.0408 7.13634 34.9655 7.05375 34.8683 7.00692C34.7711 6.9601 34.6595 6.95266 34.5569 6.98616L33.0716 7.54145C32.9679 7.5803 32.8838 7.65873 32.8378 7.75953C32.7918 7.86034 32.7877 7.97527 32.8263 8.0791ZM35.4605 10.5685L33.9763 9.82557C33.8777 9.7797 33.7651 9.77411 33.6624 9.81C33.5597 9.84588 33.4751 9.9204 33.4265 10.0177C33.378 10.115 33.3693 10.2275 33.4023 10.3311C33.4353 10.4347 33.5075 10.5214 33.6034 10.5726C35.0434 11.2773 35.094 11.3591 35.2734 11.3591C35.3673 11.3589 35.4584 11.327 35.5319 11.2687C35.6055 11.2104 35.6573 11.129 35.6789 11.0376C35.7005 10.9463 35.6907 10.8503 35.6511 10.7652C35.6115 10.68 35.5443 10.6108 35.4605 10.5685Z"/>
</mask>
<path d="M19.544 1.24616C19.4705 1.25672 19.4013 1.28724 19.344 1.33439C16.0693 0.956157 12.4658 2.13086 9.87164 4.49733C7.60929 6.56086 6.0487 9.47792 5.39517 12.8091C4.37929 16.6432 4.61752 20.8197 6.21282 24.4562C5.29046 26.5609 5.36988 29.2079 6.62282 31.135C7.87576 33.0614 10.1322 34.2938 12.4305 34.305C13.4952 34.3097 14.6787 33.9832 15.2087 33.0603C15.9369 33.4091 16.8593 33.2173 17.4052 32.6232C17.9322 33.3197 18.9346 33.6191 19.7805 33.4014C20.6934 34.462 22.0699 34.5244 23.104 33.8932C19.8687 36.6756 15.6822 38.1167 11.0275 37.9814C11.2922 37.3873 11.5011 36.4932 11.0416 35.9191C10.6581 35.4397 10.0593 35.0897 9.31223 34.9097C6.41635 34.2138 5.33046 37.0456 7.31341 38.2038C7.85458 38.5197 8.46517 38.6114 8.99576 38.6726C14.5569 39.3162 20.0069 37.925 24.1516 34.0709C26.4352 34.2356 29.8634 31.1226 30.4546 27.4473C30.6105 26.4773 30.4793 25.6438 30.0928 25.0591C33.3611 18.9709 33.7428 10.6985 29.4111 5.42557C26.9687 2.45439 23.0993 0.810275 19.544 1.24616ZM10.1587 37.8538C10.1439 37.8809 10.1321 37.9095 10.1234 37.9391C9.28458 37.8803 8.27576 37.7985 7.73399 37.4826C7.42811 37.3038 7.12399 36.9544 7.13694 36.5767C7.14752 36.2432 7.41929 35.9032 7.79752 35.7497C8.53164 35.4497 9.85341 35.7726 10.3893 36.4409C10.5846 36.6844 10.4246 37.3809 10.1587 37.8538ZM26.6987 21.4497C24.0916 22.3179 22.2752 23.5714 21.3005 25.1762C20.2075 26.975 19.2534 30.2244 19.4711 32.4009C18.5728 32.2538 17.7328 31.5497 17.3105 30.5691C16.9358 29.6985 16.8505 28.6191 17.0575 27.3597C17.5022 24.6467 19.1228 22.1026 21.3934 20.5538C24.0711 18.7256 26.2887 19.3373 27.1193 20.7362C27.0369 20.9656 26.9511 21.1967 26.8605 21.4303C26.8058 21.4262 26.7508 21.4328 26.6987 21.4497ZM7.31929 24.6791C7.20105 24.0909 7.38399 23.4444 7.76694 22.9767C7.72694 24.205 8.07694 25.7585 8.84164 27.6914C9.76047 30.0156 11.4487 32.0303 13.8746 32.6726C11.7275 33.6732 9.10223 32.5762 7.76164 30.5873C6.99399 29.4497 6.60046 28.4932 6.5587 27.665C6.49223 26.3344 6.70517 25.4026 7.14341 25.1073C7.21179 25.0613 7.26504 24.9961 7.29644 24.9199C7.32785 24.8437 7.33541 24.7599 7.31929 24.6791ZM8.82105 21.8391C9.37752 20.5273 10.8128 19.682 12.2111 19.8356C14.4711 20.0767 15.9852 22.112 17.2405 23.8332C17.2699 23.8744 17.3075 23.9044 17.3475 23.9309C17.0983 24.4124 16.8842 24.9114 16.7069 25.4238C15.8428 23.1356 13.814 21.6532 12.7981 21.5179C11.3675 21.3314 10.6175 22.6144 10.7658 24.0356C11.1246 27.492 14.2075 29.9767 16.234 29.8779C16.3746 30.5838 16.6081 31.1662 17.0263 31.735C14.5499 32.7303 11.2116 31.415 9.61811 27.385C8.60929 24.8344 8.34164 22.9685 8.82105 21.8391ZM16.1287 29.0544C14.5528 29.0785 11.9052 26.9214 11.5963 23.9497C11.5475 23.4791 11.644 22.8603 11.9716 22.5432C12.1499 22.3703 12.3816 22.3056 12.6869 22.3456C12.9628 22.3826 13.2281 22.5338 13.4511 22.6773C14.954 23.642 15.9946 25.2197 16.2334 26.8985C16.2399 26.9432 16.2587 26.9832 16.2775 27.022C16.2652 27.0903 16.2446 27.1562 16.2334 27.2244C16.1303 27.8284 16.0952 28.4426 16.1287 29.0544ZM27.4422 19.7885C26.1634 18.4038 23.7375 17.9426 20.9234 19.8644C19.6663 20.7215 18.5981 21.8632 17.7852 23.1644C17.1381 22.2773 16.4616 21.3744 15.6169 20.6144C14.0363 19.1938 12.0052 18.4662 10.0616 19.4191C8.55047 13.0579 11.1469 7.49263 15.9081 4.64027C17.3005 3.80674 18.8352 3.2491 20.4158 2.86557C21.1711 2.79616 21.5805 2.85204 21.8063 2.85204C23.7928 3.69322 25.5293 5.19145 26.6963 7.13733C28.5011 10.1462 29.174 14.3803 27.4422 19.7885ZM10.4346 5.1138C12.8816 2.88086 16.2852 1.78439 19.3522 2.17674C17.5352 2.54145 15.9334 3.39733 14.644 4.18674C12.5922 5.44322 10.9005 7.28792 9.87929 9.38145C8.19399 12.8367 8.30105 16.7591 8.68517 20.4938C8.25046 21.015 8.07811 21.4144 7.94811 21.8326C7.87077 21.8319 7.79484 21.8533 7.72929 21.8944C7.34113 22.1564 7.02418 22.5107 6.80694 22.9256C6.45399 21.9062 6.36105 20.822 6.16282 19.6997C5.23694 14.4779 6.53458 8.67204 10.4346 5.1138ZM25.1387 33.0779C25.6648 32.5048 26.154 31.8989 26.6034 31.2638C27.6552 31.535 28.6487 29.9838 28.4834 28.972C28.364 28.2344 27.6034 27.7326 26.9234 28.0497C26.1893 28.3932 25.4528 29.8385 25.9528 30.7385C25.3383 31.6149 24.6441 32.4327 23.8793 33.1814C23.6552 33.1109 23.4575 32.9838 23.3393 32.7862C23.3305 32.7714 23.314 32.7662 23.3034 32.7526C23.4775 32.1991 22.9169 29.7856 24.6869 27.755C25.5293 26.7873 27.1681 25.2562 29.1193 25.2238C30.7858 26.5567 28.5287 31.8844 25.1387 33.0779ZM26.6534 30.2897C26.4887 29.8597 26.9381 28.965 27.2769 28.8067C27.3405 28.7773 27.3863 28.7785 27.4534 28.8156C27.8969 29.0656 27.5569 29.8609 27.2452 30.2038C27.0805 30.3838 26.7711 30.5985 26.6534 30.2897ZM29.4922 24.4009C27.0505 24.242 25.0493 26.0673 24.0569 27.2062C22.6081 28.8691 22.4928 30.5738 22.4928 32.6297C22.4928 32.712 22.5222 32.7832 22.5634 32.8473C22.3399 33.1273 21.8969 33.222 21.5399 33.1609C21.1152 33.0856 20.7163 32.852 20.3293 32.605C20.3281 32.5914 20.3328 32.5785 20.3311 32.565C20.0169 30.5779 20.9487 27.3644 22.0146 25.6097C22.8205 24.2838 24.3175 23.2173 26.4528 22.4285C26.4281 22.4862 26.4063 22.5426 26.3811 22.6009C26.3408 22.7018 26.3415 22.8145 26.383 22.915C26.4245 23.0155 26.5035 23.0958 26.6033 23.139C26.7031 23.1821 26.8158 23.1846 26.9174 23.146C27.019 23.1073 27.1016 23.0306 27.1475 22.932C29.4446 17.6303 30.4087 11.7038 27.4134 6.70792C26.1911 4.67145 24.3893 3.08616 22.3199 2.16263C31.2105 3.72851 34.3393 15.045 29.4922 24.4009ZM32.8852 4.21498L31.7722 5.88557C31.7152 5.97769 31.6962 6.08836 31.7193 6.19422C31.7423 6.30009 31.8056 6.39285 31.8958 6.45293C31.9859 6.51301 32.0959 6.5357 32.2025 6.51622C32.309 6.49673 32.4039 6.4366 32.4669 6.34851L33.5805 4.67792C33.6375 4.5858 33.6565 4.47513 33.6334 4.36926C33.6104 4.2634 33.5471 4.17064 33.4569 4.11056C33.3668 4.05048 33.2568 4.02779 33.1502 4.04727C33.0437 4.06676 32.9482 4.12689 32.8852 4.21498ZM32.8263 8.0791C32.8654 8.18265 32.9439 8.26652 33.0447 8.31238C33.1454 8.35823 33.2602 8.36234 33.364 8.3238L34.8493 7.7691C34.9487 7.72717 35.0281 7.64844 35.0708 7.54936C35.1136 7.45027 35.1163 7.33851 35.0786 7.23742C35.0408 7.13634 34.9655 7.05375 34.8683 7.00692C34.7711 6.9601 34.6595 6.95266 34.5569 6.98616L33.0716 7.54145C32.9679 7.5803 32.8838 7.65873 32.8378 7.75953C32.7918 7.86034 32.7877 7.97527 32.8263 8.0791ZM35.4605 10.5685L33.9763 9.82557C33.8777 9.7797 33.7651 9.77411 33.6624 9.81C33.5597 9.84588 33.4751 9.9204 33.4265 10.0177C33.378 10.115 33.3693 10.2275 33.4023 10.3311C33.4353 10.4347 33.5075 10.5214 33.6034 10.5726C35.0434 11.2773 35.094 11.3591 35.2734 11.3591C35.3673 11.3589 35.4584 11.327 35.5319 11.2687C35.6055 11.2104 35.6573 11.129 35.6789 11.0376C35.7005 10.9463 35.6907 10.8503 35.6511 10.7652C35.6115 10.68 35.5443 10.6108 35.4605 10.5685Z" fill="white"/>
<path d="M19.544 1.24616C19.4705 1.25672 19.4013 1.28724 19.344 1.33439C16.0693 0.956157 12.4658 2.13086 9.87164 4.49733C7.60929 6.56086 6.0487 9.47792 5.39517 12.8091C4.37929 16.6432 4.61752 20.8197 6.21282 24.4562C5.29046 26.5609 5.36988 29.2079 6.62282 31.135C7.87576 33.0614 10.1322 34.2938 12.4305 34.305C13.4952 34.3097 14.6787 33.9832 15.2087 33.0603C15.9369 33.4091 16.8593 33.2173 17.4052 32.6232C17.9322 33.3197 18.9346 33.6191 19.7805 33.4014C20.6934 34.462 22.0699 34.5244 23.104 33.8932C19.8687 36.6756 15.6822 38.1167 11.0275 37.9814C11.2922 37.3873 11.5011 36.4932 11.0416 35.9191C10.6581 35.4397 10.0593 35.0897 9.31223 34.9097C6.41635 34.2138 5.33046 37.0456 7.31341 38.2038C7.85458 38.5197 8.46517 38.6114 8.99576 38.6726C14.5569 39.3162 20.0069 37.925 24.1516 34.0709C26.4352 34.2356 29.8634 31.1226 30.4546 27.4473C30.6105 26.4773 30.4793 25.6438 30.0928 25.0591C33.3611 18.9709 33.7428 10.6985 29.4111 5.42557C26.9687 2.45439 23.0993 0.810275 19.544 1.24616ZM10.1587 37.8538C10.1439 37.8809 10.1321 37.9095 10.1234 37.9391C9.28458 37.8803 8.27576 37.7985 7.73399 37.4826C7.42811 37.3038 7.12399 36.9544 7.13694 36.5767C7.14752 36.2432 7.41929 35.9032 7.79752 35.7497C8.53164 35.4497 9.85341 35.7726 10.3893 36.4409C10.5846 36.6844 10.4246 37.3809 10.1587 37.8538ZM26.6987 21.4497C24.0916 22.3179 22.2752 23.5714 21.3005 25.1762C20.2075 26.975 19.2534 30.2244 19.4711 32.4009C18.5728 32.2538 17.7328 31.5497 17.3105 30.5691C16.9358 29.6985 16.8505 28.6191 17.0575 27.3597C17.5022 24.6467 19.1228 22.1026 21.3934 20.5538C24.0711 18.7256 26.2887 19.3373 27.1193 20.7362C27.0369 20.9656 26.9511 21.1967 26.8605 21.4303C26.8058 21.4262 26.7508 21.4328 26.6987 21.4497ZM7.31929 24.6791C7.20105 24.0909 7.38399 23.4444 7.76694 22.9767C7.72694 24.205 8.07694 25.7585 8.84164 27.6914C9.76047 30.0156 11.4487 32.0303 13.8746 32.6726C11.7275 33.6732 9.10223 32.5762 7.76164 30.5873C6.99399 29.4497 6.60046 28.4932 6.5587 27.665C6.49223 26.3344 6.70517 25.4026 7.14341 25.1073C7.21179 25.0613 7.26504 24.9961 7.29644 24.9199C7.32785 24.8437 7.33541 24.7599 7.31929 24.6791ZM8.82105 21.8391C9.37752 20.5273 10.8128 19.682 12.2111 19.8356C14.4711 20.0767 15.9852 22.112 17.2405 23.8332C17.2699 23.8744 17.3075 23.9044 17.3475 23.9309C17.0983 24.4124 16.8842 24.9114 16.7069 25.4238C15.8428 23.1356 13.814 21.6532 12.7981 21.5179C11.3675 21.3314 10.6175 22.6144 10.7658 24.0356C11.1246 27.492 14.2075 29.9767 16.234 29.8779C16.3746 30.5838 16.6081 31.1662 17.0263 31.735C14.5499 32.7303 11.2116 31.415 9.61811 27.385C8.60929 24.8344 8.34164 22.9685 8.82105 21.8391ZM16.1287 29.0544C14.5528 29.0785 11.9052 26.9214 11.5963 23.9497C11.5475 23.4791 11.644 22.8603 11.9716 22.5432C12.1499 22.3703 12.3816 22.3056 12.6869 22.3456C12.9628 22.3826 13.2281 22.5338 13.4511 22.6773C14.954 23.642 15.9946 25.2197 16.2334 26.8985C16.2399 26.9432 16.2587 26.9832 16.2775 27.022C16.2652 27.0903 16.2446 27.1562 16.2334 27.2244C16.1303 27.8284 16.0952 28.4426 16.1287 29.0544ZM27.4422 19.7885C26.1634 18.4038 23.7375 17.9426 20.9234 19.8644C19.6663 20.7215 18.5981 21.8632 17.7852 23.1644C17.1381 22.2773 16.4616 21.3744 15.6169 20.6144C14.0363 19.1938 12.0052 18.4662 10.0616 19.4191C8.55047 13.0579 11.1469 7.49263 15.9081 4.64027C17.3005 3.80674 18.8352 3.2491 20.4158 2.86557C21.1711 2.79616 21.5805 2.85204 21.8063 2.85204C23.7928 3.69322 25.5293 5.19145 26.6963 7.13733C28.5011 10.1462 29.174 14.3803 27.4422 19.7885ZM10.4346 5.1138C12.8816 2.88086 16.2852 1.78439 19.3522 2.17674C17.5352 2.54145 15.9334 3.39733 14.644 4.18674C12.5922 5.44322 10.9005 7.28792 9.87929 9.38145C8.19399 12.8367 8.30105 16.7591 8.68517 20.4938C8.25046 21.015 8.07811 21.4144 7.94811 21.8326C7.87077 21.8319 7.79484 21.8533 7.72929 21.8944C7.34113 22.1564 7.02418 22.5107 6.80694 22.9256C6.45399 21.9062 6.36105 20.822 6.16282 19.6997C5.23694 14.4779 6.53458 8.67204 10.4346 5.1138ZM25.1387 33.0779C25.6648 32.5048 26.154 31.8989 26.6034 31.2638C27.6552 31.535 28.6487 29.9838 28.4834 28.972C28.364 28.2344 27.6034 27.7326 26.9234 28.0497C26.1893 28.3932 25.4528 29.8385 25.9528 30.7385C25.3383 31.6149 24.6441 32.4327 23.8793 33.1814C23.6552 33.1109 23.4575 32.9838 23.3393 32.7862C23.3305 32.7714 23.314 32.7662 23.3034 32.7526C23.4775 32.1991 22.9169 29.7856 24.6869 27.755C25.5293 26.7873 27.1681 25.2562 29.1193 25.2238C30.7858 26.5567 28.5287 31.8844 25.1387 33.0779ZM26.6534 30.2897C26.4887 29.8597 26.9381 28.965 27.2769 28.8067C27.3405 28.7773 27.3863 28.7785 27.4534 28.8156C27.8969 29.0656 27.5569 29.8609 27.2452 30.2038C27.0805 30.3838 26.7711 30.5985 26.6534 30.2897ZM29.4922 24.4009C27.0505 24.242 25.0493 26.0673 24.0569 27.2062C22.6081 28.8691 22.4928 30.5738 22.4928 32.6297C22.4928 32.712 22.5222 32.7832 22.5634 32.8473C22.3399 33.1273 21.8969 33.222 21.5399 33.1609C21.1152 33.0856 20.7163 32.852 20.3293 32.605C20.3281 32.5914 20.3328 32.5785 20.3311 32.565C20.0169 30.5779 20.9487 27.3644 22.0146 25.6097C22.8205 24.2838 24.3175 23.2173 26.4528 22.4285C26.4281 22.4862 26.4063 22.5426 26.3811 22.6009C26.3408 22.7018 26.3415 22.8145 26.383 22.915C26.4245 23.0155 26.5035 23.0958 26.6033 23.139C26.7031 23.1821 26.8158 23.1846 26.9174 23.146C27.019 23.1073 27.1016 23.0306 27.1475 22.932C29.4446 17.6303 30.4087 11.7038 27.4134 6.70792C26.1911 4.67145 24.3893 3.08616 22.3199 2.16263C31.2105 3.72851 34.3393 15.045 29.4922 24.4009ZM32.8852 4.21498L31.7722 5.88557C31.7152 5.97769 31.6962 6.08836 31.7193 6.19422C31.7423 6.30009 31.8056 6.39285 31.8958 6.45293C31.9859 6.51301 32.0959 6.5357 32.2025 6.51622C32.309 6.49673 32.4039 6.4366 32.4669 6.34851L33.5805 4.67792C33.6375 4.5858 33.6565 4.47513 33.6334 4.36926C33.6104 4.2634 33.5471 4.17064 33.4569 4.11056C33.3668 4.05048 33.2568 4.02779 33.1502 4.04727C33.0437 4.06676 32.9482 4.12689 32.8852 4.21498ZM32.8263 8.0791C32.8654 8.18265 32.9439 8.26652 33.0447 8.31238C33.1454 8.35823 33.2602 8.36234 33.364 8.3238L34.8493 7.7691C34.9487 7.72717 35.0281 7.64844 35.0708 7.54936C35.1136 7.45027 35.1163 7.33851 35.0786 7.23742C35.0408 7.13634 34.9655 7.05375 34.8683 7.00692C34.7711 6.9601 34.6595 6.95266 34.5569 6.98616L33.0716 7.54145C32.9679 7.5803 32.8838 7.65873 32.8378 7.75953C32.7918 7.86034 32.7877 7.97527 32.8263 8.0791ZM35.4605 10.5685L33.9763 9.82557C33.8777 9.7797 33.7651 9.77411 33.6624 9.81C33.5597 9.84588 33.4751 9.9204 33.4265 10.0177C33.378 10.115 33.3693 10.2275 33.4023 10.3311C33.4353 10.4347 33.5075 10.5214 33.6034 10.5726C35.0434 11.2773 35.094 11.3591 35.2734 11.3591C35.3673 11.3589 35.4584 11.327 35.5319 11.2687C35.6055 11.2104 35.6573 11.129 35.6789 11.0376C35.7005 10.9463 35.6907 10.8503 35.6511 10.7652C35.6115 10.68 35.5443 10.6108 35.4605 10.5685Z" stroke="white" stroke-width="0.6" mask="url(#path-1-outside-1_77_6394)"/>
</svg>
