<svg width="27" height="34" viewBox="0 0 27 34" fill="none" xmlns="http://www.w3.org/2000/svg">
<g clip-path="url(#clip0_341_2765)">
<path d="M7.2703 30.8744L7.28924 30.9212C7.88441 32.3734 9.27631 33.362 10.842 33.3843H10.9773C13.287 33.3165 23.6653 34.5505 25.3731 32.0283C27.9107 30.3618 25.3285 15.1611 25.6747 12.685C25.7999 9.78862 17.3105 11.6416 15.8902 11.1446C15.4168 8.88146 16.8939 3.6968 12.8115 4.63583C12.4733 -0.928506 5.46043 -0.828162 4.98226 4.63583C3.86968 4.64126 2.02532 4.34972 1.92251 5.93556L1.43082 14.9414C1.29149 17.0629 1.24483 18.2128 1.117 19.223C0.895838 23.8585 -0.438573 25.0273 6.70218 24.8727L6.65889 27.6356C6.64131 28.7456 6.84934 29.8476 7.2703 30.8744ZM24.0515 12.2294C24.1901 12.2292 24.3235 12.2823 24.4242 12.3778C24.5249 12.4733 24.5852 12.6039 24.5926 12.7427C24.0569 14.8872 26.1482 23.8286 25.3143 28.8472C24.9524 28.5368 24.5661 28.2563 24.1591 28.0085C24.0857 27.9678 24.0012 27.9522 23.9183 27.9639C23.8353 27.9757 23.7584 28.0141 23.6991 28.0735C23.6399 28.1329 23.6015 28.21 23.5898 28.2932C23.5781 28.3764 23.5937 28.4611 23.6342 28.5346C24.0215 29.0761 24.5166 29.5312 25.0884 29.871C25.0343 30.0554 24.9761 30.2323 24.9098 30.3984C24.1868 29.8289 23.4706 29.2513 22.7908 28.6295C22.6441 28.5136 22.473 28.3082 22.2714 28.3319C21.1217 28.5977 24.1361 30.8934 24.5601 31.0846C24.4775 31.218 24.3848 31.3449 24.2828 31.4643C23.8486 31.042 23.3603 30.6795 22.8308 30.3862C22.7934 30.3756 22.7538 30.3764 22.7169 30.3884C22.6801 30.4005 22.6476 30.4234 22.6238 30.454C22.5156 30.6134 22.6678 30.793 22.7591 30.9286C23.0621 31.2778 23.3299 31.6744 23.6633 31.9917C23.1786 32.2804 22.6193 32.4184 22.0563 32.3884C21.0817 32.2711 7.21687 34.6712 7.73359 28.8628L8.61283 12.7386C8.62044 12.6 8.68079 12.4696 8.78145 12.3742C8.88211 12.2789 9.0154 12.2258 9.15389 12.226L24.0515 12.2294ZM6.20507 3.64121C7.26557 -0.154909 11.8809 0.848529 11.8511 4.63583H6.02381C6.05359 4.29941 6.11427 3.96646 6.20507 3.64121ZM1.85421 22.5113C2.17106 22.1785 2.51969 21.8776 2.89509 21.6129C2.92493 21.5817 2.94377 21.5415 2.94876 21.4985C2.95374 21.4555 2.94459 21.4121 2.9227 21.3748C2.90082 21.3375 2.86738 21.3084 2.82748 21.2919C2.78758 21.2754 2.7434 21.2724 2.70165 21.2834C2.38325 21.4069 2.10319 21.6127 1.89005 21.8801L3.00195 5.99793C2.99721 5.51181 4.11519 5.78843 4.3722 5.72063H4.93356C4.94139 6.08389 4.97279 6.44626 5.02757 6.80543C4.79491 6.8834 4.45404 7.05832 4.52032 7.34783C4.53897 7.41186 4.57761 7.4682 4.63056 7.50859C4.68352 7.54899 4.74799 7.57129 4.81453 7.57225C5.1669 7.59665 5.50371 7.46038 5.85608 7.45021C6.26428 7.4876 6.67334 7.38842 7.01938 7.16816C7.40354 6.57355 6.3214 6.44609 5.93724 6.56609C5.95212 6.28405 5.95821 6.002 5.9643 5.72063H11.8417C11.8019 6.07253 11.8436 6.42888 11.9634 6.76204C11.5887 6.76814 10.9124 7.0034 11.3317 7.37224C11.8251 7.51723 12.3413 7.56829 12.8534 7.52275C13.8335 7.59733 13.8761 6.59525 12.8602 6.69424C12.9387 6.38982 12.7486 6.05082 12.7987 5.72063H13.0293C13.2904 5.79928 14.5267 5.50028 14.524 5.99183L14.8081 11.1446C11.2722 11.5968 6.84083 9.26792 7.41098 14.9414C7.48605 16.2296 7.35349 17.5483 7.19387 19.2237C7.04576 20.7783 6.92334 22.3574 6.63522 23.5439L4.12196 23.7351C4.36182 23.5587 4.58792 23.3642 4.79829 23.1533C4.84768 23.1029 4.87715 23.0362 4.88126 22.9657C4.88536 22.8951 4.86382 22.8254 4.82061 22.7696C4.77727 22.7141 4.71555 22.6759 4.64659 22.662C4.57763 22.648 4.50598 22.6593 4.44457 22.6937C3.89921 22.9515 3.4037 23.304 2.98098 23.7351H2.17817C2.91129 23.1968 3.59651 22.5959 4.22611 21.939C4.26521 21.898 4.28851 21.8444 4.29185 21.7878C4.2952 21.7312 4.27837 21.6752 4.24437 21.6299C4.2098 21.5846 4.15998 21.5536 4.10422 21.5425C4.04846 21.5314 3.99058 21.541 3.94138 21.5695C3.19013 22.1397 2.47646 22.758 1.80483 23.4205L1.85421 22.5113Z" fill="white"/>
<path d="M11.1865 16.7421C11.3975 16.8452 11.6342 16.7353 11.8554 16.7218C12.3349 25.468 21.4296 24.5188 22.1844 16.4913C22.3002 16.4867 22.4103 16.4397 22.4939 16.3591C22.5774 16.2786 22.6286 16.1701 22.6377 16.0542C22.6468 15.9384 22.6131 15.8232 22.5432 15.7306C22.4732 15.6379 22.3718 15.5742 22.2581 15.5515C21.9342 15.5279 21.6086 15.5562 21.2936 15.6356C21.2475 15.6488 21.2044 15.671 21.1669 15.7009C21.1293 15.7309 21.0981 15.7679 21.0749 15.81C21.0517 15.8521 21.037 15.8984 21.0317 15.9462C21.0264 15.994 21.0306 16.0424 21.0441 16.0885C21.0517 16.1163 21.0628 16.1429 21.0772 16.1678C21.1425 16.2429 21.2223 16.304 21.3118 16.3472C21.4014 16.3904 21.4987 16.415 21.598 16.4194C21.4234 17.6258 20.8832 18.7494 20.0505 19.6378C16.4362 24.0123 13.206 21.2976 12.3105 16.6547C12.4741 16.6453 12.6346 16.6057 12.784 16.538C12.8528 16.4954 12.906 16.4317 12.9358 16.3563C12.9655 16.2809 12.9701 16.1979 12.949 16.1196C12.9279 16.0413 12.8821 15.972 12.8185 15.9219C12.7549 15.8719 12.6768 15.8437 12.5959 15.8417C12.1508 15.8958 11.7091 15.9755 11.273 16.0804C11.2053 16.1003 11.1449 16.1395 11.099 16.1932C11.0531 16.2469 11.0238 16.3129 11.0147 16.383C11.0055 16.4531 11.0168 16.5244 11.0473 16.5881C11.0778 16.6519 11.1262 16.7054 11.1865 16.7421ZM24.8031 28.4512L24.8309 28.4729C24.8126 28.4559 24.7869 28.4376 24.8031 28.4512ZM9.16016 28.9712C9.30498 29.4365 9.6207 29.8294 10.0435 30.0702C10.2882 30.1987 10.559 30.2696 10.8352 30.2776C11.1114 30.2856 11.3858 30.2305 11.6376 30.1163C11.6905 30.0845 11.7343 30.0394 11.7648 29.9855C11.7952 29.9316 11.8112 29.8708 11.8112 29.8089C11.8112 29.7469 11.7952 29.6861 11.7648 29.6322C11.7343 29.5783 11.6905 29.5333 11.6376 29.5014C11.2554 29.3115 10.826 29.3868 10.4303 29.2342C9.68094 28.9088 9.65118 27.9461 9.63968 27.2416C9.63278 26.7419 9.65808 26.2423 9.71543 25.7459C9.73775 25.5425 9.41446 25.5073 9.36644 25.6985C9.14325 26.7582 8.84702 27.9027 9.16354 28.9705L9.16016 28.9712ZM12.7015 30.4879C12.7801 30.5676 12.8806 30.622 12.9902 30.6444C13.0998 30.6667 13.2135 30.6558 13.3169 30.6132C13.4203 30.5706 13.5088 30.4981 13.5711 30.405C13.6333 30.3119 13.6665 30.2023 13.6665 30.0902C13.6665 29.9781 13.6333 29.8686 13.5711 29.7754C13.5088 29.6823 13.4203 29.6098 13.3169 29.5672C13.2135 29.5246 13.0998 29.5138 12.9902 29.5361C12.8806 29.5584 12.7801 29.6129 12.7015 29.6926C12.597 29.7984 12.5384 29.9413 12.5384 30.0902C12.5384 30.2391 12.597 30.382 12.7015 30.4879Z" fill="white"/>
</g>
<defs>
<clipPath id="clip0_341_2765">
<rect width="25.625" height="33.125" fill="white" transform="translate(0.875 0.5)"/>
</clipPath>
</defs>
</svg>
