<svg width="40" height="40" viewBox="0 0 40 40" fill="none" xmlns="http://www.w3.org/2000/svg">
<g clip-path="url(#clip0_68_1239)">
<path d="M32.8394 19.0897C32.7717 18.0319 32.6359 16.9785 32.4653 15.9343C32.3363 15.3566 32.3374 14.5408 31.9349 14.0148C30.2352 12.0927 27.8769 15.0483 26.4699 16.0496C22.6667 19.43 25.7117 23.1058 28.7233 25.6312C32.5019 28.6841 33.1196 21.4617 32.8394 19.0897ZM30.1952 24.9605C29.1208 24.4596 28.2625 23.4321 27.4504 22.5865C24.3965 19.114 27.1858 17.2636 30.2177 15.4805C30.4061 18.0251 30.6003 20.6221 30.6159 23.1685C30.5805 23.6856 30.6037 24.7017 30.1952 24.9605Z" fill="#F16E20"/>
<path d="M12.0209 18.4026C11.3341 18.2692 10.6329 18.7042 9.94521 18.6798C9.22276 18.6948 8.50621 18.7558 7.78462 18.814C6.83127 18.9503 6.99226 20.2449 8.20651 20.0776C9.82059 20.0478 11.4092 21.2575 12.9775 20.4366C13.9831 19.7743 12.9065 18.4878 12.0209 18.4026ZM9.90718 14.2891C10.5454 14.3999 11.1831 14.5131 11.8205 14.6285C12.5908 14.7817 13.325 14.0986 13.221 13.3171C13.0823 12.1253 11.8037 12.1968 10.9074 12.3886C9.92009 12.5284 8.93368 12.6582 7.96128 12.8842C7.41911 12.9983 7.41981 13.8422 7.97419 13.9466C8.61768 14.0863 9.26188 14.1742 9.90718 14.2891ZM12.501 7.08715C11.9161 7.03771 11.4132 6.98709 10.8601 6.88562C9.88947 6.66377 8.86204 6.40296 7.92641 6.93238C7.14058 7.38371 7.58088 8.42845 8.2417 8.75264C9.08948 9.30001 9.98189 8.62408 10.8459 8.53552C11.3344 8.48096 11.8392 8.42507 12.3296 8.38957C12.7931 8.38374 13.4453 8.42373 13.4984 7.80583C13.5598 7.23177 12.9544 7.0766 12.501 7.08715ZM10.9938 24.8236C10.0859 24.6622 8.96179 24.4638 8.05598 24.3207C6.25659 24.0887 6.21226 26.8549 8.01741 26.6821C8.92518 26.5648 10.0486 26.3992 10.9593 26.2648C11.4262 26.1277 12.1859 26.2643 12.3667 25.6871C12.5123 24.9107 11.4999 24.9593 10.9938 24.8236Z" fill="#F16E20"/>
<path d="M39.3434 26.0649C39.4223 21.5166 39.6941 16.169 39.599 11.6561C39.4167 8.22871 39.5714 3.9395 36.6213 1.58533C33.0967 -1.01973 24.8813 0.369828 20.4694 0.374316C15.581 0.603246 10.6941 0.713696 5.80241 0.647331C5.39549 0.638514 4.97589 0.648433 4.58518 0.775337C0.560013 2.12837 0.650625 10.4072 0.427206 13.9589C0.267553 18.7523 0.569696 23.5711 0.59355 28.3506C0.571665 30.6283 0.270544 32.9403 1.08471 35.1875C3.74299 42.1167 14.1902 39.6072 19.9279 39.3398C23.7478 38.9539 27.5413 39.4957 31.36 39.504C35.1939 39.6019 38.8613 38.0936 39.2217 33.8121C39.3262 32.9779 38.0596 32.7875 37.9068 33.6043C37.3072 37.9058 32.9428 37.8774 29.4885 37.5219C27.3256 37.3553 24.8926 37.1055 22.6906 37.0377C21.5017 37.0014 20.1904 37.0737 18.8191 37.1806C18.8461 35.2907 18.902 33.4024 18.9454 31.513C19.2452 22.0651 19.0058 11.6758 19.2828 2.22315C19.2843 2.14786 19.2798 2.07257 19.2693 1.998C21.6105 1.88133 23.9505 1.74955 26.2887 1.61942C29.0662 1.55171 31.9625 1.23233 34.6297 2.13671C36.2383 2.67566 37.1894 4.17654 37.572 5.76488C38.2703 8.63248 38.2301 11.6183 38.2493 14.557C38.2321 18.2613 38.1046 22.3262 38.0114 26.045C37.9649 26.9122 39.3602 26.944 39.3434 26.0649ZM17.1665 37.3189C12.8677 37.6927 8.23491 38.1157 5.02053 36.4872C2.2429 34.8398 2.94402 31.1459 2.88206 28.3664C2.83239 25.4684 2.6351 22.5981 2.53882 19.7177C2.51174 16.6462 1.57367 2.49444 5.60867 2.3736C9.38153 2.38966 13.1542 2.27669 16.9243 2.10885C16.9224 2.14482 16.9206 2.1808 16.9213 2.21859C17.1262 13.8423 18.1288 25.7122 17.1665 37.3189Z" fill="#F16E20"/>
</g>
<defs>
<clipPath id="clip0_68_1239">
<rect width="40" height="40" fill="white"/>
</clipPath>
</defs>
</svg>
