<svg width="40" height="14" viewBox="0 0 40 14" fill="none" xmlns="http://www.w3.org/2000/svg">
<path d="M1.78711 12.7949C1.64062 12.7461 1.52344 12.6924 1.43555 12.6338C1.15234 12.4287 0.947266 12.1309 0.820312 11.7402C0.693359 11.3398 0.605469 10.9492 0.556641 10.5684C0.449219 9.8457 0.390625 8.92285 0.380859 7.7998C0.371094 6.67676 0.405273 5.51953 0.483398 4.32812C0.571289 3.12695 0.810547 2.28711 1.20117 1.80859C1.36719 1.51562 1.56738 1.31543 1.80176 1.20801C2.05566 1.08105 2.3584 1.00781 2.70996 0.988281C3.06152 0.958984 3.37402 0.958984 3.64746 0.988281C4.04785 1.03711 4.35059 1.16406 4.55566 1.36914C4.77051 1.57422 4.8291 1.9502 4.73145 2.49707C5.54199 1.88184 6.18164 1.59375 6.65039 1.63281C7.38281 1.67188 8.13965 1.97949 8.9209 2.55566C9.74121 3.1709 10.3467 3.97168 10.7373 4.95801C11.1377 5.93457 11.4062 6.91602 11.543 7.90234C11.6406 8.58594 11.6846 9.38672 11.6748 10.3047C11.665 11.2227 11.4844 12.0088 11.1328 12.6631C11.0059 12.8877 10.8301 13.0146 10.6055 13.0439C10.2148 13.1025 9.80957 13.0488 9.38965 12.8828C8.96973 12.707 8.65723 12.5117 8.45215 12.2969C8.36426 12.2188 8.30566 12.1211 8.27637 12.0039C8.21777 11.8477 8.20312 11.6768 8.23242 11.4912C8.27148 11.3057 8.30566 11.1299 8.33496 10.9639C8.48145 10.3584 8.55957 9.75293 8.56934 9.14746C8.5791 8.53223 8.56934 7.94141 8.54004 7.375C8.42285 6.79883 8.24219 6.33008 7.99805 5.96875C7.48047 5.08984 6.88965 4.64062 6.22559 4.62109C5.57129 4.60156 5.13184 4.9873 4.90723 5.77832C4.72168 6.41309 4.63379 7.22363 4.64355 8.20996C4.64355 8.23926 4.64355 8.27344 4.64355 8.3125C4.70215 9.13281 4.79492 9.91406 4.92188 10.6562C4.95117 10.8223 5.00977 11.0762 5.09766 11.418C5.19531 11.8184 5.19043 12.082 5.08301 12.209C5.05371 12.2383 5.02441 12.2676 4.99512 12.2969C4.90723 12.4824 4.76074 12.6289 4.55566 12.7363C4.2334 12.9023 3.87207 12.9951 3.47168 13.0146C3.16895 13.0244 2.87109 13.0098 2.57812 12.9707C2.44141 12.9805 2.30957 12.9805 2.18262 12.9707C2.03613 12.9609 1.9043 12.9023 1.78711 12.7949ZM15.3809 7.94629C15.4102 8.04395 15.4443 8.15137 15.4834 8.26855C15.7373 8.98145 16.2988 9.52344 17.168 9.89453C18.0469 10.2656 18.8818 10.4072 19.6729 10.3193C20.2979 10.2705 20.9229 9.91895 21.5479 9.26465C22.1826 8.61035 22.998 8.64941 23.9941 9.38184C24.4336 9.66504 24.3945 10.1143 23.877 10.7295C23.3594 11.3447 22.9492 11.7598 22.6465 11.9746C22.4414 12.1211 22.2314 12.248 22.0166 12.3555C21.4502 12.6484 20.8789 12.8242 20.3027 12.8828C19.7266 12.9316 19.1602 12.9268 18.6035 12.8682C17.8418 12.7998 17.1094 12.6289 16.4062 12.3555C15.8594 12.1406 15.332 11.8574 14.8242 11.5059C14.3262 11.1543 13.8867 10.7197 13.5059 10.2021C12.793 9.25488 12.3145 8.20508 12.0703 7.05273C11.6895 5.27539 12.1289 3.79102 13.3887 2.59961C14.0234 1.99414 14.7363 1.54492 15.5273 1.25195C16.3281 0.949219 17.2803 0.724609 18.3838 0.578125C19.4873 0.431641 20.6055 0.65625 21.7383 1.25195C22.8809 1.83789 23.5889 2.6875 23.8623 3.80078C24.1357 4.91406 24.1846 5.69043 24.0088 6.12988C23.833 6.56934 23.5303 6.84766 23.1006 6.96484C22.6807 7.08203 20.1074 7.40918 15.3809 7.94629ZM21.5625 4.91406C21.1523 4.01562 20.4102 3.60059 19.3359 3.66895C18.2617 3.72754 17.4268 3.86426 16.8311 4.0791C16.2354 4.29395 15.7959 4.7627 15.5127 5.48535C15.4834 5.53418 15.459 5.57812 15.4395 5.61719L21.5625 4.91406ZM32.0654 8.23926C31.5283 9.86035 31.1084 10.9053 30.8057 11.374C30.6885 11.5498 30.5615 11.7256 30.4248 11.9014C30.2979 12.0674 30.166 12.2188 30.0293 12.3555C29.9609 12.4238 29.8926 12.4775 29.8242 12.5166C29.7168 12.5947 29.5361 12.6729 29.2822 12.751C29.0771 12.7998 28.8867 12.8389 28.7109 12.8682C28.5449 12.8877 28.3496 12.8682 28.125 12.8096C27.9395 12.7607 27.7686 12.6484 27.6123 12.4727C27.3975 12.2383 27.1973 11.9258 27.0117 11.5352C26.7871 11.0859 26.5576 10.4951 26.3232 9.7627C26.0986 9.03027 25.8887 8.26367 25.6934 7.46289C25.5078 6.66211 25.3516 5.88086 25.2246 5.11914C25.1074 4.34766 25.0586 3.71289 25.0781 3.21484C25.0781 2.95117 25.1025 2.67773 25.1514 2.39453C25.2002 2.11133 25.3223 1.88672 25.5176 1.7207C25.7324 1.52539 26.1426 1.35449 26.748 1.20801C27.3633 1.06152 27.7295 1.24707 27.8467 1.76465C27.876 1.90137 27.8857 2.04785 27.876 2.2041C27.8662 2.35059 27.8613 2.49219 27.8613 2.62891C27.8223 3.55664 27.8906 4.58203 28.0664 5.70508C28.2422 6.81836 28.5254 8.08789 28.916 9.51367C29.9023 8.03906 30.4883 6.83789 30.6738 5.91016C30.8594 4.97266 30.9912 4.3623 31.0693 4.0791C31.1572 3.78613 31.4795 3.625 32.0361 3.5957C32.5928 3.55664 32.915 3.68359 33.0029 3.97656C33.0908 4.25977 33.2422 4.82129 33.457 5.66113C33.7305 6.73535 34.2871 8.03418 35.127 9.55762C35.6152 8.1123 35.9473 6.83301 36.123 5.71973C36.3086 4.59668 36.3867 3.56641 36.3574 2.62891C36.3574 2.49219 36.3477 2.35059 36.3281 2.2041C36.3184 2.05762 36.333 1.91602 36.3721 1.7793C36.4893 1.26172 36.8701 1.06152 37.5146 1.17871C38.1592 1.2959 38.5986 1.45215 38.833 1.64746C39.0381 1.81348 39.165 2.03809 39.2139 2.32129C39.2725 2.60449 39.3018 2.87793 39.3018 3.1416C39.3115 3.63965 39.2529 4.27441 39.126 5.0459C39.0088 5.80762 38.8477 6.59375 38.6426 7.4043C38.4473 8.20508 38.2275 8.97656 37.9834 9.71875C37.7393 10.4512 37.5 11.042 37.2656 11.4912C37.0801 11.8721 36.8799 12.1846 36.665 12.4287C36.499 12.6143 36.3135 12.7266 36.1084 12.7656C35.8838 12.834 35.6885 12.8682 35.5225 12.8682C35.3662 12.8584 35.1758 12.834 34.9512 12.7949C34.6875 12.7168 34.5068 12.6387 34.4092 12.5605C34.3311 12.5117 34.2578 12.458 34.1895 12.3994C34.043 12.2627 33.9014 12.1113 33.7646 11.9453C33.6377 11.7695 33.5107 11.5986 33.3838 11.4326C33.0615 10.9541 32.6221 9.88965 32.0654 8.23926Z" fill="#F16E20"/>
</svg>
