<svg width="40" height="40" viewBox="0 0 40 40" fill="none" xmlns="http://www.w3.org/2000/svg">
<g clip-path="url(#clip0_68_1211)">
<path d="M39.8798 13.4274C39.623 9.27391 35.9918 8.13227 32.5512 9.10391C32.7314 7.99587 33.0145 6.90806 33.5039 5.91126C34.0966 4.66735 35.0125 3.65649 36.0729 2.8011C37.1252 1.61306 35.4902 0.0479773 34.3493 1.14681C32.2239 3.26446 31.1995 6.3097 31.331 9.27157C30.5418 9.10376 29.7915 8.65095 28.9295 8.55298C25.7416 8.33657 22.0533 10.7073 22.0064 14.1381C21.9648 14.7515 22.6414 15.1957 23.1883 14.9113C23.3245 14.8424 23.4649 14.7822 23.6088 14.7311C22.6073 19.2509 21.8509 24.078 18.7638 27.6792C14.4871 33.3114 4.84945 32.717 2.4393 25.6813C1.93734 24.3192 0.0334362 24.8879 0.120311 26.1281C0.117811 26.1705 0.118592 26.2145 0.123592 26.2602C1.65875 41.0595 19.2607 43.6742 29.3167 35.2099C30.0716 34.6699 29.3177 33.5975 28.5621 34.0989C23.2104 38.0456 15.4569 40.2277 9.41695 36.5684C7.30016 35.3051 5.68031 33.6294 4.37172 31.7055C4.66534 31.8988 4.96897 32.0766 5.28133 32.2379C10.3362 34.9024 16.8507 33.1929 20.1321 28.6144C23.2971 24.6035 23.9237 19.3817 24.7758 14.5095C26.8134 14.4276 28.9484 15.8177 28.9905 18.0104C29.0177 18.6653 29.9013 18.8691 30.2113 18.2857C30.9191 16.9526 32.0379 15.7002 33.5634 15.402C33.6993 15.3773 33.8204 15.3013 33.9016 15.1896C33.9828 15.0779 34.0177 14.9392 33.9992 14.8024C33.6437 13.3788 30.4277 15.6211 30.0099 16.3322C29.1391 13.9347 26.4138 12.6251 23.9681 12.9852C24.6809 11.5227 26.3872 10.6967 27.9663 10.4811C29.944 10.3966 30.8539 12.0865 33.3763 11.1134C35.245 10.5427 37.5946 11.2647 37.4999 13.5422C37.5157 14.0031 37.7316 14.3195 38.027 14.499C38.0268 15.5969 38.0008 16.6863 37.9009 17.7479C37.7636 19.2853 37.4584 20.7554 36.903 22.1542C36.1053 24.2306 34.952 26.1899 34.0151 28.2027C33.8395 28.7189 33.3106 29.3138 33.6842 29.8569C33.9238 30.1794 34.388 30.225 34.6927 29.9674C39.2624 26.2478 39.5366 19.9807 39.3905 14.4714C39.6986 14.2689 39.9102 13.9189 39.8798 13.4274Z" fill="#F16E20"/>
<path d="M12.1164 4.66663C11.5945 4.00694 11.0891 3.27983 10.9073 2.4503C10.7252 1.88538 11.0365 1.28225 10.8084 0.719751C10.5495 0.111157 9.83945 -0.166421 9.23602 0.103032C2.20719 2.91639 -4.59125 14.774 4.78203 19.0141C9.59438 20.8031 15.8031 17.0224 15.897 11.7677C16.0537 8.73585 13.8649 6.79467 12.1164 4.66663ZM9.92617 15.5738C9.85039 16.4955 9.10555 17.2669 8.25484 17.5569C7.21664 17.9654 6.0932 17.4527 5.87609 16.3733C5.47852 14.9447 6.56094 13.5555 7.59094 12.4821C8.49055 13.8116 10.027 14.399 9.92617 15.5738ZM10.5826 17.3511C11.4875 16.0005 11.6008 14.0713 10.0927 12.3388C9.72398 11.7377 9.31633 11.0723 9.34883 10.3657C9.47656 9.35741 8.18274 8.65717 7.41789 9.35881C5.32258 11.1399 3.25235 14.3278 4.36633 17.0505C-1.16765 13.3948 4.09649 5.63116 8.66078 3.0878C9.50961 6.61358 14.5733 7.88428 14.5538 11.7326C14.583 14.2337 12.7945 16.3292 10.5826 17.3511Z" fill="#F16E20"/>
</g>
<defs>
<clipPath id="clip0_68_1211">
<rect width="40" height="40" fill="white"/>
</clipPath>
</defs>
</svg>
