<svg width="35" height="42" viewBox="0 0 35 42" fill="none" xmlns="http://www.w3.org/2000/svg">
<mask id="path-1-outside-1_68_1230" maskUnits="userSpaceOnUse" x="0" y="0" width="35" height="42" fill="black">
<rect fill="white" width="35" height="42"/>
<path d="M2.68083 17.6519C1.62099 20.908 4.09192 25.4443 8.72314 25.856C9.37223 25.9085 9.85988 25.8591 10.2206 25.7898C10.2627 25.834 10.3079 25.8792 10.3597 25.9265C10.6872 26.2228 11.2164 26.5668 11.8764 26.7791C12.3595 26.9421 12.9097 27.0297 13.4584 27.0294C21.1761 34.1721 19.2441 40.6356 27.688 40.9932C28.5193 41.0225 29.3622 40.9603 30.1691 40.7399C36.5599 39.0188 32.466 33.6265 31.2628 30.342C30.1453 27.1612 29.9731 24.3363 29.6448 21.3167C29.581 20.6508 29.5233 20.182 29.469 19.8491C29.6504 19.6398 29.8136 19.4154 29.957 19.1784C30.5551 18.167 30.6854 17.2637 30.7031 16.6101C30.7119 16.1059 30.6405 15.7318 30.5566 15.459C30.7528 15.1996 31.0183 14.8016 31.2686 14.155C32.8982 9.89609 30.5716 5.53464 28.3054 4.9063C28.1269 4.85336 27.9425 4.82312 27.7564 4.81628C27.7143 4.68536 27.6636 4.54682 27.6005 4.3982C25.9999 0.741385 21.4916 0.0974824 18.9798 2.16987C18.6359 2.45795 18.4525 2.70269 18.4207 2.81835C18.2026 2.6384 17.9694 2.4775 17.7237 2.33741C14.4597 0.488706 10.8727 1.85616 9.75491 4.17421C9.53976 4.62341 9.5062 4.93285 9.57608 4.96917C9.44251 4.92714 9.30822 4.88747 9.17326 4.85015C4.75017 3.68442 1.89075 7.4041 2.83372 10.3831C2.91856 10.6587 3.01804 10.8622 3.1044 10.9926C3.04013 11.0191 2.97682 11.0479 2.91459 11.0789C-0.165461 12.649 1.01279 16.9216 2.68083 17.6519ZM30.1144 30.746C31.0852 33.4861 35.5427 40.0289 27.7183 39.8485C19.3573 39.641 21.21 31.6557 14.1649 27.2976C14.0042 27.1981 13.8396 27.105 13.6714 27.0187C13.7956 27.0132 13.9201 27.0102 14.0425 26.9952C14.778 26.9107 15.4414 26.6388 15.904 26.3626C16.0548 26.2713 16.1903 26.1771 16.319 26.0818C16.5321 26.304 16.8018 26.5817 17.1116 26.9128C22.0049 32.0762 23.608 37.0514 26.2074 35.643C26.4941 35.4781 26.7296 35.2371 26.8879 34.9466C27.1815 34.4041 27.216 33.8374 27.1009 33.3155C26.9975 32.8865 26.8134 32.5367 26.6279 32.2422C26.5669 30.3655 26.0035 27.1762 26.114 23.2212C26.1186 22.9246 26.1262 22.6762 26.1332 22.4674C26.1372 22.2587 26.1296 22.0878 26.128 21.9502C26.126 21.8336 26.1117 21.7176 26.0853 21.6041C26.8436 21.5223 27.6472 21.2562 28.328 20.8321C28.4894 20.7326 28.6402 20.623 28.7836 20.5086C28.774 20.792 28.7684 21.0755 28.7668 21.3591C28.7882 24.5548 29.0772 27.6956 30.1144 30.746ZM23.4194 21.1503C23.5323 21.2175 23.6788 21.2892 23.8579 21.3585C24.2302 21.4988 24.7468 21.6197 25.3337 21.6377C25.3069 21.6955 25.2823 21.7542 25.2598 21.8138C25.2049 21.9502 25.1607 22.1235 25.1103 22.3402C25.0575 22.5569 25.0102 22.8172 24.9724 23.1306C24.3297 28.0111 28.0698 37.7786 22.159 24.5191L21.9833 24.1248L21.9109 23.9744C22.0849 23.8483 22.2477 23.7074 22.3974 23.5532C22.9509 22.9649 23.1945 22.3893 23.3196 21.956C23.4151 21.6136 23.4319 21.349 23.4194 21.1503ZM25.515 32.8053C25.6862 33.0625 25.8299 33.3305 25.8985 33.6039C25.9584 33.8398 25.9361 34.1489 25.8201 34.3619C25.7658 34.4718 25.691 34.5435 25.6114 34.5969C24.7359 35.066 23.4377 33.1291 22.6009 32.1129C21.1581 30.3554 19.2755 28.0679 17.4439 26.5613C17.1613 26.3243 16.8697 26.0984 16.5696 25.8841C16.9452 25.569 17.2704 25.1983 17.5339 24.7849C17.6554 24.5911 17.7439 24.4156 17.8107 24.2579C17.8608 24.2917 17.916 24.3265 17.9798 24.3616C18.2926 24.5304 18.7738 24.6933 19.3317 24.7245C19.8886 24.7647 20.5151 24.6698 21.0708 24.4468C21.1266 24.4248 21.1773 24.3961 21.2313 24.3717C21.2557 24.498 21.285 24.6408 21.3268 24.8011C22.3192 28.7112 24.771 31.7192 25.515 32.8053ZM3.48678 12.0704C3.77638 11.8659 3.99702 11.7674 4.14746 11.6804C4.45263 11.5162 4.48101 11.3752 4.47094 11.1988C4.46301 11.0353 4.45355 10.8546 3.97749 10.8183C3.81941 10.811 3.60183 10.8281 3.33572 10.9092C3.33114 10.7622 3.31436 10.5559 3.31131 10.3041C3.25332 7.72544 5.07365 5.39793 8.92913 5.9692C9.52207 6.06991 9.94899 6.1407 10.2444 6.15169C10.8386 6.17732 10.8944 6.02138 10.9274 5.85568C10.9615 5.68478 10.9689 5.53647 10.451 5.29783C10.1689 5.17129 9.87923 5.06225 9.58371 4.9713C9.66916 4.99846 9.8489 4.76715 10.1541 4.44825C11.8145 2.71978 14.2616 2.10304 17.2019 3.35636C17.6801 3.56571 17.9953 3.73599 18.2242 3.83334C18.6783 4.03566 18.7933 3.94472 18.9056 3.81014C19.0131 3.68197 19.1116 3.54404 18.7445 3.12504C18.6693 3.043 18.5899 2.96497 18.5065 2.89129C18.6337 2.86687 18.8837 2.73535 19.2358 2.58002C22.1087 1.34165 25.0264 2.16804 26.5678 4.89318C26.843 5.38999 26.9679 5.75833 27.0744 6.0046C27.4061 6.84259 28.1852 6.7254 27.8632 5.21178C27.9416 5.25145 28.0243 5.2957 28.1125 5.35002C29.9292 6.43763 31.4764 10.1646 29.8566 14.7916C29.7131 14.8477 29.6167 14.9539 29.6155 15.4059C29.6072 15.6558 29.6268 16.0162 29.5605 16.538C29.4897 17.0532 29.3567 17.7535 28.891 18.5396C28.6338 18.9653 28.241 19.4744 27.6874 19.883C27.1357 20.2922 26.4417 20.6059 25.7631 20.7539C25.0856 20.9172 24.4371 20.9141 23.9638 20.8864C23.7102 20.869 23.5063 20.8467 23.3644 20.8424C23.2772 20.5818 23.1322 20.576 22.9894 20.5745C22.8142 20.5721 22.6699 20.598 22.5304 20.9004C22.4563 21.0499 22.3827 21.2697 22.2405 21.5739C22.0965 21.8745 21.8945 22.2749 21.4965 22.6969C21.2771 22.9258 20.9747 23.1965 20.5896 23.408C20.1877 23.6266 19.7513 23.7749 19.2993 23.8462C18.7598 23.9429 18.2648 23.9017 17.9389 23.8883C17.9581 23.8144 17.9724 23.747 17.9825 23.6869C18.0548 23.177 17.8894 23.1211 17.7304 23.075C17.5614 23.0247 17.4173 23.0158 17.1674 23.3585C17.0374 23.5264 16.879 23.7842 16.5986 24.1248C16.3178 24.4602 15.9211 24.8999 15.2659 25.2966C14.9061 25.509 14.4209 25.7434 13.8567 25.8652C13.2936 25.9909 12.6592 26.0107 12.083 25.9247C11.614 25.8624 11.1932 25.7324 10.8508 25.6061C11.0104 25.5365 11.1044 25.4688 11.1575 25.4077C11.2399 25.3143 11.2264 25.2338 11.2063 25.1502C11.1861 25.0669 11.1587 24.989 11.0506 24.9362C10.9426 24.8844 10.7549 24.8587 10.4144 24.8493C10.0738 24.8297 9.57577 24.8358 8.85802 24.7187C4.25854 23.9371 2.47851 19.4304 3.58077 16.9198C3.82277 16.3583 4.12763 16.0782 4.06751 16.0016C4.03181 15.9399 3.59481 16.0946 3.16269 16.6763C3.02109 16.8652 2.89323 17.102 2.78428 17.369C2.66069 17.041 2.38116 16.4853 2.22217 15.8139C1.85017 14.3277 2.25451 12.9603 3.48678 12.0704Z"/>
</mask>
<path d="M2.68083 17.6519C1.62099 20.908 4.09192 25.4443 8.72314 25.856C9.37223 25.9085 9.85988 25.8591 10.2206 25.7898C10.2627 25.834 10.3079 25.8792 10.3597 25.9265C10.6872 26.2228 11.2164 26.5668 11.8764 26.7791C12.3595 26.9421 12.9097 27.0297 13.4584 27.0294C21.1761 34.1721 19.2441 40.6356 27.688 40.9932C28.5193 41.0225 29.3622 40.9603 30.1691 40.7399C36.5599 39.0188 32.466 33.6265 31.2628 30.342C30.1453 27.1612 29.9731 24.3363 29.6448 21.3167C29.581 20.6508 29.5233 20.182 29.469 19.8491C29.6504 19.6398 29.8136 19.4154 29.957 19.1784C30.5551 18.167 30.6854 17.2637 30.7031 16.6101C30.7119 16.1059 30.6405 15.7318 30.5566 15.459C30.7528 15.1996 31.0183 14.8016 31.2686 14.155C32.8982 9.89609 30.5716 5.53464 28.3054 4.9063C28.1269 4.85336 27.9425 4.82312 27.7564 4.81628C27.7143 4.68536 27.6636 4.54682 27.6005 4.3982C25.9999 0.741385 21.4916 0.0974824 18.9798 2.16987C18.6359 2.45795 18.4525 2.70269 18.4207 2.81835C18.2026 2.6384 17.9694 2.4775 17.7237 2.33741C14.4597 0.488706 10.8727 1.85616 9.75491 4.17421C9.53976 4.62341 9.5062 4.93285 9.57608 4.96917C9.44251 4.92714 9.30822 4.88747 9.17326 4.85015C4.75017 3.68442 1.89075 7.4041 2.83372 10.3831C2.91856 10.6587 3.01804 10.8622 3.1044 10.9926C3.04013 11.0191 2.97682 11.0479 2.91459 11.0789C-0.165461 12.649 1.01279 16.9216 2.68083 17.6519ZM30.1144 30.746C31.0852 33.4861 35.5427 40.0289 27.7183 39.8485C19.3573 39.641 21.21 31.6557 14.1649 27.2976C14.0042 27.1981 13.8396 27.105 13.6714 27.0187C13.7956 27.0132 13.9201 27.0102 14.0425 26.9952C14.778 26.9107 15.4414 26.6388 15.904 26.3626C16.0548 26.2713 16.1903 26.1771 16.319 26.0818C16.5321 26.304 16.8018 26.5817 17.1116 26.9128C22.0049 32.0762 23.608 37.0514 26.2074 35.643C26.4941 35.4781 26.7296 35.2371 26.8879 34.9466C27.1815 34.4041 27.216 33.8374 27.1009 33.3155C26.9975 32.8865 26.8134 32.5367 26.6279 32.2422C26.5669 30.3655 26.0035 27.1762 26.114 23.2212C26.1186 22.9246 26.1262 22.6762 26.1332 22.4674C26.1372 22.2587 26.1296 22.0878 26.128 21.9502C26.126 21.8336 26.1117 21.7176 26.0853 21.6041C26.8436 21.5223 27.6472 21.2562 28.328 20.8321C28.4894 20.7326 28.6402 20.623 28.7836 20.5086C28.774 20.792 28.7684 21.0755 28.7668 21.3591C28.7882 24.5548 29.0772 27.6956 30.1144 30.746ZM23.4194 21.1503C23.5323 21.2175 23.6788 21.2892 23.8579 21.3585C24.2302 21.4988 24.7468 21.6197 25.3337 21.6377C25.3069 21.6955 25.2823 21.7542 25.2598 21.8138C25.2049 21.9502 25.1607 22.1235 25.1103 22.3402C25.0575 22.5569 25.0102 22.8172 24.9724 23.1306C24.3297 28.0111 28.0698 37.7786 22.159 24.5191L21.9833 24.1248L21.9109 23.9744C22.0849 23.8483 22.2477 23.7074 22.3974 23.5532C22.9509 22.9649 23.1945 22.3893 23.3196 21.956C23.4151 21.6136 23.4319 21.349 23.4194 21.1503ZM25.515 32.8053C25.6862 33.0625 25.8299 33.3305 25.8985 33.6039C25.9584 33.8398 25.9361 34.1489 25.8201 34.3619C25.7658 34.4718 25.691 34.5435 25.6114 34.5969C24.7359 35.066 23.4377 33.1291 22.6009 32.1129C21.1581 30.3554 19.2755 28.0679 17.4439 26.5613C17.1613 26.3243 16.8697 26.0984 16.5696 25.8841C16.9452 25.569 17.2704 25.1983 17.5339 24.7849C17.6554 24.5911 17.7439 24.4156 17.8107 24.2579C17.8608 24.2917 17.916 24.3265 17.9798 24.3616C18.2926 24.5304 18.7738 24.6933 19.3317 24.7245C19.8886 24.7647 20.5151 24.6698 21.0708 24.4468C21.1266 24.4248 21.1773 24.3961 21.2313 24.3717C21.2557 24.498 21.285 24.6408 21.3268 24.8011C22.3192 28.7112 24.771 31.7192 25.515 32.8053ZM3.48678 12.0704C3.77638 11.8659 3.99702 11.7674 4.14746 11.6804C4.45263 11.5162 4.48101 11.3752 4.47094 11.1988C4.46301 11.0353 4.45355 10.8546 3.97749 10.8183C3.81941 10.811 3.60183 10.8281 3.33572 10.9092C3.33114 10.7622 3.31436 10.5559 3.31131 10.3041C3.25332 7.72544 5.07365 5.39793 8.92913 5.9692C9.52207 6.06991 9.94899 6.1407 10.2444 6.15169C10.8386 6.17732 10.8944 6.02138 10.9274 5.85568C10.9615 5.68478 10.9689 5.53647 10.451 5.29783C10.1689 5.17129 9.87923 5.06225 9.58371 4.9713C9.66916 4.99846 9.8489 4.76715 10.1541 4.44825C11.8145 2.71978 14.2616 2.10304 17.2019 3.35636C17.6801 3.56571 17.9953 3.73599 18.2242 3.83334C18.6783 4.03566 18.7933 3.94472 18.9056 3.81014C19.0131 3.68197 19.1116 3.54404 18.7445 3.12504C18.6693 3.043 18.5899 2.96497 18.5065 2.89129C18.6337 2.86687 18.8837 2.73535 19.2358 2.58002C22.1087 1.34165 25.0264 2.16804 26.5678 4.89318C26.843 5.38999 26.9679 5.75833 27.0744 6.0046C27.4061 6.84259 28.1852 6.7254 27.8632 5.21178C27.9416 5.25145 28.0243 5.2957 28.1125 5.35002C29.9292 6.43763 31.4764 10.1646 29.8566 14.7916C29.7131 14.8477 29.6167 14.9539 29.6155 15.4059C29.6072 15.6558 29.6268 16.0162 29.5605 16.538C29.4897 17.0532 29.3567 17.7535 28.891 18.5396C28.6338 18.9653 28.241 19.4744 27.6874 19.883C27.1357 20.2922 26.4417 20.6059 25.7631 20.7539C25.0856 20.9172 24.4371 20.9141 23.9638 20.8864C23.7102 20.869 23.5063 20.8467 23.3644 20.8424C23.2772 20.5818 23.1322 20.576 22.9894 20.5745C22.8142 20.5721 22.6699 20.598 22.5304 20.9004C22.4563 21.0499 22.3827 21.2697 22.2405 21.5739C22.0965 21.8745 21.8945 22.2749 21.4965 22.6969C21.2771 22.9258 20.9747 23.1965 20.5896 23.408C20.1877 23.6266 19.7513 23.7749 19.2993 23.8462C18.7598 23.9429 18.2648 23.9017 17.9389 23.8883C17.9581 23.8144 17.9724 23.747 17.9825 23.6869C18.0548 23.177 17.8894 23.1211 17.7304 23.075C17.5614 23.0247 17.4173 23.0158 17.1674 23.3585C17.0374 23.5264 16.879 23.7842 16.5986 24.1248C16.3178 24.4602 15.9211 24.8999 15.2659 25.2966C14.9061 25.509 14.4209 25.7434 13.8567 25.8652C13.2936 25.9909 12.6592 26.0107 12.083 25.9247C11.614 25.8624 11.1932 25.7324 10.8508 25.6061C11.0104 25.5365 11.1044 25.4688 11.1575 25.4077C11.2399 25.3143 11.2264 25.2338 11.2063 25.1502C11.1861 25.0669 11.1587 24.989 11.0506 24.9362C10.9426 24.8844 10.7549 24.8587 10.4144 24.8493C10.0738 24.8297 9.57577 24.8358 8.85802 24.7187C4.25854 23.9371 2.47851 19.4304 3.58077 16.9198C3.82277 16.3583 4.12763 16.0782 4.06751 16.0016C4.03181 15.9399 3.59481 16.0946 3.16269 16.6763C3.02109 16.8652 2.89323 17.102 2.78428 17.369C2.66069 17.041 2.38116 16.4853 2.22217 15.8139C1.85017 14.3277 2.25451 12.9603 3.48678 12.0704Z" fill="#F16E20"/>
<path d="M2.68083 17.6519C1.62099 20.908 4.09192 25.4443 8.72314 25.856C9.37223 25.9085 9.85988 25.8591 10.2206 25.7898C10.2627 25.834 10.3079 25.8792 10.3597 25.9265C10.6872 26.2228 11.2164 26.5668 11.8764 26.7791C12.3595 26.9421 12.9097 27.0297 13.4584 27.0294C21.1761 34.1721 19.2441 40.6356 27.688 40.9932C28.5193 41.0225 29.3622 40.9603 30.1691 40.7399C36.5599 39.0188 32.466 33.6265 31.2628 30.342C30.1453 27.1612 29.9731 24.3363 29.6448 21.3167C29.581 20.6508 29.5233 20.182 29.469 19.8491C29.6504 19.6398 29.8136 19.4154 29.957 19.1784C30.5551 18.167 30.6854 17.2637 30.7031 16.6101C30.7119 16.1059 30.6405 15.7318 30.5566 15.459C30.7528 15.1996 31.0183 14.8016 31.2686 14.155C32.8982 9.89609 30.5716 5.53464 28.3054 4.9063C28.1269 4.85336 27.9425 4.82312 27.7564 4.81628C27.7143 4.68536 27.6636 4.54682 27.6005 4.3982C25.9999 0.741385 21.4916 0.0974824 18.9798 2.16987C18.6359 2.45795 18.4525 2.70269 18.4207 2.81835C18.2026 2.6384 17.9694 2.4775 17.7237 2.33741C14.4597 0.488706 10.8727 1.85616 9.75491 4.17421C9.53976 4.62341 9.5062 4.93285 9.57608 4.96917C9.44251 4.92714 9.30822 4.88747 9.17326 4.85015C4.75017 3.68442 1.89075 7.4041 2.83372 10.3831C2.91856 10.6587 3.01804 10.8622 3.1044 10.9926C3.04013 11.0191 2.97682 11.0479 2.91459 11.0789C-0.165461 12.649 1.01279 16.9216 2.68083 17.6519ZM30.1144 30.746C31.0852 33.4861 35.5427 40.0289 27.7183 39.8485C19.3573 39.641 21.21 31.6557 14.1649 27.2976C14.0042 27.1981 13.8396 27.105 13.6714 27.0187C13.7956 27.0132 13.9201 27.0102 14.0425 26.9952C14.778 26.9107 15.4414 26.6388 15.904 26.3626C16.0548 26.2713 16.1903 26.1771 16.319 26.0818C16.5321 26.304 16.8018 26.5817 17.1116 26.9128C22.0049 32.0762 23.608 37.0514 26.2074 35.643C26.4941 35.4781 26.7296 35.2371 26.8879 34.9466C27.1815 34.4041 27.216 33.8374 27.1009 33.3155C26.9975 32.8865 26.8134 32.5367 26.6279 32.2422C26.5669 30.3655 26.0035 27.1762 26.114 23.2212C26.1186 22.9246 26.1262 22.6762 26.1332 22.4674C26.1372 22.2587 26.1296 22.0878 26.128 21.9502C26.126 21.8336 26.1117 21.7176 26.0853 21.6041C26.8436 21.5223 27.6472 21.2562 28.328 20.8321C28.4894 20.7326 28.6402 20.623 28.7836 20.5086C28.774 20.792 28.7684 21.0755 28.7668 21.3591C28.7882 24.5548 29.0772 27.6956 30.1144 30.746ZM23.4194 21.1503C23.5323 21.2175 23.6788 21.2892 23.8579 21.3585C24.2302 21.4988 24.7468 21.6197 25.3337 21.6377C25.3069 21.6955 25.2823 21.7542 25.2598 21.8138C25.2049 21.9502 25.1607 22.1235 25.1103 22.3402C25.0575 22.5569 25.0102 22.8172 24.9724 23.1306C24.3297 28.0111 28.0698 37.7786 22.159 24.5191L21.9833 24.1248L21.9109 23.9744C22.0849 23.8483 22.2477 23.7074 22.3974 23.5532C22.9509 22.9649 23.1945 22.3893 23.3196 21.956C23.4151 21.6136 23.4319 21.349 23.4194 21.1503ZM25.515 32.8053C25.6862 33.0625 25.8299 33.3305 25.8985 33.6039C25.9584 33.8398 25.9361 34.1489 25.8201 34.3619C25.7658 34.4718 25.691 34.5435 25.6114 34.5969C24.7359 35.066 23.4377 33.1291 22.6009 32.1129C21.1581 30.3554 19.2755 28.0679 17.4439 26.5613C17.1613 26.3243 16.8697 26.0984 16.5696 25.8841C16.9452 25.569 17.2704 25.1983 17.5339 24.7849C17.6554 24.5911 17.7439 24.4156 17.8107 24.2579C17.8608 24.2917 17.916 24.3265 17.9798 24.3616C18.2926 24.5304 18.7738 24.6933 19.3317 24.7245C19.8886 24.7647 20.5151 24.6698 21.0708 24.4468C21.1266 24.4248 21.1773 24.3961 21.2313 24.3717C21.2557 24.498 21.285 24.6408 21.3268 24.8011C22.3192 28.7112 24.771 31.7192 25.515 32.8053ZM3.48678 12.0704C3.77638 11.8659 3.99702 11.7674 4.14746 11.6804C4.45263 11.5162 4.48101 11.3752 4.47094 11.1988C4.46301 11.0353 4.45355 10.8546 3.97749 10.8183C3.81941 10.811 3.60183 10.8281 3.33572 10.9092C3.33114 10.7622 3.31436 10.5559 3.31131 10.3041C3.25332 7.72544 5.07365 5.39793 8.92913 5.9692C9.52207 6.06991 9.94899 6.1407 10.2444 6.15169C10.8386 6.17732 10.8944 6.02138 10.9274 5.85568C10.9615 5.68478 10.9689 5.53647 10.451 5.29783C10.1689 5.17129 9.87923 5.06225 9.58371 4.9713C9.66916 4.99846 9.8489 4.76715 10.1541 4.44825C11.8145 2.71978 14.2616 2.10304 17.2019 3.35636C17.6801 3.56571 17.9953 3.73599 18.2242 3.83334C18.6783 4.03566 18.7933 3.94472 18.9056 3.81014C19.0131 3.68197 19.1116 3.54404 18.7445 3.12504C18.6693 3.043 18.5899 2.96497 18.5065 2.89129C18.6337 2.86687 18.8837 2.73535 19.2358 2.58002C22.1087 1.34165 25.0264 2.16804 26.5678 4.89318C26.843 5.38999 26.9679 5.75833 27.0744 6.0046C27.4061 6.84259 28.1852 6.7254 27.8632 5.21178C27.9416 5.25145 28.0243 5.2957 28.1125 5.35002C29.9292 6.43763 31.4764 10.1646 29.8566 14.7916C29.7131 14.8477 29.6167 14.9539 29.6155 15.4059C29.6072 15.6558 29.6268 16.0162 29.5605 16.538C29.4897 17.0532 29.3567 17.7535 28.891 18.5396C28.6338 18.9653 28.241 19.4744 27.6874 19.883C27.1357 20.2922 26.4417 20.6059 25.7631 20.7539C25.0856 20.9172 24.4371 20.9141 23.9638 20.8864C23.7102 20.869 23.5063 20.8467 23.3644 20.8424C23.2772 20.5818 23.1322 20.576 22.9894 20.5745C22.8142 20.5721 22.6699 20.598 22.5304 20.9004C22.4563 21.0499 22.3827 21.2697 22.2405 21.5739C22.0965 21.8745 21.8945 22.2749 21.4965 22.6969C21.2771 22.9258 20.9747 23.1965 20.5896 23.408C20.1877 23.6266 19.7513 23.7749 19.2993 23.8462C18.7598 23.9429 18.2648 23.9017 17.9389 23.8883C17.9581 23.8144 17.9724 23.747 17.9825 23.6869C18.0548 23.177 17.8894 23.1211 17.7304 23.075C17.5614 23.0247 17.4173 23.0158 17.1674 23.3585C17.0374 23.5264 16.879 23.7842 16.5986 24.1248C16.3178 24.4602 15.9211 24.8999 15.2659 25.2966C14.9061 25.509 14.4209 25.7434 13.8567 25.8652C13.2936 25.9909 12.6592 26.0107 12.083 25.9247C11.614 25.8624 11.1932 25.7324 10.8508 25.6061C11.0104 25.5365 11.1044 25.4688 11.1575 25.4077C11.2399 25.3143 11.2264 25.2338 11.2063 25.1502C11.1861 25.0669 11.1587 24.989 11.0506 24.9362C10.9426 24.8844 10.7549 24.8587 10.4144 24.8493C10.0738 24.8297 9.57577 24.8358 8.85802 24.7187C4.25854 23.9371 2.47851 19.4304 3.58077 16.9198C3.82277 16.3583 4.12763 16.0782 4.06751 16.0016C4.03181 15.9399 3.59481 16.0946 3.16269 16.6763C3.02109 16.8652 2.89323 17.102 2.78428 17.369C2.66069 17.041 2.38116 16.4853 2.22217 15.8139C1.85017 14.3277 2.25451 12.9603 3.48678 12.0704Z" stroke="#F16E20" mask="url(#path-1-outside-1_68_1230)"/>
<path d="M8.84325 14.7522L8.8426 14.7512C8.74647 14.5965 8.65939 14.3791 8.58321 14.0677L8.58265 14.0654L8.58266 14.0654C8.50949 13.7535 8.43262 13.329 8.43262 12.7388V12.7369H8.43262C8.43562 12.3262 8.49666 11.9179 8.61391 11.5242L8.61411 11.5236C8.74952 11.0735 8.97899 10.6197 9.27488 10.2602C9.56619 9.89596 9.92264 9.63875 10.2187 9.51431L10.2195 9.51395L10.2195 9.51396C10.3658 9.45312 10.5053 9.41701 10.6262 9.41202C10.6862 9.40954 10.7532 9.41421 10.8178 9.4359C10.8824 9.45759 10.964 9.50369 11.0132 9.59557L10.7928 9.71365M8.84325 14.7522L9.96066 13.8529M8.84325 14.7522C8.94307 14.9111 9.06506 15.0185 9.21941 15.0635C9.35879 15.1042 9.49183 15.0819 9.57255 15.0683L9.57565 15.0678M8.84325 14.7522L9.57565 15.0678M10.7928 9.71365L11.012 9.59333C11.0583 9.67766 11.0583 9.76303 11.0474 9.82583C11.037 9.88637 11.014 9.94138 10.9926 9.98501C10.9544 10.063 10.8965 10.1521 10.8421 10.2359C10.837 10.2438 10.8319 10.2516 10.8269 10.2594L10.6171 10.1235L10.8273 10.2588C10.7037 10.4508 10.5582 10.6891 10.4505 10.9682L10.4492 10.9716L10.4492 10.9716C10.337 11.25 10.2573 11.5731 10.2181 11.881L10.218 11.8816C10.1794 12.1801 10.1772 12.4806 10.1754 12.7302L10.1753 12.7447C10.1751 12.9694 10.1825 13.1717 10.1908 13.3545C10.1926 13.3963 10.1946 13.4376 10.1965 13.478C10.2028 13.6113 10.2087 13.7361 10.2106 13.8477M10.7928 9.71365C10.8341 9.78878 10.749 9.91995 10.63 10.1036C10.6257 10.1102 10.6214 10.1168 10.6171 10.1235C10.4913 10.3188 10.3345 10.5745 10.2173 10.8782L8.85351 11.5956C8.98077 11.1726 9.19621 10.7488 9.46903 10.4177C9.73667 10.0826 10.0608 9.85189 10.3156 9.74477C10.5737 9.63735 10.7541 9.64132 10.7928 9.71365ZM10.2106 13.8477C10.2106 13.848 10.2106 13.8483 10.2106 13.8486L9.96066 13.8529M10.2106 13.8477C10.2106 13.8474 10.2106 13.847 10.2106 13.8467L9.96066 13.8529M10.2106 13.8477C10.2177 14.1338 10.2068 14.361 10.1649 14.5338M9.96066 13.8529C9.96768 14.1355 9.95577 14.3357 9.9219 14.4752M10.1649 14.5338C10.165 14.5337 10.165 14.5336 10.165 14.5334L9.9219 14.4752M10.1649 14.5338C10.1216 14.7143 10.0412 14.8538 9.91148 14.9462C9.79202 15.0313 9.65826 15.0539 9.57565 15.0678M10.1649 14.5338C10.1649 14.5339 10.1649 14.534 10.1648 14.5342L9.9219 14.4752M9.9219 14.4752L9.57565 15.0678M19.3165 7.65038L19.3165 7.65052C20.8801 7.55296 22.4755 8.09376 23.742 8.86681C24.9973 9.63299 25.9841 10.6618 26.2748 11.5921C26.3523 11.8191 26.3794 12.0153 26.3183 12.1837C26.2555 12.3564 26.119 12.441 26.0479 12.485L26.0429 12.4881L19.3165 7.65038ZM19.3165 7.65038L19.3078 7.65121M19.3165 7.65038L19.3078 7.65121M19.3078 7.65121C19.1048 7.67095 18.9288 7.70017 18.7973 7.74007C18.7331 7.75954 18.6646 7.78588 18.6067 7.82425C18.5572 7.85698 18.4552 7.93915 18.4499 8.08382L18.4499 8.08417M19.3078 7.65121L18.4499 8.08417M18.4499 8.08417C18.4451 8.22179 18.5314 8.31081 18.5763 8.34933C18.6277 8.39341 18.6903 8.4278 18.7483 8.45519C18.8658 8.51068 19.0246 8.56475 19.2013 8.61857M18.4499 8.08417L19.2013 8.61857M19.2013 8.61857C21.9126 9.54943 23.3282 10.6352 24.1689 11.4164C24.3716 11.6048 24.5419 11.7764 24.6922 11.9279L24.7126 11.9484C24.8651 12.102 25.0037 12.2412 25.1306 12.3468C25.2556 12.4509 25.3948 12.545 25.553 12.5809C25.7265 12.6202 25.8902 12.583 26.0426 12.4883L19.2013 8.61857ZM17.0267 22.0745L17.0269 22.0744L19.4862 19.3218C19.4861 19.3217 19.4861 19.3217 19.486 19.3216C19.3999 19.2694 19.2761 19.2031 19.1117 19.2083C18.9533 19.2133 18.799 19.2827 18.6356 19.397C18.5783 19.4347 18.5138 19.4819 18.4464 19.5313C18.419 19.5513 18.3911 19.5717 18.3631 19.592C18.2603 19.6662 18.1396 19.7501 17.99 19.841C17.6892 20.0208 17.2784 20.2411 16.6755 20.3674C16.3379 20.4348 15.9127 20.4869 15.4392 20.4448L15.4364 20.4446C14.9615 20.4076 14.4478 20.2844 13.9861 20.1089L13.9837 20.108C13.5492 19.9481 13.1656 19.75 12.8564 19.5903C12.8329 19.5782 12.8099 19.5663 12.7872 19.5546C12.632 19.4746 12.4866 19.4009 12.3706 19.3569C12.3136 19.3352 12.2466 19.3138 12.1796 19.3075C12.1189 19.3017 12.0013 19.3035 11.9078 19.3956C11.8038 19.4956 11.8119 19.6274 11.82 19.6825C11.83 19.7515 11.8562 19.8202 11.8855 19.8812C11.9454 20.0065 12.0446 20.1546 12.1737 20.3112C12.4336 20.6265 12.8384 21.005 13.3687 21.3387C13.8942 21.6737 14.5447 21.9455 15.2047 22.0725C15.866 22.2081 16.5347 22.1767 17.0267 22.0745Z" fill="#F16E20" stroke="#F16E20" stroke-width="0.5"/>
</svg>
