<svg width="431" height="157" viewBox="0 0 431 157" fill="none" xmlns="http://www.w3.org/2000/svg">
<path d="M317.957 79.1711C310.769 71.4649 303.582 63.7587 296.394 56.0525C294.78 54.203 293.454 53.6251 291.32 55.4746C288.862 57.4324 286.238 59.1728 283.479 60.6763C271.773 67.7105 259.319 73.41 246.349 77.6684C234.973 81.3833 223.177 83.6551 211.237 84.4306C196.527 85.3203 181.766 84.0548 167.419 80.6738C150.92 76.2809 134.994 69.9569 119.969 61.8322C106.593 54.9737 93.1404 48.2886 79.6106 41.7768C78.7284 41.1613 77.649 40.8973 76.5831 41.0362C75.5172 41.1751 74.5411 41.707 73.8451 42.5282C70.847 45.7648 67.5607 48.7124 64.2743 51.7178C60.988 54.7232 61.5069 54.3186 64.2743 56.5149C73.1532 62.8725 82.0321 69.1723 90.8534 75.5877C108.957 88.7268 127.484 101.288 146.433 113.271C160.924 122.484 176.092 130.579 191.808 137.488C201.545 141.701 211.517 145.348 221.673 148.411C232.994 151.831 244.558 154.382 256.266 156.04C263.093 156.878 269.976 157.168 276.849 156.907C285.08 156.908 293.302 156.386 301.468 155.347C310.176 153.894 318.799 151.964 327.297 149.567C340.392 145.838 353.082 140.804 365.177 134.54C367.252 133.5 367.656 132.517 365.868 130.61L317.957 79.1711Z" fill="#F16E20"/>
<path d="M430.574 74.2735C429.43 71.5154 427.728 69.0375 425.581 67.0039C423.879 65.1429 421.95 63.5145 420.191 61.1882L399.992 40.1355C398.876 39.5821 397.904 38.7649 397.156 37.751L364.929 4.71795C363.691 3.1854 362.126 1.96398 360.356 1.1474C358.586 0.330825 356.657 -0.0591903 354.716 0.00726846C352.981 0.222205 351.306 0.797114 349.794 1.69697C348.282 2.59683 346.965 3.8028 345.922 5.24139C338.064 15.6221 329.413 25.3455 320.05 34.3198C316.604 37.7289 312.987 40.9513 309.213 43.9738C305.128 47.2306 304.958 47.2306 308.589 51.1853L309.951 52.7555L346.83 93.8141C356.645 104.631 366.574 115.274 376.22 126.207C378.092 128.359 379.283 128.476 381.439 127.08C398.468 116.376 413.779 103.036 426.829 87.5332C428.56 85.8734 429.822 83.7653 430.481 81.4314C431.14 79.0975 431.172 76.6245 430.574 74.2735Z" fill="#F16E20"/>
<path d="M63.7201 36.1824C63.424 35.9025 63.071 35.6884 62.6849 35.5546L58.7738 34.0706L56.3006 33.1573C53.8274 32.2441 50.549 31.1597 47.2131 30.0752C44.8549 29.3332 42.2667 28.5342 39.4484 27.7922C34.272 26.3652 28.2904 24.9383 21.6185 23.6826C16.5571 22.6552 11.0356 21.7991 5.16897 21H3.96114C1.71802 21 0.337652 22.0844 0.107589 24.5958C-0.0358629 26.6291 -0.0358629 28.6698 0.107589 30.7031C0.0527049 31.3684 0.157464 32.0371 0.413353 32.6544C0.669241 33.2718 1.06895 33.8201 1.57967 34.2545C2.09039 34.6889 2.6976 34.9971 3.3515 35.1536C4.0054 35.3101 4.68738 35.3106 5.34151 35.1551C6.68108 35.0409 8.02803 35.0409 9.36761 35.1551H9.71273C16.6983 35.9056 23.6189 37.1647 30.4184 38.9221C32.9491 39.607 35.4223 40.349 37.8955 41.2052H38.2406C42.254 42.9124 46.104 44.9755 49.7438 47.3695L50.8366 47.8832C51.3703 48.0412 51.9391 48.0389 52.4714 47.8763C53.0037 47.7138 53.4756 47.3984 53.8274 46.97C56.9333 43.8878 60.2117 40.9198 63.4325 37.9518C64.0652 37.2669 64.1803 36.9244 63.7201 36.1824Z" fill="#F16E20"/>
</svg>
