<svg width="26" height="25" viewBox="0 0 26 25" fill="none" xmlns="http://www.w3.org/2000/svg">
<path d="M14.7031 12.4987L24.5408 2.67661C24.8348 2.38257 25 1.98376 25 1.56792C25 1.15208 24.8348 0.753277 24.5408 0.459234C24.2467 0.165192 23.8479 0 23.4321 0C23.0162 0 22.6174 0.165192 22.3234 0.459234L12.5013 10.2969L2.67928 0.459234C2.38524 0.165192 1.98643 3.69201e-07 1.57059 3.72299e-07C1.15475 3.75397e-07 0.755942 0.165192 0.461899 0.459234C0.167857 0.753277 0.00266529 1.15208 0.00266529 1.56792C0.00266529 1.98376 0.167857 2.38257 0.461899 2.67661L10.2996 12.4987L0.461899 22.3207C0.315539 22.4659 0.19937 22.6386 0.120093 22.8289C0.0408162 23.0192 0 23.2233 0 23.4294C0 23.6356 0.0408162 23.8397 0.120093 24.0299C0.19937 24.2202 0.315539 24.3929 0.461899 24.5381C0.607064 24.6845 0.779772 24.8006 0.970059 24.8799C1.16035 24.9592 1.36445 25 1.57059 25C1.77673 25 1.98083 24.9592 2.17112 24.8799C2.36141 24.8006 2.53411 24.6845 2.67928 24.5381L12.5013 14.7004L22.3234 24.5381C22.4686 24.6845 22.6413 24.8006 22.8315 24.8799C23.0218 24.9592 23.2259 25 23.4321 25C23.6382 25 23.8423 24.9592 24.0326 24.8799C24.2229 24.8006 24.3956 24.6845 24.5408 24.5381C24.6871 24.3929 24.8033 24.2202 24.8826 24.0299C24.9619 23.8397 25.0027 23.6356 25.0027 23.4294C25.0027 23.2233 24.9619 23.0192 24.8826 22.8289C24.8033 22.6386 24.6871 22.4659 24.5408 22.3207L14.7031 12.4987Z" fill="#979797"/>
</svg>
