<svg width="34" height="30" viewBox="0 0 34 30" fill="none" xmlns="http://www.w3.org/2000/svg">
<path d="M16.5025 21.0306C16.2069 21.0306 15.9179 21.1183 15.672 21.2826C15.4262 21.4468 15.2346 21.6803 15.1215 21.9534C15.0083 22.2266 14.9787 22.5271 15.0364 22.8171C15.0941 23.1071 15.2364 23.3735 15.4455 23.5825C15.6546 23.7916 15.9209 23.9339 16.2109 23.9916C16.5009 24.0493 16.8014 24.0197 17.0746 23.9066C17.3477 23.7934 17.5812 23.6018 17.7455 23.356C17.9097 23.1102 17.9974 22.8211 17.9974 22.5255C17.9974 22.129 17.8399 21.7488 17.5596 21.4685C17.2792 21.1881 16.899 21.0306 16.5025 21.0306ZM32.4527 23.2281L20.4191 2.30004C20.0301 1.60271 19.462 1.02187 18.7735 0.617526C18.085 0.213183 17.301 0 16.5025 0C15.7041 0 14.9201 0.213183 14.2315 0.617526C13.543 1.02187 12.9749 1.60271 12.586 2.30004L0.627121 23.2281C0.224698 23.9068 0.00846224 24.6796 0.000243364 25.4686C-0.00797552 26.2576 0.192114 27.0348 0.580311 27.7217C0.968507 28.4086 1.53107 28.981 2.2112 29.3809C2.89133 29.7809 3.66495 29.9944 4.45396 29.9998H28.5511C29.3464 30.0076 30.1296 29.8038 30.8202 29.4092C31.5107 29.0146 32.084 28.4434 32.481 27.7542C32.8781 27.0651 33.0848 26.2827 33.0798 25.4873C33.0748 24.6919 32.8584 23.9122 32.4527 23.2281ZM29.8666 26.2178C29.7355 26.4509 29.5444 26.6446 29.313 26.7787C29.0816 26.9128 28.8185 26.9824 28.5511 26.9802H4.45396C4.18655 26.9824 3.92343 26.9128 3.69206 26.7787C3.46068 26.6446 3.26951 26.4509 3.13848 26.2178C3.00728 25.9905 2.93821 25.7328 2.93821 25.4704C2.93821 25.208 3.00728 24.9502 3.13848 24.7229L15.0974 3.7949C15.2228 3.55004 15.4134 3.34454 15.6481 3.20105C15.8829 3.05756 16.1527 2.98163 16.4278 2.98163C16.7029 2.98163 16.9727 3.05756 17.2074 3.20105C17.4422 3.34454 17.6328 3.55004 17.7582 3.7949L29.7918 24.7229C29.9401 24.9469 30.0254 25.2067 30.0385 25.475C30.0517 25.7434 29.9923 26.0103 29.8666 26.2477V26.2178ZM16.5025 9.07175C16.1061 9.07175 15.7258 9.22924 15.4455 9.50958C15.1652 9.78992 15.0077 10.1701 15.0077 10.5666V16.546C15.0077 16.9425 15.1652 17.3227 15.4455 17.6031C15.7258 17.8834 16.1061 18.0409 16.5025 18.0409C16.899 18.0409 17.2792 17.8834 17.5596 17.6031C17.8399 17.3227 17.9974 16.9425 17.9974 16.546V10.5666C17.9974 10.1701 17.8399 9.78992 17.5596 9.50958C17.2792 9.22924 16.899 9.07175 16.5025 9.07175Z" fill="#D20000"/>
</svg>
