<svg width="110" height="216" viewBox="0 0 110 216" fill="none" xmlns="http://www.w3.org/2000/svg">
<path d="M65.7903 106.894V115.308C65.791 118.136 64.6843 120.851 62.7072 122.873C60.7301 124.896 58.0398 126.063 55.2126 126.126C53.743 126.126 52.288 125.835 50.9314 125.27C49.5747 124.706 48.3432 123.878 47.3079 122.835C46.2725 121.792 45.4537 120.555 44.8987 119.194C44.3436 117.834 44.0633 116.376 44.0739 114.907V106.894C32.3848 106.894 21.1744 111.537 12.909 119.802C4.6435 128.068 0 139.278 0 150.967V193.639C0 197.337 1.46904 200.884 4.08393 203.498C6.69882 206.113 10.2454 207.582 13.9434 207.582L18.9518 205.659C18.8534 204.605 19.062 203.545 19.5525 202.606C20.0431 201.668 20.7946 200.891 21.7164 200.37L25.7231 197.926L26.2841 197.606C27.0571 197.125 27.9395 196.85 28.8484 196.804H29.0888C30.0201 196.787 30.9327 197.068 31.6931 197.606C31.8978 197.744 32.086 197.905 32.2541 198.086C32.8436 196.371 33.9668 194.889 35.4592 193.858C36.9516 192.827 38.7349 192.301 40.548 192.357C41.0131 192.351 41.4752 192.433 41.9103 192.597H42.3911C42.8552 192.602 43.3154 192.684 43.7533 192.838L44.9554 193.278C44.9148 193.053 44.9148 192.822 44.9554 192.597C45.6252 190.865 46.9086 189.439 48.5614 188.59C49.8346 187.979 51.1813 187.535 52.5681 187.268C53.5363 187.021 54.5346 186.913 55.5331 186.948C56.0345 187.016 56.5216 187.165 56.9755 187.388C57.3761 186.406 58.0018 185.532 58.8021 184.836C59.6024 184.14 60.5551 183.642 61.5832 183.382C62.0634 183.226 62.5616 183.131 63.0657 183.101H63.6667C64.0127 183.06 64.3625 183.06 64.7085 183.101H65.029C65.4547 183.047 65.8855 183.047 66.3112 183.101C67.9559 183.493 69.4817 184.277 70.7586 185.385L72.6418 184.704C73.0689 184.509 73.5111 184.348 73.964 184.223L76.0475 183.422C77.1769 182.719 78.4508 182.28 79.7737 182.14C81.0763 181.249 82.5744 180.686 84.141 180.497C84.7281 180.081 85.3598 179.731 86.0242 179.455C86.6993 177.451 88.1396 175.794 90.0309 174.847C91.2483 174.141 92.6302 173.768 94.0376 173.766C95.6833 173.774 97.2886 174.277 98.6454 175.208C100.065 176.178 101.089 177.627 101.53 179.289C101.972 180.951 101.801 182.716 101.049 184.263C100.376 185.734 99.2914 186.978 97.9262 187.846C96.5611 188.713 94.9739 189.167 93.3565 189.151H92.3548C91.2827 189.026 90.2469 188.685 89.3097 188.15C88.62 188.382 87.9085 188.543 87.1861 188.631L86.6653 188.991C85.4391 189.705 84.0716 190.143 82.6586 190.273C81.4827 191.136 80.1011 191.675 78.6518 191.836L76.6485 192.597L75.6869 192.998C75.4991 193.116 75.2972 193.21 75.0859 193.278L73.7236 193.799L72.6818 194.2C72.6631 194.279 72.6631 194.361 72.6818 194.44C72.5305 194.94 72.3291 195.423 72.0808 195.883C72.1093 196.229 72.1093 196.578 72.0808 196.924C72.0778 198.058 71.674 199.155 70.9408 200.02C70.2077 200.885 69.1923 201.463 68.0741 201.652C66.7505 201.881 65.4105 202.002 64.0674 202.013C62.84 202.022 61.6436 201.628 60.6617 200.891C60.3042 202.476 59.4131 203.891 58.1375 204.898C57.7296 205.219 57.3013 205.513 56.8553 205.779C56.4654 206.016 56.0484 206.204 55.6132 206.34C55.3221 206.519 55.0133 206.666 54.6917 206.781H95.1595C98.8575 206.781 102.404 205.312 105.019 202.697C107.634 200.082 109.103 196.536 109.103 192.838V151.007C109.115 139.442 104.581 128.335 96.4783 120.083C88.3757 111.83 77.3539 107.093 65.7903 106.894ZM16.5477 153.091H14.7047V150.727H16.5477V153.091ZM16.5477 149.886H14.7047V140.269H16.5477V149.886ZM16.5477 139.508H14.7047V137.184H16.5477V139.508ZM19.9535 153.091H18.0703V150.727H19.9535V153.091ZM19.9535 149.886H18.0703V140.269H19.9535V149.886ZM19.9535 139.508H18.0703V137.184H19.9535V139.508ZM23.239 153.091H21.3959V150.727H23.239V153.091ZM23.239 149.886H21.3959V140.269H23.239V149.886ZM23.239 139.508H21.3959V137.184H23.239V139.508ZM26.6447 153.091H24.8016V150.727H26.6447V153.091ZM26.6447 149.886H24.8016V140.269H26.6447V149.886ZM26.6447 139.508H24.8016V137.184H26.6447V139.508ZM29.9702 153.091H28.0871V150.727H29.9702V153.091ZM29.9702 149.886H28.0871V140.269H29.9702V149.886ZM29.9702 139.508H28.0871V137.184H29.9702V139.508ZM54.9321 133.178C55.5185 133.178 56.0917 133.352 56.5793 133.677C57.0669 134.003 57.4469 134.466 57.6714 135.008C57.8958 135.55 57.9545 136.146 57.8401 136.721C57.7257 137.296 57.4433 137.824 57.0286 138.239C56.614 138.654 56.0857 138.936 55.5105 139.051C54.9354 139.165 54.3392 139.106 53.7974 138.882C53.2557 138.657 52.7926 138.277 52.4668 137.79C52.141 137.302 51.9671 136.729 51.9671 136.143C51.9671 135.753 52.0438 135.368 52.1928 135.008C52.3418 134.648 52.5602 134.321 52.8355 134.046C53.1109 133.771 53.4377 133.552 53.7974 133.403C54.1572 133.254 54.5427 133.178 54.9321 133.178ZM54.9321 145.198C55.5185 145.198 56.0917 145.372 56.5793 145.697C57.0669 146.023 57.4469 146.486 57.6714 147.028C57.8958 147.57 57.9545 148.166 57.8401 148.741C57.7257 149.316 57.4433 149.845 57.0286 150.259C56.614 150.674 56.0857 150.956 55.5105 151.071C54.9354 151.185 54.3392 151.126 53.7974 150.902C53.2557 150.678 52.7926 150.298 52.4668 149.81C52.141 149.322 51.9671 148.749 51.9671 148.163C51.9671 147.773 52.0438 147.388 52.1928 147.028C52.3418 146.668 52.5602 146.341 52.8355 146.066C53.1109 145.791 53.4377 145.572 53.7974 145.423C54.1572 145.274 54.5427 145.198 54.9321 145.198ZM54.9321 157.218C55.5185 157.218 56.0917 157.392 56.5793 157.718C57.0669 158.043 57.4469 158.506 57.6714 159.048C57.8958 159.59 57.9545 160.186 57.8401 160.761C57.7257 161.336 57.4433 161.865 57.0286 162.279C56.614 162.694 56.0857 162.976 55.5105 163.091C54.9354 163.205 54.3392 163.147 53.7974 162.922C53.2557 162.698 52.7926 162.318 52.4668 161.83C52.141 161.343 51.9671 160.769 51.9671 160.183C51.9671 159.794 52.0438 159.408 52.1928 159.048C52.3418 158.688 52.5602 158.362 52.8355 158.086C53.1109 157.811 53.4377 157.593 53.7974 157.444C54.1572 157.295 54.5427 157.218 54.9321 157.218ZM54.9321 169.238C55.5185 169.238 56.0917 169.412 56.5793 169.738C57.0669 170.064 57.4469 170.527 57.6714 171.068C57.8958 171.61 57.9545 172.206 57.8401 172.781C57.7257 173.357 57.4433 173.885 57.0286 174.3C56.614 174.714 56.0857 174.997 55.5105 175.111C54.9354 175.225 54.3392 175.167 53.7974 174.942C53.2557 174.718 52.7926 174.338 52.4668 173.85C52.141 173.363 51.9671 172.789 51.9671 172.203C51.9671 171.814 52.0438 171.428 52.1928 171.068C52.3418 170.709 52.5602 170.382 52.8355 170.106C53.1109 169.831 53.4377 169.613 53.7974 169.464C54.1572 169.315 54.5427 169.238 54.9321 169.238ZM81.7771 153.211H79.934V150.847H81.7771V153.211ZM81.7771 150.006H79.934V140.269H81.7771V150.006ZM81.7771 139.628H79.934V137.305H81.7771V139.628ZM85.1828 153.211H83.2996V150.847H85.1828V153.211ZM85.1828 150.006H83.2996V140.269H85.1828V150.006ZM85.1828 139.628H83.2996V137.305H85.1828V139.628ZM88.4683 153.211H86.4649V150.847H88.308L88.4683 153.211ZM88.4683 150.006H86.4649V140.269H88.308L88.4683 150.006ZM88.4683 139.628H86.4649V137.305H88.308L88.4683 139.628ZM91.874 153.211H89.9908V150.847H91.874V153.211ZM91.874 150.006H89.9908V140.269H91.874V150.006ZM91.874 139.628H89.9908V137.305H91.874V139.628ZM95.1595 153.211H93.3164V150.847H95.1595V153.211ZM95.1595 150.006H93.3164V140.269H95.1595V150.006ZM95.1595 139.628H93.3164V137.305H95.1595V139.628Z" fill="#F5F5F5"/>
<path d="M63.7867 86.3774C61.2406 84.9392 58.3768 84.1568 55.4532 84.1009C52.5295 84.0449 49.6378 84.7171 47.0386 86.0569C44.3927 87.8725 41.1922 88.6989 37.9981 88.3912C34.8039 88.0835 31.82 86.6613 29.5693 84.374C29.5693 86.0569 29.7697 87.1387 29.9299 88.3807C30.0276 91.177 31.1741 93.8341 33.1414 95.8237C35.1087 97.8133 37.7527 98.9896 40.5477 99.1187C45.063 99.6866 49.6429 98.8323 53.6497 96.6747C54.0979 96.4771 54.5823 96.375 55.0721 96.375C55.5619 96.375 56.0463 96.4771 56.4945 96.6747C61.0986 99.1694 66.4513 99.9096 71.5597 98.7581C74.4685 98.0446 76.9806 96.2167 78.5544 93.6685C80.1283 91.1203 80.6381 88.0558 79.9738 85.1353C77.8012 87.119 75.0275 88.3188 72.0942 88.5439C69.1608 88.769 66.2365 88.0064 63.7867 86.3774Z" fill="#F5F5F5"/>
<path d="M13.501 40.6218C12.1387 43.106 12.3791 44.308 14.9434 46.0309C14.3924 46.5535 13.9595 47.1878 13.6736 47.8914C13.3878 48.595 13.2556 49.3515 13.2859 50.1103C13.3163 50.8691 13.5085 51.6127 13.8496 52.2912C14.1908 52.9697 14.673 53.5674 15.264 54.0443C14.3426 55.9895 13.6437 58.0325 13.1805 60.1345C13.1196 60.68 13.1714 61.2322 13.3327 61.7568C13.4941 62.2815 13.7615 62.7674 14.1184 63.1844C14.4753 63.6014 14.9141 63.9406 15.4075 64.181C15.9009 64.4215 16.4385 64.5579 16.9869 64.582C15.3441 68.5887 15.5845 71.1931 17.7882 72.8759C18.059 73.1466 18.3878 73.3521 18.7498 73.4769C19.5106 73.8736 20.3559 74.0808 21.2139 74.0808C22.072 74.0808 22.9173 73.8736 23.6781 73.4769H27.1639C27.5339 74.0707 28.0388 74.5689 28.6375 74.9309C29.2362 75.293 29.9119 75.5086 30.6097 75.5604C31.5129 75.6173 32.4166 75.458 33.2458 75.0956C34.0751 74.7333 34.8059 74.1783 35.3777 73.4769C36.9804 74.0378 38.3827 75.0796 39.3844 74.9193C40.5006 74.6901 41.5451 74.1953 42.4295 73.4769H43.6716C45.8352 77.1631 49.0005 77.2432 52.5264 73.4769H52.847C53.3989 74.4338 54.1931 75.2285 55.1496 75.7811C56.1062 76.3336 57.1914 76.6245 58.2961 76.6245C59.4008 76.6245 60.486 76.3336 61.4426 75.7811C62.3991 75.2285 63.1933 74.4338 63.7452 73.4769H65.7085C66.265 74.3054 67.0256 74.9766 67.9168 75.4257C68.8081 75.8749 69.8001 76.0868 70.7971 76.0412C71.7118 76.0282 72.6088 75.7869 73.4065 75.339C74.2042 74.8912 74.8773 74.2511 75.3647 73.4769H78.7704C79.5276 73.9383 80.3829 74.2151 81.2669 74.2847C82.1509 74.3543 83.0388 74.2148 83.8589 73.8776C84.1053 73.8052 84.327 73.6666 84.5 73.4769C85.5178 72.9273 86.3343 72.0681 86.8313 71.0236C87.3284 69.9791 87.4801 68.8036 87.2647 67.6671C88.4478 68.1864 89.7682 68.305 91.025 68.0049C92.2818 67.7048 93.4062 67.0025 94.2271 66.0047C95.048 65.0069 95.5206 63.7682 95.5729 62.4772C95.6251 61.1861 95.2543 59.9133 94.5168 58.8524C97.8424 55.8473 98.0828 54.4851 95.7188 50.4383C98.2431 47.7137 98.3232 46.4316 96.1195 42.8656C98.804 40.4615 98.804 38.8589 96.1195 36.1744C97.5619 33.57 97.3215 32.1676 94.7572 30.6852C95.3023 30.1593 95.73 29.524 96.0122 28.821C96.2943 28.1181 96.4245 27.3634 96.3942 26.6066C96.364 25.8497 96.1739 25.1078 95.8365 24.4297C95.4991 23.7515 95.0221 23.1524 94.4367 22.6717C95.3597 20.7411 96.0587 18.7112 96.5202 16.6216C96.5987 16.0857 96.5677 15.5394 96.4292 15.0158C96.2906 14.4922 96.0473 14.0021 95.714 13.5752C95.3807 13.1482 94.9643 12.7933 94.4899 12.5318C94.0156 12.2704 93.4931 12.1078 92.9542 12.0539C94.5569 8.04722 94.3165 5.44285 92.0326 3.76003C89.7488 2.07721 87.0643 2.27755 83.6586 4.84185C83.3758 3.86117 82.8111 2.98519 82.0347 2.32273C81.2582 1.66026 80.3043 1.24051 79.2913 1.1156C78.372 1.05366 77.4513 1.21434 76.6073 1.58402C75.7634 1.9537 75.021 2.52146 74.4432 3.23916C72.9206 2.67822 71.5583 1.59641 70.4365 1.75667C69.3146 1.91694 67.8722 3.07889 66.4297 3.8001C64.0257 -0.487087 60.8203 -0.72749 57.014 3.39943C56.421 2.27477 55.505 1.35326 54.384 0.753463C53.2629 0.153669 51.9881 -0.0969726 50.7234 0.033786C49.4273 0.220984 48.2126 0.777859 47.2248 1.63771C46.237 2.49756 45.5181 3.62393 45.1541 4.88191C44.6268 3.67792 43.7567 2.65587 42.6523 1.94331C41.5478 1.23076 40.2579 0.859266 38.9437 0.875196C37.6661 0.922931 36.4335 1.35878 35.4099 2.1247C34.3863 2.89061 33.6203 3.95022 33.2141 5.16238C32.3885 4.04566 31.2303 3.21923 29.9058 2.80171C28.5812 2.3842 27.1585 2.39707 25.8417 2.83849C24.6361 3.31634 23.6317 4.19439 22.997 5.32524C22.3622 6.45609 22.1359 7.77089 22.3559 9.0489C21.174 8.52894 19.8554 8.40618 18.5978 8.69902C17.3403 8.99186 16.2115 9.68452 15.3809 10.6731C14.5503 11.6617 14.0627 12.8929 13.991 14.1821C13.9193 15.4714 14.2676 16.7491 14.9835 17.8236C11.7781 20.8286 11.5377 22.1909 13.8616 26.2377C11.3775 28.9623 11.2973 30.2444 13.3808 33.8104C10.9367 36.0942 10.9367 37.8572 13.501 40.6218Z" fill="#F5F5F5"/>
<path d="M47.9209 198.526C47.9209 198.285 47.9209 198.245 47.5603 198.526L46.799 198.806C46.799 198.806 46.5987 198.806 46.5586 198.806C46.7536 199.501 46.8877 200.212 46.9593 200.93C46.9593 200.93 46.9593 201.21 47.3199 200.93L48.3616 200.529C48.602 200.529 48.602 200.289 48.3616 200.088C48.1212 199.888 48.1212 199.167 47.9209 198.526Z" fill="#F5F5F5"/>
<path d="M71.6785 189.111L70.7169 189.471C70.3563 189.471 70.2761 189.752 70.3963 190.113C70.6119 190.663 70.7338 191.245 70.7569 191.835C70.7569 192.196 70.7569 192.316 71.3179 192.156L72.6 191.635H72.9206C72.9206 191.635 73.161 191.635 73.2411 191.635L74.5633 191.154L75.1243 190.874C75.8559 190.655 76.5464 190.316 77.1677 189.872C77.4834 189.639 77.8584 189.501 78.2495 189.471C79.4735 189.378 80.6369 188.901 81.5751 188.109C81.8425 187.916 82.1668 187.817 82.4966 187.829C83.4902 187.742 84.4502 187.427 85.3013 186.907C85.7421 186.627 86.1427 186.186 86.7437 186.186C87.6965 186.104 88.623 185.832 89.4683 185.385C89.6292 185.261 89.8264 185.194 90.0292 185.194C90.2321 185.194 90.4292 185.261 90.5902 185.385C91.2979 186 92.1806 186.378 93.1144 186.466C94.2201 186.624 95.3469 186.411 96.3185 185.86C97.29 185.309 98.0514 184.451 98.4834 183.421C98.872 182.592 98.9646 181.654 98.7459 180.765C98.5272 179.875 98.0103 179.088 97.2814 178.533C96.516 177.989 95.6102 177.678 94.6723 177.635C93.7344 177.592 92.8041 177.821 91.9925 178.293C91.3338 178.601 90.7598 179.065 90.3201 179.644C89.8804 180.223 89.5881 180.901 89.4683 181.618C89.4683 182.299 89.1077 182.7 88.4266 182.86C87.627 183.049 86.8761 183.404 86.2229 183.902C86.1143 184.016 85.9838 184.107 85.8392 184.169C85.6945 184.231 85.5388 184.263 85.3814 184.263C84.0648 184.353 82.8069 184.842 81.7754 185.665C81.5233 185.859 81.2115 185.958 80.8939 185.946C79.9148 186.012 78.9664 186.315 78.1293 186.827C77.5744 187.273 76.9105 187.564 76.2061 187.668C75.545 187.684 74.898 187.863 74.3229 188.189L71.6785 189.111ZM91.7121 180.857C92.1442 180.386 92.7003 180.045 93.3168 179.875C93.9333 179.705 94.5852 179.712 95.1979 179.895C95.6222 180.057 95.9834 180.351 96.2286 180.733C96.4738 181.115 96.59 181.566 96.5602 182.019C96.4667 182.473 96.2736 182.9 95.9949 183.269C95.7161 183.639 95.3587 183.942 94.9485 184.157C94.5382 184.372 94.0853 184.493 93.6226 184.511C93.1599 184.529 92.6989 184.444 92.273 184.263C91.9502 184.137 91.6648 183.93 91.4437 183.664C91.2225 183.397 91.0728 183.078 91.0087 182.738C90.9446 182.397 90.9682 182.046 91.0772 181.717C91.1862 181.388 91.3771 181.092 91.6319 180.857H91.7121Z" fill="#F5F5F5"/>
<path d="M70.1571 194.279C70.3369 193.556 70.3369 192.799 70.1571 192.075C70.0558 191.058 69.7708 190.067 69.3157 189.15C68.8754 188.527 68.3159 187.997 67.6694 187.591C67.0229 187.185 66.3023 186.912 65.5493 186.787C64.9083 186.787 64.8281 186.787 64.6679 187.388C64.6488 187.668 64.6488 187.949 64.6679 188.229V187.187C64.6679 186.787 64.6679 186.586 64.0268 186.626C63.6672 186.588 63.3046 186.588 62.945 186.626C62.3912 186.74 61.8729 186.984 61.4336 187.34C60.9943 187.696 60.6469 188.152 60.4207 188.67C60.1151 189.549 59.9265 190.465 59.8598 191.394C59.7642 191.942 59.8221 192.505 60.0272 193.021C60.2324 193.537 60.5766 193.987 61.0218 194.319C61.6069 194.75 62.064 195.332 62.344 196.002C62.5844 196.563 62.7046 197.164 62.945 197.725C63.1073 198.185 63.4126 198.581 63.8164 198.855C64.2202 199.129 64.7011 199.267 65.1887 199.247C66.3434 199.222 67.4949 199.115 68.6345 198.927C68.9818 198.888 69.3033 198.725 69.5391 198.467C69.775 198.209 69.9091 197.874 69.9166 197.525C69.8525 197.14 69.745 196.763 69.5961 196.403C69.5961 195.882 69.0752 195.802 68.6345 195.681H68.8749C69.1918 195.579 69.4765 195.395 69.7013 195.15C69.926 194.904 70.0831 194.604 70.1571 194.279Z" fill="#F5F5F5"/>
<path d="M55.8926 203.777C56.2153 203.587 56.5233 203.372 56.8141 203.136C57.5358 202.619 58.0331 201.846 58.2043 200.975C58.3756 200.104 58.208 199.2 57.7357 198.448C57.6587 198.323 57.6157 198.18 57.611 198.034C57.6063 197.887 57.6401 197.741 57.7089 197.612C57.7778 197.482 57.8793 197.373 58.0035 197.295C58.1277 197.216 58.2702 197.172 58.4168 197.166L60.8209 196.204C61.4619 196.004 61.502 195.764 60.8209 195.323C60.3221 194.944 59.8773 194.499 59.4986 194.001C59.4455 193.964 59.3826 193.945 59.3183 193.945C59.254 193.945 59.1912 193.964 59.138 194.001L58.1364 194.361L55.8926 195.243C55.8361 194.857 55.8361 194.466 55.8926 194.081C55.9726 193.5 56.1345 192.933 56.3734 192.398C56.734 191.156 56.3734 190.354 54.931 190.354H54.4101C53.0124 190.555 51.6581 190.989 50.4034 191.637C49.396 192.117 48.6085 192.962 48.1997 194.001C48.1997 194.441 48.1997 194.602 48.5603 194.802L49.2815 195.082C49.126 195.137 48.9563 195.137 48.8007 195.082C47.9994 195.082 47.9192 195.082 48.0394 195.964C48.1857 196.917 48.4136 197.855 48.7206 198.769C49.1719 200.264 49.7344 201.724 50.4034 203.136C50.5911 203.558 50.8789 203.929 51.2419 204.215C51.6049 204.501 52.0323 204.695 52.4869 204.779C53.0952 204.831 53.7079 204.763 54.2899 204.578C54.7307 204.578 54.9711 204.258 54.931 203.777C54.9108 203.564 54.9108 203.349 54.931 203.136C54.931 203.136 54.931 203.136 54.931 203.376C54.931 203.617 55.3317 204.098 55.8926 203.777Z" fill="#F5F5F5"/>
<path d="M37.1033 204.656C36.571 204.231 36.0751 203.762 35.6208 203.254C35.5547 203.24 35.4865 203.24 35.4204 203.254C35.4204 203.254 35.4204 203.254 35.18 203.254L33.4972 203.895C33.2167 203.895 33.4972 204.175 33.4972 204.295C34.0632 204.707 34.5288 205.241 34.8595 205.858C34.8595 206.098 35.14 206.139 35.3804 205.858L37.0632 205.257C37.4238 205.057 37.4639 204.937 37.1033 204.656Z" fill="#F5F5F5"/>
<path d="M44.8353 197.164C44.2147 196.644 43.491 196.262 42.7118 196.042C42.1108 196.042 41.9104 196.042 41.7502 196.563C41.5899 197.084 41.4697 197.725 41.3495 198.286C41.3113 197.627 41.231 196.971 41.1091 196.322C41.1091 196.002 41.1091 195.761 40.5482 195.761C39.4423 195.71 38.349 196.013 37.4269 196.625C36.5047 197.238 35.8016 198.128 35.4196 199.167C35.2291 199.746 35.1735 200.362 35.2568 200.966C35.3401 201.57 35.5602 202.147 35.9004 202.653C36.5273 203.413 37.2399 204.099 38.0239 204.696C38.5849 205.257 38.5849 205.257 39.3061 204.897C39.3061 204.897 39.3061 205.177 39.0657 205.297C38.9653 205.369 38.8862 205.466 38.8368 205.579C38.7874 205.692 38.7696 205.816 38.7852 205.938C38.7852 206.66 39.0256 207.341 39.1859 208.022C39.2039 208.198 39.2593 208.368 39.3483 208.521C39.4373 208.673 39.5579 208.805 39.7021 208.908C39.8462 209.01 40.0105 209.081 40.1841 209.114C40.3576 209.148 40.5364 209.145 40.7084 209.104C41.5655 209.025 42.4043 208.808 43.1926 208.463C44.0569 208.151 44.8161 207.603 45.383 206.88C45.9499 206.157 46.3017 205.289 46.398 204.376C46.6792 202.762 46.5971 201.106 46.1576 199.528C45.9866 198.617 45.5223 197.786 44.8353 197.164Z" fill="#F5F5F5"/>
<path d="M32.8936 204.377L31.6515 203.496C31.2107 203.135 31.1306 203.135 30.6899 203.496C30.3105 203.847 29.894 204.156 29.4478 204.417C29.8558 203.933 30.1931 203.394 30.4495 202.815C30.5884 202.401 30.6017 201.956 30.4876 201.535C30.3735 201.115 30.1371 200.737 29.8084 200.451C29.5748 200.288 29.2897 200.217 29.007 200.25C28.6368 200.259 28.2762 200.37 27.9653 200.571L23.4778 203.295C23.0248 203.498 22.659 203.855 22.446 204.303C22.233 204.751 22.1868 205.261 22.3158 205.74C22.3667 206.045 22.4612 206.342 22.5963 206.621C22.9985 207.378 23.4398 208.114 23.9185 208.825C24.1255 209.213 24.2337 209.647 24.2337 210.087C24.2337 210.527 24.1255 210.96 23.9185 211.349C23.6537 211.8 23.4515 212.286 23.3175 212.791C23.2401 213.086 23.2607 213.398 23.3764 213.68C23.4921 213.962 23.6964 214.199 23.9586 214.354C24.4004 214.619 24.9059 214.759 25.421 214.759C25.9362 214.759 26.4416 214.619 26.8835 214.354C27.4379 213.984 27.9606 213.569 28.4461 213.112C28.7266 212.871 29.007 212.711 28.8868 212.27C29.1614 212.352 29.4537 212.352 29.7282 212.27C30.2919 212.095 30.8678 211.961 31.4511 211.87C32.4435 211.722 33.3442 211.207 33.9754 210.427C34.3516 209.978 34.6248 209.452 34.7755 208.885C34.9262 208.319 34.9509 207.727 34.8477 207.15C34.7446 206.573 34.5161 206.025 34.1785 205.546C33.8408 205.067 33.4022 204.668 32.8936 204.377Z" fill="#F5F5F5"/>
<path d="M23.6793 209.864C23.5025 209.277 23.2319 208.722 22.878 208.222C22.6777 207.901 22.4773 207.861 22.1167 207.981L13.6225 211.227C12.3403 211.708 11.0181 212.148 9.61577 212.749C8.09792 213.599 6.63886 214.549 5.24845 215.594C5.24845 215.594 5.00804 215.594 5.24845 215.874C5.48885 216.155 5.52892 215.874 5.68919 215.874L8.53395 215.434C9.41769 215.374 10.2916 215.213 11.1383 214.953L16.0265 213.07L16.7477 212.789L19.0315 211.948H19.272L21.3955 211.107H21.5959H22.0366L22.878 210.786H23.2787C23.4009 210.839 23.5392 210.842 23.6632 210.793C23.7871 210.744 23.8866 210.648 23.9398 210.526C23.9929 210.403 23.9953 210.265 23.9465 210.141C23.8976 210.017 23.8016 209.918 23.6793 209.864Z" fill="#F5F5F5"/>
</svg>
