<svg width="115" height="218" viewBox="0 0 115 218" fill="none" xmlns="http://www.w3.org/2000/svg">
<path d="M57.6048 161.528C55.1325 161.555 52.6878 161.008 50.4621 159.932C48.2364 158.855 46.2901 157.278 44.7758 155.324V167.649C44.7795 169.077 45.1285 170.481 45.7928 171.744C46.4571 173.007 47.4171 174.091 48.5909 174.902L70.0984 190.121C70.7367 190.608 71.3392 191.141 71.9012 191.714V153.018C70.5014 155.589 68.4354 157.736 65.9199 159.233C63.4044 160.731 60.5322 161.524 57.6048 161.528ZM66.409 181.904C65.853 181.904 65.3199 181.683 64.9268 181.29C64.5336 180.897 64.3127 180.364 64.3127 179.808C64.3127 179.252 64.5336 178.719 64.9268 178.325C65.3199 177.932 65.853 177.711 66.409 177.711C66.965 177.711 67.4981 177.932 67.8913 178.325C68.2844 178.719 68.5052 179.252 68.5052 179.808C68.5052 180.364 68.2844 180.897 67.8913 181.29C67.4981 181.683 66.965 181.904 66.409 181.904ZM66.409 174.316C65.853 174.316 65.3199 174.095 64.9268 173.702C64.5336 173.308 64.3127 172.775 64.3127 172.219C64.3127 171.663 64.5336 171.13 64.9268 170.737C65.3199 170.344 65.853 170.123 66.409 170.123C66.965 170.123 67.4981 170.344 67.8913 170.737C68.2844 171.13 68.5052 171.663 68.5052 172.219C68.5052 172.775 68.2844 173.308 67.8913 173.702C67.4981 174.095 66.965 174.316 66.409 174.316ZM66.409 166.685C65.853 166.685 65.3199 166.464 64.9268 166.071C64.5336 165.678 64.3127 165.145 64.3127 164.589C64.3127 164.033 64.5336 163.5 64.9268 163.107C65.3199 162.714 65.853 162.493 66.409 162.493C66.965 162.493 67.4981 162.714 67.8913 163.107C68.2844 163.5 68.5052 164.033 68.5052 164.589C68.5052 165.145 68.2844 165.678 67.8913 166.071C67.4981 166.464 66.965 166.685 66.409 166.685ZM75.2551 112.183V217.372H100.41C102.33 217.372 104.23 216.994 106.003 216.258C107.776 215.522 109.386 214.444 110.742 213.084C112.097 211.725 113.171 210.112 113.901 208.337C114.632 206.562 115.005 204.66 115 202.741V153.185C114.996 142.568 110.873 132.365 103.499 124.726C96.1256 117.086 86.0758 112.605 75.4648 112.225L75.2551 112.183ZM85.7364 160.313H83.8498V157.839H85.7783L85.7364 160.313ZM85.7364 156.917H83.8498V146.939H85.7783L85.7364 156.917ZM85.7364 146.1H83.8498V143.668H85.7783L85.7364 146.1ZM89.2161 160.313H87.2457V157.839H89.2161V160.313ZM89.2161 156.917H87.2457V146.939H89.2161V156.917ZM89.2161 146.1H87.2457V143.668H89.2161V146.1ZM92.7378 160.313H90.8093V157.839H92.7378V160.313ZM92.7378 156.917H90.8093V146.939H92.7378V156.917ZM92.7378 146.1H90.8093V143.668H92.7378V146.1ZM96.4272 160.355H94.331V157.881H96.4272V160.355ZM96.4272 156.959H94.331V146.939H96.4272V156.959ZM96.4272 146.142H94.331V143.71H96.4272V146.142ZM99.9489 160.355H98.0203V157.881H99.9489V160.355ZM99.9489 156.959H98.0203V146.939H99.9489V156.959ZM99.9489 146.142H98.0203V143.71H99.9489V146.142ZM68.1699 192.721L46.6205 177.418C45.0064 176.301 43.6867 174.81 42.7741 173.073C41.8615 171.335 41.3831 169.403 41.3799 167.44V146.142C41.3799 145.849 41.3799 145.471 41.3799 145.136V112.015C35.9557 111.988 30.5795 113.032 25.5603 115.089C20.5411 117.145 15.9777 120.174 12.1325 123.999C8.28726 127.825 5.23593 132.373 3.15383 137.382C1.07174 142.39 -7.03084e-05 147.761 3.45918e-09 153.185V202.741C3.45915e-09 206.621 1.54154 210.343 4.28554 213.087C7.02953 215.831 10.7512 217.372 14.6318 217.372H71.9012V199.974C71.9175 198.552 71.5861 197.148 70.9358 195.884C70.2854 194.62 69.3359 193.534 68.1699 192.721ZM17.4827 160.355H15.5541V157.881H17.4827V160.355ZM17.4827 156.959H15.5541V146.939H17.4827V156.959ZM17.4827 146.142H15.5541V143.71H17.4827V146.142ZM20.9624 160.355H18.992V157.881H20.9624V160.355ZM20.9624 156.959H18.992V146.939H20.9624V156.959ZM20.9624 146.142H18.992V143.71H20.9624V146.142ZM24.4841 160.355H22.5556V157.881H24.4841V160.355ZM24.4841 156.959H22.5556V146.939H24.4841V156.959ZM24.4841 146.142H22.5556V143.71H24.4841V146.142ZM27.9639 160.355H26.0353V157.881H27.9639V160.355ZM27.9639 156.959H26.0353V146.939H27.9639V156.959ZM27.9639 146.142H26.0353V143.71H27.9639V146.142ZM31.5275 160.355H29.5571V157.881H31.5275V160.355ZM31.5275 156.959H29.5571V146.939H31.5275V156.959ZM31.5275 146.142H29.5571V143.71H31.5275V146.142Z" fill="#F5F5F5"/>
<path d="M16.3483 60.6148C18.151 58.6024 18.151 58.6024 15.8032 56.7158C16.3333 56.4547 16.7839 56.0565 17.1083 55.5626C17.4327 55.0687 17.619 54.497 17.6479 53.9068C17.6731 53.0525 17.5453 52.2006 17.2706 51.3913C17.0737 50.6444 17.087 49.8577 17.3089 49.1179C17.5308 48.3781 17.9529 47.714 18.5283 47.1988C19.0735 46.7735 19.4698 46.1864 19.6603 45.5218C19.6603 45.0187 19.6603 44.3899 19.6603 44.0545C19.6603 43.7191 19.2411 42.9225 19.6603 42.3355C20.0985 41.7818 20.3897 41.1265 20.5069 40.4302C20.6242 39.7339 20.5637 39.0193 20.3311 38.3527C20.0798 37.691 20.0798 36.9601 20.3311 36.2983C20.6665 35.6276 20.9181 34.9148 21.2954 34.244C21.6727 33.5732 22.0081 32.6928 21.2954 32.022C20.5827 31.3512 21.0439 31.4351 21.2954 31.1416C23.0766 29.3163 24.1216 26.8979 24.2301 24.3498C24.2506 24.0813 24.337 23.8221 24.4817 23.5951C24.8408 23.0993 25.0869 22.5308 25.2028 21.9296C25.3187 21.3284 25.3015 20.7092 25.1525 20.1153C25.0549 19.9052 25.0044 19.6763 25.0044 19.4445C25.0044 19.2128 25.0549 18.9839 25.1525 18.7738L29.345 12.6527C30.3092 11.353 30.3092 11.353 28.758 10.6403C30.925 9.66439 32.7711 8.09447 34.0825 6.11244C35.1583 5.18408 36.3943 4.45952 37.7299 3.97427L39.7004 2.75845C39.91 2.75845 40.1616 2.75845 40.2035 2.38113C40.497 1.03953 41.6709 1.24915 42.5932 0.997604C47.4344 -0.0585532 52.4861 0.455434 57.0154 2.46498C58.6029 3.15795 60.3446 3.42199 62.0663 3.2307C63.7879 3.03941 65.4291 2.39949 66.8258 1.37493C67.3708 0.997604 67.4128 1.03953 67.7482 2.1715H68.0835C68.4377 1.79613 68.8799 1.51502 69.3701 1.35364C69.8602 1.19227 70.3829 1.15571 70.8908 1.2473C71.3987 1.33888 71.8757 1.55571 72.2786 1.87814C72.6815 2.20057 72.9977 2.61842 73.1984 3.09385C73.2531 3.22077 73.3323 3.33562 73.4316 3.43178C73.5309 3.52795 73.6482 3.60354 73.7768 3.65419C73.9053 3.70485 74.0427 3.72957 74.1809 3.72694C74.3191 3.72432 74.4554 3.69438 74.5819 3.63887L78.3552 2.6746C78.984 2.6746 79.2356 2.6746 79.2356 3.3454C79.2356 4.0162 79.2356 4.72892 79.2356 5.39972C79.2356 6.07051 79.571 6.74131 80.4514 6.86709C81.3318 6.99286 81.793 7.16056 81.0803 8.33446C81.0882 8.44611 81.0882 8.5582 81.0803 8.66986C80.6191 9.38258 81.0803 9.59221 81.6253 9.59221C82.4449 9.51819 83.2695 9.66286 84.015 10.0115C84.2666 10.0115 84.6858 10.0115 84.7277 10.5146C84.7697 11.0177 84.3085 10.85 84.0989 11.0596L83.7215 11.395C84.8453 11.772 85.9385 12.2346 86.9917 12.7785C87.7258 13.2765 88.4261 13.8227 89.0879 14.4136C89.0879 14.4136 89.5491 14.749 89.5072 15.0424C89.4652 15.3359 89.046 15.3359 88.7944 15.4198H87.4109C89.6872 16.655 91.4102 18.7076 92.2323 21.1635C92.9825 22.6103 94.0947 23.838 95.4605 24.7271C96.5505 25.3979 97.5568 26.1945 96.6344 27.7038C96.6344 28.0391 96.6344 28.2068 96.9698 28.3745C97.2766 28.5797 97.5354 28.8488 97.7284 29.1633C97.9213 29.4779 98.044 29.8305 98.0878 30.197C98.1316 30.5634 98.0956 30.935 97.9822 31.2862C97.8688 31.6375 97.6808 31.96 97.431 32.2316C97.431 32.6509 97.1794 32.9024 97.431 33.2378C97.6825 33.5732 98.3114 34.2021 98.7307 34.7052C99.1499 35.2083 99.108 35.0406 98.9822 35.2922C98.8564 35.5437 98.6049 35.5018 98.4372 35.5018C97.7949 35.5415 97.1508 35.5415 96.5086 35.5018C95.6282 35.5018 95.5863 35.8791 95.9636 36.508C96.1005 36.8236 96.2544 37.1315 96.4248 37.4303C97.9725 39.9819 98.9321 42.8463 99.2337 45.8153C99.2337 46.6538 99.2337 47.1569 98.2695 47.2827C97.3052 47.4084 97.431 47.5761 98.0179 48.1212C98.245 48.3032 98.4221 48.5399 98.5328 48.8091C98.6434 49.0783 98.6838 49.3712 98.6503 49.6603C98.6168 49.9494 98.5104 50.2253 98.3411 50.4621C98.1719 50.6988 97.9453 50.8887 97.6825 51.014C97.2633 51.3075 97.1794 51.4332 97.6825 51.8525C98.2101 52.4105 98.5243 53.1365 98.5703 53.903C98.6163 54.6695 98.3911 55.4278 97.9341 56.045C97.9341 56.3384 97.6825 56.5481 97.9341 56.8415C98.1892 57.1205 98.377 57.4542 98.4831 57.8171C98.5891 58.18 98.6106 58.5623 98.5458 58.9348C98.481 59.3073 98.3318 59.6599 98.1094 59.9657C97.8871 60.2715 97.5976 60.5222 97.2633 60.6986C96.2575 61.1866 95.3595 61.8709 94.622 62.711C94.3561 63.2864 93.8922 63.7469 93.315 64.0086C92.7377 64.2703 92.0856 64.3157 91.4776 64.1365C90.7649 63.9268 90.5134 64.5138 90.4295 65.1007C90.3457 65.6877 89.8845 66.3585 89.0041 66.4423L82.7154 67.1551C82.0865 67.1551 81.4995 67.1551 81.2899 68.0774C81.0803 68.9998 80.5772 68.6644 80.116 68.7482C74.7496 69.5867 69.3832 70.4671 63.9749 71.2637C59.8187 71.956 55.6109 72.2926 51.3975 72.2699C44.6359 72.1435 37.9721 70.631 31.8185 67.8259C29.8072 66.7434 27.5623 66.1677 25.2783 66.1489C24.9457 66.0874 24.6046 66.0874 24.2721 66.1489C23.727 66.1489 23.4336 66.1489 23.3078 65.6038C23.182 65.0588 22.637 64.0107 21.505 64.1784C21.4019 64.2034 21.2946 64.2051 21.1908 64.1833C21.087 64.1616 20.9894 64.117 20.905 64.0527C20.8207 63.9884 20.7517 63.9061 20.7032 63.8118C20.6547 63.7175 20.6278 63.6136 20.6246 63.5076C20.6246 62.5433 19.8699 62.5014 19.1572 62.5433C18.4445 62.5852 17.606 62.5433 17.606 61.3694C17.606 60.1955 16.7675 61.1179 16.3483 60.6148Z" fill="#F5F5F5"/>
<path d="M33.54 100.821C33.9223 99.3937 34.3985 97.9931 34.9655 96.6285C37.0979 92.7494 40.3648 89.6145 44.3286 87.6438C48.2925 85.6731 52.7638 84.9608 57.1437 85.6023C59.4915 85.9796 62.007 85.3927 64.3548 85.6023C67.8688 85.9199 71.2362 87.1615 74.1152 89.2011C76.9943 91.2407 79.2824 94.0057 80.7475 97.2155C81.1537 98.3583 81.4485 99.5377 81.6279 100.737C78.1481 99.8148 75.0037 98.7667 71.7336 98.2217C69.302 97.7605 66.6188 98.2217 64.271 97.7605C59.9871 96.607 55.4743 96.607 51.1904 97.7605C48.1916 98.2379 45.1682 98.5458 42.1347 98.6829C39.4095 99.3117 36.6844 100.15 33.54 100.821Z" fill="#F5F5F5"/>
</svg>
