<svg width="30" height="40" viewBox="0 0 30 40" fill="none" xmlns="http://www.w3.org/2000/svg">
<path d="M21.1177 12.345C22.8692 12.599 24.3424 11.7541 26.0237 11.6803L26.1973 12.9026L24.5741 13.384L24.5589 13.6223C25.653 13.7009 26.7453 13.8116 27.8399 13.8503C29.52 13.9096 29.722 14.0662 29.8109 15.7632C29.8496 16.5126 29.7825 17.2667 29.8139 18.0167C29.8551 18.9916 29.719 19.8413 28.481 20.1141C28.311 23.9248 28.1326 27.6727 27.982 31.4205C27.9276 32.7686 27.9318 34.1197 27.9258 35.4696C27.9204 36.5679 27.9155 37.6674 27.9548 38.7651C27.9875 39.6747 27.7649 40.0158 26.9249 39.9995C22.9236 39.9202 18.9223 39.8114 14.9211 39.7315C14.3768 39.7206 13.83 39.8597 13.2845 39.8555C9.82997 39.8277 6.37542 39.7968 2.92209 39.717C2.39955 39.7049 1.88367 39.4303 1.25953 39.2459C1.07205 32.9325 1.69074 26.6548 1.75848 20.4122C1.24502 20.1056 0.635995 19.9375 0.394081 19.5437C0.13886 19.1283 0.171519 18.4956 0.187848 17.9616C0.222944 16.8634 0.297987 15.7668 0.412829 14.674C0.550116 13.3495 0.740624 13.1832 2.07781 13.1711C3.5293 13.1584 4.98199 13.1862 6.43348 13.1929C6.92517 13.1953 7.41626 13.1856 7.90735 13.1814L7.97206 12.8905C7.37937 12.7145 6.78849 12.5337 6.19338 12.3655C5.74705 12.2397 5.24387 12.1321 5.40232 11.5085C5.54807 10.9352 6.05549 10.9261 6.50666 11.0314C7.57169 11.2793 8.62583 11.5751 9.98963 11.9313C9.0383 10.8699 8.22244 10.0528 7.51605 9.14988C6.47279 7.81572 5.48941 6.47612 5.08904 4.72889C4.6167 2.66475 5.19306 1.78297 7.27716 0.503241C8.70022 -0.371281 10.1801 -0.0180856 11.507 0.889095C13.0928 1.97408 13.798 3.61971 14.2473 5.40262C14.4288 6.12413 14.5588 6.85895 14.7179 7.61795C15.55 6.8154 16.3429 6.01285 17.1769 5.25626C18.173 4.3521 19.3088 3.92573 20.6079 4.57043C21.9396 5.23086 22.672 6.40354 22.6666 7.82661C22.6629 8.83358 22.2698 9.85324 21.959 10.8384C21.8017 11.3398 21.4425 11.7783 21.1177 12.345ZM6.14802 21.6327L6.2079 21.8812L3.04365 22.053L3.05575 23.5081L6.3851 23.8002C5.55352 24.0385 4.71226 24.1117 3.88854 24.2726C2.67897 24.509 2.6203 24.6578 2.95777 26.0089L5.22814 26.4806L5.20395 26.6161L2.82291 26.9058L2.84044 28.9917L7.47734 29.2228L7.4719 29.3486L2.77392 29.7779L2.58341 32.0326L7.31103 32.2237C6.23944 32.4726 5.15118 32.6432 4.05486 32.7341C2.85617 32.8351 2.18123 33.1527 2.63844 34.8582L6.77458 34.8237L6.77942 35.0608L2.57978 35.8512C2.53624 36.1808 2.48241 36.3774 2.4939 36.5697C2.50418 36.7536 2.5822 36.9332 2.65296 37.1975L6.39357 37.3596C5.9938 37.5065 5.59948 37.5392 5.20516 37.5809C4.75883 37.6281 4.31068 37.6668 3.86798 37.7388C3.53655 37.7926 3.21239 37.8924 2.88459 37.9716C6.24479 38.5534 9.55418 38.5443 13.0238 38.3895L12.5122 20.1969C12.231 20.0596 12.1463 19.9919 12.0526 19.9762C9.35763 19.5189 6.68265 20.0995 3.9968 20.1485C3.50208 20.1576 3.05393 20.4727 3.10232 21.2456L6.14802 21.6327ZM18.4046 20.007C18.4204 21.9224 18.4258 23.6605 18.4524 25.3981C18.4833 27.3921 18.5201 29.386 18.5782 31.3794C18.6393 33.4786 18.7318 35.5766 18.8002 37.6759C18.8225 38.3544 19.1183 38.6695 19.8265 38.6478C20.724 38.6199 21.6233 38.6671 22.522 38.6659C23.8066 38.6635 25.0918 38.6465 26.4289 38.6357L27.1722 20.2894C24.1816 19.8062 21.3506 19.9671 18.4046 20.007ZM17.3384 38.3768C17.3257 36.8146 17.3082 35.4194 17.3033 34.0242C17.2985 32.6277 17.3088 31.2319 17.3075 29.8354C17.3075 29.2881 17.2894 28.7407 17.29 28.194C17.2906 26.0549 17.3287 23.9157 17.2894 21.7778C17.2531 19.834 17.091 17.8927 17.0662 15.9495C17.0493 14.6093 16.6943 14.2029 15.4055 14.3771C15.1116 14.417 14.8291 14.5663 14.5358 14.5869C13.746 14.6426 13.5216 15.1415 13.5385 15.8146C13.5796 17.4597 13.6438 19.1041 13.6982 20.7485C13.8451 25.1925 13.9897 29.637 14.1403 34.0804C14.1887 35.5059 14.2546 36.9314 14.3145 38.4016L17.3384 38.3768ZM13.5367 12.5282C13.5663 12.374 13.6244 12.195 13.6311 12.0135C13.7314 9.54057 13.2482 7.14138 12.5866 4.78695C12.165 3.28526 11.1786 2.17548 9.73804 1.47816C9.13748 1.18786 8.59318 1.19693 8.0156 1.45336C6.61915 2.07266 6.10085 3.11894 6.50969 4.60732C6.64032 5.0839 6.86107 5.54353 7.09512 5.98201C8.54177 8.69629 10.8811 10.5887 13.1684 12.5258C13.2228 12.5718 13.3516 12.53 13.5367 12.5282ZM1.55588 15.707L5.0842 15.886C4.04155 16.1835 3.00918 16.3142 1.97862 16.4563C1.42645 16.5325 1.22324 16.8246 1.42161 17.3762L7.9896 17.782C7.28502 18.0239 6.5871 18.0275 5.88857 18.036C5.18702 18.0451 4.48063 18.0161 3.78512 18.085C3.15251 18.1479 2.53079 18.3197 1.90423 18.4436C5.42288 18.6783 8.89375 18.6432 12.5201 18.4515L12.211 14.6159C11.9606 14.5264 11.8227 14.4339 11.6842 14.4339C8.62886 14.4266 5.57408 14.4315 2.5187 14.4291C1.69014 14.4291 1.55769 14.9498 1.55588 15.707ZM18.2982 18.5894C21.8816 18.6245 25.2847 19.0055 28.6691 18.5465L28.6413 15.2044C25.1226 14.9849 21.7606 14.7381 18.268 15L18.2982 18.5894ZM14.9053 13.061C16.7378 12.6976 18.2661 12.5439 19.6063 11.6827C21.203 10.657 21.8247 8.42716 20.9478 6.80875C20.3115 5.63667 19.3602 5.4002 18.2196 6.10236C17.2029 6.72831 16.4191 7.51816 16.1058 8.71685C15.7532 10.0655 15.365 11.4051 14.9053 13.061Z" fill="white"/>
</svg>
