<svg width="107" height="216" viewBox="0 0 107 216" fill="none" xmlns="http://www.w3.org/2000/svg">
<path d="M94.0516 116.011C90.1103 112.023 85.4126 108.862 80.2339 106.713C75.0552 104.564 69.4996 103.471 63.8927 103.497V133.072C63.8423 142.634 60.6921 151.921 54.915 159.539V184.412L57.2858 183.596L67.1962 180.254C67.5476 180.158 67.8602 179.954 68.0901 179.671C68.9034 178.687 69.9628 177.936 71.1604 177.495L78.6613 174.696L93.8184 168.983C94.6768 168.663 95.5839 168.492 96.5001 168.478C97.9901 168.462 99.4499 168.899 100.685 169.732C101.921 170.565 102.874 171.754 103.418 173.142C103.792 174.014 103.985 174.952 103.985 175.901C103.985 176.85 103.792 177.789 103.418 178.661C102.554 180.45 101.039 181.841 99.1817 182.547L86.473 187.288L76.6792 190.942C75.7854 191.281 74.8368 191.452 73.8809 191.447C73.4543 191.485 73.025 191.485 72.5984 191.447C71.8782 191.613 71.1755 191.847 70.4997 192.147L66.6133 193.818L55.226 198.481V201.163H93.3521C95.1314 201.163 96.8933 200.812 98.5368 200.13C100.18 199.448 101.673 198.448 102.929 197.188C104.186 195.928 105.181 194.432 105.859 192.787C106.536 191.142 106.882 189.379 106.877 187.599V146.248C106.857 140.608 105.713 135.029 103.511 129.837C101.309 124.645 98.0928 119.945 94.0516 116.011ZM60.2006 173.414C59.6852 173.414 59.191 173.209 58.8265 172.845C58.4621 172.48 58.2574 171.986 58.2574 171.471C58.2574 170.955 58.4621 170.461 58.8265 170.097C59.191 169.732 59.6852 169.527 60.2006 169.527C60.716 169.527 61.2103 169.732 61.5747 170.097C61.9391 170.461 62.1438 170.955 62.1438 171.471C62.1438 171.986 61.9391 172.48 61.5747 172.845C61.2103 173.209 60.716 173.414 60.2006 173.414ZM60.2006 165.408C59.6852 165.408 59.191 165.203 58.8265 164.839C58.4621 164.474 58.2574 163.98 58.2574 163.465C58.2574 162.949 58.4621 162.455 58.8265 162.09C59.191 161.726 59.6852 161.521 60.2006 161.521C60.716 161.521 61.2103 161.726 61.5747 162.09C61.9391 162.455 62.1438 162.949 62.1438 163.465C62.1438 163.98 61.9391 164.474 61.5747 164.839C61.2103 165.203 60.716 165.408 60.2006 165.408ZM79.322 148.268H77.6119V145.975H79.322V148.268ZM79.322 145.12H77.6119V135.832H79.322V145.12ZM79.322 135.132H77.6119V132.839H79.322V135.132ZM82.6254 148.268H80.7988V145.975H82.6254V148.268ZM82.6254 145.12H80.7988V135.832H82.6254V145.12ZM82.6254 135.132H80.7988V132.839H82.6254V135.132ZM85.8901 148.268H84.1023V145.975H85.8901V148.268ZM85.8901 145.12H84.1023V135.832H85.8901V145.12ZM85.8901 135.132H84.1023V132.839H85.8901V135.132ZM89.1158 148.268H87.328V145.975H89.1158V148.268ZM89.1158 145.12H87.328V135.832H89.1158V145.12ZM89.1158 135.132H87.328V132.839H89.1158V135.132ZM92.3804 148.268H90.7093V145.975H92.497L92.3804 148.268ZM92.3804 145.12H90.7093V135.832H92.497L92.3804 145.12ZM92.3804 135.132H90.7093V132.839H92.497L92.3804 135.132Z" fill="#F5F5F5"/>
<path d="M54.877 34.0066H93.7415V32.6074C93.7415 28.3188 92.8955 24.0723 91.252 20.1112C89.6085 16.15 87.1997 12.5519 84.1636 9.52304C81.1274 6.49415 77.5236 4.09393 73.5586 2.45983C69.5935 0.825739 65.345 -0.0101305 61.0564 9.26533e-05H54.877V34.0066Z" fill="#F5F5F5"/>
<path d="M12.98 37.0771V50.33C12.9799 51.1994 13.3226 52.0338 13.9338 52.6522C14.5449 53.2707 15.3752 53.6232 16.2446 53.6334H90.3204C91.1965 53.6334 92.0368 53.2854 92.6563 52.6659C93.2758 52.0463 93.6239 51.2061 93.6239 50.33V37.0771H12.98Z" fill="#F5F5F5"/>
<path d="M51.8445 34.0066V9.28195e-05H45.6262C41.3395 -0.0101412 37.0928 0.826004 33.1299 2.46057C29.167 4.09514 25.5658 6.49597 22.5328 9.52537C19.4998 12.5548 17.0946 16.1531 15.4554 20.1141C13.8161 24.0751 12.9749 28.3207 12.98 32.6074V34.0066H51.8445Z" fill="#F5F5F5"/>
<path d="M23.3188 90.5533C30.8197 90.1258 34.9782 84.7236 39.6419 80.1765C43.2563 76.7175 47.4148 73.7638 52.6616 76.873C53.0891 77.145 53.9441 76.873 54.4882 76.6009C55.984 75.7761 57.6983 75.4342 59.396 75.6221C61.0938 75.8099 62.6919 76.5184 63.9711 77.6503C65.4712 78.8065 66.9111 80.0388 68.2851 81.3424C72.6379 85.5398 76.5244 90.359 83.3257 90.9031C78.2419 92.8906 72.6824 93.3234 67.3523 92.1467C63.0772 91.4083 58.9965 89.776 54.7991 88.6878C53.8529 88.3736 52.8305 88.3736 51.8843 88.6878C43.6251 92.3431 34.4566 93.4265 25.573 91.797C24.9094 91.6429 24.2595 91.435 23.6297 91.1751L23.3188 90.5533Z" fill="#F5F5F5"/>
<path d="M42.751 133.072V103.496C31.4127 103.496 20.5388 108 12.5215 116.018C4.50411 124.035 0 134.909 0 146.247V187.56C0.00249786 189.755 0.537822 191.917 1.56001 193.86C2.5822 195.803 4.06069 197.469 5.86852 198.714C5.76255 197.372 6.03167 196.026 6.64583 194.828C7.1535 193.843 7.85099 192.969 8.69812 192.255C9.54524 191.541 10.5252 191.002 11.5816 190.669L34.9003 183.168C36.1491 182.734 37.4648 182.523 38.7868 182.547C40.5124 182.547 42.2163 182.931 43.7755 183.671C45.3348 184.41 46.7105 185.486 47.8034 186.822L51.9619 185.345V159.539C46.1039 151.948 42.8712 142.659 42.751 133.072ZM16.051 148.268H14.2633V145.975H16.051V148.268ZM16.051 145.12H14.2633V135.831H16.051V145.12ZM16.051 135.132H14.2633V132.839H16.051V135.132ZM19.3545 148.268H17.5279V145.975H19.3545V148.268ZM19.3545 145.12H17.5279V135.831H19.3545V145.12ZM19.3545 135.132H17.5279V132.839H19.3545V135.132ZM22.5803 148.268H20.7536V145.975H22.5803V148.268ZM22.5803 145.12H20.7536V135.831H22.5803V145.12ZM22.5803 135.132H20.7536V132.839H22.5803V135.132ZM25.8449 148.268H24.0183V145.975H25.8449V148.268ZM25.8449 145.12H24.0183V135.831H25.8449V145.12ZM25.8449 135.132H24.0183V132.839H25.8449V135.132ZM29.0707 148.268H27.3218V145.975H29.0707V148.268ZM29.0707 145.12H27.3218V135.831H29.0707V145.12ZM29.0707 135.132H27.3218V132.839H29.0707V135.132ZM46.4431 173.413C45.9477 173.404 45.4746 173.205 45.1206 172.859C44.7666 172.512 44.5585 172.043 44.5387 171.548C44.5487 171.046 44.7525 170.567 45.1075 170.212C45.4625 169.857 45.9412 169.653 46.4431 169.644C46.9585 169.644 47.4527 169.848 47.8172 170.213C48.1816 170.577 48.3863 171.071 48.3863 171.587C48.3863 172.102 48.1816 172.596 47.8172 172.961C47.4527 173.325 46.9585 173.53 46.4431 173.53V173.413ZM46.4431 165.407C45.9277 165.407 45.4335 165.203 45.069 164.838C44.7046 164.474 44.4999 163.979 44.4999 163.464C44.4999 162.949 44.7046 162.454 45.069 162.09C45.4335 161.726 45.9277 161.521 46.4431 161.521C46.9585 161.521 47.4527 161.726 47.8172 162.09C48.1816 162.454 48.3863 162.949 48.3863 163.464C48.3863 163.979 48.1816 164.474 47.8172 164.838C47.4527 165.203 46.9585 165.407 46.4431 165.407Z" fill="#F5F5F5"/>
<path d="M11.0752 199.724L13.6402 206.992C13.6402 207.497 14.0677 208.002 14.2621 208.547L14.6118 209.518C15.2725 211.151 15.8944 212.783 16.6328 214.376C16.9834 215.057 17.5819 215.578 18.3049 215.831C19.0279 216.084 19.8204 216.05 20.5193 215.737C27.8647 212.589 35.2101 209.402 42.5554 206.292C44.01 205.79 45.2568 204.819 46.1007 203.532C46.9446 202.245 47.338 200.715 47.2192 199.18C47.1252 198.285 47.3451 197.384 47.8413 196.633C48.3375 195.882 49.0792 195.326 49.9397 195.061C56.0414 192.612 62.1043 190.086 68.1672 187.599C69.6926 186.785 71.4177 186.421 73.1418 186.549C73.6406 186.664 74.1588 186.664 74.6576 186.549C82.1584 183.751 89.6204 180.914 97.1213 178.155C97.732 177.926 98.2327 177.473 98.5215 176.888C98.8103 176.303 98.8655 175.631 98.6758 175.007C98.4115 174.424 97.9328 173.966 97.3393 173.727C96.7458 173.488 96.0832 173.487 95.4889 173.724L72.8698 182.235C72.4871 182.376 72.1415 182.602 71.8593 182.896C71.0357 183.921 69.9266 184.678 68.6724 185.072L62.5318 187.171C57.9069 188.765 53.2432 190.319 48.6572 191.951C47.8093 192.138 46.9254 192.076 46.1119 191.773C45.2984 191.47 44.5897 190.938 44.0712 190.241C43.2075 189.057 41.9824 188.186 40.5805 187.758C39.1786 187.331 37.6758 187.37 36.2983 187.871L12.9795 195.372C12.5459 195.5 12.1455 195.722 11.8065 196.022C11.4675 196.321 11.1979 196.691 11.0166 197.106C10.8352 197.52 10.7465 197.969 10.7566 198.422C10.7668 198.874 10.8755 199.318 11.0752 199.724ZM92.4964 176.172C92.8807 175.731 93.372 175.395 93.9232 175.198C94.4744 175.001 95.0671 174.948 95.6444 175.045C95.8454 175.084 96.0322 175.177 96.1844 175.314C96.3367 175.451 96.4489 175.626 96.5088 175.822C96.5687 176.018 96.5742 176.226 96.5246 176.425C96.475 176.624 96.3723 176.805 96.2274 176.95C95.8291 177.412 95.3035 177.747 94.716 177.913C94.1285 178.079 93.5053 178.068 92.9239 177.882C92.1466 177.533 91.9911 176.95 92.4964 176.172ZM41.3507 200.813C41.6666 200.618 42.0429 200.547 42.4081 200.611C42.7734 200.675 43.1024 200.872 43.3327 201.162C43.6044 201.441 43.7779 201.8 43.827 202.186C43.8761 202.571 43.7981 202.962 43.6048 203.3C43.3036 203.591 42.9636 203.84 42.5943 204.038L22.7345 212.161C22.4517 212.334 22.1279 212.428 21.7966 212.434C21.4653 212.44 21.1383 212.357 20.8494 212.195C20.5605 212.033 20.32 211.796 20.1527 211.51C19.9854 211.224 19.8972 210.899 19.8974 210.568C19.8412 210.169 19.9273 209.764 20.1406 209.422C20.3538 209.081 20.6806 208.826 21.0634 208.702L41.3507 200.813ZM41.3507 195.721C41.6086 196.016 41.7694 196.383 41.8112 196.773C41.8529 197.162 41.7735 197.555 41.5838 197.898C41.2632 198.161 40.9106 198.383 40.5345 198.558L20.4804 206.331C20.1938 206.488 19.871 206.566 19.5445 206.559C19.218 206.552 18.8992 206.459 18.6198 206.29C18.3404 206.121 18.1104 205.881 17.9527 205.595C17.795 205.309 17.7151 204.987 17.721 204.66C17.6667 204.267 17.7541 203.867 17.9678 203.532C18.1814 203.198 18.5073 202.95 18.8869 202.834L39.3297 195.372C39.6635 195.169 40.0588 195.093 40.4439 195.158C40.8289 195.222 41.1782 195.422 41.4284 195.721H41.3507ZM17.0603 196.848L33.6555 191.291C34.938 190.824 36.2594 190.358 37.5419 189.969C37.9544 189.911 38.3731 189.911 38.7856 189.969C39.1007 190.114 39.3694 190.343 39.5616 190.631C39.7538 190.919 39.8619 191.255 39.8738 191.602C39.8978 191.971 39.7955 192.338 39.5836 192.642C39.3717 192.945 39.0629 193.168 38.7079 193.273L26.6598 197.587L18.2262 200.541C17.9855 200.666 17.7192 200.735 17.4477 200.743C17.1762 200.75 16.9066 200.695 16.6594 200.583C16.4121 200.471 16.1937 200.303 16.0208 200.094C15.8478 199.885 15.7249 199.639 15.6612 199.375C15.5506 199.113 15.5025 198.829 15.5209 198.546C15.5392 198.262 15.6234 197.987 15.7668 197.742C15.9101 197.496 16.1087 197.288 16.3468 197.133C16.5848 196.978 16.8558 196.88 17.138 196.848H17.0603Z" fill="#F5F5F5"/>
</svg>
