<svg width="151" height="151" viewBox="0 0 151 151" fill="none" xmlns="http://www.w3.org/2000/svg">
<g clip-path="url(#clip0_64_66)">
<path d="M90.4913 41.2052C92.1431 41.2721 93.4488 41.3815 94.7513 41.3701C102.584 41.2901 110.423 40.9278 118.243 41.1922C122.374 41.3309 126.495 42.4212 130.572 43.3042C133.642 43.9684 135.772 46.1245 137.417 48.6837C138.953 51.0699 140.357 53.5459 141.754 56.0186C144.333 60.5854 145.531 65.5667 145.797 70.752C146.262 79.8007 146.623 88.8542 146.987 97.9077C147.068 99.9479 147.362 101.611 148.944 103.341C151.222 105.832 151.135 109.364 150.858 112.609C150.705 114.391 149.169 114.725 147.507 114.789C143.344 114.949 139.185 115.272 134.971 115.533C131.176 124.04 123.994 125.973 116.018 125.471C108.487 124.997 104.838 119.717 102.839 112.455C82.4057 113.149 61.8944 112.078 41.0927 114.073C37.3208 121.714 30.9815 124.691 22.4927 123.098C15.8613 121.855 12.3293 117.435 10.6743 111.153C8.2881 111.409 6.03083 111.538 3.81927 111.923C1.72522 112.289 0.76062 111.216 0.272607 109.494C0.0196236 108.603 -0.0113872 107.624 3.78392e-05 106.685C0.210585 88.8297 0.492947 70.9724 0.641473 53.115C0.696966 46.5032 0.45704 39.8897 0.336261 33.2779C0.306882 31.6571 0.17631 30.038 0.174678 28.4157C0.173046 26.7036 1.55221 25.4843 2.74695 26.1372C6.38338 28.1235 10.1993 27.2683 13.8766 27.2471C35.2333 27.1214 56.5883 26.7917 77.9434 26.4473C81.0281 26.3984 84.1194 25.9838 87.1846 25.5676C89.5888 25.2428 90.462 25.5415 90.7672 27.9652C91.0528 30.2225 90.8765 32.5434 90.8227 34.8333C90.7819 36.8294 90.6219 38.8272 90.4913 41.2052ZM11.2194 100.428C12.1367 99.1008 13.2335 97.862 13.9288 96.4258C15.2313 93.7327 17.3563 92.3454 20.1865 91.8361C22.3115 91.4559 24.4268 90.9172 26.5682 90.7459C33.4183 90.1991 38.3915 93.279 41.0356 99.5383C41.4485 100.514 41.8141 101.508 42.2793 102.696L86.0617 101.26L85.8985 81.8376C83.1695 81.6646 80.8812 81.361 78.5979 81.3986C66.1609 81.6075 53.7223 81.805 41.2902 82.1918C31.5593 82.4954 21.8382 83.0715 12.1139 83.5187C9.44203 83.6411 6.75877 83.6819 3.96453 85.5622L18.6049 84.7575L18.68 85.6013C17.9455 85.7237 17.2143 85.8592 16.4782 85.9669C12.8728 86.4925 9.2527 86.9332 5.66523 87.5632C3.42429 87.9549 3.00156 89.414 3.83559 91.6974L15.0354 91.6044L15.1056 92.3111L3.58261 94.1832L4.03635 98.6096C6.09938 98.6863 7.83925 98.763 9.58076 98.8087C10.7151 98.8413 11.3516 99.3342 11.3125 100.527L4.00207 100.589L4.03798 104.893L10.2548 104.841L11.2194 100.428ZM3.66748 80.8322C10.9958 80.54 17.8443 80.2054 24.6977 80.0145C31.5838 79.8219 38.4747 79.8284 45.3624 79.6424C52.2337 79.4579 59.1067 79.2294 65.9715 78.8606C72.7417 78.4966 79.5527 78.6255 86.4518 77.9547L86.9724 54.4044C81.7985 54.4469 77.1093 54.6394 72.4283 54.4991C53.528 53.9327 34.6375 54.0094 15.7536 54.9642C12.5219 55.1291 9.28697 55.3298 6.06674 55.6595C3.97759 55.875 3.88945 57.1595 4.73001 59.0593L17.6256 58.9516L17.6517 59.4722L4.0086 61.0309L4.05593 66.768L17.5424 67.0144L17.5114 67.5432C13.0001 68.0068 8.48722 68.4687 3.99064 68.9273L4.02492 73.0991L17.0919 72.9913L17.1099 73.4271L3.85844 75.4689L3.66748 80.8322ZM4.07715 30.9341C3.65442 33.5031 4.21262 34.5509 6.27076 34.4481C7.48345 34.3877 8.70593 34.5036 9.92188 34.4987C12.9169 34.4873 15.9119 34.4546 18.9069 34.4285L18.9738 34.8529L4.08531 36.6042L4.43296 41.2003L15.4777 41.1073L15.5479 41.9511L4.21425 43.3646L4.47866 47.5478C9.0144 47.298 13.0915 47.0712 17.1703 46.8443L17.247 47.6196L2.97708 49.5324C4.29259 50.8333 4.78224 51.7424 5.42367 51.8681C7.1309 52.2026 8.90831 52.3479 10.6514 52.3022C19.6952 52.0606 28.7357 51.6428 37.7811 51.4665C46.2943 51.3017 54.8419 50.9035 63.3177 51.4682C70.3783 51.9366 77.3346 51.6265 84.3251 51.0487C85.2064 50.9753 86.0617 50.5623 87.0393 50.2718C87.0442 43.3695 87.5975 36.6793 86.9414 30.2388L4.07715 30.9341ZM96.5058 45.093C96.4013 46.8639 96.2822 47.9248 96.2838 48.9857C96.3034 64.9432 96.3654 80.9024 96.3557 96.8583C96.3524 104.595 96.5988 102.976 90.1404 104.603L89.7797 108.46L102.243 108.357C102.548 107.157 102.742 106.382 102.943 105.608C105.111 97.2712 108.776 93.0244 117.885 91.0331C126.919 89.0599 136.028 95.6244 136.382 105.453C136.449 107.317 136.42 109.184 136.438 111.264C140.076 111.706 143.482 111.691 146.68 110.278C147.36 107.309 146.407 105.336 144.023 104.557C143.499 93.9514 142.89 83.708 142.518 73.4549C142.24 65.7658 139.487 58.9646 135.478 52.6123C133.2 49.0036 130.304 45.9923 125.571 45.7083C123.701 45.5957 121.843 45.0897 119.975 45.0653C113.756 44.9853 107.539 45.0424 101.319 45.0522C99.8484 45.0555 98.3763 45.0767 96.5058 45.093ZM132.829 106.532C132.793 100.364 129.028 96.4519 124.791 94.8834C119.756 93.0178 114.584 94.2044 111.003 98.0856C105.037 104.549 104.995 112.703 110.467 119.366C111.267 120.342 112.592 120.97 113.784 121.518C117.619 123.284 121.422 121.943 125.206 121.185C128.312 120.564 130.118 118.398 130.923 115.533C131.75 112.587 132.211 109.537 132.829 106.532ZM38.4062 106.842C38.0895 104.859 38.0618 102.773 37.3959 100.914C35.7686 96.3637 32.2823 93.8845 27.4218 94.2207C22.6135 94.5537 17.7268 94.9715 15.4957 100.676C12.5921 108.107 14.7841 115.945 21.4808 118.961C27.8347 121.824 32.1616 120.423 35.7931 115.675C37.7892 113.069 38.2821 110.059 38.4062 106.842ZM42.4506 109.623L85.9034 109.259L85.8675 104.836C84.8212 104.846 84.0329 104.838 83.2446 104.861C71.2434 105.223 59.2406 105.576 47.2394 105.971C46.0381 106.01 44.8336 106.264 43.6519 106.514C42.0295 106.858 41.9479 107.986 42.4506 109.623ZM90.7623 100.283L91.7171 100.402C92.0321 99.7341 92.5511 99.0894 92.6262 98.3958C92.8857 95.9818 93.1273 93.5532 93.1354 91.1311C93.164 79.1163 93.1542 67.1014 93.106 55.0867C93.0911 52.384 93.0018 49.6824 92.8384 46.9847C92.7633 45.7181 92.1496 44.9624 90.364 45.7785C90.3787 62.9993 88.5605 80.3279 90.1045 97.6972C90.1829 98.5704 90.5354 99.4208 90.7623 100.283ZM10.356 108.345C10.2581 107.74 10.1961 107.01 10.1308 107.01C8.2783 107 6.42581 107.064 4.57332 107.115L4.6076 107.741L10.356 108.345Z" fill="#8BC43F"/>
<path d="M101.954 64.3312C101.92 60.2867 101.908 56.2439 101.848 52.2011C101.791 48.4275 102.411 47.7159 106.197 47.7649C112.666 47.8514 119.142 47.8693 125.596 48.2431C127.308 48.3443 129.31 49.2567 130.564 50.4481C137.644 57.1677 140.04 65.8393 140.21 75.2829C140.277 79.0499 139.647 79.6832 135.705 79.8121C131.662 79.9427 127.605 79.9705 123.567 79.7811C117.239 79.4857 110.929 78.9063 104.621 80.1222C102.558 80.5189 101.921 79.7517 101.882 77.2627C101.817 72.9522 101.802 68.6417 101.766 64.3312H101.954ZM136.99 75.6371C136.977 74.16 137.034 72.9702 136.947 71.7917C136.489 65.57 134.225 60.1447 130.337 55.1977C128.471 52.8245 126.469 51.6347 123.603 51.5074C119.826 51.3376 116.051 51.1059 112.274 50.9329C110.002 50.83 107.748 50.8855 105.935 51.8648C105.77 56.1231 105.481 60.0256 105.51 63.9264C105.541 67.8779 105.184 71.8864 106.153 76.3438C116.413 74.9353 126.368 77.785 136.99 75.6371ZM107.795 82.701L109.153 85.9637C106.948 87.0834 104.911 86.5121 102.984 86.3701C102.46 86.3326 101.768 85.0383 101.662 84.2516C101.605 83.8207 102.556 82.9002 103.147 82.8088C104.591 82.5835 106.091 82.7141 107.795 82.701ZM119.878 112.675C118.008 112.819 116.677 111.879 115.803 109.84C115.058 108.107 115.692 106.938 116.805 105.868C118.827 103.927 124.205 105.509 124.954 108.215C125.649 110.717 123.622 112.605 119.878 112.675ZM26.0573 111.848C23.3185 111.868 22.0259 110.549 21.8969 107.606C21.7974 105.323 23.9208 103.534 26.7803 103.496C29.2155 103.462 30.8884 105.106 30.8117 107.456C30.7236 110.044 28.7911 111.828 26.0573 111.848Z" fill="#F16E20"/>
</g>
<defs>
<clipPath id="clip0_64_66">
<rect width="151" height="151" fill="white"/>
</clipPath>
</defs>
</svg>
