<svg width="150" height="150" viewBox="0 0 150 150" fill="none" xmlns="http://www.w3.org/2000/svg">
<path d="M24.8648 141.127H64.3265C67.7039 144.217 72.1381 145.895 76.7156 145.814C86.7187 145.512 131.676 150.853 139.073 139.955C150.066 132.755 138.881 67.0687 140.379 56.3695C140.932 43.8562 104.17 51.8672 98.0038 49.7203C95.9671 39.9398 102.354 17.5383 84.6679 21.5953C83.2101 -2.44924 52.8257 -2.01565 50.7538 21.5953C45.9351 21.6187 37.9359 20.3601 37.5023 27.2109L35.3718 66.1265C30.1218 67.5375 8.79134 61.9875 8.85931 71.7398C10.9359 88.4719 -6.07741 141.792 24.8648 141.127ZM133.357 54.4078C133.956 54.4081 134.533 54.6381 134.968 55.0505C135.403 55.4629 135.664 56.0264 135.696 56.625C133.376 65.8922 142.437 104.529 138.823 126.213C137.254 124.874 135.581 123.662 133.819 122.59C133.501 122.415 133.135 122.348 132.776 122.398C132.417 122.449 132.084 122.615 131.827 122.872C131.571 123.128 131.405 123.461 131.354 123.821C131.303 124.18 131.37 124.546 131.545 124.863C133.223 127.205 135.37 129.172 137.85 130.638C137.616 131.435 137.362 132.199 137.076 132.919C133.943 130.458 130.842 127.962 127.896 125.273C127.261 124.772 126.52 123.886 125.646 123.987C120.668 125.135 133.723 135.056 135.56 135.881C135.202 136.458 134.801 137.006 134.36 137.522C132.478 135.698 130.363 134.132 128.069 132.865C127.907 132.82 127.735 132.826 127.575 132.88C127.416 132.934 127.276 133.035 127.174 133.17C126.703 133.859 127.364 134.644 127.758 135.216C129.07 136.723 130.233 138.429 131.676 139.809C129.576 141.055 127.154 141.651 124.716 141.523C120.492 141.016 60.4359 151.385 62.6742 126.298L66.4781 56.6226C66.511 56.0245 66.7718 55.4616 67.2068 55.0497C67.6418 54.6378 68.218 54.4081 68.8171 54.4078H133.357ZM56.0507 17.2969C60.6468 0.892949 80.6367 5.23123 80.5101 21.5929H55.2656C55.3958 20.1398 55.6571 18.7017 56.0507 17.2969ZM40.3546 60.8344C41.7272 59.3962 43.2375 58.0962 44.864 56.9531C44.9917 56.8184 45.0723 56.646 45.0937 56.4617C45.115 56.2773 45.076 56.091 44.9826 55.9307C44.8891 55.7704 44.7461 55.6447 44.5751 55.5726C44.4042 55.5004 44.2144 55.4856 44.0343 55.5305C42.6491 56.0613 41.4301 56.9511 40.5023 58.1086L42.1781 27.4804C42.157 25.3804 46.9992 26.5781 48.1124 26.2804H50.5312C50.5663 27.8462 50.7025 29.408 50.939 30.9562C49.9312 31.2937 48.4546 32.0484 48.7429 33.3117C48.8239 33.5878 48.9912 33.8306 49.2202 34.0048C49.4492 34.179 49.7279 34.2753 50.0156 34.2797C51.5437 34.3875 53.0015 33.7969 54.5296 33.7523C56.2972 33.915 58.0687 33.4863 59.5663 32.5336C61.2304 29.9648 56.5429 29.414 54.8929 29.932C54.9562 28.7133 54.982 27.4969 55.0101 26.2804H80.4679C80.2956 27.801 80.476 29.3409 80.9952 30.7804C79.3734 30.8062 76.4413 31.8234 78.2577 33.4172C80.3957 34.0427 82.6318 34.2629 84.8507 34.0664C89.0952 34.3898 89.2804 30.0586 84.8788 30.4875C85.2187 29.1703 84.396 27.7078 84.614 26.2804H85.6124C86.7445 26.6203 92.0999 25.3265 92.0859 27.464L93.307 49.7179C77.9906 51.6703 58.7929 41.6086 61.2632 66.1242H50.1656C51.201 65.3607 52.1772 64.5201 53.0859 63.6094C53.3001 63.3919 53.4281 63.104 53.4462 62.7993C53.4643 62.4946 53.3713 62.1936 53.1843 61.9523C52.9969 61.7119 52.7295 61.5467 52.4306 61.4865C52.1318 61.4263 51.8213 61.4751 51.5554 61.6242C49.2 62.7406 47.0601 64.2639 45.2343 66.1242H41.7562C44.9321 63.798 47.9002 61.2008 50.6273 58.3617C50.7968 58.1846 50.8979 57.9531 50.9125 57.7084C50.9271 57.4637 50.8543 57.2217 50.707 57.0258C50.557 56.8306 50.3411 56.6966 50.0997 56.6487C49.8582 56.6009 49.6076 56.6424 49.3945 56.7656C46.1411 59.23 43.0495 61.9012 40.139 64.7625L40.3546 60.8344ZM10.821 121.615C17.3976 59.693 -3.6446 71.7164 61.0101 70.814C61.5984 78.825 54.9632 130.312 60.4874 136.439C48.0538 134.37 9.15228 144.403 10.821 121.615Z" fill="#8BC43F"/>
<path d="M77.6319 73.9077C78.5459 74.3531 79.5725 73.8796 80.5287 73.8187C82.6076 111.6 122.001 107.519 125.271 72.8249C125.802 72.8528 126.324 72.6721 126.724 72.3213C127.124 71.9706 127.371 71.4774 127.413 70.9469C127.455 70.4165 127.288 69.8906 126.948 69.4814C126.608 69.0722 126.121 68.812 125.592 68.7562C124.189 68.6552 122.778 68.7778 121.413 69.1195C121.183 69.1857 120.971 69.3032 120.793 69.4631C120.616 69.6231 120.476 69.8213 120.386 70.0428C120.296 70.2644 120.257 70.5035 120.272 70.7422C120.288 70.9809 120.357 71.213 120.476 71.421C120.759 71.7451 121.105 72.0086 121.493 72.1955C121.881 72.3823 122.303 72.4888 122.733 72.5085C121.975 77.7207 119.635 82.5746 116.03 86.414C100.373 105.316 86.3811 93.5859 82.4998 73.5304C83.2092 73.4887 83.9049 73.318 84.5529 73.0265C84.851 72.8422 85.0815 72.5665 85.2102 72.2406C85.3389 71.9147 85.3589 71.5559 85.2672 71.2177C85.1755 70.8795 84.9771 70.5799 84.7014 70.3636C84.4258 70.1473 84.0876 70.0257 83.7373 70.0171C81.809 70.2511 79.8957 70.5954 78.0069 71.0484C77.714 71.1348 77.4525 71.3044 77.2542 71.5365C77.0558 71.7686 76.9291 72.0533 76.8894 72.3561C76.8497 72.6588 76.8987 72.9666 77.0305 73.242C77.1623 73.5175 77.3712 73.7487 77.6319 73.9077ZM23.0295 85.9148C23.5315 86.0688 24.0516 86.1563 24.5764 86.1749C23.1139 89.0952 25.535 93.8156 26.9623 96.1945C29.1936 100.476 33.8764 102.007 38.3975 102.312C47.8029 104.719 54.9772 95.3859 53.7608 86.5616C54.6795 86.2312 56.0436 85.6241 55.8819 84.4382C55.8484 84.1722 55.7371 83.9219 55.562 83.7189C55.3869 83.5158 55.1557 83.369 54.8975 83.2968C53.0964 82.9662 51.2437 83.0479 49.4787 83.5359C44.5194 84.239 47.1701 86.6577 50.5522 86.6765C50.3045 89.9057 49.4706 93.0627 48.0912 95.9929C47.1635 97.4212 45.815 98.5262 44.2322 99.1551C42.6494 99.784 40.9103 99.9059 39.2553 99.5038C35.9917 99.2486 32.9449 97.77 30.7249 95.364C28.505 92.9581 27.2758 89.8024 27.2834 86.5288C28.1501 86.6496 29.0332 86.5513 29.8522 86.2429C30.1326 86.1567 30.3824 85.9916 30.5717 85.7674C30.761 85.5432 30.8819 85.2694 30.9199 84.9784C30.9579 84.6875 30.9115 84.3917 30.7862 84.1264C30.6609 83.8611 30.462 83.6374 30.2131 83.482C29.0424 82.9173 27.7572 82.6306 26.4576 82.644C25.1579 82.6574 23.8789 82.9707 22.7201 83.5593C22.5078 83.692 22.338 83.8829 22.2311 84.1094C22.1243 84.3358 22.0848 84.5882 22.1174 84.8365C22.15 85.0848 22.2533 85.3185 22.4151 85.5096C22.5768 85.7008 22.7901 85.8415 23.0295 85.9148ZM19.3311 126.907C20.9084 128.102 23.9319 129.607 25.624 127.896C27.0631 126.066 24.8553 124.87 23.2381 124.626C18.0069 122.836 17.592 115.481 18.8365 110.932C18.8972 110.707 18.8826 110.469 18.7949 110.254C18.7073 110.038 18.5515 109.857 18.3514 109.739C15.9936 108.534 15.3701 113.067 15.1123 114.476C14.619 116.736 14.7511 119.087 15.4944 121.278C16.2377 123.468 17.5642 125.414 19.3311 126.907ZM29.5944 128.473C29.9772 128.845 30.4912 129.051 31.0251 129.047C31.559 129.044 32.07 128.83 32.4476 128.452C32.8251 128.075 33.0389 127.564 33.0427 127.03C33.0465 126.496 32.84 125.982 32.4678 125.599C32.0849 125.227 31.571 125.02 31.037 125.024C30.5031 125.028 29.9921 125.242 29.6146 125.619C29.237 125.997 29.0232 126.508 29.0195 127.042C29.0157 127.576 29.2222 128.09 29.5944 128.473ZM136.615 124.502L136.734 124.596C136.657 124.523 136.544 124.444 136.615 124.502ZM68.8545 126.75C69.4811 128.761 70.8484 130.459 72.6795 131.501C73.7404 132.055 74.9136 132.361 76.1103 132.396C77.307 132.43 78.4958 132.191 79.5865 131.698C79.8162 131.56 80.0063 131.366 80.1383 131.133C80.2703 130.9 80.3397 130.637 80.3397 130.37C80.3397 130.102 80.2703 129.839 80.1383 129.607C80.0063 129.374 79.8162 129.179 79.5865 129.042C77.9295 128.222 76.0615 128.548 74.3576 127.887C71.1115 126.48 70.9826 122.323 70.9311 119.276C70.9027 117.117 71.0123 114.959 71.2592 112.814C71.3576 111.944 69.9561 111.783 69.7475 112.61C68.7819 117.187 67.4975 122.133 68.8569 126.748L68.8545 126.75ZM84.1944 133.305C84.6537 133.759 85.2741 134.013 85.9199 134.011C86.5658 134.01 87.1847 133.752 87.6414 133.295C88.0981 132.839 88.3555 132.22 88.3574 131.574C88.3592 130.928 88.1054 130.308 87.6514 129.848C87.192 129.394 86.5717 129.141 85.9258 129.142C85.2799 129.144 84.661 129.402 84.2043 129.858C83.7476 130.315 83.4902 130.934 83.4884 131.58C83.4865 132.226 83.7403 132.846 84.1944 133.305Z" fill="#F16E20"/>
</svg>
