<svg width="151" height="151" viewBox="0 0 151 151" fill="none" xmlns="http://www.w3.org/2000/svg">
<path d="M149.722 15.9042L112.989 6.28299L112.557 6.61605L112.126 6.28299L75.602 15.8526L39.0781 6.28299L38.9913 6.35101C38.6817 6.24312 38.3487 6.19386 38.0039 6.28299L1.2736 15.9065L0 17.5577V143.058L2.13908 144.707L38.5434 135.17L74.9453 144.707C75.0907 144.744 75.2361 144.763 75.3792 144.763C75.6349 144.763 75.8741 144.688 76.0993 144.58L76.2635 144.707L112.562 135.198L148.861 144.707L151 143.058V17.5554L149.722 15.9042ZM147.583 140.846L114.263 132.116V98.6506C114.263 98.1983 114.083 97.7646 113.763 97.4448C113.443 97.125 113.01 96.9454 112.557 96.9454C112.105 96.9454 111.672 97.125 111.352 97.4448C111.032 97.7646 110.852 98.1983 110.852 98.6506V132.118L77.5324 140.848V94.6421C77.5324 93.6992 76.7701 92.937 75.8272 92.937C75.6032 92.9367 75.3814 92.9807 75.1744 93.0663C74.9674 93.1519 74.7793 93.2775 74.6209 93.4359C74.4626 93.5943 74.337 93.7823 74.2514 93.9893C74.1657 94.1963 74.1218 94.4181 74.122 94.6421V140.965L40.3517 132.116V40.5107C40.3517 40.0584 40.1721 39.6247 39.8523 39.3049C39.5325 38.9851 39.0988 38.8055 38.6466 38.8055C38.1943 38.8055 37.7606 38.9851 37.4408 39.3049C37.121 39.6247 36.9414 40.0584 36.9414 40.5107V132.062L3.41034 140.846V18.8689L36.9414 10.085V26.874C36.9414 27.8169 37.7037 28.5768 38.6466 28.5768C39.5894 28.5768 40.3517 27.8146 40.3517 26.874V10.139L74.122 18.9861V69.0763C74.1221 69.3001 74.1663 69.5217 74.252 69.7284C74.3378 69.9351 74.4634 70.1229 74.6218 70.2811C74.7801 70.4392 74.9681 70.5646 75.1749 70.65C75.3818 70.7355 75.6034 70.7794 75.8272 70.7792C76.7701 70.7792 77.5324 70.0169 77.5324 69.0763V18.8689L110.852 10.139V46.2243C110.852 47.1671 111.615 47.9294 112.557 47.9294C113.5 47.9294 114.263 47.1671 114.263 46.2243V10.1413L147.583 18.8712V140.846Z" fill="#8BC43F"/>
<path d="M132.243 103.71C134.748 100.766 137.251 97.8203 139.756 94.8767C141.17 93.2138 138.768 90.7909 137.345 92.4656L129.942 101.167C127.447 98.4043 124.949 95.6413 122.451 92.8784C120.975 91.2459 118.571 93.6641 120.04 95.2895C122.599 98.1205 125.16 100.952 127.719 103.785L120.865 111.842C119.451 113.502 121.853 115.927 123.276 114.253C125.523 111.612 127.768 108.971 130.015 106.33C132.581 109.168 135.147 112.008 137.715 114.846C139.191 116.479 141.595 114.06 140.126 112.435C137.499 109.524 134.872 106.618 132.243 103.71ZM77.6028 78.4231C76.3081 79.9923 75.0345 81.5778 73.7609 83.161L73.2988 83.7357C73.0991 83.9845 73.0065 84.3024 73.0412 84.6196C73.076 84.9367 73.2353 85.2271 73.4841 85.4268C73.7329 85.6264 74.0509 85.7191 74.368 85.6843C74.6852 85.6496 74.9755 85.4903 75.1752 85.2415L75.6349 84.6692C76.9015 83.093 78.1704 81.5145 79.458 79.9547C79.6608 79.7086 79.7576 79.392 79.7272 79.0746C79.6969 78.7571 79.5419 78.4646 79.2962 78.2613C79.0498 78.059 78.7334 77.9625 78.4161 77.9928C78.0988 78.0232 77.8064 78.1779 77.6028 78.4231ZM83.0419 75.7329C84.3497 74.2453 85.7038 72.799 87.102 71.3961C87.5734 70.927 87.5734 70.1647 87.102 69.6956C86.6329 69.2241 85.8706 69.2241 85.4015 69.6956C83.969 71.133 82.5814 72.6145 81.2406 74.1379L80.7012 74.7501C80.4917 74.9908 80.3862 75.3046 80.4078 75.6229C80.4293 75.9412 80.5761 76.238 80.8161 76.4482C81.0459 76.6476 81.325 76.7438 81.6088 76.7438C81.9443 76.7438 82.2773 76.603 82.5142 76.331L83.0419 75.7329ZM70.3036 87.4368C68.8705 89.1842 67.4163 90.9152 65.9176 92.5993C65.7637 92.7727 65.6633 92.9869 65.6284 93.216C65.5934 93.4452 65.6255 93.6796 65.7206 93.891C65.8158 94.1024 65.97 94.2818 66.1647 94.4075C66.3595 94.5333 66.5864 94.6001 66.8182 94.5999C67.1489 94.5999 67.4796 94.4639 67.7189 94.1965C69.2364 92.489 70.7094 90.7369 72.1659 88.9661C72.3687 88.7191 72.4651 88.4017 72.4339 88.0837C72.4026 87.7657 72.2464 87.4731 71.9994 87.2703C71.7524 87.0675 71.435 86.9711 71.117 87.0024C70.799 87.0336 70.5064 87.1899 70.3036 87.4368ZM62.7089 96.0518C61.107 97.6936 59.566 99.1432 58.0039 100.478C58.0039 100.478 57.8209 100.633 57.8186 100.633C57.6307 100.792 57.4962 101.005 57.4332 101.243C57.3703 101.481 57.3819 101.732 57.4666 101.964C57.5513 102.195 57.7049 102.395 57.9067 102.536C58.1085 102.677 58.3487 102.753 58.595 102.753C58.8717 102.753 59.1461 102.659 59.3736 102.469L59.5589 102.312C61.1844 100.921 62.7769 99.4223 64.4305 97.7288C64.6533 97.5007 64.7765 97.1935 64.773 96.8747C64.7695 96.5559 64.6396 96.2515 64.4118 96.0284C64.1818 95.8077 63.8742 95.6865 63.5555 95.6909C63.2369 95.6953 62.9327 95.8249 62.7089 96.0518ZM134.389 89.4258C134.659 89.5964 134.984 89.6535 135.296 89.5845C135.607 89.5155 135.878 89.326 136.05 89.0576C136.448 88.4362 136.659 87.7129 136.655 86.9748C136.655 86.2406 136.449 85.4737 136.062 84.7583C135.743 84.1766 135.011 83.9585 134.429 84.2775C133.847 84.5965 133.629 85.3259 133.948 85.9099C134.148 86.2735 134.251 86.6417 134.251 86.9748C134.251 87.2633 134.176 87.5213 134.021 87.7652C133.936 87.8983 133.878 88.0469 133.85 88.2026C133.822 88.3582 133.826 88.5177 133.86 88.672C133.894 88.8264 133.959 88.9724 134.049 89.1017C134.14 89.2311 134.256 89.3412 134.389 89.4258ZM123.687 85.4385C123.764 85.5764 123.868 85.6977 123.992 85.7955C124.116 85.8932 124.258 85.9655 124.41 86.0082C124.562 86.051 124.721 86.0632 124.878 86.0443C125.035 86.0255 125.186 85.9758 125.324 85.8982C127.046 84.9342 129.072 83.8881 131.056 84.05C131.214 84.0632 131.373 84.045 131.523 83.9965C131.674 83.9481 131.814 83.8702 131.934 83.7675C132.054 83.6648 132.153 83.5392 132.225 83.3981C132.296 83.257 132.339 83.1031 132.351 82.9452C132.364 82.7878 132.345 82.6294 132.297 82.4791C132.248 82.3288 132.171 82.1896 132.068 82.0693C131.966 81.9491 131.841 81.8502 131.7 81.7783C131.56 81.7065 131.406 81.663 131.249 81.6505C128.669 81.4418 126.323 82.5793 124.149 83.8013C123.871 83.9572 123.666 84.2173 123.579 84.5243C123.492 84.8313 123.531 85.1601 123.687 85.4385ZM94.38 62.0587C92.5716 63.3252 90.7398 64.7771 88.9291 66.372C88.6904 66.5835 88.5452 66.881 88.5254 67.1993C88.5057 67.5176 88.6129 67.8308 88.8236 68.0702C89.0605 68.3399 89.3912 68.4759 89.7266 68.4759C90.02 68.4761 90.3035 68.3693 90.524 68.1757C92.262 66.6394 94.0258 65.2439 95.7615 64.0289C95.8909 63.9383 96.0011 63.8231 96.0858 63.6898C96.1706 63.5566 96.2282 63.4079 96.2555 63.2524C96.2827 63.0968 96.279 62.9374 96.2445 62.7833C96.2101 62.6292 96.1456 62.4834 96.0547 62.3542C95.9643 62.2246 95.8493 62.1141 95.7161 62.0291C95.5829 61.9441 95.4343 61.8862 95.2787 61.8587C95.1231 61.8313 94.9637 61.8348 94.8094 61.8691C94.6552 61.9034 94.5093 61.9678 94.38 62.0587ZM118.93 60.9422C118.93 62.1877 118.463 63.7005 117.577 65.3166C117.476 65.4997 117.425 65.7059 117.429 65.9148C117.432 66.1237 117.49 66.3281 117.597 66.5078C117.703 66.6875 117.855 66.8363 118.036 66.9396C118.218 67.0429 118.423 67.0971 118.632 67.0968C118.848 67.0971 119.06 67.0393 119.246 66.9295C119.431 66.8197 119.584 66.662 119.688 66.4729C120.783 64.4769 121.337 62.6146 121.337 60.9422C121.337 60.2691 121.245 59.6217 121.062 59.0213C121.017 58.8698 120.942 58.7288 120.842 58.6064C120.741 58.4841 120.618 58.3827 120.478 58.3081C120.339 58.2336 120.186 58.1874 120.029 58.1721C119.871 58.1568 119.712 58.1728 119.561 58.2191C119.256 58.3122 119 58.5224 118.85 58.8038C118.699 59.0852 118.667 59.4148 118.759 59.7202C118.874 60.0955 118.93 60.506 118.93 60.9422ZM110.015 91.8417C109.426 92.1114 108.985 92.2216 108.554 92.1466C107.367 91.9613 106.994 90.425 106.888 89.7729C106.865 89.6162 106.81 89.4657 106.728 89.3303C106.646 89.1949 106.537 89.0773 106.409 88.9845C106.28 88.8916 106.134 88.8254 105.98 88.7896C105.826 88.7538 105.666 88.7492 105.509 88.7761C105.353 88.8012 105.204 88.8568 105.07 88.9397C104.935 89.0226 104.818 89.1313 104.726 89.2594C104.634 89.3875 104.567 89.5326 104.531 89.6863C104.495 89.84 104.489 89.9994 104.515 90.1553C104.907 92.5946 106.279 94.227 108.183 94.5249C108.39 94.5554 108.594 94.5718 108.793 94.5718C109.483 94.5718 110.207 94.3959 111.005 94.0323C111.149 93.9671 111.278 93.8741 111.386 93.7587C111.494 93.6434 111.578 93.5079 111.634 93.36C111.689 93.2121 111.715 93.0547 111.71 92.8968C111.705 92.7389 111.668 92.5836 111.603 92.4398C111.336 91.8346 110.615 91.5743 110.015 91.8417ZM121.637 86.6206C121.558 86.4835 121.454 86.3632 121.329 86.2667C121.203 86.1701 121.061 86.0992 120.908 86.058C120.756 86.0168 120.596 86.0062 120.44 86.0267C120.283 86.0471 120.132 86.0983 119.995 86.1773L114.082 89.5642C113.945 89.6425 113.824 89.7471 113.727 89.8721C113.631 89.9971 113.56 90.14 113.518 90.2925C113.477 90.4451 113.466 90.6043 113.486 90.7611C113.507 90.9178 113.558 91.0691 113.636 91.206C113.741 91.3904 113.893 91.5436 114.076 91.65C114.26 91.7563 114.468 91.812 114.68 91.8112C114.884 91.8112 115.088 91.7619 115.276 91.6517L121.194 88.2624C121.768 87.9341 121.968 87.1976 121.637 86.6206ZM116.803 70.5447C117.004 70.297 117.099 69.9799 117.066 69.6626C117.034 69.3454 116.878 69.0536 116.632 68.8512C116.384 68.6494 116.067 68.5541 115.749 68.5862C115.432 68.6183 115.14 68.7752 114.938 69.0224L114.07 70.0849C112.912 71.4946 111.746 72.9183 110.641 74.3772C110.506 74.5555 110.423 74.7681 110.401 74.9912C110.38 75.2142 110.422 75.4387 110.522 75.6392C110.622 75.8398 110.776 76.0085 110.966 76.1261C111.157 76.2438 111.377 76.3058 111.601 76.3052C111.786 76.3049 111.969 76.2618 112.136 76.1792C112.302 76.0966 112.447 75.9768 112.56 75.829C113.646 74.3959 114.793 72.9957 115.93 71.6095L116.803 70.5447ZM111.176 54.8557C110.651 54.9401 110.135 55.0386 109.619 55.1489C109.307 55.2155 109.034 55.403 108.861 55.6703C108.687 55.9377 108.626 56.263 108.692 56.5749C108.725 56.7298 108.788 56.8767 108.878 57.0071C108.968 57.1375 109.082 57.2489 109.215 57.335C109.348 57.4211 109.497 57.4801 109.653 57.5086C109.808 57.5372 109.968 57.5347 110.123 57.5014C110.604 57.3996 111.087 57.3081 111.572 57.227C113.454 56.9127 115.051 56.9432 116.245 57.3302C116.544 57.4138 116.865 57.3781 117.139 57.2305C117.413 57.0829 117.62 56.8349 117.715 56.5386C117.81 56.2422 117.787 55.9205 117.65 55.6408C117.513 55.3612 117.274 55.1454 116.981 55.0386C115.417 54.5344 113.446 54.4781 111.176 54.8557ZM61.7215 46.4471C61.8911 46.4471 62.0588 46.4113 62.2136 46.3421C62.3684 46.2728 62.5069 46.1717 62.62 46.0453C62.7331 45.9189 62.8183 45.7701 62.87 45.6086C62.9217 45.4471 62.9387 45.2764 62.92 45.1079C62.6268 42.5536 61.7754 40.2433 60.4784 38.3834C60.4533 38.3352 60.4259 38.2882 60.3963 38.2426L58.4143 39.6054C59.5707 41.2824 60.2837 43.2244 60.53 45.3823C60.5635 45.675 60.7034 45.9452 60.923 46.1415C61.1427 46.3378 61.4269 46.4466 61.7215 46.4471ZM56.1908 62.3003C55.5575 63.5668 54.9078 64.8381 54.2581 66.1164L54.0283 66.5667C53.9344 66.7501 53.8893 66.9545 53.8972 67.1604C53.905 67.3663 53.9657 67.5666 54.0733 67.7423C54.1809 67.918 54.3319 68.063 54.5117 68.1636C54.6915 68.2641 54.8942 68.3168 55.1002 68.3164C55.5388 68.3164 55.961 68.0772 56.1721 67.6597L56.4019 67.2117C57.054 65.9264 57.7084 64.6504 58.3416 63.3792C58.6489 62.7694 58.9491 62.1478 59.2423 61.5169C59.3718 61.228 59.3823 60.8997 59.2714 60.6032C59.1605 60.3066 58.9372 60.0657 58.6499 59.9327C58.3626 59.7997 58.0344 59.7853 57.7365 59.8926C57.4387 59.9999 57.1951 60.2203 57.0587 60.506C56.7797 61.109 56.4904 61.7072 56.1908 62.3003ZM53.4748 70.2937C53.1889 70.1525 52.8586 70.1305 52.5565 70.2325C52.2545 70.3345 52.0052 70.5522 51.8634 70.8378C50.6719 73.2396 49.7454 75.2192 48.9456 77.0698C48.8799 77.2152 48.8438 77.3723 48.8394 77.5318C48.835 77.6913 48.8625 77.8501 48.9201 77.999C48.9777 78.1478 49.0644 78.2836 49.1751 78.3986C49.2858 78.5135 49.4183 78.6053 49.5648 78.6685C49.7113 78.7318 49.869 78.7652 50.0286 78.7668C50.1882 78.7685 50.3465 78.7383 50.4943 78.6782C50.6421 78.618 50.7764 78.529 50.8895 78.4163C51.0025 78.3037 51.092 78.1697 51.1527 78.0221C51.9361 76.2113 52.8462 74.2669 54.0189 71.905C54.0893 71.7636 54.131 71.6096 54.1418 71.4519C54.1525 71.2943 54.132 71.1361 54.0815 70.9864C54.0309 70.8366 53.9513 70.6984 53.8472 70.5795C53.7431 70.4607 53.6165 70.3635 53.4748 70.2937ZM61.107 57.0089C61.9771 54.5742 62.5612 52.271 62.8403 50.1577C62.8811 49.8415 62.7948 49.522 62.6005 49.2692C62.4062 49.0164 62.1196 48.8509 61.8036 48.809C61.4871 48.7685 61.1675 48.8548 60.9145 49.049C60.6614 49.2432 60.4953 49.5296 60.4526 49.8457C60.1969 51.7855 59.6551 53.9222 58.8412 56.195C58.7759 56.3764 58.7553 56.5709 58.781 56.762C58.8066 56.9531 58.8779 57.1352 58.9888 57.293C59.0996 57.4508 59.2468 57.5795 59.4179 57.6685C59.589 57.7574 59.7789 57.8039 59.9718 57.804C60.4666 57.804 60.9311 57.4991 61.107 57.0089ZM33.0948 33.235C30.9801 33.9154 28.8989 34.6957 26.8582 35.5735C26.5647 35.6993 26.3332 35.9365 26.2144 36.2329C26.0957 36.5293 26.0995 36.8607 26.2249 37.1543C26.3518 37.4468 26.5892 37.6773 26.8853 37.7955C27.1815 37.9137 27.5123 37.91 27.8058 37.7853C29.7787 36.9393 31.7902 36.1864 33.8337 35.5289L34.1034 35.4398C34.7296 35.231 34.9407 34.5954 34.7367 33.9668C34.5303 33.3382 33.7281 33.0333 33.0948 33.235ZM98.0577 61.0853C98.1352 61.2231 98.2391 61.3443 98.3635 61.4419C98.4879 61.5395 98.6303 61.6117 98.7826 61.6541C98.9349 61.6966 99.0941 61.7087 99.251 61.6895C99.408 61.6704 99.5596 61.6205 99.6972 61.5427C101.679 60.4239 103.699 59.4904 105.699 58.7703C105.999 58.662 106.244 58.4391 106.379 58.1506C106.515 57.862 106.53 57.5315 106.422 57.2317C106.368 57.0827 106.286 56.9458 106.18 56.8287C106.073 56.7116 105.945 56.6167 105.802 56.5494C105.659 56.482 105.504 56.4436 105.345 56.4363C105.187 56.4291 105.03 56.453 104.881 56.5069C102.758 57.2715 100.614 58.2613 98.5151 59.4482C98.3775 59.5255 98.2565 59.6293 98.159 59.7534C98.0615 59.8776 97.9894 60.0198 97.9469 60.1719C97.9044 60.3239 97.8924 60.4829 97.9114 60.6396C97.9304 60.7964 97.9801 60.9478 98.0577 61.0853ZM24.0835 38.1558C23.9373 37.8728 23.6853 37.6589 23.3823 37.5605C23.0793 37.4621 22.7497 37.4873 22.4651 37.6305C20.4067 38.6847 18.3991 39.8353 16.4489 41.0783C16.1806 41.2504 15.9914 41.5218 15.9229 41.833C15.8543 42.1443 15.9119 42.47 16.083 42.7389C16.2553 43.0076 16.5271 43.1971 16.8389 43.2656C17.1506 43.3342 17.4768 43.2764 17.746 43.1048C19.6294 41.9024 21.569 40.7901 23.5581 39.7719C23.6989 39.7005 23.8242 39.6019 23.9268 39.482C24.0294 39.3621 24.1074 39.223 24.1562 39.0729C24.205 38.9228 24.2237 38.7645 24.2112 38.6071C24.1988 38.4498 24.1553 38.2964 24.0835 38.1558ZM105.842 86.4095C106.15 86.4909 106.478 86.4466 106.753 86.2865C107.029 86.1265 107.229 85.8636 107.311 85.5558C107.817 83.6559 108.671 81.7256 109.926 79.6569C110.091 79.384 110.14 79.0569 110.064 78.7474C109.988 78.4378 109.793 78.1711 109.52 78.0056C109.247 77.8417 108.92 77.7923 108.611 77.8683C108.302 77.9443 108.035 78.1396 107.869 78.4114C106.494 80.6818 105.552 82.8186 104.986 84.9412C104.946 85.0939 104.936 85.2529 104.957 85.4094C104.979 85.5658 105.03 85.7165 105.11 85.8529C105.189 85.9893 105.295 86.1086 105.421 86.2041C105.546 86.2996 105.69 86.3694 105.842 86.4095ZM46.1428 89.7073C46.455 89.7731 46.7807 89.7122 47.0481 89.5381C47.3155 89.3639 47.5028 89.0907 47.5688 88.7785C47.9957 86.7496 48.6008 84.6598 49.4171 82.3917C49.4704 82.2429 49.4938 82.0851 49.4861 81.9273C49.4784 81.7694 49.4397 81.6147 49.3722 81.4718C49.3047 81.3289 49.2097 81.2007 49.0926 81.0946C48.9756 80.9884 48.8387 80.9063 48.69 80.8531C48.5412 80.7998 48.3834 80.7763 48.2255 80.784C48.0677 80.7917 47.9129 80.8304 47.7701 80.8979C47.6272 80.9655 47.499 81.0605 47.3928 81.1775C47.2867 81.2946 47.2046 81.4314 47.1513 81.5802C46.3023 83.9538 45.6666 86.1468 45.2163 88.2859C45.1516 88.5972 45.2128 88.9213 45.3864 89.1877C45.56 89.454 45.8319 89.6408 46.1428 89.7073ZM47.0669 99.8609C47.0235 99.5842 46.9868 99.3066 46.9567 99.0282C46.8434 97.975 46.787 96.9164 46.7878 95.8571C46.7861 95.018 46.8198 94.1791 46.8886 93.3428C46.9141 93.0247 46.8123 92.7094 46.6056 92.4663C46.399 92.2231 46.1043 92.0719 45.7863 92.0457C45.1389 92.0129 44.5431 92.4843 44.4915 93.1481C44.4173 94.0508 44.3805 94.9561 44.3813 95.8618C44.3813 97.0158 44.4423 98.1674 44.5643 99.2909C44.5994 99.6029 44.6393 99.9195 44.6886 100.236C44.7386 100.551 44.9117 100.834 45.1698 101.022C45.4279 101.209 45.75 101.287 46.0654 101.238C46.3803 101.187 46.6623 101.014 46.8499 100.756C47.0376 100.498 47.1155 100.176 47.0669 99.8609ZM45.0662 33.5001V33.4977L45.0896 32.2945L44.902 31.0912C42.7488 31.0912 40.5159 31.3492 38.072 31.877C37.9175 31.91 37.7711 31.9732 37.6412 32.063C37.5112 32.1527 37.4002 32.2672 37.3146 32.3999C37.229 32.5326 37.1704 32.6809 37.1422 32.8362C37.1139 32.9916 37.1167 33.1511 37.1502 33.3054C37.1832 33.4599 37.2463 33.6064 37.336 33.7365C37.4257 33.8666 37.5401 33.9778 37.6728 34.0636C37.8054 34.1494 37.9537 34.2083 38.1092 34.2367C38.2646 34.2652 38.4241 34.2627 38.5786 34.2295C40.849 33.7369 42.913 33.5001 45.0545 33.5001H45.0662ZM54.1573 103.13C53.7515 103.318 53.3317 103.473 52.8954 103.59C52.3935 103.724 51.8704 103.907 51.3521 103.79C50.3787 103.79 49.4663 103.541 48.7838 103.091C48.652 103.004 48.5043 102.944 48.3493 102.914C48.1942 102.884 48.0348 102.885 47.8802 102.917C47.7256 102.949 47.5787 103.011 47.448 103.099C47.3173 103.188 47.2053 103.301 47.1185 103.433C46.9428 103.699 46.88 104.024 46.9437 104.336C47.0075 104.648 47.1927 104.923 47.4586 105.098C48.5469 105.818 49.8932 106.196 51.3497 106.196H51.3662C52.098 106.196 52.8204 106.1 53.5193 105.915C54.0846 105.762 54.6287 105.56 55.1588 105.321C55.4484 105.188 55.6733 104.945 55.7845 104.646C55.8957 104.347 55.8841 104.017 55.7522 103.726C55.6189 103.436 55.3764 103.211 55.0776 103.1C54.7788 102.988 54.4479 102.999 54.1573 103.13ZM7.89025 50.3172C8.17874 50.3172 8.46489 50.214 8.69709 50.0052C10.3552 48.5083 12.0859 47.0938 13.883 45.7669C14.0104 45.6735 14.1181 45.5558 14.1999 45.4206C14.2818 45.2854 14.3361 45.1354 14.3599 44.9792C14.3836 44.8229 14.3763 44.6635 14.3383 44.5101C14.3004 44.3567 14.2325 44.2123 14.1386 44.0852C13.9493 43.8285 13.6659 43.6575 13.3506 43.6095C13.0353 43.5616 12.7139 43.6407 12.4569 43.8296C10.5972 45.2061 8.80547 46.6722 7.08809 48.2227C6.97059 48.3283 6.8751 48.4561 6.80712 48.5987C6.73913 48.7413 6.69998 48.8959 6.69192 49.0537C6.68386 49.2115 6.70704 49.3693 6.76013 49.5181C6.81322 49.6669 6.89518 49.8038 7.00131 49.9208C7.23585 50.1835 7.56188 50.3172 7.89025 50.3172ZM49.5508 34.0043C51.6992 34.5063 53.6999 35.3811 55.3371 36.5375C55.5458 36.6876 55.7874 36.7579 56.0313 36.7579C56.2866 36.758 56.5352 36.6769 56.7412 36.5262C56.9472 36.3756 57.1 36.1633 57.1773 35.9201C57.2546 35.6769 57.2525 35.4153 57.1713 35.1734C57.0901 34.9314 56.934 34.7216 56.7256 34.5743C54.8375 33.2397 52.5459 32.2335 50.0996 31.6635C49.4476 31.504 48.8049 31.9169 48.6548 32.5619C48.618 32.7154 48.612 32.8748 48.6372 33.0307C48.6624 33.1866 48.7182 33.336 48.8016 33.4702C48.8849 33.6043 48.994 33.7206 49.1226 33.8123C49.2512 33.904 49.3968 33.9693 49.5508 34.0043ZM88.1246 33.9363C88.8353 33.3241 89.5131 32.6791 90.198 32.0365L91.3731 33.1482C92.4966 34.2131 94.2018 32.515 93.0736 31.4478C92.4028 30.8121 91.732 30.1788 91.0635 29.5432C90.5874 29.0905 89.8392 29.0788 89.363 29.5432C88.4113 30.4692 87.432 31.3663 86.4265 32.2335C85.249 33.2491 86.9566 34.9449 88.1246 33.9363ZM131.765 62.3401C131.385 61.8757 130.437 61.8664 130.064 62.3401C128.837 63.89 127.564 65.4027 126.246 66.8763C125.216 68.0256 126.912 69.7331 127.946 68.5768C128.967 67.4369 129.935 66.2524 130.902 65.0679C131.495 65.795 132.086 66.5221 132.679 67.2516C133.658 68.4525 135.351 66.7403 134.38 65.5511C133.509 64.4797 132.638 63.4094 131.765 62.3401ZM121.266 36.2044C122.287 35.0645 123.255 33.88 124.222 32.6956L126.002 34.8769C126.98 36.0777 128.673 34.3655 127.702 33.1764C126.832 32.1068 125.96 31.0373 125.087 29.9678C124.709 29.5033 123.762 29.494 123.387 29.9678C122.159 31.5176 120.884 33.0303 119.566 34.5039C118.536 35.6532 120.232 37.3607 121.266 36.2044ZM96.1602 47.1273C97.1805 45.9874 98.1492 44.8029 99.1156 43.6185L100.896 45.7998C101.874 47.0007 103.567 45.2885 102.596 44.0993C101.726 43.0298 100.854 41.9602 99.981 40.8907C99.6034 40.4263 98.6558 40.4169 98.2806 40.8907C97.0525 42.4405 95.7783 43.9532 94.4598 45.4269C93.4301 46.5761 95.1259 48.2837 96.1602 47.1273ZM91.0612 82.2932C90.585 81.8429 89.8368 81.8288 89.3607 82.2932C88.4084 83.2193 87.4291 84.1172 86.4241 84.9858C85.2514 85.9991 86.9589 87.6948 88.1246 86.6863C88.8353 86.0741 89.5131 85.4291 90.198 84.7864L91.3731 85.8982C92.4966 86.9631 94.2018 85.2649 93.0736 84.1977L91.0612 82.2932ZM102.315 106.1C101.839 105.65 101.09 105.635 100.614 106.1C99.662 107.026 98.6828 107.924 97.6778 108.792C96.505 109.806 98.2125 111.502 99.3782 110.493C100.089 109.881 100.767 109.236 101.452 108.593L102.627 109.705C103.75 110.77 105.455 109.072 104.327 108.004C103.654 107.369 102.983 106.733 102.315 106.1ZM60.9569 112.787C60.4807 112.337 59.7325 112.322 59.2564 112.787C58.3041 113.713 57.3248 114.611 56.3198 115.479C55.1471 116.493 56.8546 118.188 58.0203 117.18C58.731 116.568 59.4088 115.923 60.0937 115.28L61.2688 116.392C62.3923 117.457 64.0975 115.759 62.9693 114.691C62.2985 114.056 61.6277 113.42 60.9569 112.787ZM87.9815 124.132C87.6016 123.668 86.654 123.658 86.2811 124.132C85.0538 125.682 83.7804 127.195 82.4626 128.668C81.4329 129.817 83.1287 131.525 84.1631 130.369C85.1834 129.229 86.1521 128.044 87.1184 126.86L88.8963 129.043C89.8743 130.244 91.5678 128.532 90.5967 127.343C89.7266 126.271 88.8541 125.202 87.9815 124.132ZM29.5485 52.9207C29.0723 52.4703 28.3241 52.4563 27.848 52.9207C26.8957 53.8467 25.9164 54.7447 24.9114 55.6133C23.7387 56.6265 25.4462 58.3223 26.6119 57.3138C27.3226 56.7016 28.0004 56.0566 28.6853 55.4139L29.8604 56.5257C30.9839 57.5905 32.6891 55.8924 31.5609 54.8252C30.8877 54.1896 30.2169 53.554 29.5485 52.9207ZM14.0026 72.3741C13.6226 71.9097 12.675 71.9003 12.3021 72.3741C11.0748 73.9239 9.80144 75.4367 8.48365 76.9103C7.45399 78.0596 9.14977 79.7671 10.1841 78.6108C11.2044 77.4709 12.1731 76.2887 13.1394 75.1019C13.7329 75.829 14.3239 76.5561 14.9173 77.2856C15.8954 78.4865 17.5888 76.7743 16.6178 75.5851C15.7476 74.5132 14.8751 73.4437 14.0026 72.3741ZM20.9194 26.4472C21.9397 25.3073 22.9084 24.1228 23.8747 22.9383L25.655 25.1196C26.633 26.3205 28.3265 24.6083 27.3554 23.4192C26.4853 22.3496 25.6127 21.2801 24.7402 20.2105C24.3626 19.7461 23.415 19.7367 23.0397 20.2105C21.8117 21.7604 20.5375 23.2731 19.2189 24.7467C18.1893 25.8983 19.8851 27.6059 20.9194 26.4472ZM57.2768 87.6081C58.2971 86.4681 59.2658 85.2837 60.2321 84.0992C60.8255 84.8263 61.4189 85.5534 62.0123 86.2829C62.9904 87.4837 64.6838 85.7715 63.7128 84.5824C62.8426 83.5128 61.9701 82.4433 61.0976 81.3738C60.72 80.9093 59.7724 80.9 59.3971 81.3738C58.169 82.9236 56.8949 84.4363 55.5763 85.9099C54.5466 87.0569 56.2424 88.7644 57.2768 87.6081ZM27.9559 98.9461C27.5783 98.4817 26.6283 98.4723 26.2554 98.9461C25.0281 100.496 23.7547 102.009 22.4369 103.482C21.4073 104.634 23.1031 106.341 24.1374 105.183C25.1577 104.043 26.1264 102.858 27.0927 101.674C27.6861 102.401 28.2772 103.128 28.8706 103.858C29.8487 105.058 31.5421 103.346 30.5711 102.157C29.6986 101.088 28.8284 100.016 27.9559 98.9461ZM63.7128 29.3134C64.4211 28.7012 65.1013 28.0562 65.7862 27.4135L66.9613 28.5253C68.0848 29.5901 69.79 27.892 68.6618 26.8248C67.9906 26.1912 67.3206 25.5563 66.6517 24.9203C66.1756 24.4676 65.4273 24.4559 64.9512 24.9203C63.9995 25.8462 63.0202 26.7434 62.0147 27.6105C60.8372 28.6261 62.5447 30.3219 63.7128 29.3134ZM143.344 42.814C143.028 42.8141 142.724 42.94 142.5 43.1638C142.277 43.3877 142.151 43.6913 142.151 44.0078V51.6377C142.16 51.9478 142.29 52.242 142.513 52.458C142.736 52.674 143.034 52.7947 143.344 52.7947C143.655 52.7947 143.953 52.674 144.176 52.458C144.398 52.242 144.529 51.9478 144.538 51.6377V44.0078C144.538 43.6913 144.412 43.3877 144.188 43.1638C143.965 42.94 143.661 42.8141 143.344 42.814ZM125.552 18.5335L142.151 24.1838V36.833C142.16 37.1431 142.29 37.4373 142.513 37.6533C142.736 37.8692 143.034 37.99 143.344 37.99C143.655 37.99 143.953 37.8692 144.176 37.6533C144.398 37.4373 144.529 37.1431 144.538 36.833V23.33L143.729 22.1995L126.323 16.2748C126.175 16.2237 126.018 16.2024 125.861 16.2123C125.704 16.2222 125.551 16.2629 125.41 16.3323C125.269 16.4016 125.144 16.4981 125.04 16.6163C124.937 16.7344 124.858 16.8719 124.808 17.0207C124.707 17.3199 124.728 17.647 124.868 17.9305C125.007 18.214 125.253 18.4308 125.552 18.5335ZM7.89025 125.968C7.22647 125.968 6.68701 126.508 6.68701 127.172V133.434C6.68701 134.098 7.22647 134.637 7.89025 134.637C8.55402 134.637 9.09348 134.098 9.09348 133.434V127.172C9.09348 126.506 8.55402 125.968 7.89025 125.968ZM7.89025 97.6467C7.22647 97.6467 6.68701 98.1862 6.68701 98.85V120.532C6.68701 121.195 7.22647 121.735 7.89025 121.735C8.55402 121.735 9.09348 121.195 9.09348 120.532V98.8476C9.09333 98.6898 9.06208 98.5335 9.00153 98.3877C8.94098 98.2419 8.85231 98.1095 8.74057 97.998C8.62884 97.8865 8.49624 97.7981 8.35034 97.7378C8.20444 97.6775 8.0481 97.6466 7.89025 97.6467Z" fill="#F16E20"/>
</svg>
