<svg width="114" height="82" viewBox="0 0 114 82" fill="none" xmlns="http://www.w3.org/2000/svg">
<g clip-path="url(#clip0_10_2653)">
<path d="M1.71899 66.6073L0 70.413H0.710325L1.0868 69.5288H3.01888L3.40246 70.413H4.11278L2.42221 66.6073H1.71899ZM1.34962 68.977L2.05994 67.3147L2.77027 68.977H1.34962Z" fill="black"/>
<path d="M7.2453 68.4323C7.41558 68.3663 7.56173 68.2504 7.66439 68.0998C7.7642 67.9465 7.81383 67.7661 7.80646 67.5835C7.80997 67.4456 7.77942 67.309 7.71749 67.1856C7.65556 67.0623 7.56415 66.956 7.45129 66.8761C7.14957 66.6894 6.7972 66.6005 6.44263 66.6214H4.73785V70.4271H6.54918C6.92715 70.4519 7.30313 70.3552 7.62177 70.1513C7.74325 70.0617 7.84102 69.9441 7.90661 69.8085C7.9722 69.673 8.00365 69.5235 7.99824 69.3731C8.00705 69.1587 7.93908 68.9481 7.80646 68.7789C7.66267 68.6052 7.46548 68.4834 7.2453 68.4323ZM5.43397 67.1449H6.39291C6.57889 67.1341 6.76336 67.1837 6.91855 67.2864C6.975 67.3374 7.0201 67.3996 7.05097 67.4691C7.08183 67.5385 7.09777 67.6136 7.09777 67.6896C7.09777 67.7655 7.08183 67.8406 7.05097 67.91C7.0201 67.9795 6.975 68.0417 6.91855 68.0928C6.76251 68.1929 6.5781 68.2401 6.39291 68.2272H5.43397V67.1449ZM6.52787 69.8683H5.43397V68.7436H6.52787C7.0251 68.7436 7.28082 68.9346 7.28082 69.3024C7.28082 69.6702 7.0251 69.8683 6.52787 69.8683Z" fill="black"/>
<path d="M8.28949 67.2015H9.55387V70.413H10.2571V67.2015H11.5215V66.6073H8.28949V67.2015Z" fill="black"/>
<path d="M14.9168 66.8054C14.5942 66.6319 14.2321 66.5442 13.8655 66.5508C13.4968 66.5452 13.1327 66.6328 12.8072 66.8054C12.5088 66.9707 12.2628 67.2157 12.0968 67.5128C11.9128 67.8153 11.8192 68.1637 11.8269 68.5173C11.8191 68.8599 11.904 69.1983 12.0727 69.497C12.2414 69.7957 12.4878 70.0437 12.7858 70.215C13.1119 70.3855 13.4761 70.4707 13.8442 70.4626C14.2174 70.4751 14.5872 70.3897 14.9168 70.215C15.2129 70.0468 15.4582 69.8025 15.6271 69.5076C15.7994 69.1994 15.8899 68.8524 15.8899 68.4996C15.8899 68.1468 15.7994 67.7998 15.6271 67.4916C15.458 67.2023 15.2123 66.9649 14.9168 66.8054ZM15.0305 69.1964C14.9176 69.396 14.7533 69.5621 14.5546 69.6774C14.3422 69.7889 14.1057 69.8472 13.8655 69.8472C13.6254 69.8472 13.3889 69.7889 13.1765 69.6774C12.9758 69.5623 12.8091 69.3963 12.6935 69.1964C12.5757 68.9794 12.517 68.7356 12.523 68.489C12.517 68.2424 12.5757 67.9986 12.6935 67.7816C12.8073 67.5821 12.9745 67.418 13.1765 67.3077C13.3889 67.1961 13.6254 67.1379 13.8655 67.1379C14.1057 67.1379 14.3422 67.1961 14.5546 67.3077C14.7544 67.4185 14.9192 67.5826 15.0305 67.7816C15.1536 67.9967 15.2151 68.2414 15.2081 68.489C15.2123 68.7381 15.1458 68.9833 15.0163 69.1964H15.0305Z" fill="black"/>
<path d="M19.129 66.77C18.8579 66.6538 18.5645 66.5982 18.2695 66.6073H16.6926V70.413H17.403V69.3236H18.2695C18.5645 69.3327 18.8579 69.2771 19.129 69.1609C19.3627 69.068 19.5613 68.9048 19.6973 68.6941C19.8283 68.4812 19.8971 68.2363 19.8962 67.9867C19.8983 67.7369 19.8293 67.4917 19.6973 67.2793C19.5683 67.0527 19.3689 66.874 19.129 66.77ZM18.9373 68.5172C18.7323 68.6665 18.48 68.7369 18.2269 68.7153H17.403V67.2015H18.234C18.4871 67.1799 18.7394 67.2502 18.9444 67.3995C19.0204 67.4716 19.081 67.5582 19.1224 67.6543C19.1638 67.7504 19.1852 67.8538 19.1852 67.9584C19.1852 68.0629 19.1638 68.1664 19.1224 68.2624C19.081 68.3585 19.0204 68.4452 18.9444 68.5172H18.9373Z" fill="black"/>
<path d="M21.7146 67.343C21.9325 67.2258 22.1774 67.1672 22.4249 67.1733C22.6176 67.1701 22.8086 67.2083 22.9851 67.2852C23.1616 67.3621 23.3194 67.4759 23.4478 67.6189L23.9024 67.1874C23.7248 66.9807 23.501 66.8184 23.2489 66.7135C22.976 66.6033 22.6839 66.548 22.3894 66.5508C22.0252 66.5454 21.6657 66.6331 21.3452 66.8054C21.0465 66.9701 20.8003 67.2153 20.6349 67.5128C20.4606 67.8204 20.3691 68.1676 20.3691 68.5208C20.3691 68.874 20.4606 69.2212 20.6349 69.5289C20.803 69.8244 21.0485 70.0689 21.3452 70.2362C21.6399 70.3834 21.9623 70.467 22.2915 70.4816C22.6208 70.4962 22.9494 70.4415 23.256 70.3211C23.5094 70.2186 23.7338 70.0559 23.9095 69.8472L23.4407 69.3945C23.3139 69.5399 23.1565 69.6558 22.9798 69.734C22.803 69.8122 22.6112 69.8509 22.4178 69.8472C22.1703 69.8532 21.9254 69.7947 21.7075 69.6774C21.5031 69.5647 21.3336 69.3983 21.2174 69.1964C21.0977 68.9802 21.0388 68.7358 21.0469 68.489C21.0409 68.2424 21.0996 67.9986 21.2174 67.7816C21.339 67.5923 21.5112 67.4404 21.7146 67.343Z" fill="black"/>
<path d="M29.5424 66.6073L27.8518 70.3564L26.5377 68.4465L27.8376 66.6073H27.0847L25.9908 68.1989H25.2805V66.6073H24.5701V70.413H25.2805V68.8073H25.9908L27.106 70.413H28.5551L28.9315 69.5288H30.8423L31.2543 70.413H31.9646L30.2456 66.6073H29.5424ZM29.173 68.977L29.8834 67.3147L30.5937 68.977H29.173Z" fill="black"/>
<path d="M32.8454 66.77C32.6158 66.8702 32.4224 67.0381 32.2913 67.251C32.1537 67.4765 32.0846 67.737 32.0925 68.0008C32.0826 68.2745 32.1596 68.5443 32.3127 68.7719C32.4612 68.9883 32.6752 69.1519 32.9235 69.2387L32.1067 70.413H32.817L33.5273 69.3519H34.5502V70.413H35.2605V66.6073H33.6907C33.4003 66.5989 33.1117 66.6545 32.8454 66.77ZM34.5857 67.2015V68.7719H33.6907C33.4544 68.7902 33.2202 68.7167 33.0372 68.5667C32.9596 68.4938 32.8996 68.4044 32.8615 68.3052C32.8233 68.206 32.8081 68.0996 32.817 67.9937C32.8068 67.885 32.822 67.7755 32.8615 67.6736C32.9009 67.5718 32.9635 67.4804 33.0443 67.4066C33.2343 67.2595 33.4718 67.1865 33.712 67.2015H34.5857Z" fill="black"/>
<path d="M41.1491 66.6073H40.3962L39.2952 68.1989H38.5635V66.6073H37.8674V70.413H38.5635V68.8073H39.2739L40.3962 70.413H41.1989L39.8421 68.4465L41.1491 66.6073Z" fill="black"/>
<path d="M44.3101 66.6073L43.1451 68.8426L42.0157 66.6073H41.2557L42.7829 69.4368L42.7189 69.5288C42.6645 69.6329 42.5831 69.7205 42.4832 69.7827C42.3833 69.8449 42.2685 69.8794 42.1507 69.8825C42.0246 69.8786 41.8999 69.8547 41.7813 69.8118L41.6037 70.3635C41.7823 70.4438 41.9761 70.4848 42.172 70.4838C42.4062 70.4863 42.6351 70.4145 42.8255 70.2786C43.0393 70.1211 43.2122 69.9149 43.3298 69.6773L44.9849 66.6073H44.3101Z" fill="black"/>
<path d="M48.5223 66.6073H47.6912L46.7891 67.8735L45.887 66.6073H45.0701L46.3629 68.4606L44.9849 70.413H45.8017L46.7891 69.0266L47.7835 70.413H48.6217L47.2366 68.4323L48.5223 66.6073Z" fill="black"/>
<path d="M51.7827 68.1777H49.808V66.6073H49.0977V70.413H49.808V68.779H51.7827V70.413H52.493V66.6073H51.7827V68.1777Z" fill="black"/>
<path d="M54.0486 66.77C53.8204 66.8725 53.6276 67.0398 53.4945 67.251C53.3519 67.4754 53.2756 67.7353 53.2743 68.0008C53.2645 68.2745 53.3415 68.5443 53.4945 68.7719C53.6431 68.9883 53.8571 69.1519 54.1054 69.2388L53.2885 70.413H53.9989L54.7092 69.3519H55.7321V70.413H56.4424V66.6073H54.901C54.6083 66.5981 54.3172 66.6537 54.0486 66.77ZM55.7889 67.2015V68.7719H54.8939C54.6576 68.7902 54.4234 68.7167 54.2404 68.5667C54.1628 68.4938 54.1028 68.4045 54.0647 68.3053C54.0265 68.2061 54.0113 68.0996 54.0202 67.9938C54.0131 67.8853 54.0298 67.7767 54.069 67.6753C54.1082 67.5739 54.1691 67.4823 54.2475 67.4066C54.4403 67.2596 54.6799 67.1867 54.9223 67.2015H55.7889Z" fill="black"/>
<path d="M17.4245 45.1806C17.4138 44.7528 17.3322 44.3298 17.183 43.9285C16.8667 43.5529 16.4715 43.251 16.0252 43.0443C14.1606 42.0092 12.0777 41.4253 9.94477 41.3395C8.87191 41.2524 7.79243 41.3816 6.77088 41.7195C5.74933 42.0574 4.8067 42.597 3.99936 43.306C3.19912 44.0234 2.57463 44.914 2.17382 45.9092C1.95473 46.3875 1.84731 46.909 1.85961 47.4346C1.87191 47.9602 2.00362 48.4762 2.24486 48.9439C2.42695 49.3424 2.7081 49.6881 3.06173 49.9483C3.40794 50.2036 3.71639 50.506 3.97805 50.8467C4.18775 51.1328 4.28846 51.4838 4.26218 51.8371C4.25385 52.079 4.20586 52.3179 4.12011 52.5444C4.04822 52.7595 3.94789 52.9641 3.82178 53.1528C3.71249 53.3538 3.57362 53.5374 3.40979 53.6975C3.24724 53.871 3.07151 54.0318 2.88415 54.1785C2.73498 54.2988 2.53609 54.4473 2.28037 54.6171C2.14541 54.709 1.92521 54.8434 1.63398 55.0132C1.53403 55.0835 1.42964 55.1473 1.32143 55.2042C1.20778 55.2608 1.09413 55.3315 0.987582 55.3952L0.355393 55.7489C0.262336 55.7865 0.180016 55.8463 0.115718 55.9231C0.0514198 55.9999 0.0071267 56.0913 -0.0132413 56.1893C-0.0336093 56.2872 -0.029424 56.3886 -0.0010559 56.4845C0.0273122 56.5805 0.0789883 56.6679 0.149399 56.7392C0.425784 57.1273 0.747708 57.4812 1.10834 57.7932C1.46426 58.1384 1.85459 58.4465 2.27327 58.7128C2.50072 58.8585 2.76196 58.9435 3.0319 58.9596C3.30183 58.9757 3.57139 58.9224 3.81467 58.8048C4.639 58.1818 5.39177 57.4701 6.0593 56.6826C6.98982 55.6216 7.73567 54.7939 8.28262 54.1997C8.62662 53.8792 9.05544 53.6632 9.51858 53.5772C9.75599 53.5226 10.0035 53.5297 10.2374 53.5978C10.4713 53.6659 10.6836 53.7928 10.854 53.9663C11.091 54.2607 11.2597 54.6035 11.3481 54.9704C11.4365 55.3373 11.4424 55.719 11.3654 56.0884C11.2802 57.1071 11.1878 57.8711 11.0884 58.3804C11.0387 58.6916 11.0884 58.8968 11.2021 58.9816C11.3756 59.096 11.5767 59.1619 11.7845 59.1726C12.0845 59.2009 12.3866 59.2009 12.6866 59.1726C12.9562 59.1544 13.2268 59.1544 13.4964 59.1726C13.7183 59.1554 13.9389 59.1247 14.157 59.0807C14.3753 59.0378 14.5729 58.9232 14.7182 58.7553C15.232 58.0045 15.5939 57.1611 15.7836 56.2724C16.1672 54.9661 16.4158 54.0606 16.5295 53.556C16.5295 53.4711 16.565 53.3792 16.5863 53.2872C16.6076 53.1952 16.5863 53.0962 16.6431 53.0042C16.8989 51.8229 17.1191 50.5425 17.3037 49.1773C17.4904 47.8534 17.5309 46.5132 17.4245 45.1806ZM12.85 48.0526C12.8218 48.5746 12.6551 49.0799 12.367 49.5168C12.1111 49.7877 11.7937 49.9933 11.4414 50.1164C11.0891 50.2395 10.7122 50.2765 10.3426 50.2242C9.90373 50.1809 9.46747 50.1148 9.03556 50.0262C8.61327 49.932 8.20331 49.7895 7.8138 49.6017C7.16166 49.3059 6.65172 48.7676 6.39315 48.1021C6.23421 47.7595 6.17396 47.3796 6.21911 47.0049C6.26427 46.6302 6.41305 46.2754 6.64887 45.9799C6.97983 45.5536 7.43708 45.2418 7.95587 45.0886C9.14218 44.756 10.4043 44.8105 11.5572 45.2442C11.8392 45.3467 12.0953 45.5094 12.3076 45.7208C12.5198 45.9321 12.6832 46.1872 12.7861 46.468C12.9235 46.9852 12.9453 47.5261 12.85 48.0526Z" fill="black"/>
<path d="M18.4684 57.0506C18.5319 57.3404 18.6198 57.6243 18.7313 57.8994C18.8312 58.1945 19.0324 58.445 19.2995 58.6068C19.4483 58.705 19.608 58.7857 19.7754 58.8473C20.0834 58.9292 20.4015 58.9673 20.7202 58.9605C21.1016 58.9799 21.4835 58.9345 21.8496 58.8261C21.9768 58.7963 22.0906 58.7253 22.1729 58.6241C22.2552 58.523 22.3014 58.3974 22.3042 58.2673C22.3029 58.1142 22.2814 57.962 22.2403 57.8145C22.1941 57.6706 22.1562 57.5242 22.1266 57.376C21.8695 56.0599 21.7622 54.7192 21.807 53.3792C21.785 52.1534 21.8371 50.9274 21.9632 49.7079C23.0444 49.6778 24.1264 49.718 25.2023 49.8282C26.5093 49.9413 27.2338 49.9979 27.3759 49.9979C27.8589 50.0404 28.0862 49.7221 28.0862 49.05C28.1242 48.5691 28.0538 48.0857 27.8802 47.6353C27.7521 47.3969 27.5504 47.2059 27.3049 47.0906C27.0779 46.9715 26.8401 46.8744 26.5945 46.8006L21.0114 46.6874C20.6775 46.6874 20.436 46.7369 20.3011 46.7581L19.8962 46.8359C19.6876 46.9136 19.5054 47.0485 19.3705 47.225C19.172 47.5461 19.0145 47.8907 18.9017 48.2507C18.7035 48.8596 18.5585 49.4844 18.4684 50.1182C18.351 50.932 18.2752 51.7513 18.2411 52.5728C18.1985 53.4217 18.1985 54.2493 18.2411 55.0487C18.2551 55.7215 18.3312 56.3916 18.4684 57.0506Z" fill="black"/>
<path d="M38.1231 56.9656C38.4931 56.5602 38.8349 56.13 39.146 55.6782C39.4656 55.2271 39.7214 54.7344 39.906 54.2139C40.1947 53.3001 40.2891 52.3364 40.1831 51.3843C40.152 50.775 39.9973 50.1783 39.7285 49.63C39.4806 49.1912 39.1416 48.8102 38.734 48.5124C38.3349 48.2031 37.8856 47.9638 37.4057 47.805C36.459 47.5505 35.4614 47.5505 34.5147 47.805C33.3431 48.116 32.2638 48.7031 31.3679 49.5168L30.9275 49.9271C30.2743 50.5817 29.7343 51.3394 29.3293 52.1695C28.8999 53.011 28.7014 53.9505 28.754 54.893C28.7686 55.5211 28.9188 56.1387 29.1944 56.7039C29.4381 57.2257 29.8153 57.6746 30.2883 58.0055C30.7663 58.3479 31.293 58.6173 31.851 58.8048C32.5893 59.0501 33.3692 59.1463 34.1453 59.0878C34.9166 59.0192 35.6622 58.7773 36.326 58.3804C36.9885 57.9948 37.5935 57.5186 38.1231 56.9656ZM36.2905 54.9637C35.9713 55.4752 35.4921 55.8679 34.9267 56.0814C34.5315 56.3075 34.065 56.3764 33.6209 56.274C33.1768 56.1716 32.7881 55.9057 32.5329 55.5296C32.2633 55.2185 32.076 54.8453 31.988 54.4438C31.8999 54.0423 31.9138 53.6253 32.0285 53.2306C32.54 51.6979 33.4658 51.0495 34.8059 51.2853C36.1271 51.5258 36.7806 52.2473 36.7593 53.4499C36.74 53.9869 36.5783 54.5092 36.2905 54.9637Z" fill="black"/>
<path d="M53.2744 51.3419C53.2361 50.6886 53.0619 50.0502 52.7629 49.4674C52.4755 48.9281 52.0551 48.4705 51.5412 48.1375C51.0278 47.8128 50.4705 47.5627 49.8861 47.3947C49.1159 47.1616 48.3043 47.0965 47.5065 47.2038C46.7044 47.3087 45.9355 47.5889 45.2548 48.0243C44.8001 48.3241 44.3723 48.6626 43.9762 49.0359C43.8819 48.7344 43.7631 48.4411 43.6211 48.1587C43.4992 47.8658 43.288 47.6183 43.0173 47.4513C42.794 47.343 42.5538 47.2737 42.307 47.2462C41.9626 47.2037 41.6143 47.2037 41.2699 47.2462C40.9519 47.2702 40.6424 47.3593 40.3607 47.5079C40.2442 47.5712 40.1479 47.6657 40.0826 47.7808C40.0173 47.8958 39.9857 48.0267 39.9913 48.1587C40.013 48.3224 40.0511 48.4836 40.1049 48.6397C40.1547 48.8095 40.2115 48.9651 40.2683 49.1137C40.7775 50.7379 41.0899 52.4169 41.1988 54.1149C41.337 57.1791 41.3204 60.2483 41.1491 63.3109C41.1065 63.7707 41.1491 64.0749 41.3906 64.2305C41.6297 64.3925 41.9113 64.481 42.2004 64.4852C42.465 64.5095 42.7313 64.5095 42.996 64.4852C43.2614 64.4601 43.5208 64.3907 43.7631 64.28C43.9581 64.1615 44.1118 63.9862 44.2035 63.7778C44.3314 60.9482 44.4308 59.3991 44.4948 59.109L44.6581 59.1585C45.6545 59.3991 46.6991 59.3525 47.6699 59.0241C48.8685 58.6484 49.9612 57.9965 50.8593 57.1213C50.9942 56.9869 51.1434 56.8383 51.2997 56.6686C51.6277 56.3115 51.9225 55.9256 52.1805 55.5155C52.4482 55.1089 52.6856 54.6834 52.8908 54.2422C53.2617 53.323 53.3937 52.3254 53.2744 51.3419ZM49.5025 54.0795C49.2726 54.7707 48.7911 55.3511 48.1529 55.7065C47.6465 55.9711 47.0601 56.0416 46.505 55.9046C45.9456 55.751 45.4604 55.402 45.1382 54.9213C44.816 54.4407 44.6784 53.8607 44.7505 53.2873C44.8073 52.701 45.0019 52.1364 45.3187 51.639C45.698 51.1074 46.25 50.7226 46.8814 50.5497C47.0948 50.4533 47.3253 50.4001 47.5595 50.3931C47.7937 50.3862 48.0269 50.4257 48.2457 50.5093C48.4644 50.5928 48.6643 50.7189 48.8337 50.88C49.0032 51.0412 49.1387 51.2343 49.2326 51.4481C49.4807 51.8353 49.6343 52.2749 49.6812 52.7319C49.7281 53.1888 49.6669 53.6504 49.5025 54.0795Z" fill="black"/>
<path d="M63.0768 56.5907C63.155 56.9091 63.2402 57.1991 63.3255 57.4679C63.4317 57.7738 63.5599 58.0716 63.709 58.3592C63.8466 58.6554 64.0722 58.9024 64.3554 59.0666C64.5954 59.1716 64.8488 59.243 65.1084 59.2788C65.4596 59.3439 65.8169 59.37 66.1739 59.3566C66.49 59.3503 66.8017 59.2805 67.0902 59.1515C67.211 59.0964 67.3108 59.0041 67.3748 58.8881C67.4387 58.7722 67.4635 58.6388 67.4453 58.5077C67.4098 58.3496 67.3647 58.1937 67.3104 58.0409C67.2536 57.8782 67.1896 57.7155 67.1328 57.5598C66.5765 55.9579 66.2141 54.2956 66.0531 52.6082C65.8609 50.8962 65.8134 49.1712 65.911 47.4513C65.9478 47.2867 65.9423 47.1155 65.8951 46.9536C65.8479 46.7917 65.7606 46.6441 65.6411 46.5246C65.3914 46.3545 65.0982 46.2588 64.7958 46.2488H64.5756C64.5363 46.2263 64.4928 46.2119 64.4478 46.2063C64.0309 46.1465 63.6056 46.2028 63.2189 46.369C62.8582 46.5009 62.5274 46.7029 62.2458 46.9632C62.1452 47.0375 62.0706 47.1415 62.0327 47.2603C61.9534 47.4303 61.9239 47.6191 61.9474 47.805C61.9474 48.0031 61.9829 48.187 62.0043 48.3568C62.1028 49.1484 62.1028 49.9491 62.0043 50.7407C61.8953 51.6838 61.803 52.4549 61.7272 53.0538C61.5705 53.5573 61.3382 54.0343 61.0382 54.4686C60.4273 55.3882 59.8022 55.8833 59.1558 55.8833C58.5095 55.8833 58.1046 55.4801 57.9483 54.6596C57.8309 53.8171 57.8309 52.9625 57.9483 52.1201C58.0131 51.2796 58.1727 50.4491 58.4242 49.6442C58.4739 49.4674 58.5663 49.1773 58.7083 48.7671C58.8504 48.3568 58.8646 48.0597 58.7652 47.9465C58.4376 47.5588 57.9767 47.3066 57.4724 47.2391C56.9796 47.1382 56.4762 47.0978 55.9736 47.1189C55.6895 47.1189 55.4527 47.324 55.2633 47.7343C55.0422 48.1855 54.8731 48.6601 54.7589 49.149C54.6311 49.6725 54.5245 50.1889 54.4464 50.7053C54.3683 51.2217 54.3185 51.5895 54.2972 51.823C54.1806 52.7006 54.1094 53.5836 54.0841 54.4686C54.0554 55.3875 54.2842 56.2962 54.7447 57.093C55.1486 57.7862 55.7811 58.3186 56.5347 58.5997C57.2779 58.8998 58.0778 59.035 58.8788 58.9958C59.871 58.9557 60.8285 58.6207 61.6278 58.0338C62.1863 57.6344 62.6757 57.1469 63.0768 56.5907Z" fill="black"/>
<path d="M68.2693 60.4884C68.2693 60.5945 68.2693 60.8845 68.319 61.3656L66.3727 62.4974L64.8384 63.3887C64.7603 63.4382 64.6395 63.4736 64.6679 63.5938C64.6964 63.7141 64.8029 63.6858 64.881 63.6999C65.1523 63.7501 65.4203 63.8162 65.6837 63.898C65.9051 63.9878 66.1463 64.0181 66.3832 63.9858C66.6201 63.9536 66.8443 63.8598 67.0333 63.7141C67.6797 63.2826 68.3616 62.9147 69.0222 62.5186L69.9172 61.9951C69.9731 61.9757 70.024 61.9443 70.0664 61.9032C70.0996 61.8709 70.1262 61.8324 70.1445 61.79C70.3178 61.2045 70.6705 60.6877 71.1532 60.3116C71.5798 60.0503 72.0732 59.9176 72.5738 59.9296H73.3339C74.0442 59.9296 74.7545 59.9296 75.4649 59.9296L78.8744 60.0357C79.579 60.0218 80.2771 60.172 80.9131 60.4743C81.467 60.8216 81.8836 61.3489 82.0922 61.9668C82.1205 62.0288 82.1651 62.082 82.2215 62.1207C82.2778 62.1593 82.3436 62.1819 82.4118 62.1861C82.8622 62.271 83.328 62.209 83.7402 62.0093C83.9675 61.889 84.074 61.7758 84.074 61.6627C84.074 61.1109 84.1166 60.6723 84.145 60.3469C84.1582 59.7142 84.1345 59.0812 84.074 58.4511C84.0802 58.345 84.0556 58.2394 84.003 58.147C83.9748 58.0615 83.9392 57.9786 83.8964 57.8994C83.7767 57.6235 83.5663 57.3965 83.2997 57.2557C82.8011 57.0631 82.2813 56.9301 81.7512 56.8595C81.6077 56.2928 81.4939 55.7191 81.4103 55.1406C81.3464 54.7232 81.2895 54.2846 81.2469 53.8319C81.2469 53.4994 81.1901 53.1245 81.1688 52.7921C81.0368 51.1037 81.1299 49.4053 81.4458 47.7413C81.4458 47.5857 81.5097 47.4301 81.5381 47.2603C81.5746 47.0977 81.5936 46.9317 81.595 46.7651C81.5885 46.6304 81.5387 46.5014 81.4531 46.397C81.3674 46.2925 81.2503 46.2183 81.1191 46.1851C80.8567 46.085 80.5748 46.0462 80.2951 46.0719C80.0488 46.0719 78.131 46.0931 74.5415 46.1356C74.3363 46.1308 74.1313 46.1498 73.9306 46.1922C73.7386 46.2517 73.5531 46.3299 73.3765 46.4256C73.171 46.5419 73.0108 46.7239 72.9219 46.942C72.7515 47.3109 72.6435 47.7052 72.6023 48.1092C72.5241 48.6539 72.3394 49.7079 72.0624 51.257C71.7887 52.7993 71.3284 54.3028 70.6915 55.7348C70.5446 56.2145 70.2455 56.634 69.8391 56.9303L69.3348 57.0505C68.8162 57.1849 68.5179 57.3688 68.4256 57.6093C68.3392 57.8357 68.2912 58.0747 68.2835 58.3167C68.2759 58.4133 68.2759 58.5102 68.2835 58.6068C68.2551 59.4627 68.248 60.0781 68.2693 60.4884ZM76.0047 49.6301L77.2549 49.4391C77.4041 52.5515 77.5319 54.7091 77.6527 55.9116C77.6527 56.2087 77.7095 56.4422 77.7379 56.619C77.6339 56.6118 77.5294 56.6118 77.4254 56.619C77.1057 56.619 76.8571 56.619 76.715 56.619H76.5446H75.9479H75.2376L74.5841 56.5907C75.2662 54.3176 75.7417 51.988 76.0047 49.6301Z" fill="#F16E20"/>
<path d="M84.6352 49.8635V49.906V49.9484V49.9838V50.0262V50.0687H84.6849H84.7275H84.7702H84.8128H84.9193H84.9904H85.0614H85.1324H85.3242H85.3881H85.445H85.5657H85.6225H85.6794H85.7433H85.8143H85.857H85.9138L85.9706 50.0192L86.0274 49.9767L86.07 49.9201V49.8706L86.1198 49.8069V49.7504V49.6938V49.6301V49.5594V49.5028V49.4108V49.3401V49.2835V49.1774L86.1624 49.1349V49.0996H86.205H86.2476H86.3258H86.3826H86.4394H86.482H86.5602H86.617H86.6738H86.7378H86.7946H86.8514H86.9295H86.9864H87.0432H87.1782H87.2208H87.3557H87.4126H87.6754H87.718H87.789H87.853H88.0305H88.0874H88.1584H88.2792H88.3289H88.3857H88.4354H88.4709L88.5207 49.142L88.5846 49.1774H88.6556L88.7125 49.2269L88.7622 49.2693L88.819 49.3118L88.8616 49.3542L88.9042 49.4037L88.9682 49.4603L89.0108 49.5028V49.5594L89.0534 49.6089L89.1031 49.6655V49.7079V49.7504V49.8211V49.8706V49.9272V49.9838V50.0475V50.104V50.4719V50.5285V50.5851V50.6558V50.7195L89.0605 50.7902V50.8327H89.025H88.9895H88.9327H88.8758H90.2112H90.1686H90.1189H90.0763H90.0337H89.9839H89.8845H89.8419H89.7993H89.7211H89.5009H89.4228H89.3517H89.2949H89.2026H89.16L89.0889 50.8892L89.0463 50.9317L89.0037 50.9953V51.0519V51.1227V51.1793V51.2571V51.3137V51.3561V51.4127V51.4622V51.5047V51.5613V51.6037V51.6603H89.0676H89.1102H89.1671H89.2168H89.2736H89.3446H89.4086H89.4654H89.508H89.6359H90.1189H90.1615H90.2681H90.3249H90.4172H90.4812H90.5238H90.5735H90.609H90.6658L90.7298 51.7027H90.8008L90.8576 51.7452L90.9216 51.7876L90.9642 51.8442H91.0068L91.0636 51.9008L91.1062 51.9432L91.156 51.9857L91.1986 52.0352L91.2412 52.0918V52.1342V52.1908V52.2545V52.2969V52.3535V52.4738V52.5304V52.587V52.6436V52.7072V52.8204V52.8841V52.9407V53.0114V53.0751V53.1317V53.2024V53.259V53.3014V53.3509V53.3934V53.45L91.1702 53.5278L91.1347 53.5702V53.6127H91.092V53.6622V53.7046H91.0494L90.9997 53.7471L90.9571 53.7895H90.9003L90.8221 53.8673H90.7653H90.7085H90.6587L90.6161 53.9027H90.5593H90.5167H90.4741H90.4101H90.3675H90.3249H90.2823H90.2041H90.1615H90.1189H90.0479H90.0052H90.2112H90.1686H90.126H89.991H89.9342H89.849H89.7922H89.714H89.6572H89.5719H89.4938H89.437H89.2168H89.1458H89.0818H88.7906H88.7196H88.6769H88.613H88.5278V56.5908V56.5342V56.4776V56.4068V56.3432V56.2866L88.4852 56.2158V56.1522L88.4354 56.0814L88.3502 55.9612L88.2934 55.9046L88.2294 55.8622L88.1584 55.8056H88.1016L88.0305 55.7631H87.9524H87.8814H87.7748H87.3699H87.2776H87.1639H87.0929H86.9864H86.8869H86.7804L86.6809 55.8126L86.5886 55.8692L86.4749 55.9258L86.3542 55.9824L86.2689 56.0744L86.1482 56.1451L86.0487 56.2371L85.9138 56.3361L85.8641 56.3785V56.5908V56.6261V56.6969V56.7888V56.9232V57.0506V57.2981V57.376V57.4325L85.9067 57.4821L85.9635 57.5669L86.0203 57.6235V57.666H86.0629H86.1127V57.7014H86.1553H86.2121H86.2547H86.2973H86.3471H86.4323H86.4749H86.5247H86.5815H87.3699H87.4126H87.4907H87.5617H87.7109H87.7961H87.853H87.9595H88.0163H88.1016H88.1797H88.265H88.3431H88.4283H88.4994H88.5917H88.6627H88.9895H89.0747H89.9413H90.2539H90.3107H90.3817H90.4243H90.5451H90.5877H90.6374H90.7085H90.7511H90.8008H90.8434H90.886H90.9358H90.9997H91.0423H91.0849H91.1347L95.1551 60.8421L98.6286 63.5656C98.7209 63.6363 98.8204 63.7707 98.9411 63.6646C99.1583 63.4755 99.3601 63.2698 99.5449 63.0492C99.6301 62.9501 99.5449 62.844 99.4526 62.7662C99.2039 62.5682 98.9553 62.3559 98.6996 62.1579L93.2017 57.8428C92.9176 57.6094 92.6263 57.383 92.3351 57.1354H92.3777H92.4133H92.4559H92.5127V57.1001H92.5553H92.5979H92.6405H92.6761V57.0506H92.7187H92.7613L92.8536 56.9586H92.8892H93.7629H93.7984L93.8552 56.902L93.8978 56.8525L93.9404 56.81V56.52V56.4776V56.4351V56.3998L93.976 56.3432V55.8834V55.8268V55.7631V55.7207V55.2467V55.2043V54.9143V54.8718V54.4686V54.4191V54.3201V54.2635V54.2139V54.1715V54.1291V54.0866V54.0371V53.9947V53.9522V53.9098V53.8744V53.832V53.7895L93.9404 53.7471V53.6976V53.641V53.5985V53.5561H93.8978H93.9475H93.9831V51.6391V51.5825V51.3561V51.2854V51.158V51.1156V50.9317V50.4365V50.3304V50.2243V50.1253V50.0192V49.9767V49.9272V49.8706V49.5877V49.5452V49.5098V49.4674L93.9404 49.425L93.8765 49.3684H93.841V49.333L93.7842 49.2906H93.7416L93.6776 49.2481H93.635L93.5782 49.2127L93.5214 49.1703H93.4645H93.4148L93.358 49.1279H93.3154H93.2514L93.1946 49.0854H93.1378H93.0952L93.0312 49.043H92.9602L92.9176 49.0005H92.8607L92.7968 48.9652H92.74H92.6974H92.6405L92.5766 48.9227H92.5198H92.463H92.399H92.3564H92.2996H92.2428H92.1859L92.3422 46.6874H92.2854H92.2286H92.1646H92.122H92.051H91.9871H91.9302H91.8876H91.8308H91.774H91.71H91.639H91.5822H91.5182H91.4756H91.4188H91.3407H91.298H91.227H91.1702H91.1276H91.0636H90.9926H90.815H90.7582H90.6943H90.5238H90.4599H89.6714H89.6146H89.437H89.3731H89.3162H89.1386H89.0676H89.0108H88.9682H88.9042H88.8332H88.7693H88.7125H88.5988H88.5349H88.478H88.4212H88.3502H88.2294H88.1868H88.1087H88.0519H87.995H87.9311H87.8601H87.8174H87.7606H87.7038H87.6399H87.583H87.512H87.4481H87.4055H87.3486H87.2847H87.2279H87.1568H87.1142H87.0432H86.9935H86.9366L86.8798 46.7227H86.7591L86.7022 46.7652H86.6383L86.5815 46.8076H86.5318H86.4962V46.843V46.8854V46.9279V46.9916V47.0623V47.0977V47.1755V47.3665V47.5858L84.6352 49.8635Z" fill="#F16E20"/>
<path d="M98.0248 56.3502C98.3941 56.8527 98.8427 57.2922 99.3531 57.6518C99.8441 57.9925 100.373 58.275 100.93 58.4936C101.637 58.7718 102.381 58.9458 103.139 59.01C103.706 59.0631 104.277 59.0631 104.844 59.01C105.689 58.9033 106.495 58.5951 107.195 58.1116C107.649 57.7419 108.061 57.3244 108.424 56.8666C108.95 56.2512 108.985 55.8055 108.545 55.5226C107.543 54.8152 106.733 54.7515 106.101 55.4023C105.622 55.9717 104.95 56.3466 104.212 56.4563C103.353 56.5311 102.49 56.385 101.704 56.0319C101.322 55.8982 100.972 55.6844 100.679 55.405C100.386 55.1256 100.157 54.787 100.007 54.412C99.964 54.2917 99.9285 54.1856 99.9001 54.0866C104.636 53.549 107.221 53.2236 107.657 53.1104C107.863 53.053 108.053 52.9473 108.21 52.8021C108.367 52.6569 108.486 52.4764 108.559 52.2757C108.726 51.4987 108.674 50.6909 108.41 49.9413C108.269 49.3847 108.005 48.8667 107.636 48.4258C107.267 47.9849 106.803 47.6325 106.279 47.3947C105.259 46.8131 104.081 46.5657 102.912 46.6873C101.941 46.8155 100.988 47.0528 100.071 47.3947C99.2756 47.6965 98.5505 48.1562 97.9396 48.7458C97.3259 49.2937 96.8763 50 96.6407 50.7865C96.405 51.573 96.3924 52.4091 96.6042 53.2023C96.8379 54.3434 97.3231 55.4186 98.0248 56.3502ZM100.049 51.639C100.149 51.3198 100.32 51.027 100.548 50.7821C100.777 50.5373 101.058 50.3467 101.37 50.2243C102.186 49.9731 103.032 49.8328 103.885 49.8069C104.344 49.7382 104.812 49.8241 105.216 50.051C105.621 50.2778 105.937 50.6326 106.115 51.059L99.9782 51.7664C99.9992 51.7225 100.023 51.6799 100.049 51.639Z" fill="#F16E20"/>
<path d="M100.021 72.521C99.1353 71.5778 98.2497 70.6346 97.3642 69.6914C97.1653 69.4651 97.0019 69.3943 96.7391 69.6207C96.4362 69.8603 96.113 70.0733 95.7731 70.2573C94.3309 71.1183 92.7965 71.8159 91.1986 72.3371C89.797 72.7917 88.3437 73.0698 86.8727 73.1647C85.0603 73.2736 83.2417 73.1187 81.4742 72.7049C79.4415 72.1672 77.4793 71.3932 75.6283 70.3988C73.9803 69.5594 72.3229 68.7412 70.656 67.9442C70.5473 67.8689 70.4143 67.8365 70.283 67.8535C70.1517 67.8706 70.0314 67.9357 69.9457 68.0362C69.5763 68.4323 69.1714 68.7931 68.7665 69.1609C68.3616 69.5287 68.4256 69.4792 68.7665 69.748C69.8604 70.5262 70.9543 71.2972 72.0411 72.0824C74.2715 73.6905 76.5541 75.2279 78.8887 76.6945C80.674 77.8221 82.5428 78.813 84.4789 79.6585C85.6786 80.1742 86.9071 80.6206 88.1584 80.9954C89.5532 81.414 90.9779 81.7262 92.4203 81.9292C93.2614 82.0317 94.1094 82.0672 94.9562 82.0353C95.9703 82.0353 96.9833 81.9715 97.9893 81.8443C99.0622 81.6665 100.125 81.4303 101.172 81.1369C102.785 80.6805 104.348 80.0643 105.838 79.2977C106.094 79.1704 106.144 79.0501 105.924 78.8167L100.021 72.521Z" fill="#F16E20"/>
<path d="M113.929 71.7854C113.786 71.4499 113.573 71.1485 113.304 70.9012C113.091 70.6748 112.849 70.4767 112.629 70.1938L110.1 67.6331C109.961 67.5658 109.839 67.4664 109.745 67.343L105.711 63.3251C105.555 63.1387 105.36 62.9901 105.138 62.8908C104.916 62.7915 104.675 62.744 104.432 62.7521C104.215 62.7782 104.005 62.8482 103.816 62.9576C103.626 63.0671 103.461 63.2138 103.331 63.3888C102.347 64.6514 101.264 65.8341 100.092 66.9257C99.6604 67.3403 99.2076 67.7323 98.7351 68.0999C98.2237 68.4961 98.2024 68.4961 98.657 68.9771L98.8275 69.1681L103.445 74.1622C104.673 75.4779 105.916 76.7725 107.124 78.1023C107.358 78.3641 107.508 78.3782 107.778 78.2085C109.909 76.9064 111.826 75.2839 113.46 73.3982C113.677 73.1964 113.835 72.9399 113.917 72.656C114 72.3722 114.004 72.0714 113.929 71.7854Z" fill="#F16E20"/>
<path d="M68.7026 67.1096C68.666 67.0749 68.6224 67.0483 68.5747 67.0317L68.0917 66.8478L67.7863 66.7346C67.4808 66.6215 67.076 66.4871 66.664 66.3526C66.3727 66.2607 66.0531 66.1617 65.705 66.0697C65.0657 65.8928 64.327 65.716 63.503 65.5604C62.8779 65.433 62.196 65.3269 61.4715 65.2279H61.3223C61.0453 65.2279 60.8748 65.3623 60.8464 65.6736C60.8287 65.9255 60.8287 66.1785 60.8464 66.4305C60.8396 66.5129 60.8526 66.5958 60.8842 66.6723C60.9158 66.7488 60.9651 66.8168 61.0282 66.8706C61.0913 66.9245 61.1663 66.9626 61.247 66.982C61.3278 67.0014 61.412 67.0015 61.4928 66.9822C61.6582 66.9681 61.8246 66.9681 61.99 66.9822H62.0327C62.8954 67.0752 63.7501 67.2313 64.5898 67.4491C64.9024 67.534 65.2078 67.6259 65.5132 67.732H65.5559C66.0515 67.9436 66.527 68.1993 66.9765 68.496L67.1115 68.5597C67.1774 68.5793 67.2476 68.579 67.3134 68.5588C67.3791 68.5387 67.4374 68.4996 67.4808 68.4465C67.8644 68.0645 68.2693 67.6967 68.6671 67.3288C68.7452 67.244 68.7594 67.2015 68.7026 67.1096Z" fill="#F16E20"/>
<path d="M55.2206 27.2201C54.8017 27.2246 54.3875 27.1323 54.0104 26.9507C53.6333 26.7691 53.3036 26.503 53.047 26.1732V28.2529C53.0477 28.4937 53.1068 28.7308 53.2193 28.9439C53.3319 29.157 53.4945 29.3398 53.6934 29.4767L57.3374 32.0445C57.4455 32.1267 57.5476 32.2165 57.6428 32.3133V25.7842C57.4057 26.218 57.0556 26.5802 56.6294 26.8329C56.2032 27.0856 55.7166 27.2193 55.2206 27.2201ZM56.7123 30.658C56.6181 30.658 56.5278 30.6208 56.4612 30.5544C56.3946 30.4881 56.3571 30.3981 56.3571 30.3043C56.3571 30.2105 56.3946 30.1206 56.4612 30.0542C56.5278 29.9879 56.6181 29.9506 56.7123 29.9506C56.8065 29.9506 56.8968 29.9879 56.9634 30.0542C57.03 30.1206 57.0675 30.2105 57.0675 30.3043C57.0675 30.3981 57.03 30.4881 56.9634 30.5544C56.8968 30.6208 56.8065 30.658 56.7123 30.658ZM56.7123 29.3777C56.6181 29.3777 56.5278 29.3404 56.4612 29.2741C56.3946 29.2077 56.3571 29.1178 56.3571 29.024C56.3571 28.9302 56.3946 28.8402 56.4612 28.7739C56.5278 28.7075 56.6181 28.6703 56.7123 28.6703C56.8065 28.6703 56.8968 28.7075 56.9634 28.7739C57.03 28.8402 57.0675 28.9302 57.0675 29.024C57.0675 29.1178 57.03 29.2077 56.9634 29.2741C56.8968 29.3404 56.8065 29.3777 56.7123 29.3777ZM56.7123 28.0902C56.6181 28.0902 56.5278 28.053 56.4612 27.9866C56.3946 27.9203 56.3571 27.8303 56.3571 27.7365C56.3571 27.6427 56.3946 27.5528 56.4612 27.4864C56.5278 27.4201 56.6181 27.3828 56.7123 27.3828C56.8065 27.3828 56.8968 27.4201 56.9634 27.4864C57.03 27.5528 57.0675 27.6427 57.0675 27.7365C57.0675 27.8303 57.03 27.9203 56.9634 27.9866C56.8968 28.053 56.8065 28.0902 56.7123 28.0902ZM58.2111 18.8942V36.6425H62.473C62.7982 36.6425 63.1203 36.5786 63.4206 36.4544C63.721 36.3303 63.9938 36.1483 64.2235 35.919C64.4531 35.6897 64.635 35.4174 64.7588 35.118C64.8826 34.8185 64.9459 34.4976 64.945 34.1737V25.8125C64.9443 24.021 64.2458 22.2996 62.9964 21.0106C61.7471 19.7215 60.0444 18.9654 58.2466 18.9013L58.2111 18.8942ZM59.9869 27.015H59.6672V26.5976H59.994L59.9869 27.015ZM59.9869 26.442H59.6672V24.7584H59.994L59.9869 26.442ZM59.9869 24.617H59.6672V24.2067H59.994L59.9869 24.617ZM60.5765 27.015H60.2426V26.5976H60.5765V27.015ZM60.5765 26.442H60.2426V24.7584H60.5765V26.442ZM60.5765 24.617H60.2426V24.2067H60.5765V24.617ZM61.1731 27.015H60.8464V26.5976H61.1731V27.015ZM61.1731 26.442H60.8464V24.7584H61.1731V26.442ZM61.1731 24.617H60.8464V24.2067H61.1731V24.617ZM61.7982 27.0221H61.4431V26.6047H61.7982V27.0221ZM61.7982 26.4491H61.4431V24.7584H61.7982V26.4491ZM61.7982 24.624H61.4431V24.2138H61.7982V24.624ZM62.3949 27.0221H62.0681V26.6047H62.3949V27.0221ZM62.3949 26.4491H62.0681V24.7584H62.3949V26.4491ZM62.3949 24.624H62.0681V24.2138H62.3949V24.624ZM57.0106 32.4831L53.3596 29.9011C53.0861 29.7127 52.8625 29.4612 52.7079 29.168C52.5533 28.8748 52.4722 28.5487 52.4717 28.2176V24.624C52.4717 24.5745 52.4717 24.5109 52.4717 24.4543V18.8659C51.5527 18.8613 50.6418 19.0375 49.7914 19.3845C48.941 19.7315 48.1678 20.2425 47.5163 20.888C46.8648 21.5335 46.3479 22.3008 45.9951 23.1459C45.6423 23.991 45.4607 24.8972 45.4608 25.8125V34.1737C45.4608 34.8285 45.7219 35.4564 46.1868 35.9194C46.6518 36.3824 47.2823 36.6425 47.9398 36.6425H57.6428V33.7069C57.6456 33.467 57.5894 33.2301 57.4793 33.0168C57.3691 32.8035 57.2082 32.6203 57.0106 32.4831ZM48.4228 27.0221H48.0961V26.6047H48.4228V27.0221ZM48.4228 26.4491H48.0961V24.7584H48.4228V26.4491ZM48.4228 24.624H48.0961V24.2138H48.4228V24.624ZM49.0124 27.0221H48.6785V26.6047H49.0124V27.0221ZM49.0124 26.4491H48.6785V24.7584H49.0124V26.4491ZM49.0124 24.624H48.6785V24.2138H49.0124V24.624ZM49.609 27.0221H49.2823V26.6047H49.609V27.0221ZM49.609 26.4491H49.2823V24.7584H49.609V26.4491ZM49.609 24.624H49.2823V24.2138H49.609V24.624ZM50.1986 27.0221H49.8719V26.6047H50.1986V27.0221ZM50.1986 26.4491H49.8719V24.7584H50.1986V26.4491ZM50.1986 24.624H49.8719V24.2138H50.1986V24.624ZM50.8024 27.0221H50.4685V26.6047H50.8024V27.0221ZM50.8024 26.4491H50.4685V24.7584H50.8024V26.4491ZM50.8024 24.624H50.4685V24.2138H50.8024V24.624Z" fill="#8BC43F"/>
<path d="M48.231 10.1933C48.5365 9.85379 48.5365 9.85379 48.1387 9.53547C48.2285 9.49142 48.3048 9.42424 48.3598 9.3409C48.4147 9.25756 48.4463 9.1611 48.4512 9.06152C48.4555 8.91738 48.4338 8.77364 48.3873 8.63709C48.3539 8.51108 48.3562 8.37833 48.3938 8.25351C48.4314 8.12868 48.5029 8.01663 48.6004 7.92971C48.6927 7.85795 48.7599 7.75889 48.7922 7.64675C48.7922 7.56187 48.7922 7.45576 48.7922 7.39917C48.7922 7.34258 48.7211 7.20817 48.7922 7.10914C48.8664 7.01572 48.9157 6.90514 48.9356 6.78766C48.9555 6.67018 48.9452 6.54961 48.9058 6.43713C48.8632 6.32548 48.8632 6.20216 48.9058 6.09051C48.9626 5.97733 49.0053 5.85707 49.0692 5.74389C49.1331 5.63071 49.19 5.48216 49.0692 5.36898C48.9484 5.25579 49.0266 5.26994 49.0692 5.22042C49.371 4.91245 49.548 4.50439 49.5664 4.07446C49.5699 4.02917 49.5845 3.98543 49.609 3.94713C49.6699 3.86347 49.7116 3.76755 49.7312 3.66611C49.7509 3.56468 49.748 3.4602 49.7227 3.36C49.7062 3.32454 49.6976 3.28592 49.6976 3.24682C49.6976 3.20773 49.7062 3.1691 49.7227 3.13364L50.433 2.10086C50.5964 1.88157 50.5964 1.88157 50.3336 1.76131C50.7007 1.59665 51.0135 1.33176 51.2357 0.997339C51.418 0.8407 51.6274 0.718448 51.8537 0.636573L52.1875 0.431432C52.223 0.431432 52.2657 0.431432 52.2728 0.367767C52.3225 0.141404 52.5214 0.176774 52.6777 0.134331C53.4979 -0.0438714 54.3538 0.042852 55.1212 0.381915C55.3901 0.498838 55.6852 0.543389 55.9769 0.511113C56.2686 0.478837 56.5467 0.370866 56.7833 0.197995C56.8757 0.134331 56.8828 0.141404 56.9396 0.332398H56.9964C57.0564 0.269063 57.1313 0.221633 57.2144 0.194404C57.2974 0.167175 57.386 0.161008 57.472 0.17646C57.5581 0.191913 57.6389 0.228497 57.7072 0.2829C57.7754 0.337303 57.829 0.407805 57.863 0.488023C57.8723 0.509438 57.8857 0.528816 57.9025 0.545042C57.9193 0.561268 57.9392 0.574021 57.961 0.582568C57.9828 0.591115 58.0061 0.595287 58.0295 0.594843C58.0529 0.594399 58.076 0.589349 58.0974 0.579983L58.7367 0.417284C58.8433 0.417284 58.8859 0.417284 58.8859 0.530466C58.8859 0.643647 58.8859 0.763903 58.8859 0.877084C58.8859 0.990266 58.9427 1.10345 59.0919 1.12467C59.241 1.14589 59.3192 1.17419 59.1984 1.37225C59.1998 1.39109 59.1998 1.41 59.1984 1.42884C59.1203 1.5491 59.1984 1.58447 59.2908 1.58447C59.4296 1.57198 59.5693 1.59639 59.6957 1.65521C59.7383 1.65521 59.8093 1.65521 59.8164 1.74009C59.8235 1.82498 59.7454 1.79668 59.7099 1.83205L59.6459 1.88864C59.8363 1.95226 60.0216 2.0303 60.2 2.12208C60.3244 2.20611 60.443 2.29827 60.5551 2.39796C60.5551 2.39796 60.6333 2.45455 60.6262 2.50407C60.6191 2.55359 60.548 2.55359 60.5054 2.56773H60.271C60.6567 2.77615 60.9486 3.12248 61.0879 3.53685C61.215 3.78096 61.4034 3.98812 61.6348 4.13813C61.8195 4.25131 61.99 4.38571 61.8337 4.64037C61.8337 4.69696 61.8337 4.72526 61.8906 4.75355C61.9425 4.78816 61.9864 4.83356 62.0191 4.88664C62.0518 4.93972 62.0725 4.99922 62.08 5.06105C62.0874 5.12288 62.0813 5.18557 62.0621 5.24483C62.0429 5.30409 62.011 5.35851 61.9687 5.40434C61.9687 5.47508 61.9261 5.51753 61.9687 5.57412C62.0113 5.63071 62.1179 5.73681 62.1889 5.8217C62.2599 5.90659 62.2528 5.87829 62.2315 5.92073C62.2102 5.96318 62.1676 5.9561 62.1392 5.9561C62.0304 5.9628 61.9212 5.9628 61.8124 5.9561C61.6633 5.9561 61.6562 6.01977 61.7201 6.12588C61.7433 6.17913 61.7694 6.23108 61.7982 6.2815C62.0604 6.71202 62.223 7.19532 62.2741 7.69627C62.2741 7.83775 62.2741 7.92263 62.1108 7.94385C61.9474 7.96508 61.9687 7.99337 62.0681 8.08533C62.1066 8.11605 62.1366 8.15599 62.1554 8.20141C62.1741 8.24683 62.181 8.29625 62.1753 8.34503C62.1696 8.39381 62.1516 8.44036 62.1229 8.4803C62.0942 8.52025 62.0558 8.55229 62.0113 8.57343C61.9403 8.62294 61.9261 8.64417 62.0113 8.7149C62.1007 8.80906 62.1539 8.93154 62.1617 9.06088C62.1695 9.19022 62.1314 9.31816 62.0539 9.42229C62.0539 9.4718 62.0113 9.50717 62.0539 9.55669C62.0972 9.60376 62.129 9.66007 62.147 9.7213C62.1649 9.78252 62.1686 9.84704 62.1576 9.90988C62.1466 9.97272 62.1213 10.0322 62.0836 10.0838C62.046 10.1354 61.9969 10.1777 61.9403 10.2075C61.7699 10.2898 61.6177 10.4053 61.4928 10.547C61.4477 10.6441 61.3691 10.7218 61.2713 10.766C61.1735 10.8101 61.063 10.8178 60.96 10.7875C60.8393 10.7522 60.7967 10.8512 60.7825 10.9502C60.7682 11.0493 60.6901 11.1625 60.5409 11.1766L59.4755 11.2969C59.3689 11.2969 59.2695 11.2969 59.2339 11.4525C59.1984 11.6081 59.1132 11.5515 59.0351 11.5657C58.1258 11.7071 57.2166 11.8557 56.3003 11.9901C55.5961 12.1069 54.8832 12.1637 54.1693 12.1599C53.0237 12.1385 51.8947 11.8833 50.8521 11.41C50.5113 11.2274 50.131 11.1303 49.744 11.1271C49.6877 11.1167 49.6299 11.1167 49.5735 11.1271C49.4812 11.1271 49.4315 11.1271 49.4102 11.0351C49.3888 10.9432 49.2965 10.7663 49.1047 10.7946C49.0873 10.7988 49.0691 10.7991 49.0515 10.7954C49.0339 10.7918 49.0174 10.7842 49.0031 10.7734C48.9888 10.7626 48.9771 10.7487 48.9689 10.7328C48.9606 10.7169 48.9561 10.6993 48.9555 10.6814C48.9555 10.5187 48.8277 10.5117 48.7069 10.5187C48.5862 10.5258 48.4441 10.5187 48.4441 10.3207C48.4441 10.1226 48.302 10.2782 48.231 10.1933Z" fill="#8BC43F"/>
<path d="M51.1434 16.9772C51.2081 16.7364 51.2888 16.5001 51.3849 16.2698C51.7462 15.6153 52.2997 15.0864 52.9713 14.7539C53.6428 14.4214 54.4004 14.3012 55.1425 14.4094C55.5403 14.4731 55.9665 14.374 56.3643 14.4094C56.9596 14.463 57.5302 14.6725 58.0179 15.0166C58.5057 15.3608 58.8934 15.8273 59.1416 16.3689C59.2105 16.5617 59.2604 16.7607 59.2908 16.9631C58.7012 16.8074 58.1685 16.6306 57.6144 16.5386C57.2024 16.4608 56.7478 16.5386 56.3501 16.4608C55.6242 16.2662 54.8596 16.2662 54.1338 16.4608C53.6257 16.5414 53.1135 16.5933 52.5995 16.6164C52.1378 16.7226 51.6761 16.864 51.1434 16.9772Z" fill="#8BC43F"/>
<path d="M36.1129 18.866V20.3515C36.113 20.8508 35.9168 21.3302 35.5663 21.6872C35.2158 22.0442 34.7388 22.2503 34.2376 22.2614C33.9771 22.2614 33.7191 22.2101 33.4786 22.1104C33.2381 22.0107 33.0198 21.8645 32.8362 21.6804C32.6527 21.4963 32.5075 21.2779 32.4091 21.0376C32.3107 20.7974 32.261 20.5402 32.2629 20.2807V18.866C30.1906 18.866 28.2032 19.6858 26.7379 21.145C25.2726 22.6043 24.4493 24.5835 24.4493 26.6472V34.1808C24.4493 34.8337 24.7098 35.4599 25.1734 35.9215C25.6369 36.3832 26.2657 36.6425 26.9213 36.6425L27.8092 36.303C27.7917 36.1169 27.8287 35.9297 27.9157 35.764C28.0026 35.5983 28.1359 35.4612 28.2993 35.3692L29.0096 34.9377L29.1091 34.8812C29.2461 34.7964 29.4026 34.7477 29.5637 34.7397H29.6063C29.7714 34.7366 29.9332 34.7862 30.068 34.8812C30.1043 34.9056 30.1377 34.9341 30.1675 34.966C30.272 34.6632 30.4711 34.4016 30.7357 34.2196C31.0003 34.0375 31.3164 33.9446 31.6378 33.9545C31.7203 33.9535 31.8022 33.9679 31.8793 33.9969H31.9646C32.0469 33.9978 32.1285 34.0122 32.2061 34.0394L32.4192 34.1172C32.412 34.0774 32.412 34.0367 32.4192 33.9969C32.5379 33.691 32.7655 33.4393 33.0585 33.2895C33.2842 33.1816 33.5229 33.1032 33.7688 33.0561C33.9404 33.0125 34.1174 32.9935 34.2944 32.9995C34.3833 33.0115 34.4697 33.0378 34.5502 33.0773C34.6212 32.9039 34.7321 32.7496 34.874 32.6267C35.0159 32.5039 35.1848 32.4159 35.367 32.3699C35.4522 32.3424 35.5405 32.3257 35.6299 32.3204H35.7364C35.7977 32.3131 35.8597 32.3131 35.9211 32.3204H35.9779C36.0534 32.3109 36.1298 32.3109 36.2052 32.3204C36.4968 32.3896 36.7673 32.5279 36.9937 32.7236L37.3275 32.6034C37.4033 32.5689 37.4816 32.5405 37.5619 32.5185L37.9313 32.377C38.1315 32.2529 38.3574 32.1755 38.5919 32.1506C38.8228 31.9934 39.0884 31.8939 39.3662 31.8606C39.4702 31.7872 39.5822 31.7255 39.7 31.6767C39.8197 31.3228 40.075 31.0304 40.4103 30.8632C40.6262 30.7385 40.8712 30.6727 41.1207 30.6722C41.4124 30.6737 41.697 30.7624 41.9375 30.9269C42.1892 31.0982 42.3708 31.3539 42.449 31.6473C42.5272 31.9408 42.497 32.2525 42.3637 32.5256C42.2444 32.7852 42.0521 33.0049 41.81 33.158C41.568 33.3112 41.2866 33.3913 40.9999 33.3886H40.8223C40.6323 33.3664 40.4486 33.3063 40.2825 33.2117C40.1602 33.2526 40.0341 33.2811 39.906 33.2966L39.8137 33.3603C39.5963 33.4864 39.3538 33.5636 39.1033 33.5866C38.8949 33.7389 38.6499 33.834 38.393 33.8625L38.0379 33.9969L37.8674 34.0677C37.8341 34.0886 37.7983 34.1052 37.7608 34.1172L37.5193 34.2091L37.3346 34.2799C37.3313 34.2938 37.3313 34.3084 37.3346 34.3223C37.3078 34.4106 37.2721 34.4959 37.2281 34.577C37.2331 34.6382 37.2331 34.6997 37.2281 34.7609C37.2275 34.9611 37.156 35.1547 37.026 35.3074C36.896 35.4602 36.716 35.5622 36.5178 35.5956C36.2831 35.636 36.0456 35.6573 35.8074 35.6593C35.5898 35.6608 35.3777 35.5912 35.2037 35.4612C35.1403 35.7411 34.9823 35.9908 34.7562 36.1686C34.6838 36.2253 34.6079 36.2773 34.5288 36.3242C34.4597 36.366 34.3858 36.3992 34.3086 36.4232C34.257 36.4548 34.2023 36.4808 34.1453 36.5011H41.3196C41.9751 36.5011 42.6039 36.2417 43.0675 35.78C43.531 35.3184 43.7915 34.6922 43.7915 34.0394V26.6543C43.7937 24.6124 42.9898 22.6515 41.5534 21.1945C40.1169 19.7376 38.1629 18.9012 36.1129 18.866ZM27.383 27.0221H27.0562V26.6048H27.383V27.0221ZM27.383 26.4562H27.0562V24.7585H27.383V26.4562ZM27.383 24.6241H27.0562V24.2138H27.383V24.6241ZM27.9868 27.0221H27.6529V26.6048H27.9868V27.0221ZM27.9868 26.4562H27.6529V24.7585H27.9868V26.4562ZM27.9868 24.6241H27.6529V24.2138H27.9868V24.6241ZM28.5692 27.0221H28.2425V26.6048H28.5692V27.0221ZM28.5692 26.4562H28.2425V24.7585H28.5692V26.4562ZM28.5692 24.6241H28.2425V24.2138H28.5692V24.6241ZM29.173 27.0221H28.8463V26.6048H29.173V27.0221ZM29.173 26.4562H28.8463V24.7585H29.173V26.4562ZM29.173 24.6241H28.8463V24.2138H29.173V24.6241ZM29.7626 27.0221H29.4287V26.6048H29.7626V27.0221ZM29.7626 26.4562H29.4287V24.7585H29.7626V26.4562ZM29.7626 24.6241H29.4287V24.2138H29.7626V24.6241ZM34.1879 23.5064C34.2919 23.5064 34.3935 23.5371 34.4799 23.5946C34.5664 23.6521 34.6337 23.7339 34.6735 23.8296C34.7133 23.9252 34.7237 24.0305 34.7034 24.132C34.6832 24.2335 34.6331 24.3268 34.5596 24.4C34.4861 24.4732 34.3924 24.5231 34.2904 24.5433C34.1885 24.5635 34.0828 24.5531 33.9867 24.5135C33.8907 24.4739 33.8086 24.4068 33.7508 24.3207C33.6931 24.2346 33.6623 24.1334 33.6623 24.0299C33.6623 23.9611 33.6758 23.8931 33.7023 23.8296C33.7287 23.766 33.7674 23.7083 33.8162 23.6597C33.865 23.6111 33.923 23.5726 33.9867 23.5463C34.0505 23.5199 34.1189 23.5064 34.1879 23.5064ZM34.1879 25.6286C34.2919 25.6286 34.3935 25.6593 34.4799 25.7168C34.5664 25.7743 34.6337 25.8561 34.6735 25.9517C34.7133 26.0474 34.7237 26.1526 34.7034 26.2541C34.6832 26.3557 34.6331 26.449 34.5596 26.5222C34.4861 26.5954 34.3924 26.6452 34.2904 26.6654C34.1885 26.6856 34.0828 26.6753 33.9867 26.6356C33.8907 26.596 33.8086 26.5289 33.7508 26.4428C33.6931 26.3568 33.6623 26.2556 33.6623 26.152C33.6623 26.0833 33.6758 26.0152 33.7023 25.9517C33.7287 25.8882 33.7674 25.8305 33.8162 25.7819C33.865 25.7333 33.923 25.6947 33.9867 25.6684C34.0505 25.6421 34.1189 25.6286 34.1879 25.6286ZM34.1879 27.7507C34.2919 27.7507 34.3935 27.7814 34.4799 27.8389C34.5664 27.8965 34.6337 27.9782 34.6735 28.0739C34.7133 28.1695 34.7237 28.2748 34.7034 28.3763C34.6832 28.4778 34.6331 28.5711 34.5596 28.6443C34.4861 28.7175 34.3924 28.7674 34.2904 28.7876C34.1885 28.8078 34.0828 28.7974 33.9867 28.7578C33.8907 28.7182 33.8086 28.6511 33.7508 28.565C33.6931 28.4789 33.6623 28.3777 33.6623 28.2742C33.6623 28.2054 33.6758 28.1374 33.7023 28.0739C33.7287 28.0103 33.7674 27.9526 33.8162 27.904C33.865 27.8554 33.923 27.8169 33.9867 27.7906C34.0505 27.7643 34.1189 27.7507 34.1879 27.7507ZM34.1879 29.8729C34.2919 29.8729 34.3935 29.9036 34.4799 29.9611C34.5664 30.0186 34.6337 30.1004 34.6735 30.196C34.7133 30.2917 34.7237 30.3969 34.7034 30.4985C34.6832 30.6 34.6331 30.6933 34.5596 30.7665C34.4861 30.8397 34.3924 30.8895 34.2904 30.9097C34.1885 30.9299 34.0828 30.9196 33.9867 30.88C33.8907 30.8403 33.8086 30.7732 33.7508 30.6872C33.6931 30.6011 33.6623 30.4999 33.6623 30.3963C33.6623 30.3276 33.6758 30.2595 33.7023 30.196C33.7287 30.1325 33.7674 30.0748 33.8162 30.0262C33.865 29.9776 33.923 29.939 33.9867 29.9127C34.0505 29.8864 34.1189 29.8729 34.1879 29.8729ZM38.9471 27.0433H38.6203V26.626H38.9471V27.0433ZM38.9471 26.4774H38.6203V24.7585H38.9471V26.4774ZM38.9471 24.6453H38.6203V24.235H38.9471V24.6453ZM39.5508 27.0433H39.217V26.626H39.5508V27.0433ZM39.5508 26.4774H39.217V24.7585H39.5508V26.4774ZM39.5508 24.6453H39.217V24.235H39.5508V24.6453ZM40.1333 27.0433H39.7781V26.626H40.1049L40.1333 27.0433ZM40.1333 26.4774H39.7781V24.7585H40.1049L40.1333 26.4774ZM40.1333 24.6453H39.7781V24.235H40.1049L40.1333 24.6453ZM40.7371 27.0433H40.4032V26.626H40.7371V27.0433ZM40.7371 26.4774H40.4032V24.7585H40.7371V26.4774ZM40.7371 24.6453H40.4032V24.235H40.7371V24.6453ZM41.3196 27.0433H40.9928V26.626H41.3196V27.0433ZM41.3196 26.4774H40.9928V24.7585H41.3196V26.4774ZM41.3196 24.6453H40.9928V24.235H41.3196V24.6453Z" fill="#D20000"/>
<path d="M35.7578 15.2442C35.3064 14.9902 34.7987 14.8521 34.2804 14.8422C33.762 14.8324 33.2494 14.951 32.7886 15.1876C32.3195 15.5081 31.7521 15.654 31.1859 15.5997C30.6196 15.5454 30.0906 15.2943 29.6916 14.8905C29.6916 15.1876 29.7271 15.3786 29.7555 15.5979C29.7728 16.0915 29.9761 16.5606 30.3249 16.9119C30.6736 17.2632 31.1424 17.4708 31.6379 17.4936C32.4384 17.5939 33.2503 17.4431 33.9606 17.0621C34.0401 17.0273 34.126 17.0092 34.2128 17.0092C34.2996 17.0092 34.3855 17.0273 34.465 17.0621C35.2812 17.5026 36.2302 17.6333 37.1358 17.43C37.6515 17.304 38.0968 16.9813 38.3758 16.5314C38.6549 16.0815 38.7452 15.5405 38.6275 15.0249C38.2423 15.3751 37.7506 15.5869 37.2305 15.6267C36.7105 15.6664 36.1921 15.5318 35.7578 15.2442Z" fill="#D20000"/>
<path d="M26.8432 7.16579C26.6017 7.60437 26.6443 7.81658 27.0989 8.12076C27.0012 8.21302 26.9245 8.32501 26.8738 8.44923C26.8231 8.57344 26.7997 8.70701 26.805 8.84098C26.8104 8.97495 26.8445 9.10622 26.905 9.22601C26.9655 9.34579 27.051 9.45132 27.1557 9.53553C26.9924 9.87895 26.8685 10.2396 26.7864 10.6107C26.7756 10.7071 26.7847 10.8045 26.8133 10.8972C26.8419 10.9898 26.8894 11.0756 26.9526 11.1492C27.0159 11.2228 27.0937 11.2827 27.1812 11.3252C27.2686 11.3676 27.3639 11.3917 27.4612 11.3959C27.1699 12.1033 27.2125 12.5631 27.6032 12.8602C27.6512 12.908 27.7095 12.9443 27.7737 12.9663C27.9086 13.0364 28.0584 13.073 28.2106 13.073C28.3627 13.073 28.5125 13.0364 28.6474 12.9663H29.2654C29.331 13.0712 29.4205 13.1591 29.5266 13.2231C29.6328 13.287 29.7526 13.325 29.8763 13.3342C30.0364 13.3442 30.1966 13.3161 30.3436 13.2521C30.4906 13.1882 30.6202 13.0902 30.7216 12.9663C31.0057 13.0654 31.2543 13.2493 31.4319 13.221C31.6298 13.1805 31.8149 13.0932 31.9717 12.9663H32.1919C32.5755 13.6171 33.1367 13.6313 33.7617 12.9663H33.8186C33.9164 13.1353 34.0572 13.2756 34.2268 13.3731C34.3964 13.4707 34.5888 13.5221 34.7846 13.5221C34.9805 13.5221 35.1728 13.4707 35.3424 13.3731C35.512 13.2756 35.6528 13.1353 35.7507 12.9663H36.0987C36.1974 13.1126 36.3322 13.2311 36.4902 13.3104C36.6482 13.3897 36.8241 13.4271 37.0008 13.4191C37.163 13.4168 37.322 13.3742 37.4634 13.2951C37.6049 13.216 37.7242 13.103 37.8106 12.9663H38.4144C38.5486 13.0478 38.7002 13.0967 38.8569 13.109C39.0137 13.1212 39.1711 13.0966 39.3165 13.0371C39.3601 13.0243 39.3995 12.9998 39.4301 12.9663C39.6106 12.8693 39.7553 12.7176 39.8434 12.5332C39.9315 12.3488 39.9585 12.1413 39.9203 11.9406C40.13 12.0323 40.3641 12.0533 40.5869 12.0003C40.8097 11.9473 41.009 11.8233 41.1546 11.6471C41.3001 11.471 41.3839 11.2523 41.3932 11.0243C41.4024 10.7964 41.3367 10.5717 41.2059 10.3844C41.7955 9.85385 41.8381 9.61334 41.419 8.89888C41.8665 8.41786 41.8808 8.19149 41.4901 7.56192C41.966 7.13749 41.966 6.85454 41.4901 6.38059C41.7458 5.92079 41.7032 5.67321 41.2486 5.41147C41.3452 5.31863 41.421 5.20647 41.471 5.08236C41.5211 4.95826 41.5441 4.82502 41.5388 4.6914C41.5334 4.55778 41.4997 4.4268 41.4399 4.30707C41.3801 4.18734 41.2955 4.08157 41.1917 3.99671C41.3554 3.65585 41.4793 3.29747 41.5611 2.92855C41.575 2.83394 41.5695 2.7375 41.545 2.64505C41.5204 2.55261 41.4773 2.46608 41.4182 2.39071C41.3591 2.31533 41.2853 2.25267 41.2012 2.20651C41.1171 2.16035 41.0245 2.13165 40.9289 2.12214C41.213 1.41475 41.1704 0.954952 40.7655 0.657851C40.3607 0.36075 39.8847 0.396119 39.281 0.848845C39.2308 0.675707 39.1307 0.521053 38.9931 0.404095C38.8554 0.287137 38.6863 0.213029 38.5067 0.190977C38.3437 0.180042 38.1805 0.208411 38.0309 0.273677C37.8813 0.338943 37.7497 0.439181 37.6472 0.565891C37.3773 0.466857 37.1358 0.275863 36.9369 0.304159C36.738 0.332454 36.4823 0.537596 36.2266 0.664925C35.8004 -0.0919766 35.2321 -0.13442 34.5573 0.594186C34.4522 0.395628 34.2898 0.232936 34.0911 0.127042C33.8923 0.0211487 33.6663 -0.0231019 33.4421 -1.65305e-05C33.2123 0.0330331 32.997 0.131349 32.8218 0.283156C32.6467 0.434962 32.5193 0.633823 32.4547 0.855919C32.3613 0.643354 32.207 0.462911 32.0112 0.33711C31.8154 0.211309 31.5867 0.145722 31.3537 0.148534C31.1273 0.156962 30.9087 0.233911 30.7273 0.369133C30.5458 0.504354 30.41 0.691428 30.338 0.905436C30.1916 0.708279 29.9863 0.562372 29.7515 0.48866C29.5167 0.414948 29.2644 0.417221 29.031 0.495153C28.8173 0.579517 28.6392 0.734537 28.5267 0.934189C28.4141 1.13384 28.374 1.36597 28.413 1.5916C28.2035 1.4998 27.9697 1.47813 27.7468 1.52983C27.5238 1.58153 27.3237 1.70382 27.1765 1.87835C27.0292 2.05289 26.9427 2.27026 26.93 2.49787C26.9173 2.72548 26.9791 2.95106 27.106 3.14077C26.5377 3.67131 26.4951 3.91182 26.9071 4.62628C26.4667 5.1073 26.4525 5.33366 26.8219 5.96323C26.3886 6.36644 26.3886 6.67769 26.8432 7.16579Z" fill="#D20000"/>
<path d="M32.9449 35.0438C32.9449 35.0014 32.9449 34.9943 32.881 35.0438L32.746 35.0933C32.746 35.0933 32.7105 35.0933 32.7034 35.0933C32.7379 35.216 32.7617 35.3415 32.7744 35.4682C32.7744 35.4682 32.7744 35.5178 32.8383 35.4682L33.023 35.3975C33.0656 35.3975 33.0656 35.3551 33.023 35.3197C32.9804 35.2843 32.9804 35.157 32.9449 35.0438Z" fill="#D20000"/>
<path d="M37.1571 33.3815L36.9866 33.4451C36.9227 33.4451 36.9085 33.4946 36.9298 33.5583C36.968 33.6554 36.9896 33.7582 36.9937 33.8625C36.9937 33.9261 36.9937 33.9474 37.0931 33.9191L37.3204 33.8271H37.3773C37.3773 33.8271 37.4199 33.8271 37.4341 33.8271L37.6685 33.7422L37.7679 33.6927C37.8977 33.654 38.0201 33.5943 38.1302 33.5159C38.1862 33.4748 38.2527 33.4503 38.322 33.4451C38.539 33.4285 38.7453 33.3444 38.9116 33.2046C38.959 33.1705 39.0165 33.153 39.0749 33.1551C39.2511 33.1399 39.4213 33.0842 39.5722 32.9924C39.6503 32.9429 39.7213 32.8651 39.8279 32.8651C39.9968 32.8506 40.1611 32.8025 40.3109 32.7236C40.3394 32.7018 40.3744 32.69 40.4104 32.69C40.4463 32.69 40.4813 32.7018 40.5098 32.7236C40.6353 32.8323 40.7918 32.8991 40.9573 32.9146C41.1533 32.9425 41.3531 32.9048 41.5253 32.8075C41.6976 32.7102 41.8326 32.5588 41.9091 32.377C41.978 32.2305 41.9944 32.065 41.9557 31.908C41.9169 31.7509 41.8253 31.6119 41.696 31.514C41.5604 31.418 41.3998 31.3629 41.2335 31.3554C41.0672 31.3479 40.9023 31.3882 40.7584 31.4715C40.6416 31.5259 40.5399 31.6078 40.4619 31.7101C40.384 31.8124 40.3321 31.932 40.3109 32.0586C40.3109 32.1789 40.247 32.2496 40.1262 32.2779C39.9845 32.3112 39.8514 32.3739 39.7355 32.4619C39.7163 32.482 39.6932 32.498 39.6675 32.5089C39.6419 32.5199 39.6143 32.5255 39.5864 32.5255C39.353 32.5414 39.13 32.6278 38.9471 32.7731C38.9024 32.8073 38.8471 32.8248 38.7908 32.8226C38.6172 32.8344 38.4491 32.8878 38.3007 32.9782C38.2023 33.0571 38.0846 33.1083 37.9597 33.1268C37.8425 33.1295 37.7278 33.1611 37.6259 33.2188L37.1571 33.3815ZM40.7087 31.9242C40.7853 31.841 40.8839 31.781 40.9932 31.7509C41.1025 31.7209 41.2181 31.7221 41.3267 31.7545C41.4019 31.783 41.4659 31.8349 41.5094 31.9023C41.5529 31.9698 41.5735 32.0494 41.5682 32.1294C41.5516 32.2095 41.5174 32.2849 41.468 32.3501C41.4186 32.4154 41.3552 32.469 41.2825 32.5069C41.2097 32.5448 41.1294 32.5661 41.0474 32.5693C40.9654 32.5726 40.8837 32.5576 40.8081 32.5255C40.7509 32.5032 40.7003 32.4668 40.6611 32.4197C40.6219 32.3726 40.5954 32.3164 40.584 32.2562C40.5726 32.1961 40.5768 32.1341 40.5961 32.076C40.6155 32.0179 40.6493 31.9657 40.6945 31.9242H40.7087Z" fill="#D20000"/>
<path d="M36.8871 34.294C36.919 34.1663 36.919 34.0327 36.8871 33.905C36.8692 33.7253 36.8187 33.5503 36.738 33.3886C36.6599 33.2785 36.5607 33.1849 36.4461 33.1133C36.3315 33.0416 36.2037 32.9933 36.0703 32.9712C35.9566 32.9712 35.9424 32.9712 35.914 33.0773C35.9106 33.1268 35.9106 33.1764 35.914 33.2259V33.0419C35.914 32.9712 35.914 32.9358 35.8003 32.9429C35.7366 32.9362 35.6723 32.9362 35.6086 32.9429C35.5104 32.9629 35.4185 33.0061 35.3406 33.0689C35.2627 33.1317 35.2011 33.2122 35.161 33.3037C35.1069 33.459 35.0734 33.6207 35.0616 33.7847C35.0446 33.8813 35.0549 33.9807 35.0913 34.0719C35.1277 34.1631 35.1887 34.2424 35.2676 34.3011C35.3713 34.3771 35.4524 34.4798 35.502 34.5982C35.5446 34.6972 35.5659 34.8033 35.6086 34.9024C35.6373 34.9836 35.6915 35.0536 35.763 35.1019C35.8346 35.1503 35.9199 35.1746 36.0063 35.1712C36.211 35.1667 36.4152 35.1478 36.6172 35.1146C36.6788 35.1077 36.7358 35.0789 36.7776 35.0333C36.8194 34.9878 36.8432 34.9287 36.8445 34.867C36.8331 34.7991 36.8141 34.7326 36.7877 34.6689C36.7877 34.577 36.6953 34.5628 36.6172 34.5416H36.6598C36.716 34.5235 36.7665 34.4911 36.8063 34.4477C36.8462 34.4043 36.874 34.3514 36.8871 34.294Z" fill="#D20000"/>
<path d="M34.3584 35.9704C34.4156 35.9368 34.4703 35.899 34.5218 35.8573C34.6498 35.766 34.7379 35.6295 34.7683 35.4757C34.7986 35.3219 34.7689 35.1624 34.6852 35.0296C34.6715 35.0076 34.6639 34.9823 34.6631 34.9564C34.6622 34.9305 34.6682 34.9049 34.6804 34.882C34.6926 34.8591 34.7106 34.8398 34.7327 34.826C34.7547 34.8122 34.7799 34.8043 34.8059 34.8033L35.2321 34.6335C35.3458 34.5981 35.3529 34.5557 35.2321 34.4779C35.1437 34.411 35.0648 34.3325 34.9977 34.2444C34.9883 34.238 34.9772 34.2346 34.9658 34.2346C34.9544 34.2346 34.9432 34.238 34.9338 34.2444L34.7562 34.3081L34.3584 34.4637C34.3484 34.3957 34.3484 34.3266 34.3584 34.2586C34.3726 34.156 34.4013 34.056 34.4437 33.9615C34.5076 33.7422 34.4437 33.6007 34.188 33.6007H34.0956C33.8478 33.6362 33.6077 33.7127 33.3853 33.8271C33.2067 33.9119 33.0671 34.0611 32.9946 34.2444C32.9946 34.3222 32.9946 34.3505 33.0585 34.3859L33.1864 34.4354C33.1588 34.4451 33.1287 34.4451 33.1012 34.4354C32.9591 34.4354 32.9449 34.4354 32.9662 34.591C32.9921 34.7592 33.0325 34.9249 33.087 35.0862C33.167 35.3503 33.2667 35.608 33.3853 35.8573C33.4186 35.9319 33.4696 35.9973 33.5339 36.0478C33.5983 36.0983 33.6741 36.1325 33.7547 36.1473C33.8625 36.1565 33.9711 36.1445 34.0743 36.1119C34.1524 36.1119 34.1951 36.0553 34.188 35.9704C34.1844 35.9328 34.1844 35.8949 34.188 35.8573C34.188 35.8573 34.188 35.8573 34.188 35.8997C34.188 35.9422 34.259 36.027 34.3584 35.9704Z" fill="#D20000"/>
<path d="M31.027 36.1262C30.9326 36.051 30.8447 35.9682 30.7642 35.8786C30.7525 35.8761 30.7404 35.8761 30.7287 35.8786C30.7287 35.8786 30.7287 35.8786 30.686 35.8786L30.3877 35.9918C30.338 35.9918 30.3877 36.0413 30.3877 36.0625C30.488 36.1352 30.5706 36.2295 30.6292 36.3384C30.6292 36.3808 30.6789 36.3879 30.7216 36.3384L31.0199 36.2323C31.0838 36.1969 31.0909 36.1757 31.027 36.1262Z" fill="#D20000"/>
<path d="M32.3979 34.8032C32.2879 34.7115 32.1596 34.644 32.0214 34.6052C31.9149 34.6052 31.8794 34.6052 31.8509 34.6971C31.8225 34.7891 31.8012 34.9023 31.7799 35.0013C31.7731 34.885 31.7589 34.7692 31.7373 34.6547C31.7373 34.5981 31.7373 34.5557 31.6378 34.5557C31.4418 34.5467 31.248 34.6001 31.0845 34.7082C30.921 34.8163 30.7964 34.9735 30.7286 35.1569C30.6949 35.2592 30.685 35.3678 30.6998 35.4745C30.7145 35.5811 30.7536 35.683 30.8139 35.7724C30.925 35.9066 31.0513 36.0277 31.1903 36.1331C31.2898 36.2322 31.2898 36.2322 31.4176 36.1685C31.4176 36.1685 31.4176 36.218 31.375 36.2392C31.3572 36.2519 31.3432 36.2691 31.3345 36.289C31.3257 36.3089 31.3225 36.3308 31.3253 36.3524C31.3253 36.4797 31.3679 36.6 31.3963 36.7203C31.3995 36.7513 31.4093 36.7813 31.4251 36.8083C31.4409 36.8353 31.4623 36.8586 31.4878 36.8767C31.5134 36.8947 31.5425 36.9072 31.5733 36.9131C31.6041 36.9191 31.6358 36.9185 31.6663 36.9113C31.8182 36.8973 31.9669 36.8591 32.1067 36.7981C32.2599 36.7431 32.3945 36.6463 32.495 36.5187C32.5955 36.3911 32.6578 36.2378 32.6749 36.0765C32.7248 35.7916 32.7102 35.4992 32.6323 35.2206C32.602 35.0597 32.5197 34.9132 32.3979 34.8032Z" fill="#D20000"/>
<path d="M30.2812 36.0766L30.061 35.921C29.9828 35.8573 29.9686 35.8573 29.8905 35.921C29.8232 35.983 29.7494 36.0375 29.6703 36.0837C29.7426 35.9982 29.8024 35.9029 29.8479 35.8007C29.8725 35.7278 29.8748 35.6492 29.8546 35.5749C29.8344 35.5006 29.7925 35.4339 29.7342 35.3834C29.6928 35.3546 29.6422 35.3421 29.5921 35.348C29.5265 35.3495 29.4626 35.3691 29.4075 35.4046L28.6119 35.8856C28.5316 35.9213 28.4667 35.9844 28.429 36.0635C28.3912 36.1426 28.383 36.2325 28.4059 36.3171C28.4149 36.3711 28.4317 36.4235 28.4556 36.4727C28.5269 36.6064 28.6052 36.7363 28.69 36.8618C28.7267 36.9304 28.7459 37.0069 28.7459 37.0846C28.7459 37.1623 28.7267 37.2389 28.69 37.3074C28.6431 37.3871 28.6072 37.4728 28.5835 37.5621C28.5697 37.6141 28.5734 37.6692 28.5939 37.719C28.6144 37.7688 28.6507 37.8105 28.6971 37.838C28.7755 37.8847 28.8651 37.9094 28.9564 37.9094C29.0477 37.9094 29.1373 37.8847 29.2157 37.838C29.314 37.7727 29.4066 37.6993 29.4927 37.6187C29.5424 37.5763 29.5921 37.548 29.5708 37.4701C29.6195 37.4845 29.6713 37.4845 29.72 37.4701C29.8199 37.4391 29.922 37.4155 30.0254 37.3994C30.2014 37.3733 30.3611 37.2824 30.4729 37.1447C30.5396 37.0654 30.5881 36.9725 30.6148 36.8725C30.6415 36.7725 30.6459 36.6679 30.6276 36.5661C30.6093 36.4642 30.5688 36.3676 30.509 36.283C30.4491 36.1985 30.3713 36.128 30.2812 36.0766Z" fill="#D20000"/>
<path d="M28.6474 37.0457C28.616 36.9421 28.5681 36.8441 28.5053 36.7557C28.4698 36.6991 28.4343 36.6921 28.3704 36.7133L26.8645 37.2863C26.6372 37.3711 26.4028 37.449 26.1542 37.5551C25.8851 37.705 25.6264 37.8728 25.3799 38.0573C25.3799 38.0573 25.3373 38.0573 25.3799 38.1068C25.4225 38.1563 25.4296 38.1068 25.458 38.1068L25.9624 38.029C26.119 38.0185 26.274 37.99 26.4241 37.9441L27.2907 37.6117L27.4185 37.5621L27.8234 37.4136H27.866L28.2425 37.265H28.278H28.3562L28.5053 37.2084H28.5764C28.598 37.2178 28.6225 37.2182 28.6445 37.2096C28.6665 37.201 28.6841 37.184 28.6936 37.1625C28.703 37.1409 28.7034 37.1165 28.6948 37.0946C28.6861 37.0727 28.6691 37.0551 28.6474 37.0457Z" fill="#D20000"/>
<path d="M83.7189 21.1508C82.9985 20.4249 82.1399 19.8496 81.1934 19.4585C80.2469 19.0673 79.2315 18.8683 78.2068 18.873V24.2562C78.1976 25.9965 77.6218 27.6868 76.5659 29.0735V33.6007L76.9992 33.4522L78.8105 32.8438C78.8748 32.8263 78.9319 32.7892 78.9739 32.7377C79.1226 32.5587 79.3162 32.422 79.5351 32.3416L80.906 31.8323L83.6763 30.7924C83.8332 30.7341 83.9989 30.703 84.1664 30.7005C84.4387 30.6975 84.7055 30.7772 84.9313 30.9288C85.1572 31.0804 85.3314 31.2968 85.4308 31.5493C85.4992 31.708 85.5344 31.8789 85.5344 32.0516C85.5344 32.2243 85.4992 32.3951 85.4308 32.5538C85.2729 32.8795 84.9959 33.1326 84.6565 33.2612L82.3338 34.1242L80.5437 34.7892C80.3804 34.8509 80.207 34.882 80.0323 34.8811C79.9543 34.8881 79.8759 34.8881 79.7979 34.8811C79.6663 34.9114 79.5378 34.954 79.4143 35.0084L78.704 35.3126L76.6227 36.1615V36.6496H83.591C83.9162 36.6496 84.2383 36.5857 84.5386 36.4615C84.839 36.3374 85.1118 36.1554 85.3415 35.9261C85.5711 35.6967 85.753 35.4245 85.8768 35.125C86.0006 34.8255 86.0639 34.5047 86.063 34.1808V26.6542C86.0594 25.6278 85.8502 24.6123 85.4477 23.6673C85.0452 22.7223 84.4575 21.8668 83.7189 21.1508ZM77.532 31.5989C77.4378 31.5989 77.3474 31.5616 77.2808 31.4953C77.2142 31.4289 77.1768 31.339 77.1768 31.2452C77.1768 31.1514 77.2142 31.0614 77.2808 30.9951C77.3474 30.9287 77.4378 30.8915 77.532 30.8915C77.6262 30.8915 77.7165 30.9287 77.7831 30.9951C77.8497 31.0614 77.8871 31.1514 77.8871 31.2452C77.8871 31.339 77.8497 31.4289 77.7831 31.4953C77.7165 31.5616 77.6262 31.5989 77.532 31.5989ZM77.532 30.1416C77.4378 30.1416 77.3474 30.1044 77.2808 30.038C77.2142 29.9717 77.1768 29.8818 77.1768 29.7879C77.1768 29.6941 77.2142 29.6042 77.2808 29.5378C77.3474 29.4715 77.4378 29.4343 77.532 29.4343C77.6262 29.4343 77.7165 29.4715 77.7831 29.5378C77.8497 29.6042 77.8871 29.6941 77.8871 29.7879C77.8871 29.8818 77.8497 29.9717 77.7831 30.038C77.7165 30.1044 77.6262 30.1416 77.532 30.1416ZM81.0268 27.0221H80.7142V26.6047H81.0268V27.0221ZM81.0268 26.4491H80.7142V24.7584H81.0268V26.4491ZM81.0268 24.6311H80.7142V24.2138H81.0268V24.6311ZM81.6305 27.0221H81.2967V26.6047H81.6305V27.0221ZM81.6305 26.4491H81.2967V24.7584H81.6305V26.4491ZM81.6305 24.6311H81.2967V24.2138H81.6305V24.6311ZM82.2272 27.0221H81.9005V26.6047H82.2272V27.0221ZM82.2272 26.4491H81.9005V24.7584H82.2272V26.4491ZM82.2272 24.6311H81.9005V24.2138H82.2272V24.6311ZM82.8168 27.0221H82.49V26.6047H82.8168V27.0221ZM82.8168 26.4491H82.49V24.7584H82.8168V26.4491ZM82.8168 24.6311H82.49V24.2138H82.8168V24.6311ZM83.4134 27.0221H83.108V26.6047H83.4348L83.4134 27.0221ZM83.4134 26.4491H83.108V24.7584H83.4348L83.4134 26.4491ZM83.4134 24.6311H83.108V24.2138H83.4348L83.4134 24.6311Z" fill="#F16E20"/>
<path d="M76.5588 6.22491H83.662V5.97025C83.662 5.18967 83.5074 4.41675 83.207 3.69577C82.9066 2.97478 82.4664 2.31989 81.9115 1.76859C81.3566 1.2173 80.6979 0.780426 79.9732 0.483C79.2485 0.185573 78.472 0.0334344 77.6882 0.0352952H76.5588V6.22491Z" fill="#F16E20"/>
<path d="M68.9015 6.78381V9.19599C68.9015 9.35424 68.9641 9.50612 69.0758 9.61868C69.1875 9.73124 69.3393 9.79541 69.4982 9.79727H83.037C83.1971 9.79727 83.3507 9.73392 83.4639 9.62116C83.5771 9.5084 83.6407 9.35546 83.6407 9.19599V6.78381H68.9015Z" fill="#F16E20"/>
<path d="M76.0047 6.22491V0.0352952H74.8682C74.0847 0.0334325 73.3086 0.185622 72.5843 0.483134C71.86 0.780647 71.2018 1.21763 70.6474 1.76902C70.0931 2.32041 69.6535 2.97536 69.3539 3.6963C69.0543 4.41725 68.9006 5.19 68.9015 5.97025V6.22491H76.0047Z" fill="#F16E20"/>
<path d="M70.791 16.5174C72.1619 16.4396 72.9219 15.4563 73.7743 14.6287C74.4349 13.9991 75.195 13.4615 76.1539 14.0274C76.232 14.0769 76.3883 14.0274 76.4878 13.9779C76.7611 13.8278 77.0745 13.7655 77.3848 13.7997C77.6951 13.8339 77.9871 13.9629 78.2209 14.1689C78.4951 14.3793 78.7583 14.6036 79.0094 14.8409C79.805 15.6049 80.5153 16.482 81.7584 16.5811C80.8292 16.9428 79.8131 17.0216 78.8389 16.8074C78.0576 16.673 77.3117 16.3759 76.5446 16.1778C76.3716 16.1207 76.1848 16.1207 76.0118 16.1778C74.5023 16.8432 72.8266 17.0404 71.2029 16.7438C71.0817 16.7157 70.9629 16.6779 70.8478 16.6306L70.791 16.5174Z" fill="#F16E20"/>
<path d="M74.3426 24.2562V18.873C72.2703 18.873 70.2829 19.6929 68.8175 21.1521C67.3522 22.6114 66.529 24.5906 66.529 26.6543V34.1738C66.5294 34.5734 66.6273 34.9668 66.8141 35.3205C67.0009 35.6741 67.2712 35.9773 67.6016 36.204C67.5822 35.9596 67.6314 35.7147 67.7436 35.4966C67.8364 35.3174 67.9639 35.1582 68.1187 35.0283C68.2736 34.8984 68.4527 34.8003 68.6458 34.7397L72.9077 33.3744C73.1359 33.2954 73.3764 33.257 73.618 33.2612C73.9334 33.2614 74.2448 33.3313 74.5298 33.4659C74.8148 33.6004 75.0662 33.7963 75.266 34.0394L76.026 33.7706V29.0735C74.9554 27.6919 74.3645 26.0013 74.3426 24.2562ZM69.4626 27.0221H69.1359V26.6048H69.4626V27.0221ZM69.4626 26.4491H69.1359V24.7585H69.4626V26.4491ZM69.4626 24.6312H69.1359V24.2138H69.4626V24.6312ZM70.0664 27.0221H69.7326V26.6048H70.0664V27.0221ZM70.0664 26.4491H69.7326V24.7585H70.0664V26.4491ZM70.0664 24.6312H69.7326V24.2138H70.0664V24.6312ZM70.656 27.0221H70.3221V26.6048H70.656V27.0221ZM70.656 26.4491H70.3221V24.7585H70.656V26.4491ZM70.656 24.6312H70.3221V24.2138H70.656V24.6312ZM71.2526 27.0221H70.9188V26.6048H71.2526V27.0221ZM71.2526 26.4491H70.9188V24.7585H71.2526V26.4491ZM71.2526 24.6312H70.9188V24.2138H71.2526V24.6312ZM71.8422 27.0221H71.5226V26.6048H71.8422V27.0221ZM71.8422 26.4491H71.5226V24.7585H71.8422V26.4491ZM71.8422 24.6312H71.5226V24.2138H71.8422V24.6312ZM75.0174 31.5989C74.9268 31.5972 74.8404 31.561 74.7757 31.4979C74.711 31.4348 74.6729 31.3495 74.6693 31.2593C74.6711 31.168 74.7084 31.0809 74.7733 31.0163C74.8381 30.9516 74.9256 30.9145 75.0174 30.9127C75.1116 30.9127 75.2019 30.95 75.2685 31.0163C75.3351 31.0827 75.3725 31.1726 75.3725 31.2664C75.3725 31.3602 75.3351 31.4502 75.2685 31.5165C75.2019 31.5829 75.1116 31.6201 75.0174 31.6201V31.5989ZM75.0174 30.1417C74.9232 30.1417 74.8328 30.1044 74.7662 30.0381C74.6996 29.9718 74.6622 29.8818 74.6622 29.788C74.6622 29.6942 74.6996 29.6042 74.7662 29.5379C74.8328 29.4716 74.9232 29.4343 75.0174 29.4343C75.1116 29.4343 75.2019 29.4716 75.2685 29.5379C75.3351 29.6042 75.3725 29.6942 75.3725 29.788C75.3725 29.8818 75.3351 29.9718 75.2685 30.0381C75.2019 30.1044 75.1116 30.1417 75.0174 30.1417Z" fill="#F16E20"/>
<path d="M68.5534 36.3878L69.0222 37.7106C69.0222 37.8026 69.1004 37.8945 69.1359 37.9936L69.1998 38.1704C69.3206 38.4675 69.4342 38.7646 69.5692 39.0546C69.6333 39.1786 69.7426 39.2734 69.8748 39.3194C70.0069 39.3655 70.1518 39.3593 70.2795 39.3022C71.622 38.7292 72.9645 38.1492 74.307 37.5833C74.5729 37.4918 74.8008 37.3151 74.955 37.0809C75.1093 36.8466 75.1811 36.568 75.1594 36.2888C75.1423 36.1258 75.1825 35.9619 75.2731 35.8251C75.3638 35.6884 75.4994 35.5872 75.6567 35.5389C76.7719 35.0933 77.88 34.6335 78.9881 34.1808C79.2669 34.0327 79.5822 33.9665 79.8973 33.9898C79.9885 34.0107 80.0832 34.0107 80.1743 33.9898C81.5453 33.4805 82.9091 32.9641 84.28 32.4618C84.3916 32.4202 84.4832 32.3378 84.5359 32.2313C84.5887 32.1249 84.5988 32.0024 84.5641 31.8888C84.5158 31.7828 84.4283 31.6994 84.3199 31.6559C84.2114 31.6124 84.0903 31.6123 83.9817 31.6554L79.8476 33.2046C79.7776 33.2302 79.7145 33.2713 79.6629 33.3248C79.5124 33.5113 79.3097 33.6492 79.0804 33.721L77.9581 34.103C77.1128 34.393 76.2604 34.6759 75.4223 34.973C75.2673 35.007 75.1057 34.9958 74.9571 34.9406C74.8084 34.8853 74.6789 34.7885 74.5841 34.6618C74.4262 34.4463 74.2023 34.2876 73.9461 34.2098C73.6899 34.132 73.4152 34.1392 73.1634 34.2303L68.9015 35.5955C68.8222 35.619 68.749 35.6594 68.6871 35.7139C68.6251 35.7684 68.5758 35.8357 68.5427 35.9112C68.5096 35.9866 68.4933 36.0684 68.4952 36.1507C68.497 36.233 68.5169 36.3139 68.5534 36.3878ZM83.4347 32.1011C83.505 32.0207 83.5948 31.9596 83.6955 31.9237C83.7962 31.8878 83.9046 31.8782 84.0101 31.8959C84.0468 31.903 84.081 31.9199 84.1088 31.9448C84.1366 31.9697 84.1571 32.0017 84.1681 32.0373C84.179 32.0729 84.18 32.1109 84.171 32.147C84.1619 32.1832 84.1431 32.2162 84.1166 32.2425C84.0438 32.3267 83.9478 32.3877 83.8404 32.4179C83.733 32.4481 83.6191 32.4462 83.5129 32.4123C83.3708 32.3486 83.3424 32.2425 83.4347 32.1011ZM74.0868 36.5859C74.1446 36.5505 74.2134 36.5374 74.2801 36.5492C74.3469 36.5609 74.407 36.5966 74.4491 36.6495C74.4988 36.7002 74.5305 36.7656 74.5394 36.8358C74.5484 36.906 74.5342 36.9772 74.4988 37.0386C74.4438 37.0917 74.3816 37.1369 74.3142 37.173L70.6844 38.6514C70.6327 38.6828 70.5735 38.7 70.513 38.7011C70.4524 38.7022 70.3927 38.6872 70.3398 38.6576C70.287 38.6281 70.2431 38.5851 70.2125 38.533C70.1819 38.481 70.1658 38.4217 70.1659 38.3614C70.1556 38.2889 70.1713 38.2151 70.2103 38.153C70.2493 38.0909 70.309 38.0444 70.379 38.0219L74.0868 36.5859ZM74.0868 35.6592C74.134 35.7128 74.1634 35.7797 74.171 35.8506C74.1786 35.9215 74.1641 35.993 74.1295 36.0553C74.0709 36.1033 74.0064 36.1437 73.9377 36.1756L70.2724 37.5904C70.22 37.6189 70.161 37.6332 70.1014 37.6318C70.0417 37.6305 69.9834 37.6136 69.9323 37.5828C69.8813 37.552 69.8392 37.5084 69.8104 37.4563C69.7816 37.4043 69.767 37.3456 69.7681 37.2862C69.7581 37.2146 69.7741 37.1418 69.8132 37.0809C69.8522 37.02 69.9118 36.9749 69.9812 36.9537L73.7175 35.5955C73.7785 35.5587 73.8507 35.5449 73.9211 35.5566C73.9915 35.5683 74.0553 35.6047 74.1011 35.6592H74.0868ZM69.6473 35.8643L72.6804 34.8528C72.9148 34.7679 73.1563 34.683 73.3907 34.6123C73.4661 34.6017 73.5426 34.6017 73.618 34.6123C73.6756 34.6385 73.7247 34.6802 73.7599 34.7327C73.795 34.7852 73.8147 34.8463 73.8169 34.9094C73.8213 34.9766 73.8026 35.0434 73.7639 35.0986C73.7252 35.1539 73.6687 35.1944 73.6038 35.2135L71.4018 35.9987L69.8604 36.5364C69.8164 36.5592 69.7677 36.5718 69.7181 36.5732C69.6685 36.5745 69.6192 36.5646 69.574 36.5441C69.5288 36.5237 69.4889 36.4932 69.4573 36.4551C69.4257 36.417 69.4032 36.3722 69.3916 36.3241C69.3714 36.2765 69.3626 36.2248 69.366 36.1732C69.3693 36.1216 69.3847 36.0715 69.4109 36.0269C69.4371 35.9823 69.4734 35.9443 69.5169 35.9161C69.5604 35.8879 69.6099 35.8702 69.6615 35.8643H69.6473Z" fill="#F16E20"/>
</g>
<defs>
<clipPath id="clip0_10_2653">
<rect width="114" height="82" fill="white"/>
</clipPath>
</defs>
</svg>
