<svg width="99" height="72" viewBox="0 0 99 72" fill="none" xmlns="http://www.w3.org/2000/svg">
<g clip-path="url(#clip0_361_716)">
<path d="M1.48815 57.813L0 61.1162H0.61494L0.940858 60.3488H2.61349L2.94556 61.1162H3.5605L2.09694 57.813H1.48815ZM1.16839 59.8698L1.78332 58.427L2.39826 59.8698H1.16839Z" fill="white"/>
<path d="M6.2723 59.3972C6.41972 59.3399 6.54624 59.2392 6.63511 59.1086C6.72152 58.9755 6.76448 58.8189 6.7581 58.6604C6.76114 58.5407 6.73469 58.4221 6.68108 58.3151C6.62747 58.208 6.54833 58.1158 6.45063 58.0464C6.18942 57.8844 5.88437 57.8072 5.57742 57.8254H4.10156V61.1286H5.66966C5.99687 61.1501 6.32236 61.0662 6.59822 60.8892C6.70339 60.8115 6.78802 60.7094 6.84481 60.5917C6.90159 60.474 6.92882 60.3443 6.92414 60.2138C6.93176 60.0276 6.87292 59.8449 6.7581 59.698C6.63363 59.5472 6.46291 59.4415 6.2723 59.3972ZM4.7042 58.2797H5.53437C5.69538 58.2703 5.85508 58.3134 5.98943 58.4025C6.03829 58.4468 6.07734 58.5008 6.10406 58.5611C6.13078 58.6214 6.14458 58.6866 6.14458 58.7525C6.14458 58.8184 6.13078 58.8836 6.10406 58.9438C6.07734 59.0041 6.03829 59.0581 5.98943 59.1025C5.85434 59.1894 5.69469 59.2303 5.53437 59.2191H4.7042V58.2797ZM5.65121 60.6436H4.7042V59.6673H5.65121C6.08167 59.6673 6.30305 59.8331 6.30305 60.1524C6.30305 60.4716 6.08167 60.6436 5.65121 60.6436Z" fill="white"/>
<path d="M7.17627 58.3287H8.27086V61.1162H8.87965V58.3287H9.97424V57.813H7.17627V58.3287Z" fill="white"/>
<path d="M12.9137 57.985C12.6344 57.8344 12.321 57.7582 12.0036 57.764C11.6844 57.7591 11.3691 57.8352 11.0873 57.985C10.8291 58.1285 10.6161 58.3411 10.4724 58.599C10.3131 58.8615 10.232 59.164 10.2387 59.4709C10.2319 59.7682 10.3054 60.062 10.4515 60.3212C10.5976 60.5805 10.8108 60.7958 11.0689 60.9444C11.3511 61.0924 11.6664 61.1663 11.9851 61.1593C12.3082 61.1701 12.6284 61.096 12.9137 60.9444C13.17 60.7984 13.3824 60.5864 13.5286 60.3304C13.6778 60.0629 13.7561 59.7617 13.7561 59.4555C13.7561 59.1493 13.6778 58.8481 13.5286 58.5806C13.3822 58.3295 13.1695 58.1235 12.9137 57.985ZM13.0121 60.0603C12.9144 60.2336 12.7722 60.3777 12.6001 60.4778C12.4162 60.5746 12.2115 60.6252 12.0036 60.6252C11.7957 60.6252 11.591 60.5746 11.4071 60.4778C11.2333 60.3779 11.089 60.2338 10.9889 60.0603C10.887 59.872 10.8361 59.6603 10.8414 59.4463C10.8361 59.2323 10.887 59.0206 10.9889 58.8323C11.0874 58.6591 11.2322 58.5167 11.4071 58.4209C11.591 58.3241 11.7957 58.2736 12.0036 58.2736C12.2115 58.2736 12.4162 58.3241 12.6001 58.4209C12.7731 58.5171 12.9158 58.6596 13.0121 58.8323C13.1187 59.019 13.1719 59.2314 13.1658 59.4463C13.1695 59.6625 13.1119 59.8753 12.9998 60.0603H13.0121Z" fill="white"/>
<path d="M16.5604 57.9543C16.3257 57.8534 16.0717 57.8052 15.8163 57.8131H14.4512V61.1163H15.0661V60.1708H15.8163C16.0717 60.1786 16.3257 60.1304 16.5604 60.0296C16.7627 59.949 16.9347 59.8073 17.0524 59.6243C17.1658 59.4396 17.2254 59.227 17.2246 59.0104C17.2264 58.7936 17.1667 58.5807 17.0524 58.3964C16.9407 58.1997 16.768 58.0446 16.5604 57.9543ZM16.3944 59.4708C16.2169 59.6004 15.9985 59.6615 15.7794 59.6428H15.0661V58.3288H15.7856C16.0046 58.3101 16.2231 58.3712 16.4005 58.5007C16.4664 58.5633 16.5188 58.6385 16.5547 58.7219C16.5905 58.8053 16.609 58.8951 16.609 58.9858C16.609 59.0765 16.5905 59.1663 16.5547 59.2497C16.5188 59.3331 16.4664 59.4083 16.4005 59.4708H16.3944Z" fill="white"/>
<path d="M18.7986 58.4515C18.9873 58.3497 19.1992 58.2989 19.4136 58.3042C19.5803 58.3014 19.7457 58.3346 19.8985 58.4013C20.0513 58.4681 20.1879 58.5669 20.2991 58.691L20.6927 58.3165C20.5389 58.1371 20.3451 57.9962 20.1269 57.9051C19.8907 57.8094 19.6378 57.7614 19.3828 57.7639C19.0675 57.7592 18.7563 57.8353 18.4789 57.9849C18.2202 58.1279 18.0071 58.3406 17.8639 58.5989C17.7131 58.8659 17.6338 59.1673 17.6338 59.4738C17.6338 59.7804 17.7131 60.0818 17.8639 60.3488C18.0094 60.6053 18.222 60.8175 18.4789 60.9627C18.7339 61.0904 19.0131 61.163 19.2981 61.1757C19.5831 61.1884 19.8676 61.1409 20.1331 61.0364C20.3524 60.9474 20.5467 60.8062 20.6988 60.6251L20.2929 60.2321C20.1831 60.3583 20.0469 60.4589 19.8939 60.5268C19.7409 60.5947 19.5748 60.6283 19.4074 60.6251C19.1931 60.6303 18.9811 60.5795 18.7925 60.4777C18.6155 60.3799 18.4688 60.2355 18.3682 60.0602C18.2646 59.8725 18.2136 59.6604 18.2206 59.4462C18.2154 59.2322 18.2662 59.0205 18.3682 58.8322C18.4735 58.6679 18.6225 58.536 18.7986 58.4515Z" fill="white"/>
<path d="M25.5751 57.813L24.1115 61.0671L22.9739 59.4094L24.0992 57.813H23.4474L22.5004 59.1945H21.8854V57.813H21.2705V61.1162H21.8854V59.7225H22.5004L23.4658 61.1162H24.7203L25.0462 60.3488H26.7004L27.0571 61.1162H27.672L26.1839 57.813H25.5751ZM25.2553 59.8698L25.8703 58.427L26.4852 59.8698H25.2553Z" fill="white"/>
<path d="M28.4348 57.9543C28.236 58.0414 28.0686 58.187 27.9551 58.3718C27.8359 58.5676 27.7761 58.7936 27.783 59.0226C27.7744 59.2602 27.8411 59.4944 27.9736 59.6919C28.1022 59.8797 28.2874 60.0217 28.5024 60.0971L27.7953 61.1163H28.4102L29.0251 60.1954H29.9106V61.1163H30.5256V57.8131H29.1666C28.9152 57.8058 28.6653 57.8541 28.4348 57.9543ZM29.9414 58.3288V59.6919H29.1666C28.962 59.7078 28.7593 59.644 28.6008 59.5138C28.5337 59.4505 28.4817 59.373 28.4487 59.2869C28.4157 59.2008 28.4025 59.1084 28.4102 59.0165C28.4014 58.9222 28.4146 58.8271 28.4487 58.7386C28.4828 58.6502 28.537 58.5709 28.607 58.5069C28.7715 58.3792 28.977 58.3159 29.185 58.3288H29.9414Z" fill="white"/>
<path d="M35.6232 57.813H34.9714L34.0183 59.1945H33.3849V57.813H32.7822V61.1162H33.3849V59.7225H33.9998L34.9714 61.1162H35.6663L34.4918 59.4094L35.6232 57.813Z" fill="white"/>
<path d="M38.3601 57.813L37.3516 59.7532L36.3738 57.813H35.7158L37.0379 60.2689L36.9826 60.3488C36.9355 60.4391 36.865 60.5152 36.7785 60.5692C36.692 60.6231 36.5926 60.653 36.4906 60.6557C36.3815 60.6524 36.2735 60.6317 36.1709 60.5943L36.0171 61.0733C36.1717 61.1429 36.3395 61.1785 36.5091 61.1776C36.7118 61.1799 36.91 61.1175 37.0748 60.9996C37.2599 60.8628 37.4096 60.6839 37.5114 60.4777L38.9443 57.813H38.3601Z" fill="white"/>
<path d="M42.0062 57.813H41.2868L40.5058 58.912L39.7248 57.813H39.0176L40.1368 59.4216L38.9438 61.1162H39.651L40.5058 59.9128L41.3667 61.1162H42.0923L40.8932 59.3971L42.0062 57.813Z" fill="white"/>
<path d="M44.8289 59.176H43.1193V57.813H42.5044V61.1162H43.1193V59.6979H44.8289V61.1162H45.4438V57.813H44.8289V59.176Z" fill="white"/>
<path d="M46.7906 57.9542C46.5931 58.0432 46.4262 58.1884 46.311 58.3717C46.1875 58.5665 46.1215 58.792 46.1204 59.0225C46.1118 59.2601 46.1785 59.4943 46.311 59.6918C46.4396 59.8796 46.6248 60.0216 46.8398 60.097L46.1327 61.1162H46.7476L47.3625 60.1952H48.2481V61.1162H48.863V57.813H47.5286C47.2752 57.805 47.0231 57.8533 46.7906 57.9542ZM48.2972 58.3287V59.6918H47.5224C47.3179 59.7077 47.1151 59.6439 46.9567 59.5137C46.8895 59.4504 46.8376 59.3729 46.8046 59.2868C46.7716 59.2007 46.7584 59.1083 46.766 59.0164C46.7599 58.9223 46.7743 58.828 46.8083 58.74C46.8423 58.652 46.895 58.5724 46.9628 58.5068C47.1297 58.3791 47.3372 58.3159 47.547 58.3287H48.2972Z" fill="white"/>
<path d="M15.0842 39.2154C15.0749 38.8441 15.0043 38.4769 14.8751 38.1286C14.6013 37.8025 14.2591 37.5405 13.8727 37.3611C12.2585 36.4627 10.4554 35.9559 8.60886 35.8814C7.68007 35.8058 6.74554 35.918 5.86117 36.2113C4.97679 36.5045 4.16074 36.9729 3.46182 37.5883C2.76904 38.211 2.2284 38.9839 1.88142 39.8478C1.69175 40.2629 1.59875 40.7156 1.6094 41.1718C1.62005 41.628 1.73408 42.0759 1.94292 42.4818C2.10056 42.8277 2.34396 43.1278 2.6501 43.3536C2.94981 43.5752 3.21685 43.8376 3.44337 44.1334C3.62491 44.3817 3.7121 44.6864 3.68934 44.993C3.68213 45.203 3.64059 45.4104 3.56636 45.607C3.50412 45.7936 3.41726 45.9712 3.30808 46.135C3.21347 46.3095 3.09325 46.4688 2.95142 46.6078C2.8107 46.7584 2.65856 46.898 2.49636 47.0253C2.36722 47.1297 2.19504 47.2586 1.97366 47.4059C1.85682 47.4858 1.66619 47.6024 1.41407 47.7498C1.32755 47.8108 1.23717 47.8662 1.14349 47.9156C1.0451 47.9647 0.946714 48.0261 0.854473 48.0813L0.307177 48.3883C0.226616 48.4209 0.15535 48.4729 0.0996863 48.5396C0.0440224 48.6062 0.00567712 48.6856 -0.0119558 48.7706C-0.0295887 48.8555 -0.0259654 48.9436 -0.0014067 49.0268C0.023152 49.1101 0.0678889 49.186 0.128844 49.2479C0.368115 49.5848 0.64681 49.8919 0.959013 50.1627C1.26714 50.4623 1.60505 50.7298 1.96751 50.9609C2.16442 51.0874 2.39058 51.1611 2.62427 51.1751C2.85796 51.1891 3.09132 51.1428 3.30193 51.0408C4.01557 50.5 4.66725 49.8823 5.24514 49.1988C6.05071 48.2778 6.6964 47.5594 7.1699 47.0437C7.46771 46.7655 7.83895 46.578 8.2399 46.5034C8.44543 46.456 8.65972 46.4621 8.86218 46.5212C9.06464 46.5804 9.24847 46.6905 9.39598 46.8411C9.60113 47.0966 9.74719 47.3942 9.82373 47.7126C9.90028 48.031 9.9054 48.3624 9.83874 48.683C9.76495 49.5672 9.68501 50.2303 9.59891 50.6724C9.55587 50.9425 9.59892 51.1206 9.69731 51.1942C9.84754 51.2935 10.0217 51.3507 10.2016 51.36C10.4613 51.3846 10.7228 51.3846 10.9825 51.36C11.2159 51.3442 11.4502 51.3442 11.6836 51.36C11.8756 51.3451 12.0666 51.3184 12.2555 51.2802C12.4445 51.243 12.6155 51.1435 12.7413 50.9978C13.1861 50.3461 13.4994 49.6141 13.6637 48.8427C13.9957 47.7088 14.211 46.9229 14.3094 46.485C14.3094 46.4113 14.3401 46.3315 14.3585 46.2517C14.377 46.1718 14.3585 46.0859 14.4077 46.0061C14.6291 44.9807 14.8198 43.8694 14.9796 42.6844C15.1412 41.5353 15.1763 40.372 15.0842 39.2154ZM11.124 41.7081C11.0996 42.1613 10.9553 42.5998 10.7058 42.9791C10.4843 43.2142 10.2095 43.3926 9.90451 43.4995C9.59951 43.6063 9.27325 43.6384 8.95323 43.5931C8.57333 43.5555 8.19565 43.4981 7.82174 43.4212C7.45616 43.3394 7.10124 43.2158 6.76404 43.0528C6.19947 42.796 5.75801 42.3288 5.53416 41.7511C5.39657 41.4538 5.34441 41.1241 5.3835 40.7988C5.42258 40.4736 5.55139 40.1656 5.75554 39.9092C6.04206 39.5391 6.43791 39.2685 6.88703 39.1355C7.91404 38.8468 9.00667 38.8942 10.0048 39.2706C10.2489 39.3596 10.4706 39.5007 10.6544 39.6842C10.8381 39.8677 10.9795 40.0891 11.0686 40.3328C11.1876 40.7817 11.2065 41.2512 11.124 41.7081Z" fill="white"/>
<path d="M15.9881 49.5181C16.0431 49.7697 16.1192 50.0161 16.2157 50.2549C16.3022 50.511 16.4764 50.7284 16.7076 50.8689C16.8364 50.9541 16.9747 51.0242 17.1196 51.0776C17.3862 51.1487 17.6616 51.1818 17.9375 51.1759C18.2677 51.1928 18.5983 51.1533 18.9152 51.0592C19.0254 51.0334 19.1239 50.9717 19.1951 50.8839C19.2664 50.7961 19.3063 50.6871 19.3088 50.5742C19.3077 50.4413 19.2891 50.3092 19.2535 50.1812C19.2135 50.0563 19.1807 49.9292 19.1551 49.8005C18.9325 48.6583 18.8396 47.4946 18.8783 46.3315C18.8593 45.2676 18.9045 44.2034 19.0136 43.1449C19.9496 43.1188 20.8863 43.1536 21.8178 43.2493C22.9492 43.3475 23.5765 43.3967 23.6995 43.3967C24.1176 43.4335 24.3144 43.1572 24.3144 42.5739C24.3473 42.1564 24.2864 41.7369 24.1361 41.3459C24.0252 41.139 23.8505 40.9733 23.638 40.8732C23.4415 40.7698 23.2356 40.6855 23.023 40.6214L18.1896 40.5232C17.9006 40.5232 17.6915 40.5662 17.5747 40.5846L17.2242 40.6521C17.0436 40.7195 16.8858 40.8366 16.7691 40.9898C16.5972 41.2685 16.4609 41.5676 16.3632 41.8801C16.1916 42.4086 16.0661 42.9509 15.9881 43.501C15.8865 44.2074 15.8208 44.9185 15.7913 45.6316C15.7544 46.3684 15.7544 47.0867 15.7913 47.7805C15.8034 48.3645 15.8693 48.9462 15.9881 49.5181Z" fill="white"/>
<path d="M33.0035 49.4444C33.3238 49.0925 33.6197 48.7191 33.889 48.327C34.1657 47.9355 34.3871 47.5078 34.547 47.056C34.7969 46.2629 34.8786 45.4264 34.7868 44.6001C34.7599 44.0712 34.626 43.5532 34.3932 43.0774C34.1787 42.6965 33.8852 42.3658 33.5323 42.1073C33.1868 41.8388 32.7979 41.6312 32.3824 41.4933C31.5628 41.2724 30.6992 41.2724 29.8796 41.4933C28.8653 41.7632 27.9309 42.2728 27.1554 42.9791L26.7741 43.3352C26.2086 43.9034 25.7411 44.5611 25.3905 45.2816C25.0187 46.0119 24.8469 46.8274 24.8924 47.6454C24.9051 48.1906 25.0351 48.7267 25.2737 49.2172C25.4847 49.6702 25.8113 50.0598 26.2207 50.347C26.6346 50.6442 27.0905 50.878 27.5736 51.0408C28.2127 51.2537 28.888 51.3372 29.5598 51.2864C30.2275 51.2268 30.873 51.0169 31.4477 50.6724C32.0212 50.3377 32.5449 49.9244 33.0035 49.4444ZM31.4169 47.7068C31.1406 48.1508 30.7257 48.4916 30.2363 48.6769C29.8941 48.8732 29.4903 48.933 29.1058 48.8441C28.7214 48.7553 28.3849 48.5245 28.1639 48.198C27.9305 47.928 27.7684 47.604 27.6922 47.2556C27.6159 46.9071 27.628 46.5452 27.7273 46.2026C28.1701 44.8723 28.9715 44.3094 30.1317 44.5141C31.2755 44.7229 31.8412 45.3491 31.8228 46.3929C31.8061 46.859 31.6661 47.3123 31.4169 47.7068Z" fill="white"/>
<path d="M46.1205 44.5632C46.0874 43.9961 45.9366 43.4421 45.6778 42.9362C45.4289 42.4681 45.065 42.0709 44.6201 41.7819C44.1756 41.5 43.6932 41.2829 43.1873 41.1372C42.5205 40.9349 41.8179 40.8783 41.1272 40.9714C40.4328 41.0625 39.7672 41.3057 39.1779 41.6836C38.7842 41.9439 38.4139 42.2376 38.071 42.5616C37.9893 42.3 37.8864 42.0454 37.7635 41.8003C37.658 41.546 37.4751 41.3313 37.2408 41.1863C37.0475 41.0923 36.8395 41.0321 36.6259 41.0083C36.3277 40.9713 36.0262 40.9713 35.728 41.0083C35.4528 41.0291 35.1848 41.1064 34.9409 41.2354C34.8401 41.2904 34.7567 41.3724 34.7002 41.4722C34.6437 41.5721 34.6163 41.6857 34.6212 41.8003C34.64 41.9424 34.6729 42.0823 34.7195 42.2178C34.7626 42.3652 34.8118 42.5002 34.861 42.6292C35.3018 44.0389 35.5722 45.4962 35.6666 46.9701C35.7861 49.6297 35.7718 52.2937 35.6235 54.9519C35.5866 55.351 35.6235 55.615 35.8326 55.7501C36.0396 55.8907 36.2833 55.9675 36.5336 55.9711C36.7627 55.9923 36.9933 55.9923 37.2223 55.9711C37.4522 55.9493 37.6767 55.8892 37.8865 55.7931C38.0553 55.6902 38.1884 55.538 38.2677 55.3571C38.3784 52.9012 38.4645 51.5566 38.5199 51.3048L38.6613 51.3478C39.5239 51.5566 40.4282 51.5161 41.2687 51.2311C42.3063 50.905 43.2522 50.3391 44.0297 49.5795C44.1466 49.4629 44.2757 49.3339 44.411 49.1866C44.695 48.8767 44.9502 48.5417 45.1735 48.1858C45.4053 47.8329 45.6108 47.4635 45.7885 47.0806C46.1096 46.2827 46.2238 45.4169 46.1205 44.5632ZM42.8552 46.9394C42.6561 47.5393 42.2393 48.0431 41.6868 48.3515C41.2484 48.5812 40.7408 48.6424 40.2602 48.5235C39.7759 48.3901 39.3558 48.0872 39.0769 47.67C38.798 47.2529 38.6789 46.7494 38.7413 46.2517C38.7904 45.7429 38.959 45.2528 39.2332 44.8211C39.5616 44.3597 40.0395 44.0257 40.5861 43.8756C40.7708 43.7919 40.9703 43.7457 41.1731 43.7397C41.3758 43.7337 41.5777 43.7679 41.7671 43.8405C41.9565 43.913 42.1295 44.0224 42.2762 44.1623C42.4229 44.3022 42.5403 44.4698 42.6215 44.6553C42.8363 44.9914 42.9693 45.373 43.0099 45.7697C43.0505 46.1663 42.9975 46.5669 42.8552 46.9394Z" fill="white"/>
<path d="M54.6066 49.1189C54.6742 49.3952 54.748 49.647 54.8218 49.8803C54.9138 50.1458 55.0247 50.4043 55.1539 50.6539C55.2729 50.911 55.4683 51.1254 55.7134 51.2679C55.9212 51.359 56.1405 51.421 56.3653 51.4521C56.6693 51.5086 56.9787 51.5312 57.2877 51.5196C57.5614 51.5141 57.8312 51.4536 58.081 51.3416C58.1856 51.2938 58.2719 51.2137 58.3273 51.113C58.3827 51.0124 58.4041 50.8966 58.3884 50.7828C58.3576 50.6456 58.3186 50.5102 58.2716 50.3776C58.2224 50.2364 58.1671 50.0952 58.1179 49.9601C57.6363 48.5697 57.3225 47.1268 57.1832 45.6622C57.0168 44.1763 56.9756 42.679 57.0602 41.1862C57.092 41.0433 57.0872 40.8948 57.0464 40.7542C57.0055 40.6136 56.9299 40.4856 56.8265 40.3819C56.6103 40.2342 56.3565 40.1512 56.0947 40.1424H55.9041C55.87 40.1229 55.8324 40.1104 55.7934 40.1056C55.4325 40.0537 55.0643 40.1026 54.7295 40.2468C54.4173 40.3613 54.1309 40.5366 53.8871 40.7626C53.8 40.8271 53.7355 40.9173 53.7026 41.0204C53.634 41.168 53.6084 41.3318 53.6288 41.4932C53.6288 41.6651 53.6595 41.8248 53.678 41.9721C53.7633 42.6592 53.7633 43.3542 53.678 44.0413C53.5837 44.8599 53.5038 45.5292 53.4382 46.049C53.3025 46.486 53.1014 46.9 52.8417 47.277C52.3128 48.0752 51.7717 48.5049 51.2121 48.5049C50.6525 48.5049 50.302 48.155 50.1667 47.4427C50.0651 46.7115 50.0651 45.9698 50.1667 45.2385C50.2228 44.509 50.361 43.7882 50.5787 43.0896C50.6217 42.9361 50.7017 42.6844 50.8247 42.3282C50.9477 41.9721 50.96 41.7143 50.8739 41.616C50.5903 41.2795 50.1912 41.0606 49.7547 41.002C49.3281 40.9144 48.8923 40.8794 48.4572 40.8976C48.2112 40.8976 48.0062 41.0757 47.8422 41.4318C47.6509 41.8234 47.5044 42.2354 47.4056 42.6598C47.2949 43.1141 47.2027 43.5624 47.135 44.0106C47.0674 44.4588 47.0244 44.778 47.0059 44.9807C46.9049 45.7424 46.8433 46.5089 46.8214 47.277C46.7966 48.0746 46.9946 48.8633 47.3933 49.5549C47.7429 50.1566 48.2905 50.6187 48.943 50.8627C49.5863 51.1231 50.2788 51.2404 50.9723 51.2065C51.8312 51.1717 52.6601 50.8808 53.3521 50.3715C53.8356 50.0248 54.2593 49.6017 54.6066 49.1189Z" fill="white"/>
<path d="M59.1019 52.502C59.1019 52.5941 59.1019 52.8459 59.1449 53.2634L57.46 54.2458L56.1317 55.0194C56.0641 55.0624 55.9595 55.0931 55.9841 55.1974C56.0087 55.3018 56.101 55.2773 56.1686 55.2895C56.4034 55.3331 56.6355 55.3905 56.8635 55.4615C57.0552 55.5394 57.264 55.5657 57.4691 55.5377C57.6742 55.5097 57.8682 55.4283 58.0319 55.3018C58.5915 54.9273 59.1818 54.608 59.7537 54.2642L60.5285 53.8098C60.5769 53.793 60.621 53.7657 60.6577 53.73C60.6864 53.702 60.7094 53.6686 60.7253 53.6318C60.8754 53.1236 61.1807 52.675 61.5985 52.3485C61.9678 52.1217 62.395 52.0066 62.8284 52.017H63.4864C64.1013 52.017 64.7163 52.017 65.3312 52.017L68.2829 52.1091C68.8929 52.097 69.4972 52.2274 70.0478 52.4898C70.5274 52.7913 70.888 53.2489 71.0686 53.7853C71.0931 53.8391 71.1318 53.8853 71.1805 53.9188C71.2293 53.9523 71.2862 53.972 71.3453 53.9756C71.7352 54.0493 72.1385 53.9954 72.4953 53.8221C72.6921 53.7177 72.7843 53.6195 72.7843 53.5213C72.7843 53.0423 72.8212 52.6617 72.8458 52.3792C72.8572 51.83 72.8366 51.2806 72.7843 50.7338C72.7897 50.6417 72.7683 50.55 72.7228 50.4697C72.6984 50.3955 72.6676 50.3236 72.6306 50.2548C72.5269 50.0154 72.3448 49.8184 72.114 49.6961C71.6823 49.529 71.2323 49.4136 70.7734 49.3523C70.6491 48.8604 70.5506 48.3624 70.4783 47.8603C70.4229 47.498 70.3737 47.1174 70.3368 46.7244C70.3368 46.4358 70.2876 46.1104 70.2692 45.8219C70.1549 44.3564 70.2356 42.8823 70.509 41.438C70.509 41.3029 70.5644 41.1678 70.589 41.0205C70.6205 40.8793 70.637 40.7353 70.6382 40.5907C70.6325 40.4738 70.5895 40.3618 70.5153 40.2711C70.4411 40.1805 70.3398 40.116 70.2261 40.0872C69.999 40.0003 69.755 39.9667 69.5128 39.989C69.2996 39.989 67.6393 40.0074 64.5318 40.0442C64.3542 40.0401 64.1767 40.0566 64.003 40.0934C63.8368 40.145 63.6761 40.2129 63.5233 40.296C63.3454 40.3969 63.2067 40.5548 63.1297 40.7442C62.9822 41.0644 62.8887 41.4067 62.853 41.7573C62.7854 42.23 62.6255 43.1449 62.3857 44.4895C62.1487 45.8281 61.7502 47.1331 61.1988 48.376C61.0716 48.7925 60.8127 49.1565 60.4609 49.4137L60.0243 49.5181C59.5754 49.6347 59.3171 49.7944 59.2372 50.0031C59.1624 50.1996 59.1208 50.4071 59.1142 50.6171C59.1076 50.7009 59.1076 50.7851 59.1142 50.8688C59.0896 51.6118 59.0834 52.1459 59.1019 52.502ZM65.7986 43.0773L66.8809 42.9116C67.01 45.6131 67.1207 47.4858 67.2252 48.5295C67.2252 48.7874 67.2744 48.99 67.299 49.1435C67.209 49.1373 67.1185 49.1373 67.0285 49.1435C66.7517 49.1435 66.5365 49.1435 66.4135 49.1435H66.2659H65.7494H65.1344L64.5687 49.119C65.1592 47.146 65.5708 45.124 65.7986 43.0773Z" fill="white"/>
<path d="M73.27 43.28V43.3168V43.3537V43.3844V43.4212V43.4581H73.3131H73.35H73.3869H73.4238H73.516H73.5775H73.639H73.7005H73.8665H73.9219H73.9711H74.0756H74.1248H74.174H74.2293H74.2908H74.3277H74.3769L74.4261 43.4151L74.4753 43.3782L74.5122 43.3291V43.2861L74.5552 43.2309V43.1818V43.1326V43.0774V43.016V42.9669V42.887V42.8256V42.7765V42.6844L74.5921 42.6476V42.6169H74.629H74.6659H74.7336H74.7828H74.832H74.8689H74.9365H74.9857H75.0349H75.0902H75.1394H75.1886H75.2563H75.3055H75.3547H75.4715H75.5084H75.6252H75.6744H75.902H75.9389H76.0003H76.0557H76.2094H76.2586H76.3201H76.4247H76.4677H76.5169H76.5599H76.5907L76.6337 42.6537L76.6891 42.6844H76.7506L76.7998 42.7274L76.8428 42.7642L76.892 42.8011L76.9289 42.8379L76.9658 42.8809L77.0211 42.93L77.058 42.9669V43.016L77.0949 43.059L77.138 43.1081V43.1449V43.1818V43.2432V43.2861V43.3353V43.3844V43.4396V43.4888V43.808V43.8571V43.9063V43.9677V44.0229L77.1011 44.0843V44.1212H77.0703H77.0396H76.9904H76.9412H78.0973H78.0604H78.0174H77.9805H77.9436H77.9005H77.8144H77.7775H77.7406H77.673H77.4824H77.4147H77.3532H77.304H77.2241H77.1872L77.1257 44.1703L77.0888 44.2071L77.0519 44.2624V44.3115V44.3729V44.422V44.4896V44.5387V44.5755V44.6246V44.6676V44.7044V44.7536V44.7904V44.8395H77.1072H77.1441H77.1933H77.2364H77.2856H77.3471H77.4024H77.4516H77.4885H77.5992H78.0174H78.0542H78.1465H78.1957H78.2756H78.331H78.3679H78.4109H78.4417H78.4909L78.5462 44.8764H78.6077L78.6569 44.9132L78.7122 44.95L78.7491 44.9992H78.786L78.8352 45.0483L78.8721 45.0851L78.9152 45.122L78.9521 45.1649L78.989 45.2141V45.2509V45.3V45.3553V45.3921V45.4412V45.5456V45.5947V45.6438V45.693V45.7482V45.8465V45.9017V45.9508V46.0122V46.0675V46.1166V46.178V46.2271V46.264V46.307V46.3438V46.3929L78.9275 46.4604L78.8967 46.4973V46.5341H78.8598V46.5771V46.6139H78.8229L78.7799 46.6508L78.743 46.6876H78.6938L78.6261 46.7552H78.5769H78.5278H78.4847L78.4478 46.7859H78.3986H78.3617H78.3248H78.2695H78.2326H78.1957H78.1588H78.0911H78.0542H78.0174H77.9559H77.919H78.0973H78.0604H78.0235H77.9067H77.8575H77.7837H77.7345H77.6668H77.6176H77.5438H77.4762H77.427H77.2364H77.1749H77.1195H76.8674H76.8059H76.769H76.7137H76.6399V49.119V49.0699V49.0208V48.9594V48.9041V48.855L76.603 48.7936V48.7383L76.5599 48.6769L76.4862 48.5726L76.437 48.5234L76.3816 48.4866L76.3201 48.4375H76.2709L76.2094 48.4007H76.1418H76.0803H75.9881H75.6375H75.5576H75.4592H75.3977H75.3055H75.2194H75.1271L75.041 48.4436L74.9611 48.4928L74.8627 48.5419L74.7582 48.591L74.6844 48.6708L74.5798 48.7322L74.4937 48.812L74.3769 48.898L74.3339 48.9348V49.119V49.1497V49.2111V49.2909V49.4076V49.5181V49.733V49.8005V49.8497L74.3708 49.8926L74.42 49.9663L74.4691 50.0154V50.0523H74.506H74.5491V50.083H74.586H74.6352H74.6721H74.709H74.752H74.8258H74.8627H74.9058H74.955H75.6375H75.6744H75.7421H75.8036H75.9327H76.0065H76.0557H76.1479H76.1971H76.2709H76.3386H76.4124H76.48H76.5538H76.6153H76.6952H76.7567H77.0396H77.1134H77.8636H78.1342H78.1834H78.2449H78.2818H78.3863H78.4232H78.4663H78.5278H78.5646H78.6077H78.6446H78.6815H78.7245H78.7799H78.8168H78.8537H78.8967L82.3773 52.8091L85.3843 55.1729C85.4643 55.2343 85.5504 55.351 85.6549 55.2589C85.8429 55.0948 86.0177 54.9162 86.1776 54.7247C86.2514 54.6388 86.1776 54.5467 86.0977 54.4791C85.8824 54.3072 85.6672 54.123 85.4458 53.9511L80.6862 50.2058C80.4402 50.0032 80.1881 49.8067 79.936 49.5918H79.9729H80.0036H80.0405H80.0897V49.5611H80.1266H80.1635H80.2004H80.2311V49.5181H80.268H80.3049L80.3849 49.4383H80.4156H81.172H81.2027L81.2519 49.3892L81.2888 49.3462L81.3257 49.3094V49.0576V49.0208V48.9839V48.9532L81.3565 48.9041V48.505V48.4559V48.4007V48.3638V47.9524V47.9156V47.6639V47.627V47.2771V47.2341V47.1481V47.099V47.056V47.0192V46.9823V46.9455V46.9025V46.8657V46.8288V46.792V46.7613V46.7245V46.6876L81.3257 46.6508V46.6078V46.5587V46.5218V46.485H81.2888H81.3319H81.3626V44.8211V44.772V44.5755V44.5141V44.4036V44.3668V44.2071V43.7773V43.6852V43.5931V43.5072V43.4151V43.3782V43.3353V43.2861V43.0405V43.0037V42.973V42.9362L81.3257 42.8993L81.2704 42.8502H81.2396V42.8195L81.1904 42.7827H81.1535L81.0982 42.7458H81.0613L81.0121 42.7151L80.9629 42.6783H80.9137H80.8707L80.8215 42.6414H80.7846H80.7292L80.68 42.6046H80.6308H80.5939L80.5386 42.5678H80.4771L80.4402 42.5309H80.391L80.3357 42.5002H80.2865H80.2496H80.2004L80.145 42.4634H80.0958H80.0467H79.9913H79.9544H79.9052H79.856H79.8068L79.9421 40.5232H79.8929H79.8437H79.7884H79.7515H79.69H79.6346H79.5854H79.5486H79.4994H79.4502H79.3948H79.3333H79.2841H79.2288H79.1919H79.1427H79.075H79.0382H78.9767H78.9275H78.8906H78.8352H78.7737H78.62H78.5708H78.5155H78.3679H78.3125H77.6299H77.5807H77.427H77.3717H77.3225H77.1687H77.1072H77.058H77.0211H76.9658H76.9043H76.849H76.7998H76.7014H76.646H76.5968H76.5476H76.4862H76.3816H76.3447H76.2771H76.2279H76.1787H76.1233H76.0618H76.0249H75.9758H75.9266H75.8712H75.822H75.7605H75.7052H75.6683H75.6191H75.5637H75.5145H75.4531H75.4162H75.3547H75.3116H75.2624L75.2132 40.5539H75.1087L75.0595 40.5907H75.0041L74.955 40.6276H74.9119H74.8812V40.6583V40.6951V40.7319V40.7872V40.8486V40.8793V40.9468V41.1126V41.303L73.27 43.28Z" fill="white"/>
<path d="M84.8618 48.9103C85.1814 49.3464 85.5698 49.7279 86.0117 50.04C86.4368 50.3357 86.8949 50.5809 87.3769 50.7706C87.9891 51.0122 88.6334 51.1631 89.2893 51.2188C89.7802 51.265 90.2743 51.265 90.7652 51.2188C91.4966 51.1262 92.1949 50.8587 92.8006 50.4391C93.1932 50.1182 93.5498 49.7558 93.8645 49.3585C94.3195 48.8243 94.3503 48.4375 93.969 48.1919C93.1019 47.5779 92.4009 47.5226 91.8536 48.0875C91.4386 48.5817 90.8567 48.9071 90.2179 49.0023C89.4746 49.0673 88.7271 48.9404 88.0471 48.634C87.7159 48.5179 87.4133 48.3324 87.1598 48.0898C86.9063 47.8473 86.7077 47.5534 86.5774 47.2279C86.5405 47.1235 86.5098 47.0314 86.4852 46.9455C90.5848 46.4789 92.8232 46.1964 93.2003 46.0982C93.379 46.0484 93.5431 45.9566 93.6789 45.8306C93.8148 45.7046 93.9185 45.5479 93.9813 45.3737C94.1259 44.6993 94.0812 43.9982 93.8522 43.3475C93.7307 42.8644 93.5018 42.4148 93.1824 42.0321C92.863 41.6495 92.4614 41.3436 92.0073 41.1372C91.1243 40.6324 90.1046 40.4176 89.0925 40.5232C88.252 40.6344 87.4268 40.8404 86.6328 41.1372C85.9445 41.3991 85.3169 41.7981 84.788 42.3099C84.2567 42.7854 83.8675 43.3985 83.6635 44.0811C83.4594 44.7638 83.4485 45.4895 83.6319 46.178C83.8342 47.1684 84.2543 48.1016 84.8618 48.9103ZM86.6143 44.8211C86.7009 44.544 86.8485 44.2899 87.0465 44.0774C87.2444 43.8648 87.4876 43.6994 87.7581 43.5931C88.4641 43.3752 89.1964 43.2533 89.935 43.2309C90.3321 43.1713 90.7378 43.2458 91.0876 43.4427C91.4375 43.6396 91.7114 43.9475 91.8659 44.3176L86.5528 44.9316C86.571 44.8935 86.5915 44.8566 86.6143 44.8211Z" fill="white"/>
<path d="M86.5895 62.946C85.8228 62.1274 85.0562 61.3087 84.2896 60.4901C84.1174 60.2936 83.976 60.2322 83.7485 60.4287C83.4862 60.6367 83.2064 60.8215 82.9121 60.9813C81.6636 61.7285 80.3353 62.334 78.9519 62.7864C77.7385 63.181 76.4804 63.4224 75.2069 63.5047C73.6379 63.5993 72.0635 63.4648 70.5334 63.1056C68.7736 62.639 67.0749 61.9672 65.4724 61.104C64.0458 60.3755 62.6109 59.6653 61.1679 58.9735C61.0738 58.9081 60.9586 58.8801 60.845 58.8948C60.7313 58.9096 60.6272 58.9661 60.5529 59.0533C60.2332 59.3972 59.8826 59.7103 59.5321 60.0296C59.1816 60.3488 59.237 60.3059 59.5321 60.5392C60.4791 61.2146 61.4261 61.8838 62.367 62.5653C64.2979 63.9611 66.2739 65.2955 68.295 66.5685C69.8406 67.5473 71.4585 68.4073 73.1346 69.1411C74.1732 69.5887 75.2367 69.9762 76.32 70.3016C77.5275 70.6649 78.7609 70.9358 80.0096 71.112C80.7378 71.2011 81.4719 71.2319 82.2049 71.2041C83.0828 71.2042 83.9599 71.1488 84.8307 71.0384C85.7596 70.884 86.6793 70.679 87.5857 70.4244C88.9824 70.0282 90.3358 69.4934 91.6258 68.828C91.8472 68.7175 91.8902 68.6131 91.6996 68.4105L86.5895 62.946Z" fill="white"/>
<path d="M98.6302 62.3075C98.5063 62.0163 98.3219 61.7547 98.0891 61.54C97.9046 61.3435 97.6955 61.1716 97.5049 60.926L95.3157 58.7033C95.1947 58.6449 95.0893 58.5586 95.0083 58.4516L91.5154 54.9642C91.3812 54.8024 91.2116 54.6734 91.0198 54.5872C90.8279 54.501 90.6188 54.4598 90.4085 54.4668C90.2204 54.4895 90.0389 54.5502 89.875 54.6452C89.7111 54.7402 89.5683 54.8675 89.4554 55.0194C88.6037 56.1154 87.666 57.1419 86.6512 58.0894C86.2777 58.4493 85.8857 58.7895 85.4767 59.1086C85.0339 59.4524 85.0155 59.4524 85.409 59.8699L85.5566 60.0357L89.5537 64.3704C90.6176 65.5125 91.6937 66.6361 92.7391 67.7904C92.9421 68.0175 93.0712 68.0298 93.3049 67.8825C95.1505 66.7523 96.81 65.344 98.2244 63.7073C98.412 63.5321 98.5488 63.3095 98.6202 63.0631C98.6916 62.8167 98.6951 62.5557 98.6302 62.3075Z" fill="white"/>
<path d="M59.4768 58.2489C59.4451 58.2188 59.4074 58.1958 59.3661 58.1814L58.9479 58.0218L58.6835 57.9235C58.4191 57.8253 58.0686 57.7086 57.7119 57.592C57.4598 57.5121 57.1831 57.4262 56.8818 57.3464C56.3283 57.1929 55.6888 57.0394 54.9754 56.9043C54.4343 56.7938 53.8439 56.7017 53.2167 56.6157H53.0876C52.8477 56.6157 52.7002 56.7324 52.6756 57.0025C52.6602 57.2213 52.6602 57.4408 52.6756 57.6595C52.6697 57.7311 52.6809 57.803 52.7083 57.8694C52.7356 57.9358 52.7784 57.9948 52.833 58.0415C52.8876 58.0883 52.9525 58.1214 53.0224 58.1383C53.0923 58.1551 53.1652 58.1551 53.2352 58.1384C53.3784 58.1261 53.5224 58.1261 53.6656 58.1384H53.7025C54.4494 58.2192 55.1893 58.3546 55.9163 58.5436C56.1869 58.6173 56.4513 58.6971 56.7157 58.7892H56.7526C57.1817 58.9729 57.5933 59.1948 57.9825 59.4523L58.0993 59.5076C58.1564 59.5246 58.2172 59.5244 58.2741 59.5069C58.331 59.4894 58.3815 59.4555 58.4191 59.4094C58.7512 59.0778 59.1017 58.7585 59.446 58.4393C59.5137 58.3656 59.526 58.3287 59.4768 58.2489Z" fill="white"/>
<path d="M47.8052 23.6263C47.4426 23.6301 47.084 23.5501 46.7576 23.3924C46.4311 23.2348 46.1456 23.0038 45.9235 22.7176V24.5227C45.9241 24.7317 45.9752 24.9374 46.0727 25.1224C46.1701 25.3074 46.3109 25.466 46.4831 25.5849L49.6377 27.8137C49.7314 27.885 49.8197 27.963 49.9022 28.047V22.3799C49.6969 22.7564 49.3938 23.0708 49.0249 23.2901C48.6559 23.5094 48.2346 23.6255 47.8052 23.6263ZM49.0966 26.6102C49.0151 26.6102 48.9369 26.5779 48.8792 26.5203C48.8215 26.4628 48.7891 26.3847 48.7891 26.3033C48.7891 26.2218 48.8215 26.1437 48.8792 26.0862C48.9369 26.0286 49.0151 25.9963 49.0966 25.9963C49.1781 25.9963 49.2564 26.0286 49.314 26.0862C49.3717 26.1437 49.4041 26.2218 49.4041 26.3033C49.4041 26.3847 49.3717 26.4628 49.314 26.5203C49.2564 26.5779 49.1781 26.6102 49.0966 26.6102ZM49.0966 25.4989C49.0151 25.4989 48.9369 25.4666 48.8792 25.409C48.8215 25.3514 48.7891 25.2734 48.7891 25.1919C48.7891 25.1105 48.8215 25.0324 48.8792 24.9749C48.9369 24.9173 49.0151 24.8849 49.0966 24.8849C49.1781 24.8849 49.2564 24.9173 49.314 24.9749C49.3717 25.0324 49.4041 25.1105 49.4041 25.1919C49.4041 25.2734 49.3717 25.3514 49.314 25.409C49.2564 25.4666 49.1781 25.4989 49.0966 25.4989ZM49.0966 24.3815C49.0151 24.3815 48.9369 24.3491 48.8792 24.2916C48.8215 24.234 48.7891 24.1559 48.7891 24.0745C48.7891 23.9931 48.8215 23.915 48.8792 23.8574C48.9369 23.7998 49.0151 23.7675 49.0966 23.7675C49.1781 23.7675 49.2564 23.7998 49.314 23.8574C49.3717 23.915 49.4041 23.9931 49.4041 24.0745C49.4041 24.1559 49.3717 24.234 49.314 24.2916C49.2564 24.3491 49.1781 24.3815 49.0966 24.3815ZM50.3941 16.3996V31.8046H54.0838C54.3653 31.8046 54.6441 31.7491 54.9041 31.6413C55.1642 31.5336 55.4003 31.3757 55.5991 31.1766C55.7979 30.9775 55.9554 30.7413 56.0626 30.4813C56.1698 30.2214 56.2246 29.9429 56.2238 29.6618V22.4044C56.2232 20.8495 55.6185 19.3554 54.5369 18.2365C53.4553 17.1177 51.9813 16.4614 50.4249 16.4058L50.3941 16.3996ZM51.9315 23.4482H51.6547V23.086H51.9376L51.9315 23.4482ZM51.9315 22.9509H51.6547V21.4896H51.9376L51.9315 22.9509ZM51.9315 21.3668H51.6547V21.0107H51.9376L51.9315 21.3668ZM52.4419 23.4482H52.1528V23.086H52.4419V23.4482ZM52.4419 22.9509H52.1528V21.4896H52.4419V22.9509ZM52.4419 21.3668H52.1528V21.0107H52.4419V21.3668ZM52.9584 23.4482H52.6756V23.086H52.9584V23.4482ZM52.9584 22.9509H52.6756V21.4896H52.9584V22.9509ZM52.9584 21.3668H52.6756V21.0107H52.9584V21.3668ZM53.4996 23.4544H53.1921V23.0921H53.4996V23.4544ZM53.4996 22.957H53.1921V21.4896H53.4996V22.957ZM53.4996 21.3729H53.1921V21.0168H53.4996V21.3729ZM54.0161 23.4544H53.7332V23.0921H54.0161V23.4544ZM54.0161 22.957H53.7332V21.4896H54.0161V22.957ZM54.0161 21.3729H53.7332V21.0168H54.0161V21.3729ZM49.3549 28.1943L46.1941 25.9533C45.9573 25.7897 45.7638 25.5714 45.6299 25.3169C45.4961 25.0625 45.4259 24.7794 45.4254 24.492V21.3729C45.4254 21.33 45.4254 21.2747 45.4254 21.2256V16.3751C44.6298 16.371 43.8413 16.524 43.1051 16.8252C42.3689 17.1264 41.6995 17.5699 41.1355 18.1301C40.5715 18.6904 40.1239 19.3565 39.8186 20.09C39.5132 20.8235 39.3559 21.6101 39.356 22.4044V29.6618C39.356 30.2301 39.5821 30.7751 39.9845 31.177C40.387 31.5788 40.9329 31.8046 41.5021 31.8046H49.9022V29.2565C49.9046 29.0484 49.856 28.8427 49.7606 28.6576C49.6652 28.4725 49.5259 28.3134 49.3549 28.1943ZM41.9203 23.4544H41.6374V23.0921H41.9203V23.4544ZM41.9203 22.957H41.6374V21.4896H41.9203V22.957ZM41.9203 21.3729H41.6374V21.0168H41.9203V21.3729ZM42.4307 23.4544H42.1416V23.0921H42.4307V23.4544ZM42.4307 22.957H42.1416V21.4896H42.4307V22.957ZM42.4307 21.3729H42.1416V21.0168H42.4307V21.3729ZM42.9472 23.4544H42.6643V23.0921H42.9472V23.4544ZM42.9472 22.957H42.6643V21.4896H42.9472V22.957ZM42.9472 21.3729H42.6643V21.0168H42.9472V21.3729ZM43.4576 23.4544H43.1747V23.0921H43.4576V23.4544ZM43.4576 22.957H43.1747V21.4896H43.4576V22.957ZM43.4576 21.3729H43.1747V21.0168H43.4576V21.3729ZM43.9803 23.4544H43.6913V23.0921H43.9803V23.4544ZM43.9803 22.957H43.6913V21.4896H43.9803V22.957ZM43.9803 21.3729H43.6913V21.0168H43.9803V21.3729Z" fill="#8BC43F"/>
<path d="M41.7543 8.84756C42.0187 8.55284 42.0187 8.55284 41.6743 8.27655C41.7521 8.23831 41.8182 8.18001 41.8657 8.10767C41.9133 8.03534 41.9406 7.95161 41.9449 7.86518C41.9486 7.74007 41.9298 7.61531 41.8895 7.49679C41.8607 7.38741 41.8626 7.27219 41.8952 7.16385C41.9277 7.0555 41.9896 6.95824 42.074 6.8828C42.154 6.82052 42.2121 6.73454 42.2401 6.6372C42.2401 6.56353 42.2401 6.47143 42.2401 6.42231C42.2401 6.37319 42.1786 6.25653 42.2401 6.17057C42.3043 6.08949 42.347 5.99351 42.3642 5.89154C42.3814 5.78957 42.3726 5.68492 42.3385 5.58729C42.3016 5.49038 42.3016 5.38334 42.3385 5.28643C42.3876 5.18819 42.4245 5.08382 42.4799 4.98558C42.5352 4.88734 42.5844 4.7584 42.4799 4.66017C42.3754 4.56193 42.443 4.57421 42.4799 4.53123C42.7412 4.26391 42.8944 3.90974 42.9103 3.53657C42.9133 3.49726 42.926 3.4593 42.9472 3.42605C42.9999 3.35343 43.036 3.27018 43.053 3.18214C43.07 3.0941 43.0675 3.00341 43.0456 2.91644C43.0313 2.88566 43.0239 2.85214 43.0239 2.8182C43.0239 2.78427 43.0313 2.75074 43.0456 2.71997L43.6606 1.82354C43.802 1.63321 43.802 1.63321 43.5745 1.52883C43.8923 1.3859 44.1631 1.15599 44.3555 0.865724C44.5133 0.729766 44.6946 0.623655 44.8905 0.55259L45.1795 0.374534C45.2102 0.374534 45.2471 0.374534 45.2533 0.319275C45.2963 0.122799 45.4685 0.153499 45.6038 0.11666C46.3139 -0.0380141 47.0548 0.0372591 47.7192 0.331555C47.952 0.433041 48.2075 0.471709 48.46 0.443695C48.7125 0.415681 48.9533 0.321965 49.1581 0.171918C49.2381 0.11666 49.2442 0.122799 49.2934 0.288576H49.3426C49.3946 0.233603 49.4594 0.192435 49.5313 0.168801C49.6032 0.145168 49.6799 0.139815 49.7544 0.153227C49.8289 0.166639 49.8988 0.198393 49.9579 0.245613C50.017 0.292833 50.0634 0.354027 50.0928 0.423653C50.1009 0.442241 50.1125 0.45906 50.127 0.473144C50.1416 0.487227 50.1588 0.498297 50.1777 0.505715C50.1965 0.513134 50.2167 0.516755 50.2369 0.51637C50.2572 0.515985 50.2772 0.511601 50.2958 0.503471L50.8492 0.362254C50.9415 0.362254 50.9784 0.362254 50.9784 0.460492C50.9784 0.55873 50.9784 0.663108 50.9784 0.761346C50.9784 0.859584 51.0276 0.957822 51.1567 0.976242C51.2858 0.994661 51.3535 1.01922 51.2489 1.19114C51.2501 1.20749 51.2501 1.2239 51.2489 1.24026C51.1813 1.34463 51.2489 1.37533 51.3289 1.37533C51.4491 1.36449 51.57 1.38568 51.6794 1.43673C51.7163 1.43673 51.7778 1.43673 51.7839 1.51041C51.7901 1.58409 51.7224 1.55953 51.6917 1.59023L51.6363 1.63935C51.8012 1.69457 51.9615 1.7623 52.116 1.84196C52.2237 1.9149 52.3264 1.99489 52.4235 2.08142C52.4235 2.08142 52.4911 2.13054 52.485 2.17352C52.4788 2.2165 52.4173 2.2165 52.3804 2.22878H52.1775C52.5114 2.40968 52.7641 2.71028 52.8847 3.06994C52.9947 3.28182 53.1578 3.46162 53.3582 3.59183C53.5181 3.69007 53.6656 3.80672 53.5304 4.02776C53.5304 4.07688 53.5304 4.10144 53.5795 4.126C53.6245 4.15603 53.6625 4.19544 53.6908 4.24151C53.7191 4.28758 53.7371 4.33923 53.7435 4.39289C53.75 4.44656 53.7447 4.50098 53.728 4.55241C53.7114 4.60385 53.6838 4.65108 53.6472 4.69086C53.6472 4.75226 53.6103 4.7891 53.6472 4.83822C53.6841 4.88734 53.7763 4.97944 53.8378 5.05312C53.8993 5.1268 53.8932 5.10224 53.8747 5.13908C53.8563 5.17591 53.8194 5.16977 53.7948 5.16977C53.7006 5.17559 53.6061 5.17559 53.5119 5.16977C53.3828 5.16977 53.3766 5.22503 53.432 5.31713C53.452 5.36335 53.4746 5.40844 53.4996 5.45221C53.7266 5.82588 53.8674 6.24538 53.9116 6.68018C53.9116 6.80298 53.9116 6.87666 53.7702 6.89508C53.6287 6.9135 53.6472 6.93806 53.7333 7.01788C53.7666 7.04454 53.7926 7.0792 53.8088 7.11863C53.825 7.15805 53.831 7.20095 53.826 7.24329C53.8211 7.28563 53.8055 7.32603 53.7807 7.3607C53.7559 7.39537 53.7226 7.42318 53.6841 7.44153C53.6226 7.48451 53.6103 7.50293 53.6841 7.56432C53.7615 7.64605 53.8076 7.75236 53.8143 7.86462C53.8211 7.97688 53.788 8.08793 53.721 8.17831C53.721 8.22129 53.6841 8.25199 53.721 8.29497C53.7584 8.33582 53.786 8.3847 53.8015 8.43784C53.8171 8.49098 53.8202 8.54698 53.8107 8.60153C53.8012 8.65607 53.7793 8.70772 53.7467 8.7525C53.7141 8.79728 53.6716 8.834 53.6226 8.85984C53.4751 8.93131 53.3434 9.03151 53.2352 9.15455C53.1962 9.23881 53.1281 9.30625 53.0435 9.34458C52.9588 9.3829 52.8631 9.38955 52.774 9.36331C52.6694 9.33261 52.6325 9.41857 52.6202 9.50452C52.6079 9.59048 52.5403 9.68872 52.4112 9.701L51.4888 9.80538C51.3965 9.80538 51.3104 9.80538 51.2797 9.94046C51.2489 10.0755 51.1751 10.0264 51.1075 10.0387C50.3204 10.1615 49.5332 10.2904 48.74 10.4071C48.1303 10.5085 47.5132 10.5578 46.8952 10.5544C45.9034 10.5359 44.926 10.3144 44.0234 9.90362C43.7284 9.74508 43.3991 9.66078 43.0641 9.65802C43.0153 9.64902 42.9653 9.64902 42.9165 9.65802C42.8366 9.65802 42.7935 9.65802 42.7751 9.5782C42.7566 9.49839 42.6767 9.34489 42.5106 9.36945C42.4955 9.37311 42.4798 9.37336 42.4646 9.37017C42.4493 9.36699 42.435 9.36045 42.4226 9.35104C42.4103 9.34163 42.4001 9.32957 42.393 9.31576C42.3859 9.30195 42.382 9.28673 42.3815 9.27121C42.3815 9.12999 42.2708 9.12385 42.1663 9.12999C42.0617 9.13613 41.9387 9.12999 41.9387 8.95808C41.9387 8.78616 41.8158 8.92124 41.7543 8.84756Z" fill="#8BC43F"/>
<path d="M44.2754 14.7357C44.3315 14.5267 44.4013 14.3216 44.4845 14.1217C44.7972 13.5536 45.2764 13.0945 45.8578 12.8059C46.4392 12.5173 47.0951 12.413 47.7375 12.507C48.0819 12.5622 48.4508 12.4763 48.7952 12.507C49.3106 12.5535 49.8045 12.7353 50.2268 13.034C50.6491 13.3327 50.9847 13.7376 51.1996 14.2077C51.2592 14.3751 51.3024 14.5478 51.3287 14.7235C50.8183 14.5884 50.3571 14.4349 49.8775 14.3551C49.5208 14.2875 49.1273 14.3551 48.7829 14.2875C48.1546 14.1186 47.4926 14.1186 46.8643 14.2875C46.4244 14.3574 45.981 14.4025 45.536 14.4226C45.1363 14.5147 44.7366 14.6375 44.2754 14.7357Z" fill="#8BC43F"/>
<path d="M31.2633 16.375V17.6644C31.2634 18.0977 31.0936 18.5139 30.7901 18.8238C30.4867 19.1336 30.0738 19.3125 29.6399 19.3221C29.4143 19.3221 29.191 19.2776 28.9828 19.191C28.7746 19.1045 28.5856 18.9777 28.4267 18.8179C28.2678 18.6581 28.1421 18.4685 28.0569 18.2599C27.9718 18.0514 27.9287 17.8282 27.9304 17.603V16.375C26.1363 16.375 24.4158 17.0866 23.1472 18.3532C21.8787 19.6198 21.166 21.3376 21.166 23.1289V29.6678C21.166 30.2345 21.3915 30.778 21.7928 31.1787C22.1941 31.5794 22.7384 31.8045 23.306 31.8045L24.0747 31.5098C24.0596 31.3482 24.0916 31.1858 24.1669 31.042C24.2422 30.8982 24.3575 30.7792 24.499 30.6993L25.1139 30.3248L25.2 30.2757C25.3187 30.2021 25.4541 30.1598 25.5936 30.1529H25.6305C25.7734 30.1502 25.9135 30.1932 26.0302 30.2757C26.0616 30.2969 26.0905 30.3216 26.1163 30.3493C26.2068 30.0865 26.3791 29.8594 26.6082 29.7014C26.8373 29.5434 27.1109 29.4628 27.3892 29.4713C27.4606 29.4705 27.5315 29.483 27.5983 29.5082H27.6721C27.7433 29.509 27.8139 29.5214 27.8812 29.545L28.0656 29.6126C28.0594 29.578 28.0594 29.5427 28.0656 29.5082C28.1685 29.2427 28.3654 29.0242 28.6191 28.8942C28.8145 28.8006 29.0212 28.7325 29.234 28.6916C29.3826 28.6538 29.5358 28.6372 29.6891 28.6425C29.766 28.6529 29.8408 28.6757 29.9105 28.71C29.9719 28.5595 30.068 28.4256 30.1908 28.3189C30.3136 28.2123 30.4598 28.1359 30.6176 28.096C30.6913 28.0721 30.7678 28.0576 30.8452 28.053H30.9374C30.9905 28.0467 31.0442 28.0467 31.0973 28.053H31.1465C31.2118 28.0448 31.2779 28.0448 31.3433 28.053C31.5957 28.1131 31.8299 28.2332 32.0259 28.403L32.3149 28.2986C32.3804 28.2687 32.4483 28.2441 32.5178 28.225L32.8376 28.1022C33.0109 27.9944 33.2064 27.9272 33.4095 27.9057C33.6094 27.7692 33.8393 27.6828 34.0797 27.6539C34.1699 27.5902 34.2668 27.5366 34.3688 27.4943C34.4724 27.1871 34.6934 26.9333 34.9837 26.7882C35.1706 26.68 35.3826 26.6228 35.5986 26.6224C35.8512 26.6237 36.0976 26.7007 36.3058 26.8435C36.5237 26.9922 36.6809 27.2141 36.7486 27.4688C36.8163 27.7235 36.7901 27.9941 36.6748 28.2311C36.5715 28.4565 36.405 28.6471 36.1955 28.7801C35.9859 28.913 35.7423 28.9825 35.4941 28.9802H35.3404C35.1758 28.9609 35.0169 28.9087 34.873 28.8267C34.7672 28.8622 34.658 28.8869 34.5471 28.9003L34.4672 28.9556C34.279 29.0651 34.0691 29.1321 33.8522 29.1521C33.6718 29.2842 33.4597 29.3668 33.2373 29.3915L32.9298 29.5082L32.7822 29.5696C32.7534 29.5877 32.7224 29.6022 32.69 29.6126L32.4809 29.6924L32.321 29.7538C32.3181 29.7659 32.3181 29.7785 32.321 29.7906C32.2978 29.8672 32.2669 29.9413 32.2288 30.0117C32.2331 30.0648 32.2331 30.1182 32.2288 30.1713C32.2283 30.3451 32.1663 30.5131 32.0538 30.6457C31.9413 30.7782 31.7855 30.8668 31.6138 30.8958C31.4107 30.9309 31.205 30.9493 30.9989 30.9511C30.8105 30.9524 30.6269 30.892 30.4762 30.7791C30.4213 31.0221 30.2846 31.2388 30.0888 31.3931C30.0262 31.4424 29.9605 31.4875 29.892 31.5282C29.8322 31.5644 29.7682 31.5933 29.7014 31.6142C29.6567 31.6415 29.6093 31.6641 29.5599 31.6817H35.7708C36.3384 31.6817 36.8827 31.4566 37.284 31.0559C37.6854 30.6552 37.9108 30.1117 37.9108 29.545V23.135C37.9127 21.3627 37.2168 19.6607 35.9732 18.3961C34.7297 17.1315 33.0381 16.4056 31.2633 16.375ZM23.7057 23.4543H23.4228V23.092H23.7057V23.4543ZM23.7057 22.9631H23.4228V21.4895H23.7057V22.9631ZM23.7057 21.3729H23.4228V21.0167H23.7057V21.3729ZM24.2284 23.4543H23.9394V23.092H24.2284V23.4543ZM24.2284 22.9631H23.9394V21.4895H24.2284V22.9631ZM24.2284 21.3729H23.9394V21.0167H24.2284V21.3729ZM24.7327 23.4543H24.4498V23.092H24.7327V23.4543ZM24.7327 22.9631H24.4498V21.4895H24.7327V22.9631ZM24.7327 21.3729H24.4498V21.0167H24.7327V21.3729ZM25.2554 23.4543H24.9725V23.092H25.2554V23.4543ZM25.2554 22.9631H24.9725V21.4895H25.2554V22.9631ZM25.2554 21.3729H24.9725V21.0167H25.2554V21.3729ZM25.7658 23.4543H25.4767V23.092H25.7658V23.4543ZM25.7658 22.9631H25.4767V21.4895H25.7658V22.9631ZM25.7658 21.3729H25.4767V21.0167H25.7658V21.3729ZM29.5968 20.4028C29.6868 20.4028 29.7748 20.4294 29.8497 20.4793C29.9245 20.5293 29.9828 20.6002 30.0173 20.6832C30.0517 20.7663 30.0607 20.8576 30.0432 20.9457C30.0256 21.0339 29.9823 21.1148 29.9186 21.1784C29.855 21.2419 29.7739 21.2852 29.6856 21.3027C29.5973 21.3203 29.5058 21.3113 29.4227 21.2769C29.3395 21.2425 29.2685 21.1842 29.2185 21.1095C29.1685 21.0348 29.1418 20.947 29.1418 20.8571C29.1418 20.7974 29.1536 20.7384 29.1764 20.6832C29.1993 20.6281 29.2328 20.578 29.2751 20.5358C29.3173 20.4936 29.3675 20.4602 29.4227 20.4373C29.4779 20.4145 29.5371 20.4028 29.5968 20.4028ZM29.5968 22.2447C29.6868 22.2447 29.7748 22.2714 29.8497 22.3213C29.9245 22.3712 29.9828 22.4422 30.0173 22.5252C30.0517 22.6082 30.0607 22.6996 30.0432 22.7877C30.0256 22.8758 29.9823 22.9568 29.9186 23.0203C29.855 23.0839 29.7739 23.1272 29.6856 23.1447C29.5973 23.1622 29.5058 23.1532 29.4227 23.1188C29.3395 23.0844 29.2685 23.0262 29.2185 22.9515C29.1685 22.8768 29.1418 22.7889 29.1418 22.6991C29.1418 22.6394 29.1536 22.5803 29.1764 22.5252C29.1993 22.4701 29.2328 22.42 29.2751 22.3778C29.3173 22.3356 29.3675 22.3021 29.4227 22.2793C29.4779 22.2565 29.5371 22.2447 29.5968 22.2447ZM29.5968 24.0867C29.6868 24.0867 29.7748 24.1133 29.8497 24.1633C29.9245 24.2132 29.9828 24.2841 30.0173 24.3672C30.0517 24.4502 30.0607 24.5415 30.0432 24.6297C30.0256 24.7178 29.9823 24.7988 29.9186 24.8623C29.855 24.9258 29.7739 24.9691 29.6856 24.9867C29.5973 25.0042 29.5058 24.9952 29.4227 24.9608C29.3395 24.9264 29.2685 24.8682 29.2185 24.7935C29.1685 24.7187 29.1418 24.6309 29.1418 24.541C29.1418 24.4814 29.1536 24.4223 29.1764 24.3672C29.1993 24.312 29.2328 24.2619 29.2751 24.2198C29.3173 24.1776 29.3675 24.1441 29.4227 24.1213C29.4779 24.0984 29.5371 24.0867 29.5968 24.0867ZM29.5968 25.9286C29.6868 25.9286 29.7748 25.9553 29.8497 26.0052C29.9245 26.0551 29.9828 26.1261 30.0173 26.2091C30.0517 26.2921 30.0607 26.3835 30.0432 26.4716C30.0256 26.5598 29.9823 26.6407 29.9186 26.7043C29.855 26.7678 29.7739 26.8111 29.6856 26.8286C29.5973 26.8461 29.5058 26.8371 29.4227 26.8028C29.3395 26.7684 29.2685 26.7101 29.2185 26.6354C29.1685 26.5607 29.1418 26.4729 29.1418 26.383C29.1418 26.3233 29.1536 26.2642 29.1764 26.2091C29.1993 26.154 29.2328 26.1039 29.2751 26.0617C29.3173 26.0195 29.3675 25.9861 29.4227 25.9632C29.4779 25.9404 29.5371 25.9286 29.5968 25.9286ZM33.7169 23.4727H33.4341V23.1104H33.7169V23.4727ZM33.7169 22.9815H33.4341V21.4895H33.7169V22.9815ZM33.7169 21.3913H33.4341V21.0352H33.7169V21.3913ZM34.2396 23.4727H33.9506V23.1104H34.2396V23.4727ZM34.2396 22.9815H33.9506V21.4895H34.2396V22.9815ZM34.2396 21.3913H33.9506V21.0352H34.2396V21.3913ZM34.7439 23.4727H34.4364V23.1104H34.7193L34.7439 23.4727ZM34.7439 22.9815H34.4364V21.4895H34.7193L34.7439 22.9815ZM34.7439 21.3913H34.4364V21.0352H34.7193L34.7439 21.3913ZM35.2666 23.4727H34.9776V23.1104H35.2666V23.4727ZM35.2666 22.9815H34.9776V21.4895H35.2666V22.9815ZM35.2666 21.3913H34.9776V21.0352H35.2666V21.3913ZM35.7708 23.4727H35.488V23.1104H35.7708V23.4727ZM35.7708 22.9815H35.488V21.4895H35.7708V22.9815ZM35.7708 21.3913H35.488V21.0352H35.7708V21.3913Z" fill="#D20000"/>
<path d="M30.9562 13.2314C30.5654 13.011 30.1259 12.8911 29.6772 12.8826C29.2285 12.874 28.7846 12.977 28.3857 13.1823C27.9796 13.4605 27.4884 13.5872 26.9982 13.54C26.508 13.4929 26.05 13.2749 25.7046 12.9244C25.7046 13.1823 25.7353 13.3481 25.7599 13.5384C25.7749 13.9669 25.9509 14.3741 26.2528 14.679C26.5548 14.9839 26.9606 15.1641 27.3895 15.1839C28.0825 15.2709 28.7854 15.14 29.4004 14.8094C29.4692 14.7791 29.5435 14.7635 29.6187 14.7635C29.6939 14.7635 29.7682 14.7791 29.837 14.8094C30.5436 15.1917 31.3651 15.3051 32.1492 15.1286C32.5956 15.0193 32.9811 14.7392 33.2227 14.3487C33.4642 13.9582 33.5425 13.4886 33.4405 13.0411C33.1071 13.3451 32.6814 13.5289 32.2312 13.5634C31.781 13.5979 31.3322 13.481 30.9562 13.2314Z" fill="#D20000"/>
<path d="M23.2384 6.21974C23.0294 6.60041 23.0663 6.78461 23.4598 7.04862C23.3752 7.12871 23.3088 7.22591 23.2649 7.33373C23.2211 7.44154 23.2008 7.55747 23.2054 7.67375C23.2101 7.79003 23.2396 7.90398 23.2919 8.00795C23.3443 8.11192 23.4183 8.20351 23.509 8.2766C23.3676 8.57468 23.2603 8.88775 23.1892 9.20986C23.1799 9.29345 23.1878 9.37807 23.2126 9.45846C23.2374 9.53886 23.2784 9.61332 23.3332 9.67722C23.388 9.74112 23.4553 9.79311 23.531 9.82995C23.6068 9.86679 23.6893 9.8877 23.7734 9.89139C23.5213 10.5054 23.5582 10.9045 23.8964 11.1623C23.938 11.2038 23.9885 11.2353 24.044 11.2544C24.1608 11.3152 24.2905 11.347 24.4222 11.347C24.5539 11.347 24.6836 11.3152 24.8004 11.2544H25.3354C25.3922 11.3454 25.4697 11.4218 25.5615 11.4773C25.6534 11.5327 25.7571 11.5658 25.8642 11.5737C26.0028 11.5824 26.1415 11.558 26.2688 11.5025C26.3961 11.447 26.5083 11.3619 26.596 11.2544C26.842 11.3404 27.0572 11.5 27.2109 11.4755C27.3823 11.4404 27.5426 11.3645 27.6783 11.2544H27.8689C28.201 11.8193 28.6868 11.8316 29.2279 11.2544H29.2771C29.3619 11.4011 29.4837 11.5229 29.6306 11.6075C29.7774 11.6922 29.9439 11.7368 30.1135 11.7368C30.283 11.7368 30.4496 11.6922 30.5964 11.6075C30.7432 11.5229 30.8651 11.4011 30.9498 11.2544H31.2511C31.3365 11.3814 31.4532 11.4842 31.59 11.5531C31.7268 11.6219 31.8791 11.6544 32.0321 11.6474C32.1725 11.6454 32.3101 11.6084 32.4326 11.5398C32.555 11.4712 32.6583 11.3731 32.7331 11.2544H33.2558C33.372 11.3251 33.5033 11.3676 33.6389 11.3782C33.7746 11.3889 33.9109 11.3675 34.0368 11.3158C34.0746 11.3047 34.1086 11.2835 34.1352 11.2544C34.2914 11.1702 34.4167 11.0386 34.493 10.8785C34.5693 10.7184 34.5925 10.5383 34.5595 10.3642C34.7411 10.4437 34.9437 10.4619 35.1366 10.4159C35.3295 10.3699 35.5021 10.2623 35.628 10.1094C35.754 9.95649 35.8266 9.76669 35.8346 9.56884C35.8426 9.37101 35.7857 9.17596 35.6725 9.01338C36.1829 8.55289 36.2198 8.34414 35.857 7.72401C36.2444 7.3065 36.2567 7.11002 35.9185 6.56357C36.3305 6.19518 36.3305 5.94959 35.9185 5.53822C36.1399 5.13912 36.103 4.92423 35.7094 4.69705C35.7931 4.61647 35.8587 4.51911 35.902 4.4114C35.9453 4.30368 35.9653 4.18803 35.9607 4.07205C35.956 3.95607 35.9268 3.84239 35.8751 3.73846C35.8233 3.63454 35.7501 3.54274 35.6602 3.46908C35.8019 3.17323 35.9092 2.86217 35.98 2.54196C35.992 2.45983 35.9873 2.37612 35.966 2.29589C35.9448 2.21565 35.9074 2.14055 35.8563 2.07512C35.8051 2.0097 35.7412 1.95531 35.6684 1.91525C35.5956 1.87518 35.5154 1.85027 35.4327 1.84201C35.6787 1.22802 35.6418 0.828933 35.2913 0.571059C34.9407 0.313184 34.5287 0.343883 34.006 0.736835C33.9626 0.586557 33.876 0.452322 33.7568 0.350807C33.6376 0.249291 33.4912 0.184968 33.3357 0.165827C33.1947 0.156336 33.0533 0.180959 32.9238 0.237608C32.7943 0.294257 32.6803 0.38126 32.5917 0.49124C32.358 0.405282 32.1489 0.239505 31.9767 0.264065C31.8045 0.288624 31.5832 0.466681 31.3618 0.577198C30.9928 -0.079768 30.5009 -0.116607 29.9167 0.5158C29.8257 0.343457 29.6851 0.202246 29.513 0.110333C29.341 0.0184212 29.1453 -0.019987 28.9512 5.04041e-05C28.7523 0.0287365 28.5659 0.114072 28.4143 0.245835C28.2627 0.377598 28.1523 0.550203 28.0965 0.742975C28.0155 0.558476 27.882 0.401857 27.7125 0.292666C27.543 0.183474 27.345 0.126547 27.1433 0.128988C26.9472 0.136303 26.758 0.203092 26.6009 0.32046C26.4438 0.437828 26.3263 0.600203 26.2639 0.785954C26.1372 0.614828 25.9595 0.488186 25.7562 0.424206C25.5529 0.360227 25.3345 0.362199 25.1325 0.429841C24.9474 0.503067 24.7933 0.63762 24.6958 0.810911C24.5984 0.984202 24.5637 1.18568 24.5975 1.38152C24.4161 1.30184 24.2137 1.28303 24.0207 1.32791C23.8277 1.37278 23.6544 1.47892 23.527 1.63042C23.3995 1.78191 23.3246 1.97058 23.3136 2.16814C23.3026 2.3657 23.3561 2.56149 23.466 2.72615C22.974 3.18664 22.9371 3.3954 23.2938 4.01553C22.9125 4.43304 22.9002 4.62951 23.22 5.17596C22.8449 5.52594 22.8449 5.79609 23.2384 6.21974Z" fill="#D20000"/>
<path d="M28.5208 30.4169C28.5208 30.3801 28.5208 30.374 28.4654 30.4169L28.3485 30.4599C28.3485 30.4599 28.3177 30.4599 28.3115 30.4599C28.3415 30.5664 28.3621 30.6753 28.3731 30.7853C28.3731 30.7853 28.3731 30.8283 28.4285 30.7853L28.5886 30.7239C28.6255 30.7239 28.6255 30.6871 28.5886 30.6564C28.5516 30.6257 28.5516 30.5152 28.5208 30.4169Z" fill="#D20000"/>
<path d="M32.1672 28.9741L32.0196 29.0293C31.9642 29.0293 31.952 29.0723 31.9704 29.1276C32.0035 29.2119 32.0222 29.3011 32.0257 29.3916C32.0257 29.4468 32.0257 29.4653 32.1118 29.4407L32.3086 29.3609H32.3578C32.3578 29.3609 32.3947 29.3609 32.407 29.3609L32.6099 29.2872L32.696 29.2442C32.8083 29.2107 32.9143 29.1588 33.0096 29.0907C33.0581 29.0551 33.1157 29.0338 33.1757 29.0293C33.3635 29.0149 33.5421 28.9419 33.6861 28.8206C33.7271 28.7909 33.7769 28.7758 33.8275 28.7776C33.98 28.7644 34.1273 28.716 34.258 28.6364C34.3256 28.5934 34.3871 28.5259 34.4794 28.5259C34.6256 28.5133 34.7678 28.4716 34.8975 28.4031C34.9222 28.3841 34.9525 28.3739 34.9836 28.3739C35.0147 28.3739 35.045 28.3841 35.0697 28.4031C35.1783 28.4974 35.3138 28.5554 35.4571 28.5688C35.6268 28.593 35.7997 28.5603 35.9489 28.4759C36.098 28.3915 36.2148 28.26 36.2811 28.1022C36.3408 27.9751 36.355 27.8314 36.3214 27.6951C36.2878 27.5588 36.2085 27.4381 36.0966 27.3531C35.9792 27.2698 35.8402 27.222 35.6962 27.2155C35.5523 27.209 35.4095 27.244 35.2849 27.3163C35.1838 27.3635 35.0957 27.4346 35.0282 27.5234C34.9608 27.6122 34.9159 27.716 34.8975 27.8259C34.8975 27.9303 34.8422 27.9917 34.7376 28.0162C34.6149 28.0452 34.4997 28.0995 34.3994 28.1759C34.3828 28.1933 34.3627 28.2072 34.3405 28.2167C34.3183 28.2262 34.2944 28.2311 34.2703 28.2311C34.0682 28.2449 33.8751 28.3199 33.7168 28.446C33.6781 28.4757 33.6303 28.4909 33.5815 28.489C33.4313 28.4992 33.2857 28.5456 33.1572 28.6241C33.0721 28.6925 32.9702 28.737 32.8621 28.753C32.7606 28.7554 32.6613 28.7828 32.573 28.8328L32.1672 28.9741ZM35.2419 27.7093C35.3082 27.637 35.3936 27.5849 35.4882 27.5588C35.5828 27.5328 35.6828 27.5338 35.7769 27.5619C35.842 27.5867 35.8974 27.6317 35.9351 27.6902C35.9727 27.7488 35.9905 27.8179 35.986 27.8873C35.9716 27.9568 35.942 28.0223 35.8992 28.0789C35.8564 28.1356 35.8016 28.182 35.7386 28.2149C35.6756 28.2479 35.6061 28.2664 35.5351 28.2692C35.4641 28.272 35.3933 28.259 35.328 28.2311C35.2784 28.2118 35.2346 28.1802 35.2007 28.1393C35.1667 28.0984 35.1438 28.0496 35.1339 27.9974C35.1241 27.9452 35.1277 27.8914 35.1444 27.841C35.1612 27.7906 35.1905 27.7452 35.2296 27.7093H35.2419Z" fill="#D20000"/>
<path d="M31.934 29.7661C31.9616 29.6552 31.9616 29.5393 31.934 29.4284C31.9184 29.2724 31.8747 29.1206 31.8048 28.9802C31.7373 28.8846 31.6514 28.8034 31.5522 28.7412C31.4529 28.679 31.3423 28.6371 31.2268 28.6179C31.1284 28.6179 31.1161 28.6179 31.0915 28.71C31.0886 28.753 31.0886 28.796 31.0915 28.839V28.6793C31.0915 28.6179 31.0915 28.5872 30.9931 28.5934C30.9379 28.5875 30.8823 28.5875 30.8271 28.5934C30.7421 28.6107 30.6625 28.6483 30.5951 28.7028C30.5277 28.7572 30.4744 28.8271 30.4397 28.9065C30.3927 29.0413 30.3638 29.1817 30.3536 29.324C30.3389 29.4079 30.3478 29.4942 30.3793 29.5733C30.4107 29.6524 30.4636 29.7213 30.5319 29.7722C30.6217 29.8382 30.6919 29.9274 30.7348 30.0301C30.7717 30.1161 30.7902 30.2082 30.8271 30.2941C30.852 30.3646 30.8988 30.4253 30.9608 30.4673C31.0228 30.5093 31.0966 30.5304 31.1714 30.5274C31.3487 30.5235 31.5254 30.5071 31.7003 30.4783C31.7536 30.4724 31.8029 30.4473 31.8391 30.4078C31.8753 30.3683 31.8959 30.317 31.8971 30.2634C31.8872 30.2044 31.8707 30.1468 31.8479 30.0915C31.8479 30.0117 31.7679 29.9994 31.7003 29.981H31.7372C31.7858 29.9652 31.8295 29.9372 31.864 29.8995C31.8985 29.8618 31.9226 29.8159 31.934 29.7661Z" fill="#D20000"/>
<path d="M29.7444 31.2213C29.7939 31.1921 29.8412 31.1593 29.8858 31.123C29.9966 31.0438 30.0729 30.9254 30.0992 30.7919C30.1255 30.6584 30.0997 30.5199 30.0273 30.4047C30.0154 30.3855 30.0088 30.3636 30.0081 30.3412C30.0074 30.3187 30.0126 30.2964 30.0231 30.2765C30.0337 30.2567 30.0493 30.2399 30.0684 30.2279C30.0874 30.2159 30.1093 30.2091 30.1318 30.2082L30.5008 30.0608C30.5992 30.0302 30.6053 29.9933 30.5008 29.9258C30.4242 29.8678 30.3559 29.7996 30.2978 29.7232C30.2897 29.7176 30.28 29.7147 30.2702 29.7147C30.2603 29.7147 30.2506 29.7176 30.2425 29.7232L30.0888 29.7784L29.7444 29.9135C29.7357 29.8545 29.7357 29.7945 29.7444 29.7354C29.7567 29.6464 29.7815 29.5596 29.8182 29.4776C29.8735 29.2872 29.8182 29.1644 29.5968 29.1644H29.5169C29.3023 29.1952 29.0945 29.2616 28.9019 29.3609C28.7473 29.4345 28.6264 29.564 28.5637 29.7232C28.5637 29.7907 28.5637 29.8153 28.619 29.846L28.7297 29.8889C28.7059 29.8974 28.6798 29.8974 28.6559 29.8889C28.533 29.8889 28.5207 29.8889 28.5391 30.024C28.5616 30.17 28.5965 30.3138 28.6436 30.4538C28.7129 30.683 28.7992 30.9067 28.9019 31.123C28.9307 31.1878 28.9749 31.2446 29.0306 31.2884C29.0863 31.3323 29.1519 31.3619 29.2217 31.3748C29.3151 31.3828 29.4091 31.3724 29.4984 31.3441C29.5661 31.3441 29.603 31.295 29.5968 31.2213C29.5937 31.1886 29.5937 31.1557 29.5968 31.123C29.5968 31.123 29.5968 31.123 29.5968 31.1599C29.5968 31.1967 29.6583 31.2704 29.7444 31.2213Z" fill="#D20000"/>
<path d="M26.8613 31.3563C26.7795 31.2911 26.7033 31.2192 26.6335 31.1414C26.6234 31.1392 26.6129 31.1392 26.6027 31.1414C26.6027 31.1414 26.6027 31.1414 26.5658 31.1414L26.3072 31.2396C26.2641 31.2396 26.3072 31.2826 26.3072 31.301C26.3942 31.3641 26.4657 31.446 26.5165 31.5405C26.5165 31.5773 26.5596 31.5835 26.5966 31.5405L26.8551 31.4484C26.9105 31.4177 26.9167 31.3993 26.8613 31.3563Z" fill="#D20000"/>
<path d="M28.0471 30.2082C27.9519 30.1285 27.8408 30.0699 27.7212 30.0363C27.629 30.0363 27.5982 30.0363 27.5736 30.1161C27.549 30.1959 27.5306 30.2941 27.5121 30.3801C27.5063 30.2791 27.494 30.1786 27.4752 30.0792C27.4752 30.0301 27.4752 29.9933 27.3892 29.9933C27.2194 29.9855 27.0516 30.0318 26.9101 30.1257C26.7686 30.2195 26.6607 30.356 26.602 30.5152C26.5728 30.6039 26.5643 30.6982 26.5771 30.7908C26.5898 30.8833 26.6236 30.9718 26.6758 31.0493C26.7721 31.1659 26.8814 31.2709 27.0017 31.3625C27.0878 31.4484 27.0878 31.4484 27.1985 31.3932C27.1985 31.3932 27.1985 31.4361 27.1616 31.4546C27.1462 31.4655 27.1341 31.4804 27.1265 31.4977C27.1189 31.515 27.1162 31.5341 27.1186 31.5528C27.1186 31.6633 27.1555 31.7677 27.1801 31.8721C27.1828 31.899 27.1913 31.9251 27.205 31.9485C27.2187 31.9719 27.2372 31.9921 27.2593 32.0078C27.2814 32.0235 27.3066 32.0343 27.3333 32.0395C27.3599 32.0447 27.3874 32.0441 27.4138 32.0379C27.5453 32.0258 27.674 31.9926 27.795 31.9396C27.9277 31.8919 28.0442 31.8079 28.1312 31.6971C28.2182 31.5864 28.2722 31.4533 28.287 31.3134C28.3301 31.0661 28.3175 30.8123 28.2501 30.5704C28.2238 30.4308 28.1526 30.3036 28.0471 30.2082Z" fill="#D20000"/>
<path d="M26.215 31.3133L26.0244 31.1783C25.9567 31.123 25.9444 31.123 25.8768 31.1783C25.8186 31.2321 25.7546 31.2794 25.6862 31.3195C25.7488 31.2453 25.8005 31.1626 25.8399 31.0739C25.8612 31.0106 25.8633 30.9423 25.8457 30.8779C25.8282 30.8134 25.792 30.7555 25.7415 30.7116C25.7057 30.6867 25.6619 30.6758 25.6185 30.6809C25.5617 30.6822 25.5064 30.6992 25.4586 30.7301L24.7699 31.1476C24.7004 31.1786 24.6442 31.2333 24.6115 31.302C24.5789 31.3706 24.5718 31.4487 24.5916 31.5221C24.5994 31.5689 24.6139 31.6144 24.6346 31.6572C24.6963 31.7732 24.7641 31.8859 24.8375 31.9949C24.8693 32.0544 24.8859 32.1208 24.8859 32.1883C24.8859 32.2557 24.8693 32.3221 24.8375 32.3817C24.7969 32.4508 24.7659 32.5252 24.7453 32.6027C24.7334 32.6479 24.7366 32.6957 24.7543 32.7389C24.7721 32.7821 24.8035 32.8184 24.8437 32.8422C24.9115 32.8828 24.9891 32.9042 25.0681 32.9042C25.1472 32.9042 25.2248 32.8828 25.2926 32.8422C25.3777 32.7855 25.4579 32.7218 25.5324 32.6518C25.5755 32.615 25.6185 32.5904 25.6001 32.5229C25.6422 32.5353 25.6871 32.5353 25.7292 32.5229C25.8157 32.496 25.9041 32.4755 25.9936 32.4615C26.1459 32.4388 26.2842 32.36 26.381 32.2405C26.4388 32.1716 26.4807 32.0909 26.5038 32.0042C26.527 31.9174 26.5308 31.8266 26.5149 31.7382C26.4991 31.6498 26.464 31.5659 26.4122 31.4925C26.3604 31.4191 26.2931 31.3579 26.215 31.3133Z" fill="#D20000"/>
<path d="M24.8002 32.1544C24.7731 32.0645 24.7315 31.9795 24.6772 31.9027C24.6465 31.8536 24.6157 31.8475 24.5604 31.8659L23.2567 32.3632C23.0599 32.4369 22.857 32.5044 22.6418 32.5965C22.4088 32.7267 22.1849 32.8723 21.9715 33.0324C21.9715 33.0324 21.9346 33.0324 21.9715 33.0754C22.0084 33.1184 22.0145 33.0754 22.0391 33.0754L22.4757 33.0079C22.6114 32.9988 22.7455 32.9741 22.8754 32.9342L23.6257 32.6456L23.7364 32.6027L24.0869 32.4737H24.1238L24.4497 32.3448H24.4804H24.5481L24.6772 32.2957H24.7387C24.7575 32.3038 24.7787 32.3042 24.7977 32.2967C24.8167 32.2892 24.832 32.2745 24.8402 32.2558C24.8483 32.237 24.8487 32.2158 24.8412 32.1968C24.8337 32.1778 24.819 32.1626 24.8002 32.1544Z" fill="#D20000"/>
<path d="M72.4766 18.3582C71.853 17.7282 71.1097 17.2288 70.2903 16.8893C69.4709 16.5498 68.5918 16.3771 67.7047 16.3812V21.0536C67.6967 22.5641 67.1983 24.0313 66.2842 25.2349V29.1644L66.6593 29.0355L68.2274 28.5074C68.283 28.4922 68.3324 28.46 68.3688 28.4153C68.4975 28.2599 68.6651 28.1413 68.8546 28.0715L70.0415 27.6294L72.4397 26.7269C72.5755 26.6762 72.7191 26.6492 72.864 26.647C73.0998 26.6445 73.3308 26.7136 73.5263 26.8452C73.7218 26.9768 73.8726 27.1647 73.9586 27.3838C74.0178 27.5216 74.0484 27.6699 74.0484 27.8198C74.0484 27.9696 74.0178 28.118 73.9586 28.2557C73.822 28.5384 73.5821 28.7581 73.2883 28.8697L71.2775 29.6187L69.7278 30.1959C69.5864 30.2495 69.4363 30.2765 69.2851 30.2757C69.2176 30.2818 69.1497 30.2818 69.0822 30.2757C68.9682 30.302 68.857 30.339 68.7501 30.3862L68.1351 30.6502L66.3334 31.387V31.8107H72.3659C72.6475 31.8107 72.9263 31.7552 73.1863 31.6474C73.4463 31.5397 73.6825 31.3817 73.8813 31.1827C74.0801 30.9836 74.2376 30.7474 74.3448 30.4874C74.452 30.2275 74.5067 29.949 74.5059 29.6679V23.135C74.5028 22.2441 74.3218 21.3627 73.9733 20.5425C73.6249 19.7223 73.116 18.9797 72.4766 18.3582ZM67.1205 27.4268C67.039 27.4268 66.9607 27.3945 66.9031 27.3369C66.8454 27.2793 66.813 27.2012 66.813 27.1198C66.813 27.0384 66.8454 26.9603 66.9031 26.9027C66.9607 26.8452 67.039 26.8128 67.1205 26.8128C67.202 26.8128 67.2803 26.8452 67.3379 26.9027C67.3956 26.9603 67.428 27.0384 67.428 27.1198C67.428 27.2012 67.3956 27.2793 67.3379 27.3369C67.2803 27.3945 67.202 27.4268 67.1205 27.4268ZM67.1205 26.162C67.039 26.162 66.9607 26.1296 66.9031 26.0721C66.8454 26.0145 66.813 25.9364 66.813 25.855C66.813 25.7736 66.8454 25.6955 66.9031 25.6379C66.9607 25.5803 67.039 25.548 67.1205 25.548C67.202 25.548 67.2803 25.5803 67.3379 25.6379C67.3956 25.6955 67.428 25.7736 67.428 25.855C67.428 25.9364 67.3956 26.0145 67.3379 26.0721C67.2803 26.1296 67.202 26.162 67.1205 26.162ZM70.146 23.4543H69.8754V23.0921H70.146V23.4543ZM70.146 22.957H69.8754V21.4895H70.146V22.957ZM70.146 21.379H69.8754V21.0168H70.146V21.379ZM70.6687 23.4543H70.3797V23.0921H70.6687V23.4543ZM70.6687 22.957H70.3797V21.4895H70.6687V22.957ZM70.6687 21.379H70.3797V21.0168H70.6687V21.379ZM71.1852 23.4543H70.9024V23.0921H71.1852V23.4543ZM71.1852 22.957H70.9024V21.4895H71.1852V22.957ZM71.1852 21.379H70.9024V21.0168H71.1852V21.379ZM71.6956 23.4543H71.4128V23.0921H71.6956V23.4543ZM71.6956 22.957H71.4128V21.4895H71.6956V22.957ZM71.6956 21.379H71.4128V21.0168H71.6956V21.379ZM72.2122 23.4543H71.9478V23.0921H72.2306L72.2122 23.4543ZM72.2122 22.957H71.9478V21.4895H72.2306L72.2122 22.957ZM72.2122 21.379H71.9478V21.0168H72.2306L72.2122 21.379Z" fill="black"/>
<path d="M66.2783 5.40304H72.4277V5.18201C72.4277 4.50449 72.2939 3.83362 72.0338 3.20783C71.7738 2.58204 71.3926 2.01361 70.9122 1.5351C70.4318 1.05659 69.8616 0.677404 69.2342 0.419248C68.6069 0.161091 67.9346 0.0290392 67.2561 0.0306543H66.2783V5.40304Z" fill="black"/>
<path d="M59.6489 5.88818V7.98188C59.6489 8.11924 59.7031 8.25106 59.7998 8.34876C59.8965 8.44646 60.0279 8.50215 60.1655 8.50377H71.8862C72.0249 8.50377 72.1578 8.44878 72.2558 8.35091C72.3539 8.25304 72.4089 8.12029 72.4089 7.98188V5.88818H59.6489Z" fill="black"/>
<path d="M65.7983 5.40304V0.0306543H64.8144C64.1361 0.0290375 63.4642 0.161133 62.8372 0.419364C62.2101 0.677596 61.6403 1.05688 61.1604 1.53547C60.6805 2.01406 60.3 2.58254 60.0406 3.20829C59.7812 3.83405 59.6481 4.50478 59.6489 5.18201V5.40304H65.7983Z" fill="black"/>
<path d="M61.2847 14.3366C62.4715 14.269 63.1295 13.4156 63.8674 12.6972C64.4393 12.1508 65.0973 11.6841 65.9275 12.1753C65.9951 12.2183 66.1304 12.1753 66.2165 12.1323C66.4532 12.002 66.7244 11.948 66.993 11.9777C67.2617 12.0074 67.5145 12.1193 67.7169 12.2981C67.9543 12.4808 68.1821 12.6755 68.3995 12.8814C69.0883 13.5445 69.7032 14.3059 70.7793 14.3918C69.975 14.7058 69.0953 14.7742 68.2519 14.5883C67.5755 14.4716 66.9298 14.2138 66.2657 14.0418C66.116 13.9922 65.9542 13.9922 65.8045 14.0418C64.4977 14.6193 63.047 14.7905 61.6413 14.533C61.5363 14.5087 61.4335 14.4758 61.3339 14.4348L61.2847 14.3366Z" fill="black"/>
<path d="M64.3596 21.0537V16.3812C62.5655 16.3812 60.845 17.0928 59.5764 18.3594C58.3079 19.626 57.5952 21.3439 57.5952 23.1351V29.6618C57.5956 30.0086 57.6803 30.3501 57.8421 30.6571C58.0038 30.964 58.2377 31.2271 58.5238 31.4239C58.507 31.2118 58.5496 30.9993 58.6468 30.8099C58.7271 30.6544 58.8374 30.5163 58.9715 30.4035C59.1055 30.2908 59.2606 30.2056 59.4277 30.153L63.1174 28.968C63.315 28.8993 63.5231 28.8661 63.7323 28.8697C64.0053 28.8699 64.2749 28.9305 64.5217 29.0473C64.7684 29.1641 64.986 29.3341 65.159 29.5451L65.817 29.3118V25.2349C64.8901 24.0357 64.3786 22.5683 64.3596 21.0537ZM60.1349 23.4544H59.852V23.0921H60.1349V23.4544ZM60.1349 22.957H59.852V21.4896H60.1349V22.957ZM60.1349 21.3791H59.852V21.0168H60.1349V21.3791ZM60.6576 23.4544H60.3686V23.0921H60.6576V23.4544ZM60.6576 22.957H60.3686V21.4896H60.6576V22.957ZM60.6576 21.3791H60.3686V21.0168H60.6576V21.3791ZM61.168 23.4544H60.879V23.0921H61.168V23.4544ZM61.168 22.957H60.879V21.4896H61.168V22.957ZM61.168 21.3791H60.879V21.0168H61.168V21.3791ZM61.6846 23.4544H61.3955V23.0921H61.6846V23.4544ZM61.6846 22.957H61.3955V21.4896H61.6846V22.957ZM61.6846 21.3791H61.3955V21.0168H61.6846V21.3791ZM62.195 23.4544H61.9182V23.0921H62.195V23.4544ZM62.195 22.957H61.9182V21.4896H62.195V22.957ZM62.195 21.3791H61.9182V21.0168H62.195V21.3791ZM64.9437 27.4269C64.8654 27.4254 64.7905 27.394 64.7345 27.3392C64.6785 27.2844 64.6455 27.2104 64.6424 27.1321C64.644 27.0528 64.6762 26.9772 64.7324 26.9211C64.7886 26.8651 64.8643 26.8329 64.9437 26.8313C65.0253 26.8313 65.1035 26.8636 65.1612 26.9212C65.2188 26.9788 65.2512 27.0569 65.2512 27.1383C65.2512 27.2197 65.2188 27.2978 65.1612 27.3554C65.1035 27.4129 65.0253 27.4453 64.9437 27.4453V27.4269ZM64.9437 26.162C64.8622 26.162 64.784 26.1297 64.7263 26.0721C64.6687 26.0146 64.6363 25.9365 64.6363 25.855C64.6363 25.7736 64.6687 25.6955 64.7263 25.638C64.784 25.5804 64.8622 25.5481 64.9437 25.5481C65.0253 25.5481 65.1035 25.5804 65.1612 25.638C65.2188 25.6955 65.2512 25.7736 65.2512 25.855C65.2512 25.9365 65.2188 26.0146 65.1612 26.0721C65.1035 26.1297 65.0253 26.162 64.9437 26.162Z" fill="black"/>
<path d="M59.3479 31.5836L59.7537 32.7317C59.7537 32.8115 59.8214 32.8913 59.8521 32.9773L59.9075 33.1308C60.012 33.3887 60.1104 33.6465 60.2273 33.8983C60.2827 34.0059 60.3774 34.0881 60.4918 34.1281C60.6062 34.1681 60.7316 34.1628 60.8422 34.1132C62.0044 33.6159 63.1667 33.1124 64.3289 32.6212C64.559 32.5418 64.7563 32.3884 64.8899 32.1851C65.0234 31.9818 65.0856 31.74 65.0668 31.4976C65.052 31.3561 65.0868 31.2139 65.1653 31.0952C65.2438 30.9765 65.3611 30.8887 65.4973 30.8468C66.4627 30.46 67.422 30.0609 68.3813 29.6679C68.6227 29.5394 68.8957 29.4819 69.1685 29.5021C69.2474 29.5203 69.3294 29.5203 69.4083 29.5021C70.5951 29.0601 71.7758 28.6119 72.9627 28.1759C73.0593 28.1398 73.1385 28.0682 73.1842 27.9759C73.2299 27.8835 73.2386 27.7772 73.2086 27.6786C73.1668 27.5866 73.0911 27.5141 72.9972 27.4764C72.9033 27.4387 72.7984 27.4385 72.7044 27.476L69.1254 28.8206C69.0649 28.8428 69.0102 28.8785 68.9655 28.925C68.8352 29.0869 68.6597 29.2065 68.4613 29.2688L67.4897 29.6004C66.7579 29.8521 66.02 30.0977 65.2944 30.3556C65.1602 30.3851 65.0203 30.3753 64.8916 30.3274C64.7629 30.2795 64.6508 30.1954 64.5687 30.0854C64.4321 29.8984 64.2382 29.7607 64.0164 29.6931C63.7946 29.6256 63.5568 29.6318 63.3388 29.7109L59.6492 30.8959C59.5806 30.9162 59.5172 30.9513 59.4636 30.9986C59.41 31.0459 59.3673 31.1044 59.3386 31.1699C59.3099 31.2353 59.2959 31.3063 59.2975 31.3777C59.2991 31.4492 59.3163 31.5194 59.3479 31.5836ZM72.2309 27.8628C72.2917 27.793 72.3694 27.74 72.4566 27.7088C72.5439 27.6777 72.6376 27.6694 72.729 27.6847C72.7608 27.6909 72.7903 27.7055 72.8144 27.7271C72.8385 27.7488 72.8563 27.7765 72.8657 27.8075C72.8752 27.8384 72.8761 27.8713 72.8682 27.9027C72.8604 27.9341 72.8441 27.9627 72.8212 27.9856C72.7582 28.0587 72.675 28.1116 72.5821 28.1378C72.4891 28.164 72.3905 28.1623 72.2985 28.1329C72.1755 28.0777 72.1509 27.9856 72.2309 27.8628ZM64.1383 31.7555C64.1883 31.7248 64.2478 31.7134 64.3056 31.7236C64.3634 31.7338 64.4154 31.7648 64.4519 31.8107C64.4949 31.8547 64.5223 31.9114 64.5301 31.9724C64.5379 32.0333 64.5255 32.0951 64.4949 32.1484C64.4473 32.1945 64.3935 32.2337 64.335 32.2651L61.1927 33.5483C61.1479 33.5756 61.0967 33.5904 61.0443 33.5914C60.9919 33.5923 60.9401 33.5793 60.8944 33.5537C60.8487 33.5281 60.8107 33.4907 60.7842 33.4455C60.7577 33.4003 60.7438 33.3489 60.7438 33.2966C60.7349 33.2336 60.7485 33.1696 60.7823 33.1157C60.816 33.0618 60.8677 33.0215 60.9283 33.0019L64.1383 31.7555ZM64.1383 30.9511C64.1791 30.9977 64.2045 31.0557 64.2111 31.1172C64.2177 31.1788 64.2052 31.2408 64.1752 31.295C64.1244 31.3366 64.0686 31.3717 64.0091 31.3994L60.836 32.6273C60.7907 32.6521 60.7396 32.6645 60.688 32.6633C60.6363 32.6622 60.5858 32.6475 60.5416 32.6208C60.4974 32.594 60.461 32.5562 60.4361 32.511C60.4111 32.4658 60.3985 32.4149 60.3994 32.3633C60.3908 32.3012 60.4047 32.238 60.4385 32.1851C60.4723 32.1322 60.5238 32.0931 60.5839 32.0747L63.8185 30.8959C63.8713 30.8639 63.9339 30.8519 63.9948 30.8621C64.0557 30.8722 64.111 30.9038 64.1506 30.9511H64.1383ZM60.2949 31.1292L62.9207 30.2512C63.1236 30.1775 63.3327 30.1038 63.5356 30.0424C63.6009 30.0333 63.6671 30.0333 63.7324 30.0424C63.7823 30.0652 63.8248 30.1014 63.8552 30.147C63.8856 30.1925 63.9027 30.2456 63.9046 30.3003C63.9084 30.3587 63.8922 30.4166 63.8587 30.4646C63.8252 30.5126 63.7763 30.5477 63.7201 30.5643L61.8138 31.2459L60.4794 31.7125C60.4413 31.7323 60.3991 31.7433 60.3562 31.7444C60.3132 31.7456 60.2706 31.737 60.2315 31.7192C60.1923 31.7015 60.1578 31.675 60.1304 31.642C60.103 31.6089 60.0836 31.57 60.0735 31.5283C60.056 31.487 60.0484 31.4421 60.0513 31.3973C60.0542 31.3525 60.0675 31.309 60.0902 31.2703C60.1129 31.2316 60.1443 31.1986 60.182 31.1741C60.2197 31.1496 60.2625 31.1343 60.3072 31.1292H60.2949Z" fill="black"/>
</g>
<defs>
<clipPath id="clip0_361_716">
<rect width="98.6917" height="71.1734" fill="white"/>
</clipPath>
</defs>
</svg>
