<svg width="31" height="36" viewBox="0 0 31 36" fill="none" xmlns="http://www.w3.org/2000/svg">
<path d="M30.3521 30.2764C30.371 28.6029 28.7174 26.3253 27.6955 24.9255C26.2503 22.9444 24.2043 22.6685 22.7995 23.5568C21.5139 24.3708 20.8988 25.626 20.4261 26.8612C20.4085 26.9073 20.3811 26.9491 20.3459 26.9837C20.3106 27.0183 20.2684 27.0448 20.2219 27.0616C20.1755 27.0784 20.126 27.085 20.0768 27.0809C20.0276 27.0768 19.9798 27.0622 19.9368 27.038C13.0575 23.3329 10.3626 15.6351 11.3601 14.3722C12.0778 13.4645 13.9558 13.7615 14.833 13.0068C15.3883 12.5291 15.7152 11.8248 15.7895 11.0972C15.8554 10.8361 15.8848 10.5375 15.8765 10.1994C15.8964 10.2271 15.912 10.2576 15.9319 10.2853L15.8765 10.1833C15.8449 9.05343 15.4404 7.8825 14.9372 6.87006C13.9951 4.97319 13.1573 3.2276 11.2576 2.27501C9.88331 1.58897 7.90608 3.22705 6.69692 4.17243C5.8873 4.79143 4.87264 5.79832 4.38609 7.18149C2.98962 10.0686 3.60917 13.2489 4.53682 16.3267C7.07928 24.7621 14.0478 34.6421 22.9143 35.0472C26.3384 35.8102 30.3211 32.9885 30.3521 30.2764ZM10.8852 3.01813C12.5737 3.86488 13.3362 5.5146 14.193 7.24079C14.5515 7.96174 14.792 8.62618 14.9283 9.27287C15.35 11.2789 14.659 11.7483 13.3845 12.3329C11.7608 9.17534 9.90326 6.19676 8.22583 4.0483C8.86311 3.58281 10.1881 2.66624 10.8852 3.01813ZM24.293 34.3401C23.5665 34.3888 22.7984 34.2265 22.0154 33.8724C15.8166 31.0755 10.6957 25.8892 7.96593 19.6417C6.91858 17.2433 6.20039 14.6676 5.50604 12.1766C5.12589 10.8118 4.69476 9.26456 5.05052 7.83429C5.39521 6.44779 6.41042 5.43757 7.20175 4.8341L7.56417 4.55148C9.19505 6.63842 11.0038 9.53554 12.5948 12.6172C12.0406 12.7668 11.4748 12.8289 10.9661 12.8632C10.802 12.8743 10.642 12.9196 10.4964 12.9962C10.3508 13.0729 10.2229 13.1792 10.121 13.3083C10.019 13.4375 9.9452 13.5865 9.90437 13.7459C9.86353 13.9053 9.85655 14.0714 9.88386 14.2337C10.8093 19.8733 14.5111 25.0602 19.5428 27.7694C19.6898 27.8495 19.8522 27.8972 20.0191 27.9094C20.1861 27.9216 20.3537 27.898 20.5108 27.8402C20.6678 27.7824 20.8108 27.6917 20.93 27.5741C21.0492 27.4566 21.1419 27.315 21.2019 27.1588C21.4513 26.5093 21.7433 25.8582 22.1606 25.2913C25.153 28.4993 27.2106 32.7169 27.5209 33.2245C26.5301 33.8862 25.4201 34.273 24.293 34.3401ZM22.7186 24.6701C22.8793 24.5221 23.0506 24.3819 23.244 24.26C24.278 23.6044 25.8457 23.8011 27.0244 25.4154C27.875 26.5802 29.537 28.8517 29.5209 30.2665C29.5109 31.1387 28.8797 32.0647 28.1798 32.7092C26.3478 29.2623 24.559 26.6307 22.7186 24.6701ZM0.0154729 5.73958C0.000710591 5.79216 -0.00354516 5.84713 0.00294943 5.90136C0.00944402 5.95558 0.0265613 6.00799 0.0533229 6.0556C0.0800845 6.1032 0.115966 6.14507 0.158915 6.1788C0.201865 6.21253 0.251041 6.23746 0.303633 6.25218C1.01629 6.4531 1.66976 6.82347 2.20826 7.33167C2.28862 7.40759 2.39113 7.44583 2.49365 7.44583C2.86826 7.44583 3.05169 6.98477 2.77904 6.7282C2.14268 6.12752 1.37036 5.68983 0.528066 5.45253C0.422031 5.42283 0.308547 5.43636 0.21247 5.49017C0.116393 5.54397 0.0455554 5.63366 0.0154729 5.73958ZM3.8602 5.07016C3.94683 5.00221 4.00296 4.90265 4.01626 4.79335C4.02955 4.68405 3.99894 4.57394 3.93113 4.48719L2.19884 2.27058C2.16579 2.22603 2.12415 2.18855 2.07638 2.16035C2.02861 2.13215 1.97568 2.1138 1.92071 2.10637C1.86574 2.09895 1.80983 2.1026 1.7563 2.11712C1.70276 2.13164 1.65267 2.15673 1.60898 2.19091C1.56529 2.2251 1.52889 2.26768 1.50191 2.31615C1.47494 2.36462 1.45794 2.418 1.45192 2.47314C1.4459 2.52829 1.45098 2.58408 1.46686 2.63723C1.48274 2.69038 1.5091 2.73981 1.54439 2.78261L3.27612 4.99923C3.30977 5.04221 3.35156 5.07814 3.3991 5.10496C3.44664 5.13178 3.499 5.14898 3.55319 5.15557C3.60738 5.16215 3.66233 5.158 3.71491 5.14335C3.76749 5.12869 3.81723 5.10383 3.8602 5.07016ZM5.15304 3.09017C5.16233 3.14503 5.18253 3.19747 5.21247 3.24438C5.2424 3.29128 5.28144 3.3317 5.32729 3.36323C5.37313 3.39477 5.42484 3.41678 5.47934 3.42795C5.53385 3.43913 5.59005 3.43925 5.6446 3.4283C5.69916 3.41735 5.75096 3.39556 5.79693 3.36422C5.84291 3.33288 5.88212 3.29262 5.91225 3.24584C5.94238 3.19906 5.9628 3.14671 5.97232 3.09189C5.98184 3.03707 5.98025 2.98089 5.96765 2.92669C5.79375 2.06133 5.5204 1.21896 5.15304 0.416374C5.10711 0.31614 5.02325 0.238256 4.91989 0.199856C4.81654 0.161456 4.70217 0.165686 4.60193 0.211614C4.5017 0.257543 4.42382 0.341408 4.38542 0.44476C4.34702 0.548113 4.35125 0.662487 4.39717 0.762721C4.73818 1.50674 4.99183 2.28776 5.15304 3.09017Z" fill="black"/>
</svg>
