<svg width="44" height="50" viewBox="0 0 44 50" fill="none" xmlns="http://www.w3.org/2000/svg">
<path d="M43.3602 43.0037C43.3871 40.613 41.0248 37.3593 39.565 35.3596C37.5004 32.5294 34.5776 32.1352 32.5708 33.4042C30.7341 34.5671 29.8554 36.3602 29.1801 38.1248C29.1549 38.1907 29.1159 38.2504 29.0655 38.2998C29.0152 38.3492 28.9548 38.3872 28.8885 38.4111C28.8221 38.4351 28.7514 38.4445 28.6811 38.4387C28.6108 38.4328 28.5426 38.4119 28.4811 38.3773C18.6536 33.0844 14.8038 22.0876 16.2288 20.2834C17.2539 18.9867 19.9368 19.411 21.19 18.3328C21.9833 17.6504 22.4503 16.6442 22.5564 15.6047C22.6506 15.2319 22.6926 14.8052 22.6807 14.3223C22.7092 14.3619 22.7314 14.4054 22.7599 14.445L22.6807 14.2993C22.6356 12.6851 22.0577 11.0124 21.3389 9.56604C19.993 6.85623 18.7961 4.36253 16.0823 3.00169C14.119 2.02162 11.2944 4.36174 9.56702 5.7123C8.41042 6.59657 6.96091 8.035 6.26584 10.011C4.27089 14.1354 5.15595 18.6787 6.48117 23.0755C10.1133 35.126 20.0683 49.2403 32.7346 49.819C37.6262 50.9091 43.3158 46.8781 43.3602 43.0037ZM15.5503 4.06329C17.9625 5.27293 19.0518 7.62967 20.2757 10.0957C20.7879 11.1256 21.1314 12.0748 21.3262 12.9986C21.9286 15.8644 20.9414 16.5349 19.1206 17.3701C16.8011 12.8593 14.1475 8.60419 11.7512 5.53497C12.6616 4.86998 14.5544 3.56059 15.5503 4.06329ZM34.7043 48.8089C33.6664 48.8786 32.5692 48.6466 31.4506 48.1408C22.5952 44.1453 15.2796 36.7362 11.3799 27.8112C9.88368 24.3849 8.8577 20.7053 7.86577 17.1469C7.3227 15.197 6.70679 12.9868 7.21503 10.9435C7.70744 8.96281 9.15774 7.51963 10.2882 6.65752L10.806 6.25378C13.1358 9.23514 15.7197 13.3739 17.9925 17.7762C17.2009 17.99 16.3926 18.0787 15.6659 18.1277C15.4314 18.1435 15.2028 18.2082 14.9948 18.3177C14.7869 18.4273 14.6042 18.5791 14.4585 18.7636C14.3128 18.948 14.2074 19.161 14.1491 19.3887C14.0908 19.6163 14.0808 19.8537 14.1198 20.0855C15.4419 28.1421 20.7301 35.5519 27.9183 39.4223C28.1283 39.5366 28.3603 39.6048 28.5988 39.6222C28.8372 39.6397 29.0767 39.6059 29.3011 39.5233C29.5255 39.4408 29.7297 39.3112 29.8999 39.1433C30.0702 38.9754 30.2027 38.7731 30.2884 38.5499C30.6447 37.6221 31.0619 36.6919 31.658 35.8821C35.9329 40.4649 38.8723 46.4902 39.3156 47.2153C37.9002 48.1605 36.3145 48.7131 34.7043 48.8089ZM32.4552 34.9946C32.6848 34.7832 32.9294 34.583 33.2057 34.4088C34.6829 33.4723 36.9225 33.7533 38.6063 36.0594C39.8215 37.7234 42.1957 40.9684 42.1727 42.9895C42.1584 44.2355 41.2568 45.5584 40.2569 46.4791C37.6397 41.555 35.0843 37.7955 32.4552 34.9946ZM0.0221041 7.95108C0.00101513 8.02619 -0.00506451 8.10472 0.00421347 8.18219C0.0134915 8.25965 0.0379446 8.33452 0.0761755 8.40253C0.114406 8.47054 0.165665 8.53034 0.227022 8.57853C0.288379 8.62671 0.358631 8.66234 0.433762 8.68336C1.45185 8.97039 2.38537 9.49948 3.15466 10.2255C3.26945 10.3339 3.41591 10.3886 3.56236 10.3886C4.09752 10.3886 4.35955 9.72992 3.97006 9.36338C3.06097 8.50527 1.95766 7.88 0.75438 7.54101C0.602902 7.49857 0.440781 7.51791 0.303528 7.59477C0.166275 7.67163 0.0650791 7.79976 0.0221041 7.95108ZM5.51457 6.99477C5.63833 6.89769 5.71851 6.75546 5.73751 6.59932C5.75651 6.44318 5.71277 6.28588 5.6159 6.16195L3.1412 2.99535C3.09398 2.93172 3.0345 2.87818 2.96626 2.83789C2.89802 2.7976 2.8224 2.77138 2.74387 2.76078C2.66534 2.75017 2.58548 2.75539 2.50899 2.77613C2.43251 2.79688 2.36096 2.83272 2.29854 2.88155C2.23613 2.93038 2.18413 2.99121 2.14559 3.06046C2.10706 3.1297 2.08277 3.20596 2.07417 3.28474C2.06557 3.36351 2.07283 3.44322 2.09552 3.51914C2.1182 3.59507 2.15586 3.66569 2.20626 3.72684L4.68017 6.89344C4.72825 6.95483 4.78795 7.00615 4.85586 7.04447C4.92378 7.08279 4.99857 7.10736 5.07598 7.11677C5.15339 7.12618 5.2319 7.12025 5.30702 7.09931C5.38213 7.07838 5.45318 7.04286 5.51457 6.99477ZM7.36149 4.1662C7.37475 4.24458 7.40362 4.31949 7.44638 4.3865C7.48914 4.45351 7.54492 4.51125 7.61041 4.55629C7.6759 4.60134 7.74977 4.63278 7.82763 4.64875C7.9055 4.66472 7.98578 4.66488 8.06372 4.64924C8.14165 4.6336 8.21565 4.60248 8.28133 4.5577C8.34701 4.51293 8.40303 4.45542 8.44607 4.38859C8.48911 4.32177 8.51829 4.24697 8.53189 4.16866C8.54548 4.09034 8.54321 4.01009 8.52521 3.93267C8.27679 2.69643 7.88629 1.49305 7.36149 0.346495C7.29587 0.203303 7.17607 0.0920403 7.02842 0.0371832C6.88077 -0.0176739 6.71738 -0.0116318 6.57419 0.0539803C6.431 0.119592 6.31974 0.2394 6.26488 0.387046C6.21002 0.534693 6.21606 0.698084 6.28168 0.841276C6.76884 1.90416 7.13119 3.01991 7.36149 4.1662Z" fill="#F16E20"/>
</svg>
