<svg width="12" height="12" viewBox="0 0 12 12" fill="none" xmlns="http://www.w3.org/2000/svg">
<path d="M10 4.5H7.5V2C7.5 1.60217 7.34196 1.22064 7.06066 0.93934C6.77936 0.658036 6.39783 0.5 6 0.5C5.60218 0.5 5.22064 0.658036 4.93934 0.93934C4.65804 1.22064 4.5 1.60217 4.5 2V4.5H2C1.60217 4.5 1.22064 4.65804 0.93934 4.93934C0.658036 5.22064 0.5 5.60218 0.5 6C0.5 6.39782 0.658036 6.77936 0.93934 7.06066C1.22064 7.34196 1.60217 7.5 2 7.5H4.5V10C4.5 10.3978 4.65804 10.7794 4.93934 11.0607C5.22065 11.342 5.60218 11.5 6 11.5C6.39782 11.5 6.77936 11.342 7.06066 11.0607C7.34196 10.7794 7.5 10.3978 7.5 10V7.5H10C10.3978 7.5 10.7794 7.34196 11.0607 7.06066C11.342 6.77936 11.5 6.39782 11.5 6C11.5 5.60218 11.342 5.22064 11.0607 4.93934C10.7794 4.65804 10.3978 4.5 10 4.5Z" fill="#F16E20" stroke="#F16E20"/>
</svg>
