<svg width="66" height="64" viewBox="0 0 66 64" fill="none" xmlns="http://www.w3.org/2000/svg">
<g clip-path="url(#clip0_295_2109)">
<path opacity="0.855" fill-rule="evenodd" clip-rule="evenodd" d="M32.4539 -0.0999756C32.9865 -0.0999756 33.519 -0.0999756 34.0516 -0.0999756C37.0707 0.0973388 39.1011 1.63067 40.143 4.50002C40.5834 6.19734 41.1158 7.864 41.7407 9.50002C44.2611 12.2139 47.3567 13.9805 51.0275 14.8C52.8435 15.0304 54.641 15.3638 56.4199 15.8C57.9281 16.2044 59.0266 17.1044 59.7152 18.5C60.0998 20.3756 60.699 22.1756 61.5126 23.9C62.5777 25.1 63.643 26.3 64.7081 27.5C65.1317 28.2106 65.4313 28.944 65.6068 29.7C65.6068 30.7666 65.6068 31.8334 65.6068 32.9C64.8115 37.0272 63.9128 41.1606 62.9106 45.3C61.5807 49.2304 59.1508 52.2636 55.621 54.4C53.2374 55.3068 50.8408 56.1734 48.4312 57C45.5633 58.341 42.967 60.0744 40.6423 62.2C39.2505 63.03 37.7859 63.5966 36.2485 63.9C35.4496 63.9 34.6508 63.9 33.8519 63.9C32.3177 63.5652 30.7865 63.1318 29.2584 62.6C26.3709 61.1874 23.5082 59.7208 20.6706 58.2C17.0176 56.968 13.2896 56.0348 9.48653 55.4C4.12449 53.1056 1.29517 49.0056 0.998586 43.1C0.603661 39.9402 0.237515 36.8068 -0.0998535 33.7C-0.0998535 32.6334 -0.0998535 31.5666 -0.0998535 30.5C0.195466 28.115 1.02762 25.915 2.3966 23.9C4.23105 22.3634 6.19492 20.9966 8.28823 19.8C9.99155 18.09 11.1566 16.0567 11.7833 13.7C12.0744 13.208 12.4406 12.7747 12.8817 12.4C14.0607 11.6728 15.3256 11.1395 16.6763 10.8C17.0975 10.5718 17.4636 10.2718 17.7748 9.90002C18.0153 8.64946 18.1484 7.38278 18.1742 6.10002C18.3611 5.35854 18.7272 4.7252 19.2726 4.20002C23.4569 2.05866 27.8506 0.625336 32.4539 -0.0999756ZM30.257 1.70002C33.3772 1.38933 36.2066 2.12266 38.745 3.90002C39.3479 4.56996 39.4811 5.30328 39.1444 6.10002C38.5119 7.26668 37.6132 8.16668 36.4482 8.80002C35.4722 9.25538 34.4736 9.65539 33.4525 10C31.2538 10.2804 29.0903 10.7137 26.9617 11.3C26.4442 11.287 25.945 11.187 25.4638 11C23.9558 10.1114 22.358 9.44468 20.6706 9.00002C18.9069 8.19874 18.6407 7.0654 19.8718 5.60002C23.2945 4.15798 26.7564 2.85798 30.257 1.70002ZM12.8817 29.3C10.5728 31.0432 8.34261 32.9098 6.19121 34.9C2.96076 38.9392 2.4282 43.3392 4.59348 48.1C4.98213 48.948 5.51471 49.6812 6.19121 50.3C6.32436 50.0334 6.32436 49.7666 6.19121 49.5C5.39187 47.6986 4.79272 45.8318 4.39376 43.9C4.04454 39.881 5.40926 36.581 8.48795 34C10.7548 32.3322 13.0848 30.7656 15.478 29.3C17.0537 28.2248 18.5516 27.0248 19.9716 25.7C21.3005 24.3718 22.0994 22.7718 22.3682 20.9C22.544 19.1711 22.6438 17.4378 22.6678 15.7C22.7101 14.4082 22.5769 13.1415 22.2684 11.9C23.4846 11.6926 24.3834 12.1593 24.9645 13.3C25.3584 14.6012 25.5915 15.9345 25.6635 17.3C25.8123 21.9048 24.7139 26.1716 22.3682 30.1C19.7759 32.6478 16.88 34.7812 13.6806 36.5C11.4075 38.0096 9.5768 39.943 8.18837 42.3C7.47834 44.339 7.54491 46.339 8.38809 48.3C7.97951 44.0182 9.61051 40.7848 13.2811 38.6C16.2103 37.2 19.1395 35.8 22.0687 34.4C25.7476 32.0674 27.6449 28.7008 27.7606 24.3C27.8938 23.2334 27.8938 22.1666 27.7606 21.1C27.464 18.9599 27.2309 16.8599 27.0616 14.8C27.4652 12.8109 28.6968 11.8443 30.7563 11.9C31.1208 11.9887 31.4869 12.0554 31.8548 12.1C31.568 14.0371 31.6013 15.9705 31.9546 17.9C32.8092 20.1448 33.8743 22.2782 35.1501 24.3C36.1874 26.3434 36.2539 28.41 35.3498 30.5C32.5937 35.3462 31.0291 40.5462 30.6565 46.1C30.808 51.2112 33.0714 55.0446 37.4468 57.6C37.713 57.7334 37.9795 57.7334 38.2457 57.6C35.5537 55.3034 33.6564 52.4702 32.5538 49.1C31.8973 46.6354 31.8973 44.1688 32.5538 41.7C33.8737 38.2678 35.2717 34.8678 36.7478 31.5C38.7703 26.7874 38.1047 22.5208 34.7506 18.7C33.6256 16.6875 33.3594 14.5541 33.9518 12.3C34.0133 12.1384 34.1131 12.0051 34.2514 11.9C34.762 11.7187 35.2613 11.5187 35.7492 11.3C35.9607 12.9473 36.3602 14.5473 36.9475 16.1C38.4448 18.833 40.0425 21.4996 41.7407 24.1C42.3816 25.3592 42.781 26.6924 42.939 28.1C43.0722 30.7666 43.2052 33.4334 43.3384 36.1C43.8066 38.8466 44.3392 41.58 44.9362 44.3C45.5227 47.047 46.8874 49.2804 49.0304 51C52.4779 52.105 54.4085 50.8382 54.8221 47.2C54.7888 47.0334 54.7556 46.8666 54.7223 46.7C54.1701 48.1712 53.3378 49.4712 52.2258 50.6C50.6986 51.1104 49.6001 50.6104 48.9305 49.1C48.1179 46.9252 47.3855 44.7252 46.7336 42.5C45.9326 37.6204 45.0672 32.7538 44.1373 27.9C43.0059 24.6332 41.4082 21.6332 39.3441 18.9C38.1035 16.1452 37.704 13.2785 38.1458 10.3C38.4891 9.8886 38.8886 9.55528 39.3441 9.30002C39.7949 9.418 40.1278 9.68466 40.3427 10.1C41.0565 11.7307 41.9219 13.264 42.939 14.7C44.8175 16.9821 46.8481 19.1488 49.0304 21.2C50.3253 22.2822 51.7233 23.2156 53.2244 24C55.6743 24.9732 58.1374 25.9066 60.6139 26.8C62.7335 28.3118 63.7988 30.3784 63.8094 33C63.7574 39.9668 61.2943 45.9002 56.4199 50.8C55.3548 51.4666 54.2895 52.1334 53.2244 52.8C48.3431 54.5768 43.8164 56.9768 39.6437 60C36.0224 62.0266 32.2943 62.2266 28.4596 60.6C24.4229 58.612 20.3621 56.6788 16.2769 54.8C13.612 54.3332 10.9491 53.8666 8.28823 53.4C4.14929 50.9798 1.9857 47.3466 1.79745 42.5C1.6794 38.432 1.61282 34.3654 1.59774 30.3C2.22872 26.333 4.45887 23.6996 8.28823 22.4C11.3635 21.7306 14.2261 20.5972 16.876 19C18.6815 17.2169 19.7133 15.0502 19.9716 12.5C20.6059 13.8092 21.0387 15.1759 21.2698 16.6C21.1126 17.805 20.6798 18.905 19.9716 19.9C19.1329 20.8068 18.2342 21.6402 17.2755 22.4C13.9135 24.517 10.5184 26.5836 7.08993 28.6C5.50794 29.7838 4.20978 31.2172 3.19547 32.9C3.0458 33.127 3.07909 33.327 3.29532 33.5C5.21478 32.2136 7.21194 31.047 9.28681 30C10.4749 29.7024 11.6732 29.469 12.8817 29.3ZM17.6749 11.5C17.9951 11.4624 18.2614 11.5624 18.4738 11.8C17.9319 16.2077 15.4021 18.6077 10.8845 19C11.1841 18.7 11.4837 18.4 11.7833 18.1C12.3977 16.6696 13.0634 15.2696 13.7804 13.9C14.8296 12.6597 16.1278 11.8597 17.6749 11.5ZM43.2386 12.9C43.2506 12.7914 43.3171 12.7247 43.4383 12.7C46.5489 14.849 50.0108 16.149 53.8235 16.6C56.0552 16.9015 57.4865 18.1349 58.1174 20.3C58.3675 21.421 58.6671 22.521 59.0162 23.6C56.0863 22.9006 53.3568 21.7006 50.8278 20C48.2037 17.739 45.6739 15.3724 43.2386 12.9Z" fill="#F16E20"/>
<path opacity="0.846" fill-rule="evenodd" clip-rule="evenodd" d="M29.8576 2.50004C31.8513 2.24064 33.7155 2.6073 35.4496 3.60004C36.7476 5.2188 36.4149 6.4188 34.451 7.20004C33.3991 7.43222 32.3339 7.59888 31.2556 7.70004C30.9426 7.70464 30.6764 7.60464 30.4567 7.40004C31.8909 6.8497 33.1557 6.0497 34.2513 5.00004C33.8385 4.60328 33.3392 4.36994 32.7535 4.30004C30.6335 4.75128 28.5033 5.15128 26.3625 5.50004C25.8545 5.43576 25.6547 5.1691 25.7634 4.70004C26.909 3.53092 28.2736 2.79758 29.8576 2.50004Z" fill="#F16E20"/>
<path opacity="0.84" fill-rule="evenodd" clip-rule="evenodd" d="M42.24 16.7C42.822 16.9812 43.3213 17.3812 43.7379 17.9C46.008 21.574 48.9039 24.674 52.4255 27.2C54.3422 28.2538 56.2062 29.3872 58.0176 30.6C60.3135 32.8992 60.8128 35.5324 59.5154 38.5C57.9353 40.6068 56.3376 40.6068 54.7223 38.5C52.2991 34.3743 49.6029 30.441 46.6337 26.7C47.5976 26.8104 48.4296 27.277 49.1302 28.1C51.9015 31.1858 54.4311 34.4526 56.7194 37.9C57.2449 37.2346 57.5444 36.468 57.6181 35.6C57.4514 34.431 57.0851 33.3309 56.5197 32.3C54.4674 30.989 52.5034 29.5556 50.6281 28C48.0675 25.4348 45.6376 22.7348 43.3384 19.9C42.7521 18.905 42.386 17.8383 42.24 16.7Z" fill="#F16E20"/>
<path opacity="0.832" fill-rule="evenodd" clip-rule="evenodd" d="M31.0559 29.7C31.3155 30.0446 31.4487 30.478 31.4553 31C31.2196 33.4424 30.6537 35.8092 29.7577 38.1C28.8924 40.1 28.0268 42.1 27.1614 44.1C25.3943 48.5798 26.0268 52.6798 29.0587 56.4C28.9922 56.4333 28.9255 56.4665 28.859 56.5C25.365 54.0998 23.8671 50.7663 24.3654 46.5C24.7101 44.9974 25.1762 43.5308 25.7634 42.1C27.2699 39.3496 28.6679 36.5496 29.9574 33.7C30.2183 32.3264 30.5844 30.993 31.0559 29.7Z" fill="#F16E20"/>
<path opacity="0.818" fill-rule="evenodd" clip-rule="evenodd" d="M39.0445 36.7C39.2195 36.6738 39.3527 36.7404 39.444 36.9C39.6966 37.5592 39.9297 38.2258 40.143 38.9C40.9432 41.9722 41.7421 45.0388 42.5396 48.1C43.3422 49.8998 44.6404 51.2332 46.434 52.1C46.6815 52.4014 46.6148 52.6348 46.2343 52.8C45.1918 52.813 44.2597 52.4796 43.4383 51.8C41.5214 50.2104 40.3565 48.177 39.9433 45.7C39.8921 42.9192 39.5259 40.1858 38.8448 37.5C38.9938 37.2528 39.0603 36.986 39.0445 36.7Z" fill="#F16E20"/>
</g>
<defs>
<clipPath id="clip0_295_2109">
<rect width="65.7067" height="64" fill="white"/>
</clipPath>
</defs>
</svg>
