<svg width="44" height="45" viewBox="0 0 44 45" fill="none" xmlns="http://www.w3.org/2000/svg">
<g clip-path="url(#clip0_361_796)">
<path d="M25.3392 5.86434C25.3392 5.86434 26.2652 5.47748 26.5734 6.56158C26.8815 7.64569 25.8807 8.34143 22.407 8.4179C18.9334 8.49437 21.0203 7.72216 22.407 7.64419C23.7938 7.56622 25.4933 7.58271 25.4933 7.11038C25.4933 6.63806 24.642 5.86884 25.3392 5.86434Z" fill="black"/>
<path d="M28.2744 8.415C28.2744 8.415 29.8796 8.02814 30.4136 9.11224C30.9477 10.1963 29.2168 10.8921 23.1985 10.9701C17.1801 11.048 20.7974 10.2728 23.1985 10.1948C25.5995 10.1169 28.5421 10.1334 28.5421 9.66104C28.5421 9.18871 27.0776 8.4195 28.2744 8.415Z" fill="black"/>
<path d="M23.6996 3.58672C23.6996 3.58672 24.2487 3.3558 24.4327 3.99906C24.6167 4.64233 24.0228 5.04868 21.9598 5.10116C19.8968 5.15364 21.137 4.68881 21.9598 4.64233C22.7826 4.59585 23.7864 4.60634 23.7864 4.32594C23.7864 4.04555 23.2853 3.58822 23.6996 3.58672Z" fill="black"/>
<path d="M33.2918 19.175C33.2918 19.175 35.2217 20.0072 36.3796 21.4002C37.5374 22.7932 37.4267 23.5175 36.9301 23.1711C36.4334 22.8247 35.7722 21.7781 35.4535 21.4302C35.1349 21.0823 32.9537 19.9203 33.2918 19.343" fill="black"/>
<path d="M31.8335 19.6113C31.8335 19.6113 33.7648 20.4435 34.9227 21.8365C36.0806 23.2295 35.9699 23.9537 35.4733 23.6059C34.9766 23.258 34.3154 22.2129 33.9967 21.865C33.6781 21.5171 31.4969 20.3566 31.8335 19.7748" fill="black"/>
<path d="M30.5423 19.8588C30.5423 19.8588 32.4721 20.691 33.63 22.0839C34.7879 23.4769 34.6772 24.2012 34.1806 23.8533C33.6839 23.5054 33.0227 22.4603 32.704 22.1124C32.3854 21.7646 30.2042 20.604 30.5423 20.0222" fill="black"/>
<path d="M36.9797 28.4355C36.9797 28.4355 37.1188 30.5348 36.4067 32.2037C35.6946 33.8726 34.999 34.0975 35.0843 33.4992C35.1695 32.9009 35.7949 31.8333 35.9594 31.3895C36.124 30.9456 36.1644 28.4715 36.8346 28.5105" fill="black"/>
<path d="M35.9309 28.1447C35.9309 28.1447 36.0685 30.2439 35.3579 31.9128C34.6473 33.5817 33.9487 33.8066 34.0339 33.2083C34.1192 32.61 34.746 31.5424 34.9106 31.0986C35.0751 30.6547 35.1155 28.1821 35.7842 28.2196" fill="black"/>
<path d="M34.7595 27.5194C34.7595 27.5194 34.8971 29.6186 34.185 31.289C33.4729 32.9594 32.7773 33.1813 32.8626 32.5846C32.9479 31.9878 33.5747 30.9172 33.7392 30.4748C33.9038 30.0325 33.9442 27.5569 34.6129 27.5944" fill="black"/>
<path d="M41.8238 31.7615C38.8124 30.4839 38.0015 32.3987 38.0015 32.3987C38.0015 32.3987 38.0599 30.7164 38.8124 27.5C39.5648 24.2837 38.8124 22.0675 37.5961 20.2097C36.3799 18.3519 33.9474 16.6695 33.9474 16.6695C33.9474 16.6695 35.3372 15.5089 35.4539 13.8835C35.5706 12.2581 34.0057 12.1996 34.0057 12.1996C34.0057 12.1996 34.9318 11.3884 35.0529 10.9236C35.1741 10.4588 35.2265 9.82002 33.9519 9.18275C32.6773 8.54549 31.868 9.18275 31.868 9.18275C31.868 9.18275 31.3459 7.84674 30.5934 7.32493C29.8409 6.80312 28.2193 6.39677 28.2193 6.39677C28.2193 6.39677 27.7555 5.17772 26.7143 4.71289C26.121 4.44333 25.504 4.22949 24.8712 4.07413C24.7905 3.67214 24.7869 3.2584 24.8608 2.85507C24.976 2.10535 24.1128 -0.859066 20.9233 0.24303C17.7339 1.34513 18.7751 4.36502 18.7751 4.36502C15.3014 4.24806 15.4166 6.39677 15.4166 6.39677C14.5867 6.49876 13.7708 6.6934 12.9841 6.97706C11.711 7.44039 12.0581 8.83338 12.0581 8.83338C12.0581 8.83338 9.04669 8.19611 8.52608 9.883C8.36493 10.3246 8.37008 10.81 8.54057 11.2482C8.71105 11.6863 9.03516 12.047 9.4521 12.2626C9.4521 12.2626 8.12067 12.9599 8.23586 14.4098C8.35105 15.8598 9.68398 16.3261 9.68398 16.3261C9.68398 16.3261 6.67255 17.2438 4.64549 20.3926C2.61842 23.5415 4.76218 24.1068 4.76218 24.1068C4.76218 24.1068 4.47195 24.1653 4.58864 26.7773C4.6863 28.4668 4.9954 30.1373 5.50867 31.7495C5.41742 31.712 5.03594 31.5995 3.66113 31.2757C1.46053 30.7389 -0.161121 32.6881 0.0139094 35.3017C0.18894 37.9152 1.287 40.1854 5.9844 40.9351C10.6818 41.6848 12.0057 43.0238 13.4539 43.6626C14.902 44.3014 15.828 44.8817 22.4881 44.9971C29.1483 45.1126 30.6532 43.4887 32.3332 42.2111C34.0132 40.9336 35.575 40.7027 40.3233 40.2963C45.0716 39.89 44.8352 33.0375 41.8238 31.7615ZM37.5378 29.7297C37.2505 31.703 37.2505 33.7378 34.5293 34.7874C31.8081 35.837 24.6842 37.0365 23.4082 37.2165C22.1321 37.3964 22.1919 35.6496 22.352 34.1411C22.5121 32.6327 22.4074 28.9755 22.4074 28.9755C22.3909 28.2168 22.3086 28.0458 26.5363 27.9259C30.7639 27.8059 35.4554 26.5404 37.0755 25.6122C38.6957 24.6841 37.828 27.7564 37.5378 29.7297ZM37.7128 21.7826C38.4069 22.9432 38.0015 24.0453 36.0328 24.975C34.0641 25.9046 26.7098 27.0052 24.2773 26.9482C21.8449 26.8913 22.4074 25.3813 22.4074 25.3813V19.5724C22.4074 18.8227 22.9459 18.8752 22.9459 18.8752C24.5595 19.0817 26.1913 19.1013 27.8094 18.9337C30.3002 18.6428 31.9218 17.5977 33.2533 17.6561C34.5847 17.7146 37.0172 20.6161 37.7128 21.7781V21.7826ZM34.5264 14.1204C34.5264 14.8162 34.7208 15.8013 31.3414 17.0219C28.8182 17.9154 26.1286 18.237 23.4665 17.9635C22.1919 17.8031 22.4193 17.1973 22.4193 17.1973V14.9946C22.4193 13.6016 23.4665 14.4128 25.3724 14.4713C27.2783 14.5298 30.758 14.1819 32.2644 13.1968C33.7709 12.2116 34.5264 13.4187 34.5264 14.1159V14.1204ZM9.25463 14.5808C9.25463 13.0648 9.62563 12.9554 10.6683 13.1893C11.711 13.4232 12.8659 13.8251 12.8659 13.8251C12.7508 14.2899 13.8503 15.2765 14.5459 15.5269C15.2416 15.7773 15.9357 14.6378 15.9926 14.1774C16.0494 13.7171 17.9628 13.8865 19.758 14.1189C21.5531 14.3514 21.0894 15.338 21.031 16.4986C20.9727 17.6591 20.2831 17.6007 20.2831 17.6007C20.2831 17.6007 19.5874 18.4134 15.4764 17.6007C11.3655 16.788 9.25313 16.0967 9.25463 14.5808ZM20.6047 26.6528C19.5291 26.7113 12.9841 26.4204 9.56878 25.3183L6.15195 24.2147C6.15195 24.2147 9.39375 22.8218 10.4903 20.907C11.5869 18.9922 11.1276 17.959 11.1276 17.959C11.1276 17.959 12.7493 18.7088 16.4548 18.7088C20.1604 18.7088 21.1253 18.7088 21.1253 19.7584V25.7367C21.1253 25.7367 21.6803 26.5944 20.6047 26.6528ZM20.3459 37.2165C19.013 37.2165 13.7441 36.5207 10.791 35.5341C7.83793 34.5475 7.43102 34.2566 6.62019 32.5157C5.80937 30.7748 5.00303 24.9975 6.62019 25.6662C9.34423 26.8793 12.2332 27.6792 15.1922 28.0398C20.0497 28.6201 20.2905 28.0398 20.6047 28.5047C20.9188 28.9695 21.1103 33.6703 21.1298 35.0048C21.1492 36.3393 21.6713 37.2165 20.3459 37.2165ZM8.81481 21.1424C7.42503 22.129 6.15195 23.1741 6.15195 23.1741C6.15195 23.1741 5.64631 20.8905 9.68398 17.962C9.68398 17.959 10.2046 20.1527 8.81481 21.1424ZM4.81902 23.4605C4.81902 23.4605 4.12488 20.9564 7.59857 18.0625C7.97243 17.8009 8.41719 17.6601 8.87315 17.6591C9.62114 17.6591 7.65691 18.184 6.15195 20.2082C4.64698 22.2325 4.81902 23.4605 4.81902 23.4605ZM4.41062 38.9528C2.21002 37.9662 1.1344 37.0665 2.09483 34.4875C3.05525 31.9084 5.2738 32.9191 5.6852 34.2551C6.0966 35.5911 5.9844 36.7441 4.87737 36.3693C3.77033 35.9944 4.56321 33.7198 3.11659 35.2372C1.66997 36.7546 3.94686 38.3216 5.33663 37.9737C6.72641 37.6258 7.3637 36.1174 7.3637 36.1174C7.3637 36.1174 8.46325 38.3216 9.0422 39.0188C9.62114 39.7161 9.61965 40.0055 9.61965 40.0055C9.61965 40.0055 6.60972 39.9395 4.41062 38.9528ZM19.4707 43.9505C17.3853 43.7181 14.3171 43.1378 11.8846 40.6997C9.4521 38.2616 7.42503 35.1277 8.93149 36.1729C8.93149 36.1729 14.9543 37.9722 18.081 37.9722C21.2076 37.9722 21.1103 38.0292 21.1298 39.0743C21.1492 40.1194 21.2704 43.3702 21.2704 43.3702C21.2704 43.3702 21.5561 44.1829 19.4707 43.9505ZM10.2046 11.6194C8.43333 10.8606 9.51044 9.82002 10.4365 9.82002C11.3625 9.82002 12.0581 9.8785 12.0581 9.8785C12.0581 9.8785 11.9998 8.7764 13.5646 7.9637C14.536 7.4701 15.6028 7.19383 16.6912 7.154C16.6912 7.154 15.7068 5.93194 16.9231 5.35466C18.1393 4.77737 19.9345 4.88983 19.9345 4.88983C19.9345 4.88983 18.3128 2.80109 19.9345 1.6975C21.5561 0.593901 22.3655 1.34962 23.2346 1.6975C24.1038 2.04537 23.2346 4.88983 23.2346 4.88983C24.231 4.8516 25.2273 4.96896 26.1877 5.2377C27.8213 5.68753 27.2888 7.61733 27.2888 7.61733C27.2888 7.61733 28.2731 6.80462 29.6629 7.61733C30.0627 7.84125 30.4094 8.14923 30.6793 8.52013C30.9491 8.89103 31.1357 9.31605 31.2262 9.76604C31.9103 9.59047 32.6275 9.59047 33.3116 9.76604C34.4695 10.0554 34.1793 11.333 33.6587 11.7393C33.1381 12.1457 29.8948 13.2448 21.5561 13.1953C13.2175 13.1458 11.9773 12.3781 10.2046 11.6194ZM32.037 40.4088C27.5625 44.2759 25.0882 44.066 23.5817 43.991C22.0752 43.916 22.4074 42.5575 22.4074 42.5575L22.2682 38.9004C22.2443 38.2571 22.4178 38.2616 23.9871 38.2616C25.5564 38.2616 31.5164 37.275 33.7739 36.2298C36.0313 35.1847 35.3955 37.5074 32.037 40.4088ZM39.7384 38.5525C37.5378 39.5391 34.5293 39.6021 34.5293 39.6021C34.5293 39.6021 34.5293 39.3127 35.1053 38.6155C35.6813 37.9182 36.7853 35.714 36.7853 35.714C36.7853 35.714 37.4226 37.2225 38.8124 37.5718C40.2021 37.9212 42.4805 36.3438 41.0324 34.8339C39.5843 33.3239 40.3757 35.5971 39.2761 35.9719C38.1766 36.3468 38.0599 35.1922 38.4683 33.8562C38.8767 32.5202 41.0952 31.5051 42.0587 34.0886C43.0221 36.6722 41.939 37.5658 39.7384 38.5525Z" fill="black"/>
</g>
<defs>
<clipPath id="clip0_361_796">
<rect width="44" height="45" fill="white"/>
</clipPath>
</defs>
</svg>
