<svg width="86" height="77" viewBox="0 0 86 77" fill="none" xmlns="http://www.w3.org/2000/svg">
<mask id="path-1-outside-1_295_2073" maskUnits="userSpaceOnUse" x="-1.13057" y="-1.2947" width="70.7107" height="70.7107" fill="black">
<rect fill="white" x="-1.13057" y="-1.2947" width="70.7107" height="70.7107"/>
<path d="M27.8786 27.5792C27.6759 27.2881 27.5037 26.9862 27.4275 26.6787C27.1298 25.4767 28.3342 24.9125 29.3141 24.6911C31.4056 24.2187 33.9053 25.2559 35.7275 26.6931C35.2456 23.9692 36.9929 20.9919 39.2866 19.6071C40.7413 18.729 42.5503 18.3297 44.2231 18.7025C43.1828 17.3289 42.4984 15.7674 42.8023 14.1429C43.0748 12.6866 44.5277 12.1675 45.4562 13.367C46.1927 14.3186 46.7626 15.3845 47.53 16.3221C47.6992 16.5287 47.8729 16.7313 48.0481 16.9326C48.0936 16.8646 48.1534 16.8073 48.2234 16.7648C50.4108 15.4051 51.4034 12.4864 54.2855 12.4325C54.8911 12.4211 55.5777 12.5259 56.1601 12.3159C57.0835 11.9828 57.5481 10.7695 57.3969 9.86425C57.2194 8.80196 56.1362 7.93252 55.0615 8.37171C54.5126 8.59603 54.039 8.98504 53.4876 9.21726C53.2906 9.30017 53.022 9.31898 52.8663 9.1331C52.316 8.47603 51.5562 7.51941 52.0771 6.63532C52.569 5.80047 54.0272 5.2737 54.9255 5.04054C57.3072 4.42202 59.9389 5.98916 60.855 8.19965C61.8109 10.5063 60.824 13.1858 58.8694 14.6345C57.7139 15.491 56.5438 15.5506 55.1636 15.6833C53.9278 15.8022 53.2563 16.6335 52.4222 17.468C51.7199 18.1705 51.0078 18.8309 50.2635 19.4815C50.847 20.1824 51.4559 20.8822 52.1909 21.4131C52.7929 21.8481 53.4608 22.1845 54.0371 22.6578C54.9051 23.3705 55.4236 24.3601 54.4336 25.2279C53.3572 26.1713 51.6494 26.1197 50.4624 25.4275C49.7771 25.0279 49.2745 24.4999 48.8359 23.9216C49.2818 27.0779 47.1364 30.8384 44.0175 31.6975C43.0005 31.9776 41.8486 31.904 40.7344 31.5755C42.1455 33.4759 43.0463 35.9515 42.95 38.1044C42.9 39.2212 42.4932 40.8289 41.2387 41.1514C39.9735 41.4765 39.3996 40.1343 38.9685 39.1912C39.0867 39.6017 39.181 40.0187 39.2509 40.4401C39.3842 41.239 39.7942 43.0766 38.6184 43.2878C37.5623 43.4776 36.6958 42.0256 36.1118 40.9338C35.5864 42.7697 34.2022 44.3123 32.1673 44.5185C31.7937 44.5559 31.4166 44.5401 31.0475 44.4715C31.6422 45.0194 32.2617 45.5394 32.8912 46.0527C33.6235 46.65 34.9864 47.4892 34.4107 48.6116C33.7804 49.8403 31.9855 49.7176 30.896 49.338C29.6857 48.9162 28.5953 48.1509 27.6197 47.2786C27.5111 49.2235 26.4515 50.844 24.3497 51.6401C23.0477 52.1332 21.6765 52.0471 20.4166 51.5862C21.2953 53.0272 21.8499 54.7418 21.4844 56.1307C21.2639 56.9688 20.5334 57.6538 19.6376 57.3794C18.7347 57.1028 18.085 56.0365 17.5783 55.3151C17.1476 54.7022 16.7635 54.1531 16.3261 53.6371C14.8763 55.6154 12.7507 57.2057 11.021 58.9158C10.38 59.5496 8.19856 61.7883 7.23404 60.4032C6.56492 59.4423 8.12593 57.9701 8.68544 57.3114C9.74388 56.0654 10.8501 54.8777 11.9592 53.6783C12.5928 52.9932 13.1314 51.9913 13.9878 51.5621C12.8737 50.673 11.7981 49.6772 11.3976 48.2803C11.0284 46.9924 11.7622 45.9258 13.1368 45.8699C14.0848 45.8312 15.0043 46.3206 15.783 46.9235C15.2708 45.5427 15.1708 44.0234 15.8069 42.6865C16.366 41.5112 18.1664 39.2476 19.87 38.8526C19.2267 37.9804 18.6003 36.8569 18.912 35.7424C19.171 34.8162 20.038 34.1861 20.993 34.3066C21.7852 34.4066 22.5901 34.8717 23.3287 35.5075C23.2983 34.7217 23.4509 33.9226 23.8614 33.2532C24.4073 32.363 25.236 31.9434 26.0768 31.4919C25.5624 31.0034 25.1145 30.4489 24.9464 29.8235C24.4468 27.9661 26.207 27.4238 27.8786 27.5792ZM57.6455 14.0626C58.5728 13.5868 59.3383 12.7644 59.7698 11.817C60.7135 9.74466 59.8422 7.42725 57.8365 6.38305C56.7536 5.81928 55.6317 5.76089 54.5119 6.23572C54.1876 6.37318 53.7452 6.5228 53.4759 6.75096C52.8935 7.2446 53.0506 7.67911 53.3861 8.13367C54.6555 7.52928 55.668 6.76322 57.1032 7.69843C58.5257 8.62554 58.7418 10.4856 57.9584 11.9022C56.981 13.6696 55.4571 13.1706 53.78 13.4469C51.6117 13.8042 50.5655 16.6171 48.7594 17.7092C48.7536 17.7127 48.7481 17.7141 48.7423 17.7174C49.1088 18.1268 49.4756 18.5359 49.8277 18.9581L49.8421 18.9754C50.6148 18.0626 51.3791 17.1522 52.1913 16.2694C52.9074 15.4912 53.4138 14.7945 54.4945 14.6017C55.5576 14.4122 56.6525 14.572 57.6455 14.0626ZM50.0692 23.2022C50.8552 23.9111 51.7729 24.4434 52.8427 24.5006C53.3254 24.5263 53.721 24.6362 53.9335 24.0939C54.0553 23.7827 53.9681 23.3253 53.6209 23.2043C53.4875 23.0661 53.2607 22.9636 53.0979 22.8631C52.6711 22.5998 52.2182 22.3794 51.7941 22.1119C50.6369 21.3819 49.7304 20.302 48.8057 19.3109C47.7635 18.1937 46.6326 17.1721 45.6545 15.9945C45.3243 15.597 44.9026 14.738 44.4741 14.4689C43.5647 13.898 43.8013 15.4378 43.947 15.97C44.791 19.0532 47.8118 21.1662 50.0692 23.2022ZM47.1071 27.5844C47.8686 26.3506 48.241 24.8681 47.9953 23.5297C47.3933 22.8687 47.0043 22.0421 46.3698 21.4069C45.5985 20.6346 44.5734 20.2018 43.4899 20.0988C41.8094 19.939 40.1349 20.5693 38.9166 21.7224C37.6777 22.8947 36.8191 24.8023 37.1226 26.5217C37.4418 28.33 39.2684 29.4902 40.8869 30.0405C43.4336 30.9061 45.7226 29.8278 47.1071 27.5844ZM39.5711 38.7045C39.7409 39.0129 40.0609 39.814 40.4252 39.8743C40.8971 39.9524 41.1277 39.3372 41.2379 39.0169C42.2434 36.0942 39.9407 32.8 38.3348 30.4252C37.5421 29.8767 36.8659 29.2033 36.4028 28.4589C34.335 27.3159 32.3465 25.2003 29.7606 25.8202C29.4257 25.9005 28.815 25.9999 28.9337 26.5149C28.9772 26.7036 29.5857 27.267 29.698 27.4113C30.2755 28.154 30.7311 29.0514 31.5023 29.62C32.1226 30.0773 32.7869 30.2914 33.3119 30.8873C33.8441 31.4913 34.1615 32.2576 34.6081 32.9203C35.5969 34.3879 37.1712 35.0963 38.2368 36.4435C38.7856 37.1373 39.1474 37.9346 39.5711 38.7045ZM35.5589 39.93C34.4692 38.1495 32.801 36.1181 31.0606 34.9645C29.8298 34.1487 28.5619 33.5175 27.3955 32.5907C27.2353 32.4633 27.062 32.3285 26.8842 32.1864C26.6164 32.5271 26.3144 32.8013 25.8819 33.1123C24.8425 33.8592 24.4156 34.8424 24.666 36.0953C24.9948 37.7398 26.1951 39.096 27.3434 40.2429C28.3614 41.2596 29.5404 42.3913 30.9732 42.7618C32.9417 43.2709 34.8084 41.661 35.5589 39.93ZM14.6237 52.1928C13.2987 53.5584 11.9991 54.9769 10.7286 56.3997C10.156 57.0409 9.59384 57.6927 9.05449 58.3621C8.84627 58.6206 8.09133 59.3585 8.1411 59.721C8.18359 60.0305 9.65119 58.8755 9.88882 58.6626C10.3715 58.2301 10.8169 57.7588 11.2925 57.3191C12.7909 55.9338 14.3398 54.489 15.9401 53.2093C15.6628 52.9174 15.3654 52.6452 15.0502 52.3946C14.9302 52.2996 14.8077 52.2041 14.6845 52.1083C14.6681 52.139 14.6476 52.1675 14.6237 52.1928ZM13.8515 47.2737C12.6372 46.9924 12.6735 48.0132 13.1568 48.8353C13.4989 49.4169 13.9815 49.9095 14.4549 50.3841C15.7249 51.6569 16.9854 52.7831 18.0007 54.2695C18.4007 54.8551 18.8292 55.529 19.4072 55.9593C20.1684 56.5259 20.2513 55.7037 20.2165 55.001C20.1494 53.6444 19.5561 51.9947 18.7462 50.7189C18.1953 50.3397 17.6935 49.8937 17.2522 49.3912C16.9969 49.0997 16.7595 48.7794 16.5423 48.4409C16.46 48.474 16.3682 48.4749 16.2852 48.4435C15.4403 48.1406 14.7241 47.4759 13.8515 47.2737ZM17.3417 43.075C16.3365 44.691 16.9302 46.6855 18.0129 48.1092C19.1051 49.5454 21.0209 50.5409 22.8466 50.3884C25.0078 50.208 26.7091 48.4275 26.6247 46.3213C26.4802 46.1729 26.3373 46.0229 26.1961 45.8713C24.8969 44.4755 23.7576 42.9294 22.4087 41.5806C21.9657 41.1377 21.5155 40.7068 21.0826 40.2599C20.4514 40.5427 19.7751 40.6082 19.1731 41.0498C18.4516 41.5789 17.8127 42.3177 17.3417 43.075ZM20.9075 35.4365C18.8877 36.1186 22.9984 40.0281 23.5686 40.6499C24.8248 42.0197 25.8868 43.5588 27.1062 44.9609C28.3843 46.4304 29.9977 48.2865 32.0139 48.6286C32.4946 48.7102 33.7532 48.7743 33.4649 47.8717C33.381 47.6092 32.8116 47.364 32.5909 47.2022C31.8278 46.6434 31.0789 46.0761 30.4011 45.4135C29.8194 44.8449 28.7941 43.9225 28.227 42.9722C27.7658 42.5781 27.3343 42.1489 26.931 41.7306C25.7218 40.4767 24.4388 39.0988 23.771 37.456C23.7269 37.406 23.6832 37.3551 23.6386 37.3064C23.121 36.743 21.8006 35.135 20.9075 35.4365ZM27.3817 31.0096C27.9143 31.5439 28.4938 32.0283 29.05 32.5371C29.9748 33.3832 31.1107 33.9193 32.0778 34.7135C34.0545 36.337 35.664 38.3386 37.099 40.434C37.25 40.6544 38.1081 41.9921 38.3371 41.8923C38.6421 41.7593 38.3516 39.9043 38.3144 39.6859C38.1327 38.6198 37.747 37.5629 37.2925 36.5691C37.1675 36.4651 37.0339 36.3676 36.8882 36.2791C36.0652 35.779 35.1917 35.5048 34.4515 34.8577C33.7632 34.2558 33.2856 33.5458 32.7936 32.7854C32.4559 32.2636 32.162 31.8134 31.6276 31.4607C31.2283 31.1971 30.7948 31.0165 30.4156 30.7179C29.7555 30.1981 29.2819 29.4832 28.8048 28.7989C28.0899 28.6702 27.322 28.6347 26.7298 28.9807C25.7622 29.5456 26.8665 30.4926 27.3817 31.0096Z"/>
</mask>
<path d="M27.8786 27.5792C27.6759 27.2881 27.5037 26.9862 27.4275 26.6787C27.1298 25.4767 28.3342 24.9125 29.3141 24.6911C31.4056 24.2187 33.9053 25.2559 35.7275 26.6931C35.2456 23.9692 36.9929 20.9919 39.2866 19.6071C40.7413 18.729 42.5503 18.3297 44.2231 18.7025C43.1828 17.3289 42.4984 15.7674 42.8023 14.1429C43.0748 12.6866 44.5277 12.1675 45.4562 13.367C46.1927 14.3186 46.7626 15.3845 47.53 16.3221C47.6992 16.5287 47.8729 16.7313 48.0481 16.9326C48.0936 16.8646 48.1534 16.8073 48.2234 16.7648C50.4108 15.4051 51.4034 12.4864 54.2855 12.4325C54.8911 12.4211 55.5777 12.5259 56.1601 12.3159C57.0835 11.9828 57.5481 10.7695 57.3969 9.86425C57.2194 8.80196 56.1362 7.93252 55.0615 8.37171C54.5126 8.59603 54.039 8.98504 53.4876 9.21726C53.2906 9.30017 53.022 9.31898 52.8663 9.1331C52.316 8.47603 51.5562 7.51941 52.0771 6.63532C52.569 5.80047 54.0272 5.2737 54.9255 5.04054C57.3072 4.42202 59.9389 5.98916 60.855 8.19965C61.8109 10.5063 60.824 13.1858 58.8694 14.6345C57.7139 15.491 56.5438 15.5506 55.1636 15.6833C53.9278 15.8022 53.2563 16.6335 52.4222 17.468C51.7199 18.1705 51.0078 18.8309 50.2635 19.4815C50.847 20.1824 51.4559 20.8822 52.1909 21.4131C52.7929 21.8481 53.4608 22.1845 54.0371 22.6578C54.9051 23.3705 55.4236 24.3601 54.4336 25.2279C53.3572 26.1713 51.6494 26.1197 50.4624 25.4275C49.7771 25.0279 49.2745 24.4999 48.8359 23.9216C49.2818 27.0779 47.1364 30.8384 44.0175 31.6975C43.0005 31.9776 41.8486 31.904 40.7344 31.5755C42.1455 33.4759 43.0463 35.9515 42.95 38.1044C42.9 39.2212 42.4932 40.8289 41.2387 41.1514C39.9735 41.4765 39.3996 40.1343 38.9685 39.1912C39.0867 39.6017 39.181 40.0187 39.2509 40.4401C39.3842 41.239 39.7942 43.0766 38.6184 43.2878C37.5623 43.4776 36.6958 42.0256 36.1118 40.9338C35.5864 42.7697 34.2022 44.3123 32.1673 44.5185C31.7937 44.5559 31.4166 44.5401 31.0475 44.4715C31.6422 45.0194 32.2617 45.5394 32.8912 46.0527C33.6235 46.65 34.9864 47.4892 34.4107 48.6116C33.7804 49.8403 31.9855 49.7176 30.896 49.338C29.6857 48.9162 28.5953 48.1509 27.6197 47.2786C27.5111 49.2235 26.4515 50.844 24.3497 51.6401C23.0477 52.1332 21.6765 52.0471 20.4166 51.5862C21.2953 53.0272 21.8499 54.7418 21.4844 56.1307C21.2639 56.9688 20.5334 57.6538 19.6376 57.3794C18.7347 57.1028 18.085 56.0365 17.5783 55.3151C17.1476 54.7022 16.7635 54.1531 16.3261 53.6371C14.8763 55.6154 12.7507 57.2057 11.021 58.9158C10.38 59.5496 8.19856 61.7883 7.23404 60.4032C6.56492 59.4423 8.12593 57.9701 8.68544 57.3114C9.74388 56.0654 10.8501 54.8777 11.9592 53.6783C12.5928 52.9932 13.1314 51.9913 13.9878 51.5621C12.8737 50.673 11.7981 49.6772 11.3976 48.2803C11.0284 46.9924 11.7622 45.9258 13.1368 45.8699C14.0848 45.8312 15.0043 46.3206 15.783 46.9235C15.2708 45.5427 15.1708 44.0234 15.8069 42.6865C16.366 41.5112 18.1664 39.2476 19.87 38.8526C19.2267 37.9804 18.6003 36.8569 18.912 35.7424C19.171 34.8162 20.038 34.1861 20.993 34.3066C21.7852 34.4066 22.5901 34.8717 23.3287 35.5075C23.2983 34.7217 23.4509 33.9226 23.8614 33.2532C24.4073 32.363 25.236 31.9434 26.0768 31.4919C25.5624 31.0034 25.1145 30.4489 24.9464 29.8235C24.4468 27.9661 26.207 27.4238 27.8786 27.5792ZM57.6455 14.0626C58.5728 13.5868 59.3383 12.7644 59.7698 11.817C60.7135 9.74466 59.8422 7.42725 57.8365 6.38305C56.7536 5.81928 55.6317 5.76089 54.5119 6.23572C54.1876 6.37318 53.7452 6.5228 53.4759 6.75096C52.8935 7.2446 53.0506 7.67911 53.3861 8.13367C54.6555 7.52928 55.668 6.76322 57.1032 7.69843C58.5257 8.62554 58.7418 10.4856 57.9584 11.9022C56.981 13.6696 55.4571 13.1706 53.78 13.4469C51.6117 13.8042 50.5655 16.6171 48.7594 17.7092C48.7536 17.7127 48.7481 17.7141 48.7423 17.7174C49.1088 18.1268 49.4756 18.5359 49.8277 18.9581L49.8421 18.9754C50.6148 18.0626 51.3791 17.1522 52.1913 16.2694C52.9074 15.4912 53.4138 14.7945 54.4945 14.6017C55.5576 14.4122 56.6525 14.572 57.6455 14.0626ZM50.0692 23.2022C50.8552 23.9111 51.7729 24.4434 52.8427 24.5006C53.3254 24.5263 53.721 24.6362 53.9335 24.0939C54.0553 23.7827 53.9681 23.3253 53.6209 23.2043C53.4875 23.0661 53.2607 22.9636 53.0979 22.8631C52.6711 22.5998 52.2182 22.3794 51.7941 22.1119C50.6369 21.3819 49.7304 20.302 48.8057 19.3109C47.7635 18.1937 46.6326 17.1721 45.6545 15.9945C45.3243 15.597 44.9026 14.738 44.4741 14.4689C43.5647 13.898 43.8013 15.4378 43.947 15.97C44.791 19.0532 47.8118 21.1662 50.0692 23.2022ZM47.1071 27.5844C47.8686 26.3506 48.241 24.8681 47.9953 23.5297C47.3933 22.8687 47.0043 22.0421 46.3698 21.4069C45.5985 20.6346 44.5734 20.2018 43.4899 20.0988C41.8094 19.939 40.1349 20.5693 38.9166 21.7224C37.6777 22.8947 36.8191 24.8023 37.1226 26.5217C37.4418 28.33 39.2684 29.4902 40.8869 30.0405C43.4336 30.9061 45.7226 29.8278 47.1071 27.5844ZM39.5711 38.7045C39.7409 39.0129 40.0609 39.814 40.4252 39.8743C40.8971 39.9524 41.1277 39.3372 41.2379 39.0169C42.2434 36.0942 39.9407 32.8 38.3348 30.4252C37.5421 29.8767 36.8659 29.2033 36.4028 28.4589C34.335 27.3159 32.3465 25.2003 29.7606 25.8202C29.4257 25.9005 28.815 25.9999 28.9337 26.5149C28.9772 26.7036 29.5857 27.267 29.698 27.4113C30.2755 28.154 30.7311 29.0514 31.5023 29.62C32.1226 30.0773 32.7869 30.2914 33.3119 30.8873C33.8441 31.4913 34.1615 32.2576 34.6081 32.9203C35.5969 34.3879 37.1712 35.0963 38.2368 36.4435C38.7856 37.1373 39.1474 37.9346 39.5711 38.7045ZM35.5589 39.93C34.4692 38.1495 32.801 36.1181 31.0606 34.9645C29.8298 34.1487 28.5619 33.5175 27.3955 32.5907C27.2353 32.4633 27.062 32.3285 26.8842 32.1864C26.6164 32.5271 26.3144 32.8013 25.8819 33.1123C24.8425 33.8592 24.4156 34.8424 24.666 36.0953C24.9948 37.7398 26.1951 39.096 27.3434 40.2429C28.3614 41.2596 29.5404 42.3913 30.9732 42.7618C32.9417 43.2709 34.8084 41.661 35.5589 39.93ZM14.6237 52.1928C13.2987 53.5584 11.9991 54.9769 10.7286 56.3997C10.156 57.0409 9.59384 57.6927 9.05449 58.3621C8.84627 58.6206 8.09133 59.3585 8.1411 59.721C8.18359 60.0305 9.65119 58.8755 9.88882 58.6626C10.3715 58.2301 10.8169 57.7588 11.2925 57.3191C12.7909 55.9338 14.3398 54.489 15.9401 53.2093C15.6628 52.9174 15.3654 52.6452 15.0502 52.3946C14.9302 52.2996 14.8077 52.2041 14.6845 52.1083C14.6681 52.139 14.6476 52.1675 14.6237 52.1928ZM13.8515 47.2737C12.6372 46.9924 12.6735 48.0132 13.1568 48.8353C13.4989 49.4169 13.9815 49.9095 14.4549 50.3841C15.7249 51.6569 16.9854 52.7831 18.0007 54.2695C18.4007 54.8551 18.8292 55.529 19.4072 55.9593C20.1684 56.5259 20.2513 55.7037 20.2165 55.001C20.1494 53.6444 19.5561 51.9947 18.7462 50.7189C18.1953 50.3397 17.6935 49.8937 17.2522 49.3912C16.9969 49.0997 16.7595 48.7794 16.5423 48.4409C16.46 48.474 16.3682 48.4749 16.2852 48.4435C15.4403 48.1406 14.7241 47.4759 13.8515 47.2737ZM17.3417 43.075C16.3365 44.691 16.9302 46.6855 18.0129 48.1092C19.1051 49.5454 21.0209 50.5409 22.8466 50.3884C25.0078 50.208 26.7091 48.4275 26.6247 46.3213C26.4802 46.1729 26.3373 46.0229 26.1961 45.8713C24.8969 44.4755 23.7576 42.9294 22.4087 41.5806C21.9657 41.1377 21.5155 40.7068 21.0826 40.2599C20.4514 40.5427 19.7751 40.6082 19.1731 41.0498C18.4516 41.5789 17.8127 42.3177 17.3417 43.075ZM20.9075 35.4365C18.8877 36.1186 22.9984 40.0281 23.5686 40.6499C24.8248 42.0197 25.8868 43.5588 27.1062 44.9609C28.3843 46.4304 29.9977 48.2865 32.0139 48.6286C32.4946 48.7102 33.7532 48.7743 33.4649 47.8717C33.381 47.6092 32.8116 47.364 32.5909 47.2022C31.8278 46.6434 31.0789 46.0761 30.4011 45.4135C29.8194 44.8449 28.7941 43.9225 28.227 42.9722C27.7658 42.5781 27.3343 42.1489 26.931 41.7306C25.7218 40.4767 24.4388 39.0988 23.771 37.456C23.7269 37.406 23.6832 37.3551 23.6386 37.3064C23.121 36.743 21.8006 35.135 20.9075 35.4365ZM27.3817 31.0096C27.9143 31.5439 28.4938 32.0283 29.05 32.5371C29.9748 33.3832 31.1107 33.9193 32.0778 34.7135C34.0545 36.337 35.664 38.3386 37.099 40.434C37.25 40.6544 38.1081 41.9921 38.3371 41.8923C38.6421 41.7593 38.3516 39.9043 38.3144 39.6859C38.1327 38.6198 37.747 37.5629 37.2925 36.5691C37.1675 36.4651 37.0339 36.3676 36.8882 36.2791C36.0652 35.779 35.1917 35.5048 34.4515 34.8577C33.7632 34.2558 33.2856 33.5458 32.7936 32.7854C32.4559 32.2636 32.162 31.8134 31.6276 31.4607C31.2283 31.1971 30.7948 31.0165 30.4156 30.7179C29.7555 30.1981 29.2819 29.4832 28.8048 28.7989C28.0899 28.6702 27.322 28.6347 26.7298 28.9807C25.7622 29.5456 26.8665 30.4926 27.3817 31.0096Z" fill="#F16E20"/>
<path d="M27.8786 27.5792C27.6759 27.2881 27.5037 26.9862 27.4275 26.6787C27.1298 25.4767 28.3342 24.9125 29.3141 24.6911C31.4056 24.2187 33.9053 25.2559 35.7275 26.6931C35.2456 23.9692 36.9929 20.9919 39.2866 19.6071C40.7413 18.729 42.5503 18.3297 44.2231 18.7025C43.1828 17.3289 42.4984 15.7674 42.8023 14.1429C43.0748 12.6866 44.5277 12.1675 45.4562 13.367C46.1927 14.3186 46.7626 15.3845 47.53 16.3221C47.6992 16.5287 47.8729 16.7313 48.0481 16.9326C48.0936 16.8646 48.1534 16.8073 48.2234 16.7648C50.4108 15.4051 51.4034 12.4864 54.2855 12.4325C54.8911 12.4211 55.5777 12.5259 56.1601 12.3159C57.0835 11.9828 57.5481 10.7695 57.3969 9.86425C57.2194 8.80196 56.1362 7.93252 55.0615 8.37171C54.5126 8.59603 54.039 8.98504 53.4876 9.21726C53.2906 9.30017 53.022 9.31898 52.8663 9.1331C52.316 8.47603 51.5562 7.51941 52.0771 6.63532C52.569 5.80047 54.0272 5.2737 54.9255 5.04054C57.3072 4.42202 59.9389 5.98916 60.855 8.19965C61.8109 10.5063 60.824 13.1858 58.8694 14.6345C57.7139 15.491 56.5438 15.5506 55.1636 15.6833C53.9278 15.8022 53.2563 16.6335 52.4222 17.468C51.7199 18.1705 51.0078 18.8309 50.2635 19.4815C50.847 20.1824 51.4559 20.8822 52.1909 21.4131C52.7929 21.8481 53.4608 22.1845 54.0371 22.6578C54.9051 23.3705 55.4236 24.3601 54.4336 25.2279C53.3572 26.1713 51.6494 26.1197 50.4624 25.4275C49.7771 25.0279 49.2745 24.4999 48.8359 23.9216C49.2818 27.0779 47.1364 30.8384 44.0175 31.6975C43.0005 31.9776 41.8486 31.904 40.7344 31.5755C42.1455 33.4759 43.0463 35.9515 42.95 38.1044C42.9 39.2212 42.4932 40.8289 41.2387 41.1514C39.9735 41.4765 39.3996 40.1343 38.9685 39.1912C39.0867 39.6017 39.181 40.0187 39.2509 40.4401C39.3842 41.239 39.7942 43.0766 38.6184 43.2878C37.5623 43.4776 36.6958 42.0256 36.1118 40.9338C35.5864 42.7697 34.2022 44.3123 32.1673 44.5185C31.7937 44.5559 31.4166 44.5401 31.0475 44.4715C31.6422 45.0194 32.2617 45.5394 32.8912 46.0527C33.6235 46.65 34.9864 47.4892 34.4107 48.6116C33.7804 49.8403 31.9855 49.7176 30.896 49.338C29.6857 48.9162 28.5953 48.1509 27.6197 47.2786C27.5111 49.2235 26.4515 50.844 24.3497 51.6401C23.0477 52.1332 21.6765 52.0471 20.4166 51.5862C21.2953 53.0272 21.8499 54.7418 21.4844 56.1307C21.2639 56.9688 20.5334 57.6538 19.6376 57.3794C18.7347 57.1028 18.085 56.0365 17.5783 55.3151C17.1476 54.7022 16.7635 54.1531 16.3261 53.6371C14.8763 55.6154 12.7507 57.2057 11.021 58.9158C10.38 59.5496 8.19856 61.7883 7.23404 60.4032C6.56492 59.4423 8.12593 57.9701 8.68544 57.3114C9.74388 56.0654 10.8501 54.8777 11.9592 53.6783C12.5928 52.9932 13.1314 51.9913 13.9878 51.5621C12.8737 50.673 11.7981 49.6772 11.3976 48.2803C11.0284 46.9924 11.7622 45.9258 13.1368 45.8699C14.0848 45.8312 15.0043 46.3206 15.783 46.9235C15.2708 45.5427 15.1708 44.0234 15.8069 42.6865C16.366 41.5112 18.1664 39.2476 19.87 38.8526C19.2267 37.9804 18.6003 36.8569 18.912 35.7424C19.171 34.8162 20.038 34.1861 20.993 34.3066C21.7852 34.4066 22.5901 34.8717 23.3287 35.5075C23.2983 34.7217 23.4509 33.9226 23.8614 33.2532C24.4073 32.363 25.236 31.9434 26.0768 31.4919C25.5624 31.0034 25.1145 30.4489 24.9464 29.8235C24.4468 27.9661 26.207 27.4238 27.8786 27.5792ZM57.6455 14.0626C58.5728 13.5868 59.3383 12.7644 59.7698 11.817C60.7135 9.74466 59.8422 7.42725 57.8365 6.38305C56.7536 5.81928 55.6317 5.76089 54.5119 6.23572C54.1876 6.37318 53.7452 6.5228 53.4759 6.75096C52.8935 7.2446 53.0506 7.67911 53.3861 8.13367C54.6555 7.52928 55.668 6.76322 57.1032 7.69843C58.5257 8.62554 58.7418 10.4856 57.9584 11.9022C56.981 13.6696 55.4571 13.1706 53.78 13.4469C51.6117 13.8042 50.5655 16.6171 48.7594 17.7092C48.7536 17.7127 48.7481 17.7141 48.7423 17.7174C49.1088 18.1268 49.4756 18.5359 49.8277 18.9581L49.8421 18.9754C50.6148 18.0626 51.3791 17.1522 52.1913 16.2694C52.9074 15.4912 53.4138 14.7945 54.4945 14.6017C55.5576 14.4122 56.6525 14.572 57.6455 14.0626ZM50.0692 23.2022C50.8552 23.9111 51.7729 24.4434 52.8427 24.5006C53.3254 24.5263 53.721 24.6362 53.9335 24.0939C54.0553 23.7827 53.9681 23.3253 53.6209 23.2043C53.4875 23.0661 53.2607 22.9636 53.0979 22.8631C52.6711 22.5998 52.2182 22.3794 51.7941 22.1119C50.6369 21.3819 49.7304 20.302 48.8057 19.3109C47.7635 18.1937 46.6326 17.1721 45.6545 15.9945C45.3243 15.597 44.9026 14.738 44.4741 14.4689C43.5647 13.898 43.8013 15.4378 43.947 15.97C44.791 19.0532 47.8118 21.1662 50.0692 23.2022ZM47.1071 27.5844C47.8686 26.3506 48.241 24.8681 47.9953 23.5297C47.3933 22.8687 47.0043 22.0421 46.3698 21.4069C45.5985 20.6346 44.5734 20.2018 43.4899 20.0988C41.8094 19.939 40.1349 20.5693 38.9166 21.7224C37.6777 22.8947 36.8191 24.8023 37.1226 26.5217C37.4418 28.33 39.2684 29.4902 40.8869 30.0405C43.4336 30.9061 45.7226 29.8278 47.1071 27.5844ZM39.5711 38.7045C39.7409 39.0129 40.0609 39.814 40.4252 39.8743C40.8971 39.9524 41.1277 39.3372 41.2379 39.0169C42.2434 36.0942 39.9407 32.8 38.3348 30.4252C37.5421 29.8767 36.8659 29.2033 36.4028 28.4589C34.335 27.3159 32.3465 25.2003 29.7606 25.8202C29.4257 25.9005 28.815 25.9999 28.9337 26.5149C28.9772 26.7036 29.5857 27.267 29.698 27.4113C30.2755 28.154 30.7311 29.0514 31.5023 29.62C32.1226 30.0773 32.7869 30.2914 33.3119 30.8873C33.8441 31.4913 34.1615 32.2576 34.6081 32.9203C35.5969 34.3879 37.1712 35.0963 38.2368 36.4435C38.7856 37.1373 39.1474 37.9346 39.5711 38.7045ZM35.5589 39.93C34.4692 38.1495 32.801 36.1181 31.0606 34.9645C29.8298 34.1487 28.5619 33.5175 27.3955 32.5907C27.2353 32.4633 27.062 32.3285 26.8842 32.1864C26.6164 32.5271 26.3144 32.8013 25.8819 33.1123C24.8425 33.8592 24.4156 34.8424 24.666 36.0953C24.9948 37.7398 26.1951 39.096 27.3434 40.2429C28.3614 41.2596 29.5404 42.3913 30.9732 42.7618C32.9417 43.2709 34.8084 41.661 35.5589 39.93ZM14.6237 52.1928C13.2987 53.5584 11.9991 54.9769 10.7286 56.3997C10.156 57.0409 9.59384 57.6927 9.05449 58.3621C8.84627 58.6206 8.09133 59.3585 8.1411 59.721C8.18359 60.0305 9.65119 58.8755 9.88882 58.6626C10.3715 58.2301 10.8169 57.7588 11.2925 57.3191C12.7909 55.9338 14.3398 54.489 15.9401 53.2093C15.6628 52.9174 15.3654 52.6452 15.0502 52.3946C14.9302 52.2996 14.8077 52.2041 14.6845 52.1083C14.6681 52.139 14.6476 52.1675 14.6237 52.1928ZM13.8515 47.2737C12.6372 46.9924 12.6735 48.0132 13.1568 48.8353C13.4989 49.4169 13.9815 49.9095 14.4549 50.3841C15.7249 51.6569 16.9854 52.7831 18.0007 54.2695C18.4007 54.8551 18.8292 55.529 19.4072 55.9593C20.1684 56.5259 20.2513 55.7037 20.2165 55.001C20.1494 53.6444 19.5561 51.9947 18.7462 50.7189C18.1953 50.3397 17.6935 49.8937 17.2522 49.3912C16.9969 49.0997 16.7595 48.7794 16.5423 48.4409C16.46 48.474 16.3682 48.4749 16.2852 48.4435C15.4403 48.1406 14.7241 47.4759 13.8515 47.2737ZM17.3417 43.075C16.3365 44.691 16.9302 46.6855 18.0129 48.1092C19.1051 49.5454 21.0209 50.5409 22.8466 50.3884C25.0078 50.208 26.7091 48.4275 26.6247 46.3213C26.4802 46.1729 26.3373 46.0229 26.1961 45.8713C24.8969 44.4755 23.7576 42.9294 22.4087 41.5806C21.9657 41.1377 21.5155 40.7068 21.0826 40.2599C20.4514 40.5427 19.7751 40.6082 19.1731 41.0498C18.4516 41.5789 17.8127 42.3177 17.3417 43.075ZM20.9075 35.4365C18.8877 36.1186 22.9984 40.0281 23.5686 40.6499C24.8248 42.0197 25.8868 43.5588 27.1062 44.9609C28.3843 46.4304 29.9977 48.2865 32.0139 48.6286C32.4946 48.7102 33.7532 48.7743 33.4649 47.8717C33.381 47.6092 32.8116 47.364 32.5909 47.2022C31.8278 46.6434 31.0789 46.0761 30.4011 45.4135C29.8194 44.8449 28.7941 43.9225 28.227 42.9722C27.7658 42.5781 27.3343 42.1489 26.931 41.7306C25.7218 40.4767 24.4388 39.0988 23.771 37.456C23.7269 37.406 23.6832 37.3551 23.6386 37.3064C23.121 36.743 21.8006 35.135 20.9075 35.4365ZM27.3817 31.0096C27.9143 31.5439 28.4938 32.0283 29.05 32.5371C29.9748 33.3832 31.1107 33.9193 32.0778 34.7135C34.0545 36.337 35.664 38.3386 37.099 40.434C37.25 40.6544 38.1081 41.9921 38.3371 41.8923C38.6421 41.7593 38.3516 39.9043 38.3144 39.6859C38.1327 38.6198 37.747 37.5629 37.2925 36.5691C37.1675 36.4651 37.0339 36.3676 36.8882 36.2791C36.0652 35.779 35.1917 35.5048 34.4515 34.8577C33.7632 34.2558 33.2856 33.5458 32.7936 32.7854C32.4559 32.2636 32.162 31.8134 31.6276 31.4607C31.2283 31.1971 30.7948 31.0165 30.4156 30.7179C29.7555 30.1981 29.2819 29.4832 28.8048 28.7989C28.0899 28.6702 27.322 28.6347 26.7298 28.9807C25.7622 29.5456 26.8665 30.4926 27.3817 31.0096Z" stroke="#F16E20" stroke-width="0.6" mask="url(#path-1-outside-1_295_2073)"/>
<mask id="path-2-outside-2_295_2073" maskUnits="userSpaceOnUse" x="25.8833" y="0.503271" width="60.9509" height="77.2229" fill="black">
<rect fill="white" x="25.8833" y="0.503271" width="60.9509" height="77.2229"/>
<path d="M48.7773 34.1343C48.5172 33.8931 48.2846 33.6348 48.1447 33.3507C47.5977 32.2397 48.6542 31.4318 49.5645 31.0067C51.5072 30.0995 54.1705 30.5803 56.2571 31.5961C55.2059 29.0375 56.2787 25.7563 58.2247 23.9146C59.4588 22.7466 61.1412 21.971 62.855 21.9788C61.546 20.8585 60.5446 19.4786 60.4954 17.8267C60.4512 16.3458 61.7602 15.5291 62.9229 16.5031C63.8453 17.2759 64.6293 18.196 65.5788 18.9485C65.7881 19.1143 66.001 19.2752 66.2151 19.4346C66.245 19.3585 66.2913 19.2898 66.3506 19.2333C68.198 17.4387 68.5459 14.3756 71.3503 13.7088C71.9397 13.5687 72.6328 13.5247 73.157 13.1955C73.9883 12.6732 74.1837 11.3889 73.8431 10.5366C73.4433 9.5365 72.1997 8.91784 71.2433 9.57592C70.7548 9.91205 70.375 10.393 69.8857 10.7374C69.7109 10.8604 69.4525 10.936 69.2607 10.7876C68.5831 10.2628 67.6369 9.49009 67.9574 8.51531C68.2602 7.59481 69.5726 6.76944 70.4006 6.35023C72.5959 5.23843 75.5011 6.20882 76.8671 8.17336C78.2925 10.2233 77.8992 13.0516 76.2982 14.8836C75.3517 15.9666 74.2212 16.2742 72.901 16.6979C71.7189 17.0773 71.24 18.0326 70.6028 19.0257C70.0664 19.8617 69.5113 20.6587 68.9227 21.453C69.6421 22.0134 70.3862 22.5674 71.2175 22.9295C71.8983 23.2262 72.6225 23.4126 73.2865 23.7522C74.2864 24.2636 75.0038 25.12 74.2215 26.1788C73.3708 27.3299 71.6912 27.6433 70.384 27.2199C69.6293 26.9755 69.0257 26.5668 68.4739 26.0953C69.5822 29.0841 68.2872 33.2153 65.423 34.7192C64.4891 35.2096 63.348 35.3832 62.1894 35.2996C63.973 36.8557 65.3806 39.0825 65.7452 41.2065C65.9343 42.3083 65.8795 43.9657 64.7225 44.5482C63.5556 45.1354 62.7089 43.9463 62.0867 43.1167C62.2897 43.4926 62.4706 43.8799 62.6288 44.2767C62.9292 45.0289 63.7213 46.7369 62.6175 47.1938C61.6261 47.6042 60.4701 46.3703 59.667 45.428C59.5448 47.3336 58.521 49.1358 56.5768 49.7709C56.2197 49.887 55.848 49.9518 55.4727 49.9635C56.1706 50.3721 56.8866 50.7481 57.611 51.1156C58.4538 51.543 59.9641 52.0726 59.6408 53.2919C59.2868 54.6267 57.507 54.8893 56.3616 54.7505C55.0892 54.5963 53.8609 54.0809 52.7218 53.4365C53.0301 55.3599 52.34 57.169 50.4562 58.3946C49.2891 59.1538 47.9311 59.3618 46.6019 59.18C47.7674 60.4007 48.6747 61.9577 48.6135 63.3926C48.5766 64.2584 48.0088 65.0834 47.0752 65.0061C46.1341 64.9283 45.2721 64.0249 44.6233 63.428C44.072 62.9209 43.5797 62.4663 43.0423 62.0554C42.0473 64.2971 40.3094 66.3038 38.9838 68.3432C38.4925 69.099 36.8383 71.7512 35.6008 70.6034C34.7423 69.8072 35.9537 68.0361 36.36 67.2734C37.1287 65.8304 37.9564 64.4342 38.7846 63.0261C39.2576 62.2217 39.5703 61.1281 40.3156 60.5262C39.0376 59.895 37.7746 59.1512 37.0856 57.8717C36.4505 56.6921 36.9401 55.4936 38.2712 55.1461C39.1892 54.9063 40.1919 55.1885 41.0812 55.6117C40.2865 54.3717 39.8652 52.9086 40.2018 51.4668C40.4976 50.1995 41.7743 47.6042 43.3546 46.8553C42.5403 46.1401 41.6889 45.1759 41.7559 44.0207C41.8117 43.0605 42.5244 42.2601 43.4833 42.1744C44.2785 42.1033 45.164 42.3863 46.0212 42.85C45.824 42.0888 45.8029 41.2755 46.0613 40.534C46.405 39.5479 47.1253 38.9614 47.8505 38.341C47.2438 37.9734 46.6881 37.5271 46.3907 36.9519C45.5067 35.2435 47.1109 34.3387 48.7773 34.1343ZM74.9806 14.5855C75.7852 13.9231 76.3578 12.9565 76.5775 11.9388C77.0581 9.71304 75.713 7.63451 73.5308 7.04165C72.3527 6.72155 71.2441 6.90356 70.2512 7.60609C69.9636 7.80949 69.5633 8.04994 69.3487 8.33025C68.8849 8.93663 69.131 9.32769 69.5557 9.70034C70.6671 8.83936 71.4931 7.87514 73.0946 8.48308C74.682 9.0858 75.2895 10.8571 74.8259 12.408C74.2475 14.3432 72.6523 14.1803 71.0726 14.8076C69.0302 15.6187 68.6074 18.5899 67.0755 20.0418C67.0706 20.0465 67.0655 20.049 67.0605 20.0535C67.5059 20.3753 67.9514 20.6969 68.3854 21.0344L68.4032 21.0482C68.9635 19.9917 69.5163 18.9394 70.1219 17.9038C70.6557 16.9909 71.002 16.2022 72.0168 15.7837C73.0151 15.372 74.1189 15.2948 74.9806 14.5855ZM69.5256 25.1296C70.4446 25.6548 71.4547 25.9793 72.5121 25.8072C72.9892 25.7295 73.3991 25.7525 73.4912 25.1774C73.5439 24.8474 73.3612 24.4191 72.9963 24.3748C72.8365 24.2683 72.593 24.2164 72.4125 24.1529C71.9394 23.9866 71.4499 23.8678 70.9786 23.6968C69.6924 23.2301 68.5766 22.3682 67.4621 21.5969C66.2057 20.7274 64.8832 19.9702 63.6766 19.0281C63.2693 18.71 62.6742 17.9607 62.1982 17.789C61.188 17.425 61.7473 18.879 62.003 19.3679C63.4846 22.2005 66.8863 23.6213 69.5256 25.1296ZM67.5653 30.0423C68.0464 28.6746 68.0944 27.1467 67.5692 25.8915C66.8401 25.3739 66.2839 24.6491 65.5287 24.1638C64.6105 23.5735 63.5168 23.3691 62.4361 23.4993C60.7602 23.7013 59.2585 24.6739 58.3138 26.0601C57.3532 27.4694 56.9208 29.5162 57.5837 31.1315C58.2808 32.8302 60.3127 33.5746 62.0113 33.7673C64.684 34.0704 66.6906 32.5292 67.5653 30.0423ZM62.5718 42.5128C62.8034 42.7779 63.2868 43.4924 63.6555 43.4737C64.1332 43.4495 64.2274 42.7993 64.2669 42.4628C64.6265 39.3931 61.6748 36.6651 59.5998 34.687C58.7084 34.32 57.9042 33.8062 57.2931 33.1775C55.0293 32.5013 52.6357 30.8581 50.2412 32.0147C49.9312 32.1645 49.3556 32.3917 49.5814 32.8696C49.664 33.0447 50.3787 33.4656 50.5192 33.5826C51.2416 34.1852 51.878 34.9649 52.7526 35.3561C53.4561 35.6708 54.1508 35.7384 54.7907 36.2087C55.4394 36.6855 55.9128 37.3666 56.4903 37.9189C57.7691 39.1421 59.4582 39.4988 60.7864 40.5879C61.4704 41.1489 61.9938 41.8509 62.5718 42.5128ZM58.9128 44.565C57.4688 43.0576 55.4061 41.4283 53.4598 40.6721C52.0834 40.1372 50.7102 39.7907 49.3731 39.1337C49.1894 39.0434 48.9913 38.9485 48.7874 38.8476C48.5984 39.2376 48.3617 39.5698 48.0053 39.9658C47.149 40.917 46.9414 41.9687 47.453 43.1394C48.1246 44.6761 49.5864 45.7454 50.9527 46.6212C52.1639 47.3977 53.557 48.2521 55.0358 48.3089C57.0676 48.3868 58.5484 46.4162 58.9128 44.565ZM41.0713 61.0069C40.0677 62.6236 39.1002 64.2864 38.1621 65.9472C37.7392 66.6957 37.3288 67.4523 36.9445 68.2213C36.7961 68.5182 36.2158 69.4 36.3416 69.7436C36.4491 70.0369 37.6369 68.5957 37.8237 68.3371C38.2032 67.8117 38.5379 67.2563 38.9089 66.7254C40.0777 65.0526 41.2832 63.3109 42.5741 61.7197C42.2409 61.4936 41.8924 61.291 41.531 61.1133C41.3935 61.046 41.2535 60.9788 41.1127 60.9115C41.1032 60.945 41.0893 60.9771 41.0713 61.0069ZM39.2687 56.3654C38.0223 56.3493 38.2753 57.3389 38.9227 58.0391C39.3808 58.5345 39.9573 58.913 40.521 59.2757C42.0331 60.2488 43.5045 61.0805 44.8132 62.3165C45.3288 62.8034 45.8911 63.3705 46.5475 63.6677C47.4119 64.0592 47.3177 63.2381 47.134 62.559C46.7794 61.2478 45.8482 59.7625 44.785 58.6886C44.166 58.4354 43.5807 58.1066 43.0424 57.7096C42.7309 57.4793 42.4307 57.2169 42.1464 56.9324C42.073 56.9823 41.9835 57.0027 41.8957 56.9898C41.0058 56.8739 40.1643 56.377 39.2687 56.3654ZM41.7841 51.5195C41.1463 53.3125 42.1513 55.1347 43.5126 56.295C44.8857 57.4655 46.9696 58.03 48.7209 57.4919C50.794 56.8552 52.0769 54.753 51.5456 52.7132C51.3728 52.599 51.2012 52.4829 51.031 52.3649C49.4642 51.278 48.0216 50.0101 46.4163 48.9797C45.8892 48.6413 45.3575 48.3163 44.8393 47.9719C44.2828 48.3826 43.636 48.5908 43.1419 49.1505C42.5497 49.8212 42.0829 50.6792 41.7841 51.5195ZM43.6405 43.2966C41.8123 44.3933 46.6617 47.3372 47.3513 47.8232C48.8705 48.8939 50.236 50.1714 51.7263 51.2815C53.2881 52.4449 55.2599 53.9146 57.3027 53.8193C57.7898 53.7965 59.0331 53.591 58.5591 52.7706C58.4212 52.5319 57.8127 52.4136 57.5625 52.3026C56.6979 51.9193 55.8453 51.5246 55.0419 51.0216C54.3524 50.59 53.1541 49.9072 52.3975 49.0996C51.8629 48.8128 51.3499 48.4854 50.8667 48.1626C49.4181 47.1952 47.871 46.1223 46.8685 44.6595C46.8147 44.6201 46.7612 44.5796 46.7073 44.5415C46.0815 44.1014 44.4488 42.8117 43.6405 43.2966ZM49.0227 37.5919C49.6569 38.0004 50.3264 38.3502 50.9782 38.7288C52.062 39.3583 53.286 39.6401 54.4002 40.2101C56.6774 41.375 58.6765 42.9878 60.525 44.7293C60.7194 44.9124 61.8429 46.0366 62.0454 45.8903C62.3151 45.6954 61.636 43.9448 61.5531 43.7394C61.1484 42.7365 60.5464 41.786 59.8905 40.9119C59.7462 40.8369 59.5949 40.7702 59.4337 40.7147C58.523 40.4015 57.6112 40.3197 56.7501 39.8452C55.9493 39.4038 55.3315 38.8118 54.6887 38.1737C54.2476 37.7359 53.8645 37.3586 53.2672 37.1279C52.8209 36.9554 52.3589 36.8713 51.9248 36.6604C51.1691 36.2931 50.5541 35.6956 49.9421 35.1287C49.2161 35.1553 48.4584 35.2842 47.9535 35.7484C47.1284 36.5065 48.4092 37.1965 49.0227 37.5919Z"/>
</mask>
<path d="M48.7773 34.1343C48.5172 33.8931 48.2846 33.6348 48.1447 33.3507C47.5977 32.2397 48.6542 31.4318 49.5645 31.0067C51.5072 30.0995 54.1705 30.5803 56.2571 31.5961C55.2059 29.0375 56.2787 25.7563 58.2247 23.9146C59.4588 22.7466 61.1412 21.971 62.855 21.9788C61.546 20.8585 60.5446 19.4786 60.4954 17.8267C60.4512 16.3458 61.7602 15.5291 62.9229 16.5031C63.8453 17.2759 64.6293 18.196 65.5788 18.9485C65.7881 19.1143 66.001 19.2752 66.2151 19.4346C66.245 19.3585 66.2913 19.2898 66.3506 19.2333C68.198 17.4387 68.5459 14.3756 71.3503 13.7088C71.9397 13.5687 72.6328 13.5247 73.157 13.1955C73.9883 12.6732 74.1837 11.3889 73.8431 10.5366C73.4433 9.5365 72.1997 8.91784 71.2433 9.57592C70.7548 9.91205 70.375 10.393 69.8857 10.7374C69.7109 10.8604 69.4525 10.936 69.2607 10.7876C68.5831 10.2628 67.6369 9.49009 67.9574 8.51531C68.2602 7.59481 69.5726 6.76944 70.4006 6.35023C72.5959 5.23843 75.5011 6.20882 76.8671 8.17336C78.2925 10.2233 77.8992 13.0516 76.2982 14.8836C75.3517 15.9666 74.2212 16.2742 72.901 16.6979C71.7189 17.0773 71.24 18.0326 70.6028 19.0257C70.0664 19.8617 69.5113 20.6587 68.9227 21.453C69.6421 22.0134 70.3862 22.5674 71.2175 22.9295C71.8983 23.2262 72.6225 23.4126 73.2865 23.7522C74.2864 24.2636 75.0038 25.12 74.2215 26.1788C73.3708 27.3299 71.6912 27.6433 70.384 27.2199C69.6293 26.9755 69.0257 26.5668 68.4739 26.0953C69.5822 29.0841 68.2872 33.2153 65.423 34.7192C64.4891 35.2096 63.348 35.3832 62.1894 35.2996C63.973 36.8557 65.3806 39.0825 65.7452 41.2065C65.9343 42.3083 65.8795 43.9657 64.7225 44.5482C63.5556 45.1354 62.7089 43.9463 62.0867 43.1167C62.2897 43.4926 62.4706 43.8799 62.6288 44.2767C62.9292 45.0289 63.7213 46.7369 62.6175 47.1938C61.6261 47.6042 60.4701 46.3703 59.667 45.428C59.5448 47.3336 58.521 49.1358 56.5768 49.7709C56.2197 49.887 55.848 49.9518 55.4727 49.9635C56.1706 50.3721 56.8866 50.7481 57.611 51.1156C58.4538 51.543 59.9641 52.0726 59.6408 53.2919C59.2868 54.6267 57.507 54.8893 56.3616 54.7505C55.0892 54.5963 53.8609 54.0809 52.7218 53.4365C53.0301 55.3599 52.34 57.169 50.4562 58.3946C49.2891 59.1538 47.9311 59.3618 46.6019 59.18C47.7674 60.4007 48.6747 61.9577 48.6135 63.3926C48.5766 64.2584 48.0088 65.0834 47.0752 65.0061C46.1341 64.9283 45.2721 64.0249 44.6233 63.428C44.072 62.9209 43.5797 62.4663 43.0423 62.0554C42.0473 64.2971 40.3094 66.3038 38.9838 68.3432C38.4925 69.099 36.8383 71.7512 35.6008 70.6034C34.7423 69.8072 35.9537 68.0361 36.36 67.2734C37.1287 65.8304 37.9564 64.4342 38.7846 63.0261C39.2576 62.2217 39.5703 61.1281 40.3156 60.5262C39.0376 59.895 37.7746 59.1512 37.0856 57.8717C36.4505 56.6921 36.9401 55.4936 38.2712 55.1461C39.1892 54.9063 40.1919 55.1885 41.0812 55.6117C40.2865 54.3717 39.8652 52.9086 40.2018 51.4668C40.4976 50.1995 41.7743 47.6042 43.3546 46.8553C42.5403 46.1401 41.6889 45.1759 41.7559 44.0207C41.8117 43.0605 42.5244 42.2601 43.4833 42.1744C44.2785 42.1033 45.164 42.3863 46.0212 42.85C45.824 42.0888 45.8029 41.2755 46.0613 40.534C46.405 39.5479 47.1253 38.9614 47.8505 38.341C47.2438 37.9734 46.6881 37.5271 46.3907 36.9519C45.5067 35.2435 47.1109 34.3387 48.7773 34.1343ZM74.9806 14.5855C75.7852 13.9231 76.3578 12.9565 76.5775 11.9388C77.0581 9.71304 75.713 7.63451 73.5308 7.04165C72.3527 6.72155 71.2441 6.90356 70.2512 7.60609C69.9636 7.80949 69.5633 8.04994 69.3487 8.33025C68.8849 8.93663 69.131 9.32769 69.5557 9.70034C70.6671 8.83936 71.4931 7.87514 73.0946 8.48308C74.682 9.0858 75.2895 10.8571 74.8259 12.408C74.2475 14.3432 72.6523 14.1803 71.0726 14.8076C69.0302 15.6187 68.6074 18.5899 67.0755 20.0418C67.0706 20.0465 67.0655 20.049 67.0605 20.0535C67.5059 20.3753 67.9514 20.6969 68.3854 21.0344L68.4032 21.0482C68.9635 19.9917 69.5163 18.9394 70.1219 17.9038C70.6557 16.9909 71.002 16.2022 72.0168 15.7837C73.0151 15.372 74.1189 15.2948 74.9806 14.5855ZM69.5256 25.1296C70.4446 25.6548 71.4547 25.9793 72.5121 25.8072C72.9892 25.7295 73.3991 25.7525 73.4912 25.1774C73.5439 24.8474 73.3612 24.4191 72.9963 24.3748C72.8365 24.2683 72.593 24.2164 72.4125 24.1529C71.9394 23.9866 71.4499 23.8678 70.9786 23.6968C69.6924 23.2301 68.5766 22.3682 67.4621 21.5969C66.2057 20.7274 64.8832 19.9702 63.6766 19.0281C63.2693 18.71 62.6742 17.9607 62.1982 17.789C61.188 17.425 61.7473 18.879 62.003 19.3679C63.4846 22.2005 66.8863 23.6213 69.5256 25.1296ZM67.5653 30.0423C68.0464 28.6746 68.0944 27.1467 67.5692 25.8915C66.8401 25.3739 66.2839 24.6491 65.5287 24.1638C64.6105 23.5735 63.5168 23.3691 62.4361 23.4993C60.7602 23.7013 59.2585 24.6739 58.3138 26.0601C57.3532 27.4694 56.9208 29.5162 57.5837 31.1315C58.2808 32.8302 60.3127 33.5746 62.0113 33.7673C64.684 34.0704 66.6906 32.5292 67.5653 30.0423ZM62.5718 42.5128C62.8034 42.7779 63.2868 43.4924 63.6555 43.4737C64.1332 43.4495 64.2274 42.7993 64.2669 42.4628C64.6265 39.3931 61.6748 36.6651 59.5998 34.687C58.7084 34.32 57.9042 33.8062 57.2931 33.1775C55.0293 32.5013 52.6357 30.8581 50.2412 32.0147C49.9312 32.1645 49.3556 32.3917 49.5814 32.8696C49.664 33.0447 50.3787 33.4656 50.5192 33.5826C51.2416 34.1852 51.878 34.9649 52.7526 35.3561C53.4561 35.6708 54.1508 35.7384 54.7907 36.2087C55.4394 36.6855 55.9128 37.3666 56.4903 37.9189C57.7691 39.1421 59.4582 39.4988 60.7864 40.5879C61.4704 41.1489 61.9938 41.8509 62.5718 42.5128ZM58.9128 44.565C57.4688 43.0576 55.4061 41.4283 53.4598 40.6721C52.0834 40.1372 50.7102 39.7907 49.3731 39.1337C49.1894 39.0434 48.9913 38.9485 48.7874 38.8476C48.5984 39.2376 48.3617 39.5698 48.0053 39.9658C47.149 40.917 46.9414 41.9687 47.453 43.1394C48.1246 44.6761 49.5864 45.7454 50.9527 46.6212C52.1639 47.3977 53.557 48.2521 55.0358 48.3089C57.0676 48.3868 58.5484 46.4162 58.9128 44.565ZM41.0713 61.0069C40.0677 62.6236 39.1002 64.2864 38.1621 65.9472C37.7392 66.6957 37.3288 67.4523 36.9445 68.2213C36.7961 68.5182 36.2158 69.4 36.3416 69.7436C36.4491 70.0369 37.6369 68.5957 37.8237 68.3371C38.2032 67.8117 38.5379 67.2563 38.9089 66.7254C40.0777 65.0526 41.2832 63.3109 42.5741 61.7197C42.2409 61.4936 41.8924 61.291 41.531 61.1133C41.3935 61.046 41.2535 60.9788 41.1127 60.9115C41.1032 60.945 41.0893 60.9771 41.0713 61.0069ZM39.2687 56.3654C38.0223 56.3493 38.2753 57.3389 38.9227 58.0391C39.3808 58.5345 39.9573 58.913 40.521 59.2757C42.0331 60.2488 43.5045 61.0805 44.8132 62.3165C45.3288 62.8034 45.8911 63.3705 46.5475 63.6677C47.4119 64.0592 47.3177 63.2381 47.134 62.559C46.7794 61.2478 45.8482 59.7625 44.785 58.6886C44.166 58.4354 43.5807 58.1066 43.0424 57.7096C42.7309 57.4793 42.4307 57.2169 42.1464 56.9324C42.073 56.9823 41.9835 57.0027 41.8957 56.9898C41.0058 56.8739 40.1643 56.377 39.2687 56.3654ZM41.7841 51.5195C41.1463 53.3125 42.1513 55.1347 43.5126 56.295C44.8857 57.4655 46.9696 58.03 48.7209 57.4919C50.794 56.8552 52.0769 54.753 51.5456 52.7132C51.3728 52.599 51.2012 52.4829 51.031 52.3649C49.4642 51.278 48.0216 50.0101 46.4163 48.9797C45.8892 48.6413 45.3575 48.3163 44.8393 47.9719C44.2828 48.3826 43.636 48.5908 43.1419 49.1505C42.5497 49.8212 42.0829 50.6792 41.7841 51.5195ZM43.6405 43.2966C41.8123 44.3933 46.6617 47.3372 47.3513 47.8232C48.8705 48.8939 50.236 50.1714 51.7263 51.2815C53.2881 52.4449 55.2599 53.9146 57.3027 53.8193C57.7898 53.7965 59.0331 53.591 58.5591 52.7706C58.4212 52.5319 57.8127 52.4136 57.5625 52.3026C56.6979 51.9193 55.8453 51.5246 55.0419 51.0216C54.3524 50.59 53.1541 49.9072 52.3975 49.0996C51.8629 48.8128 51.3499 48.4854 50.8667 48.1626C49.4181 47.1952 47.871 46.1223 46.8685 44.6595C46.8147 44.6201 46.7612 44.5796 46.7073 44.5415C46.0815 44.1014 44.4488 42.8117 43.6405 43.2966ZM49.0227 37.5919C49.6569 38.0004 50.3264 38.3502 50.9782 38.7288C52.062 39.3583 53.286 39.6401 54.4002 40.2101C56.6774 41.375 58.6765 42.9878 60.525 44.7293C60.7194 44.9124 61.8429 46.0366 62.0454 45.8903C62.3151 45.6954 61.636 43.9448 61.5531 43.7394C61.1484 42.7365 60.5464 41.786 59.8905 40.9119C59.7462 40.8369 59.5949 40.7702 59.4337 40.7147C58.523 40.4015 57.6112 40.3197 56.7501 39.8452C55.9493 39.4038 55.3315 38.8118 54.6887 38.1737C54.2476 37.7359 53.8645 37.3586 53.2672 37.1279C52.8209 36.9554 52.3589 36.8713 51.9248 36.6604C51.1691 36.2931 50.5541 35.6956 49.9421 35.1287C49.2161 35.1553 48.4584 35.2842 47.9535 35.7484C47.1284 36.5065 48.4092 37.1965 49.0227 37.5919Z" fill="#F16E20"/>
<path d="M48.7773 34.1343C48.5172 33.8931 48.2846 33.6348 48.1447 33.3507C47.5977 32.2397 48.6542 31.4318 49.5645 31.0067C51.5072 30.0995 54.1705 30.5803 56.2571 31.5961C55.2059 29.0375 56.2787 25.7563 58.2247 23.9146C59.4588 22.7466 61.1412 21.971 62.855 21.9788C61.546 20.8585 60.5446 19.4786 60.4954 17.8267C60.4512 16.3458 61.7602 15.5291 62.9229 16.5031C63.8453 17.2759 64.6293 18.196 65.5788 18.9485C65.7881 19.1143 66.001 19.2752 66.2151 19.4346C66.245 19.3585 66.2913 19.2898 66.3506 19.2333C68.198 17.4387 68.5459 14.3756 71.3503 13.7088C71.9397 13.5687 72.6328 13.5247 73.157 13.1955C73.9883 12.6732 74.1837 11.3889 73.8431 10.5366C73.4433 9.5365 72.1997 8.91784 71.2433 9.57592C70.7548 9.91205 70.375 10.393 69.8857 10.7374C69.7109 10.8604 69.4525 10.936 69.2607 10.7876C68.5831 10.2628 67.6369 9.49009 67.9574 8.51531C68.2602 7.59481 69.5726 6.76944 70.4006 6.35023C72.5959 5.23843 75.5011 6.20882 76.8671 8.17336C78.2925 10.2233 77.8992 13.0516 76.2982 14.8836C75.3517 15.9666 74.2212 16.2742 72.901 16.6979C71.7189 17.0773 71.24 18.0326 70.6028 19.0257C70.0664 19.8617 69.5113 20.6587 68.9227 21.453C69.6421 22.0134 70.3862 22.5674 71.2175 22.9295C71.8983 23.2262 72.6225 23.4126 73.2865 23.7522C74.2864 24.2636 75.0038 25.12 74.2215 26.1788C73.3708 27.3299 71.6912 27.6433 70.384 27.2199C69.6293 26.9755 69.0257 26.5668 68.4739 26.0953C69.5822 29.0841 68.2872 33.2153 65.423 34.7192C64.4891 35.2096 63.348 35.3832 62.1894 35.2996C63.973 36.8557 65.3806 39.0825 65.7452 41.2065C65.9343 42.3083 65.8795 43.9657 64.7225 44.5482C63.5556 45.1354 62.7089 43.9463 62.0867 43.1167C62.2897 43.4926 62.4706 43.8799 62.6288 44.2767C62.9292 45.0289 63.7213 46.7369 62.6175 47.1938C61.6261 47.6042 60.4701 46.3703 59.667 45.428C59.5448 47.3336 58.521 49.1358 56.5768 49.7709C56.2197 49.887 55.848 49.9518 55.4727 49.9635C56.1706 50.3721 56.8866 50.7481 57.611 51.1156C58.4538 51.543 59.9641 52.0726 59.6408 53.2919C59.2868 54.6267 57.507 54.8893 56.3616 54.7505C55.0892 54.5963 53.8609 54.0809 52.7218 53.4365C53.0301 55.3599 52.34 57.169 50.4562 58.3946C49.2891 59.1538 47.9311 59.3618 46.6019 59.18C47.7674 60.4007 48.6747 61.9577 48.6135 63.3926C48.5766 64.2584 48.0088 65.0834 47.0752 65.0061C46.1341 64.9283 45.2721 64.0249 44.6233 63.428C44.072 62.9209 43.5797 62.4663 43.0423 62.0554C42.0473 64.2971 40.3094 66.3038 38.9838 68.3432C38.4925 69.099 36.8383 71.7512 35.6008 70.6034C34.7423 69.8072 35.9537 68.0361 36.36 67.2734C37.1287 65.8304 37.9564 64.4342 38.7846 63.0261C39.2576 62.2217 39.5703 61.1281 40.3156 60.5262C39.0376 59.895 37.7746 59.1512 37.0856 57.8717C36.4505 56.6921 36.9401 55.4936 38.2712 55.1461C39.1892 54.9063 40.1919 55.1885 41.0812 55.6117C40.2865 54.3717 39.8652 52.9086 40.2018 51.4668C40.4976 50.1995 41.7743 47.6042 43.3546 46.8553C42.5403 46.1401 41.6889 45.1759 41.7559 44.0207C41.8117 43.0605 42.5244 42.2601 43.4833 42.1744C44.2785 42.1033 45.164 42.3863 46.0212 42.85C45.824 42.0888 45.8029 41.2755 46.0613 40.534C46.405 39.5479 47.1253 38.9614 47.8505 38.341C47.2438 37.9734 46.6881 37.5271 46.3907 36.9519C45.5067 35.2435 47.1109 34.3387 48.7773 34.1343ZM74.9806 14.5855C75.7852 13.9231 76.3578 12.9565 76.5775 11.9388C77.0581 9.71304 75.713 7.63451 73.5308 7.04165C72.3527 6.72155 71.2441 6.90356 70.2512 7.60609C69.9636 7.80949 69.5633 8.04994 69.3487 8.33025C68.8849 8.93663 69.131 9.32769 69.5557 9.70034C70.6671 8.83936 71.4931 7.87514 73.0946 8.48308C74.682 9.0858 75.2895 10.8571 74.8259 12.408C74.2475 14.3432 72.6523 14.1803 71.0726 14.8076C69.0302 15.6187 68.6074 18.5899 67.0755 20.0418C67.0706 20.0465 67.0655 20.049 67.0605 20.0535C67.5059 20.3753 67.9514 20.6969 68.3854 21.0344L68.4032 21.0482C68.9635 19.9917 69.5163 18.9394 70.1219 17.9038C70.6557 16.9909 71.002 16.2022 72.0168 15.7837C73.0151 15.372 74.1189 15.2948 74.9806 14.5855ZM69.5256 25.1296C70.4446 25.6548 71.4547 25.9793 72.5121 25.8072C72.9892 25.7295 73.3991 25.7525 73.4912 25.1774C73.5439 24.8474 73.3612 24.4191 72.9963 24.3748C72.8365 24.2683 72.593 24.2164 72.4125 24.1529C71.9394 23.9866 71.4499 23.8678 70.9786 23.6968C69.6924 23.2301 68.5766 22.3682 67.4621 21.5969C66.2057 20.7274 64.8832 19.9702 63.6766 19.0281C63.2693 18.71 62.6742 17.9607 62.1982 17.789C61.188 17.425 61.7473 18.879 62.003 19.3679C63.4846 22.2005 66.8863 23.6213 69.5256 25.1296ZM67.5653 30.0423C68.0464 28.6746 68.0944 27.1467 67.5692 25.8915C66.8401 25.3739 66.2839 24.6491 65.5287 24.1638C64.6105 23.5735 63.5168 23.3691 62.4361 23.4993C60.7602 23.7013 59.2585 24.6739 58.3138 26.0601C57.3532 27.4694 56.9208 29.5162 57.5837 31.1315C58.2808 32.8302 60.3127 33.5746 62.0113 33.7673C64.684 34.0704 66.6906 32.5292 67.5653 30.0423ZM62.5718 42.5128C62.8034 42.7779 63.2868 43.4924 63.6555 43.4737C64.1332 43.4495 64.2274 42.7993 64.2669 42.4628C64.6265 39.3931 61.6748 36.6651 59.5998 34.687C58.7084 34.32 57.9042 33.8062 57.2931 33.1775C55.0293 32.5013 52.6357 30.8581 50.2412 32.0147C49.9312 32.1645 49.3556 32.3917 49.5814 32.8696C49.664 33.0447 50.3787 33.4656 50.5192 33.5826C51.2416 34.1852 51.878 34.9649 52.7526 35.3561C53.4561 35.6708 54.1508 35.7384 54.7907 36.2087C55.4394 36.6855 55.9128 37.3666 56.4903 37.9189C57.7691 39.1421 59.4582 39.4988 60.7864 40.5879C61.4704 41.1489 61.9938 41.8509 62.5718 42.5128ZM58.9128 44.565C57.4688 43.0576 55.4061 41.4283 53.4598 40.6721C52.0834 40.1372 50.7102 39.7907 49.3731 39.1337C49.1894 39.0434 48.9913 38.9485 48.7874 38.8476C48.5984 39.2376 48.3617 39.5698 48.0053 39.9658C47.149 40.917 46.9414 41.9687 47.453 43.1394C48.1246 44.6761 49.5864 45.7454 50.9527 46.6212C52.1639 47.3977 53.557 48.2521 55.0358 48.3089C57.0676 48.3868 58.5484 46.4162 58.9128 44.565ZM41.0713 61.0069C40.0677 62.6236 39.1002 64.2864 38.1621 65.9472C37.7392 66.6957 37.3288 67.4523 36.9445 68.2213C36.7961 68.5182 36.2158 69.4 36.3416 69.7436C36.4491 70.0369 37.6369 68.5957 37.8237 68.3371C38.2032 67.8117 38.5379 67.2563 38.9089 66.7254C40.0777 65.0526 41.2832 63.3109 42.5741 61.7197C42.2409 61.4936 41.8924 61.291 41.531 61.1133C41.3935 61.046 41.2535 60.9788 41.1127 60.9115C41.1032 60.945 41.0893 60.9771 41.0713 61.0069ZM39.2687 56.3654C38.0223 56.3493 38.2753 57.3389 38.9227 58.0391C39.3808 58.5345 39.9573 58.913 40.521 59.2757C42.0331 60.2488 43.5045 61.0805 44.8132 62.3165C45.3288 62.8034 45.8911 63.3705 46.5475 63.6677C47.4119 64.0592 47.3177 63.2381 47.134 62.559C46.7794 61.2478 45.8482 59.7625 44.785 58.6886C44.166 58.4354 43.5807 58.1066 43.0424 57.7096C42.7309 57.4793 42.4307 57.2169 42.1464 56.9324C42.073 56.9823 41.9835 57.0027 41.8957 56.9898C41.0058 56.8739 40.1643 56.377 39.2687 56.3654ZM41.7841 51.5195C41.1463 53.3125 42.1513 55.1347 43.5126 56.295C44.8857 57.4655 46.9696 58.03 48.7209 57.4919C50.794 56.8552 52.0769 54.753 51.5456 52.7132C51.3728 52.599 51.2012 52.4829 51.031 52.3649C49.4642 51.278 48.0216 50.0101 46.4163 48.9797C45.8892 48.6413 45.3575 48.3163 44.8393 47.9719C44.2828 48.3826 43.636 48.5908 43.1419 49.1505C42.5497 49.8212 42.0829 50.6792 41.7841 51.5195ZM43.6405 43.2966C41.8123 44.3933 46.6617 47.3372 47.3513 47.8232C48.8705 48.8939 50.236 50.1714 51.7263 51.2815C53.2881 52.4449 55.2599 53.9146 57.3027 53.8193C57.7898 53.7965 59.0331 53.591 58.5591 52.7706C58.4212 52.5319 57.8127 52.4136 57.5625 52.3026C56.6979 51.9193 55.8453 51.5246 55.0419 51.0216C54.3524 50.59 53.1541 49.9072 52.3975 49.0996C51.8629 48.8128 51.3499 48.4854 50.8667 48.1626C49.4181 47.1952 47.871 46.1223 46.8685 44.6595C46.8147 44.6201 46.7612 44.5796 46.7073 44.5415C46.0815 44.1014 44.4488 42.8117 43.6405 43.2966ZM49.0227 37.5919C49.6569 38.0004 50.3264 38.3502 50.9782 38.7288C52.062 39.3583 53.286 39.6401 54.4002 40.2101C56.6774 41.375 58.6765 42.9878 60.525 44.7293C60.7194 44.9124 61.8429 46.0366 62.0454 45.8903C62.3151 45.6954 61.636 43.9448 61.5531 43.7394C61.1484 42.7365 60.5464 41.786 59.8905 40.9119C59.7462 40.8369 59.5949 40.7702 59.4337 40.7147C58.523 40.4015 57.6112 40.3197 56.7501 39.8452C55.9493 39.4038 55.3315 38.8118 54.6887 38.1737C54.2476 37.7359 53.8645 37.3586 53.2672 37.1279C52.8209 36.9554 52.3589 36.8713 51.9248 36.6604C51.1691 36.2931 50.5541 35.6956 49.9421 35.1287C49.2161 35.1553 48.4584 35.2842 47.9535 35.7484C47.1284 36.5065 48.4092 37.1965 49.0227 37.5919Z" stroke="#F16E20" stroke-width="0.6" mask="url(#path-2-outside-2_295_2073)"/>
</svg>
