<svg width="85" height="64" viewBox="0 0 85 64" fill="none" xmlns="http://www.w3.org/2000/svg">
<path d="M83.1342 9.26466C80.951 6.47801 77.3403 4.52246 74.2129 2.98692C70.7271 1.2756 66.7603 -0.217269 62.8113 0.0261412C58.5076 0.291379 54.3743 2.302 50.636 4.30584C41.4047 9.25358 32.7082 15.004 24.2849 21.2048C23.2576 21.8764 22.239 22.5613 21.2296 23.2594C17.3962 25.9082 13.5974 28.7486 10.2771 32.0282C8.29046 33.9903 6.43363 36.1944 4.69685 38.462C1.55004 42.1782 -1.60008 47.2518 0.909926 52.1471C4.52934 59.2065 13.9699 62.667 21.32 63.6717C25.4043 64.23 29.6782 64.1832 33.5666 62.6842C37.3291 61.2338 40.482 58.5373 43.4353 55.8624C50.6042 49.3694 57.906 43.0184 65.0223 36.4681C68.5094 33.2585 71.9357 29.9802 75.2226 26.5648C77.8334 23.8518 80.7863 21.167 82.9765 18.0931C85.0074 15.2423 85.3785 12.1289 83.1342 9.26466ZM2.24174 46.6204C4.55067 44.9728 6.91416 43.4653 9.5973 42.5003C9.3992 42.8191 9.27237 43.1366 9.2641 43.3825C9.24062 44.0858 9.73438 44.3933 10.3854 44.4752C11.0113 44.5539 11.6319 44.3794 12.2158 44.1863C12.6755 44.0342 13.4089 43.7205 13.7813 44.2763C13.9713 44.5595 13.8125 45.2911 13.8732 45.6304C14.048 46.6055 14.8062 47.2198 15.8301 47.0877C16.5884 46.9898 17.0324 46.3028 17.7092 46.1136C19.064 45.7347 18.6528 47.2961 18.5717 48.144C18.4725 49.1815 18.6139 50.3915 19.789 50.7101C21.2646 51.1103 22.2847 49.2151 23.3799 49.5284C24.103 49.7353 23.8636 49.9847 23.8727 50.6359C23.8775 50.9778 23.871 51.3618 23.983 51.691C24.1378 52.1461 24.4179 52.4975 24.8611 52.6939C26.3023 53.3326 26.9768 51.8228 27.7825 50.9249C28.101 51.6713 27.946 52.6595 29.0116 52.8461C29.8105 52.9858 30.2793 52.352 30.5997 51.7064C30.8904 52.2971 31.1502 52.8988 31.3675 53.5095C30.9597 53.5588 30.5824 53.7463 30.2292 54.0749C29.3951 54.8504 28.9109 56.4794 27.6788 55.322C26.3895 54.1107 24.9252 53.806 24.0485 55.5636C23.6556 56.3515 23.2723 57.7531 22.3568 56.7129C21.8317 56.1161 21.764 55.1626 21.259 54.5298C20.8297 53.9918 20.3064 53.7739 19.6064 53.8182C19.1138 53.8493 18.6149 54.2764 18.2425 53.947C17.9009 53.6451 18.156 52.6584 18.1266 52.1873C17.9847 49.9149 16.093 49.9726 14.5745 51.0704C14.0524 51.4478 13.638 51.8121 13.2433 51.2789C13.0456 51.0119 13.0783 50.2679 13.0308 49.9617C12.9045 49.1481 12.7625 48.2275 12.1472 47.6187C11.0867 46.5691 9.7825 47.1034 9.01937 48.1657C8.65227 48.6767 8.36603 49.7366 7.83489 50.0831C6.78584 50.7673 6.72284 48.8837 6.58328 48.2591C5.9974 45.6357 3.44986 46.7087 2.16766 48.396C2.11177 47.814 2.13029 47.2212 2.24174 46.6204ZM17.0007 43.6486C17.7274 43.9937 18.6468 43.7028 19.3221 43.3769C19.7203 43.1847 20.415 42.8069 20.7348 42.3333C21.1193 42.4766 21.4976 42.6427 21.8723 42.8208C20.7781 43.7848 19.9222 45.7633 21.6618 46.3694C22.5349 46.6737 23.4216 46.1213 23.9767 45.474C24.1421 45.2808 24.4109 44.9008 24.6024 44.4925C24.9821 44.7781 25.353 45.0882 25.7191 45.4085C25.1149 46.4296 24.7822 48.0662 25.8899 48.7289C26.6982 49.2126 27.6186 48.6307 28.1086 47.8775C28.8481 48.7784 29.5219 49.7422 30.0952 50.7544C30.0803 50.7718 30.0651 50.7883 30.0514 50.809C29.8754 51.0826 29.6834 51.3457 29.4766 51.5969C28.9051 51.6411 28.6149 51.4233 28.6056 50.9438C28.4203 50.7218 28.3247 50.3346 28.1168 50.0831C28.0115 49.9556 27.8065 49.9542 27.6723 50.0257C27.1293 50.3146 26.8115 50.8495 26.3099 51.1594C24.8057 52.0887 24.9738 50.4915 24.8979 49.6687C24.8184 48.8055 24.3794 47.9215 23.3837 47.9656C22.1465 48.0205 20.3107 50.9242 19.7083 48.4974C19.4463 47.4427 20.2741 46.209 19.4862 45.2028C18.7331 44.241 17.6222 44.8168 16.8082 45.3546C16.2942 45.6941 15.4942 46.4927 14.851 45.4981C14.7265 45.3055 14.7822 44.8436 14.7418 44.6209C14.6567 44.1494 14.5515 43.6471 14.1371 43.3418C13.2022 42.6531 11.9762 43.671 11.0209 43.7822C9.48932 43.9604 9.95597 42.7964 10.7224 42.1325C12.802 41.5278 14.9674 41.2937 17.086 41.499C16.306 42.117 15.877 43.1149 17.0007 43.6486ZM17.7072 41.5726C18.455 41.676 19.1934 41.838 19.9158 42.0571C19.8328 42.1491 19.7476 42.2389 19.6515 42.3157C19.2178 42.663 18.6921 42.9397 18.1494 43.0648C17.6178 43.1875 16.6997 43.1093 16.9793 42.328C17.0878 42.0247 17.3797 41.7601 17.7072 41.5726ZM22.3071 43.0311C22.3176 43.0367 22.3287 43.041 22.3393 43.0466C22.8425 43.3117 23.3424 43.6153 23.8358 43.948C23.7615 44.1589 23.663 44.3604 23.5421 44.5484C23.2569 44.9976 22.7519 45.611 22.166 45.6226C21.3602 45.6387 21.2841 44.8434 21.497 44.2571C21.6608 43.8055 21.9408 43.3612 22.3071 43.0311ZM26.1173 45.7604C26.5558 46.165 26.9785 46.5964 27.3874 47.0449C27.3585 47.2483 27.2864 47.4408 27.0893 47.667C26.7688 48.0347 26.3185 48.1607 26.0189 47.6906C25.6975 47.1864 25.8499 46.3782 26.1173 45.7604ZM6.83777 55.6676C6.43052 55.3367 6.03755 54.9885 5.6599 54.6242C5.71332 54.1914 5.88049 53.7564 6.05776 53.4607C6.54739 52.6445 7.12119 52.836 7.62521 53.4959C8.07185 54.0808 8.19323 54.8233 8.88592 55.2132C9.43607 55.5231 10.0256 55.4761 10.5693 55.169C10.6898 55.1009 10.79 54.9384 10.9195 54.898L11.1694 54.6774L12.3724 55.4202C12.4761 55.6471 12.2973 56.3507 12.3816 56.6674C12.4537 56.9382 12.7431 57.0902 13.0092 57.0237C13.4176 56.9215 13.7753 56.6632 14.1695 56.5611C14.7504 56.1281 15.2592 56.3876 15.6958 57.3397C15.6423 57.5731 15.6025 57.8094 15.5767 58.0475C15.5576 58.5712 15.6419 59.1054 16.1682 59.3654C16.6314 59.5941 17.1076 59.3904 17.553 59.2415C18.4504 58.9416 18.4532 58.7908 18.9167 59.6619C19.0257 59.8664 19.0199 60.1153 19.2057 60.3046C19.618 60.7248 20.122 60.6147 20.6189 60.4528C21.1606 60.2762 21.4358 59.877 22.0222 60.2712C22.165 60.3673 22.2624 60.833 22.4327 60.9768C22.9055 61.3757 23.5016 61.275 24.0334 61.0835C24.8695 60.782 25.6741 59.7036 26.3119 61.3687C26.3736 61.5298 26.3905 61.7186 26.4011 61.9136C19.5631 62.3343 11.9512 59.8201 6.83777 55.6676ZM31.7971 60.8505C31.1689 61.08 30.5281 61.2753 29.873 61.4251C29.092 61.6037 28.2905 61.7335 27.4761 61.8222C27.4326 61.0651 27.3496 60.2841 26.752 59.7771C26.0581 59.1885 25.2612 59.2816 24.4799 59.6315C24.0849 59.8084 23.8939 60.0515 23.4348 59.9905C22.6973 59.8924 23.2804 59.9256 22.8881 59.5941C22.587 59.3396 22.5034 59.0782 22.0771 58.9713C21.7539 58.8905 21.4373 58.9839 21.1319 59.078C20.9528 59.1331 20.6067 59.4036 20.4082 59.4038C19.8257 59.4043 20.1567 59.3449 19.9348 58.9988C19.5431 58.3873 19.5469 57.8247 18.5737 57.8335C18.1168 57.8376 17.7476 58.1626 17.3195 58.2315C16.8768 58.3028 16.828 58.5158 16.6592 57.9904C16.6025 57.8141 16.7941 57.3477 16.803 57.1802C16.8455 56.3777 16.5724 55.5993 15.7707 55.2697C14.8458 54.8894 14.0713 55.4778 13.2536 55.8478C13.1201 54.7247 13.2926 53.1826 11.5595 53.4968C10.7251 53.6481 10.103 54.9385 9.13347 54.2677C8.56843 53.8766 8.43598 52.9001 7.96156 52.3981C6.72433 51.0888 5.38243 52.4386 5.01285 53.9655C3.89303 52.7584 2.95395 51.3709 2.47622 49.8754C2.80049 49.1064 3.58529 48.3221 4.066 48.0313C5.21029 47.3391 5.44312 48.1091 5.61063 49.0367C5.79963 50.0821 6.18691 51.4127 7.49474 51.4479C8.71543 51.4807 9.26906 50.085 9.80532 49.229C10.4086 48.2659 11.1947 47.7758 11.811 49.1478C12.1624 49.9301 12.0985 50.8421 12.38 51.6446C12.8534 52.9939 13.9155 52.8204 14.9909 52.1897C15.4778 51.9042 16.3381 51.1589 16.7592 52.0207C16.9081 52.3255 16.7361 53.0547 16.7167 53.3843C16.6751 54.0927 16.599 54.8813 17.3284 55.2742C18.0877 55.6833 18.6799 55.1492 19.4088 55.0293C20.6521 54.8248 20.7727 56.0823 21.1772 56.9449C21.6675 57.9909 22.4652 58.7828 23.66 58.2105C24.4101 57.8512 24.718 57.1952 25.0691 56.4886C25.8408 54.9347 26.6174 56.4458 27.4981 57.0336C28.1362 57.4596 28.7776 57.5059 29.441 57.1011C30.188 56.6454 30.836 54.8306 31.7687 54.8181C32.2833 56.8236 32.3516 58.8814 31.7971 60.8505ZM48.7386 47.8386C45.7598 50.4841 42.8763 53.2487 39.8394 55.8272C38.0737 57.3265 36.1524 58.7569 34.071 59.8415C35.0587 52.6256 29.5932 44.939 23.2547 41.9935C16.4849 38.8473 8.02257 40.7175 2.50896 45.6329C2.56744 45.4657 2.63226 45.3007 2.70326 45.1385C3.46954 43.407 4.70958 41.9227 5.81865 40.3956C8.8044 37.7632 12.3185 35.6957 15.8823 34.0079C21.3243 31.4306 27.1576 29.5464 33.0798 28.4604C39.0182 27.3713 45.2009 27.1239 51.1534 28.2532C56.0806 29.1879 60.0937 31.248 63.6485 34.5904C58.7406 39.075 53.7092 43.4243 48.7386 47.8386ZM82.7222 13.5316C82.5651 16.6108 79.1944 19.199 77.2094 21.2156C74.1945 24.2786 71.2761 27.4161 68.1628 30.3843C67.1525 31.3477 66.1317 32.2997 65.107 33.2474C59.3523 27.1535 49.6924 25.8032 41.7414 26.1051C32.0896 26.4716 22.2363 29.3411 13.7391 33.9113C11.5161 35.1069 9.40135 36.4476 7.48383 38.0147C8.45317 36.6239 9.44004 35.2496 10.5509 33.9573C13.8892 31.0102 17.4723 28.3259 21.0961 25.7501C28.0271 20.8237 34.9418 15.9054 42.2598 11.5614C45.9344 9.38008 49.6443 7.19005 53.4716 5.28526C57.0471 3.50582 61.0393 1.84891 65.1139 2.30861C68.8792 2.73342 72.5075 4.30352 75.7843 6.14084C78.395 7.60444 82.9027 9.98927 82.7222 13.5316Z" fill="#F16E20"/>
<path d="M59.2472 18.9019C54.0961 18.9199 48.8267 18.7845 43.747 19.7647C38.6661 20.7453 33.8005 22.3784 29.0166 24.325C28.7712 24.4248 28.8746 24.8276 29.1279 24.7292C33.7279 22.9431 38.5786 21.7314 43.4262 20.8381C48.6835 19.8694 53.9459 20.2532 59.2472 19.9344C59.905 19.8952 59.9178 18.8996 59.2472 18.9019ZM64.6755 13.9425C56.2069 13.5121 47.524 14.1818 39.3981 16.6761C39.159 16.7495 39.2574 17.1108 39.5017 17.0515C47.8029 15.029 56.2102 15.1174 64.6755 14.6761C65.1468 14.6514 65.148 13.9667 64.6755 13.9425ZM72.4384 8.99908C65.2072 7.20425 56.8971 8.15309 49.9293 10.5875C49.6684 10.6786 49.7714 11.0785 50.0447 11.0061C57.3846 9.06224 64.8356 8.98122 72.3388 9.7341C72.7622 9.7766 72.8417 9.09928 72.4384 8.99908ZM45.8361 32.1583C41.3696 31.6517 36.6489 32.5236 32.2893 33.4581C28.0483 34.3671 23.5047 35.1664 19.5203 36.914C19.2516 37.0319 19.4455 37.5018 19.7222 37.3927C23.6624 35.8394 28.1081 35.2307 32.2511 34.3977C36.7664 33.4897 41.2517 33.1477 45.8361 32.8618C46.296 32.8332 46.2803 32.2088 45.8361 32.1583ZM41.0463 38.9051C36.7626 38.9204 32.1322 39.0021 28.0595 40.454C27.8131 40.5418 27.9097 40.921 28.169 40.851C32.4244 39.7011 36.865 40.4485 41.129 39.5151C41.4746 39.4395 41.3927 38.9037 41.0463 38.9051ZM7.1313 46.9381C7.27219 47.0643 7.50584 47.0858 7.66591 46.9922C7.87857 46.8678 7.95099 46.5852 7.8283 46.3728C7.72709 46.1973 7.55975 46.1107 7.359 46.1108C7.11625 46.1112 6.90988 46.317 6.90988 46.5598C6.90988 46.7301 7.0005 46.8621 7.1313 46.9381ZM7.68906 45.4295C7.71436 45.4363 7.73917 45.4411 7.76513 45.4452C7.95992 45.4757 8.15306 45.4249 8.25873 45.2443C8.36026 45.0707 8.32041 44.8602 8.19044 44.7147C8.17307 44.6952 8.15587 44.676 8.13967 44.6556C7.95017 44.4172 7.55049 44.5136 7.41258 44.7492C7.26326 45.0042 7.39968 45.3525 7.68906 45.4295ZM9.89828 46.3319C10.168 46.1035 10.0903 45.6721 9.80849 45.4988C9.62742 45.3874 9.31935 45.4072 9.17615 45.5805L9.16292 45.5965C8.98979 45.8059 8.94266 46.1298 9.16292 46.3321C9.38467 46.5355 9.67604 46.5201 9.89828 46.3319ZM11.8631 46.0149C11.8846 46.013 11.9058 46.0081 11.9259 46.0004C12.2233 45.9097 12.4367 45.5215 12.2366 45.2369C12.1381 45.0968 12.0316 44.9979 11.8633 44.9543C11.5177 44.8648 11.1671 45.1249 11.1671 45.4846C11.1671 45.6257 11.2284 45.7738 11.3282 45.8735C11.4785 46.0238 11.6632 46.0467 11.8631 46.0149ZM13.4077 47.7697C13.5127 47.8132 13.6626 47.8063 13.7709 47.7742C14.0435 47.6937 14.2278 47.3985 14.1441 47.1169C14.1115 47.0019 14.0494 46.8974 13.964 46.8138C13.6998 46.5575 13.2531 46.6096 13.0658 46.9295C12.9901 47.0634 12.9695 47.2214 13.0082 47.3702C13.0664 47.581 13.2167 47.6907 13.4077 47.7697ZM13.7087 49.5128C13.6584 49.8868 13.9385 50.1775 14.304 50.1995C14.6393 50.2197 15.0127 49.9424 14.9806 49.5779C14.957 49.3112 14.8227 49.1516 14.5813 49.0534C14.5428 49.0377 14.5036 49.0245 14.4652 49.0086C14.1228 48.8672 13.7515 49.1931 13.7087 49.5128ZM16.7115 49.0685C17.0723 48.8198 17.1011 48.305 16.7115 48.0621C16.6418 48.0177 16.5656 47.9845 16.4856 47.9637C15.9917 47.8402 15.532 48.3857 15.8103 48.8421C15.9927 49.1411 16.4075 49.278 16.7115 49.0685ZM20.0913 52.4804L20.0971 52.4605C20.2226 52.035 19.788 51.5505 19.3445 51.7078L19.3255 51.7146C18.8932 51.8679 18.7013 52.4054 19.0508 52.755C19.3867 53.091 19.9593 52.9273 20.0913 52.4804ZM21.5663 52.2677L21.5881 52.2847C21.796 52.4355 22.0721 52.4091 22.2673 52.2363C22.643 51.9034 22.423 51.2952 21.961 51.193C21.6673 51.128 21.3237 51.2815 21.2521 51.5955C21.1883 51.8763 21.3161 52.1463 21.5663 52.2677ZM22.1803 54.4252C22.1927 54.7016 22.3673 54.9631 22.6448 55.0353C22.8371 55.0854 23.0195 55.0636 23.1916 54.9661C23.5045 54.7886 23.5372 54.4324 23.4102 54.132C23.4063 54.1226 23.4023 54.1132 23.3983 54.1039C23.2813 53.8267 22.9314 53.7688 22.676 53.8099L22.6448 53.8148C22.3843 53.8568 22.1689 54.1712 22.1803 54.4252ZM26.9452 53.8032C26.9757 53.8444 27.011 53.8826 27.0483 53.9187L27.051 53.9213C27.072 53.9415 27.094 53.9605 27.1168 53.9784C27.1257 53.9853 27.1333 53.9941 27.1426 54.0005L27.1466 54.0033C27.1505 54.0061 27.1553 54.0076 27.1595 54.0103C27.3051 54.1087 27.4803 54.1533 27.6627 54.0849C27.9307 53.9843 28.1268 53.723 28.0382 53.4234C27.9039 52.9688 27.3801 52.8346 27.0313 53.1365C26.8198 53.3196 26.8354 53.596 26.9635 53.8054L26.9452 53.8032Z" fill="#F16E20"/>
</svg>
