<svg width="45" height="45" viewBox="0 0 45 45" fill="none" xmlns="http://www.w3.org/2000/svg">
<g clip-path="url(#clip0_361_884)">
<path d="M43.2632 22.1173C42.9293 21.6051 42.4839 21.1752 41.9602 20.8597C41.4366 20.5441 40.8482 20.3513 40.2394 20.2956C39.1313 20.2748 38.045 20.6055 37.1364 21.2402C37.1932 20.628 37.2065 20.0126 37.176 19.3985C37.1482 15.9424 29.6536 13.9291 22.5596 13.7817C18.7342 13.7026 15.1173 14.1285 12.3774 14.984C9.41659 15.9054 7.81036 17.2137 7.72444 18.7709C7.51207 20.7482 7.6903 22.7478 8.24901 24.6564C8.68275 26.2003 9.34063 27.6723 10.2017 29.0253C9.92318 29.1255 9.64029 29.2265 9.37238 29.3338C5.75751 30.8276 3.74286 32.839 3.70162 35.0249C3.66037 37.2107 5.55624 39.0324 9.1921 40.3726C12.4606 41.5689 16.9563 42.3103 21.8459 42.4156C24.8574 42.491 27.8685 42.2509 30.8299 41.6992C34.805 40.9237 37.9885 39.5691 39.4598 37.8746C39.8103 37.5093 40.0735 37.0694 40.2297 36.588C40.3859 36.1065 40.431 35.5959 40.3617 35.0944C40.2016 34.0701 39.7953 33.1 39.1775 32.2674C40.4483 31.8015 41.5759 31.0127 42.4493 29.9786C44.4783 27.5471 44.8452 24.2341 43.2632 22.1173ZM36.1976 25.8522C37.2987 24.9864 39.0625 23.9454 39.8408 24.1512C39.9144 24.1735 39.9811 24.2143 40.0344 24.2698C40.0878 24.3252 40.126 24.3933 40.1455 24.4677C40.4611 25.2864 39.8902 26.9429 38.5403 27.9903C38.0679 28.4054 37.484 28.6727 36.8611 28.7592C36.2383 28.8457 35.6037 28.7474 35.0361 28.4767C35.4848 27.6307 35.865 26.7501 36.1729 25.8433L36.1976 25.8522ZM35.6532 18.7373C35.7194 18.8486 35.7705 18.9681 35.8051 19.0928L35.1906 20.0792L34.6651 20.9107C34.3075 21.1385 33.9324 21.3373 33.5432 21.5055C33.399 21.4007 33.2503 21.2968 33.0981 21.1981L33.8184 20.0489L34.6499 18.7176L35.0554 18.07C35.2835 18.2542 35.4776 18.477 35.6286 18.7284L35.6532 18.7373ZM34.6957 17.8008L34.1292 18.7045L33.2933 20.0367L32.687 20.9711C32.3447 20.7762 31.992 20.6002 31.6305 20.4436L31.8999 20.0151L32.7553 18.6654L33.6597 17.2143C34.011 17.3809 34.3491 17.574 34.671 17.7919L34.6957 17.8008ZM22.3581 23.1603C19.1532 23.1463 15.968 22.6583 12.906 21.7122C15.0779 20.6008 18.6445 19.9647 22.4744 20.0428C26.3042 20.121 29.7864 20.9088 31.9175 22.0794C28.8028 22.9143 25.5806 23.2786 22.3581 23.1603ZM33.2255 17.0331L32.2082 18.6575L31.3723 19.9897L31.2078 20.251C30.9682 20.151 30.7118 20.0589 30.4563 19.9712L30.0739 19.8441L30.836 18.6271L32.0979 16.6112C32.4997 16.7438 32.867 16.8876 33.2255 17.0331ZM31.6573 16.4679L30.3118 18.6194L29.6085 19.7148C29.2199 19.6026 28.8277 19.4957 28.4142 19.3976L28.9175 18.5933L30.4515 16.1392C30.9064 16.2385 31.281 16.3488 31.6573 16.4679ZM30.0161 16.0224L28.418 18.5945L27.9707 19.3099C27.5695 19.2277 27.1507 19.1489 26.7318 19.0931L27.0475 18.573L28.7958 15.7837C29.2068 15.8456 29.6176 15.9305 30.0161 16.0224ZM28.3162 15.6755L26.5226 18.5379L26.2398 18.9919C25.8147 18.9281 25.3834 18.8793 24.9441 18.8366L25.1513 18.512L27.0525 15.4727C27.4767 15.5321 27.9027 15.6003 28.3162 15.6755ZM26.5622 15.4033L24.6262 18.4998L24.4448 18.7919C23.9799 18.7588 23.5564 18.7268 23.1037 18.7096L23.2549 18.4738L25.2646 15.2621C25.681 15.3047 26.152 15.3687 26.5622 15.4033ZM24.7468 15.2164L22.7166 18.4642L22.569 18.6948L22.5072 18.7068C22.0474 18.7002 21.6211 18.7009 21.1825 18.7085L21.347 18.4471L23.4127 15.1466C23.8672 15.1496 24.3181 15.1809 24.7468 15.2164ZM22.5101 15.1026L22.8931 15.115L20.8335 18.4235L20.6547 18.706C20.1631 18.7239 19.6837 18.7579 19.2096 18.7953L19.4613 18.3932L21.5138 15.0952C21.8615 15.0916 22.1916 15.0913 22.5234 15.1L22.5101 15.1026ZM20.9833 15.1024L18.945 18.3793L18.656 18.8483C18.135 18.9041 17.6299 18.9705 17.1406 19.0476L17.5649 18.3551L19.579 15.1425C20.0425 15.1209 20.5139 15.0931 20.9966 15.0998L20.9833 15.1024ZM19.0087 15.1804L17.031 18.3446L16.5206 19.1594C15.9552 19.2697 15.4075 19.3766 14.8976 19.5356L15.6755 18.3294L17.559 15.3165C18.0367 15.2508 18.5241 15.2108 19.022 15.1778L19.0087 15.1804ZM16.9824 15.3694L15.1479 18.3039L14.312 19.6361L14.2604 19.7241C13.6256 19.9213 13.0067 20.1662 12.4089 20.4567L12.9406 19.6102L13.7765 18.278L15.45 15.6225C15.9447 15.526 16.4526 15.4269 16.9824 15.3694ZM14.8494 15.7396L13.2549 18.2835L12.419 19.6157L11.5947 20.9365L11.3592 21.0924C11.0389 20.9396 10.7282 20.7674 10.4288 20.577L11.0521 19.5889L11.8827 18.2532L13.212 16.1599C13.7231 15.9593 14.2708 15.8525 14.8494 15.7396ZM12.5573 16.3289L11.3585 18.2454L10.5271 19.5767L10.0584 20.3238C9.76014 20.1152 9.50137 19.8552 9.29427 19.5559C9.28652 19.5161 9.24343 19.4833 9.22243 19.4461L9.98722 18.2195L10.6896 17.1196C11.286 16.7957 11.9098 16.5252 12.5538 16.3112L12.5573 16.3289ZM9.30866 18.1959C9.44071 18.0182 9.59412 17.8574 9.76543 17.7171L9.45883 18.1667L9.06044 18.8037C9.08584 18.5822 9.17172 18.3719 9.30866 18.1959ZM11.1628 22.4833C13.9018 23.6912 17.9623 24.435 22.3349 24.5219C22.6852 24.5315 23.0294 24.5331 23.378 24.5339C25.6364 24.5329 27.8899 24.322 30.1094 23.9039C31.1015 23.7151 32.0791 23.457 33.0351 23.1314C33.2499 23.0574 33.4639 22.979 33.6593 22.8996C34.3872 22.6235 35.0765 22.2548 35.7102 21.8026C35.6771 22.0796 35.6334 22.3724 35.5798 22.6854C35.4371 23.5482 35.2274 24.3984 34.9526 25.2286C34.5941 26.3296 34.1165 27.3883 33.5283 28.3857C33.0684 29.1647 32.5419 29.9025 31.9548 30.5908C30.7495 31.9756 29.3171 33.145 27.7191 34.0487C26.8318 34.5525 25.8251 34.8075 24.805 34.7869L20.0865 34.6895C19.1393 34.6631 18.2135 34.4009 17.3931 33.9266C10.5465 29.9942 9.18526 24.3087 8.99354 21.1871C9.65113 21.7156 10.3807 22.1475 11.1603 22.47L11.1628 22.4833ZM32.1591 34.4113C32.0985 34.8411 31.8787 35.2325 31.5432 35.508C30.1709 36.8165 26.4914 38.167 21.653 38.0426C15.6623 37.8862 11.6619 35.9937 11.6945 34.3276C11.7061 33.7293 12.2571 33.1221 13.218 32.5953C14.2887 33.5482 15.457 34.3853 16.7036 35.0927C17.7273 35.6816 18.8827 36.0033 20.0634 36.0282L24.7819 36.1255C25.2795 36.1364 25.7768 36.0932 26.2651 35.9967C27.0162 35.8522 27.7386 35.5858 28.4037 35.2081C29.4359 34.6253 30.4066 33.9398 31.3011 33.162C31.8649 33.5609 32.1779 33.9904 32.1591 34.4113ZM38.412 36.9924C36.2395 39.5343 29.2754 41.2276 21.8778 41.0751C17.1303 40.9697 12.7968 40.2837 9.66755 39.1198C6.66165 38.0007 5.02258 36.5553 5.05431 35.0728C5.08605 33.5903 6.89913 31.8382 9.89059 30.6036C10.2505 30.4508 10.6227 30.3141 11.0046 30.18C11.3927 30.6888 11.8091 31.1755 12.2518 31.6376C11.0301 32.4261 10.3769 33.3788 10.3549 34.3001C10.2933 37.063 15.039 39.2274 21.6281 39.3954C23.3365 39.4402 25.0447 39.3007 26.7232 38.9791C29.2054 38.4949 31.2967 37.6285 32.4847 36.4798C32.7852 36.2276 33.0316 35.9173 33.2092 35.5675C33.3868 35.2177 33.4918 34.8356 33.5181 34.4442C33.5072 34.0028 33.3905 33.5705 33.1778 33.1836C32.965 32.7966 32.6626 32.4664 32.2957 32.2206C32.4101 32.102 32.5281 31.9782 32.6372 31.856C34.2077 32.6011 35.9603 32.8755 37.6833 32.646C38.3859 33.3853 38.8506 34.3184 39.0174 35.3246C39.0519 35.6294 39.0161 35.9381 38.9126 36.2269C38.8092 36.5157 38.641 36.777 38.4208 36.9906L38.412 36.9924ZM41.3908 29.1122C40.6453 29.9912 37.9908 32.5768 33.5319 30.7783C33.816 30.4172 34.0817 30.0398 34.3289 29.6462C36.2083 30.655 38.5605 30.0449 39.9613 28.5062C41.1693 27.2481 41.7855 25.5416 41.4624 24.2613C41.4395 24.1643 41.4102 24.0689 41.3746 23.9758C41.2779 23.7017 41.1163 23.4552 40.9037 23.2571C40.691 23.0591 40.4335 22.9155 40.1532 22.8386C38.9436 22.584 37.7527 23.2244 36.7341 23.8082C36.7828 23.5878 36.8298 23.3586 36.8732 23.1346C37.3111 22.7236 38.7253 21.5354 40.1431 21.6348C40.5542 21.678 40.9499 21.815 41.2997 22.0353C41.6496 22.2557 41.9441 22.5534 42.1607 22.9055C43.3735 24.5395 43.0487 27.152 41.3997 29.1105L41.3908 29.1122ZM36.4749 33.8078C36.6476 34.1218 36.747 34.4707 36.7657 34.8285C36.8495 36.7149 34.1086 38.5288 29.2398 39.7995C29.1812 39.8109 29.1205 39.7986 29.071 39.7653C29.0215 39.7319 28.9873 39.6803 28.9759 39.6217C28.9644 39.5631 28.9767 39.5024 29.0101 39.4529C29.0434 39.4034 29.0951 39.3692 29.1536 39.3578L29.6547 39.2234C33.8637 38.0493 36.415 36.3916 36.3421 34.8424C36.3176 34.5668 36.2327 34.3001 36.0934 34.0611C36.0929 34.0475 36.0903 34.0341 36.0856 34.0213C36.0707 33.9954 36.0612 33.9666 36.0577 33.9369C36.0542 33.9072 36.0569 33.877 36.0654 33.8483C36.074 33.8196 36.0883 33.793 36.1075 33.77C36.1267 33.747 36.1504 33.7282 36.1771 33.7146C36.2291 33.6886 36.2893 33.6838 36.3448 33.7012C36.4003 33.7186 36.447 33.7568 36.4749 33.8078ZM26.8917 39.9137C26.8982 39.9704 26.8833 40.0275 26.85 40.0739C26.8166 40.1202 26.7672 40.1525 26.7114 40.1643C26.2327 40.2256 22.0196 40.7678 20.998 40.3252C20.9694 40.3144 20.9434 40.2979 20.9214 40.2767C20.8995 40.2554 20.8821 40.23 20.8703 40.2018C20.8585 40.1736 20.8525 40.1434 20.8528 40.1128C20.8531 40.0823 20.8596 40.0522 20.8719 40.0242C20.8842 39.9963 20.9021 39.9711 20.9244 39.9503C20.9467 39.9295 20.9731 39.9134 21.0018 39.9031C21.0305 39.8928 21.0611 39.8884 21.0916 39.8903C21.122 39.8922 21.1518 39.9002 21.1791 39.914C21.941 40.2238 25.3915 39.8854 26.6429 39.7192C26.7016 39.7125 26.7606 39.7291 26.8071 39.7654C26.8537 39.8018 26.8841 39.8551 26.8917 39.9137ZM23.2471 21.2308C23.2379 21.2742 23.2163 21.3139 23.185 21.3452C23.1537 21.3765 23.114 21.3981 23.0707 21.4074C23.0444 21.4193 23.0156 21.4249 22.9867 21.4238C22.5742 21.3462 22.157 21.2959 21.7378 21.2731C20.8097 21.2322 19.8799 21.2846 18.9624 21.4294C18.0721 21.5664 17.4783 21.7189 17.4651 21.7215C17.4371 21.7301 17.4077 21.7329 17.3786 21.7298C17.3495 21.7267 17.3214 21.7177 17.2958 21.7034C17.2703 21.6891 17.248 21.6698 17.2302 21.6465C17.2124 21.6233 17.1995 21.5967 17.1922 21.5684C17.1836 21.5402 17.1807 21.5106 17.1837 21.4812C17.1867 21.4519 17.1955 21.4234 17.2097 21.3976C17.2239 21.3717 17.2432 21.349 17.2663 21.3307C17.2894 21.3124 17.316 21.299 17.3445 21.2911C17.4681 21.267 20.3879 20.4407 23.078 20.975C23.134 20.9874 23.1831 21.0207 23.2153 21.0681C23.2476 21.1155 23.2605 21.1734 23.2515 21.23L23.2471 21.2308ZM26.4292 21.4904C26.4537 21.5065 26.4747 21.5274 26.491 21.5517C26.5074 21.5761 26.5187 21.6035 26.5243 21.6323C26.5299 21.6611 26.5297 21.6907 26.5238 21.7194C26.5178 21.7481 26.5061 21.7754 26.4895 21.7995C26.4568 21.8491 26.4059 21.8838 26.3478 21.896C26.3187 21.9024 26.2886 21.903 26.2592 21.8977C26.2298 21.8924 26.2018 21.8814 26.1768 21.8651C25.6731 21.6627 25.133 21.5667 24.5904 21.5832C24.5609 21.584 24.5314 21.5788 24.5039 21.5681C24.4763 21.5573 24.4512 21.541 24.4301 21.5204C24.4089 21.4997 24.3922 21.4749 24.3808 21.4476C24.3694 21.4203 24.3636 21.391 24.3638 21.3614C24.3635 21.3316 24.3691 21.302 24.3803 21.2743C24.3915 21.2467 24.4081 21.2215 24.4292 21.2003C24.4502 21.1792 24.4753 21.1624 24.5029 21.151C24.5305 21.1396 24.5601 21.1338 24.5899 21.1339C24.7081 21.1522 25.9031 21.1437 26.4292 21.4904ZM13.5337 28.9255C13.5151 28.9024 13.5013 28.8759 13.4932 28.8474C13.4851 28.8189 13.4829 28.7891 13.4865 28.7597C13.4902 28.7303 13.4998 28.702 13.5147 28.6763C13.5295 28.6507 13.5494 28.6284 13.5731 28.6106C13.6202 28.5743 13.6797 28.558 13.7387 28.5654C13.7977 28.5728 13.8514 28.6032 13.888 28.6501C14.8922 30.0015 16.0911 31.1968 17.4455 32.1971C17.4893 32.2331 17.5179 32.2844 17.5255 32.3407C17.5331 32.397 17.5192 32.4541 17.4864 32.5005C17.4537 32.5469 17.4047 32.5792 17.3491 32.591C17.2936 32.6027 17.2356 32.593 17.1869 32.5638C15.796 31.5383 14.5649 30.3122 13.5337 28.9255ZM11.5935 26.0304C11.5658 25.9775 11.5599 25.9158 11.5769 25.8585C11.594 25.8012 11.6328 25.7529 11.685 25.7237C11.7114 25.7095 11.7404 25.7006 11.7702 25.6977C11.8001 25.6948 11.8303 25.6979 11.8589 25.7069C11.8876 25.7158 11.9142 25.7304 11.9371 25.7497C11.9601 25.7691 11.9789 25.7929 11.9925 25.8196C11.9925 25.8196 12.3153 26.4169 12.8797 27.265C12.9122 27.3146 12.9237 27.3751 12.9119 27.4332C12.9 27.4913 12.8657 27.5424 12.8164 27.5754C12.7885 27.5872 12.7584 27.5931 12.7281 27.5926C12.6844 27.6015 12.6391 27.597 12.598 27.5796C12.557 27.5622 12.5222 27.5328 12.4982 27.4953C11.9427 26.6454 11.6252 26.0518 11.6111 26.027L11.5935 26.0304ZM23.6766 11.4226C23.5429 11.3249 22.3628 10.4227 22.3611 9.12094C22.3747 8.74725 22.4717 8.38135 22.6451 8.05003C22.8184 7.71872 23.0637 7.43039 23.363 7.20618C23.4454 7.13508 23.5322 7.06313 23.6243 6.99473C23.9777 6.73782 24.3204 6.49675 24.648 6.27237C26.5579 4.94615 27.1896 4.42403 26.5596 3.09813C26.3499 2.65764 25.5849 2.42632 24.879 2.59154C24.4373 2.6777 23.4849 3.08356 23.5264 4.56553C23.5314 4.74695 23.4641 4.92293 23.3394 5.05474C23.2146 5.18656 23.0426 5.26341 22.8612 5.26841C22.6798 5.2734 22.5038 5.20612 22.372 5.08136C22.2402 4.95661 22.1633 4.7846 22.1583 4.60318C22.0881 3.85382 22.2916 3.10437 22.7313 2.49349C23.1709 1.88261 23.817 1.45164 24.5498 1.2803C25.9078 0.955786 27.2873 1.49361 27.7723 2.52229C28.9195 4.94851 27.2151 6.12921 25.4105 7.38444C25.0909 7.60268 24.7597 7.83233 24.4188 8.08224C24.2383 8.18688 24.0823 8.32892 23.9612 8.49883C23.8402 8.66874 23.7569 8.86259 23.7169 9.06735C23.7169 9.06735 23.7229 9.09827 23.7264 9.11593C23.724 9.25544 23.751 9.39389 23.8056 9.52228C23.9672 9.83596 24.1929 10.1122 24.4681 10.3329C24.5742 10.4104 24.6554 10.517 24.7018 10.6399C24.7482 10.7628 24.7577 10.8966 24.7291 11.0248C24.7006 11.153 24.6353 11.2701 24.5412 11.3618C24.4471 11.4534 24.3283 11.5156 24.1994 11.5407C24.1088 11.5581 24.0156 11.5565 23.9257 11.5362C23.8357 11.5159 23.7509 11.4772 23.6766 11.4226ZM32.9325 5.68326C32.972 5.55498 32.9793 5.4189 32.9536 5.28713C32.9279 5.15537 32.87 5.032 32.7851 4.928C32.3779 4.43891 31.8973 4.18423 31.5623 4.30002C31.1206 4.38618 30.871 5.45727 31.4613 5.49802C32.4618 5.55042 32.1879 7.10767 31.2158 6.82507C30.819 6.75556 30.457 6.55497 30.1877 6.25538C30.0206 6.04962 29.8989 5.81078 29.8308 5.5546C29.7626 5.29841 29.7495 5.0307 29.7923 4.76908C29.8215 4.37105 29.9689 3.99082 30.2157 3.67718C30.4625 3.36354 30.7974 3.1308 31.1774 3.00882C32.0692 2.73857 33.0372 3.14118 33.8271 4.06452C34.0431 4.3252 34.1951 4.63293 34.2706 4.96298C34.3461 5.29304 34.3432 5.63621 34.262 5.96491C33.8857 7.7026 31.8381 9.40413 30.0955 10.2484C29.7567 10.4154 29.3363 10.6808 29.2906 11.0106C29.2834 11.2746 29.3761 11.5316 29.5502 11.7302C29.6126 11.8171 29.6821 11.8987 29.7582 11.9739C29.8892 12.0945 29.9673 12.262 29.9754 12.4399C29.9835 12.6178 29.9209 12.7917 29.8013 12.9237C29.6807 13.0548 29.5132 13.1328 29.3353 13.1409C29.1574 13.149 28.9835 13.0864 28.8515 12.9669C28.7408 12.8693 27.7893 11.9637 27.9739 10.8182C28.0824 10.0818 28.6024 9.48058 29.5277 9.02958C29.9486 8.83164 30.3526 8.59949 30.7356 8.33545C31.8586 7.51119 32.7575 6.47848 32.9325 5.68326ZM16.0092 11.9785C15.9386 11.8174 15.9333 11.6352 15.9944 11.4702C16.0554 11.3053 16.178 11.1704 16.3364 11.094C16.3983 11.059 16.848 10.7787 16.7598 9.83308C16.6869 9.40125 16.4826 9.00242 16.1748 8.69095C15.7317 8.13551 15.1238 7.36924 15.5251 6.11265C16.1035 4.3768 17.3027 3.47347 18.7978 3.64029C20.1093 3.80625 21.2695 4.81783 21.3281 5.84714C21.3731 6.18757 21.3429 6.53372 21.2397 6.86121C21.1364 7.1887 20.9626 7.48958 20.7305 7.74264C20.5401 7.92619 20.3145 8.06925 20.0672 8.16318C19.82 8.25711 19.5563 8.29997 19.292 8.28917C19.1182 8.2716 18.958 8.18733 18.8451 8.05409C18.7321 7.92084 18.6752 7.74899 18.6863 7.57466C18.6974 7.40033 18.7757 7.2371 18.9046 7.11927C19.0336 7.00144 19.2032 6.9382 19.3778 6.94283C19.5363 6.94333 19.6887 6.88236 19.8032 6.77275C19.9736 6.52444 20.0438 6.22084 19.9996 5.92292C19.9823 5.64661 19.4123 5.07467 18.6458 4.97661C17.5927 4.84277 17.0757 5.74139 16.8276 6.51419C16.6503 7.06229 16.8203 7.29961 17.2467 7.83998C17.6743 8.30976 17.9673 8.88615 18.0948 9.50845L18.1319 9.69837C18.2736 11.2708 17.4402 12.0753 16.9255 12.3041C16.8784 12.32 16.8294 12.3296 16.7797 12.3325C16.6302 12.3696 16.4725 12.3548 16.3325 12.2904C16.1924 12.2261 16.0785 12.1161 16.0092 11.9785Z" fill="black"/>
</g>
<defs>
<clipPath id="clip0_361_884">
<rect width="45" height="45" fill="white"/>
</clipPath>
</defs>
</svg>
