<svg width="60" height="46" viewBox="0 0 60 46" fill="none" xmlns="http://www.w3.org/2000/svg">
<path d="M58.6393 6.5349C57.0994 4.56931 54.5526 3.18995 52.3466 2.10684C49.8879 0.899757 47.0898 -0.153252 44.3044 0.0184389C41.2688 0.205527 38.3533 1.62373 35.7164 3.03715C29.2051 6.52708 23.071 10.5832 17.1296 14.957C16.4049 15.4307 15.6865 15.9138 14.9744 16.4062C12.2705 18.2745 9.591 20.278 7.24902 22.5913C5.84773 23.9753 4.538 25.53 3.31295 27.1295C1.09333 29.7507 -1.12863 33.3294 0.641823 36.7823C3.1948 41.7617 9.85379 44.2026 15.0382 44.9113C17.9191 45.3051 20.9337 45.2721 23.6765 44.2147C26.3303 43.1917 28.5543 41.2897 30.6374 39.4029C35.694 34.823 40.8444 30.3433 45.864 25.723C48.3236 23.4591 50.7404 21.1467 53.0588 18.7377C54.9004 16.824 56.9832 14.9303 58.5281 12.7621C59.9606 10.7512 60.2223 8.55519 58.6393 6.5349ZM1.58123 32.884C3.20985 31.7219 4.87695 30.6586 6.76953 29.9779C6.62979 30.2028 6.54033 30.4267 6.5345 30.6001C6.51794 31.0962 6.86622 31.3132 7.32542 31.3709C7.7669 31.4264 8.20464 31.3034 8.61649 31.1671C8.94075 31.0598 9.45804 30.8386 9.72071 31.2306C9.85472 31.4304 9.74275 31.9464 9.78556 32.1857C9.90884 32.8735 10.4436 33.3069 11.1659 33.2137C11.7008 33.1446 12.0139 32.66 12.4913 32.5265C13.4469 32.2593 13.1569 33.3606 13.0997 33.9587C13.0297 34.6905 13.1295 35.544 13.9583 35.7687C14.9992 36.051 15.7187 34.7142 16.4912 34.9352C17.0013 35.0812 16.8324 35.257 16.8388 35.7164C16.8422 35.9576 16.8376 36.2284 16.9166 36.4606C17.0258 36.7816 17.2233 37.0295 17.5359 37.168C18.5525 37.6185 19.0283 36.5536 19.5966 35.9202C19.8212 36.4468 19.7119 37.1438 20.4635 37.2753C21.027 37.3739 21.3577 36.9268 21.5837 36.4715C21.7888 36.8881 21.972 37.3126 22.1253 37.7433C21.8377 37.7781 21.5715 37.9103 21.3224 38.1421C20.734 38.6891 20.3925 39.8381 19.5234 39.0218C18.614 38.1674 17.5812 37.9524 16.9628 39.1922C16.6856 39.748 16.4153 40.7366 15.7696 40.0028C15.3991 39.5819 15.3514 38.9093 14.9952 38.463C14.6924 38.0835 14.3232 37.9298 13.8295 37.9611C13.4821 37.983 13.1302 38.2843 12.8675 38.0519C12.6265 37.8389 12.8065 37.143 12.7857 36.8107C12.6856 35.2078 11.3513 35.2485 10.2802 36.0229C9.91199 36.2891 9.6197 36.546 9.34128 36.17C9.20178 35.9816 9.22488 35.4568 9.1914 35.2408C9.10229 34.667 9.0021 34.0176 8.56809 33.5882C7.82009 32.8479 6.90016 33.2247 6.36187 33.974C6.10294 34.3344 5.90104 35.0821 5.5264 35.3264C4.78644 35.8091 4.742 34.4805 4.64356 34.0399C4.23031 32.1895 2.43339 32.9463 1.52897 34.1365C1.48955 33.7259 1.50261 33.3078 1.58123 32.884ZM11.9915 30.7878C12.5042 31.0312 13.1527 30.8261 13.629 30.5962C13.9099 30.4606 14.3999 30.1941 14.6255 29.8601C14.8966 29.9612 15.1635 30.0783 15.4278 30.2039C14.656 30.8839 14.0523 32.2795 15.2793 32.707C15.8952 32.9216 16.5206 32.532 16.9121 32.0754C17.0288 31.9392 17.2184 31.6711 17.3535 31.3831C17.6213 31.5846 17.8829 31.8033 18.1412 32.0292C17.715 32.7494 17.4803 33.9038 18.2617 34.3713C18.8318 34.7125 19.481 34.302 19.8266 33.7707C20.3482 34.4062 20.8235 35.086 21.2279 35.8C21.2174 35.8122 21.2066 35.8239 21.197 35.8385C21.0728 36.0315 20.9374 36.2171 20.7915 36.3943C20.3884 36.4254 20.1837 36.2718 20.1772 35.9335C20.0464 35.777 19.979 35.5038 19.8324 35.3264C19.7581 35.2365 19.6135 35.2356 19.5189 35.286C19.1359 35.4897 18.9117 35.8671 18.5579 36.0856C17.4969 36.7411 17.6155 35.6145 17.5619 35.0341C17.5058 34.4253 17.1962 33.8017 16.4939 33.8329C15.6212 33.8716 14.3263 35.9198 13.9014 34.208C13.7166 33.4641 14.3005 32.5938 13.7447 31.8841C13.2136 31.2057 12.43 31.6119 11.8558 31.9912C11.4933 32.2306 10.929 32.794 10.4752 32.0924C10.3874 31.9565 10.4267 31.6308 10.3983 31.4736C10.3382 31.1411 10.264 30.7868 9.97171 30.5715C9.31224 30.0857 8.44748 30.8037 7.77366 30.8821C6.69336 31.0078 7.02251 30.1868 7.56313 29.7185C9.02997 29.2919 10.5573 29.1268 12.0517 29.2716C11.5015 29.7075 11.199 30.4114 11.9915 30.7878ZM12.4899 29.3235C13.0173 29.3965 13.5382 29.5108 14.0477 29.6653C13.9892 29.7301 13.9291 29.7935 13.8614 29.8477C13.5554 30.0927 13.1846 30.2878 12.8018 30.3761C12.4268 30.4626 11.7793 30.4075 11.9765 29.8563C12.053 29.6424 12.2589 29.4558 12.4899 29.3235ZM15.7345 30.3523C15.7419 30.3563 15.7497 30.3593 15.7572 30.3633C16.1121 30.5502 16.4647 30.7644 16.8128 30.999C16.7604 31.1478 16.6908 31.2899 16.6056 31.4226C16.4044 31.7393 16.0482 32.1721 15.635 32.1802C15.0666 32.1916 15.0129 31.6306 15.163 31.217C15.2786 30.8985 15.4761 30.5851 15.7345 30.3523ZM18.422 32.2774C18.7314 32.5628 19.0295 32.8671 19.3179 33.1834C19.2975 33.3269 19.2467 33.4627 19.1076 33.6222C18.8816 33.8816 18.564 33.9705 18.3526 33.6389C18.1259 33.2833 18.2334 32.7132 18.422 32.2774ZM4.82307 39.2655C4.53581 39.0321 4.25863 38.7866 3.99225 38.5296C4.02993 38.2243 4.14785 37.9174 4.27289 37.7089C4.61825 37.1332 5.02299 37.2682 5.3785 37.7337C5.69354 38.1463 5.77915 38.67 6.26775 38.945C6.6558 39.1636 7.07162 39.1305 7.45512 38.9139C7.54015 38.8658 7.61084 38.7512 7.70217 38.7227L7.8784 38.5671L8.72695 39.0911C8.80008 39.2511 8.67399 39.7474 8.73348 39.9707C8.78433 40.1618 8.98845 40.269 9.17612 40.2221C9.46422 40.15 9.71651 39.9678 9.99457 39.8957C10.4043 39.5904 10.7632 39.7734 11.0711 40.445C11.0334 40.6096 11.0053 40.7763 10.9872 40.9442C10.9736 41.3136 11.0331 41.6904 11.4044 41.8738C11.7311 42.0351 12.067 41.8914 12.3811 41.7864C13.0141 41.5749 13.0161 41.4685 13.343 42.0829C13.4199 42.2272 13.4158 42.4028 13.5469 42.5363C13.8377 42.8327 14.1932 42.755 14.5437 42.6408C14.9258 42.5163 15.1199 42.2347 15.5335 42.5127C15.6343 42.5805 15.703 42.909 15.8231 43.0104C16.1566 43.2918 16.577 43.2207 16.9522 43.0857C17.5419 42.873 18.1094 42.1123 18.5593 43.2869C18.6028 43.4005 18.6147 43.5337 18.6222 43.6712C13.799 43.9679 8.42987 42.1946 4.82307 39.2655ZM22.4283 42.9213C21.9852 43.0832 21.5332 43.221 21.0711 43.3267C20.5202 43.4526 19.9549 43.5442 19.3804 43.6067C19.3498 43.0727 19.2912 42.5219 18.8697 42.1642C18.3803 41.749 17.8182 41.8147 17.2671 42.0615C16.9884 42.1863 16.8537 42.3577 16.5299 42.3147C16.0097 42.2455 16.421 42.269 16.1443 42.0351C15.9319 41.8556 15.8729 41.6712 15.5722 41.5959C15.3443 41.5388 15.1209 41.6047 14.9055 41.6711C14.7792 41.7099 14.5351 41.9007 14.3951 41.9009C13.9842 41.9012 14.2177 41.8593 14.0612 41.6152C13.7848 41.1839 13.7875 40.7871 13.1011 40.7933C12.7788 40.7962 12.5184 41.0254 12.2164 41.074C11.9042 41.1243 11.8698 41.2745 11.7507 40.904C11.7107 40.7796 11.8459 40.4506 11.8521 40.3324C11.8821 39.7664 11.6894 39.2174 11.124 38.9849C10.4716 38.7166 9.92529 39.1316 9.34851 39.3927C9.25438 38.6005 9.37604 37.5127 8.15355 37.7343C7.565 37.841 7.1262 38.7513 6.44236 38.2781C6.0438 38.0022 5.95038 37.3135 5.61574 36.9594C4.74305 36.0358 3.79654 36.9879 3.53585 38.065C2.74598 37.2135 2.08359 36.2348 1.74662 35.1799C1.97535 34.6376 2.52891 34.0844 2.86798 33.8792C3.67512 33.3909 3.83934 33.9341 3.9575 34.5884C4.09081 35.3257 4.36398 36.2643 5.28647 36.2892C6.14749 36.3123 6.538 35.3278 6.91626 34.724C7.34175 34.0447 7.89625 33.699 8.33096 34.6667C8.57882 35.2186 8.53379 35.8618 8.73231 36.4279C9.06625 37.3796 9.81541 37.2573 10.5739 36.8124C10.9174 36.611 11.5242 36.0853 11.8212 36.6932C11.9262 36.9082 11.8049 37.4225 11.7913 37.655C11.7619 38.1547 11.7082 38.7109 12.2227 38.9881C12.7583 39.2766 13.176 38.8999 13.6901 38.8153C14.5671 38.671 14.6522 39.5581 14.9375 40.1665C15.2833 40.9043 15.846 41.4629 16.6888 41.0592C17.2179 40.8058 17.435 40.343 17.6827 39.8447C18.227 38.7486 18.7747 39.8144 19.396 40.2291C19.8461 40.5296 20.2985 40.5622 20.7665 40.2767C21.2933 39.9552 21.7504 38.6751 22.4083 38.6664C22.7712 40.081 22.8194 41.5324 22.4283 42.9213ZM34.3781 33.7433C32.277 35.6093 30.2431 37.5594 28.101 39.3781C26.8555 40.4357 25.5003 41.4446 24.0322 42.2096C24.7289 37.1199 20.8738 31.6981 16.4029 29.6204C11.6277 27.4012 5.65878 28.7204 1.76971 32.1875C1.81096 32.0695 1.85668 31.9532 1.90676 31.8387C2.44727 30.6174 3.32193 29.5705 4.10423 28.4933C6.21025 26.6365 8.68892 25.1782 11.2027 23.9877C15.0413 22.1698 19.1558 20.8408 23.3331 20.0747C27.5218 19.3065 31.8828 19.132 36.0814 19.9286C39.5569 20.5879 42.3876 22.041 44.8949 24.3986C41.4331 27.5618 37.8842 30.6297 34.3781 33.7433ZM58.3487 9.54463C58.2379 11.7165 55.8603 13.5422 54.4602 14.9646C52.3336 17.1251 50.2751 19.3381 48.0791 21.4318C47.3665 22.1113 46.6465 22.7828 45.9237 23.4513C41.8645 19.1529 35.0509 18.2005 29.4426 18.4134C22.6346 18.6719 15.6845 20.6959 9.69096 23.9196C8.12299 24.7629 6.63131 25.7086 5.27877 26.814C5.96251 25.8329 6.6586 24.8635 7.44218 23.952C9.79687 21.8733 12.3242 19.9799 14.8803 18.163C19.7691 14.6881 24.6464 11.219 29.8082 8.15488C32.4002 6.61631 35.017 5.07155 37.7165 3.728C40.2386 2.47286 43.0545 1.30414 45.9286 1.6284C48.5844 1.92804 51.1437 3.03552 53.455 4.33148C55.2965 5.36385 58.476 7.046 58.3487 9.54463Z" fill="black"/>
<path d="M41.7905 13.3326C38.1571 13.3453 34.4403 13.2498 30.8573 13.9412C27.2735 14.6329 23.8415 15.7848 20.4672 17.1579C20.2941 17.2282 20.367 17.5123 20.5457 17.4429C23.7903 16.1831 27.2118 15.3284 30.631 14.6983C34.3393 14.0151 38.0512 14.2858 41.7905 14.0609C42.2545 14.0333 42.2635 13.331 41.7905 13.3326ZM45.6194 9.8345C39.646 9.53089 33.5215 10.0033 27.7899 11.7627C27.6212 11.8144 27.6906 12.0693 27.8629 12.0274C33.7182 10.6008 39.6484 10.6632 45.6194 10.3519C45.9519 10.3345 45.9527 9.85153 45.6194 9.8345ZM51.095 6.3476C45.9944 5.08161 40.1329 5.75088 35.2181 7.46803C35.034 7.5323 35.1067 7.81433 35.2995 7.76324C40.4767 6.39216 45.7323 6.335 51.0248 6.86606C51.3234 6.89603 51.3795 6.41828 51.095 6.3476ZM32.3309 22.6832C29.1804 22.3258 25.8506 22.9408 22.7756 23.5999C19.7841 24.2411 16.5793 24.8049 13.7689 26.0376C13.5793 26.1207 13.7161 26.4522 13.9113 26.3752C16.6905 25.2796 19.8264 24.8503 22.7486 24.2627C25.9335 23.6222 29.0972 23.381 32.3309 23.1793C32.6553 23.1592 32.6442 22.7187 32.3309 22.6832ZM28.9524 27.442C25.9309 27.4528 22.6648 27.5105 19.7921 28.5346C19.6183 28.5965 19.6864 28.8639 19.8693 28.8146C22.8709 28.0035 26.0031 28.5307 29.0107 27.8723C29.2545 27.819 29.1967 27.4411 28.9524 27.442ZM5.0302 33.1082C5.12958 33.1972 5.29439 33.2123 5.40729 33.1463C5.55729 33.0586 5.60838 32.8593 5.52183 32.7094C5.45045 32.5856 5.33241 32.5245 5.19081 32.5246C5.01959 32.5249 4.87402 32.6701 4.87402 32.8413C4.87402 32.9614 4.93794 33.0545 5.0302 33.1082ZM5.42362 32.0441C5.44147 32.0489 5.45897 32.0522 5.47728 32.0552C5.61468 32.0766 5.75091 32.0408 5.82544 31.9134C5.89706 31.791 5.86895 31.6425 5.77727 31.5399C5.76502 31.5261 5.75289 31.5126 5.74146 31.4982C5.6078 31.33 5.32588 31.398 5.2286 31.5642C5.12328 31.7441 5.21951 31.9897 5.42362 32.0441ZM6.98191 32.6806C7.17215 32.5195 7.11733 32.2152 6.91858 32.093C6.79086 32.0143 6.57356 32.0283 6.47255 32.1506L6.46322 32.1619C6.3411 32.3096 6.30786 32.538 6.46322 32.6807C6.61963 32.8242 6.82515 32.8133 6.98191 32.6806ZM8.36781 32.457C8.38299 32.4556 8.3979 32.4522 8.41213 32.4467C8.62185 32.3828 8.77243 32.1089 8.6313 31.9082C8.56178 31.8094 8.48666 31.7397 8.36793 31.7089C8.12415 31.6458 7.87688 31.8292 7.87688 32.0829C7.87688 32.1824 7.92015 32.2869 7.99048 32.3573C8.09651 32.4633 8.22679 32.4794 8.36781 32.457ZM9.45733 33.6947C9.53139 33.7254 9.63707 33.7205 9.71347 33.6979C9.9058 33.6411 10.0357 33.4329 9.97672 33.2343C9.9537 33.1532 9.90992 33.0795 9.8497 33.0205C9.66331 32.8397 9.34827 32.8764 9.21612 33.1021C9.16275 33.1965 9.14819 33.308 9.17553 33.413C9.21659 33.5617 9.32261 33.639 9.45733 33.6947ZM9.66961 34.9242C9.63415 35.1881 9.83174 35.3931 10.0895 35.4086C10.3261 35.4229 10.5894 35.2273 10.5668 34.9702C10.5501 34.7821 10.4554 34.6695 10.2851 34.6002C10.2579 34.5891 10.2303 34.5798 10.2032 34.5686C9.96167 34.4689 9.69982 34.6988 9.66961 34.9242ZM11.7876 34.6108C12.0422 34.4354 12.0624 34.0723 11.7876 33.901C11.7385 33.8697 11.6847 33.8462 11.6283 33.8316C11.2799 33.7444 10.9557 34.1292 11.152 34.4512C11.2806 34.662 11.5733 34.7586 11.7876 34.6108ZM14.1716 37.0174L14.1757 37.0034C14.2642 36.7033 13.9577 36.3616 13.6449 36.4725L13.6315 36.4773C13.3266 36.5854 13.1912 36.9646 13.4377 37.2112C13.6746 37.4482 14.0785 37.3327 14.1716 37.0174ZM15.212 36.8674L15.2274 36.8794C15.374 36.9858 15.5688 36.9672 15.7065 36.8453C15.9715 36.6105 15.8163 36.1815 15.4904 36.1094C15.2833 36.0636 15.0409 36.1718 14.9904 36.3933C14.9454 36.5913 15.0356 36.7818 15.212 36.8674ZM15.6451 38.3892C15.6539 38.5842 15.777 38.7686 15.9727 38.8196C16.1084 38.8549 16.2371 38.8396 16.3585 38.7707C16.5792 38.6456 16.6022 38.3943 16.5127 38.1824C16.5099 38.1758 16.5071 38.1692 16.5043 38.1626C16.4217 37.9671 16.1749 37.9263 15.9948 37.9552L15.9727 37.9587C15.789 37.9883 15.6371 38.2101 15.6451 38.3892ZM19.006 37.9505C19.0276 37.9796 19.0525 38.0065 19.0788 38.0319L19.0807 38.0338C19.0955 38.048 19.111 38.0615 19.1271 38.0741C19.1334 38.079 19.1388 38.0851 19.1453 38.0897L19.1481 38.0917C19.1509 38.0936 19.1543 38.0947 19.1572 38.0966C19.26 38.166 19.3835 38.1975 19.5121 38.1492C19.7012 38.0783 19.8395 37.894 19.777 37.6826C19.6823 37.362 19.3128 37.2673 19.0668 37.4802C18.9176 37.6094 18.9286 37.8044 19.019 37.952L19.006 37.9505Z" fill="black"/>
</svg>
