<svg width="64" height="64" viewBox="0 0 64 64" fill="none" xmlns="http://www.w3.org/2000/svg">
<g clip-path="url(#clip0_57_595)">
<mask id="path-1-outside-1_57_595" maskUnits="userSpaceOnUse" x="0.306396" y="-1" width="63" height="66" fill="black">
<rect fill="white" x="0.306396" y="-1" width="63" height="66"/>
<path d="M60.9574 30.2679C59.9698 29.1469 58.7291 28.3739 57.3355 27.96C57.7954 26.9523 58.1036 25.8732 58.2539 24.7908C58.5698 22.5155 58.178 20.3803 56.6324 18.621C55.2023 16.9932 53.157 15.9908 51.1553 15.2567C50.6625 15.0759 50.1348 14.9582 49.6539 14.7498C49.1155 14.5164 49.0413 14.2119 49.0378 13.6538C49.0307 12.5138 49.0593 11.4027 48.9586 10.2629C48.7648 8.06657 48.2478 5.73383 46.324 4.40083C45.2478 3.65495 43.862 3.39871 42.5729 3.4197C42.0739 3.42783 41.3227 3.70233 40.8458 3.5657C40.3692 3.42908 40.0155 2.60646 39.683 2.25083C37.8922 0.335336 34.9326 -0.163663 32.4381 0.0435867C31.4699 0.124087 30.4504 0.153461 29.4943 0.387836C29.2417 0.426961 28.9896 0.469211 28.7388 0.517961C26.0514 1.03996 23.5202 2.17558 21.4812 4.02183C20.4853 4.92358 19.6202 5.98645 19.0172 7.19107C18.7626 7.69995 18.6437 8.25669 18.3925 8.76282C18.0777 9.39694 17.7433 9.49257 17.1183 9.70469C14.5538 10.5743 12.5152 12.4758 10.7417 14.4529C9.0786 16.3071 7.83098 18.4011 7.30461 20.8569C6.77848 23.3118 6.83323 26.0837 7.83898 28.4098C7.88648 28.5198 7.9381 28.6263 7.98985 28.7328C5.68211 29.4009 3.67424 31.274 2.41599 33.2434C1.76762 34.2583 1.23437 35.4359 1.31437 36.6665C1.38899 37.8155 1.96949 38.8534 2.93136 39.4928C4.15049 40.3031 5.66348 40.2879 7.04236 39.9844C7.72511 39.8341 8.38923 39.6123 9.05273 39.395C9.39723 39.2823 9.74285 39.1738 10.0892 39.0669C10.157 39.046 10.3363 39.0126 10.5046 38.9701C10.3482 41.5185 10.924 44.0765 11.3532 46.5785C11.5961 47.994 11.8037 49.4094 12.1161 50.8124C12.4337 52.2389 12.8153 53.65 13.1271 55.0777C13.5992 57.2398 13.8967 59.7203 15.8371 61.1152C17.7321 62.4775 20.2238 62.8665 22.475 63.2107C25.2786 63.6395 28.0768 63.8785 30.9129 63.9398C33.7789 64.002 36.6753 64.0621 39.537 63.8677C42.1209 63.6922 44.8898 63.2707 47.2572 62.1653C49.4719 61.1312 50.518 59.1531 50.8561 56.8131C51.0496 55.4741 51.1009 54.1167 51.2004 52.7687C51.3246 51.0855 51.4615 49.4034 51.5959 47.7209C51.73 46.0409 51.895 44.3802 51.7829 42.6947C51.7359 41.9884 51.7053 41.2901 51.7644 40.5839C51.8135 39.9965 51.8481 39.4438 51.6463 38.8953C51.6615 38.8545 51.6771 38.8139 51.6915 38.7729C52.199 39.1508 52.6935 39.5205 53.324 39.7686C54.2541 40.1346 55.2711 40.2995 56.269 40.301C57.8353 40.3035 59.4573 39.8699 60.7091 38.9061C63.5082 36.7511 63.1187 32.7213 60.9574 30.2679ZM9.66148 17.8883C10.3028 16.8918 11.1072 16.0544 11.9618 15.2408C12.8961 14.3513 13.8215 13.4239 14.8595 12.6543C15.8575 11.9144 16.9092 11.3973 18.0735 10.9841C18.5261 10.8233 18.953 10.5974 19.198 10.1648C19.4997 9.63207 19.4936 9.04694 19.6222 8.46707C20.1711 5.99382 22.7038 3.9437 24.8321 2.82633C26.8936 1.74396 29.1778 1.26946 31.4787 1.06308C31.8634 1.07221 32.2468 1.09008 32.6234 1.10008C33.8644 1.13296 35.1319 1.31558 36.3084 1.72121C36.905 1.92683 37.4494 2.23158 37.9528 2.61171C38.4718 3.00346 38.6882 3.47733 39.0543 3.99158C39.3654 4.42858 39.7713 4.84533 40.3002 4.99945C40.93 5.18308 41.5594 4.97645 42.1867 4.90395C43.3403 4.77045 44.6625 4.89695 45.6322 5.58445C46.4847 6.18895 46.9848 7.13932 47.2445 8.13157C47.5035 9.12094 47.5551 10.1519 47.5963 11.1692C47.6159 11.6536 47.6477 12.1373 47.6062 12.6211C47.5567 13.1977 47.4707 13.7762 47.5383 14.3547C47.6815 15.5791 48.6157 16.1024 49.7004 16.4254C50.6033 16.6943 51.4964 16.9952 52.3528 17.3907C54.0838 18.1902 55.9098 19.3698 56.6356 21.2229C58.3123 25.5035 55.1616 30.4693 50.9001 31.5271C49.7648 31.809 48.5479 31.8608 47.3982 31.6316C46.8417 31.5208 46.2878 31.3594 45.7737 31.1171C45.2284 30.8601 44.7708 30.4604 44.2332 30.2007C43.0649 29.6363 42.1889 30.6581 41.3123 31.2948C40.1779 32.1186 38.9999 32.8626 37.7472 33.4931C35.1175 34.8164 32.3366 36.1504 29.3251 35.6055C27.0299 35.1903 24.7399 34.4476 23.1743 32.6176C22.5221 31.8553 22.3253 30.7671 21.1942 30.6151C20.0171 30.4569 18.988 31.0696 17.895 31.3866C15.8873 31.9689 13.5125 31.74 11.6858 30.71C7.38048 28.2824 7.23298 21.6619 9.66148 17.8883ZM15.5808 58.6822C15.09 57.799 14.8571 56.7916 14.6406 55.8128C14.0011 52.9217 13.081 50.1074 12.4693 47.2091C11.9937 44.9554 11.504 42.7145 11.1706 40.4418C11.2958 40.723 11.4478 40.9916 11.6245 41.2438C12.4196 42.3734 13.6146 43.098 14.9207 43.4997C14.9702 43.515 15.0197 43.5281 15.0693 43.5421C15.1235 44.7622 15.335 45.9727 15.5287 47.1789C15.8002 48.8692 15.894 50.5836 16.1231 52.2801C16.3443 53.9181 16.6106 55.544 16.9663 57.1583C17.1427 57.9588 17.3135 58.7595 17.4468 59.5685C17.4912 59.8373 17.5106 60.128 17.5328 60.4217C16.721 60.0217 16.0368 59.5027 15.5808 58.6822ZM18.4055 60.7953C18.3675 60.4208 18.2846 60.0426 18.2343 59.7105C18.112 58.9005 17.947 58.0975 17.7928 57.2932C17.4743 55.63 17.1898 53.9665 16.9766 52.286C16.7767 50.7109 16.6142 49.1221 16.3532 47.556C16.1371 46.2587 15.8051 44.9811 15.6458 43.6785C16.8906 43.9142 18.144 43.787 19.3261 43.3989C19.2296 46.5 19.5752 49.6329 20.0083 52.6941C20.2438 54.3586 20.575 56.0048 20.9168 57.6502C21.0812 58.4412 21.244 59.2326 21.385 60.0282C21.4742 60.5311 21.5023 61.0822 21.5737 61.6136C20.4905 61.4256 19.417 61.1785 18.4055 60.7953ZM24.4617 62.0276C23.8158 61.9417 23.1565 61.8583 22.4955 61.7608C22.4525 61.2921 22.3441 60.8158 22.2696 60.3755C22.1287 59.5426 21.9587 58.715 21.7832 57.8887C21.4346 56.2477 21.0927 54.6096 20.8165 52.9545C20.2806 49.7432 20.0276 46.5095 19.667 43.2794C20.8253 42.8451 21.906 42.1635 22.8302 41.3321C23.1953 41.9378 23.7083 42.4653 24.3029 42.8713C24.4318 44.0719 24.3266 45.3074 24.3402 46.5045C24.3627 48.4802 24.5138 50.4666 24.6138 52.4402C24.7091 54.319 24.8698 56.1935 25.0039 58.0696C25.0967 59.3663 25.1572 60.8537 25.5579 62.1575C25.192 62.119 24.8265 62.0757 24.4617 62.0276ZM26.4902 62.2466C26.3124 61.6022 26.1368 60.9657 26.0397 60.2917C25.9133 59.4156 25.8559 58.5313 25.7928 57.649C25.6541 55.7097 25.4644 53.7766 25.3578 51.8347C25.2537 49.9389 25.0623 48.033 25.0254 46.1356C25.0072 45.1967 25.0537 44.2107 24.9599 43.2536C25.4654 43.499 26.0074 43.6595 26.5562 43.711C27.4898 43.7985 28.4087 43.4984 29.2017 43.0142C29.3166 44.5016 29.2291 46.0216 29.2234 47.5021C29.2164 49.3515 29.3061 51.2015 29.4056 53.0477C29.5728 56.1491 29.4216 59.3606 29.9433 62.4351C28.7907 62.4008 27.6386 62.3445 26.4902 62.2466ZM34.9419 52.5404C34.7147 55.8593 34.9004 59.1758 34.9014 62.4978C34.1682 62.4948 33.4356 62.4872 32.7047 62.482C32.0813 62.4776 31.4573 62.4697 30.8333 62.4571C30.5454 60.9577 30.4772 59.4222 30.4134 57.8998C30.3388 56.1175 30.2453 54.3376 30.1219 52.5579C29.9946 50.7201 29.8588 48.886 29.8226 47.0437C29.7944 45.6139 29.7193 44.2248 29.4828 42.8304C29.5657 42.7735 29.6471 42.7146 29.7271 42.6537C30.1591 42.323 30.5759 41.9521 30.8651 41.4858C30.9711 41.3148 31.0528 41.1328 31.1257 40.9466C31.6971 41.7251 32.3257 42.4565 33.1698 42.9601C33.9084 43.4009 34.7209 43.5804 35.5452 43.5749C35.4803 46.5719 35.1467 49.5502 34.9419 52.5404ZM37.7534 60.3478C37.7255 60.8684 37.7053 61.3894 37.6928 61.9106C37.6884 62.0935 37.6759 62.2816 37.671 62.4697C37.0568 62.488 36.4418 62.4961 35.8269 62.4982C35.8077 59.1758 35.6252 55.8627 35.7923 52.5404C35.9432 49.5399 36.2777 46.5385 36.2028 43.5324C36.5154 43.4946 36.825 43.4354 37.1294 43.3551C38.4233 43.0153 39.7583 42.3598 40.7713 41.4196C40.5162 44.9345 39.4593 48.3716 38.8504 51.8314C38.5213 53.7012 38.207 55.5832 37.9915 57.4698C37.8823 58.4263 37.8052 59.3867 37.7534 60.3478ZM42.0744 57.5331C41.9997 58.4106 41.9426 59.2895 41.903 60.1692C41.8758 60.7758 41.7875 61.472 41.8165 62.1231C41.4492 62.1826 41.0804 62.234 40.7094 62.2736C39.9944 62.3497 39.2769 62.4003 38.558 62.4347C38.5572 62.3 38.5548 62.1651 38.5577 62.0308C38.569 61.5097 38.5882 60.9887 38.6149 60.4682C38.664 59.5066 38.7411 58.5466 38.8462 57.5895C39.0683 55.5741 39.3627 53.5627 39.6979 51.5632C40.2993 47.9762 41.3202 44.4186 41.3808 40.7643C41.5822 40.5141 41.7638 40.2503 41.916 39.9698C42.4818 40.7503 43.2368 41.3874 44.0953 41.8301C43.9544 43.5156 43.8827 45.1915 43.631 46.8726C43.3615 48.6729 43.0283 50.4632 42.738 52.2601C42.4553 54.0104 42.2244 55.766 42.0744 57.5331ZM45.2449 60.564C45.2262 60.7792 45.2299 61.0678 45.2235 61.3401C44.9538 61.4216 44.6823 61.4957 44.4122 61.566C43.86 61.7105 43.3039 61.8398 42.7445 61.9537C42.7662 61.3946 42.7249 60.8138 42.743 60.2891C42.7748 59.3695 42.8258 58.4506 42.8957 57.5331C43.037 55.6777 43.2725 53.8362 43.5587 51.998C43.8318 50.2432 44.1192 48.4917 44.3278 46.7277C44.5067 45.2147 44.7159 43.6146 44.6297 42.0723C45.3435 42.3603 46.1112 42.5204 46.891 42.5225C47.0885 42.5227 47.2857 42.5101 47.4815 42.4847C47.4008 45.9377 46.7599 49.3465 46.2355 52.7546C45.9579 54.5588 45.7594 56.3722 45.5267 58.1825C45.4248 58.9751 45.3142 59.7677 45.2449 60.564ZM50.4411 42.4666C50.4806 43.8629 50.3699 45.2214 50.2579 46.6126C50.04 49.3196 49.8124 52.0256 49.6225 54.7347C49.4838 56.7147 49.2896 59.0456 47.5207 60.293C47.0752 60.6071 46.5875 60.8485 46.0808 61.0462C46.0833 61.0076 46.0857 60.9688 46.0885 60.9323C46.1469 60.2133 46.2268 59.4983 46.3142 58.7822C46.5503 56.8481 46.7419 54.9084 46.9882 52.9756C47.4369 49.454 48.0443 45.9316 48.0479 42.3745C49.0054 42.1243 49.8349 41.5706 50.486 40.837C50.4245 41.3793 50.4256 41.9201 50.4411 42.4666ZM61.001 36.3121C60.3829 37.8248 58.7783 38.6148 57.2389 38.8396C56.2683 38.9814 55.2505 38.9114 54.3091 38.6415C53.815 38.4999 53.3333 38.3065 52.912 38.0071C52.4664 37.6904 52.0839 37.298 51.6259 36.995C51.2633 36.7551 50.6696 36.9821 50.5845 37.4186C50.2308 39.234 48.9027 41.078 46.8909 41.102C44.9249 41.1255 42.9852 39.8768 42.4415 37.9529C42.2142 37.1484 41.1442 37.3845 41.0644 38.1393C40.8489 40.1774 38.5254 41.5054 36.7519 41.985C35.7156 42.2653 34.6618 42.2755 33.7283 41.688C32.7958 41.1011 32.1123 40.1174 31.5328 39.2023C31.2728 38.7915 30.6212 38.7424 30.3728 39.2023C29.9771 39.9346 29.8034 40.7041 29.1719 41.2883C28.5428 41.8701 27.7262 42.3257 26.8531 42.3499C25.8496 42.3776 23.7303 41.4136 23.6958 40.2066C23.6831 39.761 23.1247 39.3176 22.7061 39.639C20.7537 41.1381 18.5935 42.6445 15.9991 42.2616C14.8071 42.0856 13.6091 41.585 12.8128 40.655C12.465 40.2484 12.2128 39.7689 12.0748 39.2519C11.967 38.8466 11.9396 38.3774 11.7022 38.017C11.2292 37.2989 10.4055 37.7045 9.77148 37.9136C8.49848 38.3335 7.21336 38.9055 5.87023 39.0526C4.64011 39.1874 3.28311 38.8366 2.62037 37.7069C2.02574 36.6931 2.23712 35.5034 2.72236 34.496C3.82549 32.206 5.91261 30.2859 8.2366 29.2037C9.31323 31.0936 11.0783 32.3855 13.232 32.9244C14.3815 33.212 15.5988 33.3135 16.7781 33.1891C18.0171 33.0585 19.0785 32.5704 20.2712 32.2735C20.519 32.2119 20.7558 32.1754 21.0115 32.1813C21.0341 32.1818 21.054 32.184 21.0703 32.186C21.1022 32.2234 21.1321 32.2665 21.1565 32.2974C21.5668 32.8173 22.0973 33.2713 22.5672 33.7364C23.3642 34.5253 24.2988 35.1758 25.3114 35.6565C27.7843 36.8305 30.7514 37.4035 33.4239 36.6941C36.3275 35.9233 39.1939 34.4935 41.7062 32.8624C42.0223 32.656 42.3359 32.4457 42.6467 32.2313C42.88 32.0711 43.2687 31.893 43.4467 31.6808C43.4499 31.677 43.4534 31.6734 43.4572 31.6701C43.5103 31.6929 43.5902 31.7215 43.6174 31.7404C43.9112 31.9421 44.207 32.143 44.5189 32.3161C45.6578 32.9488 46.939 33.2835 48.2344 33.3715C50.7473 33.5421 53.3661 32.7229 55.2098 30.9831C55.7908 30.435 56.2905 29.8063 56.7121 29.1262C59.5721 30.1804 62.2941 33.1474 61.001 36.3121Z"/>
</mask>
<path d="M60.9574 30.2679C59.9698 29.1469 58.7291 28.3739 57.3355 27.96C57.7954 26.9523 58.1036 25.8732 58.2539 24.7908C58.5698 22.5155 58.178 20.3803 56.6324 18.621C55.2023 16.9932 53.157 15.9908 51.1553 15.2567C50.6625 15.0759 50.1348 14.9582 49.6539 14.7498C49.1155 14.5164 49.0413 14.2119 49.0378 13.6538C49.0307 12.5138 49.0593 11.4027 48.9586 10.2629C48.7648 8.06657 48.2478 5.73383 46.324 4.40083C45.2478 3.65495 43.862 3.39871 42.5729 3.4197C42.0739 3.42783 41.3227 3.70233 40.8458 3.5657C40.3692 3.42908 40.0155 2.60646 39.683 2.25083C37.8922 0.335336 34.9326 -0.163663 32.4381 0.0435867C31.4699 0.124087 30.4504 0.153461 29.4943 0.387836C29.2417 0.426961 28.9896 0.469211 28.7388 0.517961C26.0514 1.03996 23.5202 2.17558 21.4812 4.02183C20.4853 4.92358 19.6202 5.98645 19.0172 7.19107C18.7626 7.69995 18.6437 8.25669 18.3925 8.76282C18.0777 9.39694 17.7433 9.49257 17.1183 9.70469C14.5538 10.5743 12.5152 12.4758 10.7417 14.4529C9.0786 16.3071 7.83098 18.4011 7.30461 20.8569C6.77848 23.3118 6.83323 26.0837 7.83898 28.4098C7.88648 28.5198 7.9381 28.6263 7.98985 28.7328C5.68211 29.4009 3.67424 31.274 2.41599 33.2434C1.76762 34.2583 1.23437 35.4359 1.31437 36.6665C1.38899 37.8155 1.96949 38.8534 2.93136 39.4928C4.15049 40.3031 5.66348 40.2879 7.04236 39.9844C7.72511 39.8341 8.38923 39.6123 9.05273 39.395C9.39723 39.2823 9.74285 39.1738 10.0892 39.0669C10.157 39.046 10.3363 39.0126 10.5046 38.9701C10.3482 41.5185 10.924 44.0765 11.3532 46.5785C11.5961 47.994 11.8037 49.4094 12.1161 50.8124C12.4337 52.2389 12.8153 53.65 13.1271 55.0777C13.5992 57.2398 13.8967 59.7203 15.8371 61.1152C17.7321 62.4775 20.2238 62.8665 22.475 63.2107C25.2786 63.6395 28.0768 63.8785 30.9129 63.9398C33.7789 64.002 36.6753 64.0621 39.537 63.8677C42.1209 63.6922 44.8898 63.2707 47.2572 62.1653C49.4719 61.1312 50.518 59.1531 50.8561 56.8131C51.0496 55.4741 51.1009 54.1167 51.2004 52.7687C51.3246 51.0855 51.4615 49.4034 51.5959 47.7209C51.73 46.0409 51.895 44.3802 51.7829 42.6947C51.7359 41.9884 51.7053 41.2901 51.7644 40.5839C51.8135 39.9965 51.8481 39.4438 51.6463 38.8953C51.6615 38.8545 51.6771 38.8139 51.6915 38.7729C52.199 39.1508 52.6935 39.5205 53.324 39.7686C54.2541 40.1346 55.2711 40.2995 56.269 40.301C57.8353 40.3035 59.4573 39.8699 60.7091 38.9061C63.5082 36.7511 63.1187 32.7213 60.9574 30.2679ZM9.66148 17.8883C10.3028 16.8918 11.1072 16.0544 11.9618 15.2408C12.8961 14.3513 13.8215 13.4239 14.8595 12.6543C15.8575 11.9144 16.9092 11.3973 18.0735 10.9841C18.5261 10.8233 18.953 10.5974 19.198 10.1648C19.4997 9.63207 19.4936 9.04694 19.6222 8.46707C20.1711 5.99382 22.7038 3.9437 24.8321 2.82633C26.8936 1.74396 29.1778 1.26946 31.4787 1.06308C31.8634 1.07221 32.2468 1.09008 32.6234 1.10008C33.8644 1.13296 35.1319 1.31558 36.3084 1.72121C36.905 1.92683 37.4494 2.23158 37.9528 2.61171C38.4718 3.00346 38.6882 3.47733 39.0543 3.99158C39.3654 4.42858 39.7713 4.84533 40.3002 4.99945C40.93 5.18308 41.5594 4.97645 42.1867 4.90395C43.3403 4.77045 44.6625 4.89695 45.6322 5.58445C46.4847 6.18895 46.9848 7.13932 47.2445 8.13157C47.5035 9.12094 47.5551 10.1519 47.5963 11.1692C47.6159 11.6536 47.6477 12.1373 47.6062 12.6211C47.5567 13.1977 47.4707 13.7762 47.5383 14.3547C47.6815 15.5791 48.6157 16.1024 49.7004 16.4254C50.6033 16.6943 51.4964 16.9952 52.3528 17.3907C54.0838 18.1902 55.9098 19.3698 56.6356 21.2229C58.3123 25.5035 55.1616 30.4693 50.9001 31.5271C49.7648 31.809 48.5479 31.8608 47.3982 31.6316C46.8417 31.5208 46.2878 31.3594 45.7737 31.1171C45.2284 30.8601 44.7708 30.4604 44.2332 30.2007C43.0649 29.6363 42.1889 30.6581 41.3123 31.2948C40.1779 32.1186 38.9999 32.8626 37.7472 33.4931C35.1175 34.8164 32.3366 36.1504 29.3251 35.6055C27.0299 35.1903 24.7399 34.4476 23.1743 32.6176C22.5221 31.8553 22.3253 30.7671 21.1942 30.6151C20.0171 30.4569 18.988 31.0696 17.895 31.3866C15.8873 31.9689 13.5125 31.74 11.6858 30.71C7.38048 28.2824 7.23298 21.6619 9.66148 17.8883ZM15.5808 58.6822C15.09 57.799 14.8571 56.7916 14.6406 55.8128C14.0011 52.9217 13.081 50.1074 12.4693 47.2091C11.9937 44.9554 11.504 42.7145 11.1706 40.4418C11.2958 40.723 11.4478 40.9916 11.6245 41.2438C12.4196 42.3734 13.6146 43.098 14.9207 43.4997C14.9702 43.515 15.0197 43.5281 15.0693 43.5421C15.1235 44.7622 15.335 45.9727 15.5287 47.1789C15.8002 48.8692 15.894 50.5836 16.1231 52.2801C16.3443 53.9181 16.6106 55.544 16.9663 57.1583C17.1427 57.9588 17.3135 58.7595 17.4468 59.5685C17.4912 59.8373 17.5106 60.128 17.5328 60.4217C16.721 60.0217 16.0368 59.5027 15.5808 58.6822ZM18.4055 60.7953C18.3675 60.4208 18.2846 60.0426 18.2343 59.7105C18.112 58.9005 17.947 58.0975 17.7928 57.2932C17.4743 55.63 17.1898 53.9665 16.9766 52.286C16.7767 50.7109 16.6142 49.1221 16.3532 47.556C16.1371 46.2587 15.8051 44.9811 15.6458 43.6785C16.8906 43.9142 18.144 43.787 19.3261 43.3989C19.2296 46.5 19.5752 49.6329 20.0083 52.6941C20.2438 54.3586 20.575 56.0048 20.9168 57.6502C21.0812 58.4412 21.244 59.2326 21.385 60.0282C21.4742 60.5311 21.5023 61.0822 21.5737 61.6136C20.4905 61.4256 19.417 61.1785 18.4055 60.7953ZM24.4617 62.0276C23.8158 61.9417 23.1565 61.8583 22.4955 61.7608C22.4525 61.2921 22.3441 60.8158 22.2696 60.3755C22.1287 59.5426 21.9587 58.715 21.7832 57.8887C21.4346 56.2477 21.0927 54.6096 20.8165 52.9545C20.2806 49.7432 20.0276 46.5095 19.667 43.2794C20.8253 42.8451 21.906 42.1635 22.8302 41.3321C23.1953 41.9378 23.7083 42.4653 24.3029 42.8713C24.4318 44.0719 24.3266 45.3074 24.3402 46.5045C24.3627 48.4802 24.5138 50.4666 24.6138 52.4402C24.7091 54.319 24.8698 56.1935 25.0039 58.0696C25.0967 59.3663 25.1572 60.8537 25.5579 62.1575C25.192 62.119 24.8265 62.0757 24.4617 62.0276ZM26.4902 62.2466C26.3124 61.6022 26.1368 60.9657 26.0397 60.2917C25.9133 59.4156 25.8559 58.5313 25.7928 57.649C25.6541 55.7097 25.4644 53.7766 25.3578 51.8347C25.2537 49.9389 25.0623 48.033 25.0254 46.1356C25.0072 45.1967 25.0537 44.2107 24.9599 43.2536C25.4654 43.499 26.0074 43.6595 26.5562 43.711C27.4898 43.7985 28.4087 43.4984 29.2017 43.0142C29.3166 44.5016 29.2291 46.0216 29.2234 47.5021C29.2164 49.3515 29.3061 51.2015 29.4056 53.0477C29.5728 56.1491 29.4216 59.3606 29.9433 62.4351C28.7907 62.4008 27.6386 62.3445 26.4902 62.2466ZM34.9419 52.5404C34.7147 55.8593 34.9004 59.1758 34.9014 62.4978C34.1682 62.4948 33.4356 62.4872 32.7047 62.482C32.0813 62.4776 31.4573 62.4697 30.8333 62.4571C30.5454 60.9577 30.4772 59.4222 30.4134 57.8998C30.3388 56.1175 30.2453 54.3376 30.1219 52.5579C29.9946 50.7201 29.8588 48.886 29.8226 47.0437C29.7944 45.6139 29.7193 44.2248 29.4828 42.8304C29.5657 42.7735 29.6471 42.7146 29.7271 42.6537C30.1591 42.323 30.5759 41.9521 30.8651 41.4858C30.9711 41.3148 31.0528 41.1328 31.1257 40.9466C31.6971 41.7251 32.3257 42.4565 33.1698 42.9601C33.9084 43.4009 34.7209 43.5804 35.5452 43.5749C35.4803 46.5719 35.1467 49.5502 34.9419 52.5404ZM37.7534 60.3478C37.7255 60.8684 37.7053 61.3894 37.6928 61.9106C37.6884 62.0935 37.6759 62.2816 37.671 62.4697C37.0568 62.488 36.4418 62.4961 35.8269 62.4982C35.8077 59.1758 35.6252 55.8627 35.7923 52.5404C35.9432 49.5399 36.2777 46.5385 36.2028 43.5324C36.5154 43.4946 36.825 43.4354 37.1294 43.3551C38.4233 43.0153 39.7583 42.3598 40.7713 41.4196C40.5162 44.9345 39.4593 48.3716 38.8504 51.8314C38.5213 53.7012 38.207 55.5832 37.9915 57.4698C37.8823 58.4263 37.8052 59.3867 37.7534 60.3478ZM42.0744 57.5331C41.9997 58.4106 41.9426 59.2895 41.903 60.1692C41.8758 60.7758 41.7875 61.472 41.8165 62.1231C41.4492 62.1826 41.0804 62.234 40.7094 62.2736C39.9944 62.3497 39.2769 62.4003 38.558 62.4347C38.5572 62.3 38.5548 62.1651 38.5577 62.0308C38.569 61.5097 38.5882 60.9887 38.6149 60.4682C38.664 59.5066 38.7411 58.5466 38.8462 57.5895C39.0683 55.5741 39.3627 53.5627 39.6979 51.5632C40.2993 47.9762 41.3202 44.4186 41.3808 40.7643C41.5822 40.5141 41.7638 40.2503 41.916 39.9698C42.4818 40.7503 43.2368 41.3874 44.0953 41.8301C43.9544 43.5156 43.8827 45.1915 43.631 46.8726C43.3615 48.6729 43.0283 50.4632 42.738 52.2601C42.4553 54.0104 42.2244 55.766 42.0744 57.5331ZM45.2449 60.564C45.2262 60.7792 45.2299 61.0678 45.2235 61.3401C44.9538 61.4216 44.6823 61.4957 44.4122 61.566C43.86 61.7105 43.3039 61.8398 42.7445 61.9537C42.7662 61.3946 42.7249 60.8138 42.743 60.2891C42.7748 59.3695 42.8258 58.4506 42.8957 57.5331C43.037 55.6777 43.2725 53.8362 43.5587 51.998C43.8318 50.2432 44.1192 48.4917 44.3278 46.7277C44.5067 45.2147 44.7159 43.6146 44.6297 42.0723C45.3435 42.3603 46.1112 42.5204 46.891 42.5225C47.0885 42.5227 47.2857 42.5101 47.4815 42.4847C47.4008 45.9377 46.7599 49.3465 46.2355 52.7546C45.9579 54.5588 45.7594 56.3722 45.5267 58.1825C45.4248 58.9751 45.3142 59.7677 45.2449 60.564ZM50.4411 42.4666C50.4806 43.8629 50.3699 45.2214 50.2579 46.6126C50.04 49.3196 49.8124 52.0256 49.6225 54.7347C49.4838 56.7147 49.2896 59.0456 47.5207 60.293C47.0752 60.6071 46.5875 60.8485 46.0808 61.0462C46.0833 61.0076 46.0857 60.9688 46.0885 60.9323C46.1469 60.2133 46.2268 59.4983 46.3142 58.7822C46.5503 56.8481 46.7419 54.9084 46.9882 52.9756C47.4369 49.454 48.0443 45.9316 48.0479 42.3745C49.0054 42.1243 49.8349 41.5706 50.486 40.837C50.4245 41.3793 50.4256 41.9201 50.4411 42.4666ZM61.001 36.3121C60.3829 37.8248 58.7783 38.6148 57.2389 38.8396C56.2683 38.9814 55.2505 38.9114 54.3091 38.6415C53.815 38.4999 53.3333 38.3065 52.912 38.0071C52.4664 37.6904 52.0839 37.298 51.6259 36.995C51.2633 36.7551 50.6696 36.9821 50.5845 37.4186C50.2308 39.234 48.9027 41.078 46.8909 41.102C44.9249 41.1255 42.9852 39.8768 42.4415 37.9529C42.2142 37.1484 41.1442 37.3845 41.0644 38.1393C40.8489 40.1774 38.5254 41.5054 36.7519 41.985C35.7156 42.2653 34.6618 42.2755 33.7283 41.688C32.7958 41.1011 32.1123 40.1174 31.5328 39.2023C31.2728 38.7915 30.6212 38.7424 30.3728 39.2023C29.9771 39.9346 29.8034 40.7041 29.1719 41.2883C28.5428 41.8701 27.7262 42.3257 26.8531 42.3499C25.8496 42.3776 23.7303 41.4136 23.6958 40.2066C23.6831 39.761 23.1247 39.3176 22.7061 39.639C20.7537 41.1381 18.5935 42.6445 15.9991 42.2616C14.8071 42.0856 13.6091 41.585 12.8128 40.655C12.465 40.2484 12.2128 39.7689 12.0748 39.2519C11.967 38.8466 11.9396 38.3774 11.7022 38.017C11.2292 37.2989 10.4055 37.7045 9.77148 37.9136C8.49848 38.3335 7.21336 38.9055 5.87023 39.0526C4.64011 39.1874 3.28311 38.8366 2.62037 37.7069C2.02574 36.6931 2.23712 35.5034 2.72236 34.496C3.82549 32.206 5.91261 30.2859 8.2366 29.2037C9.31323 31.0936 11.0783 32.3855 13.232 32.9244C14.3815 33.212 15.5988 33.3135 16.7781 33.1891C18.0171 33.0585 19.0785 32.5704 20.2712 32.2735C20.519 32.2119 20.7558 32.1754 21.0115 32.1813C21.0341 32.1818 21.054 32.184 21.0703 32.186C21.1022 32.2234 21.1321 32.2665 21.1565 32.2974C21.5668 32.8173 22.0973 33.2713 22.5672 33.7364C23.3642 34.5253 24.2988 35.1758 25.3114 35.6565C27.7843 36.8305 30.7514 37.4035 33.4239 36.6941C36.3275 35.9233 39.1939 34.4935 41.7062 32.8624C42.0223 32.656 42.3359 32.4457 42.6467 32.2313C42.88 32.0711 43.2687 31.893 43.4467 31.6808C43.4499 31.677 43.4534 31.6734 43.4572 31.6701C43.5103 31.6929 43.5902 31.7215 43.6174 31.7404C43.9112 31.9421 44.207 32.143 44.5189 32.3161C45.6578 32.9488 46.939 33.2835 48.2344 33.3715C50.7473 33.5421 53.3661 32.7229 55.2098 30.9831C55.7908 30.435 56.2905 29.8063 56.7121 29.1262C59.5721 30.1804 62.2941 33.1474 61.001 36.3121Z" fill="#8BC43F"/>
<path d="M60.9574 30.2679C59.9698 29.1469 58.7291 28.3739 57.3355 27.96C57.7954 26.9523 58.1036 25.8732 58.2539 24.7908C58.5698 22.5155 58.178 20.3803 56.6324 18.621C55.2023 16.9932 53.157 15.9908 51.1553 15.2567C50.6625 15.0759 50.1348 14.9582 49.6539 14.7498C49.1155 14.5164 49.0413 14.2119 49.0378 13.6538C49.0307 12.5138 49.0593 11.4027 48.9586 10.2629C48.7648 8.06657 48.2478 5.73383 46.324 4.40083C45.2478 3.65495 43.862 3.39871 42.5729 3.4197C42.0739 3.42783 41.3227 3.70233 40.8458 3.5657C40.3692 3.42908 40.0155 2.60646 39.683 2.25083C37.8922 0.335336 34.9326 -0.163663 32.4381 0.0435867C31.4699 0.124087 30.4504 0.153461 29.4943 0.387836C29.2417 0.426961 28.9896 0.469211 28.7388 0.517961C26.0514 1.03996 23.5202 2.17558 21.4812 4.02183C20.4853 4.92358 19.6202 5.98645 19.0172 7.19107C18.7626 7.69995 18.6437 8.25669 18.3925 8.76282C18.0777 9.39694 17.7433 9.49257 17.1183 9.70469C14.5538 10.5743 12.5152 12.4758 10.7417 14.4529C9.0786 16.3071 7.83098 18.4011 7.30461 20.8569C6.77848 23.3118 6.83323 26.0837 7.83898 28.4098C7.88648 28.5198 7.9381 28.6263 7.98985 28.7328C5.68211 29.4009 3.67424 31.274 2.41599 33.2434C1.76762 34.2583 1.23437 35.4359 1.31437 36.6665C1.38899 37.8155 1.96949 38.8534 2.93136 39.4928C4.15049 40.3031 5.66348 40.2879 7.04236 39.9844C7.72511 39.8341 8.38923 39.6123 9.05273 39.395C9.39723 39.2823 9.74285 39.1738 10.0892 39.0669C10.157 39.046 10.3363 39.0126 10.5046 38.9701C10.3482 41.5185 10.924 44.0765 11.3532 46.5785C11.5961 47.994 11.8037 49.4094 12.1161 50.8124C12.4337 52.2389 12.8153 53.65 13.1271 55.0777C13.5992 57.2398 13.8967 59.7203 15.8371 61.1152C17.7321 62.4775 20.2238 62.8665 22.475 63.2107C25.2786 63.6395 28.0768 63.8785 30.9129 63.9398C33.7789 64.002 36.6753 64.0621 39.537 63.8677C42.1209 63.6922 44.8898 63.2707 47.2572 62.1653C49.4719 61.1312 50.518 59.1531 50.8561 56.8131C51.0496 55.4741 51.1009 54.1167 51.2004 52.7687C51.3246 51.0855 51.4615 49.4034 51.5959 47.7209C51.73 46.0409 51.895 44.3802 51.7829 42.6947C51.7359 41.9884 51.7053 41.2901 51.7644 40.5839C51.8135 39.9965 51.8481 39.4438 51.6463 38.8953C51.6615 38.8545 51.6771 38.8139 51.6915 38.7729C52.199 39.1508 52.6935 39.5205 53.324 39.7686C54.2541 40.1346 55.2711 40.2995 56.269 40.301C57.8353 40.3035 59.4573 39.8699 60.7091 38.9061C63.5082 36.7511 63.1187 32.7213 60.9574 30.2679ZM9.66148 17.8883C10.3028 16.8918 11.1072 16.0544 11.9618 15.2408C12.8961 14.3513 13.8215 13.4239 14.8595 12.6543C15.8575 11.9144 16.9092 11.3973 18.0735 10.9841C18.5261 10.8233 18.953 10.5974 19.198 10.1648C19.4997 9.63207 19.4936 9.04694 19.6222 8.46707C20.1711 5.99382 22.7038 3.9437 24.8321 2.82633C26.8936 1.74396 29.1778 1.26946 31.4787 1.06308C31.8634 1.07221 32.2468 1.09008 32.6234 1.10008C33.8644 1.13296 35.1319 1.31558 36.3084 1.72121C36.905 1.92683 37.4494 2.23158 37.9528 2.61171C38.4718 3.00346 38.6882 3.47733 39.0543 3.99158C39.3654 4.42858 39.7713 4.84533 40.3002 4.99945C40.93 5.18308 41.5594 4.97645 42.1867 4.90395C43.3403 4.77045 44.6625 4.89695 45.6322 5.58445C46.4847 6.18895 46.9848 7.13932 47.2445 8.13157C47.5035 9.12094 47.5551 10.1519 47.5963 11.1692C47.6159 11.6536 47.6477 12.1373 47.6062 12.6211C47.5567 13.1977 47.4707 13.7762 47.5383 14.3547C47.6815 15.5791 48.6157 16.1024 49.7004 16.4254C50.6033 16.6943 51.4964 16.9952 52.3528 17.3907C54.0838 18.1902 55.9098 19.3698 56.6356 21.2229C58.3123 25.5035 55.1616 30.4693 50.9001 31.5271C49.7648 31.809 48.5479 31.8608 47.3982 31.6316C46.8417 31.5208 46.2878 31.3594 45.7737 31.1171C45.2284 30.8601 44.7708 30.4604 44.2332 30.2007C43.0649 29.6363 42.1889 30.6581 41.3123 31.2948C40.1779 32.1186 38.9999 32.8626 37.7472 33.4931C35.1175 34.8164 32.3366 36.1504 29.3251 35.6055C27.0299 35.1903 24.7399 34.4476 23.1743 32.6176C22.5221 31.8553 22.3253 30.7671 21.1942 30.6151C20.0171 30.4569 18.988 31.0696 17.895 31.3866C15.8873 31.9689 13.5125 31.74 11.6858 30.71C7.38048 28.2824 7.23298 21.6619 9.66148 17.8883ZM15.5808 58.6822C15.09 57.799 14.8571 56.7916 14.6406 55.8128C14.0011 52.9217 13.081 50.1074 12.4693 47.2091C11.9937 44.9554 11.504 42.7145 11.1706 40.4418C11.2958 40.723 11.4478 40.9916 11.6245 41.2438C12.4196 42.3734 13.6146 43.098 14.9207 43.4997C14.9702 43.515 15.0197 43.5281 15.0693 43.5421C15.1235 44.7622 15.335 45.9727 15.5287 47.1789C15.8002 48.8692 15.894 50.5836 16.1231 52.2801C16.3443 53.9181 16.6106 55.544 16.9663 57.1583C17.1427 57.9588 17.3135 58.7595 17.4468 59.5685C17.4912 59.8373 17.5106 60.128 17.5328 60.4217C16.721 60.0217 16.0368 59.5027 15.5808 58.6822ZM18.4055 60.7953C18.3675 60.4208 18.2846 60.0426 18.2343 59.7105C18.112 58.9005 17.947 58.0975 17.7928 57.2932C17.4743 55.63 17.1898 53.9665 16.9766 52.286C16.7767 50.7109 16.6142 49.1221 16.3532 47.556C16.1371 46.2587 15.8051 44.9811 15.6458 43.6785C16.8906 43.9142 18.144 43.787 19.3261 43.3989C19.2296 46.5 19.5752 49.6329 20.0083 52.6941C20.2438 54.3586 20.575 56.0048 20.9168 57.6502C21.0812 58.4412 21.244 59.2326 21.385 60.0282C21.4742 60.5311 21.5023 61.0822 21.5737 61.6136C20.4905 61.4256 19.417 61.1785 18.4055 60.7953ZM24.4617 62.0276C23.8158 61.9417 23.1565 61.8583 22.4955 61.7608C22.4525 61.2921 22.3441 60.8158 22.2696 60.3755C22.1287 59.5426 21.9587 58.715 21.7832 57.8887C21.4346 56.2477 21.0927 54.6096 20.8165 52.9545C20.2806 49.7432 20.0276 46.5095 19.667 43.2794C20.8253 42.8451 21.906 42.1635 22.8302 41.3321C23.1953 41.9378 23.7083 42.4653 24.3029 42.8713C24.4318 44.0719 24.3266 45.3074 24.3402 46.5045C24.3627 48.4802 24.5138 50.4666 24.6138 52.4402C24.7091 54.319 24.8698 56.1935 25.0039 58.0696C25.0967 59.3663 25.1572 60.8537 25.5579 62.1575C25.192 62.119 24.8265 62.0757 24.4617 62.0276ZM26.4902 62.2466C26.3124 61.6022 26.1368 60.9657 26.0397 60.2917C25.9133 59.4156 25.8559 58.5313 25.7928 57.649C25.6541 55.7097 25.4644 53.7766 25.3578 51.8347C25.2537 49.9389 25.0623 48.033 25.0254 46.1356C25.0072 45.1967 25.0537 44.2107 24.9599 43.2536C25.4654 43.499 26.0074 43.6595 26.5562 43.711C27.4898 43.7985 28.4087 43.4984 29.2017 43.0142C29.3166 44.5016 29.2291 46.0216 29.2234 47.5021C29.2164 49.3515 29.3061 51.2015 29.4056 53.0477C29.5728 56.1491 29.4216 59.3606 29.9433 62.4351C28.7907 62.4008 27.6386 62.3445 26.4902 62.2466ZM34.9419 52.5404C34.7147 55.8593 34.9004 59.1758 34.9014 62.4978C34.1682 62.4948 33.4356 62.4872 32.7047 62.482C32.0813 62.4776 31.4573 62.4697 30.8333 62.4571C30.5454 60.9577 30.4772 59.4222 30.4134 57.8998C30.3388 56.1175 30.2453 54.3376 30.1219 52.5579C29.9946 50.7201 29.8588 48.886 29.8226 47.0437C29.7944 45.6139 29.7193 44.2248 29.4828 42.8304C29.5657 42.7735 29.6471 42.7146 29.7271 42.6537C30.1591 42.323 30.5759 41.9521 30.8651 41.4858C30.9711 41.3148 31.0528 41.1328 31.1257 40.9466C31.6971 41.7251 32.3257 42.4565 33.1698 42.9601C33.9084 43.4009 34.7209 43.5804 35.5452 43.5749C35.4803 46.5719 35.1467 49.5502 34.9419 52.5404ZM37.7534 60.3478C37.7255 60.8684 37.7053 61.3894 37.6928 61.9106C37.6884 62.0935 37.6759 62.2816 37.671 62.4697C37.0568 62.488 36.4418 62.4961 35.8269 62.4982C35.8077 59.1758 35.6252 55.8627 35.7923 52.5404C35.9432 49.5399 36.2777 46.5385 36.2028 43.5324C36.5154 43.4946 36.825 43.4354 37.1294 43.3551C38.4233 43.0153 39.7583 42.3598 40.7713 41.4196C40.5162 44.9345 39.4593 48.3716 38.8504 51.8314C38.5213 53.7012 38.207 55.5832 37.9915 57.4698C37.8823 58.4263 37.8052 59.3867 37.7534 60.3478ZM42.0744 57.5331C41.9997 58.4106 41.9426 59.2895 41.903 60.1692C41.8758 60.7758 41.7875 61.472 41.8165 62.1231C41.4492 62.1826 41.0804 62.234 40.7094 62.2736C39.9944 62.3497 39.2769 62.4003 38.558 62.4347C38.5572 62.3 38.5548 62.1651 38.5577 62.0308C38.569 61.5097 38.5882 60.9887 38.6149 60.4682C38.664 59.5066 38.7411 58.5466 38.8462 57.5895C39.0683 55.5741 39.3627 53.5627 39.6979 51.5632C40.2993 47.9762 41.3202 44.4186 41.3808 40.7643C41.5822 40.5141 41.7638 40.2503 41.916 39.9698C42.4818 40.7503 43.2368 41.3874 44.0953 41.8301C43.9544 43.5156 43.8827 45.1915 43.631 46.8726C43.3615 48.6729 43.0283 50.4632 42.738 52.2601C42.4553 54.0104 42.2244 55.766 42.0744 57.5331ZM45.2449 60.564C45.2262 60.7792 45.2299 61.0678 45.2235 61.3401C44.9538 61.4216 44.6823 61.4957 44.4122 61.566C43.86 61.7105 43.3039 61.8398 42.7445 61.9537C42.7662 61.3946 42.7249 60.8138 42.743 60.2891C42.7748 59.3695 42.8258 58.4506 42.8957 57.5331C43.037 55.6777 43.2725 53.8362 43.5587 51.998C43.8318 50.2432 44.1192 48.4917 44.3278 46.7277C44.5067 45.2147 44.7159 43.6146 44.6297 42.0723C45.3435 42.3603 46.1112 42.5204 46.891 42.5225C47.0885 42.5227 47.2857 42.5101 47.4815 42.4847C47.4008 45.9377 46.7599 49.3465 46.2355 52.7546C45.9579 54.5588 45.7594 56.3722 45.5267 58.1825C45.4248 58.9751 45.3142 59.7677 45.2449 60.564ZM50.4411 42.4666C50.4806 43.8629 50.3699 45.2214 50.2579 46.6126C50.04 49.3196 49.8124 52.0256 49.6225 54.7347C49.4838 56.7147 49.2896 59.0456 47.5207 60.293C47.0752 60.6071 46.5875 60.8485 46.0808 61.0462C46.0833 61.0076 46.0857 60.9688 46.0885 60.9323C46.1469 60.2133 46.2268 59.4983 46.3142 58.7822C46.5503 56.8481 46.7419 54.9084 46.9882 52.9756C47.4369 49.454 48.0443 45.9316 48.0479 42.3745C49.0054 42.1243 49.8349 41.5706 50.486 40.837C50.4245 41.3793 50.4256 41.9201 50.4411 42.4666ZM61.001 36.3121C60.3829 37.8248 58.7783 38.6148 57.2389 38.8396C56.2683 38.9814 55.2505 38.9114 54.3091 38.6415C53.815 38.4999 53.3333 38.3065 52.912 38.0071C52.4664 37.6904 52.0839 37.298 51.6259 36.995C51.2633 36.7551 50.6696 36.9821 50.5845 37.4186C50.2308 39.234 48.9027 41.078 46.8909 41.102C44.9249 41.1255 42.9852 39.8768 42.4415 37.9529C42.2142 37.1484 41.1442 37.3845 41.0644 38.1393C40.8489 40.1774 38.5254 41.5054 36.7519 41.985C35.7156 42.2653 34.6618 42.2755 33.7283 41.688C32.7958 41.1011 32.1123 40.1174 31.5328 39.2023C31.2728 38.7915 30.6212 38.7424 30.3728 39.2023C29.9771 39.9346 29.8034 40.7041 29.1719 41.2883C28.5428 41.8701 27.7262 42.3257 26.8531 42.3499C25.8496 42.3776 23.7303 41.4136 23.6958 40.2066C23.6831 39.761 23.1247 39.3176 22.7061 39.639C20.7537 41.1381 18.5935 42.6445 15.9991 42.2616C14.8071 42.0856 13.6091 41.585 12.8128 40.655C12.465 40.2484 12.2128 39.7689 12.0748 39.2519C11.967 38.8466 11.9396 38.3774 11.7022 38.017C11.2292 37.2989 10.4055 37.7045 9.77148 37.9136C8.49848 38.3335 7.21336 38.9055 5.87023 39.0526C4.64011 39.1874 3.28311 38.8366 2.62037 37.7069C2.02574 36.6931 2.23712 35.5034 2.72236 34.496C3.82549 32.206 5.91261 30.2859 8.2366 29.2037C9.31323 31.0936 11.0783 32.3855 13.232 32.9244C14.3815 33.212 15.5988 33.3135 16.7781 33.1891C18.0171 33.0585 19.0785 32.5704 20.2712 32.2735C20.519 32.2119 20.7558 32.1754 21.0115 32.1813C21.0341 32.1818 21.054 32.184 21.0703 32.186C21.1022 32.2234 21.1321 32.2665 21.1565 32.2974C21.5668 32.8173 22.0973 33.2713 22.5672 33.7364C23.3642 34.5253 24.2988 35.1758 25.3114 35.6565C27.7843 36.8305 30.7514 37.4035 33.4239 36.6941C36.3275 35.9233 39.1939 34.4935 41.7062 32.8624C42.0223 32.656 42.3359 32.4457 42.6467 32.2313C42.88 32.0711 43.2687 31.893 43.4467 31.6808C43.4499 31.677 43.4534 31.6734 43.4572 31.6701C43.5103 31.6929 43.5902 31.7215 43.6174 31.7404C43.9112 31.9421 44.207 32.143 44.5189 32.3161C45.6578 32.9488 46.939 33.2835 48.2344 33.3715C50.7473 33.5421 53.3661 32.7229 55.2098 30.9831C55.7908 30.435 56.2905 29.8063 56.7121 29.1262C59.5721 30.1804 62.2941 33.1474 61.001 36.3121Z" stroke="#8BC43F" mask="url(#path-1-outside-1_57_595)"/>
<path d="M30.0967 15.4121L30.0967 15.412C31.0335 14.0107 30.8726 11.9188 29.5144 10.8043C28.7984 10.2168 27.8556 9.94779 26.9574 9.95584C25.9602 9.96477 25.0162 10.4714 24.2732 11.181C23.5291 11.8915 22.9617 12.8283 22.7254 13.7471C22.4642 14.7629 22.7518 15.6495 23.3452 16.2937C23.9325 16.9311 24.8109 17.3245 25.7368 17.3974C27.3618 17.5255 29.1609 16.8113 30.0967 15.4121ZM28.9619 12.1478L28.9619 12.1478C29.4148 12.7816 29.4405 13.4546 29.2008 14.0575C28.9577 14.6694 28.4377 15.2131 27.799 15.5434C27.2204 15.8427 26.3309 16.0322 25.5387 15.9415C24.7487 15.8511 24.1253 15.4968 23.9282 14.7751C23.5882 13.5301 24.3979 12.2854 25.579 11.6393C26.7547 10.9962 28.1561 11.0203 28.9619 12.1478ZM20.3906 19.4659L20.2139 19.6428L20.3906 19.4659C19.7009 18.7771 18.6926 18.4774 17.6798 18.4595C16.665 18.4415 15.6104 18.7048 14.795 19.1845C13.8949 19.714 13.4591 20.5329 13.4044 21.3966C13.3502 22.2518 13.6692 23.1395 14.2508 23.8355L14.4427 23.6752L14.2508 23.8355C15.2712 25.0566 17.0112 25.8042 18.6476 25.4722C20.2834 25.1404 21.6642 23.5654 21.5327 21.8411C21.4633 20.9307 21.011 20.0856 20.3906 19.4659ZM20.1914 22.386L20.437 22.4323L20.1914 22.386C20.0481 23.1454 19.5843 23.637 18.9891 23.8943C18.3859 24.1549 17.6442 24.1748 16.9753 23.964L16.9753 23.964C16.369 23.773 15.6297 23.2903 15.1559 22.6795C14.685 22.0723 14.511 21.3939 14.8922 20.7495C15.5508 19.6364 16.9935 19.3281 18.2555 19.6932C18.8794 19.8738 19.4303 20.2135 19.7897 20.6712C20.1448 21.1236 20.3209 21.6997 20.1914 22.386ZM26.6939 21.6807L26.6939 21.6807C25.7939 22.2102 25.358 23.0291 25.3033 23.8928C25.2491 24.7481 25.5681 25.6357 26.1497 26.3318L26.3415 26.1715L26.1497 26.3318C27.1701 27.5528 28.91 28.3004 30.5465 27.9685C32.1822 27.6366 33.563 26.0617 33.4316 24.3373C33.3621 23.427 32.9099 22.5819 32.2894 21.9623C31.5998 21.2735 30.5915 20.9738 29.5786 20.9558C28.5638 20.9378 27.5093 21.2011 26.6939 21.6807ZM28.8742 26.4603L28.8741 26.4603C28.2679 26.2693 27.5285 25.7865 27.0548 25.1757C26.5838 24.5686 26.4098 23.8902 26.7911 23.2459C27.4497 22.1328 28.8924 21.8245 30.1544 22.1896C30.7783 22.3701 31.3291 22.7098 31.6885 23.1676C32.0437 23.6199 32.2197 24.1961 32.0902 24.8823C31.947 25.6417 31.4832 26.1333 30.888 26.3905C30.2848 26.6512 29.5431 26.671 28.8742 26.4603ZM36.0965 7.70172L36.2232 7.91705L36.0965 7.70172C35.1964 8.2312 34.7606 9.05014 34.7059 9.91382C34.6517 10.7691 34.9707 11.6567 35.5523 12.3528L35.7442 12.1925L35.5523 12.3528C36.5727 13.5738 38.3127 14.3214 39.9491 13.9895C41.5848 13.6576 42.9657 12.0825 42.8342 10.3583C42.7648 9.44797 42.3125 8.60286 41.6921 7.98329C41.0024 7.29452 39.9941 6.9948 38.9813 6.97682C37.9665 6.95881 36.9119 7.22212 36.0965 7.70172ZM41.4927 10.9032L41.7384 10.9496L41.4927 10.9032C41.3495 11.6627 40.8857 12.1542 40.2905 12.4115C39.6874 12.6722 38.9456 12.692 38.2767 12.4813L38.2015 12.7197L38.2766 12.4813C37.6704 12.2903 36.931 11.8075 36.4573 11.1967C35.9863 10.5896 35.8123 9.91113 36.1936 9.26676C36.8522 8.15362 38.2949 7.84534 39.5569 8.21049C40.1808 8.39102 40.7316 8.73071 41.091 9.18849C41.4462 9.64081 41.6222 10.2169 41.4927 10.9032ZM44.1927 27.1365L44.1928 27.1365C45.8284 26.8045 47.2093 25.2295 47.0778 23.5053C47.0084 22.595 46.5562 21.7499 45.9357 21.1303C45.246 20.4415 44.2377 20.1418 43.2249 20.1238C42.2101 20.1058 41.1555 20.3691 40.3402 20.8487L40.4669 21.0642L40.3401 20.8487C39.4401 21.3782 39.0042 22.1971 38.9495 23.0608C38.8953 23.9161 39.2143 24.8037 39.7959 25.4998L39.9878 25.3395L39.7959 25.4998C40.8163 26.7208 42.5563 27.4684 44.1927 27.1365ZM45.7364 24.0502C45.5931 24.8097 45.1293 25.3012 44.5341 25.5585C43.931 25.8191 43.1893 25.839 42.5203 25.6283C41.914 25.4373 41.1747 24.9545 40.7009 24.3437C40.23 23.7366 40.056 23.0581 40.4372 22.4137C41.0958 21.3006 42.5385 20.9923 43.8005 21.3575C44.4244 21.538 44.9753 21.8777 45.3347 22.3355C45.6898 22.7878 45.8659 23.3639 45.7364 24.0502Z" fill="#8BC43F" stroke="#8BC43F" stroke-width="0.5"/>
</g>
<defs>
<clipPath id="clip0_57_595">
<rect width="64" height="64" fill="white"/>
</clipPath>
</defs>
</svg>
