<svg width="76" height="64" viewBox="0 0 76 64" fill="none" xmlns="http://www.w3.org/2000/svg">
<path d="M10.4377 40.9647C9.66059 41.5812 8.7591 43.5552 8.36534 44.5914C8.04321 45.5962 7.87892 46.6449 7.87833 47.7L8.0752 48.2647C8.0752 48.2647 8.5933 45.3219 9.2772 44.2546C9.96109 43.1874 10.8315 41.3792 11.417 41.1771C12.0024 40.9751 11.2149 40.3482 10.4377 40.9647Z" fill="#F16E20"/>
<path d="M10.1114 40.4674C10.5414 40.3223 9.97149 39.8664 9.41712 40.3067C8.86276 40.7471 8.21513 42.1719 7.93017 42.8972C7.6952 43.6147 7.57627 44.365 7.57787 45.1199L7.71775 45.524C7.71775 45.524 8.10115 43.4205 8.5778 42.6589C9.05445 41.8973 9.68135 40.6124 10.1114 40.4674Z" fill="#F16E20"/>
<path d="M8.93009 40.0166C9.23059 39.9182 8.83683 39.597 8.44826 39.9027C7.99201 40.4367 7.64048 41.0518 7.41206 41.716C7.25087 42.2184 7.16872 42.7427 7.16855 43.2703L7.25144 43.519C7.36879 42.8319 7.57065 42.1619 7.85244 41.5243C8.19957 41.0114 8.62959 40.1151 8.93009 40.0166Z" fill="#F16E20"/>
<path d="M37.6121 55.8498C37.094 56.8497 35.0216 58.0517 35.0216 58.0517C35.0216 58.0517 29.5039 61.3624 34.6693 58.9066C39.8348 56.4508 38.9178 52.3267 38.9178 52.3267C37.7624 50.8812 38.1147 54.8447 37.6121 55.8498Z" fill="#F16E20"/>
<path d="M37.3272 54.083C36.778 52.7567 36.1977 55.7876 35.6071 56.43L32.7472 58.0828C37.1251 57.3471 37.3272 54.083 37.3272 54.083Z" fill="#F16E20"/>
<path d="M70.3665 45.5913C69.8484 46.5912 67.776 47.7984 67.776 47.7984C67.776 47.7984 62.2634 51.1039 67.4288 48.6481C72.5943 46.1923 71.6876 42.0786 71.6876 42.0786C70.5167 40.6383 70.8638 44.5965 70.3665 45.5913Z" fill="#F16E20"/>
<path d="M70.0763 43.8402C69.5271 42.5087 68.9468 45.5396 68.3614 46.182L65.5015 47.8348C69.8794 47.0991 70.0763 43.8402 70.0763 43.8402Z" fill="#F16E20"/>
<path d="M13.2355 21.7587L13.4272 22.3234C13.4272 22.3234 13.9453 19.3806 14.6344 18.3133C15.3235 17.2461 16.1887 15.4379 16.7741 15.2358C17.3596 15.0338 16.5773 14.3758 15.8053 15.0234C15.0333 15.671 14.1215 17.6139 13.7329 18.6501C13.4014 19.6529 13.2335 20.7025 13.2355 21.7587Z" fill="#F16E20"/>
<path d="M12.9506 19.1682L13.0905 19.5723C13.0905 19.5723 13.4739 17.4688 13.9505 16.702C14.4272 15.9352 15.0489 14.6296 15.4789 14.5052C15.9089 14.3809 15.3442 13.8991 14.7847 14.3446C14.2251 14.7902 13.5878 16.2098 13.2977 16.9351C13.065 17.6565 12.9479 18.4102 12.9506 19.1682Z" fill="#F16E20"/>
<path d="M13.2304 15.5779C13.5619 15.0598 13.9971 14.1479 14.2976 14.0495C14.5981 13.951 14.1992 13.6298 13.8158 13.9355C13.3577 14.4663 13.006 15.0801 12.7796 15.7437C12.6167 16.2456 12.5345 16.7702 12.5361 17.298L12.6345 17.5777C12.749 16.8889 12.9491 16.217 13.2304 15.5779Z" fill="#F16E20"/>
<path d="M40.3684 32.0845C40.3684 32.0845 34.8558 35.3951 40.0213 32.9393C45.1868 30.4835 44.2801 26.3698 44.2801 26.3698C43.1299 24.914 43.477 28.8774 42.9796 29.8774C42.4823 30.8773 40.3684 32.0845 40.3684 32.0845Z" fill="#F16E20"/>
<path d="M42.6947 28.1158C42.1403 26.7843 41.5601 29.8152 40.9746 30.4576L38.1147 32.1207C42.4823 31.3799 42.6947 28.1158 42.6947 28.1158Z" fill="#F16E20"/>
<path d="M73.1694 33.8823C69.8276 29.2194 62.2064 17.4378 59.3983 16.1011C57.1549 15.0338 50.4766 16.443 45.2904 17.4585C41.7414 12.4018 34.7108 1.65642 32.0167 0.381894C29.2085 -0.954805 19.4475 1.58389 14.365 2.38694C9.28241 3.19 4.87337 6.39704 5.40702 16.1581C5.40702 16.1581 8.13741 22.6291 10.8523 28.0277C10.1891 28.1521 9.56218 28.2661 9.00263 28.3541C3.92007 29.1572 -0.494147 32.3642 0.0446777 42.1252C0.0446777 42.1252 6.86288 58.3055 9.67098 60.8442C12.4791 63.3829 21.437 62.585 21.437 62.585C21.437 62.585 33.2031 66.5951 38.6846 61.1136C41.8554 57.9428 43.0522 54.3213 42.8294 50.9278C46.0209 53.0623 54.1603 52.337 54.1603 52.337C54.1603 52.337 65.9263 56.3471 71.4078 50.8656C76.8893 45.3841 76.5163 38.5659 73.1694 33.8823ZM50.1761 17.873C54.3882 16.4689 55.2379 17.0233 58.7973 18.5776C62.3566 20.1319 67.4236 27.3024 68.9779 29.1054C70.5322 30.9084 68.4236 30.2089 68.4236 30.2089C68.4236 30.2089 65.6673 26.748 57.1963 27.349C52.6267 27.6754 49.6787 28.3179 47.6063 29.5509C48.1938 27.7639 48.3723 25.8676 48.1283 24.0023C47.8844 22.137 47.2244 20.3504 46.1971 18.7745C47.5467 18.5879 48.8778 18.2863 50.1761 17.873ZM44.7723 18.9713C45.2072 19.6055 45.5377 20.3051 45.7515 21.0437C47.7565 28.0744 45.3526 33.675 36.8298 35.4936C36.5138 35.5609 36.2081 35.6179 35.9076 35.6645C35.4672 35.7319 35.0424 35.7785 34.6382 35.8096H34.5087C34.1357 35.8096 33.773 35.8407 33.4259 35.8096C27.5765 35.706 25.5456 31.2503 24.3954 28.494C24.3332 28.3593 24.2814 28.2091 24.2296 28.0588C24.0137 27.3842 23.8645 26.6901 23.784 25.9864C23.3437 22.4633 24.1519 17.8678 26.8046 17.3549C30.167 16.7021 33.7212 16.6502 35.7729 20.4635C35.8351 20.5723 35.8869 20.6811 35.9387 20.7899C36.1278 21.1897 36.2687 21.6106 36.3583 22.0437C36.9179 24.8259 34.8507 26.8879 33.3793 27.1936C33.2599 27.218 33.1384 27.2301 33.0166 27.2299H32.9648C31.2861 27.1884 29.9598 25.1989 29.9598 22.567C29.9598 19.935 32.3638 21.5308 32.3638 21.5308C32.8145 21.08 31.913 19.3236 29.7059 20.2303C27.4988 21.137 28.0532 26.1418 30.509 28.0485C31.182 28.5203 31.9823 28.7768 32.8042 28.7842C32.9354 28.7842 33.0649 28.7842 33.1927 28.7842C35.9439 28.722 39.2286 26.8206 39.0835 23.4374C39.0399 22.412 38.8063 21.4036 38.3945 20.4635C38.2466 20.1062 38.0735 19.7599 37.8764 19.4273C36.2547 16.8368 33.1409 15.2306 29.0687 15.8886C23.1416 16.7901 22.1365 19.0128 21.4837 23.2612C21.3307 24.222 21.2769 25.196 21.3231 26.1677C21.3457 26.5532 21.3889 26.9371 21.4526 27.3179C21.8982 30.0017 23.2763 31.5249 24.0949 33.188C25.2451 35.5454 23.9395 35.7785 22.3852 35.4417C21.0951 35.1516 18.3233 33.1984 17.9606 27.95C17.9347 27.5459 17.9243 27.1211 17.9243 26.6755C17.9316 25.8858 17.9818 25.0972 18.0746 24.313C19.0279 16.2928 25.9963 14.1375 29.307 13.9872C31.9907 13.8629 39.8089 13.9872 43.7464 17.759C44.1295 18.1264 44.4733 18.5327 44.7723 18.9713ZM5.84222 13.381C5.39147 10.9252 8.14777 6.16389 11.1061 4.6614C14.0645 3.15891 18.5771 3.55785 22.7945 2.1538C27.0118 0.749745 27.8563 1.29893 31.4157 2.85323C34.975 4.40753 40.0368 11.578 41.5911 13.381C43.1454 15.184 41.0368 14.5053 41.0368 14.5053C41.0368 14.5053 38.2805 11.0496 29.8095 11.6506C21.3386 12.2516 18.4113 13.9561 16.37 18.4688C15.1836 21.0593 14.8675 24.5927 14.7639 27.2765C14.7432 27.8291 14.7276 28.3472 14.7173 28.8308C14.7355 29.6249 14.7009 30.4193 14.6137 31.2089C14.4375 31.8928 13.4842 30.1727 12.9609 29.1365C12.7537 28.7272 12.6086 28.4215 12.6086 28.4215L12.2978 27.7998C11.0232 25.1989 6.21525 15.5104 5.84222 13.381ZM9.25132 57.1502C9.00263 58.1035 7.24627 54.342 7.24627 54.342C7.24627 54.342 0.925448 41.8092 0.474701 39.3741C0.0239537 36.9391 2.78543 32.1207 5.74378 30.6286C7.29808 29.8307 9.32386 29.5924 11.4947 29.2867C12.8469 31.8772 14.1422 34.0688 15.0333 34.877C17.8414 37.4157 26.7994 36.6127 26.7994 36.6127C29.5064 37.467 32.3189 37.9412 35.1563 38.0219C35.4724 38.426 35.7522 38.7783 35.9801 39.0581C36.2081 39.5451 36.436 40.0373 36.6744 40.5347C36.3791 40.6901 35.6744 40.457 35.6744 40.457C35.6744 40.457 32.9181 36.996 24.442 37.597C15.9659 38.198 13.0594 39.8922 11.0077 44.4152C8.956 48.9383 9.50001 56.1968 9.25132 57.1502ZM31.4623 61.4607C22.9395 63.2793 20.3801 57.7045 19.0279 54.4457C17.6756 51.1868 18.0746 43.9645 21.437 43.3117C24.7995 42.6589 28.3537 42.6123 30.4105 46.4203C32.4674 50.2283 29.3743 53.1919 27.6542 53.1919C25.9342 53.1919 24.5923 51.1868 24.5923 48.529C24.5923 45.8711 27.0014 47.4928 27.0014 47.4928C27.4522 47.042 26.5507 45.2908 24.3436 46.1923C22.1365 47.0938 22.6857 52.109 25.1466 54.0105C27.6076 55.9119 33.9181 54.0623 33.7212 49.3994C33.5243 44.7365 29.6075 40.8559 23.6908 41.8092C17.7741 42.7625 16.7741 44.98 16.1213 49.218C15.2768 54.7254 17.572 56.7875 18.7118 59.1448C19.8517 61.5022 18.5616 61.7353 17.0073 61.4038C15.453 61.0722 11.7434 58.2952 12.6967 50.2698C13.65 42.2444 20.634 40.1046 23.9395 39.9544C26.5611 39.8352 34.0839 39.9544 38.0992 43.4723C38.9955 45.2649 39.8918 46.9539 40.6897 48.2699C42.0782 54.6995 39.4721 59.7562 31.4623 61.4607ZM42.0004 46.9021C42.0004 46.9332 42.0004 46.9436 41.9694 46.9643C41.5672 45.9605 41.0453 45.009 40.4151 44.1303C40.0058 43.5552 39.5291 42.8765 39.0058 42.1201C38.4566 41.0113 37.7365 39.5296 36.9904 37.9753C39.1795 37.8822 41.299 37.1788 43.1092 35.9443C41.8243 40.3741 42.2232 46.068 42.0004 46.9021ZM64.2114 51.2179C55.6887 53.0313 53.1344 47.4565 51.777 44.1976C50.4196 40.9388 50.8289 33.7165 54.1913 33.0637C57.5538 32.4109 61.1028 32.3642 63.1597 36.1723C65.2165 39.9803 62.1235 42.9438 60.4034 42.9438C58.6833 42.9438 57.3466 40.9388 57.3466 38.2809C57.3466 35.6231 59.7506 37.2447 59.7506 37.2447C60.2013 36.794 59.2998 35.0376 57.0927 35.9391C54.8856 36.8406 55.44 41.8558 57.8958 43.7624C60.3516 45.669 66.6724 43.8091 66.4703 39.1462C66.2683 34.4833 62.3566 30.6234 56.4399 31.5767C50.5232 32.53 49.5233 34.7371 48.8705 38.9804C48.026 44.493 50.3263 46.555 51.461 48.9072C52.5956 51.2593 51.3107 51.4977 49.7564 51.1661C48.2021 50.8345 44.4925 48.0575 45.4458 40.0373C46.3991 32.0171 53.3624 29.8566 56.6938 29.7064C60.0252 29.5561 71.1332 29.7582 73.1383 36.7784C75.1433 43.7987 72.7342 49.3994 64.2114 51.2179Z" fill="#F16E20"/>
</svg>
