<svg width="45" height="43" viewBox="0 0 45 43" fill="none" xmlns="http://www.w3.org/2000/svg">
<mask id="path-1-outside-1_586_2" maskUnits="userSpaceOnUse" x="-0.894043" y="-0.0241089" width="47" height="43" fill="black">
<rect fill="white" x="-0.894043" y="-0.0241089" width="47" height="43"/>
<path d="M44.2883 11.2558C44.2882 11.2553 44.2879 11.2548 44.2878 11.2542C44.2872 11.2466 44.2876 11.2393 44.2869 11.2318C44.0695 8.61482 42.6681 5.97379 40.6303 4.33894C36.7917 1.26057 31.4869 0.945218 27.8217 0.978001C19.4129 1.05051 12.6419 3.00133 7.69724 6.77579C2.82573 10.4943 -0.147084 16.4641 0.122916 21.9849C0.132935 22.1883 0.148492 22.3904 0.168355 22.5915L0.122916 31.9171C0.39731 37.5024 4.43474 42.3579 10.1148 42.0061C18.4899 41.4929 23.0836 32.9705 30.5902 30.6607C34.6877 29.4003 41.0368 29.8385 43.4171 25.4572C44.2822 23.8621 44.6219 22.0107 44.8145 20.2066C45.1023 17.507 44.5302 13.9092 44.2883 11.2558ZM8.25157 7.50239C13.0355 3.85044 19.6227 1.96282 27.8298 1.89206C31.3454 1.85682 36.448 2.15626 40.0582 5.05217C41.9073 6.53506 43.1788 8.93193 43.3761 11.3074C43.3769 11.317 43.3773 11.3274 43.3781 11.337C43.3781 11.3377 43.3778 11.3382 43.3778 11.3389L43.3788 11.3491C43.4795 12.6429 43.3071 14.4889 41.938 16.0218C39.2478 19.0343 34.4029 18.599 30.3215 19.8549C22.7637 22.1802 17.9012 30.6806 10.0586 31.1617C7.90827 31.2926 5.9142 30.6051 4.31143 29.1698C2.39858 27.4566 1.17391 24.754 1.03592 21.9403C0.780337 16.7109 3.61261 11.0437 8.25157 7.50239ZM34.3415 19.9334V28.9408C33.6272 29.0568 32.9006 29.1781 32.175 29.3264V20.3306C32.8911 20.1791 33.6199 20.052 34.3415 19.9334ZM34.7985 19.8574C35.5221 19.7383 36.249 19.6142 36.9645 19.4621V28.4587C36.2456 28.6187 35.5186 28.7474 34.7985 28.8655V19.8574ZM26.4757 22.6945V31.5525C25.7347 31.9983 25.0163 32.4852 24.3142 32.9965V24.2015C25.0191 23.6716 25.7374 23.1625 26.4757 22.6945ZM26.9327 22.4129C27.6342 21.9902 28.3548 21.6094 29.0991 21.2859V30.224C28.3516 30.5269 27.632 30.8868 26.9327 31.2852V22.4129ZM13.3685 31.4144V40.3788C12.6644 40.635 11.9439 40.8307 11.207 40.9558V31.9493C11.9456 31.8339 12.6657 31.6521 13.3685 31.4144ZM13.8255 31.2547C14.5662 30.9766 15.2874 30.6385 15.9919 30.2581V39.1449C15.2865 39.5481 14.5645 39.9045 13.8255 40.202V31.2547ZM16.449 30.0065C17.1879 29.5838 17.9071 29.1148 18.6104 28.6201V37.429C17.9065 37.9425 17.1863 38.4303 16.449 38.875V30.0065ZM8.12659 31.9747V40.9747C7.37129 40.8391 6.64087 40.59 5.96017 40.2357V31.3231C6.64989 31.6363 7.37854 31.8555 8.12659 31.9747ZM1.06502 26.1123C1.52328 27.1877 2.13579 28.1734 2.8847 29.0233V37.4476C1.80593 35.8656 1.13559 33.9068 1.03654 31.897L1.06502 26.1123ZM3.34173 38.0578V29.5098C3.45886 29.6264 3.57896 29.7401 3.70191 29.8506C4.26195 30.352 4.86664 30.765 5.50323 31.1006V39.984C4.55348 39.4056 3.94396 38.8054 3.34173 38.0578ZM10.0587 41.0939C9.55718 41.1244 9.06517 41.106 8.58362 41.0483V32.0366C9.10973 32.0923 9.56114 32.1082 10.1149 32.074C10.3285 32.0609 10.5396 32.0387 10.75 32.0142V41.0284C10.5212 41.0573 10.2908 41.0797 10.0587 41.0939ZM19.0674 37.0911V28.295C19.8724 27.7106 20.5071 27.2098 21.2338 26.6293V35.3916C20.4771 35.9985 19.8464 36.5066 19.0674 37.0911ZM21.6908 35.0252V26.264C22.4218 25.6773 23.1597 25.0848 23.8573 24.5486V33.3334C23.1218 33.8836 22.4025 34.4548 21.6908 35.0252ZM29.5561 30.0488V21.0955C29.8959 20.9608 30.2397 20.8362 30.5902 20.7283C30.9563 20.6158 31.3347 20.5196 31.718 20.4303V29.4264C30.7212 29.6494 30.1902 29.8147 29.5561 30.0488ZM37.4214 28.3529V19.3605C38.1659 19.1865 38.8923 18.9729 39.5833 18.6931V27.6336C38.8198 27.9792 38.1291 28.1781 37.4214 28.3529ZM40.0404 27.4117V18.4957C40.8277 18.1319 41.5603 17.668 42.2068 17.0549V25.6405C41.7238 26.2669 40.9895 26.9131 40.0404 27.4117ZM43.9059 20.1095C43.7304 21.7531 43.4312 23.4576 42.6638 24.9214V16.5758C43.1152 16.0585 43.4812 15.4726 43.748 14.8401C43.9342 16.6713 44.0702 18.5659 43.9059 20.1095Z"/>
</mask>
<path d="M44.2883 11.2558C44.2882 11.2553 44.2879 11.2548 44.2878 11.2542C44.2872 11.2466 44.2876 11.2393 44.2869 11.2318C44.0695 8.61482 42.6681 5.97379 40.6303 4.33894C36.7917 1.26057 31.4869 0.945218 27.8217 0.978001C19.4129 1.05051 12.6419 3.00133 7.69724 6.77579C2.82573 10.4943 -0.147084 16.4641 0.122916 21.9849C0.132935 22.1883 0.148492 22.3904 0.168355 22.5915L0.122916 31.9171C0.39731 37.5024 4.43474 42.3579 10.1148 42.0061C18.4899 41.4929 23.0836 32.9705 30.5902 30.6607C34.6877 29.4003 41.0368 29.8385 43.4171 25.4572C44.2822 23.8621 44.6219 22.0107 44.8145 20.2066C45.1023 17.507 44.5302 13.9092 44.2883 11.2558ZM8.25157 7.50239C13.0355 3.85044 19.6227 1.96282 27.8298 1.89206C31.3454 1.85682 36.448 2.15626 40.0582 5.05217C41.9073 6.53506 43.1788 8.93193 43.3761 11.3074C43.3769 11.317 43.3773 11.3274 43.3781 11.337C43.3781 11.3377 43.3778 11.3382 43.3778 11.3389L43.3788 11.3491C43.4795 12.6429 43.3071 14.4889 41.938 16.0218C39.2478 19.0343 34.4029 18.599 30.3215 19.8549C22.7637 22.1802 17.9012 30.6806 10.0586 31.1617C7.90827 31.2926 5.9142 30.6051 4.31143 29.1698C2.39858 27.4566 1.17391 24.754 1.03592 21.9403C0.780337 16.7109 3.61261 11.0437 8.25157 7.50239ZM34.3415 19.9334V28.9408C33.6272 29.0568 32.9006 29.1781 32.175 29.3264V20.3306C32.8911 20.1791 33.6199 20.052 34.3415 19.9334ZM34.7985 19.8574C35.5221 19.7383 36.249 19.6142 36.9645 19.4621V28.4587C36.2456 28.6187 35.5186 28.7474 34.7985 28.8655V19.8574ZM26.4757 22.6945V31.5525C25.7347 31.9983 25.0163 32.4852 24.3142 32.9965V24.2015C25.0191 23.6716 25.7374 23.1625 26.4757 22.6945ZM26.9327 22.4129C27.6342 21.9902 28.3548 21.6094 29.0991 21.2859V30.224C28.3516 30.5269 27.632 30.8868 26.9327 31.2852V22.4129ZM13.3685 31.4144V40.3788C12.6644 40.635 11.9439 40.8307 11.207 40.9558V31.9493C11.9456 31.8339 12.6657 31.6521 13.3685 31.4144ZM13.8255 31.2547C14.5662 30.9766 15.2874 30.6385 15.9919 30.2581V39.1449C15.2865 39.5481 14.5645 39.9045 13.8255 40.202V31.2547ZM16.449 30.0065C17.1879 29.5838 17.9071 29.1148 18.6104 28.6201V37.429C17.9065 37.9425 17.1863 38.4303 16.449 38.875V30.0065ZM8.12659 31.9747V40.9747C7.37129 40.8391 6.64087 40.59 5.96017 40.2357V31.3231C6.64989 31.6363 7.37854 31.8555 8.12659 31.9747ZM1.06502 26.1123C1.52328 27.1877 2.13579 28.1734 2.8847 29.0233V37.4476C1.80593 35.8656 1.13559 33.9068 1.03654 31.897L1.06502 26.1123ZM3.34173 38.0578V29.5098C3.45886 29.6264 3.57896 29.7401 3.70191 29.8506C4.26195 30.352 4.86664 30.765 5.50323 31.1006V39.984C4.55348 39.4056 3.94396 38.8054 3.34173 38.0578ZM10.0587 41.0939C9.55718 41.1244 9.06517 41.106 8.58362 41.0483V32.0366C9.10973 32.0923 9.56114 32.1082 10.1149 32.074C10.3285 32.0609 10.5396 32.0387 10.75 32.0142V41.0284C10.5212 41.0573 10.2908 41.0797 10.0587 41.0939ZM19.0674 37.0911V28.295C19.8724 27.7106 20.5071 27.2098 21.2338 26.6293V35.3916C20.4771 35.9985 19.8464 36.5066 19.0674 37.0911ZM21.6908 35.0252V26.264C22.4218 25.6773 23.1597 25.0848 23.8573 24.5486V33.3334C23.1218 33.8836 22.4025 34.4548 21.6908 35.0252ZM29.5561 30.0488V21.0955C29.8959 20.9608 30.2397 20.8362 30.5902 20.7283C30.9563 20.6158 31.3347 20.5196 31.718 20.4303V29.4264C30.7212 29.6494 30.1902 29.8147 29.5561 30.0488ZM37.4214 28.3529V19.3605C38.1659 19.1865 38.8923 18.9729 39.5833 18.6931V27.6336C38.8198 27.9792 38.1291 28.1781 37.4214 28.3529ZM40.0404 27.4117V18.4957C40.8277 18.1319 41.5603 17.668 42.2068 17.0549V25.6405C41.7238 26.2669 40.9895 26.9131 40.0404 27.4117ZM43.9059 20.1095C43.7304 21.7531 43.4312 23.4576 42.6638 24.9214V16.5758C43.1152 16.0585 43.4812 15.4726 43.748 14.8401C43.9342 16.6713 44.0702 18.5659 43.9059 20.1095Z" fill="black"/>
<path d="M44.2883 11.2558L44.5871 11.2286L44.5861 11.2175L44.5842 11.2065L44.2883 11.2558ZM44.2878 11.2542L43.9888 11.2785L43.9895 11.2876L43.9908 11.2966L44.2878 11.2542ZM44.2869 11.2318L43.9879 11.2566L43.9882 11.2595L44.2869 11.2318ZM40.6303 4.33894L40.818 4.10494L40.818 4.1049L40.6303 4.33894ZM27.8217 0.978001L27.8243 1.27799L27.8244 1.27799L27.8217 0.978001ZM7.69724 6.77579L7.87927 7.01426L7.87927 7.01426L7.69724 6.77579ZM0.122916 21.9849L-0.176726 21.9996L-0.176721 21.9997L0.122916 21.9849ZM0.168355 22.5915L0.468352 22.593L0.468427 22.5775L0.466903 22.5621L0.168355 22.5915ZM0.122916 31.9171L-0.177081 31.9156L-0.17712 31.9237L-0.176723 31.9318L0.122916 31.9171ZM10.1148 42.0061L10.0965 41.7067L10.0963 41.7067L10.1148 42.0061ZM30.5902 30.6607L30.502 30.3739L30.502 30.374L30.5902 30.6607ZM43.4171 25.4572L43.6807 25.6004L43.6809 25.6002L43.4171 25.4572ZM44.8145 20.2066L45.1128 20.2385L45.1128 20.2384L44.8145 20.2066ZM8.25157 7.50239L8.06953 7.26393L8.06953 7.26393L8.25157 7.50239ZM27.8298 1.89206L27.8324 2.19205L27.8328 2.19205L27.8298 1.89206ZM40.0582 5.05217L39.8705 5.28619L39.8705 5.28621L40.0582 5.05217ZM43.3761 11.3074L43.6751 11.2827L43.6751 11.2826L43.3761 11.3074ZM43.3781 11.337H43.6781V11.3246L43.6771 11.3123L43.3781 11.337ZM43.3778 11.3389H43.0778V11.3531L43.0792 11.3673L43.3778 11.3389ZM43.3788 11.3491L43.678 11.3258L43.6775 11.3207L43.3788 11.3491ZM41.938 16.0218L41.7143 15.822L41.7143 15.822L41.938 16.0218ZM30.3215 19.8549L30.4097 20.1416L30.4097 20.1416L30.3215 19.8549ZM10.0586 31.1617L10.0768 31.4611L10.077 31.4611L10.0586 31.1617ZM4.31143 29.1698L4.11128 29.3933L4.11129 29.3933L4.31143 29.1698ZM1.03592 21.9403L0.736281 21.9549L0.736283 21.955L1.03592 21.9403ZM34.3415 19.9334H34.6415V19.58L34.2928 19.6373L34.3415 19.9334ZM34.3415 28.9408L34.3895 29.237L34.6415 29.1961V28.9408H34.3415ZM32.175 29.3264H31.875V29.6939L32.2351 29.6203L32.175 29.3264ZM32.175 20.3306L32.1129 20.0371L31.875 20.0875V20.3306H32.175ZM34.7985 19.8574L34.7498 19.5614L34.4985 19.6028V19.8574H34.7985ZM36.9645 19.4621H37.2645V19.0916L36.9021 19.1687L36.9645 19.4621ZM36.9645 28.4587L37.0297 28.7515L37.2645 28.6992V28.4587H36.9645ZM34.7985 28.8655H34.4985V29.2187L34.8471 29.1616L34.7985 28.8655ZM26.4757 22.6945H26.7757V22.1492L26.3151 22.4412L26.4757 22.6945ZM26.4757 31.5525L26.6303 31.8096L26.7757 31.7221V31.5525H26.4757ZM24.3142 32.9965H24.0142V33.586L24.4908 33.239L24.3142 32.9965ZM24.3142 24.2015L24.1339 23.9617L24.0142 24.0517V24.2015H24.3142ZM26.9327 22.4129L26.7779 22.156L26.6327 22.2435V22.4129H26.9327ZM29.0991 21.2859H29.3991V20.8284L28.9796 21.0108L29.0991 21.2859ZM29.0991 30.224L29.2118 30.502L29.3991 30.4261V30.224H29.0991ZM26.9327 31.2852H26.6327V31.8013L27.0812 31.5458L26.9327 31.2852ZM13.3685 31.4144H13.6685V30.9962L13.2723 31.1302L13.3685 31.4144ZM13.3685 40.3788L13.471 40.6608L13.6685 40.5889V40.3788H13.3685ZM11.207 40.9558H10.907V41.3111L11.2572 41.2516L11.207 40.9558ZM11.207 31.9493L11.1607 31.6528L10.907 31.6925V31.9493H11.207ZM13.8255 31.2547L13.7201 30.9738L13.5255 31.0468V31.2547H13.8255ZM15.9919 30.2581H16.2919V29.7551L15.8494 29.9941L15.9919 30.2581ZM15.9919 39.1449L16.1408 39.4054L16.2919 39.319V39.1449H15.9919ZM13.8255 40.202H13.5255V40.6462L13.9375 40.4803L13.8255 40.202ZM16.4489 30.0065L16.3 29.7461L16.149 29.8325V30.0065H16.4489ZM18.6104 28.6201H18.9104V28.0424L18.4379 28.3747L18.6104 28.6201ZM18.6104 37.429L18.7873 37.6713L18.9104 37.5815V37.429H18.6104ZM16.4489 38.875H16.149V39.4063L16.6039 39.1319L16.4489 38.875ZM8.12659 31.9747H8.42659V31.7188L8.17382 31.6785L8.12659 31.9747ZM8.12659 40.9747L8.07358 41.27L8.42659 41.3334V40.9747H8.12659ZM5.96017 40.2357H5.66017V40.4177L5.82167 40.5018L5.96017 40.2357ZM5.96017 31.3231L6.08421 31.05L5.66017 30.8574V31.3231H5.96017ZM1.06502 26.1123L1.341 25.9947L0.765019 26.1109L1.06502 26.1123ZM2.8847 29.0233H3.1847V28.91L3.10979 28.8249L2.8847 29.0233ZM2.8847 37.4476L2.63684 37.6166L3.1847 38.4201V37.4476H2.8847ZM1.03654 31.897L0.736542 31.8955L0.736502 31.9036L0.736902 31.9117L1.03654 31.897ZM3.34173 38.0578H3.04173V38.1636L3.10811 38.246L3.34173 38.0578ZM3.34173 29.5098L3.55345 29.2972L3.04173 28.7875V29.5098H3.34173ZM3.70191 29.8506L3.50135 30.0737L3.5018 30.0741L3.70191 29.8506ZM5.50323 31.1006H5.80323V30.9196L5.64312 30.8352L5.50323 31.1006ZM5.50323 39.984L5.34718 40.2403L5.80323 40.518V39.984H5.50323ZM10.0587 41.0939L10.0769 41.3934L10.0771 41.3934L10.0587 41.0939ZM8.58362 41.0483H8.28362V41.3145L8.54795 41.3462L8.58362 41.0483ZM8.58362 32.0366L8.61522 31.7383L8.28362 31.7032V32.0366H8.58362ZM10.1149 32.074L10.0966 31.7745L10.0964 31.7745L10.1149 32.074ZM10.75 32.0142H11.05V31.6772L10.7153 31.7162L10.75 32.0142ZM10.75 41.0284L10.7876 41.326L11.05 41.2928V41.0284H10.75ZM19.0674 37.0911H18.7674V37.6913L19.2475 37.3311L19.0674 37.0911ZM19.0674 28.295L18.8911 28.0523L18.7674 28.1421V28.295H19.0674ZM21.2338 26.6293H21.5338V26.0057L21.0466 26.3949L21.2338 26.6293ZM21.2338 35.3916L21.4215 35.6256L21.5338 35.5355V35.3916H21.2338ZM21.6908 35.0252H21.3908V35.6502L21.8785 35.2593L21.6908 35.0252ZM21.6908 26.264L21.5031 26.03L21.3908 26.1201V26.264H21.6908ZM23.8573 24.5486H24.1573V23.9396L23.6744 24.3107L23.8573 24.5486ZM23.8573 33.3334L24.037 33.5737L24.1573 33.4837V33.3334H23.8573ZM29.5561 30.0488H29.2561V30.4793L29.66 30.3302L29.5561 30.0488ZM29.5561 21.0955L29.4456 20.8166L29.2561 20.8916V21.0955H29.5561ZM30.5902 20.7283L30.502 20.4416L30.502 20.4416L30.5902 20.7283ZM31.718 20.4303H32.018V20.0524L31.6499 20.1381L31.718 20.4303ZM31.718 29.4264L31.7835 29.7192L32.018 29.6667V29.4264H31.718ZM37.4214 28.3529H37.1214V28.7359L37.4933 28.6441L37.4214 28.3529ZM37.4214 19.3605L37.3531 19.0684L37.1214 19.1225V19.3605H37.4214ZM39.5833 18.6931H39.8833V18.2479L39.4707 18.415L39.5833 18.6931ZM39.5833 27.6336L39.707 27.907L39.8833 27.8272V27.6336H39.5833ZM40.0404 27.4117H39.7404V27.9082L40.1799 27.6773L40.0404 27.4117ZM40.0404 18.4957L39.9145 18.2234L39.7404 18.3039V18.4957H40.0404ZM42.2068 17.0549H42.5068V16.3569L42.0004 16.8372L42.2068 17.0549ZM42.2068 25.6405L42.4444 25.8236L42.5068 25.7427V25.6405H42.2068ZM43.9059 20.1095L44.2042 20.1414L44.2042 20.1413L43.9059 20.1095ZM42.6638 24.9214H42.3638L42.9295 25.0607L42.6638 24.9214ZM42.6638 16.5758L42.4378 16.3785L42.3638 16.4633V16.5758H42.6638ZM43.748 14.8401L44.0465 14.8098L43.4716 14.7235L43.748 14.8401ZM44.5842 11.2065C44.5822 11.1945 44.5797 11.1841 44.5775 11.1759C44.5752 11.1677 44.5729 11.1609 44.5712 11.156C44.5696 11.1512 44.5681 11.1474 44.5673 11.1456C44.5668 11.1442 44.566 11.1421 44.5665 11.1434C44.5666 11.1437 44.5675 11.146 44.5686 11.1489C44.5698 11.1519 44.5714 11.1564 44.5732 11.162C44.5768 11.1731 44.5817 11.1902 44.5848 11.2117L43.9908 11.2966C43.9939 11.3184 43.9989 11.3359 44.0025 11.3472C44.0044 11.353 44.0061 11.3576 44.0073 11.3608C44.0084 11.3638 44.0094 11.3662 44.0096 11.3667C44.0102 11.3681 44.0094 11.3662 44.0089 11.3649C44.0082 11.3632 44.0068 11.3596 44.0052 11.3549C44.0035 11.3502 44.0013 11.3435 43.9991 11.3354C43.9968 11.3273 43.9944 11.3171 43.9924 11.3052L44.5842 11.2065ZM44.5868 11.2298C44.5872 11.2346 44.5873 11.2381 44.5873 11.2395C44.5874 11.2405 44.5874 11.2413 44.5873 11.2386C44.5873 11.2368 44.5872 11.232 44.5871 11.2266C44.5868 11.2209 44.5865 11.2131 44.5856 11.204L43.9882 11.2595C43.9877 11.2542 43.9875 11.2502 43.9874 11.2482C43.9874 11.2465 43.9874 11.2454 43.9874 11.2474C43.9874 11.2484 43.9875 11.2529 43.9876 11.2576C43.9878 11.2627 43.9881 11.27 43.9888 11.2785L44.5868 11.2298ZM44.5859 11.2069C44.3617 8.50839 42.9204 5.79157 40.818 4.10494L40.4426 4.57294C42.4159 6.15601 43.7774 8.72125 43.9879 11.2566L44.5859 11.2069ZM40.818 4.1049C36.8896 0.954571 31.4864 0.645211 27.8191 0.678013L27.8244 1.27799C31.4874 1.24523 36.6937 1.56657 40.4426 4.57298L40.818 4.1049ZM27.8191 0.678013C19.368 0.750887 12.5269 2.71171 7.51521 6.53733L7.87927 7.01426C12.7569 3.29096 19.4578 1.35013 27.8243 1.27799L27.8191 0.678013ZM7.51522 6.53733C2.57522 10.3081 -0.45213 16.3682 -0.176726 21.9996L0.422558 21.9703C0.157961 16.5599 3.07624 10.6805 7.87927 7.01426L7.51522 6.53733ZM-0.176721 21.9997C-0.166431 22.2085 -0.150481 22.4155 -0.130193 22.621L0.466903 22.5621C0.447464 22.3652 0.432302 22.1681 0.422552 21.9702L-0.176721 21.9997ZM-0.131641 22.5901L-0.177081 31.9156L0.422912 31.9185L0.468352 22.593L-0.131641 22.5901ZM-0.176723 31.9318C0.103342 37.6326 4.23915 42.6706 10.1334 42.3056L10.0963 41.7067C4.63034 42.0452 0.691278 37.3723 0.422554 31.9024L-0.176723 31.9318ZM10.1332 42.3056C14.4221 42.0428 17.7289 39.7273 20.8645 37.2423C24.0226 34.7394 26.9932 32.0814 30.6784 30.9474L30.502 30.374C26.6805 31.5499 23.601 34.308 20.4918 36.772C17.3602 39.2539 14.1827 41.4563 10.0965 41.7067L10.1332 42.3056ZM30.6784 30.9474C31.6813 30.6389 32.8278 30.4328 34.0384 30.2278C35.2421 30.024 36.5077 29.8217 37.7199 29.5204C40.1414 28.9187 42.429 27.9045 43.6807 25.6004L43.1535 25.314C42.025 27.3912 39.9478 28.3485 37.5752 28.9381C36.3904 29.2326 35.1517 29.4308 33.9382 29.6363C32.7315 29.8405 31.5478 30.0523 30.502 30.3739L30.6784 30.9474ZM43.6809 25.6002C44.5747 23.952 44.9191 22.0525 45.1128 20.2385L44.5162 20.1748C44.3246 21.9688 43.9896 23.7722 43.1534 25.3142L43.6809 25.6002ZM45.1128 20.2384C45.2599 18.8587 45.1866 17.2608 45.0489 15.6877C44.9799 14.8996 44.8944 14.1137 44.8112 13.3612C44.7279 12.6073 44.6472 11.8884 44.5871 11.2286L43.9895 11.2831C44.0503 11.95 44.1318 12.6757 44.2148 13.4271C44.298 14.1797 44.3829 14.9595 44.4512 15.74C44.5881 17.3041 44.6569 18.8549 44.5162 20.1748L45.1128 20.2384ZM8.4336 7.74085C13.1501 4.14038 19.6669 2.26245 27.8324 2.19205L27.8272 1.59208C19.5785 1.66319 12.9209 3.56051 8.06953 7.26393L8.4336 7.74085ZM27.8328 2.19205C31.3476 2.15681 36.3507 2.46279 39.8705 5.28619L40.2459 4.81816C36.5453 1.84973 31.3431 1.55683 27.8268 1.59208L27.8328 2.19205ZM39.8705 5.28621C41.6549 6.71727 42.8866 9.0383 43.0771 11.3323L43.6751 11.2826C43.471 8.82555 42.1596 6.35285 40.2459 4.81814L39.8705 5.28621ZM43.0771 11.3321C43.0772 11.3333 43.0773 11.3351 43.0777 11.3407C43.0779 11.3451 43.0784 11.3532 43.0791 11.3617L43.6771 11.3123C43.677 11.3111 43.6769 11.3093 43.6765 11.3037C43.6763 11.2993 43.6758 11.2912 43.6751 11.2827L43.0771 11.3321ZM43.0781 11.337C43.0781 11.318 43.0799 11.3022 43.0817 11.2912C43.0825 11.2858 43.0833 11.2814 43.0839 11.2787C43.0844 11.2763 43.0848 11.2742 43.0847 11.2747C43.0847 11.2747 43.0847 11.2747 43.0847 11.2748C43.0847 11.2748 43.0847 11.2749 43.0847 11.275C43.0846 11.2752 43.0846 11.2755 43.0845 11.2759C43.0843 11.2766 43.0841 11.2778 43.0838 11.2792C43.0832 11.282 43.0824 11.2865 43.0815 11.2921C43.0797 11.3035 43.0778 11.3196 43.0778 11.3389H43.6778C43.6778 11.3579 43.676 11.3736 43.6743 11.3847C43.6735 11.3901 43.6726 11.3944 43.6721 11.3971C43.6716 11.3996 43.6711 11.4016 43.6712 11.4012C43.6712 11.4012 43.6712 11.4012 43.6713 11.4011C43.6713 11.4011 43.6713 11.401 43.6713 11.4009C43.6713 11.4007 43.6714 11.4004 43.6715 11.4C43.6716 11.3993 43.6719 11.3981 43.6722 11.3967C43.6727 11.3938 43.6736 11.3893 43.6745 11.3838C43.6763 11.3724 43.6781 11.3563 43.6781 11.337H43.0781ZM43.0792 11.3673L43.0802 11.3775L43.6775 11.3207L43.6765 11.3105L43.0792 11.3673ZM43.0797 11.3724C43.1772 12.6242 43.0072 14.3743 41.7143 15.822L42.1618 16.2216C43.607 14.6035 43.7819 12.6617 43.6779 11.3258L43.0797 11.3724ZM41.7143 15.822C40.4359 17.2534 38.6332 17.8817 36.5908 18.3033C35.5686 18.5143 34.5094 18.6695 33.4296 18.8541C32.3563 19.0375 31.2727 19.2483 30.2333 19.5682L30.4097 20.1416C31.411 19.8335 32.4635 19.6278 33.5306 19.4455C34.5912 19.2643 35.6767 19.1046 36.7121 18.8909C38.785 18.463 40.7499 17.8026 42.1618 16.2216L41.7143 15.822ZM30.2333 19.5682C26.3874 20.7514 23.23 23.5056 20.1111 25.9643C16.9675 28.4425 13.8579 30.6281 10.0402 30.8622L10.077 31.4611C14.1018 31.2142 17.3448 28.9091 20.4826 26.4355C23.645 23.9424 26.6979 21.2837 30.4097 20.1416L30.2333 19.5682ZM10.0404 30.8622C7.96938 30.9883 6.05412 30.3277 4.51157 28.9463L4.11129 29.3933C5.77429 30.8826 7.84716 31.5969 10.0768 31.4611L10.0404 30.8622ZM4.51158 28.9463C2.66455 27.2921 1.47004 24.6678 1.33556 21.9256L0.736283 21.955C0.877781 24.8402 2.13261 27.6212 4.11128 29.3933L4.51158 28.9463ZM1.33557 21.9256C1.08541 16.8073 3.86259 11.2303 8.4336 7.74085L8.06953 7.26393C3.36264 10.8571 0.475266 16.6144 0.736281 21.9549L1.33557 21.9256ZM34.0415 19.9334V28.9408H34.6415V19.9334H34.0415ZM34.2934 28.6447C33.5788 28.7607 32.847 28.8829 32.115 29.0325L32.2351 29.6203C32.9542 29.4734 33.6756 29.3528 34.3895 29.237L34.2934 28.6447ZM32.475 29.3264V20.3306H31.875V29.3264H32.475ZM32.2372 20.6241C32.9465 20.474 33.6701 20.3478 34.3901 20.2294L34.2928 19.6373C33.5697 19.7563 32.8356 19.8842 32.1129 20.0371L32.2372 20.6241ZM34.8472 20.1535C35.5713 20.0343 36.3041 19.9092 37.0269 19.7555L36.9021 19.1687C36.1939 19.3193 35.4729 19.4424 34.7498 19.5614L34.8472 20.1535ZM36.6645 19.4621V28.4587H37.2645V19.4621H36.6645ZM36.8993 28.1658C36.1886 28.3241 35.4679 28.4517 34.7499 28.5695L34.8471 29.1616C35.5692 29.0431 36.3027 28.9134 37.0297 28.7515L36.8993 28.1658ZM35.0985 28.8655V19.8574H34.4985V28.8655H35.0985ZM26.1757 22.6945V31.5525H26.7757V22.6945H26.1757ZM26.321 31.2954C25.5709 31.7468 24.845 32.2388 24.1376 32.754L24.4908 33.239C25.1875 32.7316 25.8985 32.2498 26.6303 31.8096L26.321 31.2954ZM24.6142 32.9965V24.2015H24.0142V32.9965H24.6142ZM24.4945 24.4413C25.195 23.9147 25.9066 23.4104 26.6363 22.9479L26.3151 22.4412C25.5682 22.9145 24.8431 23.4286 24.1339 23.9617L24.4945 24.4413ZM27.0876 22.6699C27.7795 22.2529 28.4883 21.8785 29.2187 21.5611L28.9796 21.0108C28.2213 21.3404 27.4888 21.7275 26.7779 22.156L27.0876 22.6699ZM28.7991 21.2859V30.224H29.3991V21.2859H28.7991ZM28.9865 29.9459C28.2245 30.2548 27.4928 30.6209 26.7842 31.0245L27.0812 31.5458C27.7712 31.1528 28.4788 30.7991 29.2118 30.502L28.9865 29.9459ZM27.2327 31.2852V22.4129H26.6327V31.2852H27.2327ZM13.0685 31.4144V40.3788H13.6685V31.4144H13.0685ZM13.2659 40.0969C12.5775 40.3473 11.8746 40.5382 11.1567 40.6601L11.2572 41.2516C12.0133 41.1232 12.7513 40.9226 13.471 40.6608L13.2659 40.0969ZM11.507 40.9558V31.9493H10.907V40.9558H11.507ZM11.2533 32.2457C12.0101 32.1275 12.7469 31.9413 13.4646 31.6985L13.2723 31.1302C12.5845 31.3628 11.8811 31.5404 11.1607 31.6528L11.2533 32.2457ZM13.9309 31.5355C14.6865 31.2519 15.4201 30.9078 16.1345 30.522L15.8494 29.9941C15.1547 30.3693 14.446 30.7013 13.7201 30.9738L13.9309 31.5355ZM15.6919 30.2581V39.1449H16.2919V30.2581H15.6919ZM15.8431 38.8845C15.148 39.2817 14.4383 39.6319 13.7135 39.9237L13.9375 40.4803C14.6907 40.1771 15.425 39.8145 16.1408 39.4054L15.8431 38.8845ZM14.1255 40.202V31.2547H13.5255V40.202H14.1255ZM16.5979 30.2669C17.3469 29.8384 18.0741 29.3641 18.783 28.8655L18.4379 28.3747C17.74 28.8655 17.0289 29.3291 16.3 29.7461L16.5979 30.2669ZM18.3104 28.6201V37.429H18.9104V28.6201H18.3104ZM18.4336 37.1866C17.7352 37.6961 17.0223 38.1788 16.294 38.6181L16.6039 39.1319C17.3502 38.6818 18.0778 38.1889 18.7873 37.6713L18.4336 37.1866ZM16.749 38.875V30.0065H16.149V38.875H16.749ZM7.82659 31.9747V40.9747H8.42659V31.9747H7.82659ZM8.1796 40.6795C7.4541 40.5492 6.75251 40.3099 6.09868 39.9696L5.82167 40.5018C6.52923 40.8701 7.28847 41.1291 8.07358 41.27L8.1796 40.6795ZM6.26017 40.2357V31.3231H5.66017V40.2357H6.26017ZM5.83613 31.5963C6.55031 31.9206 7.30479 32.1475 8.07935 32.271L8.17382 31.6785C7.45229 31.5634 6.74948 31.3521 6.08421 31.05L5.83613 31.5963ZM0.789031 26.23C1.25911 27.333 1.88833 28.3463 2.65962 29.2216L3.10979 28.8249C2.38324 28.0004 1.78745 27.0424 1.341 25.9947L0.789031 26.23ZM2.5847 29.0233V37.4476H3.1847V29.0233H2.5847ZM3.13256 37.2786C2.08499 35.7423 1.43251 33.8369 1.33617 31.8822L0.736902 31.9117C0.83867 33.9766 1.52687 35.9888 2.63684 37.6166L3.13256 37.2786ZM1.33653 31.8984L1.36501 26.1138L0.765019 26.1109L0.736542 31.8955L1.33653 31.8984ZM3.64173 38.0578V29.5098H3.04173V38.0578H3.64173ZM3.13002 29.7223C3.25078 29.8426 3.3746 29.9598 3.50135 30.0737L3.90247 29.6275C3.78333 29.5204 3.66695 29.4103 3.55345 29.2972L3.13002 29.7223ZM3.5018 30.0741C4.08098 30.5927 4.70608 31.0195 5.36334 31.366L5.64312 30.8352C5.0272 30.5105 4.44292 30.1114 3.90202 29.6271L3.5018 30.0741ZM5.20323 31.1006V39.984H5.80323V31.1006H5.20323ZM5.65927 39.7278C4.74548 39.1713 4.16107 38.5967 3.57536 37.8696L3.10811 38.246C3.72685 39.0141 4.36149 39.64 5.34718 40.2403L5.65927 39.7278ZM10.0405 40.7945C9.55826 40.8238 9.08432 40.8061 8.61928 40.7504L8.54795 41.3462C9.04602 41.4058 9.55611 41.425 10.0769 41.3934L10.0405 40.7945ZM8.88362 41.0483V32.0366H8.28362V41.0483H8.88362ZM8.55202 32.3349C9.09273 32.3922 9.56101 32.4088 10.1335 32.3734L10.0964 31.7745C9.56126 31.8077 9.12674 31.7925 8.61522 31.7383L8.55202 32.3349ZM10.1333 32.3734C10.355 32.3598 10.5725 32.3369 10.7848 32.3122L10.7153 31.7162C10.5068 31.7405 10.302 31.7619 10.0966 31.7745L10.1333 32.3734ZM10.45 32.0142V41.0284H11.05V32.0142H10.45ZM10.7124 40.7307C10.4893 40.7589 10.2654 40.7807 10.0403 40.7945L10.0771 41.3934C10.3163 41.3787 10.5531 41.3556 10.7876 41.326L10.7124 40.7307ZM19.3674 37.0911V28.295H18.7674V37.0911H19.3674ZM19.2436 28.5378C20.0543 27.9492 20.6934 27.445 21.421 26.8637L21.0466 26.3949C20.3208 26.9747 19.6904 27.4719 18.8911 28.0523L19.2436 28.5378ZM20.9338 26.6293V35.3916H21.5338V26.6293H20.9338ZM21.0461 35.1576C20.2886 35.7651 19.6618 36.27 18.8873 36.8512L19.2475 37.3311C20.031 36.7431 20.6655 36.232 21.4215 35.6256L21.0461 35.1576ZM21.9908 35.0252V26.264H21.3908V35.0252H21.9908ZM21.8786 26.4979C22.6102 25.9108 23.3455 25.3204 24.0401 24.7864L23.6744 24.3107C22.9739 24.8492 22.2335 25.4438 21.5031 26.03L21.8786 26.4979ZM23.5573 24.5486V33.3334H24.1573V24.5486H23.5573ZM23.6775 33.0932C22.9378 33.6466 22.2152 34.2205 21.5032 34.7912L21.8785 35.2593C22.5897 34.6892 23.3058 34.1207 24.037 33.5737L23.6775 33.0932ZM29.8561 30.0488V21.0955H29.2561V30.0488H29.8561ZM29.6666 21.3744C30.001 21.2419 30.3372 21.1201 30.6784 21.0151L30.502 20.4416C30.1422 20.5523 29.7907 20.6798 29.4456 20.8166L29.6666 21.3744ZM30.6784 21.0151C31.0352 20.9053 31.4062 20.811 31.7861 20.7225L31.6499 20.1381C31.2632 20.2282 30.8773 20.3262 30.502 20.4416L30.6784 21.0151ZM31.418 20.4303V29.4264H32.018V20.4303H31.418ZM31.6525 29.1337C30.6435 29.3594 30.0997 29.5284 29.4522 29.7674L29.66 30.3302C30.2807 30.1011 30.7988 29.9395 31.7835 29.7192L31.6525 29.1337ZM37.7214 28.3529V19.3605H37.1214V28.3529H37.7214ZM37.4897 19.6526C38.2447 19.4762 38.9867 19.2584 39.696 18.9711L39.4707 18.415C38.798 18.6875 38.0872 18.8968 37.3531 19.0684L37.4897 19.6526ZM39.2833 18.6931V27.6336H39.8833V18.6931H39.2833ZM39.4596 27.3603C38.7199 27.6951 38.0491 27.8889 37.3495 28.0616L37.4933 28.6441C38.2091 28.4674 38.9196 28.2633 39.707 27.907L39.4596 27.3603ZM40.3404 27.4117V18.4957H39.7404V27.4117H40.3404ZM40.1662 18.7681C40.9776 18.3931 41.7389 17.912 42.4132 17.2725L42.0004 16.8372C41.3816 17.4239 40.6778 17.8707 39.9145 18.2234L40.1662 18.7681ZM41.9068 17.0549V25.6405H42.5068V17.0549H41.9068ZM41.9692 25.4573C41.5136 26.0482 40.8132 26.6668 39.9009 27.1461L40.1799 27.6773C41.1658 27.1594 41.934 26.4855 42.4444 25.8236L41.9692 25.4573ZM43.6076 20.0777C43.4329 21.713 43.1381 23.3706 42.3981 24.7821L42.9295 25.0607C43.7243 23.5447 44.0278 21.7931 44.2042 20.1414L43.6076 20.0777ZM42.9638 24.9214V16.5758H42.3638V24.9214H42.9638ZM42.8899 16.773C43.3622 16.2317 43.7452 15.6186 44.0244 14.9567L43.4716 14.7235C43.2172 15.3266 42.8682 15.8853 42.4378 16.3785L42.8899 16.773ZM43.4496 14.8705C43.6358 16.702 43.7683 18.5685 43.6076 20.0777L44.2042 20.1413C44.3722 18.5633 44.2326 16.6407 44.0465 14.8098L43.4496 14.8705Z" fill="black" mask="url(#path-1-outside-1_586_2)"/>
<path d="M11.4145 24.8268L11.4151 24.8268C14.2813 24.782 16.1413 23.207 16.56 21.3253C16.9063 19.7732 16.2557 18.2134 15.1003 17.0797C13.9442 15.9453 12.2671 15.22 10.5226 15.3417L10.5226 15.3417C8.874 15.4569 7.50469 16.3136 6.67424 17.7492L6.65408 17.7841V17.7847C5.82841 19.2407 5.83745 21.0069 6.64055 22.4081C7.45302 23.8256 9.06842 24.8541 11.4145 24.8268ZM7.72484 21.8279C7.1118 20.7864 7.09549 19.4663 7.71043 18.3824L7.72483 18.3575C8.34945 17.2785 9.37061 16.6393 10.6073 16.5528C11.9844 16.4588 13.3043 17.0325 14.2173 17.9139C15.1321 18.7971 15.6189 19.968 15.3756 21.0612C15.086 22.3586 13.7368 23.5761 11.3961 23.6128L11.3953 23.6128C9.56492 23.6521 8.33968 22.8725 7.72484 21.8279ZM10.5329 15.4901L10.533 15.4913L10.5329 15.4901Z" fill="black" stroke="black" stroke-width="0.3"/>
<path d="M9.35528 20.8675L9.3553 20.8675C9.68989 21.4535 10.3644 21.8423 11.0393 21.8423C11.1604 21.8423 11.2708 21.8703 11.3535 21.9404C11.4392 22.0129 11.4739 22.1123 11.4766 22.2094C11.4766 22.2094 11.4766 22.2094 11.4766 22.2095L11.3267 22.2137L9.35528 20.8675ZM9.35528 20.8675C9.01228 20.2672 9.02888 19.466 9.39631 18.8804L9.35528 20.8675ZM12.5286 22.3378C12.4923 22.1326 12.2943 21.9935 12.089 22.0317C12.0886 22.0318 12.0883 22.0319 12.088 22.0319L11.9033 22.0649L11.9033 22.0648L11.8988 22.0657C11.8027 22.086 11.7182 22.1428 11.6632 22.2242C11.6081 22.3056 11.5869 22.4052 11.604 22.502C11.6211 22.5987 11.6752 22.685 11.7547 22.7427C11.8343 22.8003 11.9332 22.8248 12.0304 22.8108L12.0304 22.8109L12.0354 22.81L12.2224 22.7768L12.2225 22.7768C12.2714 22.7681 12.3182 22.7498 12.3601 22.723C12.4019 22.6962 12.4381 22.6614 12.4666 22.6206C12.495 22.5799 12.5151 22.5339 12.5257 22.4853C12.5364 22.4368 12.5373 22.3867 12.5286 22.3378ZM12.5286 22.3378C12.5286 22.3379 12.5286 22.3379 12.5287 22.338L12.3809 22.364L12.5286 22.3376C12.5286 22.3377 12.5286 22.3377 12.5286 22.3378ZM19.9246 6.17726L19.9234 6.17782C19.7372 6.26435 19.5102 6.18849 19.4203 5.99791C19.399 5.9531 19.3867 5.90452 19.3841 5.85496C19.3815 5.80531 19.3887 5.75564 19.4053 5.70878C19.4219 5.66192 19.4476 5.6188 19.4809 5.58187C19.5142 5.54494 19.5544 5.51493 19.5993 5.49355L19.5994 5.49349C24.4966 3.16623 30.3385 3.17517 35.2285 5.51982C37.2332 6.48032 38.6166 7.63559 39.4375 9.05771C40.4727 10.85 40.4233 13.0963 39.2847 14.5226C39.2847 14.5226 39.2847 14.5227 39.2847 14.5227L39.1674 14.4291C39.1488 14.4526 39.1256 14.4721 39.0994 14.4866C39.0731 14.5011 39.0443 14.5103 39.0145 14.5136C38.9847 14.5169 38.9545 14.5144 38.9257 14.506C38.8969 14.4977 38.87 14.4838 38.8466 14.4651L19.9246 6.17726ZM19.9246 6.17726C24.6163 3.94663 30.2159 3.95612 34.9015 6.20228L34.9664 6.06702L34.9015 6.20228C36.786 7.10559 38.0485 8.16554 38.7823 9.43626L38.7823 9.43627C39.6767 10.9847 39.6252 12.8827 38.6933 14.0503L19.9246 6.17726ZM38.8586 15.366L38.8584 15.3662L38.7042 15.5204L38.704 15.5206L38.5979 15.4145L38.8586 15.366ZM38.8586 15.366C38.9295 15.2948 38.9692 15.1984 38.969 15.098M38.8586 15.366L38.969 15.098M38.969 15.098C38.9688 14.9976 38.9287 14.9014 38.8575 14.8305M38.969 15.098L38.8575 14.8305M38.8575 14.8305C38.7864 14.7597 38.69 14.72 38.5896 14.7202M38.8575 14.8305L38.5896 14.7202M38.5896 14.7202C38.4893 14.7204 38.3931 14.7604 38.3223 14.8314L38.5896 14.7202ZM38.1679 14.9858L38.1677 14.986L38.3221 14.8316L38.1679 14.9858Z" fill="black" stroke="black" stroke-width="0.3"/>
<path d="M11.3077 27.911L11.3077 27.9111C11.3233 27.9583 11.3295 28.0082 11.3259 28.0578C11.3222 28.1075 11.3088 28.1559 11.2864 28.2003C11.264 28.2448 11.2331 28.2843 11.1953 28.3168C11.1577 28.3492 11.1141 28.3738 11.0669 28.3893L11.3077 27.911ZM11.3077 27.911C11.2423 27.7142 11.028 27.6033 10.8287 27.671L10.877 27.813L10.8301 27.6706C8.9863 28.278 6.6518 27.484 5.29004 25.7597C4.09072 24.2404 3.54675 22.0307 3.81462 19.6919L3.81465 19.6916M11.3077 27.911L3.81465 19.6916M3.81465 19.6916C3.8259 19.5919 3.79713 19.4918 3.73464 19.4133M3.81465 19.6916L3.73464 19.4133M3.73464 19.4133C3.67219 19.3349 3.58118 19.2844 3.48157 19.2729M3.73464 19.4133L3.48157 19.2729M3.48157 19.2729C3.43214 19.2672 3.38207 19.2713 3.33423 19.285M3.48157 19.2729L3.33423 19.285M3.33423 19.285C3.28639 19.2986 3.24171 19.3216 3.20276 19.3526M3.33423 19.285L3.20276 19.3526M3.20276 19.3526C3.16381 19.3835 3.13134 19.4219 3.10723 19.4654M3.20276 19.3526L3.10723 19.4654M3.10723 19.4654C3.08315 19.5088 3.06787 19.5566 3.06226 19.606L3.10723 19.4654ZM34.8967 7.61366C30.8488 5.40948 25.8607 5.06868 21.5513 6.70323L21.5513 6.70324C21.4575 6.73885 21.3817 6.81025 21.3405 6.90175C21.2993 6.99324 21.2962 7.09735 21.3317 7.19117L21.3319 7.1916C21.4058 7.38477 21.6223 7.48757 21.8213 7.41039L21.767 7.27054C25.9124 5.69888 30.7119 6.02645 34.6064 8.14664C35.5839 8.6789 36.222 9.17961 36.6756 9.77033L34.8967 7.61366ZM3.23844 19.5381C3.22389 19.5643 3.21466 19.5932 3.21129 19.623L5.17231 25.8526C3.94359 24.2961 3.39419 22.0445 3.6656 19.6748C3.67239 19.6146 3.65501 19.5541 3.61728 19.5067C3.57954 19.4593 3.52453 19.4288 3.46433 19.4219C3.4345 19.4185 3.40429 19.421 3.37542 19.4292C3.34655 19.4375 3.31959 19.4513 3.29608 19.47C3.27258 19.4887 3.25299 19.5118 3.23844 19.5381Z" fill="black" stroke="black" stroke-width="0.3"/>
</svg>
