<svg width="64" height="64" viewBox="0 0 64 64" fill="none" xmlns="http://www.w3.org/2000/svg">
<g clip-path="url(#clip0_295_2065)">
<path d="M14.395 61.314C20.4013 60.946 25.0447 57.7051 29.5024 54.1722C30.0711 53.7215 30.6367 53.2662 31.2016 52.8114C35.0761 49.6921 38.9215 46.5963 43.5505 45.1719C44.9966 44.7271 46.6443 44.4313 48.3642 44.1402C48.5335 44.1115 48.7035 44.0829 48.874 44.0542C50.4326 43.7918 52.0371 43.5217 53.5797 43.1384C57.001 42.2882 60.1574 40.8719 61.8809 37.6997L61.881 37.6996C63.1256 35.4044 63.6111 32.7472 63.8856 30.1765L63.8857 30.1765C64.0919 28.2418 63.9897 25.9909 63.7942 23.7578C63.6964 22.6405 63.5751 21.5256 63.4568 20.4552C63.4468 20.3648 63.4369 20.2748 63.4269 20.185C63.3193 19.2117 63.2161 18.2791 63.1375 17.4169L63.1379 17.4169L14.3859 61.1643M14.395 61.314L14.3859 61.1643M14.395 61.314C14.3951 61.314 14.3951 61.314 14.3951 61.314L14.3859 61.1643M14.395 61.314C6.20965 61.8208 0.418384 54.8241 0.0253006 46.8228L0.024903 46.8147H0.0251217L0.089709 33.5594M14.3859 61.1643C6.3075 61.6646 0.56537 54.7591 0.17512 46.8154L0.239745 33.5524M0.089709 33.5594C0.0899624 33.562 0.0902163 33.5646 0.0904707 33.5672L0.239745 33.5524M0.089709 33.5594C0.0616103 33.2737 0.039558 32.9864 0.0253016 32.6971L0.0252989 32.697C-0.361403 24.7899 3.89386 16.2543 10.8565 10.9397C17.9224 5.54599 27.5873 2.7665 39.5677 2.66319C44.7814 2.61655 52.3752 3.06206 57.8795 7.47616L57.8795 7.47618C60.81 9.8272 62.8231 13.6212 63.1356 17.3839L10.9475 11.0589C4.01912 16.3474 -0.20888 24.8378 0.17512 32.6897C0.18937 32.9789 0.211495 33.2663 0.239745 33.5524M0.089709 33.5594L0.0897467 33.5517L0.239745 33.5524M62.9874 17.4282L63.0162 17.4258L63.1369 17.416C63.1369 17.4166 63.1369 17.4165 63.1368 17.41L63.1361 17.4057C63.1345 17.3967 63.1325 17.3893 63.1308 17.3843L62.9874 17.4282ZM62.9874 17.4282L63.0909 17.4133L63.1358 17.4068C63.1358 17.4065 63.1357 17.4061 63.1357 17.4058C63.1343 17.3968 63.1324 17.3895 63.1308 17.3843L62.9874 17.4282ZM39.582 4.26317L39.5818 4.26318C27.9302 4.36362 18.597 7.0434 11.8269 12.2115C5.26324 17.2221 1.26266 25.237 1.62344 32.6188L39.582 4.26317ZM39.582 4.26317C44.5815 4.21305 51.7888 4.6422 56.8781 8.72457L56.972 8.60756M39.582 4.26317L56.972 8.60756M56.972 8.60756L56.8782 8.72457C59.4756 10.8077 61.264 14.1786 61.5413 17.5163L61.5425 17.5342C61.5427 17.5378 61.543 17.5421 61.5433 17.5465C61.5432 17.5472 61.5432 17.548 61.5432 17.5487V17.5558M56.972 8.60756L61.5432 17.5558M61.5432 17.5558L61.5439 17.5629M61.5432 17.5558L61.5439 17.5629M61.5467 17.516C61.5467 17.516 61.5467 17.5159 61.5468 17.5159L61.5467 17.516ZM61.5467 17.516L61.5467 17.5164L61.5466 17.5168M61.5467 17.516C61.5467 17.5162 61.5466 17.5165 61.5466 17.5168M61.5466 17.5168L61.5463 17.5181V17.5182C61.5464 17.5177 61.5465 17.5172 61.5466 17.5168ZM61.5439 17.5629L61.5451 17.5748C61.5451 17.5752 61.5451 17.5756 61.5452 17.576C61.6866 19.395 61.4423 21.9719 59.5336 24.1089L59.6455 24.2088M61.5439 17.5629L59.6455 24.2088M59.6455 24.2088L59.5336 24.1089C57.6539 26.2137 55.0153 27.122 52.0965 27.7245M59.6455 24.2088L52.0965 27.7245M52.0965 27.7245C51.0657 27.9373 50.0058 28.1109 48.9343 28.2864M52.0965 27.7245L48.9343 28.2864M48.9343 28.2864C48.4882 28.3595 48.04 28.4329 47.5912 28.5096M48.9343 28.2864L47.5912 28.5096M47.5912 28.5096C46.0676 28.77 44.5408 29.0675 43.0801 29.5169M47.5912 28.5096L43.0801 29.5169M43.0801 29.5169C38.2713 30.9965 34.226 34.2228 30.2557 37.3894M43.0801 29.5169L30.2557 37.3894M30.2557 37.3894C29.7611 37.7838 29.2677 38.1774 28.7741 38.5665M30.2557 37.3894L28.7741 38.5665M28.7741 38.5665C24.3059 42.0889 19.8218 45.2525 14.2967 45.5913M28.7741 38.5665L14.2967 45.5913M14.2967 45.5913C11.2781 45.7752 8.48156 44.8108 6.23219 42.7964M14.2967 45.5913L6.23219 42.7964M6.23219 42.7964C3.54461 40.3894 1.81794 36.5848 1.62344 32.6189L6.23219 42.7964ZM14.3952 47.1883C14.6459 47.1729 14.8937 47.1489 15.1392 47.1216V59.6409C14.8599 59.674 14.5792 59.6999 14.2968 59.7172C13.639 59.7572 12.9924 59.7372 12.3581 59.6682V47.1514C13.0447 47.2176 13.6571 47.234 14.3952 47.1883ZM14.3952 47.1883L14.386 47.0386M14.3952 47.1883C14.3952 47.1883 14.3952 47.1883 14.3953 47.1883L14.386 47.0386M14.386 47.0386C14.639 47.023 14.8896 46.9986 15.1392 46.9707L14.386 47.0386ZM61.5468 17.5158C61.5468 17.5155 61.5469 17.5155 61.5468 17.5157L61.5468 17.5158ZM7.67712 45.7443V58.0182C6.48958 57.2607 5.69101 56.4688 4.90299 55.4959V43.7464C4.98928 43.828 5.07661 43.9086 5.16497 43.988L5.16519 43.9882C5.94774 44.6888 6.79073 45.2694 7.67712 45.7443ZM45.9104 30.4587C46.8296 30.2668 47.7633 30.1025 48.6915 29.9487V42.455C47.7748 42.6042 46.8427 42.761 45.9104 42.9476V30.4587ZM49.6415 42.2987V29.7912C50.5687 29.6381 51.5011 29.4778 52.422 29.2865V41.7763C51.4998 41.9784 50.5679 42.1452 49.6415 42.2987ZM37.5046 33.9728V46.2122C36.5556 46.7864 35.633 47.4071 34.7305 48.0568V35.9171C35.638 35.2365 36.5603 34.5813 37.5046 33.9728ZM38.4546 33.3833C39.3583 32.842 40.2837 32.3508 41.2357 31.9256V44.3066C40.2787 44.6996 39.3541 45.1572 38.4546 45.6598V33.3833ZM18.8632 46.3084V58.7446C17.9572 59.0685 17.0325 59.3212 16.0891 59.492V46.9891C17.0351 46.8343 17.9594 46.6037 18.8632 46.3084ZM19.8132 58.3751V45.9769C20.7625 45.6153 21.6886 45.1856 22.5944 44.7062V57.0079C21.6862 57.5232 20.7593 57.9832 19.8132 58.3751ZM23.5444 56.4443V44.185C24.4912 43.6399 25.4145 43.0425 26.3185 42.4143V54.5782C25.4124 55.2373 24.488 55.8653 23.5444 56.4443ZM8.627 58.5548V46.2011C9.51782 46.5854 10.4515 46.8619 11.4081 47.0247V59.5166C10.4412 59.3261 9.50525 59.0025 8.627 58.5548ZM1.62451 46.7835L1.6616 39.2495C2.27256 40.531 3.04148 41.7136 3.953 42.7563V54.1792C2.59572 52.0305 1.75609 49.4386 1.62451 46.7835ZM27.2684 41.7405C28.2966 40.992 29.1325 40.3376 30.0495 39.6067V51.685L29.9518 51.7633C29.0204 52.5106 28.2145 53.157 27.2684 53.8732V41.7405ZM30.9995 50.9236V38.8474C31.9369 38.0951 32.8799 37.3384 33.7806 36.641V48.7547C32.8374 49.462 31.9131 50.1927 30.9995 50.9236ZM42.1856 43.9438V31.5268C42.6352 31.3507 43.0891 31.1879 43.5505 31.0459C44.0081 30.9052 44.4803 30.7824 44.9604 30.6681V43.1532C43.7152 43.435 42.9852 43.6552 42.1856 43.9438ZM53.3719 41.5543V29.0759C54.3223 28.8497 55.2534 28.5765 56.1466 28.2289V40.6263C55.1735 41.0588 54.2818 41.3246 53.3719 41.5543ZM57.0966 40.1562V27.8229C58.0947 27.3534 59.0327 26.7686 59.8777 26.0191V37.8373C59.2423 38.6492 58.3019 39.4858 57.0966 40.1562ZM62.2951 30.0066C62.069 32.1239 61.6995 34.2968 60.8277 36.2169V25.0527C61.3414 24.4568 61.7772 23.7989 62.1253 23.0949C62.3602 25.5232 62.5107 27.9818 62.2951 30.0066Z" fill="#F16E20" stroke="#F16E20" stroke-width="0.3"/>
<path d="M10.9113 27.5345C10.0255 29.0957 10.0487 30.9975 10.9322 32.4985C11.8195 34.006 13.5848 35.1245 16.2083 35.0682L16.2092 35.0682C19.5598 35.0157 21.5098 33.2703 21.9296 31.3898L10.9113 27.5345ZM10.9113 27.5345L10.932 27.4989C11.8308 25.9463 13.3019 25.0252 15.0818 24.9008C17.0605 24.7656 18.9548 25.5897 20.2646 26.8542C21.576 28.1204 22.282 29.807 21.9296 31.3897L10.9113 27.5345ZM16.2335 36.6681L16.2341 36.6681C20.2875 36.6048 22.9027 34.3797 23.4906 31.7377C23.9771 29.5571 23.064 27.36 21.4319 25.7585C19.7992 24.1564 17.4312 23.133 14.9702 23.3046L14.9702 23.3046C12.6466 23.4671 10.718 24.6736 9.54742 26.6973L9.52726 26.7321V26.7328C8.35556 28.7871 8.36604 31.2823 9.49962 33.26C10.6426 35.254 12.9174 36.7067 16.2335 36.6681Z" fill="#F16E20" stroke="#F16E20" stroke-width="0.3"/>
<path d="M16.2592 33.0108C16.2557 32.8867 16.2117 32.7639 16.1064 32.6747C16.0041 32.5881 15.8638 32.5502 15.7005 32.5502C14.718 32.5502 13.7377 31.9852 13.2505 31.1319L13.2505 31.1319C12.751 30.2579 12.7752 29.0934 13.3102 28.2408C13.8454 27.3879 14.875 26.8549 15.887 26.9294L15.8869 26.9296L15.895 26.9298C16.138 26.9347 16.3751 26.7575 16.3942 26.4886L16.3943 26.4881C16.4028 26.3624 16.3611 26.2385 16.2784 26.1435C16.1956 26.0485 16.0786 25.9902 15.953 25.9814L15.9525 25.9814C14.5982 25.8907 13.2234 26.5922 12.5052 27.7359L12.5051 27.736C11.7884 28.8797 11.756 30.4309 12.4252 31.6031L12.4252 31.6031C13.0798 32.7483 14.3852 33.5002 15.7023 33.5002C15.8708 33.5002 16.0145 33.4563 16.1167 33.3631C16.2208 33.2682 16.2628 33.1394 16.2592 33.0108ZM16.2592 33.0108L16.1092 33.0151L16.2592 33.0108C16.2592 33.0108 16.2592 33.0108 16.2592 33.0108ZM17.7563 33.2027C17.7108 32.945 17.4618 32.7705 17.2047 32.8186C17.2044 32.8187 17.204 32.8187 17.2037 32.8188L16.9405 32.8658L16.9405 32.8657L16.9359 32.8667C16.8153 32.8921 16.7093 32.9634 16.6402 33.0655C16.5712 33.1677 16.5446 33.2927 16.566 33.4141C16.5875 33.5355 16.6553 33.6438 16.7551 33.7161C16.855 33.7885 16.9791 33.8191 17.1011 33.8017L17.1011 33.8018L17.1061 33.8009L17.3721 33.7536L17.3721 33.7536C17.4336 33.7427 17.4922 33.7197 17.5448 33.6861C17.5973 33.6525 17.6428 33.6089 17.6784 33.5577C17.7141 33.5065 17.7393 33.4488 17.7527 33.3878C17.766 33.3269 17.7672 33.264 17.7563 33.2027ZM17.7563 33.2027C17.7563 33.2028 17.7563 33.2028 17.7563 33.2029L17.6086 33.2289L17.7562 33.2025C17.7563 33.2025 17.7563 33.2026 17.7563 33.2027ZM28.3101 10.1505L28.309 10.1511C28.0747 10.26 27.7898 10.1641 27.6773 9.92535C27.6772 9.92524 27.6772 9.92513 27.6771 9.92502L27.8128 9.86118L28.3101 10.1505ZM28.3101 10.1505C35.0001 6.96986 42.9841 6.98339 49.6653 10.1862C52.3525 11.4743 54.16 12.9892 55.2121 14.8111L55.342 14.7361M28.3101 10.1505L55.342 14.7361M55.342 14.7361L55.2121 14.8111C56.4943 17.0309 56.4251 19.7594 55.08 21.4444M55.342 14.7361L55.08 21.4444M54.3279 22.7805L54.3282 22.7802L54.5476 22.5608L54.3279 22.7805ZM54.3279 22.7805C54.239 22.8697 54.1892 22.9907 54.1895 23.1167M54.3279 22.7805L54.1895 23.1167M55.2209 23.2314L55.2207 23.2316L55.0013 23.451L55.2209 23.2314ZM55.2209 23.2314C55.3098 23.1421 55.3596 23.0212 55.3594 22.8952M55.2209 23.2314L55.3594 22.8952M55.08 21.4444C55.0411 21.4932 55.0121 21.5491 54.9948 21.6091C54.9775 21.669 54.9722 21.7318 54.9791 21.7939C54.9861 21.8559 55.0053 21.9159 55.0355 21.9705C55.0657 22.0251 55.1063 22.0733 55.1551 22.1121M55.08 21.4444L55.705 21.9437L55.8223 22.0372C55.7834 22.086 55.7353 22.1266 55.6807 22.1567C55.6261 22.1869 55.5661 22.206 55.5041 22.2129C55.4421 22.2199 55.3794 22.2145 55.3195 22.1972C55.2596 22.1799 55.2038 22.151 55.1551 22.1121M55.1551 22.1121C55.1551 22.1121 55.155 22.112 55.1549 22.112L55.2486 21.9948L55.1551 22.1121ZM56.0343 14.3361C54.8751 12.328 52.9194 10.6924 50.0756 9.3298L56.0343 14.3361ZM56.0343 14.3361L55.9043 14.4111L56.0342 14.336C56.0342 14.336 56.0342 14.3361 56.0343 14.3361ZM54.1895 23.1167C54.1897 23.2427 54.24 23.3635 54.3293 23.4524M54.1895 23.1167L54.3293 23.4524M54.3293 23.4524C54.4186 23.5413 54.5396 23.5911 54.6656 23.5909M54.3293 23.4524L54.6656 23.5909M54.6656 23.5909C54.7915 23.5906 54.9121 23.5404 55.001 23.4513L54.6656 23.5909ZM55.3594 22.8952C55.3591 22.7691 55.3088 22.6484 55.2195 22.5595M55.3594 22.8952L55.2195 22.5595M55.2195 22.5595C55.1302 22.4705 55.0093 22.4207 54.8833 22.421M55.2195 22.5595L54.8833 22.421M54.8833 22.421C54.7573 22.4212 54.6367 22.4715 54.5478 22.5606L54.8833 22.421Z" fill="#F16E20" stroke="#F16E20" stroke-width="0.3"/>
<path d="M30.9581 11.7625L31.0113 11.9028C36.866 9.68306 43.6464 10.1458 49.1469 13.1403C50.5269 13.8918 51.4148 14.5918 52.0424 15.4091C52.8263 16.4315 53.129 17.6497 52.8734 18.664L52.8734 18.6641C52.8426 18.7863 52.8617 18.9158 52.9264 19.024C52.9911 19.1322 53.0961 19.2103 53.2184 19.241C53.3406 19.2718 53.4701 19.2527 53.5783 19.188C53.6865 19.1233 53.7646 19.0183 53.7953 18.896L53.7953 18.896C54.1246 17.5847 53.7444 16.0668 52.7957 14.8311C51.8749 13.6309 50.597 12.848 49.6012 12.3062C43.8603 9.18015 36.7854 8.69678 30.6738 11.0149L30.6737 11.0149C30.556 11.0596 30.4609 11.1492 30.4092 11.264C30.3575 11.3788 30.3536 11.5095 30.3982 11.6272L30.3984 11.6276C30.4913 11.8706 30.7631 11.9991 31.0123 11.9024L30.9581 11.7625ZM30.9581 11.7625C30.7886 11.8283 30.6026 11.7417 30.5385 11.574L53.0189 18.7007C53.288 17.6327 52.9669 16.3683 52.1614 15.3178C51.5163 14.4777 50.6087 13.7655 49.2186 13.0085C43.6797 9.99317 36.8537 9.5273 30.9581 11.7625ZM16.0225 41.1379L16.0225 41.1379C16.0421 41.1972 16.0499 41.2598 16.0453 41.3221C16.0407 41.3843 16.0239 41.4451 15.9958 41.5008C15.9677 41.5566 15.9289 41.6063 15.8815 41.647C15.8342 41.6876 15.7794 41.7186 15.7201 41.738C15.72 41.7381 15.72 41.7381 15.7199 41.7381L16.0225 41.1379ZM16.0225 41.1379C15.9403 40.8906 15.6712 40.7518 15.4218 40.8365L15.4701 40.9785M16.0225 41.1379L5.3629 29.421L5.36288 29.4212C4.98041 32.7606 5.75635 35.9209 7.47444 38.0975C9.42509 40.5674 12.7719 41.7095 15.4232 40.8361L15.4701 40.9785M15.4701 40.9785C12.7502 41.8745 9.34035 40.7022 7.35673 38.1904M15.4701 40.9785L7.35673 38.1904M7.35673 38.1904C5.60923 35.9767 4.82785 32.7744 5.21385 29.4042C5.22352 29.3185 5.1988 29.2326 5.14513 29.1651C5.09146 29.0977 5.01322 29.0543 4.9276 29.0445L4.94484 28.8955C4.94481 28.8955 4.94477 28.8955 4.94474 28.8955L7.35673 38.1904ZM4.41868 29.3137L4.56773 29.3305L4.75996 28.9106C4.69994 28.9278 4.64388 28.9566 4.595 28.9954C4.54612 29.0343 4.50539 29.0824 4.47513 29.137C4.44491 29.1916 4.42573 29.2515 4.4187 29.3135C4.41869 29.3136 4.41868 29.3136 4.41868 29.3137Z" fill="#F16E20" stroke="#F16E20" stroke-width="0.3"/>
</g>
<defs>
<clipPath id="clip0_295_2065">
<rect width="64" height="64" fill="white"/>
</clipPath>
</defs>
</svg>
