<svg width="64" height="64" viewBox="0 0 64 64" fill="none" xmlns="http://www.w3.org/2000/svg">
<g clip-path="url(#clip0_295_2142)">
<mask id="path-1-outside-1_295_2142" maskUnits="userSpaceOnUse" x="0.306274" y="-1" width="63" height="66" fill="black">
<rect fill="white" x="0.306274" y="-1" width="63" height="66"/>
<path d="M60.9573 30.2679C59.9696 29.1469 58.729 28.3739 57.3354 27.96C57.7953 26.9523 58.1035 25.8732 58.2538 24.7908C58.5696 22.5155 58.1779 20.3803 56.6323 18.621C55.2021 16.9932 53.1569 15.9908 51.1551 15.2567C50.6624 15.0759 50.1346 14.9582 49.6538 14.7498C49.1154 14.5164 49.0412 14.2119 49.0377 13.6538C49.0305 12.5138 49.0592 11.4027 48.9585 10.2629C48.7647 8.06657 48.2477 5.73383 46.3239 4.40083C45.2477 3.65495 43.8619 3.39871 42.5728 3.4197C42.0738 3.42783 41.3225 3.70233 40.8457 3.5657C40.369 3.42908 40.0154 2.60646 39.6829 2.25083C37.892 0.335336 34.9324 -0.163663 32.4379 0.0435867C31.4698 0.124087 30.4503 0.153461 29.4942 0.387836C29.2416 0.426961 28.9894 0.469211 28.7387 0.517961C26.0513 1.03996 23.5201 2.17558 21.4811 4.02183C20.4852 4.92358 19.6201 5.98645 19.0171 7.19107C18.7625 7.69995 18.6436 8.25669 18.3923 8.76282C18.0776 9.39694 17.7432 9.49257 17.1182 9.70469C14.5537 10.5743 12.5151 12.4758 10.7416 14.4529C9.07848 16.3071 7.83086 18.4011 7.30448 20.8569C6.77836 23.3118 6.83311 26.0837 7.83886 28.4098C7.88636 28.5198 7.93798 28.6263 7.98973 28.7328C5.68199 29.4009 3.67412 31.274 2.41587 33.2434C1.76749 34.2583 1.23425 35.4359 1.31425 36.6665C1.38887 37.8155 1.96937 38.8534 2.93124 39.4928C4.15037 40.3031 5.66336 40.2879 7.04223 39.9844C7.72498 39.8341 8.38911 39.6123 9.05261 39.395C9.3971 39.2823 9.74273 39.1738 10.0891 39.0669C10.1569 39.046 10.3362 39.0126 10.5045 38.9701C10.3481 41.5185 10.9239 44.0765 11.3531 46.5785C11.596 47.994 11.8036 49.4094 12.116 50.8124C12.4336 52.2389 12.8152 53.65 13.127 55.0777C13.5991 57.2398 13.8966 59.7203 15.837 61.1152C17.732 62.4775 20.2237 62.8665 22.4748 63.2107C25.2784 63.6395 28.0767 63.8785 30.9128 63.9398C33.7788 64.002 36.6752 64.0621 39.5369 63.8677C42.1208 63.6922 44.8897 63.2707 47.257 62.1653C49.4718 61.1312 50.5179 59.1531 50.856 56.8131C51.0495 55.4741 51.1008 54.1167 51.2003 52.7687C51.3245 51.0855 51.4614 49.4034 51.5958 47.7209C51.7299 46.0409 51.8949 44.3802 51.7828 42.6947C51.7358 41.9884 51.7051 41.2901 51.7643 40.5839C51.8134 39.9965 51.848 39.4438 51.6461 38.8953C51.6614 38.8545 51.677 38.8139 51.6914 38.7729C52.1989 39.1508 52.6934 39.5205 53.3239 39.7686C54.254 40.1346 55.271 40.2995 56.2689 40.301C57.8351 40.3035 59.4571 39.8699 60.709 38.9061C63.5081 36.7511 63.1186 32.7213 60.9573 30.2679ZM9.66135 17.8883C10.3027 16.8918 11.1071 16.0544 11.9617 15.2408C12.896 14.3513 13.8213 13.4239 14.8593 12.6543C15.8573 11.9144 16.9091 11.3973 18.0733 10.9841C18.526 10.8233 18.9528 10.5974 19.1978 10.1648C19.4996 9.63207 19.4935 9.04694 19.6221 8.46707C20.171 5.99382 22.7037 3.9437 24.832 2.82633C26.8934 1.74396 29.1777 1.26946 31.4786 1.06308C31.8633 1.07221 32.2467 1.09008 32.6233 1.10008C33.8643 1.13296 35.1318 1.31558 36.3083 1.72121C36.9049 1.92683 37.4493 2.23158 37.9527 2.61171C38.4717 3.00346 38.688 3.47733 39.0542 3.99158C39.3653 4.42858 39.7712 4.84533 40.3 4.99945C40.9299 5.18308 41.5593 4.97645 42.1865 4.90395C43.3402 4.77045 44.6624 4.89695 45.632 5.58445C46.4845 6.18895 46.9847 7.13932 47.2444 8.13157C47.5034 9.12094 47.555 10.1519 47.5962 11.1692C47.6158 11.6536 47.6475 12.1373 47.606 12.6211C47.5565 13.1977 47.4705 13.7762 47.5382 14.3547C47.6814 15.5791 48.6155 16.1024 49.7003 16.4254C50.6031 16.6943 51.4963 16.9952 52.3526 17.3907C54.0836 18.1902 55.9096 19.3698 56.6355 21.2229C58.3121 25.5035 55.1615 30.4693 50.9 31.5271C49.7646 31.809 48.5478 31.8608 47.398 31.6316C46.8415 31.5208 46.2877 31.3594 45.7735 31.1171C45.2283 30.8601 44.7707 30.4604 44.233 30.2007C43.0648 29.6363 42.1888 30.6581 41.3122 31.2948C40.1778 32.1186 38.9998 32.8626 37.747 33.4931C35.1174 34.8164 32.3364 36.1504 29.3249 35.6055C27.0298 35.1903 24.7398 34.4476 23.1742 32.6176C22.522 31.8553 22.3252 30.7671 21.1941 30.6151C20.017 30.4569 18.9878 31.0696 17.8948 31.3866C15.8872 31.9689 13.5123 31.74 11.6857 30.71C7.38036 28.2824 7.23286 21.6619 9.66135 17.8883ZM15.5807 58.6822C15.0898 57.799 14.857 56.7916 14.6405 55.8128C14.001 52.9217 13.0808 50.1074 12.4692 47.2091C11.9936 44.9554 11.5038 42.7145 11.1705 40.4418C11.2957 40.723 11.4477 40.9916 11.6244 41.2438C12.4195 42.3734 13.6145 43.098 14.9206 43.4997C14.9701 43.515 15.0196 43.5281 15.0692 43.5421C15.1233 44.7622 15.3348 45.9727 15.5286 47.1789C15.8001 48.8692 15.8938 50.5836 16.123 52.2801C16.3442 53.9181 16.6105 55.544 16.9662 57.1583C17.1426 57.9588 17.3133 58.7595 17.4467 59.5685C17.4911 59.8373 17.5105 60.128 17.5327 60.4217C16.7208 60.0217 16.0367 59.5027 15.5807 58.6822ZM18.4053 60.7953C18.3673 60.4208 18.2845 60.0426 18.2342 59.7105C18.1118 58.9005 17.9468 58.0975 17.7927 57.2932C17.4742 55.63 17.1897 53.9665 16.9765 52.286C16.7766 50.7109 16.6141 49.1221 16.3531 47.556C16.137 46.2587 15.805 44.9811 15.6457 43.6785C16.8905 43.9142 18.1438 43.787 19.326 43.3989C19.2295 46.5 19.5751 49.6329 20.0082 52.6941C20.2437 54.3586 20.5748 56.0048 20.9167 57.6502C21.0811 58.4412 21.2438 59.2326 21.3848 60.0282C21.4741 60.5311 21.5022 61.0822 21.5736 61.6136C20.4903 61.4256 19.4168 61.1785 18.4053 60.7953ZM24.4616 62.0276C23.8157 61.9417 23.1563 61.8583 22.4953 61.7608C22.4523 61.2921 22.344 60.8158 22.2695 60.3755C22.1286 59.5426 21.9586 58.715 21.7831 57.8887C21.4345 56.2477 21.0926 54.6096 20.8163 52.9545C20.2805 49.7432 20.0275 46.5095 19.6668 43.2794C20.8252 42.8451 21.9058 42.1635 22.8301 41.3321C23.1952 41.9378 23.7082 42.4653 24.3028 42.8713C24.4317 44.0719 24.3265 45.3074 24.3401 46.5045C24.3626 48.4802 24.5137 50.4666 24.6137 52.4402C24.709 54.319 24.8697 56.1935 25.0038 58.0696C25.0966 59.3663 25.1571 60.8537 25.5578 62.1575C25.1919 62.119 24.8264 62.0757 24.4616 62.0276ZM26.4901 62.2466C26.3123 61.6022 26.1367 60.9657 26.0396 60.2917C25.9132 59.4156 25.8558 58.5313 25.7927 57.649C25.6539 55.7097 25.4643 53.7766 25.3577 51.8347C25.2536 49.9389 25.0622 48.033 25.0253 46.1356C25.0071 45.1967 25.0536 44.2107 24.9598 43.2536C25.4653 43.499 26.0073 43.6595 26.5561 43.711C27.4897 43.7985 28.4086 43.4984 29.2016 43.0142C29.3164 44.5016 29.2289 46.0216 29.2233 47.5021C29.2163 49.3515 29.3059 51.2015 29.4054 53.0477C29.5727 56.1491 29.4214 59.3606 29.9432 62.4351C28.7906 62.4008 27.6384 62.3445 26.4901 62.2466ZM34.9418 52.5404C34.7146 55.8593 34.9003 59.1758 34.9013 62.4978C34.1681 62.4948 33.4354 62.4872 32.7046 62.482C32.0812 62.4776 31.4572 62.4697 30.8332 62.4571C30.5453 60.9577 30.4771 59.4222 30.4133 57.8998C30.3387 56.1175 30.2452 54.3376 30.1218 52.5579C29.9944 50.7201 29.8587 48.886 29.8224 47.0437C29.7943 45.6139 29.7192 44.2248 29.4827 42.8304C29.5655 42.7735 29.647 42.7146 29.7269 42.6537C30.1589 42.323 30.5758 41.9521 30.8649 41.4858C30.9709 41.3148 31.0527 41.1328 31.1256 40.9466C31.6969 41.7251 32.3256 42.4565 33.1697 42.9601C33.9083 43.4009 34.7208 43.5804 35.5451 43.5749C35.4802 46.5719 35.1466 49.5502 34.9418 52.5404ZM37.7533 60.3478C37.7254 60.8684 37.7052 61.3894 37.6927 61.9106C37.6883 62.0935 37.6758 62.2816 37.6709 62.4697C37.0567 62.488 36.4417 62.4961 35.8268 62.4982C35.8076 59.1758 35.6251 55.8627 35.7922 52.5404C35.9431 49.5399 36.2776 46.5385 36.2027 43.5324C36.5152 43.4946 36.8249 43.4354 37.1293 43.3551C38.4232 43.0153 39.7582 42.3598 40.7712 41.4196C40.516 44.9345 39.4592 48.3716 38.8503 51.8314C38.5212 53.7012 38.2069 55.5832 37.9914 57.4698C37.8822 58.4263 37.805 59.3867 37.7533 60.3478ZM42.0743 57.5331C41.9996 58.4106 41.9425 59.2895 41.9029 60.1692C41.8757 60.7758 41.7874 61.472 41.8164 62.1231C41.449 62.1826 41.0803 62.234 40.7093 62.2736C39.9943 62.3497 39.2768 62.4003 38.5579 62.4347C38.557 62.3 38.5547 62.1651 38.5575 62.0308C38.5689 61.5097 38.588 60.9887 38.6148 60.4682C38.6639 59.5066 38.741 58.5466 38.8461 57.5895C39.0682 55.5741 39.3625 53.5627 39.6978 51.5632C40.2992 47.9762 41.32 44.4186 41.3807 40.7643C41.582 40.5141 41.7637 40.2503 41.9159 39.9698C42.4817 40.7503 43.2367 41.3874 44.0952 41.8301C43.9543 43.5156 43.8825 45.1915 43.6309 46.8726C43.3614 48.6729 43.0282 50.4632 42.7379 52.2601C42.4552 54.0104 42.2243 55.766 42.0743 57.5331ZM45.2448 60.564C45.226 60.7792 45.2298 61.0678 45.2234 61.3401C44.9537 61.4216 44.6822 61.4957 44.412 61.566C43.8598 61.7105 43.3038 61.8398 42.7444 61.9537C42.766 61.3946 42.7248 60.8138 42.7429 60.2891C42.7747 59.3695 42.8257 58.4506 42.8955 57.5331C43.0369 55.6777 43.2724 53.8362 43.5585 51.998C43.8317 50.2432 44.119 48.4917 44.3277 46.7277C44.5065 45.2147 44.7158 43.6146 44.6295 42.0723C45.3434 42.3603 46.111 42.5204 46.8909 42.5225C47.0883 42.5227 47.2856 42.5101 47.4814 42.4847C47.4007 45.9377 46.7598 49.3465 46.2354 52.7546C45.9578 54.5588 45.7593 56.3722 45.5265 58.1825C45.4247 58.9751 45.314 59.7677 45.2448 60.564ZM50.441 42.4666C50.4805 43.8629 50.3698 45.2214 50.2578 46.6126C50.0399 49.3196 49.8123 52.0256 49.6224 54.7347C49.4837 56.7147 49.2895 59.0456 47.5205 60.293C47.075 60.6071 46.5874 60.8485 46.0807 61.0462C46.0832 61.0076 46.0855 60.9688 46.0884 60.9323C46.1468 60.2133 46.2267 59.4983 46.314 58.7822C46.5502 56.8481 46.7418 54.9084 46.988 52.9756C47.4368 49.454 48.0442 45.9316 48.0478 42.3745C49.0053 42.1243 49.8348 41.5706 50.4859 40.837C50.4244 41.3793 50.4255 41.9201 50.441 42.4666ZM61.0009 36.3121C60.3828 37.8248 58.7781 38.6148 57.2388 38.8396C56.2681 38.9814 55.2504 38.9114 54.309 38.6415C53.8149 38.4999 53.3331 38.3065 52.9119 38.0071C52.4663 37.6904 52.0838 37.298 51.6258 36.995C51.2631 36.7551 50.6695 36.9821 50.5844 37.4186C50.2306 39.234 48.9025 41.078 46.8908 41.102C44.9248 41.1255 42.985 39.8768 42.4414 37.9529C42.214 37.1484 41.144 37.3845 41.0643 38.1393C40.8488 40.1774 38.5253 41.5054 36.7518 41.985C35.7154 42.2653 34.6617 42.2755 33.7282 41.688C32.7957 41.1011 32.1122 40.1174 31.5327 39.2023C31.2727 38.7915 30.6211 38.7424 30.3727 39.2023C29.9769 39.9346 29.8033 40.7041 29.1718 41.2883C28.5427 41.8701 27.7261 42.3257 26.8529 42.3499C25.8494 42.3776 23.7302 41.4136 23.6957 40.2066C23.683 39.761 23.1246 39.3176 22.706 39.639C20.7536 41.1381 18.5933 42.6445 15.999 42.2616C14.807 42.0856 13.609 41.585 12.8127 40.655C12.4649 40.2484 12.2127 39.7689 12.0747 39.2519C11.9668 38.8466 11.9395 38.3774 11.7021 38.017C11.2291 37.2989 10.4054 37.7045 9.77135 37.9136C8.49836 38.3335 7.21323 38.9055 5.87011 39.0526C4.63999 39.1874 3.28299 38.8366 2.62024 37.7069C2.02562 36.6931 2.23699 35.5034 2.72224 34.496C3.82537 32.206 5.91249 30.2859 8.23648 29.2037C9.3131 31.0936 11.0782 32.3855 13.2318 32.9244C14.3813 33.212 15.5987 33.3135 16.778 33.1891C18.017 33.0585 19.0783 32.5704 20.2711 32.2735C20.5188 32.2119 20.7557 32.1754 21.0113 32.1813C21.034 32.1818 21.0538 32.184 21.0702 32.186C21.1021 32.2234 21.132 32.2665 21.1563 32.2974C21.5667 32.8173 22.0972 33.2713 22.5671 33.7364C23.3641 34.5253 24.2987 35.1758 25.3113 35.6565C27.7842 36.8305 30.7513 37.4035 33.4238 36.6941C36.3274 35.9233 39.1938 34.4935 41.706 32.8624C42.0222 32.656 42.3357 32.4457 42.6465 32.2313C42.8799 32.0711 43.2685 31.893 43.4465 31.6808C43.4497 31.677 43.4533 31.6734 43.457 31.6701C43.5102 31.6929 43.59 31.7215 43.6173 31.7404C43.911 31.9421 44.2069 32.143 44.5188 32.3161C45.6577 32.9488 46.9389 33.2835 48.2343 33.3715C50.7472 33.5421 53.366 32.7229 55.2096 30.9831C55.7906 30.435 56.2904 29.8063 56.712 29.1262C59.572 30.1804 62.294 33.1474 61.0009 36.3121Z"/>
</mask>
<path d="M60.9573 30.2679C59.9696 29.1469 58.729 28.3739 57.3354 27.96C57.7953 26.9523 58.1035 25.8732 58.2538 24.7908C58.5696 22.5155 58.1779 20.3803 56.6323 18.621C55.2021 16.9932 53.1569 15.9908 51.1551 15.2567C50.6624 15.0759 50.1346 14.9582 49.6538 14.7498C49.1154 14.5164 49.0412 14.2119 49.0377 13.6538C49.0305 12.5138 49.0592 11.4027 48.9585 10.2629C48.7647 8.06657 48.2477 5.73383 46.3239 4.40083C45.2477 3.65495 43.8619 3.39871 42.5728 3.4197C42.0738 3.42783 41.3225 3.70233 40.8457 3.5657C40.369 3.42908 40.0154 2.60646 39.6829 2.25083C37.892 0.335336 34.9324 -0.163663 32.4379 0.0435867C31.4698 0.124087 30.4503 0.153461 29.4942 0.387836C29.2416 0.426961 28.9894 0.469211 28.7387 0.517961C26.0513 1.03996 23.5201 2.17558 21.4811 4.02183C20.4852 4.92358 19.6201 5.98645 19.0171 7.19107C18.7625 7.69995 18.6436 8.25669 18.3923 8.76282C18.0776 9.39694 17.7432 9.49257 17.1182 9.70469C14.5537 10.5743 12.5151 12.4758 10.7416 14.4529C9.07848 16.3071 7.83086 18.4011 7.30448 20.8569C6.77836 23.3118 6.83311 26.0837 7.83886 28.4098C7.88636 28.5198 7.93798 28.6263 7.98973 28.7328C5.68199 29.4009 3.67412 31.274 2.41587 33.2434C1.76749 34.2583 1.23425 35.4359 1.31425 36.6665C1.38887 37.8155 1.96937 38.8534 2.93124 39.4928C4.15037 40.3031 5.66336 40.2879 7.04223 39.9844C7.72498 39.8341 8.38911 39.6123 9.05261 39.395C9.3971 39.2823 9.74273 39.1738 10.0891 39.0669C10.1569 39.046 10.3362 39.0126 10.5045 38.9701C10.3481 41.5185 10.9239 44.0765 11.3531 46.5785C11.596 47.994 11.8036 49.4094 12.116 50.8124C12.4336 52.2389 12.8152 53.65 13.127 55.0777C13.5991 57.2398 13.8966 59.7203 15.837 61.1152C17.732 62.4775 20.2237 62.8665 22.4748 63.2107C25.2784 63.6395 28.0767 63.8785 30.9128 63.9398C33.7788 64.002 36.6752 64.0621 39.5369 63.8677C42.1208 63.6922 44.8897 63.2707 47.257 62.1653C49.4718 61.1312 50.5179 59.1531 50.856 56.8131C51.0495 55.4741 51.1008 54.1167 51.2003 52.7687C51.3245 51.0855 51.4614 49.4034 51.5958 47.7209C51.7299 46.0409 51.8949 44.3802 51.7828 42.6947C51.7358 41.9884 51.7051 41.2901 51.7643 40.5839C51.8134 39.9965 51.848 39.4438 51.6461 38.8953C51.6614 38.8545 51.677 38.8139 51.6914 38.7729C52.1989 39.1508 52.6934 39.5205 53.3239 39.7686C54.254 40.1346 55.271 40.2995 56.2689 40.301C57.8351 40.3035 59.4571 39.8699 60.709 38.9061C63.5081 36.7511 63.1186 32.7213 60.9573 30.2679ZM9.66135 17.8883C10.3027 16.8918 11.1071 16.0544 11.9617 15.2408C12.896 14.3513 13.8213 13.4239 14.8593 12.6543C15.8573 11.9144 16.9091 11.3973 18.0733 10.9841C18.526 10.8233 18.9528 10.5974 19.1978 10.1648C19.4996 9.63207 19.4935 9.04694 19.6221 8.46707C20.171 5.99382 22.7037 3.9437 24.832 2.82633C26.8934 1.74396 29.1777 1.26946 31.4786 1.06308C31.8633 1.07221 32.2467 1.09008 32.6233 1.10008C33.8643 1.13296 35.1318 1.31558 36.3083 1.72121C36.9049 1.92683 37.4493 2.23158 37.9527 2.61171C38.4717 3.00346 38.688 3.47733 39.0542 3.99158C39.3653 4.42858 39.7712 4.84533 40.3 4.99945C40.9299 5.18308 41.5593 4.97645 42.1865 4.90395C43.3402 4.77045 44.6624 4.89695 45.632 5.58445C46.4845 6.18895 46.9847 7.13932 47.2444 8.13157C47.5034 9.12094 47.555 10.1519 47.5962 11.1692C47.6158 11.6536 47.6475 12.1373 47.606 12.6211C47.5565 13.1977 47.4705 13.7762 47.5382 14.3547C47.6814 15.5791 48.6155 16.1024 49.7003 16.4254C50.6031 16.6943 51.4963 16.9952 52.3526 17.3907C54.0836 18.1902 55.9096 19.3698 56.6355 21.2229C58.3121 25.5035 55.1615 30.4693 50.9 31.5271C49.7646 31.809 48.5478 31.8608 47.398 31.6316C46.8415 31.5208 46.2877 31.3594 45.7735 31.1171C45.2283 30.8601 44.7707 30.4604 44.233 30.2007C43.0648 29.6363 42.1888 30.6581 41.3122 31.2948C40.1778 32.1186 38.9998 32.8626 37.747 33.4931C35.1174 34.8164 32.3364 36.1504 29.3249 35.6055C27.0298 35.1903 24.7398 34.4476 23.1742 32.6176C22.522 31.8553 22.3252 30.7671 21.1941 30.6151C20.017 30.4569 18.9878 31.0696 17.8948 31.3866C15.8872 31.9689 13.5123 31.74 11.6857 30.71C7.38036 28.2824 7.23286 21.6619 9.66135 17.8883ZM15.5807 58.6822C15.0898 57.799 14.857 56.7916 14.6405 55.8128C14.001 52.9217 13.0808 50.1074 12.4692 47.2091C11.9936 44.9554 11.5038 42.7145 11.1705 40.4418C11.2957 40.723 11.4477 40.9916 11.6244 41.2438C12.4195 42.3734 13.6145 43.098 14.9206 43.4997C14.9701 43.515 15.0196 43.5281 15.0692 43.5421C15.1233 44.7622 15.3348 45.9727 15.5286 47.1789C15.8001 48.8692 15.8938 50.5836 16.123 52.2801C16.3442 53.9181 16.6105 55.544 16.9662 57.1583C17.1426 57.9588 17.3133 58.7595 17.4467 59.5685C17.4911 59.8373 17.5105 60.128 17.5327 60.4217C16.7208 60.0217 16.0367 59.5027 15.5807 58.6822ZM18.4053 60.7953C18.3673 60.4208 18.2845 60.0426 18.2342 59.7105C18.1118 58.9005 17.9468 58.0975 17.7927 57.2932C17.4742 55.63 17.1897 53.9665 16.9765 52.286C16.7766 50.7109 16.6141 49.1221 16.3531 47.556C16.137 46.2587 15.805 44.9811 15.6457 43.6785C16.8905 43.9142 18.1438 43.787 19.326 43.3989C19.2295 46.5 19.5751 49.6329 20.0082 52.6941C20.2437 54.3586 20.5748 56.0048 20.9167 57.6502C21.0811 58.4412 21.2438 59.2326 21.3848 60.0282C21.4741 60.5311 21.5022 61.0822 21.5736 61.6136C20.4903 61.4256 19.4168 61.1785 18.4053 60.7953ZM24.4616 62.0276C23.8157 61.9417 23.1563 61.8583 22.4953 61.7608C22.4523 61.2921 22.344 60.8158 22.2695 60.3755C22.1286 59.5426 21.9586 58.715 21.7831 57.8887C21.4345 56.2477 21.0926 54.6096 20.8163 52.9545C20.2805 49.7432 20.0275 46.5095 19.6668 43.2794C20.8252 42.8451 21.9058 42.1635 22.8301 41.3321C23.1952 41.9378 23.7082 42.4653 24.3028 42.8713C24.4317 44.0719 24.3265 45.3074 24.3401 46.5045C24.3626 48.4802 24.5137 50.4666 24.6137 52.4402C24.709 54.319 24.8697 56.1935 25.0038 58.0696C25.0966 59.3663 25.1571 60.8537 25.5578 62.1575C25.1919 62.119 24.8264 62.0757 24.4616 62.0276ZM26.4901 62.2466C26.3123 61.6022 26.1367 60.9657 26.0396 60.2917C25.9132 59.4156 25.8558 58.5313 25.7927 57.649C25.6539 55.7097 25.4643 53.7766 25.3577 51.8347C25.2536 49.9389 25.0622 48.033 25.0253 46.1356C25.0071 45.1967 25.0536 44.2107 24.9598 43.2536C25.4653 43.499 26.0073 43.6595 26.5561 43.711C27.4897 43.7985 28.4086 43.4984 29.2016 43.0142C29.3164 44.5016 29.2289 46.0216 29.2233 47.5021C29.2163 49.3515 29.3059 51.2015 29.4054 53.0477C29.5727 56.1491 29.4214 59.3606 29.9432 62.4351C28.7906 62.4008 27.6384 62.3445 26.4901 62.2466ZM34.9418 52.5404C34.7146 55.8593 34.9003 59.1758 34.9013 62.4978C34.1681 62.4948 33.4354 62.4872 32.7046 62.482C32.0812 62.4776 31.4572 62.4697 30.8332 62.4571C30.5453 60.9577 30.4771 59.4222 30.4133 57.8998C30.3387 56.1175 30.2452 54.3376 30.1218 52.5579C29.9944 50.7201 29.8587 48.886 29.8224 47.0437C29.7943 45.6139 29.7192 44.2248 29.4827 42.8304C29.5655 42.7735 29.647 42.7146 29.7269 42.6537C30.1589 42.323 30.5758 41.9521 30.8649 41.4858C30.9709 41.3148 31.0527 41.1328 31.1256 40.9466C31.6969 41.7251 32.3256 42.4565 33.1697 42.9601C33.9083 43.4009 34.7208 43.5804 35.5451 43.5749C35.4802 46.5719 35.1466 49.5502 34.9418 52.5404ZM37.7533 60.3478C37.7254 60.8684 37.7052 61.3894 37.6927 61.9106C37.6883 62.0935 37.6758 62.2816 37.6709 62.4697C37.0567 62.488 36.4417 62.4961 35.8268 62.4982C35.8076 59.1758 35.6251 55.8627 35.7922 52.5404C35.9431 49.5399 36.2776 46.5385 36.2027 43.5324C36.5152 43.4946 36.8249 43.4354 37.1293 43.3551C38.4232 43.0153 39.7582 42.3598 40.7712 41.4196C40.516 44.9345 39.4592 48.3716 38.8503 51.8314C38.5212 53.7012 38.2069 55.5832 37.9914 57.4698C37.8822 58.4263 37.805 59.3867 37.7533 60.3478ZM42.0743 57.5331C41.9996 58.4106 41.9425 59.2895 41.9029 60.1692C41.8757 60.7758 41.7874 61.472 41.8164 62.1231C41.449 62.1826 41.0803 62.234 40.7093 62.2736C39.9943 62.3497 39.2768 62.4003 38.5579 62.4347C38.557 62.3 38.5547 62.1651 38.5575 62.0308C38.5689 61.5097 38.588 60.9887 38.6148 60.4682C38.6639 59.5066 38.741 58.5466 38.8461 57.5895C39.0682 55.5741 39.3625 53.5627 39.6978 51.5632C40.2992 47.9762 41.32 44.4186 41.3807 40.7643C41.582 40.5141 41.7637 40.2503 41.9159 39.9698C42.4817 40.7503 43.2367 41.3874 44.0952 41.8301C43.9543 43.5156 43.8825 45.1915 43.6309 46.8726C43.3614 48.6729 43.0282 50.4632 42.7379 52.2601C42.4552 54.0104 42.2243 55.766 42.0743 57.5331ZM45.2448 60.564C45.226 60.7792 45.2298 61.0678 45.2234 61.3401C44.9537 61.4216 44.6822 61.4957 44.412 61.566C43.8598 61.7105 43.3038 61.8398 42.7444 61.9537C42.766 61.3946 42.7248 60.8138 42.7429 60.2891C42.7747 59.3695 42.8257 58.4506 42.8955 57.5331C43.0369 55.6777 43.2724 53.8362 43.5585 51.998C43.8317 50.2432 44.119 48.4917 44.3277 46.7277C44.5065 45.2147 44.7158 43.6146 44.6295 42.0723C45.3434 42.3603 46.111 42.5204 46.8909 42.5225C47.0883 42.5227 47.2856 42.5101 47.4814 42.4847C47.4007 45.9377 46.7598 49.3465 46.2354 52.7546C45.9578 54.5588 45.7593 56.3722 45.5265 58.1825C45.4247 58.9751 45.314 59.7677 45.2448 60.564ZM50.441 42.4666C50.4805 43.8629 50.3698 45.2214 50.2578 46.6126C50.0399 49.3196 49.8123 52.0256 49.6224 54.7347C49.4837 56.7147 49.2895 59.0456 47.5205 60.293C47.075 60.6071 46.5874 60.8485 46.0807 61.0462C46.0832 61.0076 46.0855 60.9688 46.0884 60.9323C46.1468 60.2133 46.2267 59.4983 46.314 58.7822C46.5502 56.8481 46.7418 54.9084 46.988 52.9756C47.4368 49.454 48.0442 45.9316 48.0478 42.3745C49.0053 42.1243 49.8348 41.5706 50.4859 40.837C50.4244 41.3793 50.4255 41.9201 50.441 42.4666ZM61.0009 36.3121C60.3828 37.8248 58.7781 38.6148 57.2388 38.8396C56.2681 38.9814 55.2504 38.9114 54.309 38.6415C53.8149 38.4999 53.3331 38.3065 52.9119 38.0071C52.4663 37.6904 52.0838 37.298 51.6258 36.995C51.2631 36.7551 50.6695 36.9821 50.5844 37.4186C50.2306 39.234 48.9025 41.078 46.8908 41.102C44.9248 41.1255 42.985 39.8768 42.4414 37.9529C42.214 37.1484 41.144 37.3845 41.0643 38.1393C40.8488 40.1774 38.5253 41.5054 36.7518 41.985C35.7154 42.2653 34.6617 42.2755 33.7282 41.688C32.7957 41.1011 32.1122 40.1174 31.5327 39.2023C31.2727 38.7915 30.6211 38.7424 30.3727 39.2023C29.9769 39.9346 29.8033 40.7041 29.1718 41.2883C28.5427 41.8701 27.7261 42.3257 26.8529 42.3499C25.8494 42.3776 23.7302 41.4136 23.6957 40.2066C23.683 39.761 23.1246 39.3176 22.706 39.639C20.7536 41.1381 18.5933 42.6445 15.999 42.2616C14.807 42.0856 13.609 41.585 12.8127 40.655C12.4649 40.2484 12.2127 39.7689 12.0747 39.2519C11.9668 38.8466 11.9395 38.3774 11.7021 38.017C11.2291 37.2989 10.4054 37.7045 9.77135 37.9136C8.49836 38.3335 7.21323 38.9055 5.87011 39.0526C4.63999 39.1874 3.28299 38.8366 2.62024 37.7069C2.02562 36.6931 2.23699 35.5034 2.72224 34.496C3.82537 32.206 5.91249 30.2859 8.23648 29.2037C9.3131 31.0936 11.0782 32.3855 13.2318 32.9244C14.3813 33.212 15.5987 33.3135 16.778 33.1891C18.017 33.0585 19.0783 32.5704 20.2711 32.2735C20.5188 32.2119 20.7557 32.1754 21.0113 32.1813C21.034 32.1818 21.0538 32.184 21.0702 32.186C21.1021 32.2234 21.132 32.2665 21.1563 32.2974C21.5667 32.8173 22.0972 33.2713 22.5671 33.7364C23.3641 34.5253 24.2987 35.1758 25.3113 35.6565C27.7842 36.8305 30.7513 37.4035 33.4238 36.6941C36.3274 35.9233 39.1938 34.4935 41.706 32.8624C42.0222 32.656 42.3357 32.4457 42.6465 32.2313C42.8799 32.0711 43.2685 31.893 43.4465 31.6808C43.4497 31.677 43.4533 31.6734 43.457 31.6701C43.5102 31.6929 43.59 31.7215 43.6173 31.7404C43.911 31.9421 44.2069 32.143 44.5188 32.3161C45.6577 32.9488 46.9389 33.2835 48.2343 33.3715C50.7472 33.5421 53.366 32.7229 55.2096 30.9831C55.7906 30.435 56.2904 29.8063 56.712 29.1262C59.572 30.1804 62.294 33.1474 61.0009 36.3121Z" fill="#F16E20"/>
<path d="M60.9573 30.2679C59.9696 29.1469 58.729 28.3739 57.3354 27.96C57.7953 26.9523 58.1035 25.8732 58.2538 24.7908C58.5696 22.5155 58.1779 20.3803 56.6323 18.621C55.2021 16.9932 53.1569 15.9908 51.1551 15.2567C50.6624 15.0759 50.1346 14.9582 49.6538 14.7498C49.1154 14.5164 49.0412 14.2119 49.0377 13.6538C49.0305 12.5138 49.0592 11.4027 48.9585 10.2629C48.7647 8.06657 48.2477 5.73383 46.3239 4.40083C45.2477 3.65495 43.8619 3.39871 42.5728 3.4197C42.0738 3.42783 41.3225 3.70233 40.8457 3.5657C40.369 3.42908 40.0154 2.60646 39.6829 2.25083C37.892 0.335336 34.9324 -0.163663 32.4379 0.0435867C31.4698 0.124087 30.4503 0.153461 29.4942 0.387836C29.2416 0.426961 28.9894 0.469211 28.7387 0.517961C26.0513 1.03996 23.5201 2.17558 21.4811 4.02183C20.4852 4.92358 19.6201 5.98645 19.0171 7.19107C18.7625 7.69995 18.6436 8.25669 18.3923 8.76282C18.0776 9.39694 17.7432 9.49257 17.1182 9.70469C14.5537 10.5743 12.5151 12.4758 10.7416 14.4529C9.07848 16.3071 7.83086 18.4011 7.30448 20.8569C6.77836 23.3118 6.83311 26.0837 7.83886 28.4098C7.88636 28.5198 7.93798 28.6263 7.98973 28.7328C5.68199 29.4009 3.67412 31.274 2.41587 33.2434C1.76749 34.2583 1.23425 35.4359 1.31425 36.6665C1.38887 37.8155 1.96937 38.8534 2.93124 39.4928C4.15037 40.3031 5.66336 40.2879 7.04223 39.9844C7.72498 39.8341 8.38911 39.6123 9.05261 39.395C9.3971 39.2823 9.74273 39.1738 10.0891 39.0669C10.1569 39.046 10.3362 39.0126 10.5045 38.9701C10.3481 41.5185 10.9239 44.0765 11.3531 46.5785C11.596 47.994 11.8036 49.4094 12.116 50.8124C12.4336 52.2389 12.8152 53.65 13.127 55.0777C13.5991 57.2398 13.8966 59.7203 15.837 61.1152C17.732 62.4775 20.2237 62.8665 22.4748 63.2107C25.2784 63.6395 28.0767 63.8785 30.9128 63.9398C33.7788 64.002 36.6752 64.0621 39.5369 63.8677C42.1208 63.6922 44.8897 63.2707 47.257 62.1653C49.4718 61.1312 50.5179 59.1531 50.856 56.8131C51.0495 55.4741 51.1008 54.1167 51.2003 52.7687C51.3245 51.0855 51.4614 49.4034 51.5958 47.7209C51.7299 46.0409 51.8949 44.3802 51.7828 42.6947C51.7358 41.9884 51.7051 41.2901 51.7643 40.5839C51.8134 39.9965 51.848 39.4438 51.6461 38.8953C51.6614 38.8545 51.677 38.8139 51.6914 38.7729C52.1989 39.1508 52.6934 39.5205 53.3239 39.7686C54.254 40.1346 55.271 40.2995 56.2689 40.301C57.8351 40.3035 59.4571 39.8699 60.709 38.9061C63.5081 36.7511 63.1186 32.7213 60.9573 30.2679ZM9.66135 17.8883C10.3027 16.8918 11.1071 16.0544 11.9617 15.2408C12.896 14.3513 13.8213 13.4239 14.8593 12.6543C15.8573 11.9144 16.9091 11.3973 18.0733 10.9841C18.526 10.8233 18.9528 10.5974 19.1978 10.1648C19.4996 9.63207 19.4935 9.04694 19.6221 8.46707C20.171 5.99382 22.7037 3.9437 24.832 2.82633C26.8934 1.74396 29.1777 1.26946 31.4786 1.06308C31.8633 1.07221 32.2467 1.09008 32.6233 1.10008C33.8643 1.13296 35.1318 1.31558 36.3083 1.72121C36.9049 1.92683 37.4493 2.23158 37.9527 2.61171C38.4717 3.00346 38.688 3.47733 39.0542 3.99158C39.3653 4.42858 39.7712 4.84533 40.3 4.99945C40.9299 5.18308 41.5593 4.97645 42.1865 4.90395C43.3402 4.77045 44.6624 4.89695 45.632 5.58445C46.4845 6.18895 46.9847 7.13932 47.2444 8.13157C47.5034 9.12094 47.555 10.1519 47.5962 11.1692C47.6158 11.6536 47.6475 12.1373 47.606 12.6211C47.5565 13.1977 47.4705 13.7762 47.5382 14.3547C47.6814 15.5791 48.6155 16.1024 49.7003 16.4254C50.6031 16.6943 51.4963 16.9952 52.3526 17.3907C54.0836 18.1902 55.9096 19.3698 56.6355 21.2229C58.3121 25.5035 55.1615 30.4693 50.9 31.5271C49.7646 31.809 48.5478 31.8608 47.398 31.6316C46.8415 31.5208 46.2877 31.3594 45.7735 31.1171C45.2283 30.8601 44.7707 30.4604 44.233 30.2007C43.0648 29.6363 42.1888 30.6581 41.3122 31.2948C40.1778 32.1186 38.9998 32.8626 37.747 33.4931C35.1174 34.8164 32.3364 36.1504 29.3249 35.6055C27.0298 35.1903 24.7398 34.4476 23.1742 32.6176C22.522 31.8553 22.3252 30.7671 21.1941 30.6151C20.017 30.4569 18.9878 31.0696 17.8948 31.3866C15.8872 31.9689 13.5123 31.74 11.6857 30.71C7.38036 28.2824 7.23286 21.6619 9.66135 17.8883ZM15.5807 58.6822C15.0898 57.799 14.857 56.7916 14.6405 55.8128C14.001 52.9217 13.0808 50.1074 12.4692 47.2091C11.9936 44.9554 11.5038 42.7145 11.1705 40.4418C11.2957 40.723 11.4477 40.9916 11.6244 41.2438C12.4195 42.3734 13.6145 43.098 14.9206 43.4997C14.9701 43.515 15.0196 43.5281 15.0692 43.5421C15.1233 44.7622 15.3348 45.9727 15.5286 47.1789C15.8001 48.8692 15.8938 50.5836 16.123 52.2801C16.3442 53.9181 16.6105 55.544 16.9662 57.1583C17.1426 57.9588 17.3133 58.7595 17.4467 59.5685C17.4911 59.8373 17.5105 60.128 17.5327 60.4217C16.7208 60.0217 16.0367 59.5027 15.5807 58.6822ZM18.4053 60.7953C18.3673 60.4208 18.2845 60.0426 18.2342 59.7105C18.1118 58.9005 17.9468 58.0975 17.7927 57.2932C17.4742 55.63 17.1897 53.9665 16.9765 52.286C16.7766 50.7109 16.6141 49.1221 16.3531 47.556C16.137 46.2587 15.805 44.9811 15.6457 43.6785C16.8905 43.9142 18.1438 43.787 19.326 43.3989C19.2295 46.5 19.5751 49.6329 20.0082 52.6941C20.2437 54.3586 20.5748 56.0048 20.9167 57.6502C21.0811 58.4412 21.2438 59.2326 21.3848 60.0282C21.4741 60.5311 21.5022 61.0822 21.5736 61.6136C20.4903 61.4256 19.4168 61.1785 18.4053 60.7953ZM24.4616 62.0276C23.8157 61.9417 23.1563 61.8583 22.4953 61.7608C22.4523 61.2921 22.344 60.8158 22.2695 60.3755C22.1286 59.5426 21.9586 58.715 21.7831 57.8887C21.4345 56.2477 21.0926 54.6096 20.8163 52.9545C20.2805 49.7432 20.0275 46.5095 19.6668 43.2794C20.8252 42.8451 21.9058 42.1635 22.8301 41.3321C23.1952 41.9378 23.7082 42.4653 24.3028 42.8713C24.4317 44.0719 24.3265 45.3074 24.3401 46.5045C24.3626 48.4802 24.5137 50.4666 24.6137 52.4402C24.709 54.319 24.8697 56.1935 25.0038 58.0696C25.0966 59.3663 25.1571 60.8537 25.5578 62.1575C25.1919 62.119 24.8264 62.0757 24.4616 62.0276ZM26.4901 62.2466C26.3123 61.6022 26.1367 60.9657 26.0396 60.2917C25.9132 59.4156 25.8558 58.5313 25.7927 57.649C25.6539 55.7097 25.4643 53.7766 25.3577 51.8347C25.2536 49.9389 25.0622 48.033 25.0253 46.1356C25.0071 45.1967 25.0536 44.2107 24.9598 43.2536C25.4653 43.499 26.0073 43.6595 26.5561 43.711C27.4897 43.7985 28.4086 43.4984 29.2016 43.0142C29.3164 44.5016 29.2289 46.0216 29.2233 47.5021C29.2163 49.3515 29.3059 51.2015 29.4054 53.0477C29.5727 56.1491 29.4214 59.3606 29.9432 62.4351C28.7906 62.4008 27.6384 62.3445 26.4901 62.2466ZM34.9418 52.5404C34.7146 55.8593 34.9003 59.1758 34.9013 62.4978C34.1681 62.4948 33.4354 62.4872 32.7046 62.482C32.0812 62.4776 31.4572 62.4697 30.8332 62.4571C30.5453 60.9577 30.4771 59.4222 30.4133 57.8998C30.3387 56.1175 30.2452 54.3376 30.1218 52.5579C29.9944 50.7201 29.8587 48.886 29.8224 47.0437C29.7943 45.6139 29.7192 44.2248 29.4827 42.8304C29.5655 42.7735 29.647 42.7146 29.7269 42.6537C30.1589 42.323 30.5758 41.9521 30.8649 41.4858C30.9709 41.3148 31.0527 41.1328 31.1256 40.9466C31.6969 41.7251 32.3256 42.4565 33.1697 42.9601C33.9083 43.4009 34.7208 43.5804 35.5451 43.5749C35.4802 46.5719 35.1466 49.5502 34.9418 52.5404ZM37.7533 60.3478C37.7254 60.8684 37.7052 61.3894 37.6927 61.9106C37.6883 62.0935 37.6758 62.2816 37.6709 62.4697C37.0567 62.488 36.4417 62.4961 35.8268 62.4982C35.8076 59.1758 35.6251 55.8627 35.7922 52.5404C35.9431 49.5399 36.2776 46.5385 36.2027 43.5324C36.5152 43.4946 36.8249 43.4354 37.1293 43.3551C38.4232 43.0153 39.7582 42.3598 40.7712 41.4196C40.516 44.9345 39.4592 48.3716 38.8503 51.8314C38.5212 53.7012 38.2069 55.5832 37.9914 57.4698C37.8822 58.4263 37.805 59.3867 37.7533 60.3478ZM42.0743 57.5331C41.9996 58.4106 41.9425 59.2895 41.9029 60.1692C41.8757 60.7758 41.7874 61.472 41.8164 62.1231C41.449 62.1826 41.0803 62.234 40.7093 62.2736C39.9943 62.3497 39.2768 62.4003 38.5579 62.4347C38.557 62.3 38.5547 62.1651 38.5575 62.0308C38.5689 61.5097 38.588 60.9887 38.6148 60.4682C38.6639 59.5066 38.741 58.5466 38.8461 57.5895C39.0682 55.5741 39.3625 53.5627 39.6978 51.5632C40.2992 47.9762 41.32 44.4186 41.3807 40.7643C41.582 40.5141 41.7637 40.2503 41.9159 39.9698C42.4817 40.7503 43.2367 41.3874 44.0952 41.8301C43.9543 43.5156 43.8825 45.1915 43.6309 46.8726C43.3614 48.6729 43.0282 50.4632 42.7379 52.2601C42.4552 54.0104 42.2243 55.766 42.0743 57.5331ZM45.2448 60.564C45.226 60.7792 45.2298 61.0678 45.2234 61.3401C44.9537 61.4216 44.6822 61.4957 44.412 61.566C43.8598 61.7105 43.3038 61.8398 42.7444 61.9537C42.766 61.3946 42.7248 60.8138 42.7429 60.2891C42.7747 59.3695 42.8257 58.4506 42.8955 57.5331C43.0369 55.6777 43.2724 53.8362 43.5585 51.998C43.8317 50.2432 44.119 48.4917 44.3277 46.7277C44.5065 45.2147 44.7158 43.6146 44.6295 42.0723C45.3434 42.3603 46.111 42.5204 46.8909 42.5225C47.0883 42.5227 47.2856 42.5101 47.4814 42.4847C47.4007 45.9377 46.7598 49.3465 46.2354 52.7546C45.9578 54.5588 45.7593 56.3722 45.5265 58.1825C45.4247 58.9751 45.314 59.7677 45.2448 60.564ZM50.441 42.4666C50.4805 43.8629 50.3698 45.2214 50.2578 46.6126C50.0399 49.3196 49.8123 52.0256 49.6224 54.7347C49.4837 56.7147 49.2895 59.0456 47.5205 60.293C47.075 60.6071 46.5874 60.8485 46.0807 61.0462C46.0832 61.0076 46.0855 60.9688 46.0884 60.9323C46.1468 60.2133 46.2267 59.4983 46.314 58.7822C46.5502 56.8481 46.7418 54.9084 46.988 52.9756C47.4368 49.454 48.0442 45.9316 48.0478 42.3745C49.0053 42.1243 49.8348 41.5706 50.4859 40.837C50.4244 41.3793 50.4255 41.9201 50.441 42.4666ZM61.0009 36.3121C60.3828 37.8248 58.7781 38.6148 57.2388 38.8396C56.2681 38.9814 55.2504 38.9114 54.309 38.6415C53.8149 38.4999 53.3331 38.3065 52.9119 38.0071C52.4663 37.6904 52.0838 37.298 51.6258 36.995C51.2631 36.7551 50.6695 36.9821 50.5844 37.4186C50.2306 39.234 48.9025 41.078 46.8908 41.102C44.9248 41.1255 42.985 39.8768 42.4414 37.9529C42.214 37.1484 41.144 37.3845 41.0643 38.1393C40.8488 40.1774 38.5253 41.5054 36.7518 41.985C35.7154 42.2653 34.6617 42.2755 33.7282 41.688C32.7957 41.1011 32.1122 40.1174 31.5327 39.2023C31.2727 38.7915 30.6211 38.7424 30.3727 39.2023C29.9769 39.9346 29.8033 40.7041 29.1718 41.2883C28.5427 41.8701 27.7261 42.3257 26.8529 42.3499C25.8494 42.3776 23.7302 41.4136 23.6957 40.2066C23.683 39.761 23.1246 39.3176 22.706 39.639C20.7536 41.1381 18.5933 42.6445 15.999 42.2616C14.807 42.0856 13.609 41.585 12.8127 40.655C12.4649 40.2484 12.2127 39.7689 12.0747 39.2519C11.9668 38.8466 11.9395 38.3774 11.7021 38.017C11.2291 37.2989 10.4054 37.7045 9.77135 37.9136C8.49836 38.3335 7.21323 38.9055 5.87011 39.0526C4.63999 39.1874 3.28299 38.8366 2.62024 37.7069C2.02562 36.6931 2.23699 35.5034 2.72224 34.496C3.82537 32.206 5.91249 30.2859 8.23648 29.2037C9.3131 31.0936 11.0782 32.3855 13.2318 32.9244C14.3813 33.212 15.5987 33.3135 16.778 33.1891C18.017 33.0585 19.0783 32.5704 20.2711 32.2735C20.5188 32.2119 20.7557 32.1754 21.0113 32.1813C21.034 32.1818 21.0538 32.184 21.0702 32.186C21.1021 32.2234 21.132 32.2665 21.1563 32.2974C21.5667 32.8173 22.0972 33.2713 22.5671 33.7364C23.3641 34.5253 24.2987 35.1758 25.3113 35.6565C27.7842 36.8305 30.7513 37.4035 33.4238 36.6941C36.3274 35.9233 39.1938 34.4935 41.706 32.8624C42.0222 32.656 42.3357 32.4457 42.6465 32.2313C42.8799 32.0711 43.2685 31.893 43.4465 31.6808C43.4497 31.677 43.4533 31.6734 43.457 31.6701C43.5102 31.6929 43.59 31.7215 43.6173 31.7404C43.911 31.9421 44.2069 32.143 44.5188 32.3161C45.6577 32.9488 46.9389 33.2835 48.2343 33.3715C50.7472 33.5421 53.366 32.7229 55.2096 30.9831C55.7906 30.435 56.2904 29.8063 56.712 29.1262C59.572 30.1804 62.294 33.1474 61.0009 36.3121Z" stroke="#F16E20" mask="url(#path-1-outside-1_295_2142)"/>
<path d="M30.0966 15.4121L30.0966 15.412C31.0334 14.0107 30.8724 11.9188 29.5142 10.8043C28.7983 10.2168 27.8554 9.94779 26.9573 9.95584C25.9601 9.96477 25.016 10.4714 24.273 11.181C23.5289 11.8915 22.9616 12.8283 22.7253 13.7471C22.464 14.7629 22.7516 15.6495 23.3451 16.2937C23.9323 16.9311 24.8107 17.3245 25.7366 17.3974C27.3617 17.5255 29.1607 16.8113 30.0966 15.4121ZM28.9617 12.1478L28.9617 12.1478C29.4147 12.7816 29.4403 13.4546 29.2007 14.0575C28.9575 14.6694 28.4375 15.2131 27.7989 15.5434C27.2202 15.8427 26.3308 16.0322 25.5386 15.9415C24.7486 15.8511 24.1252 15.4968 23.928 14.7751C23.5881 13.5301 24.3977 12.2854 25.5789 11.6393C26.7546 10.9962 28.156 11.0203 28.9617 12.1478ZM20.3904 19.4659L20.2138 19.6428L20.3904 19.4659C19.7007 18.7771 18.6925 18.4774 17.6796 18.4595C16.6648 18.4415 15.6102 18.7048 14.7949 19.1845C13.8948 19.714 13.4589 20.5329 13.4042 21.3966C13.35 22.2518 13.6691 23.1395 14.2507 23.8355L14.4425 23.6752L14.2507 23.8355C15.2711 25.0566 17.011 25.8042 18.6475 25.4722C20.2833 25.1404 21.664 23.5654 21.5325 21.8411C21.4631 20.9307 21.0109 20.0856 20.3904 19.4659ZM20.1912 22.386L20.4369 22.4323L20.1912 22.386C20.0479 23.1454 19.5841 23.637 18.9889 23.8943C18.3858 24.1549 17.6441 24.1748 16.9751 23.964L16.9751 23.964C16.3689 23.773 15.6295 23.2903 15.1558 22.6795C14.6848 22.0723 14.5108 21.3939 14.892 20.7495C15.5507 19.6364 16.9933 19.3281 18.2553 19.6932C18.8792 19.8738 19.4301 20.2135 19.7895 20.6712C20.1446 21.1236 20.3207 21.6997 20.1912 22.386ZM26.6938 21.6807L26.6937 21.6807C25.7937 22.2102 25.3579 23.0291 25.3031 23.8928C25.2489 24.7481 25.5679 25.6357 26.1495 26.3318L26.3414 26.1715L26.1495 26.3318C27.1699 27.5528 28.9099 28.3004 30.5463 27.9685C32.182 27.6366 33.5629 26.0617 33.4314 24.3373C33.362 23.427 32.9098 22.5819 32.2893 21.9623C31.5996 21.2735 30.5913 20.9738 29.5785 20.9558C28.5637 20.9378 27.5091 21.2011 26.6938 21.6807ZM28.874 26.4603L28.874 26.4603C28.2677 26.2693 27.5284 25.7865 27.0546 25.1757C26.5836 24.5686 26.4097 23.8902 26.7909 23.2459C27.4496 22.1328 28.8922 21.8245 30.1542 22.1896C30.7781 22.3701 31.329 22.7098 31.6884 23.1676C32.0435 23.6199 32.2196 24.1961 32.0901 24.8823C31.9468 25.6417 31.483 26.1333 30.8878 26.3905C30.2847 26.6512 29.5429 26.671 28.874 26.4603ZM36.0964 7.70172L36.223 7.91705L36.0964 7.70172C35.1963 8.2312 34.7604 9.05014 34.7057 9.91382C34.6515 10.7691 34.9706 11.6567 35.5522 12.3528L35.744 12.1925L35.5522 12.3528C36.5726 13.5738 38.3125 14.3214 39.949 13.9895C41.5846 13.6576 42.9655 12.0825 42.834 10.3583C42.7646 9.44797 42.3124 8.60286 41.6919 7.98329C41.0022 7.29452 39.994 6.9948 38.9811 6.97682C37.9663 6.95881 36.9117 7.22212 36.0964 7.70172ZM41.4926 10.9032L41.7383 10.9496L41.4926 10.9032C41.3493 11.6627 40.8855 12.1542 40.2903 12.4115C39.6872 12.6722 38.9455 12.692 38.2765 12.4813L38.2014 12.7197L38.2765 12.4813C37.6702 12.2903 36.9309 11.8075 36.4571 11.1967C35.9861 10.5896 35.8122 9.91113 36.1934 9.26676C36.8521 8.15362 38.2947 7.84534 39.5567 8.21049C40.1806 8.39102 40.7315 8.73071 41.0909 9.18849C41.446 9.64081 41.6221 10.2169 41.4926 10.9032ZM44.1926 27.1365L44.1926 27.1365C45.8283 26.8045 47.2091 25.2295 47.0777 23.5053C47.0082 22.595 46.556 21.7499 45.9355 21.1303C45.2459 20.4415 44.2376 20.1418 43.2247 20.1238C42.2099 20.1058 41.1554 20.3691 40.34 20.8487L40.4668 21.0642L40.34 20.8487C39.4399 21.3782 39.0041 22.1971 38.9493 23.0608C38.8952 23.9161 39.2142 24.8037 39.7958 25.4998L39.9876 25.3395L39.7958 25.4998C40.8162 26.7208 42.5561 27.4684 44.1926 27.1365ZM45.7362 24.0502C45.5929 24.8097 45.1292 25.3012 44.534 25.5585C43.9309 25.8191 43.1891 25.839 42.5201 25.6283C41.9139 25.4373 41.1745 24.9545 40.7008 24.3437C40.2298 23.7366 40.0558 23.0581 40.437 22.4137C41.0957 21.3006 42.5384 20.9923 43.8003 21.3575C44.4242 21.538 44.9751 21.8777 45.3345 22.3355C45.6897 22.7878 45.8657 23.3639 45.7362 24.0502Z" fill="#F16E20" stroke="#F16E20" stroke-width="0.5"/>
</g>
<defs>
<clipPath id="clip0_295_2142">
<rect width="64" height="64" fill="white"/>
</clipPath>
</defs>
</svg>
