<svg width="63" height="64" viewBox="0 0 63 64" fill="none" xmlns="http://www.w3.org/2000/svg">
<g clip-path="url(#clip0_57_500)">
<path d="M36.1435 8.34042C36.1435 8.34042 37.4644 7.79022 37.904 9.33206C38.3436 10.8739 36.916 11.8634 31.9612 11.9722C27.0063 12.0809 29.9831 10.9827 31.9612 10.8718C33.9393 10.7609 36.3633 10.7843 36.3633 10.1126C36.3633 9.44082 35.1492 8.34682 36.1435 8.34042Z" fill="#8BC43F"/>
<path d="M40.3302 11.9679C40.3302 11.9679 42.6198 11.4177 43.3816 12.9595C44.1434 14.5013 41.6745 15.4908 33.09 15.6017C24.5054 15.7126 29.6651 14.6101 33.09 14.4992C36.5148 14.3883 40.7121 14.4118 40.7121 13.74C40.7121 13.0683 38.6231 11.9743 40.3302 11.9679Z" fill="#8BC43F"/>
<path d="M33.8048 5.10106C33.8048 5.10106 34.5879 4.77265 34.8504 5.68751C35.1129 6.60237 34.2657 7.1803 31.3231 7.25494C28.3805 7.32957 30.1495 6.66848 31.3231 6.60237C32.4967 6.53627 33.9286 6.55119 33.9286 6.15241C33.9286 5.75362 33.2137 5.10319 33.8048 5.10106Z" fill="#8BC43F"/>
<path d="M47.4871 27.2711C47.4871 27.2711 50.2398 28.4547 51.8914 30.4358C53.5431 32.417 53.3851 33.447 52.6767 32.9544C51.9683 32.4617 51.0251 30.9732 50.5706 30.4785C50.1161 29.9837 47.0049 28.331 47.4871 27.51" fill="#8BC43F"/>
<path d="M45.4066 27.8916C45.4066 27.8916 48.1615 29.0752 49.8131 31.0563C51.4647 33.0375 51.3068 34.0675 50.5983 33.5727C49.8899 33.078 48.9467 31.5916 48.4922 31.0968C48.0377 30.6021 44.9265 28.9515 45.4066 28.1241" fill="#8BC43F"/>
<path d="M43.5651 28.2435C43.5651 28.2435 46.3178 29.4271 47.9694 31.4082C49.6211 33.3894 49.4631 34.4194 48.7547 33.9246C48.0463 33.4299 47.1031 31.9435 46.6486 31.4488C46.1941 30.954 43.0829 29.3034 43.5651 28.476" fill="#8BC43F"/>
<path d="M52.7472 40.4417C52.7472 40.4417 52.9457 43.4272 51.9299 45.8008C50.9142 48.1743 49.922 48.4942 50.0436 47.6433C50.1652 46.7924 51.0572 45.274 51.2919 44.6428C51.5266 44.0115 51.5842 40.4928 52.5402 40.5483" fill="#8BC43F"/>
<path d="M51.2512 40.028C51.2512 40.028 51.4476 43.0135 50.434 45.3871C49.4204 47.7606 48.4239 48.0805 48.5455 47.2296C48.6671 46.3787 49.5612 44.8603 49.796 44.2291C50.0307 43.5978 50.0883 40.0813 51.0421 40.1346" fill="#8BC43F"/>
<path d="M49.5805 39.1387C49.5805 39.1387 49.7768 42.1242 48.7611 44.4999C47.7454 46.8756 46.7531 47.1912 46.8748 46.3424C46.9964 45.4937 47.8905 43.971 48.1252 43.3419C48.3599 42.7128 48.4176 39.192 49.3714 39.2453" fill="#8BC43F"/>
<path d="M59.6566 45.1718C55.3611 43.3548 54.2046 46.0781 54.2046 46.0781C54.2046 46.0781 54.2878 43.6854 55.3611 39.1111C56.4345 34.5367 55.3611 31.3848 53.6263 28.7426C51.8915 26.1004 48.4218 23.7076 48.4218 23.7076C48.4218 23.7076 50.4042 22.057 50.5706 19.7454C50.737 17.4337 48.505 17.3505 48.505 17.3505C48.505 17.3505 49.8259 16.1968 49.9987 15.5357C50.1716 14.8746 50.2463 13.9661 48.4282 13.0598C46.6101 12.1535 45.4557 13.0598 45.4557 13.0598C45.4557 13.0598 44.711 11.1597 43.6377 10.4176C42.5643 9.67545 40.2512 9.09753 40.2512 9.09753C40.2512 9.09753 39.5897 7.36377 38.1046 6.70267C37.2582 6.31929 36.3782 6.01517 35.4756 5.79421C35.3604 5.22249 35.3553 4.63406 35.4607 4.06044C35.625 2.99417 34.3938 -1.22189 29.8444 0.345539C25.295 1.91296 26.7801 6.20792 26.7801 6.20792C21.8253 6.04158 21.9896 9.09753 21.9896 9.09753C20.8059 9.24257 19.6421 9.51939 18.5199 9.92283C16.704 10.5818 17.1991 12.5629 17.1991 12.5629C17.1991 12.5629 12.9036 11.6566 12.161 14.0557C11.9311 14.6838 11.9385 15.3742 12.1817 15.9973C12.4248 16.6204 12.8872 17.1334 13.4819 17.4401C13.4819 17.4401 11.5827 18.4317 11.747 20.4939C11.9113 22.5561 13.8126 23.2193 13.8126 23.2193C13.8126 23.2193 9.51714 24.5244 6.62575 29.0028C3.73436 33.4811 6.7922 34.2851 6.7922 34.2851C6.7922 34.2851 6.37822 34.3683 6.54467 38.0832C6.68397 40.486 7.12486 42.8618 7.85699 45.1547C7.72683 45.1014 7.18269 44.9415 5.22167 44.4808C2.08275 43.7174 -0.230361 46.4897 0.0193017 50.2067C0.268964 53.9238 1.83522 57.1525 8.53556 58.2187C15.2359 59.285 17.1244 61.1894 19.19 62.0978C21.2555 63.0063 22.5764 63.8316 32.0764 63.9958C41.5764 64.16 43.723 61.8505 46.1194 60.0335C48.5157 58.2166 50.7435 57.8882 57.5163 57.3103C64.2892 56.7323 63.9521 46.9866 59.6566 45.1718ZM53.5431 42.2822C53.1334 45.0886 53.1334 47.9825 49.2519 49.4753C45.3704 50.968 35.2089 52.6741 33.3887 52.93C31.5685 53.1859 31.6539 50.7015 31.8822 48.5561C32.1105 46.4108 31.9612 41.2095 31.9612 41.2095C31.9377 40.1304 31.8203 39.8873 37.8506 39.7167C43.8809 39.5461 50.5727 37.7462 52.8837 36.4262C55.1947 35.1061 53.9571 39.4757 53.5431 42.2822ZM53.7927 30.9796C54.7829 32.6302 54.2046 34.1977 51.3964 35.5198C48.5882 36.842 38.0982 38.4073 34.6285 38.3263C31.1588 38.2452 31.9612 36.0978 31.9612 36.0978V27.8363C31.9612 26.77 32.7293 26.8446 32.7293 26.8446C35.0309 27.1383 37.3586 27.1662 39.6665 26.9278C43.2194 26.5141 45.5325 25.0277 47.4317 25.1109C49.3308 25.194 52.8005 29.3205 53.7927 30.9732V30.9796ZM49.2476 20.0823C49.2476 21.0718 49.525 22.4729 44.7046 24.2088C41.1055 25.4795 37.2692 25.9369 33.4719 25.548C31.6539 25.3199 31.9782 24.4583 31.9782 24.4583V21.3256C31.9782 19.3444 33.4719 20.4982 36.1905 20.5813C38.909 20.6645 43.8724 20.1697 46.0212 18.7687C48.17 17.3676 49.2476 19.0843 49.2476 20.0759V20.0823ZM13.2002 20.737C13.2002 18.581 13.7294 18.4253 15.2167 18.758C16.704 19.0907 18.3514 19.6622 18.3514 19.6622C18.187 20.3233 19.7554 21.7265 20.7477 22.0826C21.7399 22.4388 22.73 20.818 22.8111 20.1633C22.8922 19.5086 25.6214 19.7496 28.1821 20.0802C30.7427 20.4107 30.0812 21.8139 29.998 23.4645C29.9148 25.1151 28.9311 25.032 28.9311 25.032C28.9311 25.032 27.9388 26.1878 22.0749 25.032C16.2111 23.8761 13.1981 22.893 13.2002 20.737ZM29.3898 37.9062C27.8556 37.9893 18.5199 37.5756 13.6483 36.0082L8.77456 34.4386C8.77456 34.4386 13.3986 32.4575 14.9628 29.7342C16.5269 27.011 15.8718 25.5416 15.8718 25.5416C15.8718 25.5416 18.1849 26.6079 23.4705 26.6079C28.7561 26.6079 30.1324 26.6079 30.1324 28.1007V36.6032C30.1324 36.6032 30.9241 37.823 29.3898 37.9062ZM29.0207 52.93C27.1194 52.93 19.6039 51.9405 15.3917 50.5373C11.1794 49.1341 10.599 48.7203 9.44246 46.2444C8.2859 43.7686 7.13575 35.5518 9.44246 36.5029C13.328 38.2282 17.4488 39.3659 21.6695 39.8788C28.5982 40.7041 28.9417 39.8788 29.3898 40.5399C29.838 41.201 30.1111 47.8865 30.1388 49.7845C30.1666 51.6824 30.9113 52.93 29.0207 52.93ZM12.5728 30.069C10.5905 31.4723 8.77456 32.9586 8.77456 32.9586C8.77456 32.9586 8.05331 29.7108 13.8126 25.5459C13.8126 25.5416 14.5552 28.6616 12.5728 30.069ZM6.87328 33.366C6.87328 33.366 5.88317 29.8046 10.838 25.6888C11.3713 25.3167 12.0057 25.1165 12.6561 25.1151C13.723 25.1151 10.9212 25.8615 8.77456 28.7405C6.62789 31.6194 6.87328 33.366 6.87328 33.366ZM6.29074 55.3995C3.15182 53.9963 1.61757 52.7167 2.98751 49.0488C4.35745 45.3808 7.52198 46.8181 8.10879 48.7182C8.6956 50.6183 8.53556 52.2582 6.9565 51.7251C5.37744 51.192 6.50839 47.9569 4.44494 50.115C2.38149 52.2732 5.62924 54.5017 7.6116 54.0069C9.59396 53.5122 10.503 51.3668 10.503 51.3668C10.503 51.3668 12.0714 54.5017 12.8972 55.4933C13.723 56.485 13.7209 56.8965 13.7209 56.8965C13.7209 56.8965 9.42752 56.8027 6.29074 55.3995ZM27.7724 62.5073C24.7978 62.1767 20.4212 61.3514 16.9515 57.8839C13.4819 54.4164 10.5905 49.9594 12.7393 51.4457C12.7393 51.4457 21.3302 54.0048 25.79 54.0048C30.2498 54.0048 30.1111 54.0858 30.1388 55.5722C30.1666 57.0586 30.3394 61.682 30.3394 61.682C30.3394 61.682 30.747 62.8378 27.7724 62.5073ZM14.5552 16.5252C12.0287 15.4461 13.5651 13.9661 14.886 13.9661C16.2068 13.9661 17.1991 14.0493 17.1991 14.0493C17.1991 14.0493 17.1158 12.4819 19.3479 11.326C20.7335 10.624 22.2552 10.2311 23.8076 10.1745C23.8076 10.1745 22.4036 8.43644 24.1384 7.61541C25.8732 6.79437 28.4339 6.95432 28.4339 6.95432C28.4339 6.95432 26.1208 3.98367 28.4339 2.41411C30.747 0.844556 31.9014 1.91936 33.1412 2.41411C34.381 2.90887 33.1412 6.95432 33.1412 6.95432C34.5624 6.89995 35.9835 7.06686 37.3534 7.44907C39.6836 8.08883 38.924 10.8334 38.924 10.8334C38.924 10.8334 40.328 9.67758 42.3104 10.8334C42.8807 11.1519 43.3752 11.5899 43.7601 12.1174C44.145 12.6449 44.4112 13.2494 44.5403 13.8894C45.5161 13.6397 46.5391 13.6397 47.5149 13.8894C49.1665 14.301 48.7526 16.1179 48.01 16.6958C47.2674 17.2737 42.6412 18.8369 30.747 18.7665C18.8528 18.6961 17.0838 17.6043 14.5552 16.5252ZM45.6969 57.4702C39.3145 62.97 35.785 62.6715 33.6362 62.5649C31.4874 62.4582 31.9612 60.5261 31.9612 60.5261L31.7627 55.3249C31.7286 54.41 31.9761 54.4164 34.2145 54.4164C36.4529 54.4164 44.9543 53.0132 48.1743 51.5268C51.3943 50.0404 50.4874 53.3437 45.6969 57.4702ZM56.682 54.8301C53.5431 56.2333 49.2519 56.3229 49.2519 56.3229C49.2519 56.3229 49.2519 55.9113 50.0734 54.9197C50.895 53.928 52.4697 50.7932 52.4697 50.7932C52.4697 50.7932 53.3788 52.9385 55.3611 53.4354C57.3435 53.9323 60.5934 51.6888 58.5278 49.5414C56.4622 47.3939 57.591 50.6268 56.0226 51.16C54.4543 51.6931 54.2878 50.051 54.8704 48.1509C55.4529 46.2508 58.6174 44.8071 59.9916 48.4815C61.3658 52.1559 59.8209 53.4269 56.682 54.8301Z" fill="#8BC43F"/>
</g>
<defs>
<clipPath id="clip0_57_500">
<rect width="62.7613" height="64" fill="white"/>
</clipPath>
</defs>
</svg>
