<svg width="61" height="54" viewBox="0 0 61 54" fill="none" xmlns="http://www.w3.org/2000/svg">
<mask id="path-1-outside-1_361_820" maskUnits="userSpaceOnUse" x="-1.41593" y="-1.46259" width="50.9117" height="50.9117" fill="black">
<rect fill="white" x="-1.41593" y="-1.46259" width="50.9117" height="50.9117"/>
<path d="M19.6646 19.4531C19.5217 19.2478 19.4001 19.0348 19.3464 18.818C19.1365 17.9701 19.986 17.5721 20.6772 17.416C22.1524 17.0827 23.9156 17.8144 25.2009 18.8281C24.861 16.9068 26.0935 14.8067 27.7114 13.83C28.7374 13.2105 30.0134 12.9289 31.1933 13.1918C30.4596 12.223 29.9768 11.1215 30.1912 9.9757C30.3833 8.94851 31.4082 8.58236 32.0631 9.42839C32.5826 10.0996 32.9846 10.8515 33.5259 11.5128C33.6452 11.6585 33.7677 11.8014 33.8913 11.9435C33.9234 11.8955 33.9656 11.8551 34.0149 11.8251C35.5579 10.866 36.258 8.80728 38.2909 8.76925C38.7181 8.76126 39.2024 8.83513 39.6131 8.68702C40.2645 8.45206 40.5922 7.59628 40.4855 6.95773C40.3604 6.20844 39.5963 5.59517 38.8383 5.90496C38.4511 6.06319 38.117 6.33757 37.7281 6.50137C37.5892 6.55985 37.3997 6.57312 37.2899 6.44201C36.9017 5.97854 36.3658 5.30378 36.7332 4.68018C37.0802 4.09132 38.1087 3.71975 38.7423 3.5553C40.4223 3.11902 42.2786 4.22441 42.9248 5.78359C43.599 7.41057 42.9029 9.30058 41.5242 10.3225C40.7091 10.9266 39.8838 10.9687 38.9103 11.0623C38.0386 11.1461 37.565 11.7325 36.9766 12.3211C36.4813 12.8166 35.979 13.2824 35.4539 13.7413C35.8655 14.2357 36.2951 14.7293 36.8135 15.1038C37.2381 15.4106 37.7092 15.6479 38.1157 15.9817C38.728 16.4845 39.0937 17.1825 38.3954 17.7946C37.6361 18.46 36.4315 18.4236 35.5943 17.9354C35.1109 17.6535 34.7564 17.2811 34.447 16.8732C34.7615 19.0995 33.2482 21.752 31.0483 22.358C30.3309 22.5555 29.5185 22.5036 28.7325 22.2719C29.7279 23.6124 30.3633 25.3585 30.2953 26.8771C30.2601 27.6649 29.9732 28.7989 29.0883 29.0264C28.1959 29.2557 27.791 28.309 27.487 27.6437C27.5703 27.9333 27.6368 28.2274 27.6861 28.5246C27.7802 29.0881 28.0694 30.3843 27.24 30.5333C26.4951 30.6671 25.8839 29.643 25.472 28.8729C25.1014 30.1678 24.125 31.2559 22.6896 31.4014C22.4261 31.4277 22.1602 31.4166 21.8998 31.3682C22.3193 31.7547 22.7563 32.1214 23.2003 32.4835C23.7168 32.9048 24.6781 33.4967 24.2721 34.2885C23.8275 35.1552 22.5615 35.0686 21.793 34.8008C20.9392 34.5033 20.1702 33.9635 19.482 33.3482C19.4054 34.72 18.658 35.8631 17.1755 36.4246C16.2571 36.7725 15.2899 36.7117 14.4012 36.3866C15.021 37.403 15.4122 38.6124 15.1544 39.5921C14.9989 40.1832 14.4836 40.6664 13.8518 40.4729C13.2149 40.2778 12.7567 39.5256 12.3992 39.0168C12.0955 38.5845 11.8245 38.1972 11.516 37.8332C10.4933 39.2286 8.99401 40.3503 7.774 41.5566C7.32182 42.0036 5.78315 43.5828 5.10283 42.6058C4.63086 41.928 5.73193 40.8895 6.12658 40.4249C6.87315 39.546 7.65344 38.7083 8.43579 37.8623C8.88269 37.3791 9.26254 36.6723 9.86665 36.3696C9.08079 35.7425 8.32212 35.0401 8.03959 34.0547C7.7792 33.1464 8.29676 32.394 9.26635 32.3546C9.93502 32.3273 10.5836 32.6725 11.1329 33.0978C10.7716 32.1238 10.7011 31.0522 11.1498 30.1091C11.5441 29.2802 12.814 27.6835 14.0157 27.4049C13.5619 26.7896 13.1201 25.9972 13.3399 25.2111C13.5227 24.5577 14.1342 24.1133 14.8078 24.1983C15.3666 24.2688 15.9343 24.597 16.4553 25.0454C16.4338 24.4911 16.5415 23.9275 16.8311 23.4553C17.2161 22.8274 17.8006 22.5314 18.3937 22.2129C18.0308 21.8684 17.7149 21.4773 17.5964 21.0361C17.244 19.726 18.4855 19.3435 19.6646 19.4531ZM40.6609 9.91905C41.315 9.58347 41.8549 9.0034 42.1593 8.33509C42.825 6.87338 42.2104 5.23878 40.7956 4.50224C40.0318 4.10458 39.2405 4.0634 38.4506 4.39832C38.2219 4.49528 37.9098 4.60081 37.7198 4.76175C37.3091 5.10994 37.4199 5.41643 37.6565 5.73706C38.5519 5.31075 39.266 4.7704 40.2784 5.43006C41.2817 6.084 41.4342 7.39599 40.8816 8.39519C40.1922 9.64188 39.1173 9.28988 37.9343 9.48475C36.4049 9.73678 35.667 11.7209 34.393 12.4912C34.3889 12.4937 34.385 12.4947 34.3809 12.497C34.6395 12.7858 34.8982 13.0744 35.1466 13.3721L35.1568 13.3844C35.7017 12.7405 36.2408 12.0983 36.8138 11.4757C37.3189 10.9267 37.6761 10.4353 38.4383 10.2993C39.1882 10.1657 39.9605 10.2784 40.6609 9.91905ZM35.3169 16.3658C35.8713 16.8658 36.5187 17.2413 37.2732 17.2816C37.6137 17.2997 37.8927 17.3772 38.0426 16.9947C38.1286 16.7752 38.067 16.4526 37.8221 16.3672C37.728 16.2698 37.5681 16.1974 37.4532 16.1266C37.1521 15.9408 36.8327 15.7854 36.5336 15.5967C35.7173 15.0818 35.0779 14.3201 34.4257 13.621C33.6906 12.833 32.8929 12.1124 32.203 11.2818C31.9701 11.0014 31.6726 10.3955 31.3704 10.2057C30.7289 9.80296 30.8958 10.8891 30.9986 11.2645C31.5939 13.4393 33.7247 14.9296 35.3169 16.3658ZM33.2275 19.4568C33.7647 18.5865 34.0274 17.5408 33.8541 16.5968C33.4294 16.1305 33.1551 15.5474 32.7075 15.0994C32.1635 14.5547 31.4404 14.2494 30.6761 14.1767C29.4908 14.064 28.3097 14.5086 27.4503 15.3219C26.5765 16.1488 25.9709 17.4944 26.1849 18.7072C26.4101 19.9827 27.6985 20.801 28.8401 21.1892C30.6365 21.7997 32.251 21.0391 33.2275 19.4568ZM27.912 27.3004C28.0318 27.518 28.2575 28.083 28.5144 28.1255C28.8473 28.1806 29.0099 27.7467 29.0877 27.5207C29.7969 25.4592 28.1727 23.1356 27.04 21.4605C26.4809 21.0737 26.0038 20.5987 25.6772 20.0736C24.2187 19.2674 22.8161 17.7752 20.9921 18.2124C20.7559 18.269 20.3251 18.3391 20.4089 18.7024C20.4395 18.8355 20.8687 19.2329 20.948 19.3347C21.3553 19.8586 21.6767 20.4915 22.2206 20.8926C22.6581 21.2152 23.1267 21.3662 23.497 21.7865C23.8724 22.2125 24.0963 22.753 24.4113 23.2205C25.1088 24.2557 26.2192 24.7553 26.9709 25.7056C27.358 26.195 27.6132 26.7574 27.912 27.3004ZM25.082 28.1648C24.3133 26.9089 23.1367 25.4761 21.9091 24.6624C21.0409 24.0869 20.1466 23.6417 19.3239 22.988C19.2108 22.8982 19.0886 22.803 18.9632 22.7028C18.7743 22.9432 18.5613 23.1366 18.2562 23.3559C17.5231 23.8828 17.222 24.5763 17.3986 25.46C17.6305 26.62 18.4772 27.5766 19.2871 28.3855C20.0051 29.1027 20.8368 29.9009 21.8474 30.1622C23.2359 30.5213 24.5526 29.3858 25.082 28.1648ZM10.3152 36.8145C9.3806 37.7777 8.46393 38.7783 7.56777 39.7819C7.16388 40.2341 6.76733 40.6938 6.38689 41.166C6.24003 41.3484 5.70752 41.8689 5.74262 42.1246C5.7726 42.3429 6.80778 41.5281 6.97539 41.378C7.31588 41.073 7.62999 40.7405 7.9655 40.4304C9.02237 39.4532 10.1149 38.4341 11.2437 37.5315C11.0481 37.3256 10.8383 37.1336 10.616 36.9568C10.5314 36.8898 10.445 36.8224 10.358 36.7549C10.3465 36.7766 10.3321 36.7966 10.3152 36.8145ZM9.77049 33.3447C8.91398 33.1464 8.93956 33.8664 9.28049 34.4462C9.52176 34.8565 9.86218 35.204 10.1961 35.5387C11.0919 36.4365 11.981 37.2309 12.6971 38.2793C12.9793 38.6924 13.2815 39.1677 13.6892 39.4712C14.2261 39.8709 14.2846 39.2909 14.2601 38.7953C14.2128 37.8383 13.7943 36.6748 13.223 35.7749C12.8344 35.5074 12.4804 35.1928 12.1692 34.8383C11.9891 34.6328 11.8217 34.4068 11.6685 34.168C11.6104 34.1914 11.5457 34.192 11.4871 34.1699C10.8912 33.9562 10.386 33.4874 9.77049 33.3447ZM12.2324 30.3832C11.5233 31.523 11.9421 32.9299 12.7058 33.9341C13.4762 34.9471 14.8275 35.6493 16.1153 35.5417C17.6396 35.4145 18.8397 34.1586 18.7801 32.673C18.6782 32.5683 18.5774 32.4625 18.4778 32.3556C17.5614 31.371 16.7578 30.2805 15.8064 29.3291C15.4939 29.0167 15.1764 28.7128 14.871 28.3976C14.4258 28.597 13.9487 28.6432 13.5241 28.9547C13.0152 29.3279 12.5646 29.849 12.2324 30.3832ZM14.7475 24.9953C13.3228 25.4764 16.2223 28.2341 16.6245 28.6726C17.5106 29.6388 18.2597 30.7244 19.1198 31.7134C20.0213 32.7499 21.1593 34.0591 22.5815 34.3005C22.9206 34.358 23.8083 34.4032 23.6049 33.7666C23.5458 33.5814 23.1442 33.4084 22.9884 33.2943C22.4502 32.9002 21.922 32.5 21.4439 32.0327C21.0336 31.6316 20.3104 30.9809 19.9104 30.3106C19.585 30.0327 19.2807 29.7299 18.9962 29.4349C18.1433 28.5504 17.2383 27.5785 16.7673 26.4198C16.7362 26.3845 16.7054 26.3486 16.6739 26.3142C16.3088 25.9169 15.3775 24.7827 14.7475 24.9953ZM19.3141 21.8728C19.6898 22.2496 20.0986 22.5913 20.4909 22.9502C21.1432 23.547 21.9444 23.9251 22.6265 24.4853C24.0208 25.6304 25.1561 27.0423 26.1683 28.5203C26.2748 28.6758 26.8801 29.6193 27.0416 29.549C27.2568 29.4552 27.0518 28.1467 27.0256 27.9926C26.8974 27.2406 26.6254 26.4952 26.3048 25.7942C26.2166 25.7208 26.1223 25.6521 26.0196 25.5896C25.4391 25.2369 24.823 25.0435 24.3009 24.5871C23.8153 24.1625 23.4785 23.6617 23.1314 23.1253C22.8932 22.7573 22.6859 22.4397 22.309 22.1909C22.0273 22.005 21.7216 21.8776 21.4541 21.667C20.9885 21.3003 20.6545 20.7961 20.3179 20.3135C19.8136 20.2227 19.272 20.1976 18.8543 20.4416C18.1718 20.8401 18.9507 21.5081 19.3141 21.8728Z"/>
</mask>
<path d="M19.6646 19.4531C19.5217 19.2478 19.4001 19.0348 19.3464 18.818C19.1365 17.9701 19.986 17.5721 20.6772 17.416C22.1524 17.0827 23.9156 17.8144 25.2009 18.8281C24.861 16.9068 26.0935 14.8067 27.7114 13.83C28.7374 13.2105 30.0134 12.9289 31.1933 13.1918C30.4596 12.223 29.9768 11.1215 30.1912 9.9757C30.3833 8.94851 31.4082 8.58236 32.0631 9.42839C32.5826 10.0996 32.9846 10.8515 33.5259 11.5128C33.6452 11.6585 33.7677 11.8014 33.8913 11.9435C33.9234 11.8955 33.9656 11.8551 34.0149 11.8251C35.5579 10.866 36.258 8.80728 38.2909 8.76925C38.7181 8.76126 39.2024 8.83513 39.6131 8.68702C40.2645 8.45206 40.5922 7.59628 40.4855 6.95773C40.3604 6.20844 39.5963 5.59517 38.8383 5.90496C38.4511 6.06319 38.117 6.33757 37.7281 6.50137C37.5892 6.55985 37.3997 6.57312 37.2899 6.44201C36.9017 5.97854 36.3658 5.30378 36.7332 4.68018C37.0802 4.09132 38.1087 3.71975 38.7423 3.5553C40.4223 3.11902 42.2786 4.22441 42.9248 5.78359C43.599 7.41057 42.9029 9.30058 41.5242 10.3225C40.7091 10.9266 39.8838 10.9687 38.9103 11.0623C38.0386 11.1461 37.565 11.7325 36.9766 12.3211C36.4813 12.8166 35.979 13.2824 35.4539 13.7413C35.8655 14.2357 36.2951 14.7293 36.8135 15.1038C37.2381 15.4106 37.7092 15.6479 38.1157 15.9817C38.728 16.4845 39.0937 17.1825 38.3954 17.7946C37.6361 18.46 36.4315 18.4236 35.5943 17.9354C35.1109 17.6535 34.7564 17.2811 34.447 16.8732C34.7615 19.0995 33.2482 21.752 31.0483 22.358C30.3309 22.5555 29.5185 22.5036 28.7325 22.2719C29.7279 23.6124 30.3633 25.3585 30.2953 26.8771C30.2601 27.6649 29.9732 28.7989 29.0883 29.0264C28.1959 29.2557 27.791 28.309 27.487 27.6437C27.5703 27.9333 27.6368 28.2274 27.6861 28.5246C27.7802 29.0881 28.0694 30.3843 27.24 30.5333C26.4951 30.6671 25.8839 29.643 25.472 28.8729C25.1014 30.1678 24.125 31.2559 22.6896 31.4014C22.4261 31.4277 22.1602 31.4166 21.8998 31.3682C22.3193 31.7547 22.7563 32.1214 23.2003 32.4835C23.7168 32.9048 24.6781 33.4967 24.2721 34.2885C23.8275 35.1552 22.5615 35.0686 21.793 34.8008C20.9392 34.5033 20.1702 33.9635 19.482 33.3482C19.4054 34.72 18.658 35.8631 17.1755 36.4246C16.2571 36.7725 15.2899 36.7117 14.4012 36.3866C15.021 37.403 15.4122 38.6124 15.1544 39.5921C14.9989 40.1832 14.4836 40.6664 13.8518 40.4729C13.2149 40.2778 12.7567 39.5256 12.3992 39.0168C12.0955 38.5845 11.8245 38.1972 11.516 37.8332C10.4933 39.2286 8.99401 40.3503 7.774 41.5566C7.32182 42.0036 5.78315 43.5828 5.10283 42.6058C4.63086 41.928 5.73193 40.8895 6.12658 40.4249C6.87315 39.546 7.65344 38.7083 8.43579 37.8623C8.88269 37.3791 9.26254 36.6723 9.86665 36.3696C9.08079 35.7425 8.32212 35.0401 8.03959 34.0547C7.7792 33.1464 8.29676 32.394 9.26635 32.3546C9.93502 32.3273 10.5836 32.6725 11.1329 33.0978C10.7716 32.1238 10.7011 31.0522 11.1498 30.1091C11.5441 29.2802 12.814 27.6835 14.0157 27.4049C13.5619 26.7896 13.1201 25.9972 13.3399 25.2111C13.5227 24.5577 14.1342 24.1133 14.8078 24.1983C15.3666 24.2688 15.9343 24.597 16.4553 25.0454C16.4338 24.4911 16.5415 23.9275 16.8311 23.4553C17.2161 22.8274 17.8006 22.5314 18.3937 22.2129C18.0308 21.8684 17.7149 21.4773 17.5964 21.0361C17.244 19.726 18.4855 19.3435 19.6646 19.4531ZM40.6609 9.91905C41.315 9.58347 41.8549 9.0034 42.1593 8.33509C42.825 6.87338 42.2104 5.23878 40.7956 4.50224C40.0318 4.10458 39.2405 4.0634 38.4506 4.39832C38.2219 4.49528 37.9098 4.60081 37.7198 4.76175C37.3091 5.10994 37.4199 5.41643 37.6565 5.73706C38.5519 5.31075 39.266 4.7704 40.2784 5.43006C41.2817 6.084 41.4342 7.39599 40.8816 8.39519C40.1922 9.64188 39.1173 9.28988 37.9343 9.48475C36.4049 9.73678 35.667 11.7209 34.393 12.4912C34.3889 12.4937 34.385 12.4947 34.3809 12.497C34.6395 12.7858 34.8982 13.0744 35.1466 13.3721L35.1568 13.3844C35.7017 12.7405 36.2408 12.0983 36.8138 11.4757C37.3189 10.9267 37.6761 10.4353 38.4383 10.2993C39.1882 10.1657 39.9605 10.2784 40.6609 9.91905ZM35.3169 16.3658C35.8713 16.8658 36.5187 17.2413 37.2732 17.2816C37.6137 17.2997 37.8927 17.3772 38.0426 16.9947C38.1286 16.7752 38.067 16.4526 37.8221 16.3672C37.728 16.2698 37.5681 16.1974 37.4532 16.1266C37.1521 15.9408 36.8327 15.7854 36.5336 15.5967C35.7173 15.0818 35.0779 14.3201 34.4257 13.621C33.6906 12.833 32.8929 12.1124 32.203 11.2818C31.9701 11.0014 31.6726 10.3955 31.3704 10.2057C30.7289 9.80296 30.8958 10.8891 30.9986 11.2645C31.5939 13.4393 33.7247 14.9296 35.3169 16.3658ZM33.2275 19.4568C33.7647 18.5865 34.0274 17.5408 33.8541 16.5968C33.4294 16.1305 33.1551 15.5474 32.7075 15.0994C32.1635 14.5547 31.4404 14.2494 30.6761 14.1767C29.4908 14.064 28.3097 14.5086 27.4503 15.3219C26.5765 16.1488 25.9709 17.4944 26.1849 18.7072C26.4101 19.9827 27.6985 20.801 28.8401 21.1892C30.6365 21.7997 32.251 21.0391 33.2275 19.4568ZM27.912 27.3004C28.0318 27.518 28.2575 28.083 28.5144 28.1255C28.8473 28.1806 29.0099 27.7467 29.0877 27.5207C29.7969 25.4592 28.1727 23.1356 27.04 21.4605C26.4809 21.0737 26.0038 20.5987 25.6772 20.0736C24.2187 19.2674 22.8161 17.7752 20.9921 18.2124C20.7559 18.269 20.3251 18.3391 20.4089 18.7024C20.4395 18.8355 20.8687 19.2329 20.948 19.3347C21.3553 19.8586 21.6767 20.4915 22.2206 20.8926C22.6581 21.2152 23.1267 21.3662 23.497 21.7865C23.8724 22.2125 24.0963 22.753 24.4113 23.2205C25.1088 24.2557 26.2192 24.7553 26.9709 25.7056C27.358 26.195 27.6132 26.7574 27.912 27.3004ZM25.082 28.1648C24.3133 26.9089 23.1367 25.4761 21.9091 24.6624C21.0409 24.0869 20.1466 23.6417 19.3239 22.988C19.2108 22.8982 19.0886 22.803 18.9632 22.7028C18.7743 22.9432 18.5613 23.1366 18.2562 23.3559C17.5231 23.8828 17.222 24.5763 17.3986 25.46C17.6305 26.62 18.4772 27.5766 19.2871 28.3855C20.0051 29.1027 20.8368 29.9009 21.8474 30.1622C23.2359 30.5213 24.5526 29.3858 25.082 28.1648ZM10.3152 36.8145C9.3806 37.7777 8.46393 38.7783 7.56777 39.7819C7.16388 40.2341 6.76733 40.6938 6.38689 41.166C6.24003 41.3484 5.70752 41.8689 5.74262 42.1246C5.7726 42.3429 6.80778 41.5281 6.97539 41.378C7.31588 41.073 7.62999 40.7405 7.9655 40.4304C9.02237 39.4532 10.1149 38.4341 11.2437 37.5315C11.0481 37.3256 10.8383 37.1336 10.616 36.9568C10.5314 36.8898 10.445 36.8224 10.358 36.7549C10.3465 36.7766 10.3321 36.7966 10.3152 36.8145ZM9.77049 33.3447C8.91398 33.1464 8.93956 33.8664 9.28049 34.4462C9.52176 34.8565 9.86218 35.204 10.1961 35.5387C11.0919 36.4365 11.981 37.2309 12.6971 38.2793C12.9793 38.6924 13.2815 39.1677 13.6892 39.4712C14.2261 39.8709 14.2846 39.2909 14.2601 38.7953C14.2128 37.8383 13.7943 36.6748 13.223 35.7749C12.8344 35.5074 12.4804 35.1928 12.1692 34.8383C11.9891 34.6328 11.8217 34.4068 11.6685 34.168C11.6104 34.1914 11.5457 34.192 11.4871 34.1699C10.8912 33.9562 10.386 33.4874 9.77049 33.3447ZM12.2324 30.3832C11.5233 31.523 11.9421 32.9299 12.7058 33.9341C13.4762 34.9471 14.8275 35.6493 16.1153 35.5417C17.6396 35.4145 18.8397 34.1586 18.7801 32.673C18.6782 32.5683 18.5774 32.4625 18.4778 32.3556C17.5614 31.371 16.7578 30.2805 15.8064 29.3291C15.4939 29.0167 15.1764 28.7128 14.871 28.3976C14.4258 28.597 13.9487 28.6432 13.5241 28.9547C13.0152 29.3279 12.5646 29.849 12.2324 30.3832ZM14.7475 24.9953C13.3228 25.4764 16.2223 28.2341 16.6245 28.6726C17.5106 29.6388 18.2597 30.7244 19.1198 31.7134C20.0213 32.7499 21.1593 34.0591 22.5815 34.3005C22.9206 34.358 23.8083 34.4032 23.6049 33.7666C23.5458 33.5814 23.1442 33.4084 22.9884 33.2943C22.4502 32.9002 21.922 32.5 21.4439 32.0327C21.0336 31.6316 20.3104 30.9809 19.9104 30.3106C19.585 30.0327 19.2807 29.7299 18.9962 29.4349C18.1433 28.5504 17.2383 27.5785 16.7673 26.4198C16.7362 26.3845 16.7054 26.3486 16.6739 26.3142C16.3088 25.9169 15.3775 24.7827 14.7475 24.9953ZM19.3141 21.8728C19.6898 22.2496 20.0986 22.5913 20.4909 22.9502C21.1432 23.547 21.9444 23.9251 22.6265 24.4853C24.0208 25.6304 25.1561 27.0423 26.1683 28.5203C26.2748 28.6758 26.8801 29.6193 27.0416 29.549C27.2568 29.4552 27.0518 28.1467 27.0256 27.9926C26.8974 27.2406 26.6254 26.4952 26.3048 25.7942C26.2166 25.7208 26.1223 25.6521 26.0196 25.5896C25.4391 25.2369 24.823 25.0435 24.3009 24.5871C23.8153 24.1625 23.4785 23.6617 23.1314 23.1253C22.8932 22.7573 22.6859 22.4397 22.309 22.1909C22.0273 22.005 21.7216 21.8776 21.4541 21.667C20.9885 21.3003 20.6545 20.7961 20.3179 20.3135C19.8136 20.2227 19.272 20.1976 18.8543 20.4416C18.1718 20.8401 18.9507 21.5081 19.3141 21.8728Z" fill="black"/>
<path d="M19.6646 19.4531C19.5217 19.2478 19.4001 19.0348 19.3464 18.818C19.1365 17.9701 19.986 17.5721 20.6772 17.416C22.1524 17.0827 23.9156 17.8144 25.2009 18.8281C24.861 16.9068 26.0935 14.8067 27.7114 13.83C28.7374 13.2105 30.0134 12.9289 31.1933 13.1918C30.4596 12.223 29.9768 11.1215 30.1912 9.9757C30.3833 8.94851 31.4082 8.58236 32.0631 9.42839C32.5826 10.0996 32.9846 10.8515 33.5259 11.5128C33.6452 11.6585 33.7677 11.8014 33.8913 11.9435C33.9234 11.8955 33.9656 11.8551 34.0149 11.8251C35.5579 10.866 36.258 8.80728 38.2909 8.76925C38.7181 8.76126 39.2024 8.83513 39.6131 8.68702C40.2645 8.45206 40.5922 7.59628 40.4855 6.95773C40.3604 6.20844 39.5963 5.59517 38.8383 5.90496C38.4511 6.06319 38.117 6.33757 37.7281 6.50137C37.5892 6.55985 37.3997 6.57312 37.2899 6.44201C36.9017 5.97854 36.3658 5.30378 36.7332 4.68018C37.0802 4.09132 38.1087 3.71975 38.7423 3.5553C40.4223 3.11902 42.2786 4.22441 42.9248 5.78359C43.599 7.41057 42.9029 9.30058 41.5242 10.3225C40.7091 10.9266 39.8838 10.9687 38.9103 11.0623C38.0386 11.1461 37.565 11.7325 36.9766 12.3211C36.4813 12.8166 35.979 13.2824 35.4539 13.7413C35.8655 14.2357 36.2951 14.7293 36.8135 15.1038C37.2381 15.4106 37.7092 15.6479 38.1157 15.9817C38.728 16.4845 39.0937 17.1825 38.3954 17.7946C37.6361 18.46 36.4315 18.4236 35.5943 17.9354C35.1109 17.6535 34.7564 17.2811 34.447 16.8732C34.7615 19.0995 33.2482 21.752 31.0483 22.358C30.3309 22.5555 29.5185 22.5036 28.7325 22.2719C29.7279 23.6124 30.3633 25.3585 30.2953 26.8771C30.2601 27.6649 29.9732 28.7989 29.0883 29.0264C28.1959 29.2557 27.791 28.309 27.487 27.6437C27.5703 27.9333 27.6368 28.2274 27.6861 28.5246C27.7802 29.0881 28.0694 30.3843 27.24 30.5333C26.4951 30.6671 25.8839 29.643 25.472 28.8729C25.1014 30.1678 24.125 31.2559 22.6896 31.4014C22.4261 31.4277 22.1602 31.4166 21.8998 31.3682C22.3193 31.7547 22.7563 32.1214 23.2003 32.4835C23.7168 32.9048 24.6781 33.4967 24.2721 34.2885C23.8275 35.1552 22.5615 35.0686 21.793 34.8008C20.9392 34.5033 20.1702 33.9635 19.482 33.3482C19.4054 34.72 18.658 35.8631 17.1755 36.4246C16.2571 36.7725 15.2899 36.7117 14.4012 36.3866C15.021 37.403 15.4122 38.6124 15.1544 39.5921C14.9989 40.1832 14.4836 40.6664 13.8518 40.4729C13.2149 40.2778 12.7567 39.5256 12.3992 39.0168C12.0955 38.5845 11.8245 38.1972 11.516 37.8332C10.4933 39.2286 8.99401 40.3503 7.774 41.5566C7.32182 42.0036 5.78315 43.5828 5.10283 42.6058C4.63086 41.928 5.73193 40.8895 6.12658 40.4249C6.87315 39.546 7.65344 38.7083 8.43579 37.8623C8.88269 37.3791 9.26254 36.6723 9.86665 36.3696C9.08079 35.7425 8.32212 35.0401 8.03959 34.0547C7.7792 33.1464 8.29676 32.394 9.26635 32.3546C9.93502 32.3273 10.5836 32.6725 11.1329 33.0978C10.7716 32.1238 10.7011 31.0522 11.1498 30.1091C11.5441 29.2802 12.814 27.6835 14.0157 27.4049C13.5619 26.7896 13.1201 25.9972 13.3399 25.2111C13.5227 24.5577 14.1342 24.1133 14.8078 24.1983C15.3666 24.2688 15.9343 24.597 16.4553 25.0454C16.4338 24.4911 16.5415 23.9275 16.8311 23.4553C17.2161 22.8274 17.8006 22.5314 18.3937 22.2129C18.0308 21.8684 17.7149 21.4773 17.5964 21.0361C17.244 19.726 18.4855 19.3435 19.6646 19.4531ZM40.6609 9.91905C41.315 9.58347 41.8549 9.0034 42.1593 8.33509C42.825 6.87338 42.2104 5.23878 40.7956 4.50224C40.0318 4.10458 39.2405 4.0634 38.4506 4.39832C38.2219 4.49528 37.9098 4.60081 37.7198 4.76175C37.3091 5.10994 37.4199 5.41643 37.6565 5.73706C38.5519 5.31075 39.266 4.7704 40.2784 5.43006C41.2817 6.084 41.4342 7.39599 40.8816 8.39519C40.1922 9.64188 39.1173 9.28988 37.9343 9.48475C36.4049 9.73678 35.667 11.7209 34.393 12.4912C34.3889 12.4937 34.385 12.4947 34.3809 12.497C34.6395 12.7858 34.8982 13.0744 35.1466 13.3721L35.1568 13.3844C35.7017 12.7405 36.2408 12.0983 36.8138 11.4757C37.3189 10.9267 37.6761 10.4353 38.4383 10.2993C39.1882 10.1657 39.9605 10.2784 40.6609 9.91905ZM35.3169 16.3658C35.8713 16.8658 36.5187 17.2413 37.2732 17.2816C37.6137 17.2997 37.8927 17.3772 38.0426 16.9947C38.1286 16.7752 38.067 16.4526 37.8221 16.3672C37.728 16.2698 37.5681 16.1974 37.4532 16.1266C37.1521 15.9408 36.8327 15.7854 36.5336 15.5967C35.7173 15.0818 35.0779 14.3201 34.4257 13.621C33.6906 12.833 32.8929 12.1124 32.203 11.2818C31.9701 11.0014 31.6726 10.3955 31.3704 10.2057C30.7289 9.80296 30.8958 10.8891 30.9986 11.2645C31.5939 13.4393 33.7247 14.9296 35.3169 16.3658ZM33.2275 19.4568C33.7647 18.5865 34.0274 17.5408 33.8541 16.5968C33.4294 16.1305 33.1551 15.5474 32.7075 15.0994C32.1635 14.5547 31.4404 14.2494 30.6761 14.1767C29.4908 14.064 28.3097 14.5086 27.4503 15.3219C26.5765 16.1488 25.9709 17.4944 26.1849 18.7072C26.4101 19.9827 27.6985 20.801 28.8401 21.1892C30.6365 21.7997 32.251 21.0391 33.2275 19.4568ZM27.912 27.3004C28.0318 27.518 28.2575 28.083 28.5144 28.1255C28.8473 28.1806 29.0099 27.7467 29.0877 27.5207C29.7969 25.4592 28.1727 23.1356 27.04 21.4605C26.4809 21.0737 26.0038 20.5987 25.6772 20.0736C24.2187 19.2674 22.8161 17.7752 20.9921 18.2124C20.7559 18.269 20.3251 18.3391 20.4089 18.7024C20.4395 18.8355 20.8687 19.2329 20.948 19.3347C21.3553 19.8586 21.6767 20.4915 22.2206 20.8926C22.6581 21.2152 23.1267 21.3662 23.497 21.7865C23.8724 22.2125 24.0963 22.753 24.4113 23.2205C25.1088 24.2557 26.2192 24.7553 26.9709 25.7056C27.358 26.195 27.6132 26.7574 27.912 27.3004ZM25.082 28.1648C24.3133 26.9089 23.1367 25.4761 21.9091 24.6624C21.0409 24.0869 20.1466 23.6417 19.3239 22.988C19.2108 22.8982 19.0886 22.803 18.9632 22.7028C18.7743 22.9432 18.5613 23.1366 18.2562 23.3559C17.5231 23.8828 17.222 24.5763 17.3986 25.46C17.6305 26.62 18.4772 27.5766 19.2871 28.3855C20.0051 29.1027 20.8368 29.9009 21.8474 30.1622C23.2359 30.5213 24.5526 29.3858 25.082 28.1648ZM10.3152 36.8145C9.3806 37.7777 8.46393 38.7783 7.56777 39.7819C7.16388 40.2341 6.76733 40.6938 6.38689 41.166C6.24003 41.3484 5.70752 41.8689 5.74262 42.1246C5.7726 42.3429 6.80778 41.5281 6.97539 41.378C7.31588 41.073 7.62999 40.7405 7.9655 40.4304C9.02237 39.4532 10.1149 38.4341 11.2437 37.5315C11.0481 37.3256 10.8383 37.1336 10.616 36.9568C10.5314 36.8898 10.445 36.8224 10.358 36.7549C10.3465 36.7766 10.3321 36.7966 10.3152 36.8145ZM9.77049 33.3447C8.91398 33.1464 8.93956 33.8664 9.28049 34.4462C9.52176 34.8565 9.86218 35.204 10.1961 35.5387C11.0919 36.4365 11.981 37.2309 12.6971 38.2793C12.9793 38.6924 13.2815 39.1677 13.6892 39.4712C14.2261 39.8709 14.2846 39.2909 14.2601 38.7953C14.2128 37.8383 13.7943 36.6748 13.223 35.7749C12.8344 35.5074 12.4804 35.1928 12.1692 34.8383C11.9891 34.6328 11.8217 34.4068 11.6685 34.168C11.6104 34.1914 11.5457 34.192 11.4871 34.1699C10.8912 33.9562 10.386 33.4874 9.77049 33.3447ZM12.2324 30.3832C11.5233 31.523 11.9421 32.9299 12.7058 33.9341C13.4762 34.9471 14.8275 35.6493 16.1153 35.5417C17.6396 35.4145 18.8397 34.1586 18.7801 32.673C18.6782 32.5683 18.5774 32.4625 18.4778 32.3556C17.5614 31.371 16.7578 30.2805 15.8064 29.3291C15.4939 29.0167 15.1764 28.7128 14.871 28.3976C14.4258 28.597 13.9487 28.6432 13.5241 28.9547C13.0152 29.3279 12.5646 29.849 12.2324 30.3832ZM14.7475 24.9953C13.3228 25.4764 16.2223 28.2341 16.6245 28.6726C17.5106 29.6388 18.2597 30.7244 19.1198 31.7134C20.0213 32.7499 21.1593 34.0591 22.5815 34.3005C22.9206 34.358 23.8083 34.4032 23.6049 33.7666C23.5458 33.5814 23.1442 33.4084 22.9884 33.2943C22.4502 32.9002 21.922 32.5 21.4439 32.0327C21.0336 31.6316 20.3104 30.9809 19.9104 30.3106C19.585 30.0327 19.2807 29.7299 18.9962 29.4349C18.1433 28.5504 17.2383 27.5785 16.7673 26.4198C16.7362 26.3845 16.7054 26.3486 16.6739 26.3142C16.3088 25.9169 15.3775 24.7827 14.7475 24.9953ZM19.3141 21.8728C19.6898 22.2496 20.0986 22.5913 20.4909 22.9502C21.1432 23.547 21.9444 23.9251 22.6265 24.4853C24.0208 25.6304 25.1561 27.0423 26.1683 28.5203C26.2748 28.6758 26.8801 29.6193 27.0416 29.549C27.2568 29.4552 27.0518 28.1467 27.0256 27.9926C26.8974 27.2406 26.6254 26.4952 26.3048 25.7942C26.2166 25.7208 26.1223 25.6521 26.0196 25.5896C25.4391 25.2369 24.823 25.0435 24.3009 24.5871C23.8153 24.1625 23.4785 23.6617 23.1314 23.1253C22.8932 22.7573 22.6859 22.4397 22.309 22.1909C22.0273 22.005 21.7216 21.8776 21.4541 21.667C20.9885 21.3003 20.6545 20.7961 20.3179 20.3135C19.8136 20.2227 19.272 20.1976 18.8543 20.4416C18.1718 20.8401 18.9507 21.5081 19.3141 21.8728Z" stroke="black" stroke-width="0.6" mask="url(#path-1-outside-1_361_820)"/>
<mask id="path-2-outside-2_361_820" maskUnits="userSpaceOnUse" x="17.6389" y="-0.153467" width="44.0172" height="55.4679" fill="black">
<rect fill="white" x="17.6389" y="-0.153467" width="44.0172" height="55.4679"/>
<path d="M34.4053 24.0768C34.2219 23.9067 34.0578 23.7245 33.9591 23.5241C33.5733 22.7404 34.3186 22.1706 34.9606 21.8707C36.3309 21.2308 38.2095 21.57 39.6813 22.2865C38.9398 20.4818 39.6965 18.1673 41.0691 16.8683C41.9396 16.0444 43.1263 15.4974 44.3352 15.5029C43.4118 14.7126 42.7055 13.7393 42.6708 12.5741C42.6396 11.5296 43.5629 10.9535 44.3831 11.6405C45.0337 12.1857 45.5866 12.8346 46.2564 13.3654C46.404 13.4823 46.5542 13.5959 46.7052 13.7083C46.7264 13.6546 46.759 13.6061 46.8008 13.5663C48.1039 12.3005 48.3493 10.1399 50.3274 9.66954C50.7431 9.57071 51.232 9.5397 51.6018 9.30746C52.1881 8.93911 52.3259 8.03317 52.0857 7.432C51.8037 6.72659 50.9265 6.29021 50.2519 6.7544C49.9073 6.99149 49.6394 7.33075 49.2943 7.57366C49.171 7.66041 48.9888 7.71374 48.8535 7.60904C48.3755 7.23892 47.7081 6.69385 47.9342 6.00629C48.1478 5.35701 49.0735 4.77483 49.6575 4.47913C51.206 3.69492 53.2551 4.37939 54.2187 5.76509C55.2241 7.21104 54.9467 9.20598 53.8174 10.4982C53.1498 11.2621 52.3524 11.4791 51.4212 11.7779C50.5874 12.0456 50.2496 12.7194 49.8001 13.4199C49.4217 14.0095 49.0302 14.5717 48.615 15.1319C49.1225 15.5273 49.6474 15.918 50.2337 16.1735C50.7139 16.3827 51.2248 16.5142 51.6931 16.7537C52.3984 17.1145 52.9044 17.7185 52.3526 18.4653C51.7526 19.2773 50.5678 19.4984 49.6458 19.1997C49.1134 19.0274 48.6877 18.7391 48.2985 18.4064C49.0802 20.5146 48.1668 23.4286 46.1465 24.4894C45.4878 24.8353 44.6829 24.9577 43.8656 24.8988C45.1237 25.9964 46.1166 27.5671 46.3738 29.0653C46.5072 29.8424 46.4685 31.0115 45.6524 31.4223C44.8293 31.8365 44.2321 30.9978 43.7933 30.4126C43.9364 30.6778 44.064 30.951 44.1756 31.2309C44.3875 31.7614 44.9462 32.9662 44.1676 33.2885C43.4684 33.5779 42.653 32.7076 42.0865 32.0429C42.0003 33.3871 41.2781 34.6582 39.9068 35.1062C39.6549 35.1881 39.3927 35.2338 39.128 35.242C39.6202 35.5303 40.1253 35.7955 40.6363 36.0547C41.2307 36.3562 42.2961 36.7297 42.068 37.5898C41.8183 38.5313 40.5629 38.7165 39.755 38.6186C38.8575 38.5099 37.9911 38.1463 37.1876 37.6917C37.4051 39.0484 36.9184 40.3245 35.5896 41.189C34.7664 41.7245 33.8085 41.8713 32.8709 41.743C33.693 42.604 34.333 43.7023 34.2898 44.7144C34.2638 45.3251 33.8633 45.907 33.2048 45.8525C32.541 45.7976 31.933 45.1603 31.4753 44.7394C31.0864 44.3817 30.7392 44.061 30.3602 43.7711C29.6583 45.3524 28.4324 46.7678 27.4975 48.2063C27.1509 48.7395 25.9841 50.6102 25.1112 49.8006C24.5056 49.2389 25.3602 47.9897 25.6468 47.4517C26.1889 46.4339 26.7728 45.4491 27.3569 44.4559C27.6906 43.8885 27.9111 43.1171 28.4368 42.6926C27.5354 42.2473 26.6445 41.7227 26.1585 40.8202C25.7105 39.9881 26.0559 39.1428 26.9948 38.8976C27.6423 38.7285 28.3496 38.9276 28.9769 39.2261C28.4163 38.3514 28.1191 37.3195 28.3565 36.3024C28.5652 35.4085 29.4658 33.5779 30.5804 33.0497C30.006 32.5452 29.4055 31.8651 29.4528 31.0502C29.4921 30.373 29.9949 29.8085 30.6712 29.748C31.2321 29.6978 31.8567 29.8974 32.4613 30.2245C32.3222 29.6876 32.3073 29.1139 32.4896 28.5909C32.732 27.8953 33.2401 27.4816 33.7516 27.0441C33.3237 26.7848 32.9317 26.47 32.7219 26.0642C32.0984 24.8592 33.23 24.221 34.4053 24.0768ZM52.888 10.2879C53.4556 9.8207 53.8595 9.13891 54.0145 8.4211C54.3534 6.85112 53.4046 5.38501 51.8654 4.96683C51.0344 4.74105 50.2525 4.86943 49.5521 5.36496C49.3493 5.50843 49.0669 5.67804 48.9156 5.87575C48.5884 6.30347 48.762 6.57931 49.0615 6.84216C49.8455 6.23486 50.4281 5.55474 51.5577 5.98355C52.6774 6.40869 53.1059 7.65806 52.7789 8.75206C52.371 10.117 51.2457 10.0021 50.1315 10.4446C48.6909 11.0167 48.3927 13.1125 47.3121 14.1366C47.3086 14.1399 47.305 14.1416 47.3015 14.1448C47.6157 14.3718 47.9299 14.5987 48.2361 14.8367L48.2486 14.8465C48.6439 14.1012 49.0338 13.359 49.4609 12.6286C49.8374 11.9846 50.0817 11.4283 50.7975 11.1331C51.5017 10.8427 52.2803 10.7883 52.888 10.2879ZM49.0403 17.7253C49.6886 18.0957 50.401 18.3246 51.1469 18.2032C51.4834 18.1484 51.7725 18.1647 51.8375 17.759C51.8747 17.5263 51.7458 17.2242 51.4884 17.1929C51.3757 17.1177 51.2039 17.0812 51.0766 17.0364C50.7429 16.9191 50.3977 16.8353 50.0652 16.7146C49.158 16.3855 48.3709 15.7775 47.5848 15.2335C46.6986 14.6201 45.7657 14.0861 44.9147 13.4215C44.6274 13.1972 44.2076 12.6686 43.8719 12.5476C43.1593 12.2908 43.5539 13.3164 43.7342 13.6613C44.7793 15.6593 47.1787 16.6614 49.0403 17.7253ZM47.6576 21.1905C47.9969 20.2258 48.0308 19.1481 47.6603 18.2627C47.1461 17.8976 46.7538 17.3864 46.221 17.044C45.5734 16.6277 44.8019 16.4835 44.0397 16.5754C42.8576 16.7178 41.7983 17.4038 41.132 18.3816C40.4544 19.3757 40.1494 20.8194 40.617 21.9588C41.1087 23.157 42.5419 23.682 43.74 23.818C45.6252 24.0317 47.0406 22.9446 47.6576 21.1905ZM44.1354 29.9867C44.2988 30.1737 44.6397 30.6776 44.8998 30.6644C45.2368 30.6473 45.3032 30.1887 45.331 29.9514C45.5847 27.7861 43.5027 25.8619 42.0391 24.4667C41.4104 24.2078 40.8431 23.8454 40.412 23.4019C38.8153 22.925 37.1269 21.7659 35.438 22.5818C35.2192 22.6874 34.8133 22.8477 34.9725 23.1848C35.0308 23.3083 35.5349 23.6051 35.634 23.6877C36.1436 24.1128 36.5924 24.6627 37.2093 24.9386C37.7056 25.1606 38.1956 25.2083 38.6469 25.54C39.1045 25.8763 39.4384 26.3567 39.8458 26.7463C40.7478 27.6091 41.9392 27.8607 42.876 28.6289C43.3585 29.0246 43.7277 29.5198 44.1354 29.9867ZM41.5545 31.4342C40.5359 30.3709 39.081 29.2217 37.7082 28.6883C36.7374 28.311 35.7687 28.0666 34.8256 27.6032C34.696 27.5395 34.5563 27.4726 34.4125 27.4014C34.2791 27.6764 34.1122 27.9108 33.8609 28.1901C33.2569 28.8611 33.1104 29.6028 33.4713 30.4286C33.945 31.5126 34.9761 32.2668 35.9398 32.8846C36.7941 33.4322 37.7768 34.035 38.8199 34.075C40.253 34.13 41.2975 32.74 41.5545 31.4342ZM28.9698 43.0316C28.262 44.1719 27.5796 45.3448 26.9178 46.5163C26.6196 47.0442 26.3301 47.5779 26.059 48.1203C25.9544 48.3297 25.545 48.9517 25.6338 49.1941C25.7096 49.401 26.5474 48.3844 26.6791 48.202C26.9468 47.8314 27.1829 47.4397 27.4446 47.0652C28.269 45.8853 29.1193 44.6568 30.0299 43.5344C29.7948 43.3749 29.549 43.232 29.2941 43.1067C29.1971 43.0592 29.0984 43.0118 28.999 42.9643C28.9924 42.9879 28.9826 43.0106 28.9698 43.0316ZM27.6984 39.7577C26.8193 39.7463 26.9977 40.4444 27.4543 40.9383C27.7775 41.2877 28.1841 41.5547 28.5817 41.8105C29.6483 42.4969 30.6861 43.0835 31.6093 43.9553C31.9729 44.2988 32.3695 44.6988 32.8325 44.9084C33.4423 45.1846 33.3758 44.6054 33.2462 44.1264C32.9961 43.2015 32.3393 42.1539 31.5894 41.3963C31.1527 41.2178 30.7399 40.9859 30.3602 40.7059C30.1405 40.5434 29.9287 40.3583 29.7282 40.1576C29.6764 40.1928 29.6133 40.2072 29.5514 40.1981C28.9236 40.1163 28.3301 39.7659 27.6984 39.7577ZM29.4727 36.3396C29.0228 37.6043 29.7317 38.8896 30.6919 39.7081C31.6604 40.5336 33.1303 40.9318 34.3656 40.5523C35.8278 40.1032 36.7327 38.6204 36.358 37.1816C36.2361 37.101 36.1151 37.0191 35.995 36.9359C34.8899 36.1692 33.8723 35.2749 32.74 34.5482C32.3682 34.3095 31.9932 34.0802 31.6276 33.8373C31.2351 34.127 30.7789 34.2738 30.4304 34.6686C30.0127 35.1417 29.6834 35.7469 29.4727 36.3396ZM30.782 30.5395C29.4926 31.3131 32.9131 33.3896 33.3995 33.7324C34.4711 34.4876 35.4343 35.3887 36.4854 36.1717C37.5871 36.9923 38.9779 38.029 40.4188 37.9618C40.7624 37.9457 41.6394 37.8007 41.305 37.222C41.2078 37.0537 40.7785 36.9703 40.602 36.892C39.9922 36.6216 39.3908 36.3432 38.8242 35.9884C38.3378 35.684 37.4925 35.2024 36.9589 34.6327C36.5818 34.4304 36.2199 34.1995 35.8791 33.9718C34.8573 33.2894 33.7661 32.5326 33.059 31.5009C33.021 31.4731 32.9833 31.4445 32.9453 31.4176C32.5039 31.1072 31.3522 30.1975 30.782 30.5395ZM34.5784 26.5157C35.0258 26.8038 35.498 27.0505 35.9578 27.3176C36.7223 27.7616 37.5856 27.9604 38.3715 28.3624C39.9777 29.1841 41.3878 30.3217 42.6917 31.5501C42.8288 31.6792 43.6212 32.4722 43.7641 32.369C43.9543 32.2315 43.4753 30.9968 43.4168 30.8518C43.1314 30.1444 42.7067 29.474 42.2441 28.8574C42.1423 28.8046 42.0356 28.7575 41.9219 28.7184C41.2796 28.4974 40.6364 28.4397 40.029 28.105C39.4642 27.7937 39.0284 27.3761 38.575 26.9261C38.2638 26.6172 37.9936 26.3511 37.5723 26.1884C37.2575 26.0667 36.9317 26.0074 36.6254 25.8586C36.0924 25.5996 35.6586 25.1781 35.227 24.7782C34.7149 24.797 34.1804 24.8879 33.8243 25.2153C33.2423 25.7501 34.1457 26.2368 34.5784 26.5157Z"/>
</mask>
<path d="M34.4053 24.0768C34.2219 23.9067 34.0578 23.7245 33.9591 23.5241C33.5733 22.7404 34.3186 22.1706 34.9606 21.8707C36.3309 21.2308 38.2095 21.57 39.6813 22.2865C38.9398 20.4818 39.6965 18.1673 41.0691 16.8683C41.9396 16.0444 43.1263 15.4974 44.3352 15.5029C43.4118 14.7126 42.7055 13.7393 42.6708 12.5741C42.6396 11.5296 43.5629 10.9535 44.3831 11.6405C45.0337 12.1857 45.5866 12.8346 46.2564 13.3654C46.404 13.4823 46.5542 13.5959 46.7052 13.7083C46.7264 13.6546 46.759 13.6061 46.8008 13.5663C48.1039 12.3005 48.3493 10.1399 50.3274 9.66954C50.7431 9.57071 51.232 9.5397 51.6018 9.30746C52.1881 8.93911 52.3259 8.03317 52.0857 7.432C51.8037 6.72659 50.9265 6.29021 50.2519 6.7544C49.9073 6.99149 49.6394 7.33075 49.2943 7.57366C49.171 7.66041 48.9888 7.71374 48.8535 7.60904C48.3755 7.23892 47.7081 6.69385 47.9342 6.00629C48.1478 5.35701 49.0735 4.77483 49.6575 4.47913C51.206 3.69492 53.2551 4.37939 54.2187 5.76509C55.2241 7.21104 54.9467 9.20598 53.8174 10.4982C53.1498 11.2621 52.3524 11.4791 51.4212 11.7779C50.5874 12.0456 50.2496 12.7194 49.8001 13.4199C49.4217 14.0095 49.0302 14.5717 48.615 15.1319C49.1225 15.5273 49.6474 15.918 50.2337 16.1735C50.7139 16.3827 51.2248 16.5142 51.6931 16.7537C52.3984 17.1145 52.9044 17.7185 52.3526 18.4653C51.7526 19.2773 50.5678 19.4984 49.6458 19.1997C49.1134 19.0274 48.6877 18.7391 48.2985 18.4064C49.0802 20.5146 48.1668 23.4286 46.1465 24.4894C45.4878 24.8353 44.6829 24.9577 43.8656 24.8988C45.1237 25.9964 46.1166 27.5671 46.3738 29.0653C46.5072 29.8424 46.4685 31.0115 45.6524 31.4223C44.8293 31.8365 44.2321 30.9978 43.7933 30.4126C43.9364 30.6778 44.064 30.951 44.1756 31.2309C44.3875 31.7614 44.9462 32.9662 44.1676 33.2885C43.4684 33.5779 42.653 32.7076 42.0865 32.0429C42.0003 33.3871 41.2781 34.6582 39.9068 35.1062C39.6549 35.1881 39.3927 35.2338 39.128 35.242C39.6202 35.5303 40.1253 35.7955 40.6363 36.0547C41.2307 36.3562 42.2961 36.7297 42.068 37.5898C41.8183 38.5313 40.5629 38.7165 39.755 38.6186C38.8575 38.5099 37.9911 38.1463 37.1876 37.6917C37.4051 39.0484 36.9184 40.3245 35.5896 41.189C34.7664 41.7245 33.8085 41.8713 32.8709 41.743C33.693 42.604 34.333 43.7023 34.2898 44.7144C34.2638 45.3251 33.8633 45.907 33.2048 45.8525C32.541 45.7976 31.933 45.1603 31.4753 44.7394C31.0864 44.3817 30.7392 44.061 30.3602 43.7711C29.6583 45.3524 28.4324 46.7678 27.4975 48.2063C27.1509 48.7395 25.9841 50.6102 25.1112 49.8006C24.5056 49.2389 25.3602 47.9897 25.6468 47.4517C26.1889 46.4339 26.7728 45.4491 27.3569 44.4559C27.6906 43.8885 27.9111 43.1171 28.4368 42.6926C27.5354 42.2473 26.6445 41.7227 26.1585 40.8202C25.7105 39.9881 26.0559 39.1428 26.9948 38.8976C27.6423 38.7285 28.3496 38.9276 28.9769 39.2261C28.4163 38.3514 28.1191 37.3195 28.3565 36.3024C28.5652 35.4085 29.4658 33.5779 30.5804 33.0497C30.006 32.5452 29.4055 31.8651 29.4528 31.0502C29.4921 30.373 29.9949 29.8085 30.6712 29.748C31.2321 29.6978 31.8567 29.8974 32.4613 30.2245C32.3222 29.6876 32.3073 29.1139 32.4896 28.5909C32.732 27.8953 33.2401 27.4816 33.7516 27.0441C33.3237 26.7848 32.9317 26.47 32.7219 26.0642C32.0984 24.8592 33.23 24.221 34.4053 24.0768ZM52.888 10.2879C53.4556 9.8207 53.8595 9.13891 54.0145 8.4211C54.3534 6.85112 53.4046 5.38501 51.8654 4.96683C51.0344 4.74105 50.2525 4.86943 49.5521 5.36496C49.3493 5.50843 49.0669 5.67804 48.9156 5.87575C48.5884 6.30347 48.762 6.57931 49.0615 6.84216C49.8455 6.23486 50.4281 5.55474 51.5577 5.98355C52.6774 6.40869 53.1059 7.65806 52.7789 8.75206C52.371 10.117 51.2457 10.0021 50.1315 10.4446C48.6909 11.0167 48.3927 13.1125 47.3121 14.1366C47.3086 14.1399 47.305 14.1416 47.3015 14.1448C47.6157 14.3718 47.9299 14.5987 48.2361 14.8367L48.2486 14.8465C48.6439 14.1012 49.0338 13.359 49.4609 12.6286C49.8374 11.9846 50.0817 11.4283 50.7975 11.1331C51.5017 10.8427 52.2803 10.7883 52.888 10.2879ZM49.0403 17.7253C49.6886 18.0957 50.401 18.3246 51.1469 18.2032C51.4834 18.1484 51.7725 18.1647 51.8375 17.759C51.8747 17.5263 51.7458 17.2242 51.4884 17.1929C51.3757 17.1177 51.2039 17.0812 51.0766 17.0364C50.7429 16.9191 50.3977 16.8353 50.0652 16.7146C49.158 16.3855 48.3709 15.7775 47.5848 15.2335C46.6986 14.6201 45.7657 14.0861 44.9147 13.4215C44.6274 13.1972 44.2076 12.6686 43.8719 12.5476C43.1593 12.2908 43.5539 13.3164 43.7342 13.6613C44.7793 15.6593 47.1787 16.6614 49.0403 17.7253ZM47.6576 21.1905C47.9969 20.2258 48.0308 19.1481 47.6603 18.2627C47.1461 17.8976 46.7538 17.3864 46.221 17.044C45.5734 16.6277 44.8019 16.4835 44.0397 16.5754C42.8576 16.7178 41.7983 17.4038 41.132 18.3816C40.4544 19.3757 40.1494 20.8194 40.617 21.9588C41.1087 23.157 42.5419 23.682 43.74 23.818C45.6252 24.0317 47.0406 22.9446 47.6576 21.1905ZM44.1354 29.9867C44.2988 30.1737 44.6397 30.6776 44.8998 30.6644C45.2368 30.6473 45.3032 30.1887 45.331 29.9514C45.5847 27.7861 43.5027 25.8619 42.0391 24.4667C41.4104 24.2078 40.8431 23.8454 40.412 23.4019C38.8153 22.925 37.1269 21.7659 35.438 22.5818C35.2192 22.6874 34.8133 22.8477 34.9725 23.1848C35.0308 23.3083 35.5349 23.6051 35.634 23.6877C36.1436 24.1128 36.5924 24.6627 37.2093 24.9386C37.7056 25.1606 38.1956 25.2083 38.6469 25.54C39.1045 25.8763 39.4384 26.3567 39.8458 26.7463C40.7478 27.6091 41.9392 27.8607 42.876 28.6289C43.3585 29.0246 43.7277 29.5198 44.1354 29.9867ZM41.5545 31.4342C40.5359 30.3709 39.081 29.2217 37.7082 28.6883C36.7374 28.311 35.7687 28.0666 34.8256 27.6032C34.696 27.5395 34.5563 27.4726 34.4125 27.4014C34.2791 27.6764 34.1122 27.9108 33.8609 28.1901C33.2569 28.8611 33.1104 29.6028 33.4713 30.4286C33.945 31.5126 34.9761 32.2668 35.9398 32.8846C36.7941 33.4322 37.7768 34.035 38.8199 34.075C40.253 34.13 41.2975 32.74 41.5545 31.4342ZM28.9698 43.0316C28.262 44.1719 27.5796 45.3448 26.9178 46.5163C26.6196 47.0442 26.3301 47.5779 26.059 48.1203C25.9544 48.3297 25.545 48.9517 25.6338 49.1941C25.7096 49.401 26.5474 48.3844 26.6791 48.202C26.9468 47.8314 27.1829 47.4397 27.4446 47.0652C28.269 45.8853 29.1193 44.6568 30.0299 43.5344C29.7948 43.3749 29.549 43.232 29.2941 43.1067C29.1971 43.0592 29.0984 43.0118 28.999 42.9643C28.9924 42.9879 28.9826 43.0106 28.9698 43.0316ZM27.6984 39.7577C26.8193 39.7463 26.9977 40.4444 27.4543 40.9383C27.7775 41.2877 28.1841 41.5547 28.5817 41.8105C29.6483 42.4969 30.6861 43.0835 31.6093 43.9553C31.9729 44.2988 32.3695 44.6988 32.8325 44.9084C33.4423 45.1846 33.3758 44.6054 33.2462 44.1264C32.9961 43.2015 32.3393 42.1539 31.5894 41.3963C31.1527 41.2178 30.7399 40.9859 30.3602 40.7059C30.1405 40.5434 29.9287 40.3583 29.7282 40.1576C29.6764 40.1928 29.6133 40.2072 29.5514 40.1981C28.9236 40.1163 28.3301 39.7659 27.6984 39.7577ZM29.4727 36.3396C29.0228 37.6043 29.7317 38.8896 30.6919 39.7081C31.6604 40.5336 33.1303 40.9318 34.3656 40.5523C35.8278 40.1032 36.7327 38.6204 36.358 37.1816C36.2361 37.101 36.1151 37.0191 35.995 36.9359C34.8899 36.1692 33.8723 35.2749 32.74 34.5482C32.3682 34.3095 31.9932 34.0802 31.6276 33.8373C31.2351 34.127 30.7789 34.2738 30.4304 34.6686C30.0127 35.1417 29.6834 35.7469 29.4727 36.3396ZM30.782 30.5395C29.4926 31.3131 32.9131 33.3896 33.3995 33.7324C34.4711 34.4876 35.4343 35.3887 36.4854 36.1717C37.5871 36.9923 38.9779 38.029 40.4188 37.9618C40.7624 37.9457 41.6394 37.8007 41.305 37.222C41.2078 37.0537 40.7785 36.9703 40.602 36.892C39.9922 36.6216 39.3908 36.3432 38.8242 35.9884C38.3378 35.684 37.4925 35.2024 36.9589 34.6327C36.5818 34.4304 36.2199 34.1995 35.8791 33.9718C34.8573 33.2894 33.7661 32.5326 33.059 31.5009C33.021 31.4731 32.9833 31.4445 32.9453 31.4176C32.5039 31.1072 31.3522 30.1975 30.782 30.5395ZM34.5784 26.5157C35.0258 26.8038 35.498 27.0505 35.9578 27.3176C36.7223 27.7616 37.5856 27.9604 38.3715 28.3624C39.9777 29.1841 41.3878 30.3217 42.6917 31.5501C42.8288 31.6792 43.6212 32.4722 43.7641 32.369C43.9543 32.2315 43.4753 30.9968 43.4168 30.8518C43.1314 30.1444 42.7067 29.474 42.2441 28.8574C42.1423 28.8046 42.0356 28.7575 41.9219 28.7184C41.2796 28.4974 40.6364 28.4397 40.029 28.105C39.4642 27.7937 39.0284 27.3761 38.575 26.9261C38.2638 26.6172 37.9936 26.3511 37.5723 26.1884C37.2575 26.0667 36.9317 26.0074 36.6254 25.8586C36.0924 25.5996 35.6586 25.1781 35.227 24.7782C34.7149 24.797 34.1804 24.8879 33.8243 25.2153C33.2423 25.7501 34.1457 26.2368 34.5784 26.5157Z" fill="black"/>
<path d="M34.4053 24.0768C34.2219 23.9067 34.0578 23.7245 33.9591 23.5241C33.5733 22.7404 34.3186 22.1706 34.9606 21.8707C36.3309 21.2308 38.2095 21.57 39.6813 22.2865C38.9398 20.4818 39.6965 18.1673 41.0691 16.8683C41.9396 16.0444 43.1263 15.4974 44.3352 15.5029C43.4118 14.7126 42.7055 13.7393 42.6708 12.5741C42.6396 11.5296 43.5629 10.9535 44.3831 11.6405C45.0337 12.1857 45.5866 12.8346 46.2564 13.3654C46.404 13.4823 46.5542 13.5959 46.7052 13.7083C46.7264 13.6546 46.759 13.6061 46.8008 13.5663C48.1039 12.3005 48.3493 10.1399 50.3274 9.66954C50.7431 9.57071 51.232 9.5397 51.6018 9.30746C52.1881 8.93911 52.3259 8.03317 52.0857 7.432C51.8037 6.72659 50.9265 6.29021 50.2519 6.7544C49.9073 6.99149 49.6394 7.33075 49.2943 7.57366C49.171 7.66041 48.9888 7.71374 48.8535 7.60904C48.3755 7.23892 47.7081 6.69385 47.9342 6.00629C48.1478 5.35701 49.0735 4.77483 49.6575 4.47913C51.206 3.69492 53.2551 4.37939 54.2187 5.76509C55.2241 7.21104 54.9467 9.20598 53.8174 10.4982C53.1498 11.2621 52.3524 11.4791 51.4212 11.7779C50.5874 12.0456 50.2496 12.7194 49.8001 13.4199C49.4217 14.0095 49.0302 14.5717 48.615 15.1319C49.1225 15.5273 49.6474 15.918 50.2337 16.1735C50.7139 16.3827 51.2248 16.5142 51.6931 16.7537C52.3984 17.1145 52.9044 17.7185 52.3526 18.4653C51.7526 19.2773 50.5678 19.4984 49.6458 19.1997C49.1134 19.0274 48.6877 18.7391 48.2985 18.4064C49.0802 20.5146 48.1668 23.4286 46.1465 24.4894C45.4878 24.8353 44.6829 24.9577 43.8656 24.8988C45.1237 25.9964 46.1166 27.5671 46.3738 29.0653C46.5072 29.8424 46.4685 31.0115 45.6524 31.4223C44.8293 31.8365 44.2321 30.9978 43.7933 30.4126C43.9364 30.6778 44.064 30.951 44.1756 31.2309C44.3875 31.7614 44.9462 32.9662 44.1676 33.2885C43.4684 33.5779 42.653 32.7076 42.0865 32.0429C42.0003 33.3871 41.2781 34.6582 39.9068 35.1062C39.6549 35.1881 39.3927 35.2338 39.128 35.242C39.6202 35.5303 40.1253 35.7955 40.6363 36.0547C41.2307 36.3562 42.2961 36.7297 42.068 37.5898C41.8183 38.5313 40.5629 38.7165 39.755 38.6186C38.8575 38.5099 37.9911 38.1463 37.1876 37.6917C37.4051 39.0484 36.9184 40.3245 35.5896 41.189C34.7664 41.7245 33.8085 41.8713 32.8709 41.743C33.693 42.604 34.333 43.7023 34.2898 44.7144C34.2638 45.3251 33.8633 45.907 33.2048 45.8525C32.541 45.7976 31.933 45.1603 31.4753 44.7394C31.0864 44.3817 30.7392 44.061 30.3602 43.7711C29.6583 45.3524 28.4324 46.7678 27.4975 48.2063C27.1509 48.7395 25.9841 50.6102 25.1112 49.8006C24.5056 49.2389 25.3602 47.9897 25.6468 47.4517C26.1889 46.4339 26.7728 45.4491 27.3569 44.4559C27.6906 43.8885 27.9111 43.1171 28.4368 42.6926C27.5354 42.2473 26.6445 41.7227 26.1585 40.8202C25.7105 39.9881 26.0559 39.1428 26.9948 38.8976C27.6423 38.7285 28.3496 38.9276 28.9769 39.2261C28.4163 38.3514 28.1191 37.3195 28.3565 36.3024C28.5652 35.4085 29.4658 33.5779 30.5804 33.0497C30.006 32.5452 29.4055 31.8651 29.4528 31.0502C29.4921 30.373 29.9949 29.8085 30.6712 29.748C31.2321 29.6978 31.8567 29.8974 32.4613 30.2245C32.3222 29.6876 32.3073 29.1139 32.4896 28.5909C32.732 27.8953 33.2401 27.4816 33.7516 27.0441C33.3237 26.7848 32.9317 26.47 32.7219 26.0642C32.0984 24.8592 33.23 24.221 34.4053 24.0768ZM52.888 10.2879C53.4556 9.8207 53.8595 9.13891 54.0145 8.4211C54.3534 6.85112 53.4046 5.38501 51.8654 4.96683C51.0344 4.74105 50.2525 4.86943 49.5521 5.36496C49.3493 5.50843 49.0669 5.67804 48.9156 5.87575C48.5884 6.30347 48.762 6.57931 49.0615 6.84216C49.8455 6.23486 50.4281 5.55474 51.5577 5.98355C52.6774 6.40869 53.1059 7.65806 52.7789 8.75206C52.371 10.117 51.2457 10.0021 50.1315 10.4446C48.6909 11.0167 48.3927 13.1125 47.3121 14.1366C47.3086 14.1399 47.305 14.1416 47.3015 14.1448C47.6157 14.3718 47.9299 14.5987 48.2361 14.8367L48.2486 14.8465C48.6439 14.1012 49.0338 13.359 49.4609 12.6286C49.8374 11.9846 50.0817 11.4283 50.7975 11.1331C51.5017 10.8427 52.2803 10.7883 52.888 10.2879ZM49.0403 17.7253C49.6886 18.0957 50.401 18.3246 51.1469 18.2032C51.4834 18.1484 51.7725 18.1647 51.8375 17.759C51.8747 17.5263 51.7458 17.2242 51.4884 17.1929C51.3757 17.1177 51.2039 17.0812 51.0766 17.0364C50.7429 16.9191 50.3977 16.8353 50.0652 16.7146C49.158 16.3855 48.3709 15.7775 47.5848 15.2335C46.6986 14.6201 45.7657 14.0861 44.9147 13.4215C44.6274 13.1972 44.2076 12.6686 43.8719 12.5476C43.1593 12.2908 43.5539 13.3164 43.7342 13.6613C44.7793 15.6593 47.1787 16.6614 49.0403 17.7253ZM47.6576 21.1905C47.9969 20.2258 48.0308 19.1481 47.6603 18.2627C47.1461 17.8976 46.7538 17.3864 46.221 17.044C45.5734 16.6277 44.8019 16.4835 44.0397 16.5754C42.8576 16.7178 41.7983 17.4038 41.132 18.3816C40.4544 19.3757 40.1494 20.8194 40.617 21.9588C41.1087 23.157 42.5419 23.682 43.74 23.818C45.6252 24.0317 47.0406 22.9446 47.6576 21.1905ZM44.1354 29.9867C44.2988 30.1737 44.6397 30.6776 44.8998 30.6644C45.2368 30.6473 45.3032 30.1887 45.331 29.9514C45.5847 27.7861 43.5027 25.8619 42.0391 24.4667C41.4104 24.2078 40.8431 23.8454 40.412 23.4019C38.8153 22.925 37.1269 21.7659 35.438 22.5818C35.2192 22.6874 34.8133 22.8477 34.9725 23.1848C35.0308 23.3083 35.5349 23.6051 35.634 23.6877C36.1436 24.1128 36.5924 24.6627 37.2093 24.9386C37.7056 25.1606 38.1956 25.2083 38.6469 25.54C39.1045 25.8763 39.4384 26.3567 39.8458 26.7463C40.7478 27.6091 41.9392 27.8607 42.876 28.6289C43.3585 29.0246 43.7277 29.5198 44.1354 29.9867ZM41.5545 31.4342C40.5359 30.3709 39.081 29.2217 37.7082 28.6883C36.7374 28.311 35.7687 28.0666 34.8256 27.6032C34.696 27.5395 34.5563 27.4726 34.4125 27.4014C34.2791 27.6764 34.1122 27.9108 33.8609 28.1901C33.2569 28.8611 33.1104 29.6028 33.4713 30.4286C33.945 31.5126 34.9761 32.2668 35.9398 32.8846C36.7941 33.4322 37.7768 34.035 38.8199 34.075C40.253 34.13 41.2975 32.74 41.5545 31.4342ZM28.9698 43.0316C28.262 44.1719 27.5796 45.3448 26.9178 46.5163C26.6196 47.0442 26.3301 47.5779 26.059 48.1203C25.9544 48.3297 25.545 48.9517 25.6338 49.1941C25.7096 49.401 26.5474 48.3844 26.6791 48.202C26.9468 47.8314 27.1829 47.4397 27.4446 47.0652C28.269 45.8853 29.1193 44.6568 30.0299 43.5344C29.7948 43.3749 29.549 43.232 29.2941 43.1067C29.1971 43.0592 29.0984 43.0118 28.999 42.9643C28.9924 42.9879 28.9826 43.0106 28.9698 43.0316ZM27.6984 39.7577C26.8193 39.7463 26.9977 40.4444 27.4543 40.9383C27.7775 41.2877 28.1841 41.5547 28.5817 41.8105C29.6483 42.4969 30.6861 43.0835 31.6093 43.9553C31.9729 44.2988 32.3695 44.6988 32.8325 44.9084C33.4423 45.1846 33.3758 44.6054 33.2462 44.1264C32.9961 43.2015 32.3393 42.1539 31.5894 41.3963C31.1527 41.2178 30.7399 40.9859 30.3602 40.7059C30.1405 40.5434 29.9287 40.3583 29.7282 40.1576C29.6764 40.1928 29.6133 40.2072 29.5514 40.1981C28.9236 40.1163 28.3301 39.7659 27.6984 39.7577ZM29.4727 36.3396C29.0228 37.6043 29.7317 38.8896 30.6919 39.7081C31.6604 40.5336 33.1303 40.9318 34.3656 40.5523C35.8278 40.1032 36.7327 38.6204 36.358 37.1816C36.2361 37.101 36.1151 37.0191 35.995 36.9359C34.8899 36.1692 33.8723 35.2749 32.74 34.5482C32.3682 34.3095 31.9932 34.0802 31.6276 33.8373C31.2351 34.127 30.7789 34.2738 30.4304 34.6686C30.0127 35.1417 29.6834 35.7469 29.4727 36.3396ZM30.782 30.5395C29.4926 31.3131 32.9131 33.3896 33.3995 33.7324C34.4711 34.4876 35.4343 35.3887 36.4854 36.1717C37.5871 36.9923 38.9779 38.029 40.4188 37.9618C40.7624 37.9457 41.6394 37.8007 41.305 37.222C41.2078 37.0537 40.7785 36.9703 40.602 36.892C39.9922 36.6216 39.3908 36.3432 38.8242 35.9884C38.3378 35.684 37.4925 35.2024 36.9589 34.6327C36.5818 34.4304 36.2199 34.1995 35.8791 33.9718C34.8573 33.2894 33.7661 32.5326 33.059 31.5009C33.021 31.4731 32.9833 31.4445 32.9453 31.4176C32.5039 31.1072 31.3522 30.1975 30.782 30.5395ZM34.5784 26.5157C35.0258 26.8038 35.498 27.0505 35.9578 27.3176C36.7223 27.7616 37.5856 27.9604 38.3715 28.3624C39.9777 29.1841 41.3878 30.3217 42.6917 31.5501C42.8288 31.6792 43.6212 32.4722 43.7641 32.369C43.9543 32.2315 43.4753 30.9968 43.4168 30.8518C43.1314 30.1444 42.7067 29.474 42.2441 28.8574C42.1423 28.8046 42.0356 28.7575 41.9219 28.7184C41.2796 28.4974 40.6364 28.4397 40.029 28.105C39.4642 27.7937 39.0284 27.3761 38.575 26.9261C38.2638 26.6172 37.9936 26.3511 37.5723 26.1884C37.2575 26.0667 36.9317 26.0074 36.6254 25.8586C36.0924 25.5996 35.6586 25.1781 35.227 24.7782C34.7149 24.797 34.1804 24.8879 33.8243 25.2153C33.2423 25.7501 34.1457 26.2368 34.5784 26.5157Z" stroke="black" stroke-width="0.6" mask="url(#path-2-outside-2_361_820)"/>
</svg>
