<svg width="46" height="45" viewBox="0 0 46 45" fill="none" xmlns="http://www.w3.org/2000/svg">
<g clip-path="url(#clip0_361_880)">
<mask id="path-1-outside-1_361_880" maskUnits="userSpaceOnUse" x="-0.0610352" y="-1" width="46" height="47" fill="black">
<rect fill="white" x="-0.0610352" y="-1" width="46" height="47"/>
<path d="M43.8131 21.2821C43.1033 20.4939 42.2116 19.9504 41.2099 19.6594C41.5404 18.9508 41.762 18.1921 41.87 17.431C42.097 15.8312 41.8154 14.3299 40.7045 13.0929C39.6766 11.9483 38.2066 11.2435 36.7678 10.7274C36.4137 10.6003 36.0344 10.5175 35.6887 10.371C35.3018 10.2069 35.2484 9.99277 35.2459 9.60034C35.2408 8.79877 35.2613 8.01752 35.189 7.21613C35.0497 5.67181 34.6781 4.0316 33.2954 3.09433C32.5218 2.56989 31.5258 2.38971 30.5993 2.40448C30.2406 2.41019 29.7007 2.6032 29.3579 2.50714C29.0153 2.41107 28.7612 1.83266 28.5222 1.58262C27.235 0.235783 25.1078 -0.115075 23.3148 0.0306469C22.619 0.0872483 21.8862 0.107903 21.199 0.272697C21.0175 0.300207 20.8362 0.329914 20.656 0.364191C18.7245 0.731222 16.9051 1.52971 15.4396 2.82785C14.7238 3.46189 14.102 4.20922 13.6686 5.05622C13.4856 5.41402 13.4002 5.80549 13.2196 6.16136C12.9933 6.60722 12.753 6.67446 12.3038 6.82361C10.4606 7.43507 8.99531 8.77205 7.72061 10.1622C6.52524 11.4659 5.62851 12.9382 5.25018 14.665C4.87203 16.3911 4.91138 18.3401 5.63426 19.9756C5.6684 20.053 5.7055 20.1279 5.7427 20.2027C4.08401 20.6725 2.64085 21.9895 1.73649 23.3743C1.27047 24.0878 0.887194 24.9159 0.944694 25.7811C0.998331 26.589 1.41556 27.3188 2.10691 27.7683C2.98316 28.3381 4.07062 28.3274 5.06169 28.114C5.55241 28.0084 6.02975 27.8524 6.50664 27.6996C6.75425 27.6203 7.00267 27.544 7.25162 27.4689C7.30032 27.4542 7.42924 27.4308 7.55017 27.4009C7.43778 29.1927 7.8516 30.9913 8.16012 32.7505C8.33469 33.7458 8.48392 34.741 8.70844 35.7274C8.93673 36.7304 9.21102 37.7226 9.43509 38.7265C9.77443 40.2468 9.98826 41.9909 11.3829 42.9716C12.7449 43.9295 14.5359 44.203 16.1539 44.445C18.169 44.7465 20.1802 44.9145 22.2187 44.9577C24.2786 45.0014 26.3604 45.0437 28.4172 44.907C30.2744 44.7836 32.2645 44.4872 33.9661 43.71C35.5579 42.9829 36.3098 41.592 36.5528 39.9467C36.6919 39.0052 36.7288 38.0508 36.8003 37.103C36.8896 35.9195 36.988 34.7367 37.0845 33.5537C37.1809 32.3725 37.2995 31.2049 37.2189 30.0197C37.1852 29.5231 37.1632 29.0321 37.2057 28.5355C37.241 28.1225 37.2658 27.7339 37.1208 27.3482C37.1317 27.3196 37.1429 27.291 37.1533 27.2622C37.518 27.5279 37.8735 27.7879 38.3266 27.9623C38.9952 28.2197 39.7261 28.3356 40.4433 28.3366C41.5691 28.3384 42.7349 28.0335 43.6347 27.3559C45.6465 25.8406 45.3666 23.0071 43.8131 21.2821ZM6.94418 12.5777C7.40517 11.877 7.98331 11.2883 8.59757 10.7162C9.26906 10.0908 9.93417 9.4387 10.6802 8.89756C11.3975 8.37734 12.1535 8.01374 12.9903 7.72317C13.3156 7.61014 13.6224 7.45133 13.7985 7.14714C14.0154 6.77255 14.011 6.36113 14.1035 5.95341C14.498 4.21441 16.3184 2.77292 17.848 1.98726C19.3297 1.22622 20.9715 0.892588 22.6253 0.747481C22.9018 0.753897 23.1774 0.766466 23.4481 0.773497C24.34 0.796612 25.2511 0.92502 26.0967 1.21022C26.5255 1.3548 26.9168 1.56908 27.2786 1.83636C27.6516 2.1118 27.8071 2.445 28.0703 2.80658C28.2939 3.11384 28.5856 3.40687 28.9657 3.51524C29.4185 3.64435 29.8708 3.49907 30.3217 3.44809C31.1508 3.35422 32.1012 3.44317 32.7981 3.92657C33.4108 4.3516 33.7703 5.01984 33.957 5.71751C34.1432 6.41316 34.1803 7.13808 34.2098 7.85334C34.2239 8.19391 34.2467 8.53405 34.2169 8.87418C34.1813 9.27962 34.1195 9.68638 34.1681 10.0931C34.2711 10.954 34.9425 11.322 35.7222 11.5491C36.3711 11.7382 37.013 11.9497 37.6285 12.2278C38.8727 12.79 40.1851 13.6194 40.7069 14.9224C41.9119 17.9322 39.6474 21.4237 36.5845 22.1675C35.7684 22.3657 34.8938 22.4021 34.0674 22.241C33.6674 22.163 33.2693 22.0496 32.8998 21.8792C32.5079 21.6985 32.179 21.4175 31.7926 21.2348C30.9529 20.838 30.3233 21.5565 29.6932 22.0041C28.8779 22.5834 28.0312 23.1065 27.1308 23.5499C25.2407 24.4803 23.2419 25.4182 21.0774 25.0351C19.4278 24.7432 17.7818 24.221 16.6565 22.9343C16.1877 22.3982 16.0463 21.6332 15.2333 21.5263C14.3873 21.415 13.6476 21.8458 12.862 22.0687C11.419 22.4781 9.71208 22.3172 8.39919 21.593C5.30471 19.8861 5.1987 15.231 6.94418 12.5777ZM11.1987 41.2609C10.8459 40.6399 10.6785 39.9316 10.5229 39.2434C10.0633 37.2106 9.40194 35.2317 8.96233 33.1939C8.62048 31.6092 8.26847 30.0336 8.02886 28.4356C8.11887 28.6334 8.22811 28.8222 8.35508 28.9995C8.92658 29.7938 9.78548 30.3033 10.7243 30.5858C10.7598 30.5965 10.7954 30.6057 10.8311 30.6156C10.87 31.4735 11.022 32.3246 11.1613 33.1726C11.3564 34.3612 11.4238 35.5666 11.5885 36.7594C11.7475 37.9112 11.9389 39.0544 12.1945 40.1895C12.3213 40.7523 12.444 41.3153 12.5399 41.8841C12.5718 42.0731 12.5857 42.2775 12.6017 42.484C12.0182 42.2028 11.5265 41.8378 11.1987 41.2609ZM13.2289 42.7467C13.2016 42.4834 13.142 42.2174 13.1059 41.9839C13.018 41.4144 12.8994 40.8498 12.7886 40.2843C12.5597 39.1148 12.3552 37.9452 12.2019 36.7636C12.0583 35.6561 11.9415 34.539 11.7539 33.4378C11.5985 32.5257 11.3599 31.6273 11.2454 30.7114C12.1401 30.8772 13.041 30.7877 13.8906 30.5148C13.8213 32.6953 14.0697 34.8981 14.381 37.0505C14.5502 38.2209 14.7882 39.3784 15.034 40.5353C15.1521 41.0915 15.2691 41.6479 15.3704 42.2073C15.4346 42.5609 15.4548 42.9484 15.5061 43.3221C14.7275 43.1899 13.9559 43.0161 13.2289 42.7467ZM17.5818 43.6131C17.1176 43.5528 16.6437 43.4941 16.1686 43.4256C16.1377 43.096 16.0598 42.7611 16.0063 42.4515C15.905 41.8659 15.7828 41.284 15.6567 40.703C15.4061 39.5492 15.1604 38.3974 14.9618 37.2336C14.5767 34.9757 14.3948 32.702 14.1356 30.4308C14.9682 30.1255 15.7449 29.6462 16.4092 29.0617C16.6716 29.4875 17.0403 29.8584 17.4677 30.1438C17.5604 30.988 17.4847 31.8567 17.4945 32.6985C17.5107 34.0877 17.6193 35.4843 17.6912 36.872C17.7596 38.193 17.8752 39.511 17.9716 40.8302C18.0382 41.742 18.0817 42.7878 18.3698 43.7045C18.1067 43.6774 17.8441 43.647 17.5818 43.6131ZM19.0398 43.7671C18.9121 43.3141 18.7858 42.8665 18.716 42.3926C18.6252 41.7766 18.584 41.1549 18.5386 40.5344C18.4389 39.1709 18.3026 37.8117 18.2259 36.4463C18.1511 35.1133 18.0135 33.7732 17.987 32.4391C17.9739 31.779 18.0073 31.0857 17.94 30.4127C18.3033 30.5852 18.6928 30.6981 19.0873 30.7343C19.7583 30.7958 20.4187 30.5848 20.9887 30.2444C21.0713 31.2902 21.0084 32.359 21.0043 33.3999C20.9993 34.7003 21.0637 36.001 21.1352 37.2992C21.2555 39.4798 21.1467 41.7379 21.5217 43.8997C20.6933 43.8756 19.8652 43.8359 19.0398 43.7671ZM25.1145 36.9424C24.9512 39.2761 25.0847 41.608 25.0854 43.9438C24.5584 43.9417 24.0318 43.9363 23.5065 43.9326C23.0584 43.9296 22.6099 43.924 22.1614 43.9151C21.9545 42.8609 21.9055 41.7812 21.8596 40.7108C21.806 39.4576 21.7388 38.2061 21.6501 36.9547C21.5586 35.6626 21.461 34.373 21.435 33.0776C21.4147 32.0723 21.3607 31.0955 21.1908 30.1151C21.2503 30.0751 21.3088 30.0337 21.3663 29.9909C21.6768 29.7584 21.9764 29.4976 22.1843 29.1697C22.2604 29.0494 22.3192 28.9215 22.3716 28.7906C22.7823 29.338 23.2341 29.8522 23.8408 30.2063C24.3717 30.5162 24.9557 30.6425 25.5481 30.6386C25.5015 32.7458 25.2617 34.84 25.1145 36.9424ZM27.1353 42.4321C27.1152 42.7981 27.1007 43.1644 27.0917 43.5309C27.0885 43.6595 27.0796 43.7917 27.0761 43.924C26.6346 43.9368 26.1925 43.9426 25.7506 43.9441C25.7368 41.608 25.6056 39.2785 25.7257 36.9424C25.8342 34.8327 26.0746 32.7224 26.0208 30.6087C26.2454 30.5821 26.4679 30.5405 26.6868 30.4841C27.6167 30.2451 28.5763 29.7842 29.3044 29.1232C29.121 31.5946 28.3614 34.0113 27.9237 36.4439C27.6872 37.7587 27.4613 39.082 27.3064 40.4085C27.2279 41.081 27.1725 41.7563 27.1353 42.4321ZM30.241 40.453C30.1873 41.0699 30.1462 41.6879 30.1178 42.3065C30.0982 42.733 30.0348 43.2225 30.0556 43.6803C29.7916 43.7221 29.5265 43.7583 29.2599 43.7861C28.746 43.8396 28.2303 43.8752 27.7136 43.8994C27.713 43.8047 27.7113 43.7098 27.7133 43.6154C27.7215 43.249 27.7352 42.8827 27.7545 42.5167C27.7897 41.8406 27.8452 41.1656 27.9207 40.4926C28.0803 39.0755 28.2919 37.6613 28.5329 36.2554C28.9651 33.7333 29.6989 31.2318 29.7424 28.6624C29.8872 28.4865 30.0177 28.301 30.1271 28.1037C30.5338 28.6525 31.0764 29.1005 31.6935 29.4118C31.5922 30.5969 31.5407 31.7753 31.3598 32.9573C31.1661 34.2231 30.9266 35.482 30.718 36.7454C30.5147 37.976 30.3488 39.2104 30.241 40.453ZM32.5198 42.584C32.5063 42.7354 32.509 42.9383 32.5044 43.1297C32.3105 43.1871 32.1154 43.2392 31.9212 43.2886C31.5243 43.3902 31.1247 43.4811 30.7226 43.5612C30.7382 43.1681 30.7085 42.7597 30.7215 42.3908C30.7444 41.7442 30.781 41.0981 30.8312 40.453C30.9329 39.1484 31.1021 37.8536 31.3078 36.5611C31.5041 35.3273 31.7106 34.0958 31.8606 32.8554C31.9892 31.7916 32.1395 30.6665 32.0776 29.5821C32.5907 29.7846 33.1424 29.8971 33.7029 29.8986C33.8448 29.8988 33.9866 29.8899 34.1273 29.8721C34.0693 32.3 33.6087 34.6967 33.2318 37.0931C33.0322 38.3617 32.8896 39.6367 32.7223 40.9095C32.6491 41.4669 32.5695 42.0242 32.5198 42.584ZM36.2546 29.8593C36.283 30.8411 36.2034 31.7963 36.1229 32.7745C35.9663 34.6779 35.8027 36.5805 35.6662 38.4854C35.5665 39.8775 35.4269 41.5164 34.1555 42.3935C33.8353 42.6144 33.4848 42.7841 33.1206 42.9231C33.1223 42.896 33.1241 42.8687 33.1261 42.843C33.1681 42.3375 33.2255 41.8348 33.2883 41.3312C33.458 39.9713 33.5957 38.6074 33.7727 37.2485C34.0953 34.7723 34.5318 32.2957 34.5344 29.7946C35.2226 29.6186 35.8188 29.2293 36.2868 28.7135C36.2426 29.0948 36.2434 29.4751 36.2546 29.8593ZM43.8445 25.532C43.4002 26.5955 42.2469 27.151 41.1404 27.3091C40.4428 27.4088 39.7113 27.3596 39.0347 27.1698C38.6795 27.0702 38.3333 26.9343 38.0305 26.7238C37.7102 26.5011 37.4353 26.2252 37.1061 26.0121C36.8455 25.8435 36.4188 26.0031 36.3576 26.31C36.1034 27.5864 35.1488 28.883 33.7028 28.8998C32.2898 28.9164 30.8956 28.0383 30.5048 26.6856C30.3414 26.12 29.5724 26.286 29.515 26.8167C29.3602 28.2497 27.6901 29.1835 26.4154 29.5207C25.6705 29.7178 24.9132 29.725 24.2422 29.3119C23.572 28.8992 23.0807 28.2075 22.6642 27.5641C22.4773 27.2753 22.009 27.2407 21.8305 27.5641C21.546 28.079 21.4212 28.6201 20.9673 29.0308C20.5151 29.4399 19.9282 29.7603 19.3006 29.7773C18.5794 29.7968 17.0562 29.119 17.0314 28.2703C17.0222 27.957 16.6209 27.6452 16.32 27.8712C14.9167 28.9252 13.364 29.9844 11.4993 29.7152C10.6426 29.5915 9.78153 29.2395 9.20922 28.5856C8.9592 28.2996 8.77794 27.9625 8.67879 27.599C8.60125 27.314 8.58158 26.9841 8.41096 26.7307C8.071 26.2258 7.47893 26.511 7.02324 26.658C6.10827 26.9532 5.18459 27.3554 4.21922 27.4589C3.33507 27.5536 2.35973 27.307 1.88338 26.5127C1.45599 25.7999 1.60792 24.9633 1.95669 24.255C2.74956 22.6449 4.24968 21.2948 5.92005 20.5338C6.69387 21.8627 7.96256 22.7711 9.51047 23.15C10.3367 23.3522 11.2117 23.4236 12.0592 23.3361C12.9498 23.2443 13.7126 22.9011 14.5699 22.6923C14.748 22.649 14.9182 22.6233 15.102 22.6275C15.1182 22.6278 15.1325 22.6294 15.1443 22.6308C15.1672 22.6571 15.1887 22.6874 15.2062 22.7091C15.5012 23.0746 15.8824 23.3939 16.2202 23.7209C16.793 24.2756 17.4648 24.733 18.1926 25.071C19.97 25.8965 22.1026 26.2993 24.0234 25.8006C26.1104 25.2585 28.1706 24.2533 29.9763 23.1064C30.2036 22.9613 30.4289 22.8134 30.6523 22.6626C30.82 22.55 31.0993 22.4248 31.2273 22.2755C31.2296 22.2729 31.2321 22.2704 31.2348 22.2681C31.273 22.2841 31.3304 22.3042 31.35 22.3175C31.5611 22.4593 31.7738 22.6006 31.998 22.7223C32.8165 23.1671 33.7374 23.4025 34.6685 23.4643C36.4746 23.5843 38.3569 23.0083 39.682 21.785C40.0996 21.3996 40.4588 20.9575 40.7618 20.4793C42.8175 21.2206 44.7739 23.3068 43.8445 25.532Z"/>
</mask>
<path d="M43.8131 21.2821C43.1033 20.4939 42.2116 19.9504 41.2099 19.6594C41.5404 18.9508 41.762 18.1921 41.87 17.431C42.097 15.8312 41.8154 14.3299 40.7045 13.0929C39.6766 11.9483 38.2066 11.2435 36.7678 10.7274C36.4137 10.6003 36.0344 10.5175 35.6887 10.371C35.3018 10.2069 35.2484 9.99277 35.2459 9.60034C35.2408 8.79877 35.2613 8.01752 35.189 7.21613C35.0497 5.67181 34.6781 4.0316 33.2954 3.09433C32.5218 2.56989 31.5258 2.38971 30.5993 2.40448C30.2406 2.41019 29.7007 2.6032 29.3579 2.50714C29.0153 2.41107 28.7612 1.83266 28.5222 1.58262C27.235 0.235783 25.1078 -0.115075 23.3148 0.0306469C22.619 0.0872483 21.8862 0.107903 21.199 0.272697C21.0175 0.300207 20.8362 0.329914 20.656 0.364191C18.7245 0.731222 16.9051 1.52971 15.4396 2.82785C14.7238 3.46189 14.102 4.20922 13.6686 5.05622C13.4856 5.41402 13.4002 5.80549 13.2196 6.16136C12.9933 6.60722 12.753 6.67446 12.3038 6.82361C10.4606 7.43507 8.99531 8.77205 7.72061 10.1622C6.52524 11.4659 5.62851 12.9382 5.25018 14.665C4.87203 16.3911 4.91138 18.3401 5.63426 19.9756C5.6684 20.053 5.7055 20.1279 5.7427 20.2027C4.08401 20.6725 2.64085 21.9895 1.73649 23.3743C1.27047 24.0878 0.887194 24.9159 0.944694 25.7811C0.998331 26.589 1.41556 27.3188 2.10691 27.7683C2.98316 28.3381 4.07062 28.3274 5.06169 28.114C5.55241 28.0084 6.02975 27.8524 6.50664 27.6996C6.75425 27.6203 7.00267 27.544 7.25162 27.4689C7.30032 27.4542 7.42924 27.4308 7.55017 27.4009C7.43778 29.1927 7.8516 30.9913 8.16012 32.7505C8.33469 33.7458 8.48392 34.741 8.70844 35.7274C8.93673 36.7304 9.21102 37.7226 9.43509 38.7265C9.77443 40.2468 9.98826 41.9909 11.3829 42.9716C12.7449 43.9295 14.5359 44.203 16.1539 44.445C18.169 44.7465 20.1802 44.9145 22.2187 44.9577C24.2786 45.0014 26.3604 45.0437 28.4172 44.907C30.2744 44.7836 32.2645 44.4872 33.9661 43.71C35.5579 42.9829 36.3098 41.592 36.5528 39.9467C36.6919 39.0052 36.7288 38.0508 36.8003 37.103C36.8896 35.9195 36.988 34.7367 37.0845 33.5537C37.1809 32.3725 37.2995 31.2049 37.2189 30.0197C37.1852 29.5231 37.1632 29.0321 37.2057 28.5355C37.241 28.1225 37.2658 27.7339 37.1208 27.3482C37.1317 27.3196 37.1429 27.291 37.1533 27.2622C37.518 27.5279 37.8735 27.7879 38.3266 27.9623C38.9952 28.2197 39.7261 28.3356 40.4433 28.3366C41.5691 28.3384 42.7349 28.0335 43.6347 27.3559C45.6465 25.8406 45.3666 23.0071 43.8131 21.2821ZM6.94418 12.5777C7.40517 11.877 7.98331 11.2883 8.59757 10.7162C9.26906 10.0908 9.93417 9.4387 10.6802 8.89756C11.3975 8.37734 12.1535 8.01374 12.9903 7.72317C13.3156 7.61014 13.6224 7.45133 13.7985 7.14714C14.0154 6.77255 14.011 6.36113 14.1035 5.95341C14.498 4.21441 16.3184 2.77292 17.848 1.98726C19.3297 1.22622 20.9715 0.892588 22.6253 0.747481C22.9018 0.753897 23.1774 0.766466 23.4481 0.773497C24.34 0.796612 25.2511 0.92502 26.0967 1.21022C26.5255 1.3548 26.9168 1.56908 27.2786 1.83636C27.6516 2.1118 27.8071 2.445 28.0703 2.80658C28.2939 3.11384 28.5856 3.40687 28.9657 3.51524C29.4185 3.64435 29.8708 3.49907 30.3217 3.44809C31.1508 3.35422 32.1012 3.44317 32.7981 3.92657C33.4108 4.3516 33.7703 5.01984 33.957 5.71751C34.1432 6.41316 34.1803 7.13808 34.2098 7.85334C34.2239 8.19391 34.2467 8.53405 34.2169 8.87418C34.1813 9.27962 34.1195 9.68638 34.1681 10.0931C34.2711 10.954 34.9425 11.322 35.7222 11.5491C36.3711 11.7382 37.013 11.9497 37.6285 12.2278C38.8727 12.79 40.1851 13.6194 40.7069 14.9224C41.9119 17.9322 39.6474 21.4237 36.5845 22.1675C35.7684 22.3657 34.8938 22.4021 34.0674 22.241C33.6674 22.163 33.2693 22.0496 32.8998 21.8792C32.5079 21.6985 32.179 21.4175 31.7926 21.2348C30.9529 20.838 30.3233 21.5565 29.6932 22.0041C28.8779 22.5834 28.0312 23.1065 27.1308 23.5499C25.2407 24.4803 23.2419 25.4182 21.0774 25.0351C19.4278 24.7432 17.7818 24.221 16.6565 22.9343C16.1877 22.3982 16.0463 21.6332 15.2333 21.5263C14.3873 21.415 13.6476 21.8458 12.862 22.0687C11.419 22.4781 9.71208 22.3172 8.39919 21.593C5.30471 19.8861 5.1987 15.231 6.94418 12.5777ZM11.1987 41.2609C10.8459 40.6399 10.6785 39.9316 10.5229 39.2434C10.0633 37.2106 9.40194 35.2317 8.96233 33.1939C8.62048 31.6092 8.26847 30.0336 8.02886 28.4356C8.11887 28.6334 8.22811 28.8222 8.35508 28.9995C8.92658 29.7938 9.78548 30.3033 10.7243 30.5858C10.7598 30.5965 10.7954 30.6057 10.8311 30.6156C10.87 31.4735 11.022 32.3246 11.1613 33.1726C11.3564 34.3612 11.4238 35.5666 11.5885 36.7594C11.7475 37.9112 11.9389 39.0544 12.1945 40.1895C12.3213 40.7523 12.444 41.3153 12.5399 41.8841C12.5718 42.0731 12.5857 42.2775 12.6017 42.484C12.0182 42.2028 11.5265 41.8378 11.1987 41.2609ZM13.2289 42.7467C13.2016 42.4834 13.142 42.2174 13.1059 41.9839C13.018 41.4144 12.8994 40.8498 12.7886 40.2843C12.5597 39.1148 12.3552 37.9452 12.2019 36.7636C12.0583 35.6561 11.9415 34.539 11.7539 33.4378C11.5985 32.5257 11.3599 31.6273 11.2454 30.7114C12.1401 30.8772 13.041 30.7877 13.8906 30.5148C13.8213 32.6953 14.0697 34.8981 14.381 37.0505C14.5502 38.2209 14.7882 39.3784 15.034 40.5353C15.1521 41.0915 15.2691 41.6479 15.3704 42.2073C15.4346 42.5609 15.4548 42.9484 15.5061 43.3221C14.7275 43.1899 13.9559 43.0161 13.2289 42.7467ZM17.5818 43.6131C17.1176 43.5528 16.6437 43.4941 16.1686 43.4256C16.1377 43.096 16.0598 42.7611 16.0063 42.4515C15.905 41.8659 15.7828 41.284 15.6567 40.703C15.4061 39.5492 15.1604 38.3974 14.9618 37.2336C14.5767 34.9757 14.3948 32.702 14.1356 30.4308C14.9682 30.1255 15.7449 29.6462 16.4092 29.0617C16.6716 29.4875 17.0403 29.8584 17.4677 30.1438C17.5604 30.988 17.4847 31.8567 17.4945 32.6985C17.5107 34.0877 17.6193 35.4843 17.6912 36.872C17.7596 38.193 17.8752 39.511 17.9716 40.8302C18.0382 41.742 18.0817 42.7878 18.3698 43.7045C18.1067 43.6774 17.8441 43.647 17.5818 43.6131ZM19.0398 43.7671C18.9121 43.3141 18.7858 42.8665 18.716 42.3926C18.6252 41.7766 18.584 41.1549 18.5386 40.5344C18.4389 39.1709 18.3026 37.8117 18.2259 36.4463C18.1511 35.1133 18.0135 33.7732 17.987 32.4391C17.9739 31.779 18.0073 31.0857 17.94 30.4127C18.3033 30.5852 18.6928 30.6981 19.0873 30.7343C19.7583 30.7958 20.4187 30.5848 20.9887 30.2444C21.0713 31.2902 21.0084 32.359 21.0043 33.3999C20.9993 34.7003 21.0637 36.001 21.1352 37.2992C21.2555 39.4798 21.1467 41.7379 21.5217 43.8997C20.6933 43.8756 19.8652 43.8359 19.0398 43.7671ZM25.1145 36.9424C24.9512 39.2761 25.0847 41.608 25.0854 43.9438C24.5584 43.9417 24.0318 43.9363 23.5065 43.9326C23.0584 43.9296 22.6099 43.924 22.1614 43.9151C21.9545 42.8609 21.9055 41.7812 21.8596 40.7108C21.806 39.4576 21.7388 38.2061 21.6501 36.9547C21.5586 35.6626 21.461 34.373 21.435 33.0776C21.4147 32.0723 21.3607 31.0955 21.1908 30.1151C21.2503 30.0751 21.3088 30.0337 21.3663 29.9909C21.6768 29.7584 21.9764 29.4976 22.1843 29.1697C22.2604 29.0494 22.3192 28.9215 22.3716 28.7906C22.7823 29.338 23.2341 29.8522 23.8408 30.2063C24.3717 30.5162 24.9557 30.6425 25.5481 30.6386C25.5015 32.7458 25.2617 34.84 25.1145 36.9424ZM27.1353 42.4321C27.1152 42.7981 27.1007 43.1644 27.0917 43.5309C27.0885 43.6595 27.0796 43.7917 27.0761 43.924C26.6346 43.9368 26.1925 43.9426 25.7506 43.9441C25.7368 41.608 25.6056 39.2785 25.7257 36.9424C25.8342 34.8327 26.0746 32.7224 26.0208 30.6087C26.2454 30.5821 26.4679 30.5405 26.6868 30.4841C27.6167 30.2451 28.5763 29.7842 29.3044 29.1232C29.121 31.5946 28.3614 34.0113 27.9237 36.4439C27.6872 37.7587 27.4613 39.082 27.3064 40.4085C27.2279 41.081 27.1725 41.7563 27.1353 42.4321ZM30.241 40.453C30.1873 41.0699 30.1462 41.6879 30.1178 42.3065C30.0982 42.733 30.0348 43.2225 30.0556 43.6803C29.7916 43.7221 29.5265 43.7583 29.2599 43.7861C28.746 43.8396 28.2303 43.8752 27.7136 43.8994C27.713 43.8047 27.7113 43.7098 27.7133 43.6154C27.7215 43.249 27.7352 42.8827 27.7545 42.5167C27.7897 41.8406 27.8452 41.1656 27.9207 40.4926C28.0803 39.0755 28.2919 37.6613 28.5329 36.2554C28.9651 33.7333 29.6989 31.2318 29.7424 28.6624C29.8872 28.4865 30.0177 28.301 30.1271 28.1037C30.5338 28.6525 31.0764 29.1005 31.6935 29.4118C31.5922 30.5969 31.5407 31.7753 31.3598 32.9573C31.1661 34.2231 30.9266 35.482 30.718 36.7454C30.5147 37.976 30.3488 39.2104 30.241 40.453ZM32.5198 42.584C32.5063 42.7354 32.509 42.9383 32.5044 43.1297C32.3105 43.1871 32.1154 43.2392 31.9212 43.2886C31.5243 43.3902 31.1247 43.4811 30.7226 43.5612C30.7382 43.1681 30.7085 42.7597 30.7215 42.3908C30.7444 41.7442 30.781 41.0981 30.8312 40.453C30.9329 39.1484 31.1021 37.8536 31.3078 36.5611C31.5041 35.3273 31.7106 34.0958 31.8606 32.8554C31.9892 31.7916 32.1395 30.6665 32.0776 29.5821C32.5907 29.7846 33.1424 29.8971 33.7029 29.8986C33.8448 29.8988 33.9866 29.8899 34.1273 29.8721C34.0693 32.3 33.6087 34.6967 33.2318 37.0931C33.0322 38.3617 32.8896 39.6367 32.7223 40.9095C32.6491 41.4669 32.5695 42.0242 32.5198 42.584ZM36.2546 29.8593C36.283 30.8411 36.2034 31.7963 36.1229 32.7745C35.9663 34.6779 35.8027 36.5805 35.6662 38.4854C35.5665 39.8775 35.4269 41.5164 34.1555 42.3935C33.8353 42.6144 33.4848 42.7841 33.1206 42.9231C33.1223 42.896 33.1241 42.8687 33.1261 42.843C33.1681 42.3375 33.2255 41.8348 33.2883 41.3312C33.458 39.9713 33.5957 38.6074 33.7727 37.2485C34.0953 34.7723 34.5318 32.2957 34.5344 29.7946C35.2226 29.6186 35.8188 29.2293 36.2868 28.7135C36.2426 29.0948 36.2434 29.4751 36.2546 29.8593ZM43.8445 25.532C43.4002 26.5955 42.2469 27.151 41.1404 27.3091C40.4428 27.4088 39.7113 27.3596 39.0347 27.1698C38.6795 27.0702 38.3333 26.9343 38.0305 26.7238C37.7102 26.5011 37.4353 26.2252 37.1061 26.0121C36.8455 25.8435 36.4188 26.0031 36.3576 26.31C36.1034 27.5864 35.1488 28.883 33.7028 28.8998C32.2898 28.9164 30.8956 28.0383 30.5048 26.6856C30.3414 26.12 29.5724 26.286 29.515 26.8167C29.3602 28.2497 27.6901 29.1835 26.4154 29.5207C25.6705 29.7178 24.9132 29.725 24.2422 29.3119C23.572 28.8992 23.0807 28.2075 22.6642 27.5641C22.4773 27.2753 22.009 27.2407 21.8305 27.5641C21.546 28.079 21.4212 28.6201 20.9673 29.0308C20.5151 29.4399 19.9282 29.7603 19.3006 29.7773C18.5794 29.7968 17.0562 29.119 17.0314 28.2703C17.0222 27.957 16.6209 27.6452 16.32 27.8712C14.9167 28.9252 13.364 29.9844 11.4993 29.7152C10.6426 29.5915 9.78153 29.2395 9.20922 28.5856C8.9592 28.2996 8.77794 27.9625 8.67879 27.599C8.60125 27.314 8.58158 26.9841 8.41096 26.7307C8.071 26.2258 7.47893 26.511 7.02324 26.658C6.10827 26.9532 5.18459 27.3554 4.21922 27.4589C3.33507 27.5536 2.35973 27.307 1.88338 26.5127C1.45599 25.7999 1.60792 24.9633 1.95669 24.255C2.74956 22.6449 4.24968 21.2948 5.92005 20.5338C6.69387 21.8627 7.96256 22.7711 9.51047 23.15C10.3367 23.3522 11.2117 23.4236 12.0592 23.3361C12.9498 23.2443 13.7126 22.9011 14.5699 22.6923C14.748 22.649 14.9182 22.6233 15.102 22.6275C15.1182 22.6278 15.1325 22.6294 15.1443 22.6308C15.1672 22.6571 15.1887 22.6874 15.2062 22.7091C15.5012 23.0746 15.8824 23.3939 16.2202 23.7209C16.793 24.2756 17.4648 24.733 18.1926 25.071C19.97 25.8965 22.1026 26.2993 24.0234 25.8006C26.1104 25.2585 28.1706 24.2533 29.9763 23.1064C30.2036 22.9613 30.4289 22.8134 30.6523 22.6626C30.82 22.55 31.0993 22.4248 31.2273 22.2755C31.2296 22.2729 31.2321 22.2704 31.2348 22.2681C31.273 22.2841 31.3304 22.3042 31.35 22.3175C31.5611 22.4593 31.7738 22.6006 31.998 22.7223C32.8165 23.1671 33.7374 23.4025 34.6685 23.4643C36.4746 23.5843 38.3569 23.0083 39.682 21.785C40.0996 21.3996 40.4588 20.9575 40.7618 20.4793C42.8175 21.2206 44.7739 23.3068 43.8445 25.532Z" fill="black"/>
<path d="M43.8131 21.2821C43.1033 20.4939 42.2116 19.9504 41.2099 19.6594C41.5404 18.9508 41.762 18.1921 41.87 17.431C42.097 15.8312 41.8154 14.3299 40.7045 13.0929C39.6766 11.9483 38.2066 11.2435 36.7678 10.7274C36.4137 10.6003 36.0344 10.5175 35.6887 10.371C35.3018 10.2069 35.2484 9.99277 35.2459 9.60034C35.2408 8.79877 35.2613 8.01752 35.189 7.21613C35.0497 5.67181 34.6781 4.0316 33.2954 3.09433C32.5218 2.56989 31.5258 2.38971 30.5993 2.40448C30.2406 2.41019 29.7007 2.6032 29.3579 2.50714C29.0153 2.41107 28.7612 1.83266 28.5222 1.58262C27.235 0.235783 25.1078 -0.115075 23.3148 0.0306469C22.619 0.0872483 21.8862 0.107903 21.199 0.272697C21.0175 0.300207 20.8362 0.329914 20.656 0.364191C18.7245 0.731222 16.9051 1.52971 15.4396 2.82785C14.7238 3.46189 14.102 4.20922 13.6686 5.05622C13.4856 5.41402 13.4002 5.80549 13.2196 6.16136C12.9933 6.60722 12.753 6.67446 12.3038 6.82361C10.4606 7.43507 8.99531 8.77205 7.72061 10.1622C6.52524 11.4659 5.62851 12.9382 5.25018 14.665C4.87203 16.3911 4.91138 18.3401 5.63426 19.9756C5.6684 20.053 5.7055 20.1279 5.7427 20.2027C4.08401 20.6725 2.64085 21.9895 1.73649 23.3743C1.27047 24.0878 0.887194 24.9159 0.944694 25.7811C0.998331 26.589 1.41556 27.3188 2.10691 27.7683C2.98316 28.3381 4.07062 28.3274 5.06169 28.114C5.55241 28.0084 6.02975 27.8524 6.50664 27.6996C6.75425 27.6203 7.00267 27.544 7.25162 27.4689C7.30032 27.4542 7.42924 27.4308 7.55017 27.4009C7.43778 29.1927 7.8516 30.9913 8.16012 32.7505C8.33469 33.7458 8.48392 34.741 8.70844 35.7274C8.93673 36.7304 9.21102 37.7226 9.43509 38.7265C9.77443 40.2468 9.98826 41.9909 11.3829 42.9716C12.7449 43.9295 14.5359 44.203 16.1539 44.445C18.169 44.7465 20.1802 44.9145 22.2187 44.9577C24.2786 45.0014 26.3604 45.0437 28.4172 44.907C30.2744 44.7836 32.2645 44.4872 33.9661 43.71C35.5579 42.9829 36.3098 41.592 36.5528 39.9467C36.6919 39.0052 36.7288 38.0508 36.8003 37.103C36.8896 35.9195 36.988 34.7367 37.0845 33.5537C37.1809 32.3725 37.2995 31.2049 37.2189 30.0197C37.1852 29.5231 37.1632 29.0321 37.2057 28.5355C37.241 28.1225 37.2658 27.7339 37.1208 27.3482C37.1317 27.3196 37.1429 27.291 37.1533 27.2622C37.518 27.5279 37.8735 27.7879 38.3266 27.9623C38.9952 28.2197 39.7261 28.3356 40.4433 28.3366C41.5691 28.3384 42.7349 28.0335 43.6347 27.3559C45.6465 25.8406 45.3666 23.0071 43.8131 21.2821ZM6.94418 12.5777C7.40517 11.877 7.98331 11.2883 8.59757 10.7162C9.26906 10.0908 9.93417 9.4387 10.6802 8.89756C11.3975 8.37734 12.1535 8.01374 12.9903 7.72317C13.3156 7.61014 13.6224 7.45133 13.7985 7.14714C14.0154 6.77255 14.011 6.36113 14.1035 5.95341C14.498 4.21441 16.3184 2.77292 17.848 1.98726C19.3297 1.22622 20.9715 0.892588 22.6253 0.747481C22.9018 0.753897 23.1774 0.766466 23.4481 0.773497C24.34 0.796612 25.2511 0.92502 26.0967 1.21022C26.5255 1.3548 26.9168 1.56908 27.2786 1.83636C27.6516 2.1118 27.8071 2.445 28.0703 2.80658C28.2939 3.11384 28.5856 3.40687 28.9657 3.51524C29.4185 3.64435 29.8708 3.49907 30.3217 3.44809C31.1508 3.35422 32.1012 3.44317 32.7981 3.92657C33.4108 4.3516 33.7703 5.01984 33.957 5.71751C34.1432 6.41316 34.1803 7.13808 34.2098 7.85334C34.2239 8.19391 34.2467 8.53405 34.2169 8.87418C34.1813 9.27962 34.1195 9.68638 34.1681 10.0931C34.2711 10.954 34.9425 11.322 35.7222 11.5491C36.3711 11.7382 37.013 11.9497 37.6285 12.2278C38.8727 12.79 40.1851 13.6194 40.7069 14.9224C41.9119 17.9322 39.6474 21.4237 36.5845 22.1675C35.7684 22.3657 34.8938 22.4021 34.0674 22.241C33.6674 22.163 33.2693 22.0496 32.8998 21.8792C32.5079 21.6985 32.179 21.4175 31.7926 21.2348C30.9529 20.838 30.3233 21.5565 29.6932 22.0041C28.8779 22.5834 28.0312 23.1065 27.1308 23.5499C25.2407 24.4803 23.2419 25.4182 21.0774 25.0351C19.4278 24.7432 17.7818 24.221 16.6565 22.9343C16.1877 22.3982 16.0463 21.6332 15.2333 21.5263C14.3873 21.415 13.6476 21.8458 12.862 22.0687C11.419 22.4781 9.71208 22.3172 8.39919 21.593C5.30471 19.8861 5.1987 15.231 6.94418 12.5777ZM11.1987 41.2609C10.8459 40.6399 10.6785 39.9316 10.5229 39.2434C10.0633 37.2106 9.40194 35.2317 8.96233 33.1939C8.62048 31.6092 8.26847 30.0336 8.02886 28.4356C8.11887 28.6334 8.22811 28.8222 8.35508 28.9995C8.92658 29.7938 9.78548 30.3033 10.7243 30.5858C10.7598 30.5965 10.7954 30.6057 10.8311 30.6156C10.87 31.4735 11.022 32.3246 11.1613 33.1726C11.3564 34.3612 11.4238 35.5666 11.5885 36.7594C11.7475 37.9112 11.9389 39.0544 12.1945 40.1895C12.3213 40.7523 12.444 41.3153 12.5399 41.8841C12.5718 42.0731 12.5857 42.2775 12.6017 42.484C12.0182 42.2028 11.5265 41.8378 11.1987 41.2609ZM13.2289 42.7467C13.2016 42.4834 13.142 42.2174 13.1059 41.9839C13.018 41.4144 12.8994 40.8498 12.7886 40.2843C12.5597 39.1148 12.3552 37.9452 12.2019 36.7636C12.0583 35.6561 11.9415 34.539 11.7539 33.4378C11.5985 32.5257 11.3599 31.6273 11.2454 30.7114C12.1401 30.8772 13.041 30.7877 13.8906 30.5148C13.8213 32.6953 14.0697 34.8981 14.381 37.0505C14.5502 38.2209 14.7882 39.3784 15.034 40.5353C15.1521 41.0915 15.2691 41.6479 15.3704 42.2073C15.4346 42.5609 15.4548 42.9484 15.5061 43.3221C14.7275 43.1899 13.9559 43.0161 13.2289 42.7467ZM17.5818 43.6131C17.1176 43.5528 16.6437 43.4941 16.1686 43.4256C16.1377 43.096 16.0598 42.7611 16.0063 42.4515C15.905 41.8659 15.7828 41.284 15.6567 40.703C15.4061 39.5492 15.1604 38.3974 14.9618 37.2336C14.5767 34.9757 14.3948 32.702 14.1356 30.4308C14.9682 30.1255 15.7449 29.6462 16.4092 29.0617C16.6716 29.4875 17.0403 29.8584 17.4677 30.1438C17.5604 30.988 17.4847 31.8567 17.4945 32.6985C17.5107 34.0877 17.6193 35.4843 17.6912 36.872C17.7596 38.193 17.8752 39.511 17.9716 40.8302C18.0382 41.742 18.0817 42.7878 18.3698 43.7045C18.1067 43.6774 17.8441 43.647 17.5818 43.6131ZM19.0398 43.7671C18.9121 43.3141 18.7858 42.8665 18.716 42.3926C18.6252 41.7766 18.584 41.1549 18.5386 40.5344C18.4389 39.1709 18.3026 37.8117 18.2259 36.4463C18.1511 35.1133 18.0135 33.7732 17.987 32.4391C17.9739 31.779 18.0073 31.0857 17.94 30.4127C18.3033 30.5852 18.6928 30.6981 19.0873 30.7343C19.7583 30.7958 20.4187 30.5848 20.9887 30.2444C21.0713 31.2902 21.0084 32.359 21.0043 33.3999C20.9993 34.7003 21.0637 36.001 21.1352 37.2992C21.2555 39.4798 21.1467 41.7379 21.5217 43.8997C20.6933 43.8756 19.8652 43.8359 19.0398 43.7671ZM25.1145 36.9424C24.9512 39.2761 25.0847 41.608 25.0854 43.9438C24.5584 43.9417 24.0318 43.9363 23.5065 43.9326C23.0584 43.9296 22.6099 43.924 22.1614 43.9151C21.9545 42.8609 21.9055 41.7812 21.8596 40.7108C21.806 39.4576 21.7388 38.2061 21.6501 36.9547C21.5586 35.6626 21.461 34.373 21.435 33.0776C21.4147 32.0723 21.3607 31.0955 21.1908 30.1151C21.2503 30.0751 21.3088 30.0337 21.3663 29.9909C21.6768 29.7584 21.9764 29.4976 22.1843 29.1697C22.2604 29.0494 22.3192 28.9215 22.3716 28.7906C22.7823 29.338 23.2341 29.8522 23.8408 30.2063C24.3717 30.5162 24.9557 30.6425 25.5481 30.6386C25.5015 32.7458 25.2617 34.84 25.1145 36.9424ZM27.1353 42.4321C27.1152 42.7981 27.1007 43.1644 27.0917 43.5309C27.0885 43.6595 27.0796 43.7917 27.0761 43.924C26.6346 43.9368 26.1925 43.9426 25.7506 43.9441C25.7368 41.608 25.6056 39.2785 25.7257 36.9424C25.8342 34.8327 26.0746 32.7224 26.0208 30.6087C26.2454 30.5821 26.4679 30.5405 26.6868 30.4841C27.6167 30.2451 28.5763 29.7842 29.3044 29.1232C29.121 31.5946 28.3614 34.0113 27.9237 36.4439C27.6872 37.7587 27.4613 39.082 27.3064 40.4085C27.2279 41.081 27.1725 41.7563 27.1353 42.4321ZM30.241 40.453C30.1873 41.0699 30.1462 41.6879 30.1178 42.3065C30.0982 42.733 30.0348 43.2225 30.0556 43.6803C29.7916 43.7221 29.5265 43.7583 29.2599 43.7861C28.746 43.8396 28.2303 43.8752 27.7136 43.8994C27.713 43.8047 27.7113 43.7098 27.7133 43.6154C27.7215 43.249 27.7352 42.8827 27.7545 42.5167C27.7897 41.8406 27.8452 41.1656 27.9207 40.4926C28.0803 39.0755 28.2919 37.6613 28.5329 36.2554C28.9651 33.7333 29.6989 31.2318 29.7424 28.6624C29.8872 28.4865 30.0177 28.301 30.1271 28.1037C30.5338 28.6525 31.0764 29.1005 31.6935 29.4118C31.5922 30.5969 31.5407 31.7753 31.3598 32.9573C31.1661 34.2231 30.9266 35.482 30.718 36.7454C30.5147 37.976 30.3488 39.2104 30.241 40.453ZM32.5198 42.584C32.5063 42.7354 32.509 42.9383 32.5044 43.1297C32.3105 43.1871 32.1154 43.2392 31.9212 43.2886C31.5243 43.3902 31.1247 43.4811 30.7226 43.5612C30.7382 43.1681 30.7085 42.7597 30.7215 42.3908C30.7444 41.7442 30.781 41.0981 30.8312 40.453C30.9329 39.1484 31.1021 37.8536 31.3078 36.5611C31.5041 35.3273 31.7106 34.0958 31.8606 32.8554C31.9892 31.7916 32.1395 30.6665 32.0776 29.5821C32.5907 29.7846 33.1424 29.8971 33.7029 29.8986C33.8448 29.8988 33.9866 29.8899 34.1273 29.8721C34.0693 32.3 33.6087 34.6967 33.2318 37.0931C33.0322 38.3617 32.8896 39.6367 32.7223 40.9095C32.6491 41.4669 32.5695 42.0242 32.5198 42.584ZM36.2546 29.8593C36.283 30.8411 36.2034 31.7963 36.1229 32.7745C35.9663 34.6779 35.8027 36.5805 35.6662 38.4854C35.5665 39.8775 35.4269 41.5164 34.1555 42.3935C33.8353 42.6144 33.4848 42.7841 33.1206 42.9231C33.1223 42.896 33.1241 42.8687 33.1261 42.843C33.1681 42.3375 33.2255 41.8348 33.2883 41.3312C33.458 39.9713 33.5957 38.6074 33.7727 37.2485C34.0953 34.7723 34.5318 32.2957 34.5344 29.7946C35.2226 29.6186 35.8188 29.2293 36.2868 28.7135C36.2426 29.0948 36.2434 29.4751 36.2546 29.8593ZM43.8445 25.532C43.4002 26.5955 42.2469 27.151 41.1404 27.3091C40.4428 27.4088 39.7113 27.3596 39.0347 27.1698C38.6795 27.0702 38.3333 26.9343 38.0305 26.7238C37.7102 26.5011 37.4353 26.2252 37.1061 26.0121C36.8455 25.8435 36.4188 26.0031 36.3576 26.31C36.1034 27.5864 35.1488 28.883 33.7028 28.8998C32.2898 28.9164 30.8956 28.0383 30.5048 26.6856C30.3414 26.12 29.5724 26.286 29.515 26.8167C29.3602 28.2497 27.6901 29.1835 26.4154 29.5207C25.6705 29.7178 24.9132 29.725 24.2422 29.3119C23.572 28.8992 23.0807 28.2075 22.6642 27.5641C22.4773 27.2753 22.009 27.2407 21.8305 27.5641C21.546 28.079 21.4212 28.6201 20.9673 29.0308C20.5151 29.4399 19.9282 29.7603 19.3006 29.7773C18.5794 29.7968 17.0562 29.119 17.0314 28.2703C17.0222 27.957 16.6209 27.6452 16.32 27.8712C14.9167 28.9252 13.364 29.9844 11.4993 29.7152C10.6426 29.5915 9.78153 29.2395 9.20922 28.5856C8.9592 28.2996 8.77794 27.9625 8.67879 27.599C8.60125 27.314 8.58158 26.9841 8.41096 26.7307C8.071 26.2258 7.47893 26.511 7.02324 26.658C6.10827 26.9532 5.18459 27.3554 4.21922 27.4589C3.33507 27.5536 2.35973 27.307 1.88338 26.5127C1.45599 25.7999 1.60792 24.9633 1.95669 24.255C2.74956 22.6449 4.24968 21.2948 5.92005 20.5338C6.69387 21.8627 7.96256 22.7711 9.51047 23.15C10.3367 23.3522 11.2117 23.4236 12.0592 23.3361C12.9498 23.2443 13.7126 22.9011 14.5699 22.6923C14.748 22.649 14.9182 22.6233 15.102 22.6275C15.1182 22.6278 15.1325 22.6294 15.1443 22.6308C15.1672 22.6571 15.1887 22.6874 15.2062 22.7091C15.5012 23.0746 15.8824 23.3939 16.2202 23.7209C16.793 24.2756 17.4648 24.733 18.1926 25.071C19.97 25.8965 22.1026 26.2993 24.0234 25.8006C26.1104 25.2585 28.1706 24.2533 29.9763 23.1064C30.2036 22.9613 30.4289 22.8134 30.6523 22.6626C30.82 22.55 31.0993 22.4248 31.2273 22.2755C31.2296 22.2729 31.2321 22.2704 31.2348 22.2681C31.273 22.2841 31.3304 22.3042 31.35 22.3175C31.5611 22.4593 31.7738 22.6006 31.998 22.7223C32.8165 23.1671 33.7374 23.4025 34.6685 23.4643C36.4746 23.5843 38.3569 23.0083 39.682 21.785C40.0996 21.3996 40.4588 20.9575 40.7618 20.4793C42.8175 21.2206 44.7739 23.3068 43.8445 25.532Z" stroke="black" mask="url(#path-1-outside-1_361_880)"/>
<path d="M14.6889 15.7728L14.4434 15.7254C14.5319 15.2666 14.4122 14.8843 14.1699 14.5825C13.923 14.2748 13.5409 14.0426 13.1027 13.9186C12.2113 13.6662 11.213 13.8851 10.7628 14.6294L14.6889 15.7728ZM14.6889 15.7728L14.4434 15.7254C14.3459 16.231 14.0317 16.5586 13.6221 16.7318C13.2048 16.9082 12.6879 16.9226 12.2204 16.7785L12.2204 16.7785M14.6889 15.7728L12.2204 16.7785M12.2204 16.7785C11.7971 16.6481 11.2779 16.3164 10.947 15.899M12.2204 16.7785L10.947 15.899M10.947 15.899C10.6189 15.4851 10.512 15.0442 10.7628 14.6294L10.947 15.899ZM21.6888 10.88L21.6888 10.88C22.3822 9.8653 22.2653 8.3482 21.2557 7.53778C20.7262 7.1127 20.0324 6.92028 19.3748 6.92605C18.6366 6.93252 17.9423 7.29902 17.3995 7.80613C16.8559 8.31394 16.4398 8.98455 16.2659 9.64618L16.2659 9.64619C16.0708 10.3884 16.2866 11.0387 16.7293 11.5088C17.1654 11.9719 17.8137 12.2543 18.493 12.3067L18.5122 12.0574L18.493 12.3067C19.6795 12.3981 20.9988 11.8893 21.6888 10.88ZM20.7604 8.58675L20.7604 8.58676C21.0694 9.00962 21.0861 9.45411 20.9232 9.85509C20.7564 10.2658 20.3966 10.6361 19.95 10.8621C19.5458 11.0666 18.9196 11.1974 18.3631 11.1351C17.807 11.0729 17.3954 10.8327 17.2656 10.3679C17.0352 9.54229 17.5815 8.69691 18.4164 8.25014C19.2456 7.80643 20.2104 7.83376 20.7604 8.58675ZM10.1903 16.8091L10.1903 16.8091C10.9388 17.6852 12.2135 18.2217 13.4157 17.9832C14.6176 17.7446 15.6446 16.6103 15.5464 15.351C15.4948 14.6887 15.1592 14.0782 14.7032 13.6326C14.1903 13.1315 13.4462 12.918 12.7082 12.9052C11.968 12.8923 11.1979 13.0799 10.6001 13.424C9.93259 13.8081 9.60501 14.4063 9.564 15.0395C9.52357 15.6638 9.7615 16.307 10.1903 16.8091ZM19.1524 15.1791L19.1524 15.1792C18.4849 15.5633 18.1574 16.1614 18.1164 16.7947C18.0759 17.4189 18.3138 18.0622 18.7426 18.5642L18.7426 18.5642C19.4911 19.4404 20.7658 19.9769 21.968 19.7383C23.1698 19.4998 24.1969 18.3655 24.0988 17.1062C24.0471 16.4439 23.7116 15.8333 23.2555 15.3879C22.7426 14.8867 21.9985 14.6732 21.2606 14.6604C20.5204 14.6476 19.7502 14.8352 19.1524 15.1791ZM20.7727 18.5337L20.7727 18.5337C20.3494 18.4032 19.8302 18.0715 19.4993 17.6542C19.1711 17.2403 19.0643 16.7994 19.3151 16.3847C19.7653 15.6403 20.7636 15.4215 21.6551 15.6738C22.0932 15.7979 22.4753 16.0301 22.7223 16.3377C22.9645 16.6396 23.0842 17.0219 22.9957 17.4807C22.8982 17.9863 22.584 18.3138 22.1744 18.487C21.7571 18.6634 21.2402 18.6778 20.7727 18.5337ZM25.5008 8.73525L25.5008 8.73526C26.2492 9.61144 27.5239 10.1479 28.7261 9.90935C29.9279 9.67083 30.9551 8.53642 30.8569 7.27719C30.8053 6.6149 30.4697 6.00434 30.0136 5.55887C29.5007 5.05773 28.7566 4.84424 28.0187 4.83143C27.2785 4.81858 26.5083 5.00618 25.9106 5.35016L26.0352 5.56685L25.9105 5.35016C25.243 5.73429 24.9155 6.33246 24.8745 6.96567C24.834 7.58996 25.072 8.23321 25.5008 8.73525ZM27.5307 8.70469L27.4573 8.943L27.5307 8.70469C27.1074 8.57424 26.5883 8.24256 26.2573 7.82517C25.9292 7.41132 25.8223 6.97037 26.0731 6.55563C26.5234 5.81127 27.5217 5.59243 28.4131 5.84476C28.8513 5.96879 29.2334 6.20099 29.4803 6.50865C29.7226 6.81053 29.8423 7.19282 29.7538 7.65164C29.6562 8.15724 29.3421 8.48481 28.9325 8.65799C28.5152 8.83443 27.9983 8.84881 27.5307 8.70469ZM28.5509 17.9792L28.741 17.8169L28.5509 17.9792C29.2993 18.8554 30.574 19.3919 31.7762 19.1533L31.7762 19.1533C32.978 18.9147 34.0052 17.7804 33.907 16.5212C33.8554 15.8589 33.5198 15.2483 33.0638 14.8028C32.5508 14.3017 31.8067 14.0882 31.0688 14.0754C30.3286 14.0626 29.5585 14.2502 28.9607 14.5941L29.0853 14.8108L28.9607 14.5941C28.2931 14.9783 27.9656 15.5764 27.9246 16.2097C27.8841 16.8339 28.1221 17.4772 28.5509 17.9792ZM32.8039 16.8956C32.7064 17.4012 32.3922 17.7288 31.9826 17.9019C31.5653 18.0784 31.0484 18.0928 30.5808 17.9487C30.1575 17.8182 29.6384 17.4865 29.3075 17.0692C28.9793 16.6553 28.8725 16.2144 29.1233 15.7996C29.5735 15.0553 30.5718 14.8364 31.4632 15.0887C31.9014 15.2128 32.2835 15.445 32.5304 15.7526C32.7727 16.0545 32.8924 16.4368 32.8039 16.8956Z" fill="black" stroke="black" stroke-width="0.5"/>
</g>
<defs>
<clipPath id="clip0_361_880">
<rect width="46" height="45" fill="white"/>
</clipPath>
</defs>
</svg>
