<svg width="64" height="64" viewBox="0 0 64 64" fill="none" xmlns="http://www.w3.org/2000/svg">
<g clip-path="url(#clip0_57_518)">
<path d="M14.3952 61.314C20.4014 60.946 25.0448 57.7051 29.5025 54.1722C30.0712 53.7215 30.6368 53.2662 31.2017 52.8114C35.0762 49.6921 38.9216 46.5963 43.5506 45.1719C44.9967 44.7271 46.6445 44.4313 48.3644 44.1402C48.5336 44.1115 48.7036 44.0829 48.8741 44.0542C50.4327 43.7918 52.0372 43.5217 53.5798 43.1384C57.0011 42.2882 60.1576 40.8719 61.8811 37.6997L61.8811 37.6996C63.1258 35.4044 63.6112 32.7472 63.8858 30.1765L63.8858 30.1765C64.092 28.2418 63.9898 25.9909 63.7943 23.7578C63.6965 22.6405 63.5752 21.5256 63.4569 20.4552C63.447 20.3648 63.437 20.2748 63.4271 20.185C63.3194 19.2117 63.2162 18.2791 63.1376 17.4169L63.1381 17.4169L14.386 61.1643M14.3952 61.314L14.386 61.1643M14.3952 61.314C14.3952 61.314 14.3952 61.314 14.3953 61.314L14.386 61.1643M14.3952 61.314C6.20977 61.8208 0.418506 54.8241 0.0254226 46.8228L0.0250251 46.8147H0.0252437L0.089831 33.5594M14.386 61.1643C6.30762 61.6646 0.565492 54.7591 0.175242 46.8154L0.239867 33.5524M0.089831 33.5594C0.0900845 33.562 0.0903384 33.5646 0.0905928 33.5672L0.239867 33.5524M0.089831 33.5594C0.0617323 33.2737 0.0396801 32.9864 0.0254237 32.6971L0.025421 32.697C-0.361281 24.7899 3.89399 16.2543 10.8566 10.9397C17.9225 5.54599 27.5874 2.7665 39.5678 2.66319C44.7815 2.61655 52.3753 3.06206 57.8796 7.47616L57.8796 7.47618C60.8101 9.8272 62.8232 13.6212 63.1357 17.3839L10.9476 11.0589C4.01924 16.3474 -0.208758 24.8378 0.175242 32.6897C0.189492 32.9789 0.211617 33.2663 0.239867 33.5524M0.089831 33.5594L0.0898687 33.5517L0.239867 33.5524M62.9875 17.4282L63.0163 17.4258L63.137 17.416C63.137 17.4166 63.137 17.4165 63.1369 17.41L63.1362 17.4057C63.1347 17.3967 63.1326 17.3893 63.131 17.3843L62.9875 17.4282ZM62.9875 17.4282L63.0911 17.4133L63.136 17.4068C63.1359 17.4065 63.1359 17.4061 63.1358 17.4058C63.1344 17.3968 63.1325 17.3895 63.1309 17.3843L62.9875 17.4282ZM39.5821 4.26317L39.5819 4.26318C27.9304 4.36362 18.5972 7.0434 11.827 12.2115C5.26336 17.2221 1.26279 25.237 1.62356 32.6188L39.5821 4.26317ZM39.5821 4.26317C44.5816 4.21305 51.789 4.6422 56.8783 8.72457L56.9721 8.60756M39.5821 4.26317L56.9721 8.60756M56.9721 8.60756L56.8783 8.72457C59.4757 10.8077 61.2641 14.1786 61.5414 17.5163L61.5426 17.5342C61.5428 17.5378 61.5431 17.5421 61.5434 17.5465C61.5434 17.5472 61.5434 17.548 61.5434 17.5487V17.5558M56.9721 8.60756L61.5434 17.5558M61.5434 17.5558L61.544 17.5629M61.5434 17.5558L61.544 17.5629M61.5468 17.516C61.5469 17.516 61.5469 17.5159 61.5469 17.5159L61.5468 17.516ZM61.5468 17.516L61.5468 17.5164L61.5467 17.5168M61.5468 17.516C61.5468 17.5162 61.5468 17.5165 61.5467 17.5168M61.5467 17.5168L61.5464 17.5181V17.5182C61.5465 17.5177 61.5466 17.5172 61.5467 17.5168ZM61.544 17.5629L61.5452 17.5748C61.5452 17.5752 61.5453 17.5756 61.5453 17.576C61.6867 19.395 61.4424 21.9719 59.5337 24.1089L59.6456 24.2088M61.544 17.5629L59.6456 24.2088M59.6456 24.2088L59.5337 24.1089C57.6541 26.2137 55.0154 27.122 52.0966 27.7245M59.6456 24.2088L52.0966 27.7245M52.0966 27.7245C51.0658 27.9373 50.0059 28.1109 48.9344 28.2864M52.0966 27.7245L48.9344 28.2864M48.9344 28.2864C48.4883 28.3595 48.0402 28.4329 47.5913 28.5096M48.9344 28.2864L47.5913 28.5096M47.5913 28.5096C46.0677 28.77 44.541 29.0675 43.0803 29.5169M47.5913 28.5096L43.0803 29.5169M43.0803 29.5169C38.2714 30.9965 34.2261 34.2228 30.2558 37.3894M43.0803 29.5169L30.2558 37.3894M30.2558 37.3894C29.7612 37.7838 29.2678 38.1774 28.7742 38.5665M30.2558 37.3894L28.7742 38.5665M28.7742 38.5665C24.306 42.0889 19.822 45.2525 14.2968 45.5913M28.7742 38.5665L14.2968 45.5913M14.2968 45.5913C11.2783 45.7752 8.48168 44.8108 6.23231 42.7964M14.2968 45.5913L6.23231 42.7964M6.23231 42.7964C3.54473 40.3894 1.81806 36.5848 1.62356 32.6189L6.23231 42.7964ZM14.3953 47.1883C14.646 47.1729 14.8938 47.1489 15.1394 47.1216V59.6409C14.86 59.674 14.5793 59.6999 14.2969 59.7172C13.6391 59.7572 12.9925 59.7372 12.3582 59.6682V47.1514C13.0448 47.2176 13.6572 47.234 14.3953 47.1883ZM14.3953 47.1883L14.3861 47.0386M14.3953 47.1883C14.3953 47.1883 14.3954 47.1883 14.3954 47.1883L14.3861 47.0386M14.3861 47.0386C14.6391 47.023 14.8897 46.9986 15.1394 46.9707L14.3861 47.0386ZM61.5469 17.5158C61.547 17.5155 61.547 17.5155 61.5469 17.5157L61.5469 17.5158ZM7.67724 45.7443V58.0182C6.4897 57.2607 5.69113 56.4688 4.90312 55.4959V43.7464C4.9894 43.828 5.07673 43.9086 5.16509 43.988L5.16531 43.9882C5.94786 44.6888 6.79085 45.2694 7.67724 45.7443ZM45.9105 30.4587C46.8297 30.2668 47.7635 30.1025 48.6916 29.9487V42.455C47.775 42.6042 46.8429 42.761 45.9105 42.9476V30.4587ZM49.6416 42.2987V29.7912C50.5688 29.6381 51.5013 29.4778 52.4221 29.2865V41.7763C51.4999 41.9784 50.5681 42.1452 49.6416 42.2987ZM37.5047 33.9728V46.2122C36.5557 46.7864 35.6331 47.4071 34.7306 48.0568V35.9171C35.6381 35.2365 36.5604 34.5813 37.5047 33.9728ZM38.4547 33.3833C39.3584 32.842 40.2838 32.3508 41.2359 31.9256V44.3066C40.2788 44.6996 39.3543 45.1572 38.4547 45.6598V33.3833ZM18.8634 46.3084V58.7446C17.9573 59.0685 17.0327 59.3212 16.0892 59.492V46.9891C17.0352 46.8343 17.9595 46.6037 18.8634 46.3084ZM19.8134 58.3751V45.9769C20.7627 45.6153 21.6887 45.1856 22.5945 44.7062V57.0079C21.6863 57.5232 20.7594 57.9832 19.8134 58.3751ZM23.5445 56.4443V44.185C24.4913 43.6399 25.4147 43.0425 26.3186 42.4143V54.5782C25.4126 55.2373 24.4881 55.8653 23.5445 56.4443ZM8.62712 58.5548V46.2011C9.51795 46.5854 10.4516 46.8619 11.4082 47.0247V59.5166C10.4413 59.3261 9.50537 59.0025 8.62712 58.5548ZM1.62464 46.7835L1.66172 39.2495C2.27268 40.531 3.0416 41.7136 3.95312 42.7563V54.1792C2.59584 52.0305 1.75622 49.4386 1.62464 46.7835ZM27.2685 41.7405C28.2968 40.992 29.1326 40.3376 30.0496 39.6067V51.685L29.9519 51.7633C29.0205 52.5106 28.2146 53.157 27.2685 53.8732V41.7405ZM30.9996 50.9236V38.8474C31.937 38.0951 32.88 37.3384 33.7807 36.641V48.7547C32.8375 49.462 31.9132 50.1927 30.9996 50.9236ZM42.1857 43.9438V31.5268C42.6353 31.3507 43.0892 31.1879 43.5506 31.0459C44.0082 30.9052 44.4804 30.7824 44.9605 30.6681V43.1532C43.7154 43.435 42.9853 43.6552 42.1857 43.9438ZM53.372 41.5543V29.0759C54.3224 28.8497 55.2535 28.5765 56.1467 28.2289V40.6263C55.1736 41.0588 54.2819 41.3246 53.372 41.5543ZM57.0967 40.1562V27.8229C58.0948 27.3534 59.0328 26.7686 59.8779 26.0191V37.8373C59.2424 38.6492 58.302 39.4858 57.0967 40.1562ZM62.2952 30.0066C62.0691 32.1239 61.6996 34.2968 60.8279 36.2169V25.0527C61.3415 24.4568 61.7773 23.7989 62.1254 23.0949C62.3603 25.5232 62.5108 27.9818 62.2952 30.0066Z" fill="#8BC43F" stroke="#8BC43F" stroke-width="0.3"/>
<path d="M10.9115 27.5345C10.0256 29.0957 10.0488 30.9975 10.9323 32.4985C11.8197 34.006 13.585 35.1245 16.2084 35.0682L16.2093 35.0682C19.5599 35.0157 21.5099 33.2703 21.9297 31.3898L10.9115 27.5345ZM10.9115 27.5345L10.9321 27.4989C11.8309 25.9463 13.302 25.0252 15.0819 24.9008C17.0606 24.7656 18.9549 25.5897 20.2647 26.8542C21.5761 28.1204 22.2821 29.807 21.9297 31.3897L10.9115 27.5345ZM16.2336 36.6681L16.2342 36.6681C20.2877 36.6048 22.9028 34.3797 23.4907 31.7377C23.9772 29.5571 23.0641 27.36 21.432 25.7585C19.7993 24.1564 17.4313 23.133 14.9703 23.3046L14.9703 23.3046C12.6468 23.4671 10.7181 24.6736 9.54754 26.6973L9.52738 26.7321V26.7328C8.35568 28.7871 8.36617 31.2823 9.49974 33.26C10.6427 35.254 12.9175 36.7067 16.2336 36.6681Z" fill="#8BC43F" stroke="#8BC43F" stroke-width="0.3"/>
<path d="M16.2593 33.0108C16.2558 32.8867 16.2118 32.7639 16.1065 32.6747C16.0042 32.5881 15.8639 32.5502 15.7006 32.5502C14.7181 32.5502 13.7378 31.9852 13.2506 31.1319L13.2506 31.1319C12.7512 30.2579 12.7753 29.0934 13.3103 28.2408C13.8455 27.3879 14.8751 26.8549 15.8871 26.9294L15.8871 26.9296L15.8951 26.9298C16.1381 26.9347 16.3752 26.7575 16.3943 26.4886L16.3944 26.4881C16.4029 26.3624 16.3612 26.2385 16.2785 26.1435C16.1958 26.0485 16.0787 25.9902 15.9531 25.9814L15.9526 25.9814C14.5983 25.8907 13.2235 26.5922 12.5053 27.7359L12.5052 27.736C11.7885 28.8797 11.7562 30.4309 12.4253 31.6031L12.4254 31.6031C13.0799 32.7483 14.3853 33.5002 15.7025 33.5002C15.871 33.5002 16.0146 33.4563 16.1169 33.3631C16.2209 33.2682 16.2629 33.1394 16.2593 33.0108ZM16.2593 33.0108L16.1093 33.0151L16.2593 33.0108C16.2593 33.0108 16.2593 33.0108 16.2593 33.0108ZM17.7564 33.2027C17.7109 32.945 17.4619 32.7705 17.2048 32.8186C17.2045 32.8187 17.2042 32.8187 17.2038 32.8188L16.9406 32.8658L16.9406 32.8657L16.9361 32.8667C16.8154 32.8921 16.7094 32.9634 16.6404 33.0655C16.5713 33.1677 16.5447 33.2927 16.5662 33.4141C16.5876 33.5355 16.6554 33.6438 16.7553 33.7161C16.8551 33.7885 16.9792 33.8191 17.1012 33.8017L17.1012 33.8018L17.1062 33.8009L17.3722 33.7536L17.3723 33.7536C17.4337 33.7427 17.4923 33.7197 17.5449 33.6861C17.5975 33.6525 17.6429 33.6089 17.6785 33.5577C17.7142 33.5065 17.7395 33.4488 17.7528 33.3878C17.7661 33.3269 17.7674 33.264 17.7564 33.2027ZM17.7564 33.2027C17.7564 33.2028 17.7564 33.2028 17.7564 33.2029L17.6087 33.2289L17.7564 33.2025C17.7564 33.2025 17.7564 33.2026 17.7564 33.2027ZM28.3103 10.1505L28.3091 10.1511C28.0748 10.26 27.7899 10.1641 27.6774 9.92535C27.6773 9.92524 27.6773 9.92513 27.6772 9.92502L27.813 9.86118L28.3103 10.1505ZM28.3103 10.1505C35.0002 6.96986 42.9842 6.98339 49.6654 10.1862C52.3526 11.4743 54.1601 12.9892 55.2122 14.8111L55.3421 14.7361M28.3103 10.1505L55.3421 14.7361M55.3421 14.7361L55.2122 14.8111C56.4944 17.0309 56.4252 19.7594 55.0802 21.4444M55.3421 14.7361L55.0802 21.4444M54.3281 22.7805L54.3283 22.7802L54.5477 22.5608L54.3281 22.7805ZM54.3281 22.7805C54.2391 22.8697 54.1893 22.9907 54.1896 23.1167M54.3281 22.7805L54.1896 23.1167M55.221 23.2314L55.2208 23.2316L55.0014 23.451L55.221 23.2314ZM55.221 23.2314C55.3099 23.1421 55.3597 23.0212 55.3595 22.8952M55.221 23.2314L55.3595 22.8952M55.0802 21.4444C55.0412 21.4932 55.0122 21.5491 54.9949 21.6091C54.9776 21.669 54.9723 21.7318 54.9793 21.7939C54.9862 21.8559 55.0054 21.9159 55.0356 21.9705C55.0658 22.0251 55.1065 22.0733 55.1553 22.1121M55.0802 21.4444L55.7051 21.9437L55.8224 22.0372C55.7835 22.086 55.7354 22.1266 55.6808 22.1567C55.6262 22.1869 55.5662 22.206 55.5042 22.2129C55.4422 22.2199 55.3795 22.2145 55.3196 22.1972C55.2598 22.1799 55.2039 22.151 55.1553 22.1121M55.1553 22.1121C55.1552 22.1121 55.1551 22.112 55.155 22.112L55.2487 21.9948L55.1553 22.1121ZM56.0344 14.3361C54.8752 12.328 52.9195 10.6924 50.0757 9.3298L56.0344 14.3361ZM56.0344 14.3361L55.9045 14.4111L56.0344 14.336C56.0344 14.336 56.0344 14.3361 56.0344 14.3361ZM54.1896 23.1167C54.1898 23.2427 54.2401 23.3635 54.3294 23.4524M54.1896 23.1167L54.3294 23.4524M54.3294 23.4524C54.4187 23.5413 54.5397 23.5911 54.6657 23.5909M54.3294 23.4524L54.6657 23.5909M54.6657 23.5909C54.7916 23.5906 54.9123 23.5404 55.0012 23.4513L54.6657 23.5909ZM55.3595 22.8952C55.3592 22.7691 55.3089 22.6484 55.2196 22.5595M55.3595 22.8952L55.2196 22.5595M55.2196 22.5595C55.1303 22.4705 55.0094 22.4207 54.8834 22.421M55.2196 22.5595L54.8834 22.421M54.8834 22.421C54.7575 22.4212 54.6368 22.4715 54.5479 22.5606L54.8834 22.421Z" fill="#8BC43F" stroke="#8BC43F" stroke-width="0.3"/>
<path d="M30.9582 11.7625L31.0113 11.9028C36.8661 9.68306 43.6465 10.1458 49.1469 13.1403C50.5269 13.8918 51.4149 14.5918 52.0424 15.4091C52.8263 16.4315 53.1291 17.6497 52.8735 18.664L52.8734 18.6641C52.8427 18.7863 52.8618 18.9158 52.9265 19.024C52.9912 19.1322 53.0962 19.2103 53.2184 19.241C53.3407 19.2718 53.4702 19.2527 53.5784 19.188C53.6866 19.1233 53.7646 19.0183 53.7954 18.896L53.7954 18.896C54.1246 17.5847 53.7445 16.0668 52.7958 14.8311C51.875 13.6309 50.597 12.848 49.6012 12.3062C43.8604 9.18015 36.7855 8.69678 30.6738 11.0149L30.6738 11.0149C30.5561 11.0596 30.4609 11.1492 30.4093 11.264C30.3576 11.3788 30.3536 11.5095 30.3983 11.6272L30.3984 11.6276C30.4914 11.8706 30.7631 11.9991 31.0124 11.9024L30.9582 11.7625ZM30.9582 11.7625C30.7887 11.8283 30.6027 11.7417 30.5385 11.574L53.0189 18.7007C53.288 17.6327 52.9669 16.3683 52.1614 15.3178C51.5164 14.4777 50.6088 13.7655 49.2187 13.0085C43.6798 9.99317 36.8538 9.5273 30.9582 11.7625ZM16.0225 41.1379L16.0225 41.1379C16.0422 41.1972 16.05 41.2598 16.0454 41.3221C16.0408 41.3843 16.024 41.4451 15.9959 41.5008C15.9678 41.5566 15.9289 41.6063 15.8816 41.647C15.8343 41.6876 15.7794 41.7186 15.7202 41.738C15.7201 41.7381 15.7201 41.7381 15.72 41.7381L16.0225 41.1379ZM16.0225 41.1379C15.9404 40.8906 15.6712 40.7518 15.4219 40.8365L15.4702 40.9785M16.0225 41.1379L5.36296 29.421L5.36294 29.4212C4.98047 32.7606 5.75641 35.9209 7.4745 38.0975C9.42515 40.5674 12.772 41.7095 15.4232 40.8361L15.4702 40.9785M15.4702 40.9785C12.7503 41.8745 9.34041 40.7022 7.35679 38.1904M15.4702 40.9785L7.35679 38.1904M7.35679 38.1904C5.60929 35.9767 4.82791 32.7744 5.21391 29.4042C5.22358 29.3185 5.19886 29.2326 5.14519 29.1651C5.09152 29.0977 5.01328 29.0543 4.92766 29.0445L4.9449 28.8955C4.94487 28.8955 4.94483 28.8955 4.9448 28.8955L7.35679 38.1904ZM4.41874 29.3137L4.56779 29.3305L4.76002 28.9106C4.7 28.9278 4.64394 28.9566 4.59506 28.9954C4.54618 29.0343 4.50545 29.0824 4.47519 29.137C4.44497 29.1916 4.42579 29.2515 4.41876 29.3135C4.41875 29.3136 4.41874 29.3136 4.41874 29.3137Z" fill="#8BC43F" stroke="#8BC43F" stroke-width="0.3"/>
</g>
<defs>
<clipPath id="clip0_57_518">
<rect width="64" height="64" fill="white"/>
</clipPath>
</defs>
</svg>
