<svg width="63" height="64" viewBox="0 0 63 64" fill="none" xmlns="http://www.w3.org/2000/svg">
<g clip-path="url(#clip0_57_573)">
<path d="M62.1699 29.6531C62.1064 28.149 60.089 28.4615 60.089 28.4615C60.089 28.4615 59.2749 28.5878 59.397 27.5224C59.5191 26.4571 60.9096 24.3264 57.0638 24.3264C53.218 24.3264 17.8615 24.2001 11.9999 24.3264C6.13839 24.4527 2.79732 23.6383 2.41957 26.0183V27.898C2.41957 27.898 2.86082 28.4 2.04183 28.4C1.22284 28.4 0.213352 28.3336 0.02448 29.4022C-0.164392 30.4707 0.781596 31.0326 1.60058 31.0326H2.41469C2.41469 31.0326 1.89529 41.6229 2.53355 42.9392C3.1718 44.2555 3.80192 46.3246 7.45724 46.2615C11.1126 46.1983 42.8789 46.2615 42.8789 46.2615C42.8789 46.2615 55.7417 46.9512 57.3699 46.2615C58.9981 45.5718 59.397 44.5064 59.5224 40.3147C59.6478 36.1229 58.7083 30.9127 59.5224 30.9127C60.3365 30.9127 62.2317 31.1572 62.1699 29.6531ZM55.8671 43.8167C53.4085 43.8167 9.35247 44.5696 7.39863 44.0676C5.44478 43.5657 5.19241 44.0045 5.06703 42.1879C4.94166 40.3713 4.75116 32.8491 4.68929 30.8431C4.62742 28.8371 4.57043 27.1015 5.06703 27.0837C5.06703 27.0837 25.1721 26.3308 36.8952 26.7696C48.6183 27.2083 56.1194 26.8586 56.1194 26.8586C56.1194 26.8586 57.0638 26.4571 57.0638 27.7734C57.0638 29.0897 57.505 39.8063 57.5685 41.3735C57.632 42.9408 58.324 43.8167 55.8671 43.8167Z" fill="#8BC43F"/>
<path d="M12.3044 39.1603L11.7411 39.0713C11.0719 38.9644 9.58533 39.6412 9.47787 40.3082L6.82227 62.0037C6.79672 62.1619 6.80279 62.3235 6.84012 62.4794C6.87745 62.6353 6.94531 62.7823 7.03982 62.9121C7.13433 63.0418 7.25364 63.1518 7.39092 63.2357C7.52821 63.3196 7.68077 63.3757 7.8399 63.4009L8.40326 63.49C8.56247 63.5154 8.72515 63.5093 8.88199 63.4721C9.03883 63.4348 9.18675 63.3672 9.31727 63.2731C9.44779 63.1789 9.55835 63.0601 9.64263 62.9234C9.72691 62.7867 9.78324 62.6348 9.8084 62.4764L14.0173 40.8085C14.1231 40.1431 12.9736 39.2672 12.3044 39.1603Z" fill="#8BC43F"/>
<path d="M17.4218 44.8205L16.1876 44.5695C15.5185 44.4627 14.662 44.6051 14.5594 45.2706L12.6056 61.2718C12.58 61.43 12.5861 61.5916 12.6234 61.7475C12.6608 61.9034 12.7286 62.0504 12.8231 62.1802C12.9177 62.3099 13.037 62.4199 13.1742 62.5038C13.3115 62.5877 13.4641 62.6438 13.6232 62.669L14.1866 62.7597C14.5081 62.8105 14.8367 62.7323 15.1002 62.5422C15.3637 62.3522 15.5405 62.0658 15.5917 61.7462L18.7504 45.4843C18.8465 44.8189 18.0894 44.9257 17.4218 44.8205Z" fill="#8BC43F"/>
<path d="M50.4028 39.667L50.9662 39.578C51.6354 39.4711 53.122 40.1479 53.2294 40.8133L55.8866 62.5088C55.9378 62.8286 55.8592 63.1556 55.6681 63.4179C55.477 63.6802 55.189 63.8563 54.8674 63.9076L54.304 63.9967C53.9825 64.0475 53.6539 63.9693 53.3904 63.7792C53.1269 63.5892 52.9501 63.3028 52.8989 62.9832L48.6916 41.3104C48.5841 40.6385 49.7337 39.7674 50.4028 39.667Z" fill="#8BC43F"/>
<path d="M45.2869 45.3208L46.5211 45.0699C47.1903 44.9646 48.0467 45.1055 48.1493 45.7709L50.1031 61.7738C50.1543 62.0935 50.0756 62.4202 49.8845 62.6823C49.6933 62.9443 49.4054 63.1201 49.0839 63.171L48.5205 63.2601C48.3613 63.2855 48.1986 63.2794 48.0418 63.2421C47.885 63.2049 47.737 63.1373 47.6065 63.0432C47.476 62.949 47.3654 62.8302 47.2812 62.6935C47.1969 62.5568 47.1405 62.4049 47.1154 62.2465L43.9616 45.9814C43.8606 45.3192 44.6128 45.4277 45.2869 45.3208Z" fill="#8BC43F"/>
<path d="M13.3188 31.6608C13.3188 32.459 12.6675 32.6613 11.8665 32.6613C11.0654 32.6613 10.1389 32.4088 10.4141 31.6608C10.7397 30.7816 11.2021 30.2198 11.8665 30.2166C12.0572 30.2163 12.2462 30.2536 12.4225 30.3261C12.5988 30.3986 12.759 30.5049 12.8939 30.6391C13.0288 30.7732 13.1358 30.9325 13.2087 31.1078C13.2816 31.2831 13.319 31.471 13.3188 31.6608Z" fill="#8BC43F"/>
<path d="M24.6511 31.6608C24.6511 32.459 23.9998 32.6613 23.1987 32.6613C22.3976 32.6613 21.4712 32.4088 21.7464 31.6608C22.072 30.7816 22.5344 30.2198 23.1987 30.2166C23.3895 30.2163 23.5785 30.2536 23.7548 30.3261C23.9311 30.3986 24.0913 30.5049 24.2262 30.6391C24.3611 30.7732 24.4681 30.9325 24.541 31.1078C24.6139 31.2831 24.6513 31.471 24.6511 31.6608Z" fill="#8BC43F"/>
<path d="M37.7745 31.6608C37.7745 32.459 37.1232 32.6613 36.3238 32.6613C35.5243 32.6613 34.5946 32.4088 34.8714 31.6608C35.197 30.7816 35.6595 30.2198 36.3238 30.2166C36.5144 30.2166 36.7032 30.2539 36.8793 30.3265C37.0554 30.3991 37.2154 30.5055 37.3502 30.6396C37.4849 30.7738 37.5917 30.933 37.6645 31.1082C37.7373 31.2834 37.7747 31.4712 37.7745 31.6608Z" fill="#8BC43F"/>
<path d="M51.9398 31.6608C51.9398 32.459 51.2885 32.6613 50.4874 32.6613C49.6863 32.6613 48.7599 32.4088 49.0367 31.6608C49.3623 30.7816 49.8231 30.2198 50.4874 30.2166C50.6782 30.2163 50.8672 30.2536 51.0435 30.3261C51.2198 30.3986 51.38 30.5049 51.5149 30.6391C51.6498 30.7732 51.7568 30.9325 51.8297 31.1078C51.9026 31.2831 51.94 31.471 51.9398 31.6608Z" fill="#8BC43F"/>
<path d="M14.9616 21.9578C13.3237 20.724 13.1348 18.4978 9.54133 19.6247C5.94788 20.7516 6.80595 24.286 6.80595 24.286L14.9616 24.511C14.9616 24.511 16.6077 23.198 14.9616 21.9578ZM10.4206 23.1348C9.86372 23.1348 8.70606 23.3663 8.79236 22.8223C8.79236 22.8223 8.89982 20.7532 10.4206 20.7532C11.9413 20.7532 13.6379 22.1326 13.7649 22.8288C13.8919 23.525 10.9725 23.1348 10.4206 23.1348Z" fill="#8BC43F"/>
<path d="M20.0498 24.5952L28.2071 24.3701C28.2071 24.3701 29.0635 20.8341 25.4701 19.7056C21.8766 18.5771 21.6894 20.7985 20.0498 22.0387C18.4102 23.2789 20.0498 24.5952 20.0498 24.5952ZM21.2481 22.9032C21.3735 22.2135 23.075 20.8341 24.5973 20.8341C26.1197 20.8341 26.2255 22.9032 26.2255 22.9032C26.3118 23.4472 25.1542 23.2157 24.5973 23.2157C24.0405 23.2157 21.1211 23.5913 21.2481 22.9032Z" fill="#8BC43F"/>
<path d="M40.4968 22.0792C38.8572 20.839 38.6683 18.6193 35.0765 19.7526C31.4847 20.8859 32.3411 24.4171 32.3411 24.4171L40.4968 24.6422C40.4968 24.6422 42.1348 23.3145 40.4968 22.0792ZM35.9492 23.2563C35.3908 23.2563 34.2331 23.4878 34.321 22.9438C34.321 22.9438 34.4285 20.8746 35.9492 20.8746C37.47 20.8746 39.1731 22.2541 39.2985 22.9438C39.4238 23.6335 36.5077 23.2563 35.9492 23.2563Z" fill="#8BC43F"/>
<path d="M45.5899 24.7166L53.7455 24.4916C53.7455 24.4916 54.602 20.9555 51.0102 19.827C47.4183 18.6986 47.2181 20.9199 45.5899 22.1601C43.9617 23.4003 45.5899 24.7166 45.5899 24.7166ZM46.7866 23.0247C46.9136 22.335 48.6151 20.9555 50.1374 20.9555C51.6598 20.9555 51.7656 23.0247 51.7656 23.0247C51.8536 23.5687 50.6943 23.3372 50.1374 23.3372C49.5806 23.3372 46.6563 23.7128 46.7817 23.0247H46.7866Z" fill="#8BC43F"/>
<path d="M24.9279 5.96302C24.9279 5.96302 25.5483 7.80066 24.205 8.71543C22.8617 9.6302 22.7754 11.6443 23.4463 13.5661C24.1171 15.488 25.7257 16.0287 26.3477 15.0298C26.9697 14.0308 25.2975 13.0238 25.2975 11.6443C25.2975 10.2649 27.9857 9.09591 27.9857 6.5896C27.9857 4.08329 26.8655 2.3687 25.5108 2.11774C24.1561 1.86679 22.5589 3.23813 24.9279 5.96302Z" fill="#8BC43F"/>
<path d="M30.8139 3.87281C30.8139 3.87281 31.4342 5.71207 30.0893 6.62522C28.7444 7.53837 28.6565 9.55249 29.3338 11.4776C30.0112 13.4026 31.6019 13.9434 32.2337 12.9347C32.8654 11.926 31.1818 10.9303 31.1818 9.55087C31.1818 8.17142 33.8668 7.00732 33.8668 4.49939C33.8668 1.99146 32.7465 0.280104 31.3968 0.0291492C30.047 -0.221806 28.4448 1.13335 30.8139 3.87281Z" fill="#8BC43F"/>
<path d="M37.242 6.67208C37.242 6.67208 37.8639 8.51133 36.5191 9.42449C35.1742 10.3376 35.0895 12.3485 35.7619 14.2703C36.4344 16.1922 38.0317 16.7362 38.6618 15.7275C39.2919 14.7188 37.6116 13.7344 37.6116 12.355C37.6116 10.9755 40.2997 9.80659 40.2997 7.29866C40.2997 4.79072 39.1747 3.07613 37.8249 2.82842C36.4751 2.5807 34.8746 3.94071 37.242 6.67208Z" fill="#8BC43F"/>
<path d="M6.93134 37.517C6.93134 37.517 5.85673 35.5093 5.81765 33.5519C5.77857 31.5944 6.36798 31.0617 6.55034 31.6883C6.7327 32.3149 6.58942 33.6441 6.62361 34.1542C6.65781 34.6642 7.72428 37.117 7.04369 37.3777" fill="#8BC43F"/>
<path d="M8.46674 38.1354C8.46674 38.1354 7.39213 36.1277 7.35305 34.1703C7.31397 32.2128 7.90338 31.6801 8.08574 32.3067C8.2681 32.9333 8.12482 34.2642 8.15901 34.7726C8.19321 35.281 9.25968 37.7355 8.57909 37.9961" fill="#8BC43F"/>
<path d="M9.73017 38.7993C9.73017 38.7993 8.65556 36.7932 8.61648 34.8358C8.5774 32.8784 9.16681 32.3457 9.34917 32.9723C9.53153 33.5988 9.38988 34.9281 9.42407 35.4381C9.45826 35.9481 10.5231 38.401 9.84252 38.6616" fill="#8BC43F"/>
</g>
<defs>
<clipPath id="clip0_57_573">
<rect width="62.1714" height="64" fill="white"/>
</clipPath>
</defs>
</svg>
