<svg width="47" height="45" viewBox="0 0 47 45" fill="none" xmlns="http://www.w3.org/2000/svg">
<g clip-path="url(#clip0_361_847)">
<path opacity="0.855" fill-rule="evenodd" clip-rule="evenodd" d="M23.2144 -0.0703125C23.5954 -0.0703125 23.9763 -0.0703125 24.3573 -0.0703125C26.5169 0.0684242 27.9691 1.14655 28.7144 3.16406C29.0294 4.35749 29.4103 5.52936 29.8573 6.67969C31.6601 8.58787 33.8744 9.83005 36.5001 10.4062C37.7991 10.5682 39.0849 10.8026 40.3573 11.1094C41.4361 11.3937 42.2219 12.0265 42.7144 13.0078C42.9896 14.3266 43.4181 15.5922 44.0001 16.8047C44.762 17.6484 45.524 18.4922 46.2859 19.3359C46.5889 19.8356 46.8031 20.3512 46.9287 20.8828C46.9287 21.6328 46.9287 22.3829 46.9287 23.1328C46.3599 26.0347 45.717 28.941 45.0001 31.8516C44.0489 34.6151 42.3107 36.7478 39.7859 38.25C38.0809 38.8876 36.3666 39.4969 34.643 40.0781C32.5916 41.021 30.7344 42.2398 29.0716 43.7344C28.076 44.318 27.0284 44.7164 25.9287 44.9297C25.3573 44.9297 24.7859 44.9297 24.2144 44.9297C23.117 44.6943 22.0217 44.3895 20.9287 44.0156C18.8633 43.0224 16.8156 41.9912 14.7859 40.9219C12.1728 40.0556 9.50618 39.3995 6.78585 38.9531C2.95038 37.3399 0.92657 34.4571 0.714425 30.3047C0.431935 28.083 0.170031 25.8798 -0.0712891 23.6953C-0.0712891 22.9454 -0.0712891 22.1953 -0.0712891 21.4453C0.139953 19.7684 0.735191 18.2215 1.71443 16.8047C3.02661 15.7243 4.43137 14.7632 5.92871 13.9219C7.1471 12.7195 7.98044 11.2899 8.42871 9.63281C8.63697 9.28687 8.89887 8.9822 9.21443 8.71875C10.0577 8.20744 10.9625 7.83243 11.9287 7.59375C12.23 7.43328 12.4919 7.22235 12.7144 6.96094C12.8865 6.08164 12.9817 5.191 13.0001 4.28906C13.1338 3.76771 13.3957 3.32239 13.7859 2.95312C16.7789 1.44748 19.9217 0.439672 23.2144 -0.0703125ZM21.643 1.19531C23.8749 0.976859 25.8987 1.49248 27.7144 2.74219C28.1457 3.21324 28.241 3.72885 28.0001 4.28906C27.5477 5.10937 26.9049 5.74218 26.0716 6.1875C25.3734 6.50768 24.6591 6.78893 23.9287 7.03125C22.356 7.22838 20.8084 7.53307 19.2859 7.94531C18.9157 7.93613 18.5586 7.86582 18.2144 7.73438C17.1357 7.10954 15.9929 6.64078 14.7859 6.32812C13.5243 5.76473 13.3338 4.96785 14.2144 3.9375C16.6627 2.92357 19.139 2.0095 21.643 1.19531ZM9.21443 20.6016C7.56285 21.8272 5.96761 23.1397 4.42871 24.5391C2.11797 27.3791 1.73703 30.4729 3.28585 33.8203C3.56385 34.4166 3.94481 34.9321 4.42871 35.3672C4.52395 35.1797 4.52395 34.9921 4.42871 34.8047C3.85694 33.5381 3.42837 32.2255 3.143 30.8672C2.8932 28.0413 3.86938 25.721 6.07157 23.9062C7.69307 22.7336 9.35973 21.6321 11.0716 20.6016C12.1986 19.8456 13.2701 19.0018 14.2859 18.0703C15.2364 17.1364 15.8079 16.0114 16.0001 14.6953C16.1259 13.4797 16.1973 12.2609 16.2144 11.0391C16.2447 10.1307 16.1494 9.24012 15.9287 8.36719C16.7987 8.22137 17.4416 8.54949 17.8573 9.35156C18.139 10.2665 18.3057 11.204 18.3573 12.1641C18.4637 15.4018 17.678 18.4019 16.0001 21.1641C14.1458 22.9555 12.0744 24.4555 9.78585 25.6641C8.15995 26.7255 6.85043 28.0849 5.85728 29.7422C5.3494 31.1759 5.39701 32.5821 6.00014 33.9609C5.70788 30.9503 6.87454 28.6768 9.50014 27.1406C11.5954 26.1562 13.6906 25.1719 15.7859 24.1875C18.4174 22.5474 19.7746 20.1803 19.8573 17.0859C19.9526 16.336 19.9526 15.5859 19.8573 14.8359C19.6451 13.3312 19.4784 11.8546 19.3573 10.4062C19.646 9.00766 20.527 8.32798 22.0001 8.36719C22.2609 8.42954 22.5227 8.47641 22.7859 8.50781C22.5807 9.86985 22.6046 11.2292 22.8573 12.5859C23.4686 14.1643 24.2304 15.6644 25.143 17.0859C25.885 18.5227 25.9326 19.9758 25.2859 21.4453C23.3144 24.8528 22.1953 28.509 21.9287 32.4141C22.0371 36.0079 23.6561 38.7032 26.7859 40.5C26.9763 40.5938 27.1669 40.5938 27.3573 40.5C25.4317 38.8852 24.0746 36.8931 23.2859 34.5234C22.8163 32.7905 22.8163 31.0562 23.2859 29.3203C24.23 26.907 25.23 24.5164 26.2859 22.1484C27.7326 18.8349 27.2564 15.8349 24.8573 13.1484C24.0526 11.7334 23.8621 10.2334 24.2859 8.64844C24.3299 8.5348 24.4013 8.44106 24.5001 8.36719C24.8654 8.23968 25.2226 8.09906 25.5716 7.94531C25.7229 9.10353 26.0086 10.2285 26.4287 11.3203C27.4997 13.2419 28.6426 15.1169 29.8573 16.9453C30.3157 17.8307 30.6014 18.7681 30.7144 19.7578C30.8097 21.6328 30.9049 23.5079 31.0001 25.3828C31.335 27.314 31.716 29.2359 32.143 31.1484C32.5626 33.0799 33.5387 34.6503 35.0716 35.8594C37.5376 36.6363 38.9186 35.7456 39.2144 33.1875C39.1906 33.0704 39.1669 32.9531 39.143 32.8359C38.748 33.8704 38.1527 34.7844 37.3573 35.5781C36.2649 35.937 35.4791 35.5854 35.0001 34.5234C34.4189 32.9943 33.895 31.4474 33.4287 29.8828C32.8557 26.4518 32.2367 23.03 31.5716 19.6172C30.7623 17.3202 29.6194 15.2108 28.143 13.2891C27.2556 11.3521 26.9699 9.33644 27.2859 7.24219C27.5314 6.95291 27.8171 6.71854 28.143 6.53906C28.4654 6.62202 28.7036 6.80951 28.8573 7.10156C29.3679 8.24812 29.9869 9.32624 30.7144 10.3359C32.0581 11.9405 33.5106 13.464 35.0716 14.9062C35.9979 15.6672 36.9979 16.3235 38.0716 16.875C39.824 17.5593 41.5859 18.2156 43.3573 18.8438C44.8734 19.9067 45.6354 21.3598 45.643 23.2031C45.6059 28.1017 43.844 32.2736 40.3573 35.7188C39.5954 36.1875 38.8334 36.6563 38.0716 37.125C34.58 38.3743 31.342 40.0618 28.3573 42.1875C25.767 43.6125 23.1003 43.7531 20.3573 42.6094C17.4699 41.2116 14.5651 39.8523 11.643 38.5312C9.73678 38.203 7.83201 37.875 5.92871 37.5469C2.96813 35.8452 1.42051 33.2906 1.28585 29.8828C1.20141 27.0225 1.15379 24.1632 1.143 21.3047C1.59434 18.5154 3.18957 16.6638 5.92871 15.75C8.12844 15.2793 10.1761 14.4824 12.0716 13.3594C13.363 12.1056 14.1011 10.5822 14.2859 8.78906C14.7396 9.70958 15.0491 10.6705 15.2144 11.6719C15.102 12.5191 14.7924 13.2926 14.2859 13.9922C13.6859 14.6298 13.0431 15.2158 12.3573 15.75C9.9525 17.2385 7.52393 18.6916 5.07157 20.1094C3.93997 20.9417 3.0114 21.9496 2.28585 23.1328C2.1788 23.2924 2.20261 23.433 2.35728 23.5547C3.73027 22.6502 5.15884 21.8299 6.643 21.0938C7.49287 20.8845 8.35001 20.7204 9.21443 20.6016ZM12.643 8.08594C12.872 8.05947 13.0625 8.12978 13.2144 8.29688C12.8268 11.396 11.0173 13.0835 7.78585 13.3594C8.00014 13.1484 8.21443 12.9375 8.42871 12.7266C8.86824 11.7208 9.34443 10.7364 9.85728 9.77344C10.6078 8.90135 11.5363 8.33885 12.643 8.08594ZM30.9287 9.07031C30.9373 8.99394 30.9849 8.94707 31.0716 8.92969C33.2966 10.4407 35.7729 11.3548 38.5001 11.6719C40.0964 11.8839 41.1203 12.7511 41.5716 14.2734C41.7504 15.0616 41.9647 15.8351 42.2144 16.5938C40.1187 16.102 38.1663 15.2582 36.3573 14.0625C34.4803 12.4727 32.6707 10.8087 30.9287 9.07031Z" fill="black"/>
<path opacity="0.846" fill-rule="evenodd" clip-rule="evenodd" d="M21.3573 1.75785C22.7835 1.57546 24.1169 1.83327 25.3573 2.53129C26.2857 3.66948 26.0477 4.51323 24.643 5.06254C23.8906 5.22579 23.1286 5.34297 22.3573 5.4141C22.1335 5.41734 21.943 5.34702 21.7859 5.20316C22.8117 4.81621 23.7165 4.25371 24.5002 3.51566C24.2049 3.23669 23.8477 3.07262 23.4287 3.02348C21.9123 3.34075 20.3886 3.622 18.8573 3.86723C18.4939 3.82203 18.351 3.63453 18.4287 3.30473C19.2482 2.48269 20.2243 1.96706 21.3573 1.75785Z" fill="black"/>
<path opacity="0.84" fill-rule="evenodd" clip-rule="evenodd" d="M30.2144 11.7422C30.6306 11.9399 30.9878 12.2212 31.2858 12.5859C32.9096 15.1692 34.9811 17.3489 37.5001 19.125C38.8711 19.866 40.2044 20.6629 41.5001 21.5156C43.1424 23.1322 43.4995 24.9837 42.5715 27.0703C41.4412 28.5517 40.2984 28.5517 39.1429 27.0703C37.4096 24.1695 35.4811 21.4038 33.3572 18.7734C34.0466 18.8511 34.6418 19.1791 35.1429 19.7578C37.1252 21.9275 38.9346 24.2245 40.5715 26.6484C40.9474 26.1806 41.1616 25.6416 41.2144 25.0312C41.0951 24.2093 40.8331 23.4359 40.4286 22.7109C38.9606 21.7891 37.5558 20.7813 36.2144 19.6875C34.3828 17.8838 32.6446 15.9854 31.0001 13.9922C30.5806 13.2926 30.3188 12.5426 30.2144 11.7422Z" fill="black"/>
<path opacity="0.832" fill-rule="evenodd" clip-rule="evenodd" d="M22.2143 20.8828C22.4 21.1251 22.4953 21.4298 22.5 21.7969C22.3314 23.5142 21.9265 25.1783 21.2857 26.7891C20.6667 28.1953 20.0475 29.6016 19.4285 31.0078C18.1645 34.1577 18.617 37.0405 20.7857 39.6562C20.7381 39.6797 20.6904 39.7031 20.6428 39.7266C18.1435 38.0389 17.0721 35.6951 17.4285 32.6953C17.6751 31.6388 18.0085 30.6076 18.4285 29.6016C19.5061 27.6677 20.5061 25.6989 21.4285 23.6953C21.6151 22.7295 21.877 21.792 22.2143 20.8828Z" fill="black"/>
<path opacity="0.818" fill-rule="evenodd" clip-rule="evenodd" d="M27.9285 25.8047C28.0536 25.7863 28.1489 25.8331 28.2142 25.9453C28.3949 26.4088 28.5616 26.8775 28.7142 27.3516C29.2866 29.5117 29.8581 31.6679 30.4285 33.8203C31.0026 35.0858 31.9312 36.0233 33.2142 36.6328C33.3912 36.8447 33.3435 37.0088 33.0714 37.125C32.3256 37.1341 31.6589 36.8997 31.0714 36.4219C29.7002 35.3042 28.8669 33.8744 28.5714 32.1328C28.5348 30.1776 28.2728 28.2556 27.7856 26.3672C27.8922 26.1934 27.9398 26.0058 27.9285 25.8047Z" fill="black"/>
</g>
<defs>
<clipPath id="clip0_361_847">
<rect width="47" height="45" fill="white"/>
</clipPath>
</defs>
</svg>
