<svg width="64" height="64" viewBox="0 0 64 64" fill="none" xmlns="http://www.w3.org/2000/svg">
<g clip-path="url(#clip0_295_2146)">
<path d="M61.5299 31.4557C61.0552 30.7273 60.4216 30.1158 59.6769 29.667C58.9321 29.2183 58.0954 28.9441 57.2295 28.8648C55.6535 28.8352 54.1085 29.3055 52.8163 30.2082C52.8971 29.3376 52.916 28.4623 52.8726 27.589C52.8332 22.6736 42.1741 19.8103 32.0849 19.6006C26.6443 19.4882 21.5003 20.0939 17.6036 21.3105C13.3926 22.621 11.1082 24.4816 10.986 26.6964C10.6839 29.5085 10.9374 32.3525 11.732 35.0668C12.3489 37.2627 13.2846 39.3562 14.5091 41.2804C14.1131 41.4229 13.7107 41.5666 13.3297 41.7192C8.18855 43.8437 5.32328 46.7044 5.26462 49.8131C5.20596 52.9219 7.90231 55.5128 13.0733 57.4187C17.7219 59.1202 24.1157 60.1747 31.0698 60.3244C35.3528 60.4317 39.6352 60.0902 43.8471 59.3055C49.5005 58.2026 54.0282 56.2761 56.1207 53.866C56.6191 53.3466 56.9935 52.721 57.2156 52.0362C57.4378 51.3514 57.502 50.6252 57.4034 49.9121C57.1758 48.4553 56.5978 47.0755 55.7192 45.8914C57.5266 45.2288 59.1303 44.1069 60.3724 42.6362C63.2581 39.1781 63.78 34.4662 61.5299 31.4557ZM51.4811 36.7676C53.0471 35.5362 55.5556 34.0557 56.6625 34.3484C56.7672 34.3801 56.862 34.4382 56.9379 34.517C57.0138 34.5958 57.0682 34.6927 57.0959 34.7985C57.5448 35.9629 56.7328 38.3188 54.8129 39.8083C54.1411 40.3987 53.3107 40.779 52.4248 40.902C51.5389 41.0249 50.6364 40.8852 49.8292 40.5002C50.4674 39.297 51.0081 38.0446 51.446 36.7549L51.4811 36.7676ZM50.7069 26.6486C50.801 26.8068 50.8737 26.9769 50.9229 27.1542L50.0489 28.5571L49.3015 29.7397C48.793 30.0636 48.2594 30.3464 47.706 30.5857C47.5009 30.4366 47.2894 30.2887 47.073 30.1484L48.0974 28.514L49.2799 26.6205L49.8566 25.6995C50.1811 25.9615 50.4571 26.2784 50.6718 26.6359L50.7069 26.6486ZM49.3451 25.3167L48.5395 26.602L47.3506 28.4967L46.4883 29.8255C46.0014 29.5484 45.4998 29.298 44.9857 29.0754L45.3689 28.4659L46.5855 26.5463L47.8717 24.4826C48.3713 24.7195 48.8522 24.9941 49.31 25.304L49.3451 25.3167ZM31.7983 32.939C27.2402 32.9191 22.7102 32.2252 18.3553 30.8796C21.4442 29.2989 26.5168 28.3942 31.9636 28.5053C37.4105 28.6165 42.363 29.737 45.3939 31.4019C40.964 32.5893 36.3814 33.1074 31.7983 32.939ZM47.2542 24.2249L45.8073 26.5351L44.6185 28.4297L44.3845 28.8014C44.0438 28.6592 43.6792 28.5282 43.3158 28.4035L42.7719 28.2227L43.8557 26.4919L45.6504 23.6249C46.2219 23.8133 46.7443 24.0179 47.2542 24.2249ZM45.0238 23.4211L43.1102 26.4809L42.11 28.0388C41.5573 27.8793 40.9994 27.7273 40.4114 27.5877L41.1273 26.4438L43.3089 22.9536C43.9559 23.0947 44.4886 23.2516 45.0238 23.4211ZM42.6897 22.7875L40.4168 26.4455L39.7807 27.4629C39.2101 27.346 38.6145 27.234 38.0186 27.1546L38.4677 26.4149L40.9542 22.4479C41.5386 22.536 42.123 22.6567 42.6897 22.7875ZM40.2721 22.294L37.7211 26.365L37.3189 27.0107C36.7144 26.92 36.1009 26.8506 35.4762 26.7899L35.7708 26.3281L38.4748 22.0056C39.0781 22.09 39.6839 22.187 40.2721 22.294ZM37.7774 21.9069L35.0241 26.3108L34.766 26.7262C34.1048 26.6792 33.5025 26.6337 32.8588 26.6093L33.0737 26.2739L35.932 21.7061C36.5242 21.7667 37.194 21.8577 37.7774 21.9069ZM35.1955 21.6411L32.3081 26.2602L32.0982 26.5881L32.0103 26.6052C31.3564 26.5959 30.7501 26.5968 30.1263 26.6076L30.3602 26.2359L33.2982 21.5418C33.9446 21.5461 34.5858 21.5905 35.1955 21.6411ZM32.0145 21.4792L32.5591 21.4968L29.6299 26.2024L29.3757 26.6041C28.6765 26.6296 27.9947 26.6778 27.3204 26.7311L27.6783 26.1592L30.5975 21.4687C31.092 21.4635 31.5615 21.4632 32.0333 21.4755L32.0145 21.4792ZM29.8431 21.479L26.9442 26.1394L26.5331 26.8065C25.7922 26.8858 25.0738 26.9803 24.3779 27.09L24.9813 26.105L27.8458 21.536C28.5049 21.5052 29.1754 21.4657 29.8619 21.4753L29.8431 21.479ZM27.0348 21.5899L24.222 26.0901L23.496 27.249C22.692 27.4058 21.9131 27.5578 21.1878 27.784L22.2941 26.0684L24.9729 21.7835C25.6524 21.69 26.3455 21.6331 27.0536 21.5862L27.0348 21.5899ZM24.1529 21.8587L21.5437 26.0322L20.3549 27.9269L20.2815 28.0521C19.3788 28.3325 18.4985 28.6808 17.6483 29.0939L18.4046 27.8901L19.5934 25.9954L21.9735 22.2186C22.677 22.0814 23.3994 21.9404 24.1529 21.8587ZM21.1192 22.3853L18.8516 26.0032L17.6627 27.8978L16.4903 29.7763L16.1554 29.9981C15.6999 29.7807 15.258 29.5359 14.8321 29.2651L15.7187 27.8598L16.9 25.96L18.7906 22.983C19.5174 22.6977 20.2963 22.5458 21.1192 22.3853ZM17.8593 23.2233L16.1545 25.949L14.9719 27.8424L14.3054 28.9049C13.8812 28.6083 13.5132 28.2385 13.2186 27.8128C13.2076 27.7562 13.1463 27.7095 13.1164 27.6566L14.2041 25.9121L15.2031 24.3479C16.0512 23.8872 16.9385 23.5024 17.8544 23.1982L17.8593 23.2233ZM13.2391 25.8787C13.4269 25.6259 13.6451 25.3972 13.8887 25.1977L13.4527 25.837L12.8861 26.7431C12.9222 26.428 13.0443 26.1289 13.2391 25.8787ZM15.8761 31.9762C19.7715 33.6941 25.5465 34.752 31.7652 34.8756C32.2635 34.8892 32.753 34.8915 33.2488 34.8926C36.4608 34.8912 39.6658 34.5913 42.8223 33.9966C44.2333 33.7281 45.6237 33.361 46.9834 32.898C47.2889 32.7928 47.5931 32.6812 47.8711 32.5683C48.9063 32.1757 49.8866 31.6513 50.7879 31.0082C50.7409 31.4021 50.6786 31.8185 50.6025 32.2637C50.3996 33.4907 50.1013 34.7 49.7105 35.8806C49.2006 37.4466 48.5214 38.9522 47.6847 40.3708C47.0307 41.4787 46.282 42.528 45.447 43.5068C43.7328 45.4764 41.6956 47.1395 39.4228 48.4249C38.1609 49.1413 36.7291 49.504 35.2783 49.4746L28.5676 49.3361C27.2204 49.2987 25.9038 48.9258 24.737 48.2511C14.9996 42.6584 13.0636 34.5723 12.7909 30.1328C13.7262 30.8843 14.7638 31.4987 15.8725 31.9573L15.8761 31.9762ZM45.7375 48.9405C45.6513 49.5518 45.3387 50.1085 44.8616 50.5003C42.9098 52.3613 37.6767 54.282 30.7955 54.105C22.2753 53.8826 16.5859 51.191 16.6323 48.8215C16.6488 47.9705 17.4324 47.1069 18.799 46.3578C20.3218 47.713 21.9834 48.9036 23.7564 49.9095C25.2122 50.7472 26.8555 51.2047 28.5348 51.2401L35.2454 51.3786C35.9532 51.394 36.6605 51.3326 37.355 51.1953C38.4232 50.9897 39.4506 50.6109 40.3965 50.0737C41.8645 49.2449 43.2451 48.27 44.5172 47.1637C45.319 47.7311 45.7642 48.342 45.7375 48.9405ZM54.6305 52.6113C51.5407 56.2266 41.6362 58.6348 31.1152 58.418C24.3632 58.268 18.2 57.2924 13.7495 55.6371C9.47444 54.0454 7.14332 51.9897 7.18845 49.8812C7.23359 47.7728 9.81219 45.281 14.0667 43.5251C14.5786 43.3079 15.1079 43.1133 15.6511 42.9226C16.2031 43.6463 16.7952 44.3384 17.4248 44.9957C15.6874 46.1171 14.7584 47.4721 14.7271 48.7823C14.6395 52.7118 21.3889 55.79 30.76 56.029C33.1897 56.0928 35.6192 55.8943 38.0064 55.437C41.5366 54.7483 44.5109 53.5161 46.2006 51.8823C46.6279 51.5237 46.9784 51.0824 47.231 50.5849C47.4835 50.0874 47.6329 49.544 47.6703 48.9874C47.6547 48.3596 47.4888 47.7447 47.1862 47.1944C46.8837 46.6441 46.4535 46.1744 45.9318 45.8249C46.0945 45.6562 46.2623 45.4801 46.4175 45.3063C48.651 46.366 51.1436 46.7562 53.5942 46.4298C54.5934 47.4813 55.2543 48.8084 55.4915 50.2394C55.5406 50.6729 55.4896 51.1119 55.3425 51.5227C55.1955 51.9335 54.9562 52.305 54.6431 52.6089L54.6305 52.6113ZM58.8671 41.404C57.8068 42.6542 54.0314 46.3315 47.6899 43.7735C48.094 43.26 48.4719 42.7233 48.8234 42.1635C51.4964 43.5983 54.8418 42.7305 56.834 40.5421C58.552 38.7529 59.4283 36.3258 58.9688 34.5049C58.9363 34.3669 58.8946 34.2313 58.8439 34.0989C58.7065 33.7091 58.4767 33.3584 58.1742 33.0768C57.8717 32.7951 57.5055 32.5909 57.1069 32.4816C55.3866 32.1195 53.6928 33.0302 52.2442 33.8605C52.3135 33.5471 52.3803 33.2211 52.442 32.9025C53.0648 32.3181 55.0761 30.6281 57.0924 30.7695C57.6772 30.8309 58.24 31.0258 58.7375 31.3391C59.235 31.6525 59.6539 32.0759 59.962 32.5767C61.6868 34.9006 61.2249 38.6162 58.8796 41.4016L58.8671 41.404ZM51.8756 48.0822C52.1211 48.5287 52.2625 49.025 52.2892 49.5339C52.4082 52.2167 48.51 54.7964 41.5856 56.6037C41.5023 56.6199 41.4159 56.6024 41.3455 56.555C41.2751 56.5076 41.2265 56.4342 41.2102 56.3509C41.194 56.2676 41.2115 56.1812 41.2589 56.1108C41.3063 56.0405 41.3797 55.9918 41.463 55.9755L42.1756 55.7844C48.1618 54.1145 51.7904 51.7569 51.6866 49.5536C51.6518 49.1617 51.5311 48.7823 51.3329 48.4424C51.3323 48.4231 51.3286 48.404 51.3219 48.3859C51.3006 48.349 51.2871 48.3081 51.2822 48.2658C51.2772 48.2235 51.281 48.1806 51.2931 48.1398C51.3053 48.099 51.3257 48.0611 51.353 48.0284C51.3803 47.9957 51.4139 47.9689 51.4519 47.9497C51.526 47.9127 51.6115 47.9059 51.6905 47.9306C51.7695 47.9553 51.8358 48.0096 51.8756 48.0822ZM38.2461 56.7661C38.2553 56.8468 38.2342 56.928 38.1868 56.9939C38.1393 57.0599 38.069 57.1057 37.9896 57.1226C37.3089 57.2097 31.3169 57.9809 29.8639 57.3514C29.8233 57.336 29.7862 57.3125 29.755 57.2823C29.7238 57.2522 29.699 57.2159 29.6823 57.1759C29.6655 57.1358 29.6571 57.0928 29.6575 57.0494C29.6578 57.0059 29.6671 56.9631 29.6846 56.9233C29.7021 56.8836 29.7275 56.8478 29.7592 56.8182C29.791 56.7886 29.8285 56.7658 29.8693 56.7511C29.9102 56.7364 29.9536 56.7302 29.997 56.7329C30.0403 56.7355 30.0827 56.747 30.1214 56.7665C31.2051 57.2072 36.1125 56.7259 37.8922 56.4895C37.9757 56.4799 38.0596 56.5036 38.1258 56.5553C38.192 56.607 38.2352 56.6828 38.2461 56.7661ZM33.0627 30.195C33.0495 30.2566 33.0188 30.3131 32.9743 30.3576C32.9298 30.4022 32.8733 30.4329 32.8117 30.4461C32.7743 30.4631 32.7334 30.471 32.6924 30.4693C32.1056 30.359 31.5122 30.2875 30.9161 30.2551C29.5962 30.1969 28.2738 30.2714 26.9688 30.4774C25.7027 30.6722 24.8582 30.8891 24.8393 30.8928C24.7996 30.905 24.7577 30.909 24.7163 30.9046C24.675 30.9002 24.6349 30.8874 24.5986 30.8671C24.5623 30.8467 24.5306 30.8192 24.5052 30.7862C24.4799 30.7532 24.4615 30.7154 24.4513 30.675C24.439 30.6349 24.4348 30.5928 24.4391 30.5511C24.4434 30.5093 24.456 30.4689 24.4762 30.4321C24.4964 30.3953 24.5237 30.363 24.5566 30.337C24.5895 30.311 24.6273 30.2918 24.6678 30.2807C24.8437 30.2464 28.9963 29.0711 32.8221 29.8311C32.9017 29.8487 32.9716 29.8961 33.0175 29.9635C33.0633 30.0309 33.0817 30.1132 33.0689 30.1937L33.0627 30.195ZM37.5883 30.5641C37.6231 30.587 37.653 30.6167 37.6763 30.6514C37.6995 30.686 37.7156 30.725 37.7235 30.7659C37.7315 30.8069 37.7313 30.849 37.7228 30.8898C37.7143 30.9307 37.6977 30.9694 37.674 31.0038C37.6276 31.0743 37.5552 31.1236 37.4726 31.1409C37.4311 31.1501 37.3883 31.151 37.3465 31.1434C37.3048 31.1359 37.2649 31.1202 37.2293 31.0971C36.513 30.8091 35.7448 30.6726 34.9732 30.696C34.9311 30.6972 34.8892 30.6899 34.8501 30.6746C34.8109 30.6592 34.7752 30.6362 34.7451 30.6067C34.715 30.5773 34.6912 30.5421 34.675 30.5033C34.6588 30.4645 34.6506 30.4228 34.6508 30.3807C34.6503 30.3383 34.6583 30.2961 34.6743 30.2568C34.6903 30.2175 34.7139 30.1817 34.7438 30.1516C34.7738 30.1215 34.8094 30.0976 34.8486 30.0814C34.8879 30.0652 34.93 30.0569 34.9724 30.0572C35.1405 30.0831 36.84 30.071 37.5883 30.5641ZM19.248 41.1385C19.2216 41.1057 19.202 41.0679 19.1905 41.0274C19.179 40.9869 19.1757 40.9445 19.181 40.9027C19.1862 40.8609 19.1998 40.8205 19.221 40.7841C19.2421 40.7477 19.2704 40.7159 19.3041 40.6907C19.371 40.6389 19.4557 40.6158 19.5396 40.6263C19.6235 40.6368 19.6998 40.6801 19.7519 40.7468C21.1802 42.6688 22.8852 44.3688 24.8114 45.7914C24.8738 45.8427 24.9145 45.9156 24.9253 45.9957C24.9361 46.0757 24.9162 46.1569 24.8697 46.2229C24.8232 46.2889 24.7534 46.3349 24.6744 46.3516C24.5954 46.3683 24.513 46.3545 24.4437 46.313C22.4655 44.8545 20.7146 43.1107 19.248 41.1385ZM16.4886 37.021C16.4492 36.9457 16.4408 36.858 16.4651 36.7765C16.4894 36.6951 16.5445 36.6263 16.6187 36.5849C16.6563 36.5646 16.6975 36.552 16.74 36.5478C16.7825 36.5437 16.8254 36.5481 16.8661 36.5609C16.9069 36.5736 16.9447 36.5943 16.9773 36.6218C17.01 36.6494 17.0367 36.6832 17.0561 36.7212C17.0561 36.7212 17.5152 37.5706 18.3178 38.7769C18.364 38.8475 18.3805 38.9334 18.3637 39.0161C18.3468 39.0988 18.298 39.1714 18.2279 39.2183C18.1882 39.2352 18.1454 39.2435 18.1023 39.2428C18.0402 39.2555 17.9757 39.249 17.9173 39.2243C17.859 39.1996 17.8094 39.1578 17.7753 39.1044C16.9853 37.8957 16.5336 37.0514 16.5137 37.0161L16.4886 37.021ZM33.6735 16.2455C33.4834 16.1066 31.805 14.8234 31.8025 12.972C31.8219 12.4405 31.9599 11.9201 32.2064 11.4489C32.453 10.9777 32.8019 10.5677 33.2275 10.2488C33.3447 10.1477 33.4682 10.0453 33.5992 9.94805C34.1017 9.58267 34.5891 9.23981 35.055 8.9207C37.7713 7.03451 38.6698 6.29195 37.7737 4.40622C37.4755 3.77974 36.3875 3.45076 35.3836 3.68574C34.7554 3.80827 33.4009 4.3855 33.4599 6.49319C33.467 6.75122 33.3713 7.00149 33.1939 7.18896C33.0165 7.37643 32.7718 7.48574 32.5138 7.49284C32.2558 7.49994 32.0055 7.40424 31.818 7.22682C31.6306 7.04939 31.5213 6.80475 31.5142 6.54673C31.4142 5.48097 31.7037 4.4151 32.329 3.54629C32.9543 2.67748 33.8731 2.06454 34.9154 1.82086C36.8468 1.35933 38.8087 2.12423 39.4984 3.58725C41.1301 7.03788 38.706 8.71709 36.1395 10.5023C35.6849 10.8127 35.2139 11.1393 34.729 11.4947C34.4723 11.6436 34.2504 11.8456 34.0783 12.0872C33.9061 12.3289 33.7876 12.6046 33.7308 12.8958C33.7308 12.8958 33.7394 12.9398 33.7443 12.9649C33.7409 13.1633 33.7793 13.3602 33.857 13.5428C34.0867 13.9889 34.4078 14.3817 34.7992 14.6957C34.9501 14.8058 35.0656 14.9576 35.1315 15.1324C35.1975 15.3071 35.211 15.4974 35.1704 15.6797C35.1298 15.862 35.037 16.0286 34.9031 16.1589C34.7693 16.2893 34.6004 16.3777 34.417 16.4135C34.2882 16.4381 34.1557 16.4359 34.0278 16.407C33.8998 16.3781 33.7792 16.3231 33.6735 16.2455ZM46.8374 8.08285C46.8937 7.90041 46.904 7.70687 46.8674 7.51947C46.8309 7.33207 46.7486 7.15661 46.6278 7.0087C46.0487 6.31311 45.3651 5.9509 44.8886 6.11557C44.2605 6.23811 43.9056 7.76145 44.745 7.8194C46.168 7.89392 45.7785 10.1087 44.3959 9.70675C43.8316 9.6079 43.3167 9.32261 42.9337 8.89653C42.696 8.60389 42.523 8.26421 42.4261 7.89986C42.3291 7.53551 42.3105 7.15476 42.3714 6.78269C42.4129 6.2166 42.6226 5.67583 42.9736 5.22976C43.3246 4.78369 43.8009 4.45268 44.3413 4.2792C45.6096 3.89485 46.9863 4.46745 48.1097 5.78065C48.417 6.15138 48.6331 6.58905 48.7405 7.05846C48.8479 7.52787 48.8437 8.01593 48.7282 8.48342C48.1931 10.9548 45.281 13.3748 42.8026 14.5755C42.3208 14.8129 41.7228 15.1904 41.6578 15.6595C41.6476 16.035 41.7795 16.4005 42.027 16.683C42.1157 16.8066 42.2147 16.9225 42.3228 17.0296C42.5092 17.2011 42.6202 17.4393 42.6317 17.6923C42.6432 17.9454 42.5543 18.1927 42.3842 18.3804C42.2127 18.5668 41.9745 18.6778 41.7214 18.6893C41.4684 18.7008 41.2211 18.6118 41.0334 18.4418C40.8759 18.303 39.5227 17.015 39.7852 15.3858C39.9395 14.3385 40.6791 13.4835 41.995 12.8421C42.5937 12.5606 43.1683 12.2304 43.713 11.8549C45.3101 10.6826 46.5885 9.21383 46.8374 8.08285ZM22.7687 17.0361C22.6684 16.8069 22.6608 16.5478 22.7476 16.3132C22.8344 16.0786 23.0088 15.8868 23.2341 15.7781C23.3222 15.7283 23.9617 15.3297 23.8363 13.9848C23.7326 13.3707 23.4421 12.8034 23.0043 12.3605C22.3741 11.5705 21.5095 10.4807 22.0803 8.69353C22.9028 6.22477 24.6084 4.94004 26.7347 5.1773C28.6 5.41332 30.25 6.85202 30.3335 8.31593C30.3974 8.80009 30.3545 9.29239 30.2076 9.75816C30.0608 10.2239 29.8136 10.6518 29.4835 11.0117C29.2127 11.2728 28.8918 11.4763 28.5402 11.6098C28.1885 11.7434 27.8135 11.8044 27.4377 11.789C27.1905 11.764 26.9626 11.6442 26.802 11.4547C26.6413 11.2652 26.5604 11.0208 26.5762 10.7728C26.592 10.5249 26.7033 10.2928 26.8867 10.1252C27.0701 9.9576 27.3114 9.86765 27.5597 9.87424C27.785 9.87495 28.0019 9.78824 28.1646 9.63235C28.407 9.2792 28.5068 8.84741 28.4439 8.4237C28.4194 8.03072 27.6087 7.21731 26.5186 7.07784C25.0209 6.88749 24.2856 8.16552 23.9327 9.26462C23.6805 10.0441 23.9224 10.3817 24.5287 11.1502C25.1369 11.8183 25.5536 12.6381 25.735 13.5231L25.7877 13.7932C25.9892 16.0296 24.8039 17.1737 24.0719 17.4991C24.0049 17.5218 23.9352 17.5354 23.8646 17.5396C23.6519 17.5923 23.4276 17.5712 23.2285 17.4797C23.0294 17.3882 22.8672 17.2318 22.7687 17.0361Z" fill="#F16E20"/>
</g>
<defs>
<clipPath id="clip0_295_2146">
<rect width="64" height="64" fill="white"/>
</clipPath>
</defs>
</svg>
