<svg width="33" height="46" viewBox="0 0 33 46" fill="none" xmlns="http://www.w3.org/2000/svg">
<path d="M25.324 6.73924L27.8189 6.36775C27.8877 6.35979 27.9543 6.33807 28.0145 6.3039C28.0748 6.26972 28.1275 6.22378 28.1697 6.1688C28.2119 6.11383 28.2425 6.05094 28.2599 5.98388C28.2773 5.91682 28.281 5.84694 28.2708 5.77842C28.2606 5.70989 28.2368 5.64411 28.2007 5.58498C28.1646 5.52584 28.117 5.47457 28.0607 5.4342C28.0044 5.39383 27.9406 5.36519 27.873 5.34998C27.8054 5.33476 27.7355 5.33329 27.6673 5.34565L25.1717 5.71645C24.4949 5.81707 24.6485 6.84607 25.324 6.73924ZM24.3039 1.77829L22.8704 3.43515C22.5775 3.77287 22.8242 4.29047 23.2605 4.29047C23.6719 4.29047 23.6781 3.99342 25.0862 2.45716C25.176 2.35361 25.2211 2.21861 25.2114 2.08186C25.2017 1.94511 25.1381 1.81782 25.0345 1.72797C24.931 1.63813 24.796 1.59311 24.6592 1.6028C24.5225 1.61249 24.3952 1.67611 24.3053 1.77966L24.3039 1.77829ZM21.0509 2.8445C21.1861 2.84453 21.3159 2.79159 21.4125 2.69702C21.5092 2.60245 21.5649 2.47379 21.5678 2.33862L21.6064 0.528055C21.6093 0.390962 21.5576 0.258322 21.4628 0.159315C21.3679 0.0603073 21.2376 0.00304241 21.1005 0.000117757C20.9634 -0.00280689 20.8307 0.0488482 20.7317 0.143719C20.6327 0.238591 20.5755 0.368907 20.5725 0.506L20.5339 2.31656C20.5325 2.38445 20.5444 2.45196 20.569 2.51523C20.5937 2.57851 20.6305 2.63631 20.6775 2.68534C20.7245 2.73436 20.7807 2.77365 20.8428 2.80096C20.905 2.82827 20.9719 2.84307 21.0398 2.8445H21.0509ZM15.8983 17.8273C15.2284 17.0368 14.3434 16.648 13.4564 16.7563C11.0063 17.0636 8.84007 20.3009 11.732 22.5477C14.7721 24.9055 19.0135 21.4953 15.8983 17.8273ZM14.7446 22.1335C13.5433 22.6366 12.242 21.9391 11.5921 20.8598C10.8209 19.5806 12.2338 17.9513 13.5853 17.7818C14.3421 17.6894 14.9017 18.2505 15.1105 18.4958C15.5875 19.0575 15.9017 19.6978 15.9514 20.2092C16.0272 20.986 15.5082 21.813 14.7446 22.1335ZM18.2533 17.9045C17.8329 17.6908 17.3656 18.1064 17.5366 18.5503C17.6303 18.7949 17.8722 18.9569 18.1362 18.9569C18.6193 18.9569 18.8826 18.4627 18.6186 18.1092C18.5754 18.0514 18.5206 18.0034 18.4577 17.9681C18.3948 17.9329 18.3251 17.9112 18.2533 17.9045ZM19.2313 26.0572L18.8888 26.4473C18.9843 26.5449 19.1146 26.6008 19.2512 26.6027C19.3878 26.6046 19.5196 26.5523 19.6177 26.4573C19.7159 26.3623 19.7725 26.2323 19.7751 26.0958C19.7778 25.9592 19.7262 25.8271 19.6318 25.7284L19.2313 26.0572ZM8.57335 21.4463L8.42448 21.414C8.35755 21.3981 8.28812 21.3957 8.22026 21.4069C8.15239 21.4182 8.08746 21.4429 8.02928 21.4796C7.97109 21.5163 7.92081 21.5643 7.88138 21.6206C7.84196 21.677 7.81419 21.7407 7.79969 21.8079C7.7852 21.8752 7.78427 21.9447 7.79697 22.0123C7.80966 22.0799 7.83573 22.1443 7.87363 22.2017C7.91154 22.2591 7.96052 22.3084 8.01771 22.3466C8.0749 22.3848 8.13915 22.4113 8.20669 22.4243L8.35556 22.456C8.48698 22.4787 8.62207 22.4497 8.7326 22.3751C8.84312 22.3004 8.92054 22.186 8.94865 22.0556C8.97677 21.9253 8.95342 21.7891 8.88348 21.6755C8.81354 21.562 8.70242 21.4799 8.57335 21.4463ZM14.1718 14.4557C14.6377 14.4557 14.8335 14.0166 14.6667 13.6975C14.5343 13.446 14.167 13.3198 13.9106 13.4349C13.3799 13.6713 13.5881 14.4557 14.1718 14.4557ZM26.2627 31.1505C25.5376 31.0774 25.4653 32.2732 26.1972 32.2732C26.3243 32.2729 26.4469 32.2258 26.5415 32.1409C26.6361 32.056 26.6961 31.9392 26.71 31.8128L26.7203 31.7204C26.7352 31.5842 26.6954 31.4476 26.6095 31.3407C26.5237 31.2338 26.3989 31.1654 26.2627 31.1505ZM14.9169 28.5914L15.3056 28.2509L14.9279 28.6031C15.1236 28.814 15.4379 28.8058 15.6447 28.6128C15.8528 28.4184 15.8494 28.0759 15.6543 27.8671L14.9169 28.5914ZM22.7029 19.7385C23.0889 19.7385 23.3197 19.3394 23.195 18.9941C23.0117 18.4848 22.3252 18.5041 22.1784 18.9803C22.0867 19.2767 22.2887 19.7385 22.7029 19.7385Z" fill="black"/>
<path d="M0.218218 24.408L0.215461 24.4066C1.03356 26.1206 1.14314 25.9725 2.7304 26.6389C15.6766 31.9734 14.9129 31.5668 16.4147 32.3043C16.6883 32.438 16.973 32.5544 17.259 32.6647C17.2314 33.895 16.1935 34.2334 16.5877 36.1487C16.8041 38.6195 19.2625 39.5865 20.3543 38.2942C20.8105 37.9848 20.8939 37.6705 20.9559 37.0647C21.0304 36.341 20.8994 35.2782 21.6017 34.924C21.9849 34.7296 22.415 34.873 22.7851 35.0832C24.2242 36.1907 25.1353 37.9689 25.147 39.7864C25.147 40.7699 24.9327 41.6975 25.2036 42.619C25.3386 43.0753 25.5282 43.2786 25.5743 43.3923C25.9479 44.278 27.0837 45.1429 28.0852 45.1429C28.9384 45.1429 29.7627 44.5219 29.8868 43.0546C30.2486 41.6396 29.8495 40.9842 30.2148 40.428C30.5622 39.8987 31.3968 39.8973 31.831 38.5396C32.4403 37.5333 32.1067 36.6077 31.6766 35.5084C29.6297 30.5351 31.585 35.7944 28.4015 26.8071C28.3753 26.7361 21.6955 8.54572 21.5094 7.902C21.2047 6.8544 20.7878 5.42083 19.6926 5.38706C18.0302 5.33606 16.3933 5.91293 15.0246 6.47809C4.70706 10.7195 -1.23947 21.5015 0.218218 24.408ZM6.64719 26.5011C9.17523 25.2467 11.3862 26.5231 12.6158 29.0264C8.57906 27.3344 9.08287 27.528 6.64719 26.5011ZM31.0846 37.0164C30.4064 36.7311 29.9384 36.5519 29.6097 36.3141C28.6021 35.5863 28.4353 34.2203 28.6503 32.9962C28.7399 32.4903 28.8791 32.1285 29.0769 31.8659C29.1376 32.041 29.1975 32.2174 29.2589 32.3918C29.7241 33.7123 30.8461 35.9082 31.0846 37.0164ZM28.7206 30.8411C27.6323 31.125 26.5861 35.405 29.0039 37.1522C29.4146 37.4492 29.7689 37.5836 30.9164 38.0675C30.4409 38.7649 29.4146 38.8146 29.0294 39.825C28.7923 40.457 28.722 41.193 28.8233 41.9512C28.9749 43.1228 28.804 44.4503 27.6902 44.0271C27.2099 43.852 26.6985 43.3971 26.5289 42.9946C25.788 41.1923 27.1526 39.3163 25.8259 36.6401C25.8032 36.5859 25.7767 36.5334 25.7467 36.483C25.3276 35.8537 25.0078 35.1624 24.4316 34.5435C23.0877 33.1017 22.0029 32.6668 21.2103 33.2492C21.0104 33.396 20.8181 33.5869 20.6403 33.815C20.2944 34.2681 20.0455 34.7882 19.909 35.3416C19.7098 36.1769 19.9862 37.3996 19.4293 37.7511C19.2846 37.8476 19.042 37.8593 18.7966 37.7821C17.8421 37.4775 17.4416 36.2548 17.6663 35.3037C17.7532 34.9384 17.9255 34.5869 18.1074 34.2154C18.4424 33.5317 18.5527 33.2919 18.7484 32.1816C18.8146 31.8073 18.6519 31.5351 18.2639 31.3724C18.0413 31.2801 18.1419 31.3166 13.9618 29.5853C13.9563 29.5564 13.9584 29.5267 13.948 29.4985C12.2663 25.0276 8.59146 23.9021 5.44521 26.0062C5.07096 25.8587 4.91865 25.8022 4.82009 25.765C5.14816 22.9186 6.79124 19.7799 9.74107 16.4207C11.1691 14.7941 12.8763 13.5274 15.1135 12.4322C17.0529 11.4831 19.0572 10.5107 21.2034 10.153L21.2516 10.2853C19.3411 10.5624 18.3087 13.0435 18.5058 14.6749C18.665 15.9954 19.4983 17.236 20.6803 17.9121C21.7072 18.4986 22.9326 18.3553 24.0415 17.9066L25.1057 20.8116C22.9995 20.6531 21.4873 22.2438 21.315 23.8697C21.111 25.7981 22.6928 27.5645 24.4537 27.5645C25.4172 27.5645 26.3731 26.8753 27.0906 26.2316C27.7778 28.1049 28.1313 29.1284 28.7206 30.8411ZM26.7026 25.1737C26.2174 25.6713 25.3014 26.4232 24.637 26.5176C23.5067 26.6782 22.1903 25.4176 22.3433 23.9786C22.4501 22.9641 23.331 22.0377 24.3462 21.8696C24.8079 21.7924 25.3076 21.8351 25.5282 21.9661C25.9196 23.0343 26.3104 24.1047 26.7026 25.1737ZM23.6873 16.9396C23.0511 17.2015 22.0173 17.4855 21.193 17.0148C20.3033 16.5054 19.6513 15.5385 19.532 14.5515C19.3818 13.3034 20.2557 11.2812 21.5673 11.2812H21.5879C21.5969 11.2812 21.6045 11.2764 21.6141 11.2764C22.8719 14.7183 22.8106 14.5419 23.6873 16.9396ZM19.6623 6.42019C20.0717 6.43329 20.4397 8.0619 20.8422 9.16739C18.6602 9.56852 16.5787 10.5555 14.5759 11.5459C14.2968 10.4803 13.6165 9.48167 12.6888 8.75731C14.5552 7.70764 17.5202 6.36092 19.6623 6.42088V6.42019ZM11.7267 9.33901C12.7198 9.97998 13.4359 10.9869 13.6317 12.0421C10.8293 13.5914 9.25242 15.2152 7.41567 17.655C6.67444 16.7871 5.72419 16.1225 4.65468 15.7239C6.60377 13.273 9.02222 11.0283 11.7267 9.33901ZM1.41538 21.4485C2.0081 19.7537 2.8455 18.1733 4.002 16.5799C4.01302 16.5847 4.0206 16.5937 4.03232 16.5964C5.11996 16.9476 6.07562 17.6202 6.77332 18.5255C5.10887 20.9267 4.13157 23.2211 3.82762 25.3846C2.32928 24.8132 1.29408 24.5058 1.07904 23.8008C0.859186 23.0192 1.27823 21.8379 1.41607 21.4478L1.41538 21.4485Z" fill="black"/>
<path d="M21.6782 30.2208C21.6443 30.3066 21.6283 30.3984 21.6312 30.4906C21.6341 30.5828 21.6557 30.6735 21.6949 30.757C21.7341 30.8405 21.7899 30.9152 21.859 30.9763C21.9281 31.0375 22.0089 31.0839 22.0966 31.1126C22.5825 31.2643 22.9657 30.6991 22.6611 30.3035C22.548 29.8073 21.8671 29.757 21.6782 30.2208Z" fill="black"/>
</svg>
