<svg width="44" height="45" viewBox="0 0 44 45" fill="none" xmlns="http://www.w3.org/2000/svg">
<g clip-path="url(#clip0_361_858)">
<path d="M43.9988 20.8499C43.9539 19.7923 42.5261 20.012 42.5261 20.012C42.5261 20.012 41.95 20.1008 42.0364 19.3517C42.1228 18.6027 43.1069 17.1045 40.3851 17.1045C37.6634 17.1045 12.6409 17.0157 8.49252 17.1045C4.34418 17.1933 1.97963 16.6207 1.71229 18.2942V19.6158C1.71229 19.6158 2.02457 19.9688 1.44496 19.9688C0.865342 19.9688 0.150907 19.9221 0.0172386 20.6734C-0.11643 21.4248 0.553065 21.8198 1.13268 21.8198H1.70884C1.70884 21.8198 1.34125 29.2661 1.79296 30.1916C2.24466 31.1172 2.69061 32.572 5.27756 32.5276C7.8645 32.4832 30.3462 32.5276 30.3462 32.5276C30.3462 32.5276 39.4495 33.0126 40.6018 32.5276C41.7541 32.0427 42.0364 31.2936 42.1251 28.3463C42.2139 25.3989 41.549 21.7356 42.1251 21.7356C42.7013 21.7356 44.0426 21.9075 43.9988 20.8499ZM39.5382 30.8086C37.7982 30.8086 6.61885 31.338 5.23607 30.9851C3.8533 30.6322 3.67469 30.9407 3.58596 29.6634C3.49723 28.3861 3.36241 23.0971 3.31862 21.6866C3.27483 20.2761 3.2345 19.0558 3.58596 19.0432C3.58596 19.0432 17.8147 18.5139 26.1114 18.8224C34.4081 19.1309 39.7168 18.885 39.7168 18.885C39.7168 18.885 40.3851 18.6027 40.3851 19.5282C40.3851 20.4537 40.6974 27.9888 40.7424 29.0908C40.7873 30.1928 41.277 30.8086 39.5382 30.8086Z" fill="black"/>
<path d="M8.7082 27.5346L8.3095 27.472C7.8359 27.3968 6.78384 27.8727 6.70778 28.3417L4.82836 43.5963C4.81028 43.7076 4.81457 43.8212 4.84099 43.9308C4.86741 44.0404 4.91543 44.1438 4.98232 44.235C5.04921 44.3263 5.13365 44.4036 5.23081 44.4626C5.32796 44.5216 5.43594 44.5611 5.54855 44.5788L5.94725 44.6414C6.05993 44.6593 6.17507 44.655 6.28606 44.6288C6.39706 44.6026 6.50175 44.5551 6.59412 44.4889C6.68649 44.4227 6.76474 44.3391 6.82438 44.243C6.88403 44.1469 6.9239 44.0401 6.9417 43.9288L9.92044 28.6935C9.99534 28.2256 9.1818 27.6097 8.7082 27.5346Z" fill="black"/>
<path d="M12.3297 31.5144L11.4562 31.338C10.9826 31.2628 10.3765 31.363 10.3039 31.8309L8.92113 43.0817C8.90305 43.193 8.90734 43.3066 8.93376 43.4162C8.96018 43.5258 9.00821 43.6292 9.07509 43.7204C9.14198 43.8117 9.22642 43.889 9.32358 43.948C9.42074 44.007 9.52871 44.0465 9.64133 44.0642L10.04 44.1279C10.2676 44.1637 10.5001 44.1087 10.6866 43.975C10.8731 43.8414 10.9982 43.6401 11.0345 43.4153L13.27 31.9812C13.338 31.5133 12.8021 31.5884 12.3297 31.5144Z" fill="black"/>
<path d="M35.6711 27.8909L36.0698 27.8283C36.5434 27.7532 37.5955 28.229 37.6716 28.6969L39.5521 43.9515C39.5883 44.1764 39.5327 44.4063 39.3974 44.5908C39.2622 44.7752 39.0584 44.899 38.8308 44.9351L38.4321 44.9977C38.2046 45.0335 37.972 44.9785 37.7855 44.8448C37.599 44.7112 37.4739 44.5098 37.4376 44.2851L34.4601 29.0464C34.384 28.574 35.1975 27.9615 35.6711 27.8909Z" fill="black"/>
<path d="M32.0504 31.8662L32.9239 31.6897C33.3975 31.6157 34.0036 31.7147 34.0762 32.1826L35.459 43.4346C35.4951 43.6594 35.4395 43.8892 35.3042 44.0734C35.1689 44.2576 34.9651 44.3813 34.7376 44.4171L34.3389 44.4797C34.2262 44.4975 34.1111 44.4932 34.0001 44.4671C33.8891 44.4409 33.7844 44.3934 33.6921 44.3272C33.5997 44.261 33.5214 44.1774 33.4618 44.0813C33.4021 43.9852 33.3623 43.8784 33.3445 43.767L31.1124 32.3306C31.041 31.865 31.5734 31.9413 32.0504 31.8662Z" fill="black"/>
<path d="M9.4257 22.2614C9.4257 22.8227 8.96477 22.965 8.39784 22.965C7.8309 22.965 7.17523 22.7874 7.36997 22.2614C7.60043 21.6433 7.92769 21.2482 8.39784 21.246C8.53286 21.2458 8.66659 21.272 8.79136 21.323C8.91614 21.3739 9.02951 21.4487 9.12498 21.5431C9.22046 21.6374 9.29617 21.7494 9.34777 21.8727C9.39937 21.9959 9.42585 22.128 9.4257 22.2614Z" fill="black"/>
<path d="M17.4462 22.2614C17.4462 22.8227 16.9853 22.965 16.4183 22.965C15.8514 22.965 15.1957 22.7874 15.3905 22.2614C15.6209 21.6433 15.9482 21.2482 16.4183 21.246C16.5534 21.2458 16.6871 21.272 16.8119 21.323C16.9366 21.3739 17.05 21.4487 17.1455 21.5431C17.241 21.6374 17.3167 21.7494 17.3683 21.8727C17.4199 21.9959 17.4464 22.128 17.4462 22.2614Z" fill="black"/>
<path d="M26.7334 22.2614C26.7334 22.8227 26.2725 22.965 25.7067 22.965C25.1409 22.965 24.483 22.7874 24.6788 22.2614C24.9093 21.6433 25.2366 21.2482 25.7067 21.246C25.8416 21.246 25.9752 21.2722 26.0999 21.3233C26.2245 21.3743 26.3378 21.4492 26.4331 21.5435C26.5285 21.6378 26.6041 21.7497 26.6556 21.8729C26.7071 21.9961 26.7336 22.1281 26.7334 22.2614Z" fill="black"/>
<path d="M36.7589 22.2614C36.7589 22.8227 36.298 22.965 35.731 22.965C35.1641 22.965 34.5084 22.7874 34.7043 22.2614C34.9348 21.6433 35.2609 21.2482 35.731 21.246C35.8661 21.2458 35.9998 21.272 36.1246 21.323C36.2493 21.3739 36.3627 21.4487 36.4582 21.5431C36.5537 21.6374 36.6294 21.7494 36.681 21.8727C36.7326 21.9959 36.7591 22.128 36.7589 22.2614Z" fill="black"/>
<path d="M10.5883 15.439C9.42909 14.5715 9.29542 13.0062 6.75226 13.7986C4.2091 14.5909 4.81637 17.076 4.81637 17.076L10.5883 17.2343C10.5883 17.2343 11.7533 16.311 10.5883 15.439ZM7.37451 16.2666C6.98042 16.2666 6.16112 16.4294 6.22219 16.0469C6.22219 16.0469 6.29825 14.592 7.37451 14.592C8.45077 14.592 9.65148 15.562 9.74136 16.0515C9.83124 16.541 7.76514 16.2666 7.37451 16.2666Z" fill="black"/>
<path d="M14.1896 17.2934L19.9627 17.1352C19.9627 17.1352 20.5688 14.6489 18.0256 13.8554C15.4824 13.062 15.3499 14.6239 14.1896 15.4959C13.0292 16.3679 14.1896 17.2934 14.1896 17.2934ZM15.0377 16.1038C15.1264 15.6188 16.3306 14.6489 17.408 14.6489C18.4854 14.6489 18.5603 16.1038 18.5603 16.1038C18.6214 16.4863 17.8021 16.3235 17.408 16.3235C17.0139 16.3235 14.9478 16.5876 15.0377 16.1038Z" fill="black"/>
<path d="M28.6603 15.5244C27.5 14.6524 27.3663 13.0917 24.8243 13.8885C22.2823 14.6854 22.8884 17.1683 22.8884 17.1683L28.6603 17.3265C28.6603 17.3265 29.8196 16.393 28.6603 15.5244ZM25.4419 16.352C25.0467 16.352 24.2274 16.5148 24.2896 16.1323C24.2896 16.1323 24.3657 14.6775 25.4419 14.6775C26.5182 14.6775 27.7235 15.6474 27.8122 16.1323C27.901 16.6173 25.8372 16.352 25.4419 16.352Z" fill="black"/>
<path d="M32.2646 17.3789L38.0365 17.2206C38.0365 17.2206 38.6426 14.7344 36.1006 13.9409C33.5586 13.1474 33.4169 14.7093 32.2646 15.5813C31.1123 16.4533 32.2646 17.3789 32.2646 17.3789ZM33.1115 16.1892C33.2014 15.7043 34.4056 14.7344 35.483 14.7344C36.5604 14.7344 36.6353 16.1892 36.6353 16.1892C36.6975 16.5717 35.8771 16.4089 35.483 16.4089C35.0889 16.4089 33.0193 16.6731 33.1081 16.1892H33.1115Z" fill="black"/>
<path d="M17.6418 4.19266C17.6418 4.19266 18.0809 5.48475 17.1302 6.12794C16.1795 6.77114 16.1185 8.18732 16.5932 9.5386C17.068 10.8899 18.2065 11.2701 18.6466 10.5677C19.0868 9.86533 17.9034 9.15724 17.9034 8.18732C17.9034 7.2174 19.8059 6.39547 19.8059 4.63322C19.8059 2.87097 19.0131 1.6654 18.0543 1.48894C17.0956 1.31249 15.9652 2.27672 17.6418 4.19266Z" fill="black"/>
<path d="M21.8074 2.72308C21.8074 2.72308 22.2464 4.01631 21.2946 4.65837C20.3428 5.30043 20.2805 6.7166 20.7599 8.07017C21.2393 9.42373 22.3651 9.80396 22.8122 9.09473C23.2593 8.38551 22.0678 7.68539 22.0678 6.71547C22.0678 5.74555 23.9679 4.92703 23.9679 3.16364C23.9679 1.40026 23.1752 0.196962 22.2199 0.0205089C21.2646 -0.155944 20.1307 0.796901 21.8074 2.72308Z" fill="black"/>
<path d="M26.3567 4.69128C26.3567 4.69128 26.7969 5.98451 25.8451 6.62657C24.8933 7.26863 24.8334 8.68253 25.3093 10.0338C25.7852 11.3851 26.9156 11.7676 27.3615 11.0584C27.8075 10.3492 26.6183 9.657 26.6183 8.68708C26.6183 7.71716 28.5208 6.89524 28.5208 5.13185C28.5208 3.36846 27.7245 2.16289 26.7693 1.98871C25.814 1.81453 24.6813 2.77079 26.3567 4.69128Z" fill="black"/>
<path d="M4.90522 26.379C4.90522 26.379 4.14469 24.9674 4.11704 23.5911C4.08938 22.2148 4.50652 21.8402 4.63558 22.2808C4.76464 22.7213 4.66323 23.656 4.68743 24.0146C4.71163 24.3732 5.4664 26.0979 4.98473 26.2811" fill="black"/>
<path d="M5.99213 26.814C5.99213 26.814 5.2316 25.4024 5.20395 24.026C5.17629 22.6497 5.59343 22.2752 5.72249 22.7157C5.85155 23.1563 5.75015 24.0921 5.77435 24.4495C5.79854 24.807 6.55331 26.5328 6.07164 26.7161" fill="black"/>
<path d="M6.88618 27.2807C6.88618 27.2807 6.12565 25.8703 6.09799 24.4939C6.07034 23.1176 6.48747 22.7431 6.61653 23.1836C6.74559 23.6242 6.64534 24.5588 6.66954 24.9174C6.69374 25.276 7.44735 27.0007 6.96569 27.184" fill="black"/>
</g>
<defs>
<clipPath id="clip0_361_858">
<rect width="44" height="45" fill="white"/>
</clipPath>
</defs>
</svg>
