<svg width="54" height="46" viewBox="0 0 54 46" fill="none" xmlns="http://www.w3.org/2000/svg">
<path d="M7.36243 28.8948C6.81426 29.3297 6.17839 30.722 5.90065 31.4529C5.67343 32.1616 5.55755 32.9013 5.55713 33.6456L5.696 34.0439C5.696 34.0439 6.06144 31.9682 6.54383 31.2154C7.02622 30.4626 7.64017 29.1871 8.05312 29.0446C8.46608 28.9021 7.9106 28.4599 7.36243 28.8948Z" fill="black"/>
<path d="M7.13226 28.5439C7.43558 28.4415 7.03359 28.1199 6.64256 28.4306C6.25153 28.7412 5.79472 29.7462 5.59373 30.2578C5.42799 30.7638 5.3441 31.2931 5.34523 31.8256L5.4439 32.1106C5.4439 32.1106 5.71433 30.6269 6.05054 30.0897C6.38675 29.5525 6.82894 28.6462 7.13226 28.5439Z" fill="black"/>
<path d="M6.29867 28.2261C6.51063 28.1567 6.23289 27.9301 5.9588 28.1457C5.63699 28.5224 5.38903 28.9563 5.22791 29.4248C5.11422 29.7791 5.05627 30.149 5.05615 30.5211L5.11462 30.6965C5.19739 30.2118 5.33978 29.7393 5.53854 29.2896C5.78339 28.9278 6.08671 28.2955 6.29867 28.2261Z" fill="black"/>
<path d="M26.53 39.3939C26.1646 40.0992 24.7028 40.947 24.7028 40.947C24.7028 40.947 20.8108 43.2822 24.4543 41.55C28.0978 39.8178 27.451 36.9088 27.451 36.9088C26.636 35.8893 26.8845 38.6849 26.53 39.3939Z" fill="black"/>
<path d="M26.3292 38.1479C25.9418 37.2123 25.5325 39.3502 25.1159 39.8033L23.0986 40.9691C26.1867 40.4502 26.3292 38.1479 26.3292 38.1479Z" fill="black"/>
<path d="M49.6332 32.1581C49.2678 32.8634 47.806 33.7149 47.806 33.7149C47.806 33.7149 43.9176 36.0464 47.5611 34.3142C51.2046 32.582 50.5651 29.6804 50.5651 29.6804C49.7392 28.6644 49.984 31.4564 49.6332 32.1581Z" fill="black"/>
<path d="M49.4285 30.9229C49.0412 29.9837 48.6319 32.1216 48.2189 32.5747L46.2017 33.7405C49.2897 33.2216 49.4285 30.9229 49.4285 30.9229Z" fill="black"/>
<path d="M9.33595 15.3477L9.47117 15.746C9.47117 15.746 9.83661 13.6703 10.3227 12.9175C10.8087 12.1647 11.419 10.8893 11.8319 10.7467C12.2449 10.6042 11.6931 10.1401 11.1486 10.5969C10.604 11.0537 9.96086 12.4241 9.68678 13.155C9.45296 13.8624 9.33451 14.6027 9.33595 15.3477Z" fill="black"/>
<path d="M9.1348 13.5203L9.23347 13.8054C9.23347 13.8054 9.5039 12.3217 9.84011 11.7808C10.1763 11.24 10.6149 10.319 10.9182 10.2313C11.2215 10.1436 10.8232 9.80375 10.4285 10.118C10.0338 10.4323 9.5843 11.4336 9.37965 11.9453C9.21553 12.4541 9.13289 12.9857 9.1348 13.5203Z" fill="black"/>
<path d="M9.332 10.9879C9.56588 10.6224 9.87286 9.97925 10.0848 9.90982C10.2968 9.84038 10.0154 9.61381 9.74495 9.82942C9.42185 10.2038 9.17372 10.6368 9.01406 11.1048C8.89913 11.4589 8.84115 11.8289 8.8423 12.2012L8.91174 12.3985C8.99245 11.9126 9.13363 11.4387 9.332 10.9879Z" fill="black"/>
<path d="M28.4739 22.6309C28.4739 22.6309 24.5856 24.9661 28.2291 23.2339C31.8726 21.5017 31.2331 18.6001 31.2331 18.6001C30.4218 17.5732 30.6666 20.3688 30.3158 21.0741C29.965 21.7794 28.4739 22.6309 28.4739 22.6309Z" fill="black"/>
<path d="M30.1148 19.8316C29.7238 18.8924 29.3145 21.0303 28.9015 21.4834L26.8843 22.6565C29.965 22.1339 30.1148 19.8316 30.1148 19.8316Z" fill="black"/>
<path d="M51.6105 23.8991C49.2534 20.6101 43.8777 12.2998 41.897 11.357C40.3146 10.6042 35.604 11.5982 31.9459 12.3145C29.4426 8.74771 24.4835 1.16837 22.5832 0.269371C20.6025 -0.673479 13.7175 1.11721 10.1324 1.68365C6.54741 2.25009 3.43747 4.5122 3.81388 11.3972C3.81388 11.3972 5.73978 15.9616 7.65471 19.7696C7.18694 19.8573 6.74475 19.9377 6.35007 19.9998C2.76505 20.5662 -0.34855 22.8283 0.0315138 29.7133C0.0315138 29.7133 4.84078 41.1262 6.8215 42.9169C8.80221 44.7076 15.1208 44.1448 15.1208 44.1448C15.1208 44.1448 23.42 46.9733 27.2865 43.1069C29.523 40.8704 30.3672 38.3159 30.21 35.9223C32.4612 37.4279 38.2023 36.9163 38.2023 36.9163C38.2023 36.9163 46.5016 39.7448 50.368 35.8784C54.2344 32.012 53.9713 27.2027 51.6105 23.8991ZM35.392 12.6068C38.3631 11.6165 38.9625 12.0075 41.4731 13.1038C43.9837 14.2002 47.5577 19.2579 48.6541 20.5297C49.7504 21.8014 48.2631 21.3081 48.2631 21.3081C48.2631 21.3081 46.3189 18.8669 40.3438 19.2908C37.1206 19.5211 35.0412 19.9742 33.5794 20.844C33.9939 19.5834 34.1197 18.2459 33.9477 16.9302C33.7756 15.6145 33.3101 14.3543 32.5854 13.2427C33.5374 13.1111 34.4763 12.8984 35.392 12.6068ZM31.5804 13.3816C31.8872 13.8289 32.1204 14.3224 32.2711 14.8434C33.6854 19.8025 31.9897 23.7529 25.9782 25.0356C25.7552 25.0831 25.5396 25.1233 25.3277 25.1562C25.017 25.2037 24.7174 25.2366 24.4323 25.2586H24.341C24.0778 25.2586 23.822 25.2805 23.5772 25.2586C19.4513 25.1855 18.0188 22.0426 17.2075 20.0985C17.1636 20.0034 17.1271 19.8975 17.0905 19.7915C16.9383 19.3157 16.833 18.8261 16.7762 18.3297C16.4656 15.8447 17.0357 12.6032 18.9068 12.2414C21.2785 11.7809 23.7855 11.7444 25.2327 14.4341C25.2765 14.5108 25.3131 14.5875 25.3496 14.6643C25.483 14.9463 25.5824 15.2432 25.6456 15.5487C26.0403 17.5111 24.5822 18.9656 23.5443 19.1812C23.4601 19.1984 23.3744 19.207 23.2885 19.2068H23.2519C22.0679 19.1775 21.1324 17.7742 21.1324 15.9178C21.1324 14.0613 22.828 15.1869 22.828 15.1869C23.146 14.8689 22.5101 13.6301 20.9533 14.2696C19.3965 14.9091 19.7875 18.4393 21.5197 19.7842C21.9944 20.117 22.5589 20.2979 23.1387 20.3031C23.2312 20.3031 23.3226 20.3031 23.4127 20.3031C25.3533 20.2593 27.6702 18.9181 27.5679 16.5317C27.5371 15.8084 27.3723 15.0972 27.0818 14.4341C26.9775 14.182 26.8554 13.9378 26.7164 13.7032C25.5725 11.8759 23.3762 10.743 20.5038 11.2072C16.3231 11.843 15.6141 13.4108 15.1537 16.4075C15.0457 17.0852 15.0078 17.7722 15.0404 18.4576C15.0563 18.7295 15.0868 19.0003 15.1317 19.2689C15.446 21.1619 16.4181 22.2363 16.9955 23.4094C17.8068 25.0722 16.8859 25.2366 15.7895 24.9991C14.8796 24.7944 12.9244 23.4167 12.6686 19.7147C12.6504 19.4297 12.643 19.13 12.643 18.8157C12.6482 18.2588 12.6836 17.7025 12.749 17.1493C13.4214 11.4922 18.3367 9.97196 20.6719 9.86598C22.5649 9.77827 28.0795 9.86598 30.8569 12.5264C31.1271 12.7856 31.3696 13.0722 31.5804 13.3816ZM4.12085 9.43841C3.80291 7.70619 5.74709 4.34775 7.83378 3.28795C9.92048 2.22816 13.1035 2.50955 16.0782 1.5192C19.053 0.528838 19.6486 0.916211 22.1593 2.01255C24.6699 3.10889 28.2403 8.16666 29.3366 9.43841C30.4329 10.7102 28.9456 10.2314 28.9456 10.2314C28.9456 10.2314 27.0014 7.7939 21.0264 8.21782C15.0513 8.64174 12.9866 9.84405 11.5467 13.0271C10.7098 14.8543 10.4869 17.3467 10.4138 19.2397C10.3992 19.6295 10.3882 19.9949 10.3809 20.336C10.3938 20.8961 10.3694 21.4565 10.3078 22.0134C10.1836 22.4958 9.51118 21.2825 9.14208 20.5516C8.9959 20.2629 8.89357 20.0473 8.89357 20.0473L8.67431 19.6088C7.77531 17.7742 4.38397 10.9404 4.12085 9.43841ZM6.52549 40.3113C6.35007 40.9837 5.11121 38.3306 5.11121 38.3306C5.11121 38.3306 0.652772 29.4904 0.334834 27.7728C0.0168959 26.0552 1.96472 22.6566 4.05142 21.6041C5.14776 21.0413 6.57665 20.8732 8.10787 20.6576C9.06168 22.4848 9.97529 24.0307 10.6039 24.6008C12.5846 26.3914 18.9031 25.825 18.9031 25.825C20.8125 26.4276 22.7964 26.7621 24.7978 26.819C25.0207 27.1041 25.218 27.3526 25.3788 27.5499C25.5396 27.8934 25.7004 28.2406 25.8685 28.5914C25.6602 28.7011 25.1632 28.5366 25.1632 28.5366C25.1632 28.5366 23.219 26.0954 17.2404 26.5193C11.2617 26.9433 9.21151 28.1383 7.76435 31.3286C6.31718 34.519 6.7009 39.6388 6.52549 40.3113ZM22.1921 43.3518C16.1806 44.6345 14.3753 40.7023 13.4214 38.4036C12.4676 36.105 12.749 31.0107 15.1208 30.5502C17.4925 30.0897 19.9995 30.0569 21.4503 32.7429C22.9011 35.4289 20.7194 37.5193 19.5061 37.5193C18.2928 37.5193 17.3463 36.105 17.3463 34.2303C17.3463 32.3555 19.0457 33.4994 19.0457 33.4994C19.3636 33.1814 18.7277 31.9462 17.1709 32.5821C15.6141 33.218 16.0015 36.7555 17.7374 38.0967C19.4732 39.4379 23.9244 38.1332 23.7855 34.8442C23.6466 31.5552 20.8839 28.818 16.7105 29.4904C12.5371 30.1628 11.8318 31.7269 11.3713 34.7163C10.7756 38.601 12.3945 40.0555 13.1985 41.7182C14.0025 43.381 13.0925 43.5455 11.9962 43.3116C10.8999 43.0777 8.28328 41.1189 8.9557 35.4581C9.62812 29.7974 14.5543 28.2881 16.8859 28.1821C18.735 28.0981 24.0413 28.1821 26.8735 30.6635C27.5057 31.9279 28.1379 33.1193 28.7007 34.0475C29.6801 38.5827 27.8419 42.1495 22.1921 43.3518ZM29.6253 33.0828C29.6253 33.1047 29.6253 33.112 29.6034 33.1266C29.3197 32.4186 28.9516 31.7474 28.507 31.1276C28.2183 30.722 27.8821 30.2432 27.513 29.7097C27.1257 28.9276 26.6177 27.8825 26.0915 26.7861C27.6355 26.7205 29.1305 26.2243 30.4074 25.3536C29.5011 28.4781 29.7825 32.4944 29.6253 33.0828ZM45.292 36.1269C39.2804 37.406 37.4787 33.4738 36.5213 31.1751C35.5638 28.8765 35.8525 23.7822 38.2243 23.3217C40.596 22.8612 43.0993 22.8283 44.5501 25.5144C46.0009 28.2004 43.8192 30.2907 42.6059 30.2907C41.3927 30.2907 40.4498 28.8765 40.4498 27.0017C40.4498 25.127 42.1455 26.2708 42.1455 26.2708C42.4634 25.9529 41.8275 24.714 40.2707 25.3499C38.7139 25.9858 39.105 29.5233 40.8372 30.8681C42.5694 32.213 47.0278 30.901 46.8853 27.612C46.7428 24.323 43.9837 21.6004 39.8103 22.2729C35.6369 22.9453 34.9316 24.5021 34.4711 27.4951C33.8755 31.3834 35.498 32.8379 36.2984 34.497C37.0987 36.1562 36.1924 36.3243 35.096 36.0904C33.9997 35.8565 31.3831 33.8977 32.0555 28.2406C32.7279 22.5835 37.6395 21.0596 39.9894 20.9536C42.3392 20.8476 50.1743 20.9901 51.5886 25.9419C53.0029 30.8937 51.3036 34.8442 45.292 36.1269Z" fill="black"/>
</svg>
