<svg width="46" height="64" viewBox="0 0 46 64" fill="none" xmlns="http://www.w3.org/2000/svg">
<path d="M35.9026 9.55436L39.4398 9.0277C39.5373 9.01641 39.6316 8.98562 39.7171 8.93717C39.8025 8.88872 39.8773 8.82358 39.9371 8.74565C39.9968 8.66771 40.0403 8.57855 40.0649 8.48347C40.0896 8.3884 40.0948 8.28934 40.0804 8.19219C40.066 8.09504 40.0322 8.00177 39.9811 7.91794C39.9299 7.83411 39.8624 7.76142 39.7826 7.70418C39.7028 7.64695 39.6123 7.60634 39.5164 7.58478C39.4206 7.56321 39.3215 7.56113 39.2248 7.57864L35.6867 8.10433C34.7272 8.24699 34.9451 9.70582 35.9026 9.55436ZM34.4565 2.52111L32.4241 4.87009C32.0088 5.34888 32.3586 6.08269 32.9772 6.08269C33.5605 6.08269 33.5693 5.66155 35.5655 3.48357C35.6929 3.33676 35.7567 3.14537 35.743 2.9515C35.7292 2.75763 35.6391 2.57716 35.4922 2.44979C35.3454 2.32242 35.154 2.25858 34.9602 2.27232C34.7663 2.28607 34.5858 2.37626 34.4585 2.52307L34.4565 2.52111ZM29.8445 4.03271C30.0362 4.03275 30.2203 3.95769 30.3573 3.82362C30.4943 3.68955 30.5733 3.50714 30.5774 3.31551L30.6321 0.748634C30.6362 0.554275 30.563 0.366229 30.4285 0.225864C30.294 0.0854989 30.1093 0.00431328 29.9149 0.000166947C29.7205 -0.00397939 29.5325 0.0692531 29.3921 0.203754C29.2518 0.338255 29.1706 0.523007 29.1664 0.717367L29.1117 3.28424C29.1096 3.38048 29.1265 3.47619 29.1615 3.5659C29.1964 3.6556 29.2486 3.73755 29.3152 3.80706C29.3818 3.87656 29.4615 3.93227 29.5496 3.97098C29.6378 4.0097 29.7327 4.03067 29.8289 4.03271H29.8445ZM22.5397 25.2741C21.5899 24.1534 20.3353 23.6023 19.0777 23.7557C15.6041 24.1915 12.5331 28.781 16.633 31.9664C20.9431 35.3091 26.9562 30.4743 22.5397 25.2741ZM20.904 31.3791C19.2009 32.0924 17.3561 31.1036 16.4347 29.5734C15.3413 27.7599 17.3444 25.45 19.2605 25.2096C20.3333 25.0787 21.1267 25.8741 21.4228 26.2219C22.099 27.0183 22.5445 27.926 22.6149 28.651C22.7224 29.7522 21.9866 30.9248 20.904 31.3791ZM25.8784 25.3836C25.2824 25.0807 24.6199 25.6699 24.8622 26.2991C24.9951 26.646 25.3381 26.8756 25.7123 26.8756C26.3973 26.8756 26.7705 26.175 26.3963 25.6738C26.3351 25.5919 26.2573 25.5238 26.1681 25.4738C26.0789 25.4238 25.9802 25.3931 25.8784 25.3836ZM27.265 36.9418L26.7793 37.4949C26.9148 37.6333 27.0995 37.7125 27.2931 37.7152C27.4868 37.7179 27.6736 37.6438 27.8128 37.5091C27.952 37.3744 28.0322 37.1902 28.0359 36.9965C28.0396 36.8029 27.9666 36.6157 27.8327 36.4757L27.265 36.9418ZM12.1549 30.4049L11.9439 30.359C11.849 30.3365 11.7505 30.3331 11.6543 30.3491C11.5581 30.3651 11.4661 30.4001 11.3836 30.4521C11.3011 30.5042 11.2298 30.5721 11.1739 30.652C11.118 30.732 11.0786 30.8223 11.0581 30.9176C11.0375 31.0129 11.0362 31.1114 11.0542 31.2073C11.0722 31.3031 11.1092 31.3944 11.1629 31.4758C11.2166 31.5572 11.2861 31.627 11.3672 31.6812C11.4483 31.7354 11.5393 31.7729 11.6351 31.7915L11.8461 31.8364C12.0325 31.8685 12.224 31.8274 12.3807 31.7216C12.5374 31.6158 12.6471 31.4536 12.687 31.2688C12.7269 31.0839 12.6937 30.8909 12.5946 30.7299C12.4954 30.5689 12.3379 30.4525 12.1549 30.4049ZM20.092 20.4941C20.7525 20.4941 21.03 19.8717 20.7936 19.4193C20.6059 19.0626 20.0851 18.8838 19.7217 19.047C18.9693 19.3822 19.2644 20.4941 20.092 20.4941ZM37.2335 44.1627C36.2055 44.0591 36.1029 45.7544 37.1406 45.7544C37.3209 45.754 37.4946 45.6873 37.6288 45.5669C37.7629 45.4464 37.8479 45.2808 37.8676 45.1017L37.8823 44.9707C37.9034 44.7776 37.8469 44.5839 37.7252 44.4324C37.6035 44.2808 37.4266 44.1838 37.2335 44.1627ZM21.1482 40.5347L21.6993 40.052L21.1639 40.5513C21.4414 40.8503 21.8869 40.8385 22.1801 40.565C22.4752 40.2894 22.4703 39.8038 22.1938 39.5077L21.1482 40.5347ZM32.1867 27.9837C32.7339 27.9837 33.0612 27.4179 32.8843 26.9284C32.6244 26.2063 31.6512 26.2337 31.4431 26.9088C31.3131 27.329 31.5994 27.9837 32.1867 27.9837Z" fill="#8BC43F"/>
<path d="M0.309372 34.6036L0.305464 34.6017C1.4653 37.0317 1.62066 36.8216 3.87094 37.7665C22.225 45.3294 21.1424 44.7529 23.2715 45.7984C23.6594 45.9879 24.063 46.1531 24.4685 46.3094C24.4294 48.0535 22.9578 48.5333 23.5168 51.2487C23.8236 54.7516 27.3089 56.1225 28.8567 54.2905C29.5035 53.8517 29.6217 53.4062 29.7097 52.5473C29.8152 51.5213 29.6296 50.0146 30.6252 49.5124C31.1685 49.2368 31.7782 49.4401 32.3029 49.7381C34.3431 51.3083 35.6349 53.8293 35.6515 56.4059C35.6515 57.8002 35.3476 59.1154 35.7316 60.4218C35.9231 61.0687 36.1918 61.3569 36.2573 61.5181C36.7869 62.7737 38.3972 64 39.8169 64C41.0266 64 42.1952 63.1196 42.3711 61.0394C42.8841 59.0334 42.3183 58.1041 42.8362 57.3156C43.3287 56.5652 44.5119 56.5632 45.1275 54.6383C45.9913 53.2117 45.5184 51.8995 44.9086 50.341C42.0066 43.2901 44.7787 50.7465 40.2654 38.0049C40.2283 37.9043 30.7581 12.1154 30.4943 11.2028C30.0624 9.71755 29.4713 7.68516 27.9186 7.63728C25.5618 7.56497 23.2412 8.38282 21.3007 9.18405C6.6733 15.1972 -1.75722 30.4831 0.309372 34.6036ZM9.42387 37.5711C13.0079 35.7927 16.1425 37.6024 17.8857 41.1512C12.1627 38.7524 12.877 39.027 9.42387 37.5711ZM44.0693 52.4789C43.1078 52.0744 42.4444 51.8203 41.9783 51.4832C40.5498 50.4514 40.3133 48.5147 40.6182 46.7794C40.7452 46.0622 40.9426 45.5492 41.223 45.1769C41.309 45.4251 41.394 45.6753 41.4809 45.9225C42.1405 47.7946 43.7312 50.9077 44.0693 52.4789ZM40.7178 43.724C39.175 44.1265 37.6917 50.1944 41.1194 52.6714C41.7018 53.0925 42.204 53.2831 43.8309 53.969C43.1567 54.9578 41.7018 55.0282 41.1556 56.4606C40.8194 57.3566 40.7198 58.4002 40.8634 59.475C41.0784 61.1361 40.836 63.018 39.257 62.4181C38.576 62.1699 37.851 61.525 37.6106 60.9544C36.5602 58.3992 38.4949 55.7395 36.614 51.9454C36.5818 51.8686 36.5442 51.7941 36.5016 51.7226C35.9075 50.8305 35.4541 49.8505 34.6373 48.973C32.7319 46.9289 31.1939 46.3123 30.0702 47.138C29.7869 47.3461 29.5143 47.6168 29.2622 47.9402C28.7718 48.5826 28.419 49.3199 28.2255 50.1045C27.9431 51.2888 28.3349 53.0222 27.5454 53.5205C27.3402 53.6573 26.9962 53.6739 26.6484 53.5645C25.2951 53.1326 24.7274 51.3992 25.0459 50.0508C25.169 49.5329 25.4133 49.0346 25.6713 48.5079C26.1462 47.5386 26.3025 47.1986 26.58 45.6244C26.6738 45.0939 26.4432 44.7079 25.8931 44.4773C25.5775 44.3464 25.7201 44.3982 19.794 41.9437C19.7861 41.9026 19.7891 41.8606 19.7744 41.8205C17.3903 35.482 12.1803 33.8864 7.71979 36.8695C7.18921 36.6604 6.97327 36.5803 6.83355 36.5275C7.29865 32.4921 9.62808 28.0423 13.8101 23.2799C15.8347 20.9739 18.255 19.1779 21.4267 17.6253C24.1763 16.2798 27.0177 14.9011 30.0605 14.394L30.1289 14.5816C27.4203 14.9744 25.9566 18.492 26.236 20.8048C26.4618 22.677 27.6431 24.4358 29.3188 25.3943C30.7747 26.2259 32.512 26.0226 34.0842 25.3865L35.5929 29.505C32.6068 29.2803 30.463 31.5355 30.2188 33.8405C29.9295 36.5744 32.172 39.0788 34.6685 39.0788C36.0345 39.0788 37.3898 38.1017 38.407 37.189C39.3811 39.8448 39.8824 41.2958 40.7178 43.724ZM37.8568 35.6892C37.169 36.3947 35.8704 37.4607 34.9284 37.5945C33.326 37.8222 31.4597 36.0351 31.6766 33.9949C31.8281 32.5566 33.0768 31.2433 34.5161 31.0049C35.1708 30.8955 35.8792 30.956 36.1918 31.1417C36.7468 32.6562 37.3009 34.1737 37.8568 35.6892ZM33.582 24.0156C32.6801 24.3869 31.2144 24.7895 30.0458 24.1221C28.7844 23.4 27.86 22.0292 27.691 20.6299C27.478 18.8604 28.7169 15.9935 30.5764 15.9935H30.6057C30.6184 15.9935 30.6291 15.9867 30.6428 15.9867C32.4261 20.8664 32.3391 20.6163 33.582 24.0156ZM27.8756 9.10197C28.456 9.12054 28.9778 11.4295 29.5485 12.9967C26.4549 13.5654 23.504 14.9646 20.6646 16.3688C20.2688 14.8581 19.3044 13.4423 17.9892 12.4154C20.6352 10.9272 24.8388 9.01794 27.8756 9.10295V9.10197ZM16.6252 13.24C18.0332 14.1488 19.0484 15.5763 19.3259 17.0723C15.353 19.2688 13.1174 21.5709 10.5133 25.0299C9.46249 23.7994 8.11531 22.8571 6.59904 22.292C9.36231 18.8174 12.791 15.6349 16.6252 13.24ZM2.00662 30.4079C2.84693 28.0052 4.03412 25.7647 5.67371 23.5056C5.68935 23.5124 5.7001 23.5251 5.71671 23.529C7.25868 24.027 8.61354 24.9805 9.60268 26.264C7.24296 29.6682 5.85741 32.921 5.42651 35.9882C3.30226 35.1781 1.83464 34.7424 1.52978 33.7428C1.21809 32.6347 1.81217 30.96 2.00759 30.4069L2.00662 30.4079Z" fill="#8BC43F"/>
<path d="M30.7337 42.8445C30.6856 42.9661 30.6629 43.0963 30.667 43.227C30.671 43.3578 30.7018 43.4863 30.7573 43.6047C30.8129 43.7231 30.892 43.8289 30.99 43.9156C31.0879 44.0023 31.2025 44.0681 31.3268 44.1089C32.0157 44.3238 32.5589 43.5226 32.127 42.9617C31.9668 42.2582 31.0014 42.1869 30.7337 42.8445Z" fill="#8BC43F"/>
</svg>
