<svg width="64" height="64" viewBox="0 0 64 64" fill="none" xmlns="http://www.w3.org/2000/svg">
<g clip-path="url(#clip0_57_599)">
<path d="M61.5299 31.4557C61.0551 30.7273 60.4216 30.1158 59.6768 29.667C58.932 29.2183 58.0953 28.9441 57.2294 28.8648C55.6534 28.8352 54.1085 29.3055 52.8162 30.2082C52.8971 29.3376 52.9159 28.4623 52.8726 27.589C52.8331 22.6736 42.1741 19.8103 32.0848 19.6006C26.6443 19.4882 21.5003 20.0939 17.6035 21.3105C13.3925 22.621 11.1081 24.4816 10.9859 26.6964C10.6839 29.5085 10.9374 32.3525 11.732 35.0668C12.3488 37.2627 13.2845 39.3562 14.5091 41.2804C14.113 41.4229 13.7107 41.5666 13.3296 41.7192C8.18849 43.8437 5.32322 46.7044 5.26456 49.8131C5.2059 52.9219 7.90225 55.5128 13.0733 57.4187C17.7218 59.1202 24.1156 60.1747 31.0697 60.3244C35.3527 60.4317 39.6352 60.0902 43.847 59.3055C49.5005 58.2026 54.0282 56.2761 56.1206 53.866C56.6191 53.3466 56.9934 52.721 57.2156 52.0362C57.4377 51.3514 57.5019 50.6252 57.4033 49.9121C57.1757 48.4553 56.5977 47.0755 55.7191 45.8914C57.5266 45.2288 59.1303 44.1069 60.3724 42.6362C63.258 39.1781 63.7799 34.4662 61.5299 31.4557ZM51.481 36.7676C53.047 35.5362 55.5556 34.0557 56.6625 34.3484C56.7672 34.3801 56.862 34.4382 56.9379 34.517C57.0137 34.5958 57.0681 34.6927 57.0959 34.7985C57.5447 35.9629 56.7328 38.3188 54.8129 39.8083C54.141 40.3987 53.3107 40.779 52.4248 40.902C51.5389 41.0249 50.6364 40.8852 49.8291 40.5002C50.4673 39.297 51.008 38.0446 51.4459 36.7549L51.481 36.7676ZM50.7068 26.6486C50.801 26.8068 50.8736 26.9769 50.9228 27.1542L50.0489 28.5571L49.3015 29.7397C48.7929 30.0636 48.2594 30.3464 47.7059 30.5857C47.5008 30.4366 47.2894 30.2887 47.0729 30.1484L48.0973 28.514L49.2799 26.6205L49.8566 25.6995C50.1811 25.9615 50.457 26.2784 50.6718 26.6359L50.7068 26.6486ZM49.345 25.3167L48.5394 26.602L47.3506 28.4967L46.4883 29.8255C46.0014 29.5484 45.4997 29.298 44.9856 29.0754L45.3688 28.4659L46.5854 26.5463L47.8717 24.4826C48.3713 24.7195 48.8521 24.9941 49.3099 25.304L49.345 25.3167ZM31.7982 32.939C27.2402 32.9191 22.7101 32.2252 18.3552 30.8796C21.4441 29.2989 26.5167 28.3942 31.9636 28.5053C37.4104 28.6165 42.363 29.737 45.3938 31.4019C40.964 32.5893 36.3814 33.1074 31.7982 32.939ZM47.2541 24.2249L45.8072 26.5351L44.6184 28.4297L44.3845 28.8014C44.0437 28.6592 43.6791 28.5282 43.3157 28.4035L42.7718 28.2227L43.8557 26.4919L45.6503 23.6249C46.2218 23.8133 46.7442 24.0179 47.2541 24.2249ZM45.0237 23.4211L43.1102 26.4809L42.11 28.0388C41.5572 27.8793 40.9994 27.7273 40.4114 27.5877L41.1272 26.4438L43.3089 22.9536C43.9559 23.0947 44.4886 23.2516 45.0237 23.4211ZM42.6896 22.7875L40.4168 26.4455L39.7806 27.4629C39.2101 27.346 38.6144 27.234 38.0186 27.1546L38.4677 26.4149L40.9541 22.4479C41.5386 22.536 42.1229 22.6567 42.6896 22.7875ZM40.272 22.294L37.7211 26.365L37.3189 27.0107C36.7143 26.92 36.1009 26.8506 35.4761 26.7899L35.7707 26.3281L38.4747 22.0056C39.0781 22.09 39.6839 22.187 40.272 22.294ZM37.7773 21.9069L35.024 26.3108L34.766 26.7262C34.1047 26.6792 33.5025 26.6337 32.8587 26.6093L33.0737 26.2739L35.932 21.7061C36.5241 21.7667 37.1939 21.8577 37.7773 21.9069ZM35.1955 21.6411L32.3081 26.2602L32.0982 26.5881L32.0102 26.6052C31.3563 26.5959 30.7501 26.5968 30.1262 26.6076L30.3602 26.2359L33.2982 21.5418C33.9445 21.5461 34.5857 21.5905 35.1955 21.6411ZM32.0144 21.4792L32.5591 21.4968L29.6298 26.2024L29.3757 26.6041C28.6764 26.6296 27.9946 26.6778 27.3204 26.7311L27.6783 26.1592L30.5974 21.4687C31.092 21.4635 31.5614 21.4632 32.0333 21.4755L32.0144 21.4792ZM29.843 21.479L26.9441 26.1394L26.533 26.8065C25.7921 26.8858 25.0737 26.9803 24.3778 27.09L24.9812 26.105L27.8458 21.536C28.5049 21.5052 29.1753 21.4657 29.8619 21.4753L29.843 21.479ZM27.0347 21.5899L24.2219 26.0901L23.496 27.249C22.6919 27.4058 21.913 27.5578 21.1877 27.784L22.2941 26.0684L24.9728 21.7835C25.6523 21.69 26.3454 21.6331 27.0535 21.5862L27.0347 21.5899ZM24.1528 21.8587L21.5437 26.0322L20.3548 27.9269L20.2815 28.0521C19.3787 28.3325 18.4985 28.6808 17.6482 29.0939L18.4045 27.8901L19.5933 25.9954L21.9734 22.2186C22.677 22.0814 23.3994 21.9404 24.1528 21.8587ZM21.1191 22.3853L18.8515 26.0032L17.6627 27.8978L16.4902 29.7763L16.1553 29.9981C15.6999 29.7807 15.258 29.5359 14.8321 29.2651L15.7186 27.8598L16.8999 25.96L18.7905 22.983C19.5173 22.6977 20.2962 22.5458 21.1191 22.3853ZM17.8593 23.2233L16.1544 25.949L14.9719 27.8424L14.3054 28.9049C13.8811 28.6083 13.5131 28.2385 13.2186 27.8128C13.2075 27.7562 13.1463 27.7095 13.1164 27.6566L14.2041 25.9121L15.2031 24.3479C16.0512 23.8872 16.9384 23.5024 17.8544 23.1982L17.8593 23.2233ZM13.239 25.8787C13.4268 25.6259 13.645 25.3972 13.8887 25.1977L13.4526 25.837L12.886 26.7431C12.9221 26.428 13.0443 26.1289 13.239 25.8787ZM15.8761 31.9762C19.7715 33.6941 25.5465 34.752 31.7652 34.8756C32.2634 34.8892 32.7529 34.8915 33.2487 34.8926C36.4608 34.8912 39.6657 34.5913 42.8223 33.9966C44.2333 33.7281 45.6237 33.361 46.9833 32.898C47.2888 32.7928 47.5931 32.6812 47.871 32.5683C48.9062 32.1757 49.8866 31.6513 50.7879 31.0082C50.7408 31.4021 50.6786 31.8185 50.6024 32.2637C50.3995 33.4907 50.1013 34.7 49.7104 35.8806C49.2006 37.4466 48.5213 38.9522 47.6847 40.3708C47.0306 41.4787 46.2819 42.528 45.4469 43.5068C43.7327 45.4764 41.6955 47.1395 39.4227 48.4249C38.1608 49.1413 36.729 49.504 35.2782 49.4746L28.5676 49.3361C27.2203 49.2987 25.9037 48.9258 24.7369 48.2511C14.9996 42.6584 13.0635 34.5723 12.7909 30.1328C13.7261 30.8843 14.7637 31.4987 15.8724 31.9573L15.8761 31.9762ZM45.7375 48.9405C45.6512 49.5518 45.3386 50.1085 44.8615 50.5003C42.9097 52.3613 37.6766 54.282 30.7955 54.105C22.2752 53.8826 16.5858 51.191 16.6322 48.8215C16.6488 47.9705 17.4323 47.1069 18.799 46.3578C20.3217 47.713 21.9834 48.9036 23.7563 49.9095C25.2122 50.7472 26.8555 51.2047 28.5347 51.2401L35.2454 51.3786C35.9531 51.394 36.6604 51.3326 37.3549 51.1953C38.4231 50.9897 39.4505 50.6109 40.3964 50.0737C41.8644 49.2449 43.245 48.27 44.5171 47.1637C45.319 47.7311 45.7642 48.342 45.7375 48.9405ZM54.6304 52.6113C51.5407 56.2266 41.6361 58.6348 31.1152 58.418C24.3631 58.268 18.1999 57.2924 13.7494 55.6371C9.47438 54.0454 7.14326 51.9897 7.18839 49.8812C7.23353 47.7728 9.81213 45.281 14.0666 43.5251C14.5785 43.3079 15.1079 43.1133 15.651 42.9226C16.203 43.6463 16.7952 44.3384 17.4248 44.9957C15.6873 46.1171 14.7584 47.4721 14.7271 48.7823C14.6394 52.7118 21.3889 55.79 30.76 56.029C33.1897 56.0928 35.6192 55.8943 38.0063 55.437C41.5366 54.7483 44.5108 53.5161 46.2005 51.8823C46.6279 51.5237 46.9783 51.0824 47.2309 50.5849C47.4835 50.0874 47.6329 49.544 47.6702 48.9874C47.6547 48.3596 47.4887 47.7447 47.1862 47.1944C46.8837 46.6441 46.4535 46.1744 45.9317 45.8249C46.0944 45.6562 46.2622 45.4801 46.4174 45.3063C48.651 46.366 51.1436 46.7562 53.5941 46.4298C54.5934 47.4813 55.2543 48.8084 55.4914 50.2394C55.5405 50.6729 55.4895 51.1119 55.3425 51.5227C55.1954 51.9335 54.9561 52.305 54.643 52.6089L54.6304 52.6113ZM58.867 41.404C57.8067 42.6542 54.0314 46.3315 47.6899 43.7735C48.094 43.26 48.4718 42.7233 48.8234 42.1635C51.4964 43.5983 54.8417 42.7305 56.834 40.5421C58.552 38.7529 59.4283 36.3258 58.9687 34.5049C58.9363 34.3669 58.8946 34.2313 58.8439 34.0989C58.7064 33.7091 58.4766 33.3584 58.1741 33.0768C57.8716 32.7951 57.5054 32.5909 57.1069 32.4816C55.3865 32.1195 53.6927 33.0302 52.2441 33.8605C52.3134 33.5471 52.3802 33.2211 52.442 32.9025C53.0648 32.3181 55.076 30.6281 57.0924 30.7695C57.6771 30.8309 58.2399 31.0258 58.7374 31.3391C59.235 31.6525 59.6539 32.0759 59.9619 32.5767C61.6868 34.9006 61.2248 38.6162 58.8796 41.4016L58.867 41.404ZM51.8755 48.0822C52.1211 48.5287 52.2625 49.025 52.2891 49.5339C52.4082 52.2167 48.51 54.7964 41.5855 56.6037C41.5022 56.6199 41.4159 56.6024 41.3455 56.555C41.2751 56.5076 41.2264 56.4342 41.2102 56.3509C41.1939 56.2676 41.2114 56.1812 41.2588 56.1108C41.3062 56.0405 41.3797 55.9918 41.463 55.9755L42.1755 55.7844C48.1618 54.1145 51.7903 51.7569 51.6865 49.5536C51.6518 49.1617 51.531 48.7823 51.3328 48.4424C51.3322 48.4231 51.3285 48.404 51.3218 48.3859C51.3006 48.349 51.287 48.3081 51.2821 48.2658C51.2772 48.2235 51.2809 48.1806 51.2931 48.1398C51.3053 48.099 51.3256 48.0611 51.3529 48.0284C51.3802 47.9957 51.4139 47.9689 51.4519 47.9497C51.5259 47.9127 51.6114 47.9059 51.6904 47.9306C51.7694 47.9553 51.8357 48.0096 51.8755 48.0822ZM38.246 56.7661C38.2553 56.8468 38.2341 56.928 38.1867 56.9939C38.1393 57.0599 38.069 57.1057 37.9895 57.1226C37.3088 57.2097 31.3168 57.9809 29.8638 57.3514C29.8232 57.336 29.7862 57.3125 29.755 57.2823C29.7237 57.2522 29.699 57.2159 29.6822 57.1759C29.6654 57.1358 29.657 57.0928 29.6574 57.0494C29.6578 57.0059 29.667 56.9631 29.6845 56.9233C29.702 56.8836 29.7274 56.8478 29.7592 56.8182C29.7909 56.7886 29.8284 56.7658 29.8693 56.7511C29.9101 56.7364 29.9536 56.7302 29.9969 56.7329C30.0403 56.7355 30.0826 56.747 30.1214 56.7665C31.205 57.2072 36.1124 56.7259 37.8921 56.4895C37.9756 56.4799 38.0595 56.5036 38.1257 56.5553C38.192 56.607 38.2352 56.6828 38.246 56.7661ZM33.0626 30.195C33.0495 30.2566 33.0188 30.3131 32.9742 30.3576C32.9297 30.4022 32.8732 30.4329 32.8116 30.4461C32.7742 30.4631 32.7333 30.471 32.6923 30.4693C32.1055 30.359 31.5122 30.2875 30.916 30.2551C29.5961 30.1969 28.2737 30.2714 26.9687 30.4774C25.7026 30.6722 24.8581 30.8891 24.8393 30.8928C24.7995 30.905 24.7577 30.909 24.7163 30.9046C24.6749 30.9002 24.6349 30.8874 24.5986 30.8671C24.5623 30.8467 24.5305 30.8192 24.5052 30.7862C24.4798 30.7532 24.4615 30.7154 24.4512 30.675C24.4389 30.6349 24.4348 30.5928 24.439 30.5511C24.4433 30.5093 24.4559 30.4689 24.4761 30.4321C24.4963 30.3953 24.5237 30.363 24.5566 30.337C24.5895 30.311 24.6273 30.2918 24.6677 30.2807C24.8436 30.2464 28.9962 29.0711 32.8221 29.8311C32.9017 29.8487 32.9715 29.8961 33.0174 29.9635C33.0633 30.0309 33.0817 30.1132 33.0689 30.1937L33.0626 30.195ZM37.5882 30.5641C37.6231 30.587 37.653 30.6167 37.6762 30.6514C37.6994 30.686 37.7155 30.725 37.7235 30.7659C37.7315 30.8069 37.7312 30.849 37.7227 30.8898C37.7142 30.9307 37.6976 30.9694 37.674 31.0038C37.6275 31.0743 37.5551 31.1236 37.4725 31.1409C37.4311 31.1501 37.3882 31.151 37.3465 31.1434C37.3047 31.1359 37.2648 31.1202 37.2292 31.0971C36.5129 30.8091 35.7448 30.6726 34.9731 30.696C34.931 30.6972 34.8892 30.6899 34.85 30.6746C34.8108 30.6592 34.7751 30.6362 34.7451 30.6067C34.715 30.5773 34.6911 30.5421 34.6749 30.5033C34.6587 30.4645 34.6505 30.4228 34.6508 30.3807C34.6503 30.3383 34.6583 30.2961 34.6742 30.2568C34.6902 30.2175 34.7138 30.1817 34.7438 30.1516C34.7737 30.1215 34.8093 30.0976 34.8486 30.0814C34.8878 30.0652 34.9299 30.0569 34.9724 30.0572C35.1404 30.0831 36.84 30.071 37.5882 30.5641ZM19.2479 41.1385C19.2215 41.1057 19.2019 41.0679 19.1904 41.0274C19.1789 40.9869 19.1757 40.9445 19.1809 40.9027C19.1861 40.8609 19.1997 40.8205 19.2209 40.7841C19.2421 40.7477 19.2703 40.7159 19.304 40.6907C19.371 40.6389 19.4556 40.6158 19.5395 40.6263C19.6234 40.6368 19.6998 40.6801 19.7519 40.7468C21.1801 42.6688 22.8851 44.3688 24.8114 45.7914C24.8737 45.8427 24.9144 45.9156 24.9252 45.9957C24.936 46.0757 24.9162 46.1569 24.8696 46.2229C24.8231 46.2889 24.7533 46.3349 24.6743 46.3516C24.5953 46.3683 24.5129 46.3545 24.4436 46.313C22.4655 44.8545 20.7145 43.1107 19.2479 41.1385ZM16.4885 37.021C16.4492 36.9457 16.4407 36.858 16.465 36.7765C16.4893 36.6951 16.5444 36.6263 16.6186 36.5849C16.6562 36.5646 16.6974 36.552 16.7399 36.5478C16.7824 36.5437 16.8253 36.5481 16.8661 36.5609C16.9068 36.5736 16.9446 36.5943 16.9773 36.6218C17.0099 36.6494 17.0367 36.6832 17.056 36.7212C17.056 36.7212 17.5152 37.5706 18.3178 38.7769C18.364 38.8475 18.3805 38.9334 18.3636 39.0161C18.3468 39.0988 18.298 39.1714 18.2278 39.2183C18.1881 39.2352 18.1453 39.2435 18.1022 39.2428C18.0401 39.2555 17.9756 39.249 17.9173 39.2243C17.8589 39.1996 17.8094 39.1578 17.7752 39.1044C16.9852 37.8957 16.5336 37.0514 16.5137 37.0161L16.4885 37.021ZM33.6734 16.2455C33.4833 16.1066 31.805 14.8234 31.8025 12.972C31.8218 12.4405 31.9598 11.9201 32.2064 11.4489C32.4529 10.9777 32.8018 10.5677 33.2274 10.2488C33.3446 10.1477 33.4681 10.0453 33.5991 9.94805C34.1016 9.58267 34.589 9.23981 35.0549 8.9207C37.7713 7.03451 38.6697 6.29195 37.7737 4.40622C37.4754 3.77974 36.3875 3.45076 35.3835 3.68574C34.7553 3.80827 33.4008 4.3855 33.4598 6.49319C33.4669 6.75122 33.3712 7.00149 33.1938 7.18896C33.0164 7.37643 32.7718 7.48574 32.5137 7.49284C32.2557 7.49994 32.0054 7.40424 31.818 7.22682C31.6305 7.04939 31.5212 6.80475 31.5141 6.54673C31.4142 5.48097 31.7037 4.4151 32.329 3.54629C32.9542 2.67748 33.873 2.06454 34.9154 1.82086C36.8467 1.35933 38.8087 2.12423 39.4984 3.58725C41.13 7.03788 38.7059 8.71709 36.1394 10.5023C35.6848 10.8127 35.2139 11.1393 34.729 11.4947C34.4723 11.6436 34.2504 11.8456 34.0782 12.0872C33.906 12.3289 33.7876 12.6046 33.7307 12.8958C33.7307 12.8958 33.7393 12.9398 33.7442 12.9649C33.7408 13.1633 33.7792 13.3602 33.857 13.5428C34.0867 13.9889 34.4077 14.3817 34.7991 14.6957C34.95 14.8058 35.0655 14.9576 35.1315 15.1324C35.1974 15.3071 35.2109 15.4974 35.1704 15.6797C35.1298 15.862 35.0369 16.0286 34.9031 16.1589C34.7693 16.2893 34.6003 16.3777 34.417 16.4135C34.2881 16.4381 34.1556 16.4359 34.0277 16.407C33.8998 16.3781 33.7792 16.3231 33.6734 16.2455ZM46.8373 8.08285C46.8936 7.90041 46.9039 7.70687 46.8674 7.51947C46.8308 7.33207 46.7485 7.15661 46.6278 7.0087C46.0487 6.31311 45.3651 5.9509 44.8886 6.11557C44.2604 6.23811 43.9055 7.76145 44.745 7.8194C46.1679 7.89392 45.7784 10.1087 44.3959 9.70675C43.8315 9.6079 43.3167 9.32261 42.9337 8.89653C42.696 8.60389 42.5229 8.26421 42.426 7.89986C42.3291 7.53551 42.3104 7.15476 42.3713 6.78269C42.4128 6.2166 42.6225 5.67583 42.9735 5.22976C43.3245 4.78369 43.8008 4.45268 44.3413 4.2792C45.6095 3.89485 46.9862 4.46745 48.1097 5.78065C48.417 6.15138 48.633 6.58905 48.7404 7.05846C48.8479 7.52787 48.8437 8.01593 48.7282 8.48342C48.1931 10.9548 45.2809 13.3748 42.8026 14.5755C42.3207 14.8129 41.7227 15.1904 41.6578 15.6595C41.6475 16.035 41.7794 16.4005 42.027 16.683C42.1157 16.8066 42.2146 16.9225 42.3228 17.0296C42.5092 17.2011 42.6202 17.4393 42.6317 17.6923C42.6432 17.9454 42.5542 18.1927 42.3842 18.3804C42.2126 18.5668 41.9744 18.6778 41.7214 18.6893C41.4684 18.7008 41.221 18.6118 41.0333 18.4418C40.8758 18.303 39.5226 17.015 39.7851 15.3858C39.9394 14.3385 40.679 13.4835 41.9949 12.8421C42.5937 12.5606 43.1682 12.2304 43.7129 11.8549C45.31 10.6826 46.5885 9.21383 46.8373 8.08285ZM22.7687 17.0361C22.6683 16.8069 22.6608 16.5478 22.7476 16.3132C22.8343 16.0786 23.0087 15.8868 23.234 15.7781C23.3221 15.7283 23.9616 15.3297 23.8362 13.9848C23.7326 13.3707 23.442 12.8034 23.0042 12.3605C22.3741 11.5705 21.5094 10.4807 22.0802 8.69353C22.9027 6.22477 24.6083 4.94004 26.7347 5.1773C28.6 5.41332 30.25 6.85202 30.3334 8.31593C30.3974 8.80009 30.3544 9.29239 30.2076 9.75816C30.0607 10.2239 29.8135 10.6518 29.4834 11.0117C29.2126 11.2728 28.8917 11.4763 28.5401 11.6098C28.1885 11.7434 27.8134 11.8044 27.4376 11.789C27.1904 11.764 26.9626 11.6442 26.8019 11.4547C26.6413 11.2652 26.5603 11.0208 26.5761 10.7728C26.5919 10.5249 26.7032 10.2928 26.8866 10.1252C27.0701 9.9576 27.3113 9.86765 27.5596 9.87424C27.785 9.87495 28.0018 9.78824 28.1645 9.63235C28.4069 9.2792 28.5067 8.84741 28.4439 8.4237C28.4194 8.03072 27.6086 7.21731 26.5186 7.07784C25.0208 6.88749 24.2855 8.16552 23.9326 9.26462C23.6804 10.0441 23.9223 10.3817 24.5287 11.1502C25.1368 11.8183 25.5535 12.6381 25.7349 13.5231L25.7876 13.7932C25.9891 16.0296 24.8039 17.1737 24.0718 17.4991C24.0048 17.5218 23.9351 17.5354 23.8645 17.5396C23.6518 17.5923 23.4275 17.5712 23.2284 17.4797C23.0293 17.3882 22.8672 17.2318 22.7687 17.0361Z" fill="#8BC43F"/>
</g>
<defs>
<clipPath id="clip0_57_599">
<rect width="64" height="64" fill="white"/>
</clipPath>
</defs>
</svg>
