<svg width="14" height="8" viewBox="0 0 14 8" fill="none" xmlns="http://www.w3.org/2000/svg">
<path d="M13.1218 0.372418C12.8818 0.133886 12.5572 0 12.2189 0C11.8805 0 11.556 0.133886 11.316 0.372418L6.71829 4.90609L2.18461 0.372418C1.94466 0.133886 1.62006 0 1.28172 0C0.943379 0 0.618783 0.133886 0.378828 0.372418C0.258791 0.491475 0.163514 0.633122 0.0984943 0.789187C0.0334749 0.945252 0 1.11265 0 1.28171C0 1.45078 0.0334749 1.61818 0.0984943 1.77424C0.163514 1.93031 0.258791 2.07195 0.378828 2.19101L5.80899 7.62117C5.92805 7.74121 6.06969 7.83649 6.22576 7.90151C6.38182 7.96652 6.54922 8 6.71829 8C6.88735 8 7.05475 7.96652 7.21081 7.90151C7.36688 7.83649 7.50852 7.74121 7.62758 7.62117L13.1218 2.19101C13.2418 2.07195 13.3371 1.93031 13.4021 1.77424C13.4671 1.61818 13.5006 1.45078 13.5006 1.28171C13.5006 1.11265 13.4671 0.945252 13.4021 0.789187C13.3371 0.633122 13.2418 0.491475 13.1218 0.372418Z" fill="#F16E20"/>
</svg>
