<svg width="34" height="20" viewBox="0 0 34 20" fill="none" xmlns="http://www.w3.org/2000/svg">
<path d="M32.3095 20H28.626C27.2316 20 26.8106 18.8686 24.3111 16.3691C22.1272 14.2643 21.2064 14.0012 20.6539 14.0012C19.8909 14.0012 19.6803 14.2116 19.6803 15.2641V18.5792C19.6803 19.4738 19.391 20 17.0494 20C14.7771 19.8473 12.5736 19.157 10.6203 17.986C8.66709 16.815 7.01997 15.1967 5.81462 13.2644C2.95312 9.70276 0.962131 5.52256 0 1.05626C0 0.503732 0.210427 0.00379274 1.26292 0.00379274H4.94636C5.89355 0.00379274 6.23565 0.424799 6.60394 1.39836C8.39301 6.66045 11.4452 11.2385 12.6817 11.2385C13.1553 11.2385 13.3657 11.0281 13.3657 9.84411V4.424C13.2079 1.95088 11.8924 1.7403 11.8924 0.84583C11.9097 0.609838 12.0183 0.389888 12.1952 0.232672C12.372 0.0754559 12.6032 -0.00664683 12.8396 0.00379274H18.628C19.4173 0.00379274 19.6803 0.398454 19.6803 1.34564V8.66012C19.6803 9.44945 20.0224 9.71246 20.2592 9.71246C20.7328 9.71246 21.1011 9.44945 21.9694 8.58119C23.8352 6.30587 25.3597 3.77096 26.4949 1.05626C26.6107 0.729609 26.8304 0.44988 27.1202 0.259826C27.41 0.0697725 27.7541 -0.0201529 28.0999 0.00379274H31.7833C32.8884 0.00379274 33.1252 0.556319 32.8884 1.34564C31.5481 4.34712 29.8898 7.19623 27.942 9.84411C27.5474 10.4492 27.3895 10.7649 27.942 11.4753C28.3103 12.0278 29.5996 13.1065 30.4679 14.1327C31.7307 15.3924 32.7794 16.8499 33.5724 18.4477C33.8881 19.4738 33.362 20 32.3095 20Z" fill="#2994CF"/>
</svg>
