<svg width="31" height="30" viewBox="0 0 31 30" fill="none" xmlns="http://www.w3.org/2000/svg">
<g clip-path="url(#clip0_10_2758)">
<path d="M15.6776 12.4318C17.1099 12.4266 18.2507 11.276 18.2455 9.84059C18.2402 8.40458 17.097 7.26197 15.6641 7.26074C14.2192 7.25921 13.0652 8.42299 13.0763 9.87189C13.087 11.3021 14.2407 12.437 15.6776 12.4318Z" fill="#F16E20"/>
<path d="M15.6635 0C7.37916 0 0.663452 6.71601 0.663452 15C0.663452 23.284 7.37916 30 15.6635 30C23.9477 30 30.6635 23.284 30.6635 15C30.6635 6.71601 23.9477 0 15.6635 0ZM15.6849 4.56153C18.6067 4.56951 20.9517 6.95939 20.9367 9.91335C20.922 12.7992 18.5385 15.1381 15.6217 15.1283C12.7347 15.1185 10.3669 12.7249 10.3841 9.83325C10.4003 6.90997 12.7693 4.55356 15.6849 4.56153ZM21.6027 17.2042C20.9566 17.8674 20.1789 18.3474 19.3153 18.6823C18.4989 18.9987 17.6043 19.158 16.7186 19.2641C16.8527 19.4096 16.9156 19.4811 16.9991 19.5646C18.2009 20.7729 19.4086 21.975 20.6065 23.1867C21.0147 23.5998 21.0997 24.1117 20.875 24.5914C20.6298 25.1162 20.0795 25.4612 19.5397 25.424C19.1978 25.4004 18.9311 25.2307 18.6944 24.9922C17.7872 24.0795 16.8628 23.183 15.9747 22.2531C15.7153 21.9824 15.5913 22.034 15.3627 22.2691C14.4503 23.2088 13.5228 24.1335 12.5901 25.0533C12.1712 25.4664 11.6728 25.5413 11.1866 25.305C10.6701 25.0551 10.3417 24.5276 10.3669 23.9969C10.3847 23.6391 10.5608 23.3647 10.807 23.1198C11.9969 21.9324 13.183 20.7413 14.3695 19.5511C14.4484 19.4722 14.5215 19.3884 14.6359 19.2657C13.0176 19.0966 11.5583 18.6982 10.3089 17.7213C10.1536 17.5998 9.99368 17.4826 9.85251 17.3463C9.30529 16.8212 9.25036 16.2193 9.68279 15.6C10.0532 15.0697 10.6744 14.9279 11.3204 15.2326C11.4457 15.2913 11.5647 15.3655 11.6789 15.4441C14.0071 17.044 17.2057 17.0879 19.543 15.5156C19.7744 15.3388 20.0221 15.1933 20.3091 15.12C20.8664 14.9764 21.3869 15.1817 21.6859 15.6697C22.0281 16.2273 22.0241 16.7712 21.6027 17.2042Z" fill="#F16E20"/>
</g>
<defs>
<clipPath id="clip0_10_2758">
<rect width="30" height="30" fill="white" transform="translate(0.663452)"/>
</clipPath>
</defs>
</svg>
