<svg width="31" height="30" viewBox="0 0 31 30" fill="none" xmlns="http://www.w3.org/2000/svg">
<path d="M15.6635 5.16808e-08C12.6967 5.16808e-08 9.79664 0.879734 7.3299 2.52796C4.86317 4.17618 2.94058 6.51885 1.80527 9.25974C0.669951 12.0006 0.372901 15.0166 0.95168 17.9263C1.53046 20.8361 2.95907 23.5088 5.05686 25.6066C7.15464 27.7044 9.82739 29.133 12.7371 29.7118C15.6468 30.2905 18.6628 29.9935 21.4037 28.8582C24.1446 27.7229 26.4873 25.8003 28.1355 23.3335C29.7837 20.8668 30.6635 17.9667 30.6635 15C30.6636 13.0301 30.2757 11.0795 29.522 9.25955C28.7682 7.43959 27.6633 5.78594 26.2704 4.39303C24.8775 3.00012 23.2239 1.89524 21.4039 1.14147C19.5839 0.387711 17.6333 -0.000163468 15.6635 5.16808e-08ZM20.4327 22.7287C20.3766 22.8687 20.2911 22.9951 20.1822 23.0993C20.0732 23.2036 19.9432 23.2834 19.8008 23.3333C19.6585 23.3833 19.5072 23.4022 19.3569 23.3888C19.2067 23.3755 19.061 23.3302 18.9297 23.2559L14.8577 20.0919L12.2442 22.503C12.1836 22.5478 12.1127 22.5766 12.038 22.5868C11.9632 22.597 11.8872 22.5883 11.8167 22.5614L12.3177 18.0787L12.3338 18.0914L12.344 18.0029C12.344 18.0029 19.6715 11.3317 19.97 11.0474C20.2722 10.7639 20.1725 10.7024 20.1725 10.7024C20.1897 10.3566 19.6302 10.7024 19.6302 10.7024L9.92146 16.9485L5.87822 15.5715C5.87822 15.5715 5.25722 15.3487 5.19872 14.859C5.13722 14.373 5.89846 14.109 5.89846 14.109L21.974 7.72273C21.974 7.72273 23.2955 7.13395 23.2955 8.109L20.4327 22.7287Z" fill="#00C2FF"/>
</svg>
