<svg width="228" height="652" viewBox="0 0 228 652" fill="none" xmlns="http://www.w3.org/2000/svg">
<path d="M173.315 483.994C165.877 484.073 158.522 482.429 151.825 479.19C145.129 475.951 139.273 471.207 134.717 465.327V502.409C134.728 506.703 135.778 510.929 137.777 514.729C139.775 518.529 142.664 521.788 146.195 524.23L210.905 570.015C212.825 571.481 214.638 573.083 216.329 574.808V458.39C212.117 466.125 205.901 472.584 198.333 477.089C190.765 481.594 182.123 483.98 173.315 483.994ZM199.804 545.294C198.132 545.294 196.528 544.629 195.345 543.447C194.162 542.264 193.497 540.66 193.497 538.987C193.497 537.315 194.162 535.71 195.345 534.528C196.528 533.345 198.132 532.681 199.804 532.681C201.477 532.681 203.081 533.345 204.264 534.528C205.447 535.71 206.111 537.315 206.111 538.987C206.111 540.66 205.447 542.264 204.264 543.447C203.081 544.629 201.477 545.294 199.804 545.294ZM199.804 522.464C198.132 522.464 196.528 521.8 195.345 520.617C194.162 519.434 193.497 517.83 193.497 516.158C193.497 514.485 194.162 512.881 195.345 511.698C196.528 510.515 198.132 509.851 199.804 509.851C201.477 509.851 203.081 510.515 204.264 511.698C205.447 512.881 206.111 514.485 206.111 516.158C206.111 517.83 205.447 519.434 204.264 520.617C203.081 521.8 201.477 522.464 199.804 522.464ZM199.804 499.508C198.132 499.508 196.528 498.844 195.345 497.661C194.162 496.478 193.497 494.874 193.497 493.202C193.497 491.529 194.162 489.925 195.345 488.742C196.528 487.56 198.132 486.895 199.804 486.895C201.477 486.895 203.081 487.56 204.264 488.742C205.447 489.925 206.111 491.529 206.111 493.202C206.111 494.874 205.447 496.478 204.264 497.661C203.081 498.844 201.477 499.508 199.804 499.508ZM226.42 335.539V652H302.103C307.879 652 313.597 650.861 318.931 648.647C324.265 646.433 329.11 643.189 333.188 639.099C337.265 635.01 340.496 630.156 342.695 624.816C344.893 619.477 346.016 613.755 346 607.98V458.894C345.988 426.951 333.584 396.258 311.398 373.274C289.213 350.29 258.976 336.808 227.051 335.665L226.42 335.539ZM257.955 480.337H252.278V472.895H258.081L257.955 480.337ZM257.955 470.12H252.278V440.101H258.081L257.955 470.12ZM257.955 437.578H252.278V430.263H258.081L257.955 437.578ZM268.424 480.337H262.496V472.895H268.424V480.337ZM268.424 470.12H262.496V440.101H268.424V470.12ZM268.424 437.578H262.496V430.263H268.424V437.578ZM279.02 480.337H273.218V472.895H279.02V480.337ZM279.02 470.12H273.218V440.101H279.02V470.12ZM279.02 437.578H273.218V430.263H279.02V437.578ZM290.12 480.463H283.813V473.021H290.12V480.463ZM290.12 470.246H283.813V440.101H290.12V470.246ZM290.12 437.704H283.813V430.389H290.12V437.704ZM300.716 480.463H294.913V473.021H300.716V480.463ZM300.716 470.246H294.913V440.101H300.716V470.246ZM300.716 437.704H294.913V430.389H300.716V437.704ZM205.102 577.835L140.267 531.798C135.411 528.438 131.44 523.953 128.694 518.725C125.949 513.498 124.509 507.683 124.499 501.779V437.704C124.499 436.822 124.499 435.686 124.499 434.677V335.034C108.18 334.951 92.0045 338.094 76.9032 344.281C61.8019 350.468 48.0722 359.579 36.503 371.088C24.9339 382.598 15.7533 396.28 9.48893 411.349C3.22454 426.418 -0.000211536 442.576 1.04076e-08 458.894V607.98C1.04075e-08 619.655 4.63804 630.852 12.8939 639.107C21.1497 647.362 32.347 652 44.0226 652H216.329V599.656C216.378 595.379 215.381 591.155 213.424 587.352C211.467 583.549 208.611 580.282 205.102 577.835ZM52.6 480.463H46.7976V473.021H52.6V480.463ZM52.6 470.246H46.7976V440.101H52.6V470.246ZM52.6 437.704H46.7976V430.389H52.6V437.704ZM63.0696 480.463H57.141V473.021H63.0696V480.463ZM63.0696 470.246H57.141V440.101H63.0696V470.246ZM63.0696 437.704H57.141V430.389H63.0696V437.704ZM73.6652 480.463H67.8629V473.021H73.6652V480.463ZM73.6652 470.246H67.8629V440.101H73.6652V470.246ZM73.6652 437.704H67.8629V430.389H73.6652V437.704ZM84.1348 480.463H78.3324V473.021H84.1348V480.463ZM84.1348 470.246H78.3324V440.101H84.1348V470.246ZM84.1348 437.704H78.3324V430.389H84.1348V437.704ZM94.8566 480.463H88.9282V473.021H94.8566V480.463ZM94.8566 470.246H88.9282V440.101H94.8566V470.246ZM94.8566 437.704H88.9282V430.389H94.8566V437.704Z" fill="#83892E"/>
<path d="M48.4939 180.909C53.9458 174.857 53.9457 174.857 46.8456 169.183C48.4487 168.397 49.8114 167.2 50.7923 165.715C51.7733 164.229 52.3367 162.51 52.4243 160.735C52.5004 158.165 52.114 155.603 51.2832 153.169C50.6878 150.923 50.7278 148.557 51.399 146.332C52.0702 144.107 53.3464 142.11 55.0868 140.561C56.7354 139.282 57.9339 137.516 58.5102 135.517C58.5102 134.004 58.5102 132.113 58.5102 131.104C58.5102 130.095 57.2423 127.7 58.5102 125.934C59.8352 124.269 60.7158 122.298 61.0705 120.204C61.4251 118.11 61.2422 115.961 60.5387 113.956C59.7787 111.966 59.7787 109.768 60.5387 107.778C61.553 105.76 62.3138 103.617 63.4549 101.599C64.596 99.5818 65.6103 96.934 63.4549 94.9165C61.2995 92.8991 62.6942 93.1513 63.4549 92.2687C68.8417 86.7791 72.0019 79.5057 72.3301 71.8424C72.3919 71.0351 72.6532 70.2555 73.0908 69.5728C74.1768 68.0815 74.9212 66.3717 75.2717 64.5637C75.6221 62.7557 75.5702 60.8933 75.1194 59.1074C74.8244 58.4753 74.6716 57.7869 74.6716 57.09C74.6716 56.3932 74.8244 55.7047 75.1194 55.0726L87.7983 36.6637C90.7144 32.7549 90.7144 32.7549 86.0232 30.6114C92.5765 27.6763 98.1594 22.9548 102.125 16.9939C105.379 14.2018 109.117 12.0227 113.156 10.5634L119.115 6.9068C119.749 6.9068 120.51 6.9068 120.636 5.772C121.524 1.73717 125.074 2.36761 127.863 1.61108C142.504 -1.5653 157.781 -0.0194876 171.479 6.02418C176.28 8.10828 181.547 8.90239 186.753 8.32708C191.96 7.75178 196.923 5.82723 201.147 2.74588C202.795 1.61108 202.922 1.73717 203.936 5.14156H204.951C206.022 4.01263 207.359 3.16721 208.841 2.68187C210.324 2.19653 211.904 2.0866 213.44 2.36203C214.976 2.63747 216.419 3.28956 217.637 4.25927C218.856 5.22898 219.812 6.48566 220.419 7.9155C220.584 8.29721 220.824 8.64262 221.124 8.93184C221.424 9.22106 221.779 9.44839 222.168 9.60074C222.557 9.75308 222.972 9.82744 223.39 9.81953C223.808 9.81163 224.22 9.7216 224.603 9.55465L236.014 6.65462C237.916 6.65462 238.676 6.65462 238.676 8.67204C238.676 10.6895 238.676 12.833 238.676 14.8504C238.676 16.8678 239.691 18.8852 242.353 19.2635C245.016 19.6417 246.41 20.1461 244.255 23.6766C244.279 24.0124 244.279 24.3495 244.255 24.6853C242.86 26.8288 244.255 27.4592 245.903 27.4592C248.382 27.2366 250.876 27.6717 253.13 28.7201C253.891 28.7201 255.159 28.7201 255.286 30.2332C255.412 31.7462 254.018 31.2419 253.384 31.8723L252.243 32.881C255.641 34.015 258.947 35.406 262.132 37.0419C264.352 38.5397 266.47 40.1825 268.472 41.9594C268.472 41.9594 269.866 42.9681 269.739 43.8507C269.613 44.7333 268.345 44.7333 267.584 44.9855H263.4C270.284 48.7005 275.494 54.8737 277.981 62.2596C280.249 66.6108 283.613 70.3033 287.743 72.9772C291.04 74.9946 294.083 77.3903 291.294 81.9294C291.294 82.9381 291.293 83.4425 292.308 83.9469C293.236 84.5637 294.018 85.373 294.602 86.3191C295.185 87.2652 295.556 88.3257 295.689 89.4278C295.821 90.5299 295.712 91.6475 295.369 92.7037C295.027 93.76 294.458 94.73 293.702 95.547C293.702 96.8079 292.942 97.5644 293.702 98.5731C294.463 99.5818 296.365 101.473 297.633 102.986C298.901 104.499 298.774 103.995 298.394 104.751C298.013 105.508 297.253 105.382 296.745 105.382C294.803 105.501 292.855 105.501 290.913 105.382C288.251 105.382 288.124 106.517 289.265 108.408C289.679 109.357 290.144 110.283 290.66 111.182C295.34 118.856 298.242 127.47 299.154 136.4C299.154 138.921 299.154 140.434 296.238 140.813C293.322 141.191 293.702 141.695 295.477 143.335C296.164 143.882 296.7 144.594 297.034 145.404C297.369 146.213 297.491 147.094 297.39 147.964C297.288 148.833 296.967 149.663 296.455 150.375C295.943 151.087 295.258 151.658 294.463 152.035C293.195 152.917 292.942 153.296 294.463 154.556C296.059 156.235 297.009 158.418 297.148 160.723C297.287 163.029 296.606 165.309 295.224 167.165C295.224 168.048 294.463 168.678 295.224 169.561C295.996 170.4 296.564 171.404 296.884 172.495C297.205 173.586 297.27 174.736 297.074 175.856C296.878 176.977 296.427 178.037 295.754 178.957C295.082 179.876 294.206 180.63 293.195 181.161C290.154 182.629 287.438 184.687 285.208 187.213C284.404 188.944 283.001 190.329 281.255 191.116C279.509 191.903 277.537 192.039 275.699 191.5C273.543 190.87 272.782 192.635 272.529 194.4C272.275 196.166 270.881 198.183 268.218 198.435L249.2 200.579C247.298 200.579 245.523 200.579 244.889 203.353C244.255 206.127 242.734 205.118 241.339 205.37C225.11 207.892 208.881 210.54 192.525 212.935C179.956 215.017 167.231 216.03 154.489 215.962C134.041 215.581 113.888 211.032 95.2787 202.596C89.1962 199.34 82.4071 197.609 75.4998 197.553C74.494 197.368 73.4627 197.368 72.4569 197.553C70.8086 197.553 69.9211 197.553 69.5407 195.913C69.1603 194.274 67.5121 191.122 64.0888 191.626C63.7771 191.702 63.4526 191.707 63.1387 191.641C62.8248 191.576 62.5295 191.442 62.2744 191.248C62.0193 191.055 61.8107 190.808 61.664 190.524C61.5173 190.24 61.4361 189.928 61.4263 189.609C61.4263 186.709 59.1441 186.583 56.9887 186.709C54.8333 186.835 52.2975 186.709 52.2975 183.178C52.2975 179.648 49.7618 182.422 48.4939 180.909Z" fill="#83892E"/>
<path d="M101.088 301.365C102.238 297.04 103.67 292.797 105.376 288.662C111.79 276.909 121.617 267.41 133.54 261.439C145.462 255.468 158.912 253.31 172.087 255.254C179.149 256.397 186.715 254.619 193.777 255.254C204.347 256.216 214.476 259.978 223.136 266.158C231.796 272.338 238.679 280.716 243.086 290.441C244.308 293.903 245.195 297.477 245.734 301.111C235.267 298.317 225.809 295.141 215.972 293.489C208.658 292.092 200.587 293.489 193.525 292.092C180.639 288.597 167.065 288.597 154.179 292.092C145.159 293.539 136.065 294.472 126.94 294.887C118.743 296.792 110.546 299.333 101.088 301.365Z" fill="#83892E"/>
</svg>
