<svg width="209" height="394" viewBox="0 0 209 394" fill="none" xmlns="http://www.w3.org/2000/svg">
<path d="M104.69 292.475C100.197 292.523 95.7544 291.529 91.7094 289.572C87.6644 287.615 84.1273 284.748 81.3751 281.195V303.603C81.3819 306.198 82.0161 308.752 83.2234 311.048C84.4308 313.344 86.1755 315.314 88.3087 316.789L127.396 344.457C128.556 345.343 129.651 346.311 130.673 347.354V277.003C128.129 281.677 124.374 285.58 119.802 288.303C115.231 291.025 110.011 292.466 104.69 292.475ZM120.691 329.518C119.681 329.518 118.712 329.117 117.997 328.402C117.283 327.687 116.881 326.718 116.881 325.707C116.881 324.696 117.283 323.727 117.997 323.012C118.712 322.298 119.681 321.896 120.691 321.896C121.702 321.896 122.671 322.298 123.385 323.012C124.099 323.727 124.501 324.696 124.501 325.707C124.501 326.718 124.099 327.687 123.385 328.402C122.671 329.117 121.702 329.518 120.691 329.518ZM120.691 315.722C119.681 315.722 118.712 315.321 117.997 314.606C117.283 313.891 116.881 312.922 116.881 311.911C116.881 310.9 117.283 309.931 117.997 309.216C118.712 308.502 119.681 308.1 120.691 308.1C121.702 308.1 122.671 308.502 123.385 309.216C124.099 309.931 124.501 310.9 124.501 311.911C124.501 312.922 124.099 313.891 123.385 314.606C122.671 315.321 121.702 315.722 120.691 315.722ZM120.691 301.85C119.681 301.85 118.712 301.449 117.997 300.734C117.283 300.019 116.881 299.05 116.881 298.039C116.881 297.028 117.283 296.059 117.997 295.344C118.712 294.63 119.681 294.228 120.691 294.228C121.702 294.228 122.671 294.63 123.385 295.344C124.099 296.059 124.501 297.028 124.501 298.039C124.501 299.05 124.099 300.019 123.385 300.734C122.671 301.449 121.702 301.85 120.691 301.85ZM136.768 202.764V394H182.484C185.973 394 189.427 393.312 192.649 391.974C195.871 390.636 198.798 388.675 201.261 386.204C203.724 383.733 205.675 380.8 207.003 377.573C208.331 374.346 209.01 370.889 209 367.399V277.307C208.993 258.004 201.5 239.456 188.099 225.567C174.698 211.679 156.433 203.531 137.149 202.841L136.768 202.764ZM155.817 290.265H152.388V285.768H155.893L155.817 290.265ZM155.817 284.091H152.388V265.951H155.893L155.817 284.091ZM155.817 264.426H152.388V260.005H155.893L155.817 264.426ZM162.141 290.265H158.559V285.768H162.141V290.265ZM162.141 284.091H158.559V265.951H162.141V284.091ZM162.141 264.426H158.559V260.005H162.141V264.426ZM168.541 290.265H165.036V285.768H168.541V290.265ZM168.541 284.091H165.036V265.951H168.541V284.091ZM168.541 264.426H165.036V260.005H168.541V264.426ZM175.246 290.341H171.436V285.844H175.246V290.341ZM175.246 284.167H171.436V265.951H175.246V284.167ZM175.246 264.502H171.436V260.082H175.246V264.502ZM181.646 290.341H178.141V285.844H181.646V290.341ZM181.646 284.167H178.141V265.951H181.646V284.167ZM181.646 264.502H178.141V260.082H181.646V264.502ZM123.891 349.183L84.7276 321.363C81.7943 319.332 79.3959 316.622 77.7373 313.463C76.0787 310.304 75.2094 306.79 75.2034 303.222V264.502C75.2034 263.969 75.2034 263.283 75.2034 262.673V202.459C65.3456 202.409 55.575 204.308 46.4531 208.047C37.3312 211.786 29.0378 217.291 22.0495 224.247C15.0612 231.202 9.51573 239.47 5.73175 248.576C1.94777 257.682 -0.000127778 267.446 6.28668e-09 277.307V367.399C6.28662e-09 374.454 2.80159 381.22 7.78849 386.209C12.7754 391.197 19.5391 394 26.5917 394H130.673V362.369C130.702 359.784 130.1 357.232 128.918 354.934C127.736 352.636 126.01 350.661 123.891 349.183ZM31.7728 290.341H28.2679V285.844H31.7728V290.341ZM31.7728 284.167H28.2679V265.951H31.7728V284.167ZM31.7728 264.502H28.2679V260.082H31.7728V264.502ZM38.097 290.341H34.5158V285.844H38.097V290.341ZM38.097 284.167H34.5158V265.951H38.097V284.167ZM38.097 264.502H34.5158V260.082H38.097V264.502ZM44.4972 290.341H40.9923V285.844H44.4972V290.341ZM44.4972 284.167H40.9923V265.951H44.4972V284.167ZM44.4972 264.502H40.9923V260.082H44.4972V264.502ZM50.8213 290.341H47.3164V285.844H50.8213V290.341ZM50.8213 284.167H47.3164V265.951H50.8213V284.167ZM50.8213 264.502H47.3164V260.082H50.8213V264.502ZM57.2978 290.341H53.7167V285.844H57.2978V290.341ZM57.2978 284.167H53.7167V265.951H57.2978V284.167ZM57.2978 264.502H53.7167V260.082H57.2978V264.502Z" fill="#83892E"/>
<path d="M29.2925 109.322C32.5857 105.665 32.5857 105.665 28.2969 102.236C29.2652 101.762 30.0884 101.038 30.6809 100.14C31.2734 99.2428 31.6138 98.2037 31.6667 97.1311C31.7127 95.5785 31.4793 94.0303 30.9774 92.5594C30.6178 91.2021 30.6419 89.7723 31.0474 88.4277C31.4528 87.0832 32.2237 85.8762 33.275 84.94C34.2708 84.1671 34.9947 83.1001 35.3428 81.8922C35.3428 80.9779 35.3428 79.8349 35.3428 79.2254C35.3428 78.6158 34.577 77.1681 35.3428 76.1014C36.1432 75.0951 36.6752 73.9041 36.8894 72.6387C37.1036 71.3733 36.9931 70.0745 36.5682 68.8629C36.1091 67.6603 36.1091 66.332 36.5682 65.1294C37.1809 63.9103 37.6404 62.615 38.3297 61.3959C39.019 60.1767 39.6316 58.5767 38.3297 57.3576C37.0277 56.1384 37.8702 56.2908 38.3297 55.7575C41.5835 52.4401 43.4925 48.0449 43.6907 43.4139C43.728 42.9261 43.8859 42.455 44.1502 42.0424C44.8062 41.1413 45.2559 40.1081 45.4676 39.0155C45.6792 37.9229 45.6479 36.7975 45.3756 35.7183C45.1974 35.3363 45.105 34.9203 45.105 34.4992C45.105 34.0781 45.1974 33.662 45.3756 33.2801L53.0342 22.1557C54.7957 19.7936 54.7957 19.7936 51.962 18.4983C55.9205 16.7246 59.2928 13.8715 61.6884 10.2693C63.6537 8.58209 65.9116 7.26528 68.3514 6.38338L71.9509 4.17374C72.3339 4.17374 72.7933 4.17374 72.8699 3.48799C73.406 1.04976 75.5505 1.43073 77.2354 0.973567C86.0789 -0.945901 95.3072 -0.0117762 103.581 3.64038C106.481 4.89979 109.663 5.37966 112.808 5.03201C115.953 4.68436 118.951 3.52136 121.502 1.65932C122.498 0.973567 122.574 1.04976 123.187 3.10702H123.8C124.447 2.42481 125.254 1.91393 126.15 1.62064C127.045 1.32735 128 1.26092 128.928 1.42736C129.856 1.59381 130.727 1.98787 131.463 2.57385C132.199 3.15984 132.776 3.91925 133.143 4.7833C133.243 5.01396 133.388 5.22269 133.569 5.39746C133.75 5.57224 133.965 5.70961 134.2 5.80167C134.435 5.89373 134.685 5.93867 134.938 5.93389C135.19 5.92911 135.439 5.87471 135.67 5.77383L142.563 4.02135C143.712 4.02135 144.172 4.02135 144.172 5.24046C144.172 6.45958 144.172 7.75488 144.172 8.974C144.172 10.1931 144.784 11.4122 146.393 11.6408C148.001 11.8694 148.843 12.1742 147.541 14.3076C147.556 14.5105 147.556 14.7142 147.541 14.9172C146.699 16.2125 147.541 16.5935 148.537 16.5935C150.034 16.4589 151.541 16.7219 152.902 17.3554C153.362 17.3554 154.128 17.3554 154.204 18.2697C154.281 19.1841 153.438 18.8793 153.055 19.2603L152.366 19.8698C154.419 20.5551 156.416 21.3957 158.34 22.3842C159.681 23.2894 160.96 24.2821 162.169 25.3558C162.169 25.3558 163.012 25.9654 162.935 26.4987C162.859 27.0321 162.093 27.0321 161.633 27.1845H159.106C163.264 29.4294 166.411 33.1599 167.913 37.6232C169.284 40.2526 171.315 42.4839 173.81 44.0997C175.802 45.3188 177.64 46.7665 175.955 49.5095C175.955 50.1191 175.955 50.4238 176.567 50.7286C177.128 51.1014 177.601 51.5904 177.953 52.1622C178.306 52.7339 178.53 53.3748 178.61 54.0407C178.69 54.7067 178.624 55.3821 178.417 56.0204C178.21 56.6587 177.866 57.2448 177.41 57.7385C177.41 58.5005 176.95 58.9576 177.41 59.5672C177.869 60.1768 179.018 61.3197 179.784 62.234C180.55 63.1483 180.473 62.8436 180.244 63.3007C180.014 63.7579 179.554 63.6817 179.248 63.6817C178.075 63.7538 176.898 63.7538 175.725 63.6817C174.117 63.6817 174.04 64.3674 174.729 65.5104C174.979 66.0839 175.261 66.6435 175.572 67.1867C178.399 71.8239 180.152 77.0297 180.703 82.4256C180.703 83.9495 180.703 84.8638 178.942 85.0924C177.18 85.321 177.41 85.6257 178.482 86.6163C178.897 86.9471 179.221 87.3773 179.423 87.8666C179.625 88.3558 179.698 88.8881 179.637 89.4136C179.576 89.939 179.382 90.4403 179.072 90.8706C178.763 91.3009 178.349 91.6461 177.869 91.8737C177.104 92.4071 176.95 92.6356 177.869 93.3976C178.833 94.4118 179.407 95.7311 179.491 97.1242C179.575 98.5173 179.164 99.8954 178.329 101.017C178.329 101.55 177.869 101.931 178.329 102.465C178.795 102.972 179.138 103.578 179.332 104.238C179.526 104.897 179.565 105.592 179.446 106.269C179.328 106.946 179.055 107.587 178.649 108.143C178.243 108.698 177.714 109.154 177.104 109.475C175.266 110.362 173.626 111.605 172.279 113.132C171.793 114.178 170.945 115.015 169.891 115.49C168.836 115.966 167.645 116.048 166.535 115.723C165.233 115.342 164.773 116.408 164.62 117.475C164.467 118.542 163.624 119.761 162.016 119.913L150.528 121.209C149.379 121.209 148.307 121.209 147.924 122.885C147.541 124.561 146.622 123.952 145.78 124.104C135.977 125.628 126.174 127.228 116.294 128.676C108.702 129.934 101.015 130.546 93.3184 130.504C80.9667 130.275 68.7937 127.526 57.5527 122.428C53.8786 120.46 49.7777 119.414 45.6053 119.38C44.9978 119.268 44.3748 119.268 43.7673 119.38C42.7717 119.38 42.2355 119.38 42.0058 118.389C41.776 117.399 40.7804 115.494 38.7126 115.799C38.5243 115.844 38.3283 115.847 38.1387 115.808C37.9491 115.768 37.7707 115.687 37.6166 115.57C37.4625 115.454 37.3365 115.304 37.2479 115.133C37.1593 114.961 37.1102 114.772 37.1043 114.58C37.1043 112.827 35.7257 112.751 34.4238 112.827C33.1218 112.903 31.5901 112.827 31.5901 110.694C31.5901 108.56 30.0584 110.237 29.2925 109.322Z" fill="#83892E"/>
<path d="M61.0615 182.113C61.7561 179.5 62.6213 176.936 63.6515 174.437C67.5259 167.334 73.4618 161.595 80.6638 157.986C87.8658 154.378 95.99 153.074 103.948 154.248C108.214 154.939 112.784 153.865 117.05 154.248C123.435 154.83 129.553 157.103 134.784 160.838C140.015 164.572 144.173 169.635 146.835 175.512C147.573 177.604 148.109 179.764 148.434 181.96C142.112 180.271 136.399 178.352 130.457 177.354C126.039 176.51 121.164 177.354 116.898 176.51C109.114 174.398 100.915 174.398 93.1313 176.51C87.6825 177.384 82.1892 177.948 76.6775 178.198C71.7261 179.35 66.7747 180.885 61.0615 182.113Z" fill="#83892E"/>
</svg>
